<svg width="361" height="494" viewBox="0 0 361 494" fill="none" xmlns="http://www.w3.org/2000/svg">
<path d="M360.109 409.142V407.108L337.809 445.1L178.509 408.1L360.109 323.271V322.141L298.109 351.1L162.609 206.5L360.109 189.047V188.048L161.709 205.6L50.3089 86.7L124.609 50.2L360.109 131.228V130.147L300.709 109.7L294.273 0H293.223L299.609 109.5L63.9089 28.3L76.1252 0H75.156L63.3089 27.4L48.0843 0H46.8389L62.2089 27.7L4.27889 7.77504C4.07052 8.04446 3.86888 8.31935 3.67421 8.59945L63.1089 29H63.2089L63.6089 29.1L123.409 49.7L0.108887 110.261V111.386L49.4089 87.2L297.209 351.6L264.909 366.7L0.108887 196.07V197.256L263.809 367.1L43.4089 470.1L0.108887 358.164V360.892L42.5089 470.5L5.59243 487.758C5.83138 488.01 6.07682 488.256 6.32848 488.495L101.909 443.8L136.499 494H137.67L102.809 443.4L177.009 408.7L337.309 446L309.226 494H310.367L360.109 409.142Z" fill="url(#paint0_linear_564_716)"/>
<defs>
<linearGradient id="paint0_linear_564_716" x1="-46.7858" y1="528.45" x2="485.867" y2="137.571" gradientUnits="userSpaceOnUse">
<stop stop-color="#8E6440"/>
<stop offset="0.9536" stop-color="#D7AB7C"/>
</linearGradient>
</defs>
</svg>
