<svg width="344" height="344" viewBox="0 0 344 344" fill="none" xmlns="http://www.w3.org/2000/svg">
<path d="M196.802 2.50121L208.05 5.00242C211.549 5.75279 214.049 6.83665 215.632 8.17063C217.132 9.50461 217.715 11.2555 217.215 13.5065C216.465 16.9249 213.965 18.5923 209.633 18.3422V18.4256C214.549 20.1764 216.548 22.9278 215.715 26.6796C215.132 29.4309 213.632 31.0984 211.383 31.7654C209.05 32.4324 205.967 32.2656 202.134 31.4319L191.053 29.0141L191.22 28.2637L193.636 28.7639L199.135 3.83519L196.635 3.25158L196.802 2.50121ZM203.717 17.6752L200.968 30.2647L202.718 30.6815C204.134 31.015 205.134 30.6815 205.967 29.8478C206.717 29.0141 207.3 27.6801 207.717 25.8459L208.133 23.8449C208.466 22.1774 208.467 20.8434 207.967 19.9263C207.467 18.9258 206.384 18.2588 204.634 17.9254L203.717 17.6752ZM206.467 5.41929L203.884 17.0082L204.884 17.2584C206.217 17.5085 207.217 17.3417 207.883 16.6747C208.55 16.0078 209.133 14.8405 209.466 13.173L209.883 11.4222C210.299 9.58798 210.383 8.17063 210.05 7.33689C209.8 6.50315 208.966 5.91953 207.717 5.66941L206.467 5.41929Z" fill="#CEA474"/>
<path d="M225.88 35.684C226.13 37.1847 227.296 38.2685 229.213 39.1023C231.129 39.936 232.879 39.936 234.462 39.1023C236.045 38.3519 237.295 36.6844 238.294 34.1832L244.877 18.0087L242.544 17.0916L242.794 16.4246L248.043 18.5923L247.793 19.2593L245.793 18.4256L239.294 34.35C238.044 37.2681 236.545 39.269 234.628 40.1861C232.712 41.1032 230.129 40.8531 226.797 39.5191C223.464 38.1852 221.214 36.4343 220.048 34.35C218.881 32.2656 218.965 29.5143 220.298 26.1793L226.63 10.6718L224.63 9.8381L224.88 9.17111L236.128 13.7567L235.878 14.4237L233.545 13.5065L226.713 30.1813C225.963 32.349 225.63 34.1832 225.88 35.684Z" fill="#CEA474"/>
<path d="M258.041 39.4358L269.122 32.0989L265.789 30.0145L266.123 29.5143L272.538 33.5162L272.205 34.0165L270.039 32.6825L258.291 40.5196L251.542 51.3582L253.542 52.6088L253.125 53.1924L242.794 46.6893L243.21 46.1057L245.21 47.3563L251.625 37.1847L253.292 22.1774L251.792 21.1769L252.125 20.6767L262.623 27.2632L262.29 27.7635L260.124 26.4295L258.041 39.4358Z" fill="#CEA474"/>
<path d="M297.534 57.0276L279.204 75.8701L275.371 72.1183L283.286 45.0218L266.373 62.3635L267.872 63.8643L267.372 64.3645L263.623 60.6961L264.123 60.1958L265.623 61.6966L283.453 43.3543L281.953 41.8536L282.453 41.3534L290.118 48.7736L283.87 69.7004L296.867 56.3606L295.367 54.8599L295.867 54.3597L299.617 58.0281L299.117 58.5284L297.534 57.0276Z" fill="#CEA474"/>
<path d="M288.619 88.793C286.119 85.2913 285.203 82.0397 285.869 78.9549C286.536 75.8701 288.619 73.0354 292.201 70.4508C295.784 67.8662 299.283 66.7824 302.699 67.1992C306.116 67.6161 308.948 69.4503 311.448 72.8686C313.864 76.287 314.697 79.5385 314.031 82.6234C313.281 85.7916 311.115 88.6263 307.532 91.2109C303.949 93.7954 300.533 94.8793 297.284 94.5458C293.951 94.2123 291.118 92.2947 288.619 88.793ZM301.45 85.6248L303.783 83.9573C307.615 81.206 309.865 79.2884 310.615 78.2046C311.448 76.9539 311.781 75.8701 311.448 74.8696C311.281 74.286 311.031 73.7024 310.531 73.1188C310.115 72.4518 309.615 72.0349 309.115 71.7014C308.615 71.3679 308.032 71.2012 307.449 71.2012C306.782 71.2012 306.199 71.2845 305.616 71.4513C305.032 71.618 304.283 71.9515 303.366 72.4518C302.033 73.2021 300.2 74.3694 297.867 76.1202L295.617 77.7043C293.035 79.5385 291.285 80.9559 290.368 81.873C289.452 82.8735 288.869 83.6238 288.619 84.2908C288.035 85.7082 288.285 87.0422 289.202 88.3762C290.368 90.0436 291.868 90.6272 293.618 90.127C295.451 89.6268 298.034 88.126 301.45 85.6248Z" fill="#CEA474"/>
<path d="M309.781 109.053L321.279 107.552L327.112 102.466L326.279 100.465L326.945 100.215L331.694 111.221L331.028 111.471L330.111 109.386L315.614 121.892L334.194 118.891L332.611 115.306L333.277 115.056L336.36 122.143L335.693 122.393L334.694 120.058L307.449 124.143L306.116 120.975L319.863 108.803L301.866 111.137L300.533 108.052L321.113 88.5429L320.363 86.8754L321.029 86.6253L326.029 98.1309L325.362 98.381L324.279 95.8798L309.781 109.053Z" fill="#CEA474"/>
<path d="M340.693 143.153L341.859 154.658C342.192 158.243 342.026 160.911 341.193 162.829C340.443 164.746 338.86 165.747 336.61 165.997C333.111 166.331 330.778 164.413 329.695 160.328H329.611C329.528 165.497 327.528 168.332 323.696 168.665C320.946 168.915 318.863 168.081 317.53 166.08C316.197 164.079 315.364 161.161 314.947 157.159L313.781 145.904L314.531 145.821L314.781 148.322L340.193 145.737L339.943 143.236L340.693 143.153ZM328.362 154.492L315.53 155.825L315.697 157.66C315.864 159.077 316.447 159.994 317.447 160.494C318.447 160.995 319.946 161.078 321.863 160.911L323.862 160.745C325.529 160.578 326.778 160.078 327.528 159.327C328.278 158.577 328.611 157.243 328.445 155.492L328.362 154.492ZM340.943 153.241L329.111 154.408L329.195 155.409C329.361 156.743 329.861 157.66 330.694 158.077C331.528 158.493 332.777 158.66 334.444 158.493L336.277 158.327C338.193 158.16 339.443 157.743 340.193 157.243C340.859 156.743 341.193 155.826 341.026 154.492L340.943 153.241Z" fill="#CEA474"/>
<path d="M318.197 181.171C316.864 181.921 316.114 183.339 316.03 185.423C315.864 187.508 316.447 189.175 317.697 190.426C318.947 191.676 320.863 192.343 323.529 192.51L340.943 193.761L341.109 191.259L341.859 191.343L341.442 196.929L340.693 196.845L340.859 194.761L323.696 193.594C320.53 193.344 318.197 192.51 316.697 191.009C315.197 189.508 314.614 186.924 314.864 183.339C315.114 179.754 316.03 177.086 317.697 175.252C319.28 173.501 321.946 172.667 325.529 172.917L342.192 174.084L342.359 172L343.109 172.083L342.276 184.173L341.526 184.089L341.692 181.588L323.696 180.337C321.363 180.171 319.53 180.504 318.197 181.171Z" fill="#CEA474"/>
<path d="M324.862 212.853L335.277 221.024L336.193 217.272L336.777 217.439L334.944 224.859L334.36 224.692L334.944 222.191L323.779 213.437L311.365 210.435L310.781 212.686L310.031 212.52L312.948 200.597L313.697 200.764L313.114 203.015L324.779 205.85L339.526 202.682L339.943 200.931L340.526 201.097L337.61 213.103L337.027 212.936L337.61 210.519L324.862 212.853Z" fill="#CEA474"/>
<path d="M320.446 255.957L296.867 244.452L299.2 239.616L327.445 238.699L305.699 228.027L304.782 229.945L304.116 229.611L306.449 224.859L307.115 225.192L306.199 227.11L329.111 238.365L330.028 236.448L330.694 236.781L326.029 246.369L304.199 246.953L320.946 255.124L321.863 253.206L322.529 253.54L320.196 258.292L319.53 257.958L320.446 255.957Z" fill="#CEA474"/>
<path d="M287.536 257.375C290.118 253.873 292.951 252.039 296.034 251.705C299.2 251.372 302.533 252.539 306.032 255.124C309.615 257.708 311.698 260.71 312.364 264.045C313.031 267.38 312.198 270.715 309.698 274.049C307.199 277.384 304.366 279.219 301.2 279.552C298.034 279.886 294.618 278.635 291.035 276.05C287.452 273.466 285.369 270.548 284.619 267.38C284.036 264.128 284.953 260.876 287.536 257.375ZM294.534 268.63L296.867 270.298C300.7 273.049 303.199 274.633 304.449 275.05C305.866 275.467 307.032 275.383 307.865 274.8C308.365 274.466 308.782 274.049 309.282 273.382C309.698 272.799 310.031 272.132 310.198 271.632C310.365 271.048 310.365 270.464 310.115 269.881C309.948 269.297 309.615 268.714 309.282 268.213C308.948 267.713 308.448 267.129 307.699 266.379C306.615 265.379 304.866 264.045 302.533 262.294L300.283 260.626C297.784 258.792 295.867 257.541 294.701 256.958C293.451 256.374 292.535 256.041 291.868 256.041C290.368 255.957 289.119 256.541 288.119 257.875C286.952 259.542 286.786 261.043 287.869 262.544C288.869 264.128 291.118 266.129 294.534 268.63Z" fill="#CEA474"/>
<path d="M274.871 283.888L279.87 294.309L286.536 298.311L288.202 296.81L288.702 297.394L279.787 305.315L279.287 304.731L280.953 303.23L264.54 293.392L273.205 310.15L276.121 307.566L276.621 308.149L270.872 313.318L270.372 312.735L272.288 311.067L259.874 286.389L262.457 284.138L278.287 293.392L270.455 277.051L272.955 274.8L297.95 288.306L299.283 287.139L299.783 287.723L290.452 296.06L289.952 295.476L291.951 293.642L274.871 283.888Z" fill="#CEA474"/>
<path d="M252.209 323.907L241.71 328.659C238.461 330.16 235.795 330.744 233.795 330.66C231.796 330.493 230.296 329.41 229.379 327.325C227.963 324.074 229.046 321.322 232.629 318.988V318.905C227.63 320.405 224.38 319.405 222.881 315.903C221.714 313.318 221.881 311.151 223.38 309.233C224.88 307.316 227.38 305.565 231.046 303.981L241.377 299.312L241.71 299.979L239.461 300.979L249.876 324.324L252.125 323.323L252.209 323.907ZM237.628 315.82L232.379 303.981L230.712 304.731C229.463 305.315 228.713 306.148 228.63 307.316C228.546 308.399 228.879 309.9 229.629 311.568L230.463 313.402C231.129 314.986 231.962 315.986 232.962 316.487C233.962 316.987 235.212 316.904 236.878 316.153L237.628 315.82ZM242.794 327.325L237.961 316.487L237.045 316.904C235.795 317.487 235.128 318.237 234.962 319.155C234.795 320.072 235.045 321.322 235.795 322.906L236.545 324.574C237.295 326.325 238.044 327.409 238.794 327.909C239.544 328.409 240.461 328.409 241.71 327.826L242.794 327.325Z" fill="#CEA474"/>
<path d="M209.133 314.486C208.05 313.485 206.467 313.235 204.384 313.735C202.301 314.236 200.968 315.319 200.135 316.82C199.385 318.404 199.301 320.405 199.968 323.073L204.217 339.998L206.633 339.414L206.8 340.165L201.301 341.582L201.134 340.832L203.217 340.332L199.052 323.657C198.302 320.572 198.385 318.071 199.385 316.237C200.385 314.402 202.634 312.985 206.05 312.151C209.55 311.234 212.382 311.318 214.549 312.318C216.715 313.318 218.298 315.57 219.215 319.071L223.297 335.162L225.38 334.662L225.547 335.412L213.799 338.414L213.632 337.664L216.048 337.08L211.633 319.571C211.049 317.237 210.216 315.57 209.133 314.486Z" fill="#CEA474"/>
<path d="M181.055 330.66L176.556 343.166L180.472 342.833L180.555 343.416L172.973 344L172.89 343.416L175.389 343.25L180.222 329.91L179.222 317.154L176.889 317.32L176.806 316.57L188.97 315.653L189.053 316.403L186.72 316.57L187.637 328.576L195.219 341.666L197.052 341.499L197.135 342.082L184.804 343L184.721 342.416L187.22 342.249L181.055 330.66Z" fill="#CEA474"/>
<path d="M138.896 339.998L142.395 313.985L147.727 314.736L157.476 341.249L160.725 317.237L158.642 316.987L158.725 316.237L163.975 316.904L163.891 317.654L161.808 317.404L158.392 342.749L160.475 343L160.392 343.75L149.81 342.333L142.395 321.739L139.896 340.248L141.979 340.498L141.895 341.249L136.646 340.582L136.729 339.831L138.896 339.998Z" fill="#CEA474"/>
<path d="M127.148 309.233C131.23 310.567 133.897 312.651 135.23 315.57C136.563 318.404 136.479 321.989 135.146 326.158C133.813 330.327 131.647 333.328 128.648 334.996C125.731 336.663 122.232 336.913 118.316 335.663C114.4 334.412 111.734 332.244 110.484 329.326C109.234 326.408 109.234 322.823 110.651 318.571C111.984 314.402 114.067 311.401 116.9 309.733C119.649 308.066 123.065 307.899 127.148 309.233ZM118.649 319.405L117.733 322.156C116.316 326.658 115.567 329.493 115.65 330.827C115.733 332.328 116.15 333.412 116.9 333.995C117.316 334.329 117.983 334.662 118.649 334.912C119.316 335.162 120.066 335.246 120.649 335.246C121.232 335.246 121.815 334.996 122.315 334.662C122.815 334.245 123.232 333.828 123.648 333.412C124.065 332.911 124.482 332.244 124.898 331.327C125.481 329.993 126.231 327.909 127.148 325.158L127.981 322.49C128.981 319.488 129.564 317.32 129.731 315.986C129.897 314.652 129.897 313.652 129.731 312.985C129.397 311.568 128.398 310.567 126.815 310.067C124.898 309.4 123.399 309.817 122.232 311.317C121.149 312.568 119.982 315.319 118.649 319.405Z" fill="#CEA474"/>
<path d="M98.0698 305.481L89.738 313.485L88.0716 320.989L89.9879 322.073L89.6546 322.74L79.3232 316.737L79.6564 316.07L81.6561 317.237L85.822 298.561L72.6577 311.984L75.9904 313.985L75.6572 314.652L68.9917 310.734L69.325 310.067L71.4912 311.317L90.9877 291.808L93.9872 293.559L90.1545 311.484L103.236 298.895L106.152 300.562L101.153 328.492L102.736 329.41L102.402 330.077L91.571 323.74L91.9042 323.073L94.2371 324.407L98.0698 305.481Z" fill="#CEA474"/>
<path d="M52.9946 296.394L45.246 287.889C42.8298 285.221 41.4134 282.97 40.9134 280.969C40.4135 278.968 40.9968 277.218 42.7464 275.717C45.3293 273.382 48.3288 273.466 51.7448 276.134L51.8281 276.05C48.8287 271.798 48.7454 268.38 51.5782 265.795C53.6611 263.878 55.8274 263.378 58.077 264.211C60.3266 265.045 62.7428 266.879 65.409 269.797L73.0743 278.218L72.4911 278.718L70.8247 276.884L51.9115 294.059L53.5778 295.893L52.9946 296.394ZM46.829 288.473L55.5775 280.469L54.9109 279.719C53.9944 278.718 53.0779 278.301 52.1614 278.468C51.2449 278.635 50.0785 279.302 48.912 280.386L47.5789 281.636C46.1625 282.887 45.3293 283.971 45.0794 284.805C44.8294 285.638 45.1627 286.556 45.9959 287.556L46.829 288.473ZM56.1607 279.969L65.7423 271.298L64.4925 269.964C63.576 268.88 62.4929 268.547 61.4097 268.714C60.3266 268.964 59.0768 269.714 57.6604 270.965L56.1607 272.382C54.9109 273.549 54.161 274.633 54.0777 275.717C53.9111 276.801 54.411 277.968 55.6608 279.302L56.1607 279.969Z" fill="#CEA474"/>
<path d="M48.4121 252.539C49.0786 251.205 48.7454 249.621 47.6622 247.787C46.4958 246.036 45.0794 244.952 43.413 244.702C41.6633 244.452 39.747 245.035 37.4974 246.453L22.7501 255.957L24.0831 258.042L23.4999 258.459L20.5005 253.706L21.0837 253.289L22.2501 255.04L36.6642 245.869C39.3304 244.118 41.7466 243.451 43.8296 243.785C45.9125 244.118 47.9122 245.786 49.8285 248.871C51.7448 251.955 52.578 254.623 52.328 257.041C52.0781 259.459 50.4117 261.627 47.4123 263.544L33.3315 272.549L34.4979 274.3L33.9147 274.716L27.4159 264.461L27.9991 264.045L29.3322 266.129L44.5794 256.458C46.4958 255.207 47.7455 253.873 48.4121 252.539Z" fill="#CEA474"/>
<path d="M24.2498 230.945L11.0022 230.528L12.5019 234.113L11.9187 234.364L9.00254 227.36L9.58577 227.11L10.5856 229.445L24.7497 229.861L36.4976 224.942L35.5811 222.775L36.2476 222.524L40.9968 233.78L40.3302 234.03L39.4137 231.862L28.3324 236.531L18.3342 247.87L19.0007 249.538L18.4175 249.788L13.6684 238.365L14.2516 238.115L15.2514 240.45L24.2498 230.945Z" fill="#CEA474"/>
<path d="M2.17044 193.677L27.9991 188.925L28.9989 194.261L6.83627 211.769L30.6653 207.35L30.2487 205.266L30.9986 205.099L31.9151 210.269L31.1652 210.435L30.7486 208.351L5.66981 212.936L6.0864 215.021L5.33654 215.188L3.42022 204.682L20.6671 191.259L2.33708 194.594L2.75367 196.679L2.00381 196.845L1.08731 191.76L1.83717 191.593L2.17044 193.677Z" fill="#CEA474"/>
<path d="M27.8325 173.084C27.9158 177.419 26.7493 180.587 24.4997 182.755C22.1668 184.923 18.8341 186.007 14.4182 186.09C10.0024 186.174 6.50299 185.09 3.92013 182.839C1.33726 180.587 0.004169 177.419 0.004169 173.251C-0.0791493 169.082 1.08731 165.914 3.42022 163.746C5.75313 161.578 9.16918 160.494 13.585 160.411C18.0009 160.328 21.417 161.328 23.9165 163.496C26.4994 165.58 27.7492 168.748 27.8325 173.084ZM15.418 168.332L12.5852 168.415C7.91941 168.498 4.91995 168.748 3.67017 169.249C2.25376 169.749 1.42058 170.499 1.08731 171.5C0.92067 172 0.837352 172.667 0.837352 173.417C0.837352 174.168 1.00399 174.835 1.17062 175.418C1.42058 176.002 1.75385 176.419 2.25376 176.752C2.75367 177.086 3.3369 177.419 3.92013 177.586C4.50336 177.836 5.25322 177.92 6.33636 178.086C7.83609 178.253 10.0024 178.253 12.9185 178.17L15.668 178.086C18.8341 178.003 21.0004 177.836 22.3335 177.586C23.6666 177.336 24.5831 177.002 25.1663 176.669C26.4161 175.835 26.9993 174.585 26.9993 172.917C26.9993 170.916 26.0828 169.582 24.3331 168.999C22.6667 168.498 19.6673 168.248 15.418 168.332Z" fill="#CEA474"/>
<path d="M22.2501 144.153L12.002 138.734L4.33672 139.484L3.92013 141.652L3.17026 141.485L5.58649 129.813L6.33636 129.98L5.83645 132.147L24.833 130.23L7.9194 121.976L7.08622 125.811L6.33636 125.644L7.9194 118.057L8.66927 118.224L8.16936 120.725L32.8316 133.148L32.165 136.483L13.9183 138.484L29.9987 147.071L29.3322 150.323L1.25394 154.408L0.837352 156.159L0.0874873 155.992L2.67035 143.736L3.42022 143.903L2.83699 146.571L22.2501 144.153Z" fill="#CEA474"/>
<path d="M16.6678 98.4644L22.3335 88.4595C24.0831 85.3747 25.8328 83.207 27.5825 82.2065C29.3322 81.1226 31.1652 81.1226 33.1648 82.2899C36.2476 84.0407 36.9975 86.8754 35.4977 90.9607H35.5811C38.6638 86.792 41.9133 85.6248 45.246 87.5424C47.6622 88.9598 48.912 90.794 48.8287 93.2118C48.7454 95.6297 47.7455 98.5477 45.8292 101.966L40.2469 111.804L39.5803 111.471L40.8301 109.303L18.5841 96.7135L17.3344 98.8812L16.6678 98.4644ZM22.2501 90.127L32.5816 95.9632L33.0815 95.1294C33.7481 93.9622 33.8314 92.9617 33.4148 92.128C32.9982 91.2942 31.9984 90.4605 30.582 89.6268L28.9989 88.7096C27.3326 87.7925 26.0828 87.2923 25.1663 87.3757C24.2498 87.3757 23.4999 87.9593 22.8334 89.1265L22.2501 90.127ZM33.2482 96.2967L44.4961 102.633L45.4126 101.049C46.0792 99.7983 46.1625 98.7145 45.5793 97.714C44.996 96.7135 43.9129 95.7964 42.2465 94.8793L40.4968 93.8788C38.9971 93.0451 37.7473 92.7116 36.6642 92.8783C35.5811 93.0451 34.5812 93.9622 33.7481 95.4629L33.2482 96.2967Z" fill="#CEA474"/>
<path d="M56.9106 80.4556C58.4103 80.6224 59.8267 79.872 61.1598 78.2879C62.4929 76.6205 62.9928 74.953 62.7428 73.2855C62.4096 71.618 61.2431 69.8672 59.1601 68.1997L45.6626 57.0276L44.0795 58.9452L43.4963 58.445L47.079 54.1096L47.6622 54.6098L46.3291 56.2773L59.5767 67.1992C62.0763 69.2002 63.4094 71.2845 63.7426 73.3689C64.0759 75.4532 63.0761 77.8711 60.8265 80.7058C58.5769 83.4571 56.244 85.1246 53.9111 85.6248C51.5782 86.1251 48.9953 85.2913 46.1625 82.9569L33.1648 72.285L31.8318 73.9525L31.2485 73.4522L38.9138 64.031L39.497 64.5313L37.914 66.4489L51.9115 77.8711C53.7445 79.3718 55.4108 80.2055 56.9106 80.4556Z" fill="#CEA474"/>
<path d="M69.8249 50.6912L65.9922 38.0184L63.0761 40.603L62.6595 40.1028L68.4085 35.1003L68.8251 35.6006L66.9087 37.2681L70.9913 50.858L79.4065 60.5293L81.1562 58.9452L81.6561 59.5288L72.4078 67.5327L71.9078 66.9491L73.6575 65.365L65.8256 56.2773L51.9115 50.2744L50.5784 51.4416L50.1618 50.9413L59.4934 42.8541L59.91 43.3543L57.9937 45.0218L69.8249 50.6912Z" fill="#CEA474"/>
<path d="M98.2364 18.0921L110.901 41.1032L106.152 43.6878L82.4893 28.1803L94.1538 49.4406L95.9868 48.4401L96.3201 49.1071L91.6543 51.6917L91.321 51.0247L93.154 50.0242L80.9895 27.5967L79.1565 28.5972L78.8233 27.9302L88.1549 22.761L106.318 34.8502L97.3199 18.509L95.4869 19.5095L95.1536 18.8425L99.8195 16.2579L100.153 16.9249L98.2364 18.0921Z" fill="#CEA474"/>
<path d="M125.981 35.8507C121.899 37.1847 118.483 37.1013 115.733 35.6006C112.984 34.0999 110.901 31.1818 109.484 27.0131C108.068 22.8444 108.068 19.176 109.401 16.0078C110.734 12.9229 113.4 10.6718 117.4 9.33786C121.399 8.00388 124.732 8.17063 127.481 9.75473C130.231 11.3388 132.314 14.2569 133.73 18.4256C135.146 22.5943 135.23 26.2627 133.98 29.2642C132.73 32.349 130.064 34.5167 125.981 35.8507ZM126.731 22.6777L125.815 20.0097C124.315 15.5075 123.149 12.7562 122.315 11.7557C121.399 10.5885 120.399 10.0048 119.399 10.0048C118.816 10.0048 118.149 10.0882 117.4 10.3383C116.65 10.5885 116.067 10.922 115.65 11.2555C115.15 11.5889 114.9 12.0892 114.733 12.7562C114.567 13.3398 114.483 13.9234 114.4 14.5904C114.4 15.174 114.483 16.0078 114.65 17.0082C114.983 18.509 115.567 20.5933 116.483 23.3446L117.4 26.0126C118.399 29.0141 119.233 31.0984 119.899 32.2656C120.566 33.4329 121.149 34.2666 121.649 34.6835C122.815 35.6006 124.148 35.8507 125.731 35.2671C127.648 34.6001 128.648 33.4329 128.648 31.5986C128.731 29.5977 128.064 26.6796 126.731 22.6777Z" fill="#CEA474"/>
<path d="M151.56 21.5938L153.56 10.1716L150.477 3.08483L148.227 3.33495L148.144 2.58459L159.975 1.33398L160.059 2.08434L157.809 2.33446L165.558 19.8429L168.14 1.16723L164.308 1.5841L164.225 0.833737L171.89 0L171.973 0.750364L169.474 1.00048L165.308 28.2637L161.892 28.6806L154.31 11.9224L151.227 29.8478L147.894 30.1813L135.313 4.7523L133.48 5.00242L133.397 4.25206L145.894 2.91808L145.978 3.66844L143.312 4.00194L151.56 21.5938Z" fill="#CEA474"/>
</svg>
