<svg width="24" height="24" viewBox="0 0 24 24" fill="none" xmlns="http://www.w3.org/2000/svg">
<mask id="mask0" mask-type="alpha" maskUnits="userSpaceOnUse" x="0" y="4" width="24" height="16">
<rect x="0.601562" y="4.80005" width="22.8" height="14.4" rx="2" fill="#8B8E95"/>
</mask>
<g mask="url(#mask0)">
<rect x="0.601562" y="4.80005" width="22.8" height="14.4" rx="1" fill="#ECF0F5"/>
<path d="M3.92969 10.2848H4.60988L4.26978 9.41907L3.92969 10.2848Z" fill="#2FABF7"/>
<path d="M12.3735 9.54361C12.3117 9.5127 12.2189 9.5127 12.1262 9.5127H11.5078V10.0074H12.1262C12.2189 10.0074 12.3117 10.0074 12.3735 9.97646C12.4353 9.94554 12.4663 9.85279 12.4663 9.76004C12.4972 9.63637 12.4353 9.57453 12.3735 9.54361Z" fill="#228FE0"/>
<path d="M18.9883 8.61536V8.98637L18.8028 8.61536H17.3497V8.98637L17.1642 8.61536H15.1854C14.8453 8.61536 14.567 8.67719 14.3197 8.80086V8.61536H12.9284V8.80086C12.7738 8.67719 12.5883 8.61536 12.341 8.61536H7.36317L7.02308 9.3883L6.68298 8.61536H5.10617V8.98637L4.92066 8.61536H3.59119L2.97283 10.0685L2.26172 11.6762H3.83853L4.02404 11.1815H4.45689L4.6424 11.6762H6.43564V11.3052L6.59023 11.6762H7.48685L7.64143 11.3052V11.6762H11.939V10.8724H12.0009C12.0627 10.8724 12.0627 10.8724 12.0627 10.9651V11.6453H14.2888V11.4598C14.4743 11.5526 14.7526 11.6453 15.1236 11.6453H16.0511L16.2366 11.1506H16.6695L16.855 11.6453H18.6482V11.1815L18.9265 11.6453H20.3796V8.61536H18.9883ZM8.53805 11.2125H8.01245V9.51198L7.27042 11.2125H6.80665L6.06462 9.51198V11.2125H5.01341L4.79699 10.7487H3.74578L3.56027 11.2434H2.97283L3.90037 9.04821H4.67332L5.53902 11.1197V9.04821H6.3738L7.05399 10.5323L7.67235 9.04821H8.53805V11.2125ZM10.6405 9.51198H9.43467V9.91391H10.6096V10.3468H9.43467V10.7796H10.6405V11.2434H8.90907V9.04821H10.6405V9.51198ZM12.9593 10.4086C13.0211 10.5323 13.0521 10.625 13.0521 10.8105V11.2434H12.5265V10.9651C12.5265 10.8414 12.5265 10.6559 12.4337 10.5323C12.341 10.4395 12.2482 10.4395 12.0627 10.4395H11.5062V11.2434H10.9806V9.04821H12.1554C12.4337 9.04821 12.6192 9.04821 12.7738 9.14096C12.9284 9.23371 13.0211 9.3883 13.0211 9.63565C13.0211 9.97574 12.8047 10.1613 12.6501 10.2231C12.8047 10.254 12.8975 10.3468 12.9593 10.4086ZM13.8869 11.2125H13.3612V9.01729H13.8869V11.2125ZM19.9777 11.2125H19.2356L18.2463 9.57381V11.2125H17.1951L17.0096 10.7487H15.9274L15.7419 11.2434H15.1545C14.9071 11.2434 14.598 11.1815 14.4125 10.996C14.2269 10.8105 14.1342 10.5632 14.1342 10.1613C14.1342 9.85207 14.196 9.54289 14.4125 9.29555C14.567 9.11004 14.8453 9.04821 15.1854 9.04821H15.6801V9.51198H15.1854C14.9999 9.51198 14.9071 9.54289 14.7835 9.63565C14.6907 9.7284 14.6289 9.91391 14.6289 10.1303C14.6289 10.3777 14.6598 10.5323 14.7835 10.6559C14.8762 10.7487 14.9999 10.7796 15.1545 10.7796H15.3709L16.082 9.07913H16.855L17.7207 11.1506V9.07913H18.4936L19.3902 10.5941V9.07913H19.9158V11.2125H19.9777Z" fill="#0571C1"/>
<path d="M16.1146 10.2848H16.8257L16.4856 9.41907L16.1146 10.2848ZM10.8586 14.7369V12.9746L10.0547 13.8403L10.8586 14.7369Z" fill="#228FE0"/>
<path d="M7.54688 13.1907V13.5926H8.69084V14.0255H7.54688V14.4892H8.81451L9.40195 13.8399L8.84543 13.1907H7.54688Z" fill="#2FABF7"/>
<path d="M12.0321 13.1907H11.3828V13.7472H12.063C12.2485 13.7472 12.3722 13.6544 12.3722 13.4689C12.3413 13.2834 12.2176 13.1907 12.0321 13.1907Z" fill="#228FE0"/>
<path d="M21.5847 13.7167V12.3254H20.2861C20.0079 12.3254 19.7915 12.3873 19.6369 12.5109V12.3254H18.2146C17.9982 12.3254 17.72 12.3873 17.5963 12.5109V12.3254H15.0919V12.5109C14.9064 12.3564 14.5663 12.3254 14.4117 12.3254H12.7422V12.5109C12.5876 12.3564 12.2166 12.3254 12.0311 12.3254H10.176L9.74314 12.7892L9.34121 12.3254H6.55859V15.3554H9.27937L9.71222 14.8916L10.1142 15.3554H11.7837V14.6443H12.0001C12.2166 14.6443 12.4948 14.6443 12.7113 14.5515V15.3863H14.1026V14.5824H14.1644C14.2572 14.5824 14.2572 14.5824 14.2572 14.6752V15.3863H18.462C18.7403 15.3863 19.0185 15.3245 19.1731 15.2008V15.3863H20.5026C20.7808 15.3863 21.0591 15.3554 21.2446 15.2317C21.5538 15.0462 21.7393 14.7061 21.7393 14.3042C21.7393 14.0878 21.6775 13.8713 21.5847 13.7167ZM12.0001 14.2114H11.3818V14.9535H10.3924L9.77406 14.2424L9.12478 14.9535H7.0842V12.7583H9.1557L9.77406 13.4694L10.4233 12.7583H12.062C12.4639 12.7583 12.9277 12.882 12.9277 13.4694C12.8968 14.0878 12.4639 14.2114 12.0001 14.2114ZM15.0919 14.0878C15.1538 14.1805 15.1847 14.3042 15.1847 14.4897V14.9225H14.6591V14.6443C14.6591 14.5206 14.6591 14.3042 14.5663 14.2114C14.5045 14.1187 14.3808 14.1187 14.1953 14.1187H13.6388V14.9225H13.1132V12.7274H14.2881C14.5354 12.7274 14.7518 12.7274 14.9064 12.8201C15.061 12.9129 15.1847 13.0675 15.1847 13.3148C15.1847 13.6549 14.9683 13.8404 14.8137 13.9023C14.9683 13.9641 15.061 14.0259 15.0919 14.0878ZM17.2253 13.1911H16.0195V13.5931H17.1944V14.0259H16.0195V14.4588H17.2253V14.9225H15.4939V12.7274H17.2253V13.1911ZM18.5238 14.9225H17.5345V14.4588H18.5238C18.6166 14.4588 18.6784 14.4588 18.7403 14.3969C18.7712 14.366 18.8021 14.3042 18.8021 14.2424C18.8021 14.1805 18.7712 14.1187 18.7403 14.0878C18.7093 14.0568 18.6475 14.0259 18.5547 14.0259C18.0601 13.995 17.4726 14.0259 17.4726 13.3457C17.4726 13.0366 17.6581 12.6965 18.2146 12.6965H19.2349V13.2221H18.2765C18.1837 13.2221 18.1219 13.2221 18.0601 13.253C17.9982 13.2839 17.9982 13.3457 17.9982 13.4076C17.9982 13.5003 18.0601 13.5312 18.1219 13.5622C18.1837 13.5931 18.2456 13.5931 18.3074 13.5931H18.5857C18.8639 13.5931 19.0494 13.6549 19.1731 13.7786C19.2659 13.8713 19.3277 14.0259 19.3277 14.2424C19.3277 14.7061 19.0494 14.9225 18.5238 14.9225ZM21.1828 14.7061C21.0591 14.8298 20.8427 14.9225 20.5335 14.9225H19.5441V14.4588H20.5335C20.6262 14.4588 20.6881 14.4588 20.7499 14.3969C20.7808 14.366 20.8118 14.3042 20.8118 14.2424C20.8118 14.1805 20.7808 14.1187 20.7499 14.0878C20.719 14.0568 20.6572 14.0259 20.5644 14.0259C20.0697 13.995 19.4823 14.0259 19.4823 13.3457C19.4823 13.0366 19.6678 12.6965 20.2243 12.6965H21.2446V13.2221H20.3171C20.2243 13.2221 20.1625 13.2221 20.1006 13.253C20.0388 13.2839 20.0388 13.3457 20.0388 13.4076C20.0388 13.5003 20.0697 13.5312 20.1625 13.5622C20.2243 13.5931 20.2861 13.5931 20.348 13.5931H20.6262C20.9045 13.5931 21.09 13.6549 21.2137 13.7786C21.2446 13.7786 21.2446 13.8095 21.2446 13.8095C21.3374 13.9332 21.3683 14.0878 21.3683 14.2424C21.3683 14.4279 21.3064 14.5824 21.1828 14.7061Z" fill="#0571C1"/>
<path d="M14.5378 13.2529C14.4759 13.222 14.3832 13.222 14.2904 13.222H13.6721V13.7167H14.2904C14.3832 13.7167 14.4759 13.7167 14.5378 13.6857C14.5996 13.6548 14.6305 13.5621 14.6305 13.4693C14.6615 13.3456 14.5996 13.2838 14.5378 13.2529ZM12.3735 9.54274C12.3117 9.51182 12.2189 9.51182 12.1262 9.51182H11.5078V10.0065H12.1262C12.2189 10.0065 12.3117 10.0065 12.3735 9.97559C12.4354 9.94467 12.4663 9.85192 12.4663 9.75916C12.4972 9.63549 12.4354 9.57366 12.3735 9.54274ZM16.1146 10.2848H16.8257L16.4856 9.41907L16.1146 10.2848ZM10.8586 14.7369V12.9746L10.0547 13.8403L10.8586 14.7369ZM12.0334 13.1911H11.3842V13.7476H12.0644C12.2499 13.7476 12.3735 13.6548 12.3735 13.4693C12.3426 13.2838 12.2189 13.1911 12.0334 13.1911Z" fill="#228FE0"/>
<path d="M14.5376 13.2531C14.4757 13.2222 14.383 13.2222 14.2902 13.2222H13.6719V13.7169H14.2902C14.383 13.7169 14.4757 13.7169 14.5376 13.6859C14.5994 13.655 14.6303 13.5623 14.6303 13.4695C14.6612 13.3458 14.5994 13.284 14.5376 13.2531Z" fill="#228FE0"/>
<path d="M11.8146 14.8607L11.3818 14.3969V14.9225H10.3615L9.74314 14.2114L9.06294 14.9225H7.02236V12.7583H9.09386L9.74314 13.4694L10.0523 13.0984L9.27937 12.3254H6.55859V15.3554H9.27937L9.74314 14.8916L10.1451 15.3554H11.8146V14.8607Z" fill="#2FABF7"/>
<path d="M8.59989 11.6453L8.19796 11.2125H8.01245V11.027L7.54868 10.5632L7.2395 11.2125H6.80665L6.06462 9.51198V11.2125H5.01341L4.79699 10.7487H3.74578L3.52935 11.2125H2.97283L3.90037 9.04821H4.67332L5.53902 11.1197V9.04821H6.00279L5.56994 8.61536H5.10617V8.98637L4.95158 8.61536H3.59119L2.97283 10.0685L2.26172 11.6453H3.86945L4.05496 11.1815H4.48781L4.70423 11.6453H6.43564V11.2743L6.59023 11.6453H7.48685L7.64144 11.2743V11.6453H8.59989Z" fill="#2FABF7"/>
<path d="M7.17828 10.223L6.68359 9.72827L7.05461 10.5321L7.17828 10.223Z" fill="#2FABF7"/>
<path d="M21.2474 15.2012C21.5257 15.0156 21.7112 14.7065 21.7421 14.3664L21.3092 13.9335C21.3401 14.0263 21.3711 14.119 21.3711 14.2427C21.3711 14.4282 21.3092 14.5828 21.1856 14.7065C21.0619 14.8301 20.8455 14.9229 20.5363 14.9229H19.5469V14.4591H20.5363C20.629 14.4591 20.6909 14.4591 20.7527 14.3973C20.7836 14.3664 20.8145 14.3045 20.8145 14.2427C20.8145 14.1809 20.7836 14.119 20.7527 14.0881C20.7218 14.0572 20.66 14.0263 20.5672 14.0263C20.0725 13.9954 19.4851 14.0263 19.4851 13.3461C19.4851 13.0369 19.6706 12.7586 20.1344 12.6968L19.7943 12.3567C19.7324 12.3876 19.7015 12.4185 19.6706 12.4185V12.233H18.2484C18.0319 12.233 17.7537 12.2949 17.63 12.4185V12.233H15.0947V12.4185C14.9092 12.264 14.5691 12.233 14.4145 12.233H12.745V12.4185C12.5904 12.264 12.2194 12.233 12.0339 12.233H10.1788L9.74594 12.6968L9.344 12.233H9.00391L9.93144 13.1606L10.3952 12.6659H12.0339C12.4358 12.6659 12.8996 12.7896 12.8996 13.377C12.8996 13.9954 12.4667 14.119 12.0029 14.119H11.3846V14.5828L11.8484 15.0466V14.5828H12.0029C12.2194 14.5828 12.4976 14.5828 12.7141 14.49V15.3248H14.1054V14.521H14.1672C14.26 14.521 14.2599 14.521 14.2599 14.6137V15.3248H18.4648C18.743 15.3248 19.0213 15.263 19.1759 15.1393V15.3248H20.5054C20.7527 15.3557 21.031 15.3248 21.2474 15.2012ZM15.0947 14.0881C15.1566 14.1809 15.1875 14.3045 15.1875 14.49V14.9229H14.6619V14.6446C14.6619 14.521 14.6619 14.3045 14.5691 14.2118C14.5073 14.119 14.3836 14.119 14.1981 14.119H13.6416V14.9229H13.116V12.7277H14.2909C14.5382 12.7277 14.7546 12.7277 14.9092 12.8205C15.0638 12.9132 15.1875 13.0678 15.1875 13.3152C15.1875 13.6553 14.9711 13.8408 14.8165 13.9026C14.9711 13.9644 15.0638 14.0263 15.0947 14.0881ZM17.2281 13.1915H16.0223V13.5934H17.1972V14.0263H16.0223V14.4591H17.2281V14.9229H15.4967V12.7277H17.2281V13.1915ZM18.5266 14.9229H17.5372V14.4591H18.5266C18.6194 14.4591 18.6812 14.4591 18.743 14.3973C18.774 14.3664 18.8049 14.3045 18.8049 14.2427C18.8049 14.1809 18.774 14.119 18.743 14.0881C18.7121 14.0572 18.6503 14.0263 18.5575 14.0263C18.0629 13.9954 17.4754 14.0263 17.4754 13.3461C17.4754 13.0369 17.6609 12.6968 18.2174 12.6968H19.2377V13.2224H18.2793C18.1865 13.2224 18.1247 13.2224 18.0629 13.2533C18.001 13.2842 18.001 13.3461 18.001 13.4079C18.001 13.5007 18.0629 13.5316 18.1247 13.5625C18.1865 13.5934 18.2484 13.5934 18.3102 13.5934H18.5885C18.8667 13.5934 19.0522 13.6553 19.1759 13.7789C19.2687 13.8717 19.3305 14.0263 19.3305 14.2427C19.3305 14.7065 19.0522 14.9229 18.5266 14.9229Z" fill="#228FE0"/>
<path d="M20.0117 13.4079C20.0117 13.5007 20.0426 13.5316 20.1354 13.5625C20.1972 13.5934 20.2591 13.5934 20.3209 13.5934H20.5992C20.7847 13.5934 20.9083 13.6243 21.032 13.6862L20.5682 13.2224H20.29C20.1972 13.2224 20.1354 13.2224 20.0736 13.2533C20.0426 13.2842 20.0117 13.3461 20.0117 13.4079Z" fill="#228FE0"/>
<path d="M18.927 11.553L18.9889 11.6458H19.0198L18.927 11.553ZM17.2266 9.85254L17.7522 11.1202V10.3781L17.2266 9.85254Z" fill="#228FE0"/>
<path d="M11.9407 10.8716H12.0025C12.0643 10.8716 12.0643 10.8716 12.0643 10.9644V11.6445H14.2904V11.459C14.4759 11.5518 14.7542 11.6445 15.1252 11.6445H16.0527L16.2382 11.1499H16.6711L16.8566 11.6445H18.6498V11.3354L18.217 10.9025V11.2426H17.1658L17.0112 10.7479H15.9291L15.7436 11.2426H15.1561C14.9088 11.2426 14.5996 11.1808 14.4141 10.9953C14.2286 10.8098 14.1358 10.5624 14.1358 10.1605C14.1358 9.85131 14.1977 9.54213 14.4141 9.29478C14.5687 9.10928 14.8469 9.04744 15.187 9.04744H15.6817V9.51121H15.187C15.0015 9.51121 14.9088 9.54213 14.7851 9.63488C14.6923 9.72763 14.6305 9.91314 14.6305 10.1296C14.6305 10.3769 14.6614 10.5315 14.7851 10.6552C14.8779 10.7479 15.0015 10.7788 15.1561 10.7788H15.3725L16.0837 9.07836H16.3928L15.96 8.64551H15.1561C14.816 8.64551 14.5378 8.70734 14.2904 8.83101V8.64551H12.93V8.83101C12.7754 8.70734 12.5899 8.64551 12.3426 8.64551H7.3648L7.0247 9.41846L6.68461 8.64551H5.32422L5.75707 9.07836H6.37543L6.90103 10.2223L7.08654 10.4078L7.64306 9.04744H8.50876V11.2426H7.98316V9.54213L7.45755 10.7788L8.35417 11.6755H11.9097L11.9407 10.8716ZM13.3629 9.04744H13.8885V11.2426H13.3629V9.04744ZM10.6421 9.51121H9.4363V9.91314H10.6112V10.346H9.4363V10.7788H10.6421V11.2426H8.9107V9.04744H10.6421V9.51121ZM11.5078 11.2117H10.9822V9.01652H12.1571C12.4353 9.01652 12.6208 9.01652 12.7754 9.10928C12.93 9.20203 13.0228 9.35662 13.0228 9.60396C13.0228 9.94406 12.8064 10.1296 12.6518 10.1914C12.7754 10.2223 12.8682 10.3151 12.8991 10.3769C12.9609 10.5006 12.9919 10.5933 12.9919 10.7788V11.2117H12.4663V10.9334C12.4663 10.8098 12.4663 10.6243 12.3735 10.5006C12.3426 10.4387 12.2498 10.4387 12.0643 10.4387H11.5078V11.2117Z" fill="#228FE0"/>
</g>
</svg>
