<svg width="24" height="24" viewBox="0 0 24 24" fill="none" xmlns="http://www.w3.org/2000/svg">
<mask id="mask0" mask-type="alpha" maskUnits="userSpaceOnUse" x="0" y="4" width="24" height="16">
<rect x="0.601562" y="4.80005" width="22.8" height="14.4" rx="2" fill="#8B8E95"/>
</mask>
<g mask="url(#mask0)">
<rect x="0.601562" y="4.80005" width="22.8" height="14.4" rx="1" fill="#ECF0F5"/>
<path d="M12.5672 12.1933C13.4197 12.1933 14.1109 11.5021 14.1109 10.6496C14.1109 9.79699 13.4197 9.10583 12.5672 9.10583C11.7146 9.10583 11.0234 9.79699 11.0234 10.6496C11.0234 11.5021 11.7146 12.1933 12.5672 12.1933Z" fill="#EF9122"/>
<path d="M11.0234 10.6496C11.0234 9.78864 11.7062 9.10583 12.5672 9.10583C13.4281 9.10583 14.1109 9.78864 14.1109 10.6496C14.1109 11.5105 13.4281 12.1933 12.5672 12.1933" fill="#F26E21"/>
<path d="M11.5 9.55114C12.0937 8.9574 13.0734 8.9574 13.6672 9.55114C14.2609 10.1449 14.2609 11.1246 13.6672 11.7183" fill="#F44500"/>
<path d="M3.63202 9.19436H2.80078V12.1037H3.63202C4.07733 12.1037 4.40389 11.9849 4.67107 11.7771C4.99763 11.51 5.20544 11.0943 5.20544 10.649C5.20544 9.7881 4.58201 9.19436 3.63202 9.19436ZM4.31482 11.3912C4.1367 11.5396 3.8992 11.6287 3.54296 11.6287H3.36484V9.69904H3.51327C3.86952 9.69904 4.10701 9.75842 4.28514 9.93654C4.49295 10.1147 4.6117 10.3818 4.6117 10.649C4.64138 10.9162 4.52263 11.2131 4.31482 11.3912ZM5.47262 9.19436H6.03668V12.1037H5.47262V9.19436ZM7.46166 10.3225C7.10541 10.2037 7.01635 10.1147 7.01635 9.96623C7.01635 9.7881 7.19448 9.63967 7.43197 9.63967C7.6101 9.63967 7.75853 9.69904 7.90697 9.87716L8.20384 9.49123C7.96634 9.28342 7.66947 9.16467 7.34291 9.16467C6.83823 9.16467 6.42261 9.52092 6.42261 9.99591C6.42261 10.4115 6.60073 10.5897 7.1351 10.7975C7.3726 10.8865 7.46166 10.9162 7.52103 10.9756C7.63978 11.035 7.69916 11.1537 7.69916 11.2725C7.69916 11.51 7.52103 11.6881 7.25385 11.6881C6.98667 11.6881 6.74917 11.5396 6.63042 11.3021L6.27417 11.6584C6.54136 12.0443 6.86792 12.2224 7.28354 12.2224C7.87728 12.2224 8.2929 11.8365 8.2929 11.2725C8.2929 10.7678 8.11478 10.56 7.46166 10.3225Z" fill="#595A5B"/>
<path d="M8.47266 10.6491C8.47266 11.51 9.15546 12.1631 10.0164 12.1631C10.2539 12.1631 10.4617 12.1038 10.7289 11.985V11.3022C10.4914 11.5397 10.2836 11.6288 10.0461 11.6288C9.48202 11.6288 9.0664 11.2132 9.0664 10.6194C9.0664 10.0554 9.48202 9.61005 10.0164 9.61005C10.2836 9.61005 10.4914 9.69911 10.7289 9.93661V9.25381C10.4914 9.13506 10.2836 9.07568 10.0164 9.07568C9.18515 9.13506 8.47266 9.81786 8.47266 10.6491Z" fill="#3B3D3F"/>
<path d="M15.3875 11.1537L14.6156 9.19434H13.9922L15.2094 12.1927H15.5359L16.8125 9.19434H16.189L15.3875 11.1537ZM17.05 12.1037H18.6828V11.6287H17.6437V10.8271H18.6531V10.3224H17.6437V9.69902H18.6828V9.19434H17.05V12.1037Z" fill="black"/>
<path d="M20.2865 10.8865C20.7318 10.7975 20.9693 10.5006 20.9693 10.0553C20.9693 9.52092 20.5834 9.19436 19.9303 9.19436H19.0693V12.1037H19.6334V10.9459H19.7224L20.524 12.1037H21.2068L20.2865 10.8865ZM19.8115 10.5303H19.6334V9.63967H19.8115C20.1678 9.63967 20.3756 9.7881 20.3756 10.085C20.3756 10.3818 20.1678 10.5303 19.8115 10.5303ZM3.63202 9.19436H2.80078V12.1037H3.63202C4.07733 12.1037 4.40389 11.9849 4.67107 11.7771C4.99763 11.51 5.20544 11.0943 5.20544 10.649C5.20544 9.7881 4.58201 9.19436 3.63202 9.19436ZM4.31482 11.3912C4.1367 11.5396 3.89921 11.6287 3.54296 11.6287H3.36484V9.69904H3.51327C3.86952 9.69904 4.10702 9.75842 4.28514 9.93654C4.49295 10.1147 4.6117 10.3818 4.6117 10.649C4.64138 10.9162 4.52263 11.2131 4.31482 11.3912ZM5.47262 9.19436H6.03668V12.1037H5.47262V9.19436ZM7.46166 10.3225C7.10542 10.2037 7.01635 10.1147 7.01635 9.96623C7.01635 9.7881 7.19448 9.63967 7.43197 9.63967C7.6101 9.63967 7.75853 9.69904 7.90697 9.87716L8.20384 9.49123C7.96634 9.28342 7.66947 9.16467 7.34291 9.16467C6.83823 9.16467 6.42261 9.52092 6.42261 9.99591C6.42261 10.4115 6.60073 10.5897 7.1351 10.7975C7.3726 10.8865 7.46166 10.9162 7.52103 10.9756C7.63978 11.035 7.69916 11.1537 7.69916 11.2725C7.69916 11.51 7.52104 11.6881 7.25385 11.6881C6.98667 11.6881 6.74917 11.5396 6.63042 11.3021L6.27418 11.6584C6.54136 12.0443 6.86792 12.2224 7.28354 12.2224C7.87728 12.2224 8.2929 11.8365 8.2929 11.2725C8.2929 10.7678 8.11478 10.56 7.46166 10.3225ZM10.0444 12.1631C10.2819 12.1631 10.4897 12.1037 10.7569 11.9849V11.3021C10.5194 11.5396 10.3116 11.6287 10.0741 11.6287C9.51007 11.6287 9.09445 11.2131 9.09445 10.6193C9.09445 10.3225 9.2132 10.085 9.39132 9.87716L9.00539 9.49123C8.70852 9.75842 8.50071 10.174 8.50071 10.6193C8.47102 11.51 9.15383 12.1631 10.0444 12.1631Z" fill="#595A5B"/>
<path d="M20.2875 10.8865C20.7328 10.7974 20.9703 10.5006 20.9703 10.0553C20.9703 9.52089 20.5844 9.19434 19.9312 9.19434H19.0703V12.1037H19.6344V10.9459H19.7234L20.525 12.1037H21.2078L20.2875 10.8865ZM19.8125 10.5303H19.6344V9.63964H19.8125C20.1687 9.63964 20.3765 9.78808 20.3765 10.0849C20.3765 10.3818 20.1687 10.5303 19.8125 10.5303Z" fill="black"/>
<path d="M6.98438 14.8053V13.1725L8.11249 14.3303V13.2615H8.34998V14.8943L7.22187 13.7365V14.8053H6.98438ZM9.53747 13.499H8.91404V13.8553H9.50778V14.0928H8.91404V14.5975H9.53747V14.8053H8.67654V13.2615H9.53747V13.499ZM10.2796 13.499V14.8053H10.0421V13.499H9.6859V13.2912H10.6359V13.499H10.2796ZM10.9921 13.2912L11.3781 14.3303L11.7937 13.2319L12.1796 14.3303L12.5952 13.2912H12.8921L12.2093 14.924L11.8234 13.8256L11.4078 14.924L10.7546 13.2912H10.9921ZM12.9218 14.0334C12.9243 13.8216 13.0095 13.6191 13.1593 13.4694C13.3091 13.3196 13.5115 13.2343 13.7234 13.2319C13.9352 13.2343 14.1376 13.3196 14.2874 13.4694C14.4372 13.6191 14.5224 13.8216 14.5249 14.0334C14.5224 14.2452 14.4372 14.4477 14.2874 14.5975C14.1376 14.7473 13.9352 14.8325 13.7234 14.835C13.5155 14.835 13.3374 14.7756 13.189 14.6272C13.0109 14.4787 12.9218 14.3006 12.9218 14.0334ZM13.1593 14.0334C13.1593 14.2115 13.2187 14.3303 13.3374 14.449C13.4562 14.5678 13.5749 14.6272 13.7234 14.6272C13.8718 14.6272 14.0202 14.5678 14.139 14.449C14.2577 14.3303 14.3171 14.2115 14.3171 14.0334C14.3171 13.8553 14.2577 13.7365 14.139 13.6178C14.0202 13.499 13.9015 13.4397 13.7234 13.4397C13.5749 13.4397 13.4265 13.499 13.3077 13.6178C13.2187 13.7365 13.1593 13.885 13.1593 14.0334ZM15.3561 14.1522L15.8311 14.8053H15.5343L15.089 14.1818H15.0593V14.8053H14.8218V13.2615H15.089C15.2968 13.2615 15.4452 13.2912 15.5343 13.3803C15.6233 13.4694 15.6827 13.5881 15.6827 13.7069C15.6827 13.8256 15.653 13.9147 15.5936 13.974C15.5343 14.0928 15.4452 14.1522 15.3561 14.1522ZM15.0593 13.974H15.1186C15.3265 13.974 15.4452 13.885 15.4452 13.7365C15.4452 13.5881 15.3265 13.499 15.1186 13.499H15.0296V13.974H15.0593ZM16.2764 13.885L16.8702 13.2615H17.1671L16.4843 13.9444L17.1671 14.7756H16.8702L16.3061 14.0928L16.2468 14.1522V14.7756H16.0093V13.2319H16.2468V13.885H16.2764Z" fill="#F26E21"/>
<path d="M18.1789 11.6302H17.6445V11.0958L17.0508 10.5021V12.1052H18.6539L18.1789 11.6302Z" fill="#3B3D3F"/>
<path d="M16.0406 9.49121L15.3875 11.1537L14.6156 9.19434H13.9922L15.2094 12.1927H15.5359L16.4859 9.93651L16.0406 9.49121Z" fill="#3B3D3F"/>
</g>
</svg>
