<svg width="24" height="24" viewBox="0 0 24 24" fill="none" xmlns="http://www.w3.org/2000/svg">
<mask id="mask0" mask-type="alpha" maskUnits="userSpaceOnUse" x="0" y="4" width="24" height="16">
<rect x="0.601562" y="4.80005" width="22.8" height="14.4" rx="2" fill="#8B8E95"/>
</mask>
<g mask="url(#mask0)">
<rect x="0.601562" y="4.80005" width="22.8" height="14.4" rx="1" fill="#ECF0F5"/>
</g>
<g clip-path="url(#clip0)">
<path d="M8.57012 16.1815V15.624C8.57012 15.4103 8.44003 15.2709 8.21702 15.2709C8.10552 15.2709 7.98472 15.3081 7.90109 15.4289C7.83605 15.3267 7.74313 15.2709 7.60375 15.2709C7.51083 15.2709 7.41791 15.2988 7.34357 15.401V15.2895H7.14844V16.1815H7.34357V15.6891C7.34357 15.5311 7.4272 15.4568 7.55729 15.4568C7.68737 15.4568 7.75242 15.5404 7.75242 15.6891V16.1815H7.94755V15.6891C7.94755 15.5311 8.04047 15.4568 8.16127 15.4568C8.29136 15.4568 8.3564 15.5404 8.3564 15.6891V16.1815H8.57012ZM11.4599 15.2895H11.144V15.02H10.9489V15.2895H10.7723V15.466H10.9489V15.8749C10.9489 16.0793 11.0325 16.2001 11.2555 16.2001C11.3391 16.2001 11.4321 16.1722 11.4971 16.1351L11.4414 15.9678C11.3856 16.005 11.3206 16.0143 11.2741 16.0143C11.1812 16.0143 11.144 15.9585 11.144 15.8656V15.466H11.4599V15.2895ZM13.1139 15.2709C13.0024 15.2709 12.9281 15.3267 12.8816 15.401V15.2895H12.6865V16.1815H12.8816V15.6798C12.8816 15.5311 12.9467 15.4475 13.0675 15.4475C13.1046 15.4475 13.1511 15.4568 13.1883 15.466L13.244 15.2802C13.2068 15.2709 13.1511 15.2709 13.1139 15.2709ZM10.6144 15.3638C10.5214 15.2988 10.3914 15.2709 10.252 15.2709C10.029 15.2709 9.8803 15.3824 9.8803 15.559C9.8803 15.7076 9.9918 15.7913 10.1869 15.8191L10.2799 15.8284C10.3821 15.847 10.4378 15.8749 10.4378 15.9214C10.4378 15.9864 10.3635 16.0329 10.2334 16.0329C10.1033 16.0329 10.0011 15.9864 9.93605 15.9399L9.84313 16.0886C9.94534 16.1629 10.0847 16.2001 10.2241 16.2001C10.4843 16.2001 10.633 16.0793 10.633 15.9121C10.633 15.7541 10.5122 15.6705 10.3263 15.6426L10.2334 15.6333C10.1498 15.624 10.0847 15.6054 10.0847 15.5497C10.0847 15.4846 10.1498 15.4475 10.252 15.4475C10.3635 15.4475 10.475 15.4939 10.5307 15.5218L10.6144 15.3638ZM15.7993 15.2709C15.6878 15.2709 15.6135 15.3267 15.567 15.401V15.2895H15.3719V16.1815H15.567V15.6798C15.567 15.5311 15.6321 15.4475 15.7529 15.4475C15.79 15.4475 15.8365 15.4568 15.8737 15.466L15.9294 15.2802C15.8922 15.2709 15.8365 15.2709 15.7993 15.2709ZM13.3091 15.7355C13.3091 16.005 13.4949 16.2001 13.7829 16.2001C13.913 16.2001 14.006 16.1722 14.0989 16.0979L14.006 15.9399C13.9316 15.9957 13.8573 16.0236 13.7737 16.0236C13.6157 16.0236 13.5042 15.9121 13.5042 15.7355C13.5042 15.5683 13.6157 15.4568 13.7737 15.4475C13.8573 15.4475 13.9316 15.4753 14.006 15.5311L14.0989 15.3731C14.006 15.2988 13.913 15.2709 13.7829 15.2709C13.4949 15.2709 13.3091 15.466 13.3091 15.7355ZM15.1117 15.7355V15.2895H14.9166V15.401C14.8515 15.3174 14.7586 15.2709 14.6378 15.2709C14.3869 15.2709 14.1918 15.466 14.1918 15.7355C14.1918 16.005 14.3869 16.2001 14.6378 16.2001C14.7679 16.2001 14.8608 16.1537 14.9166 16.07V16.1815H15.1117V15.7355ZM14.3962 15.7355C14.3962 15.5775 14.4984 15.4475 14.6657 15.4475C14.8237 15.4475 14.9352 15.5683 14.9352 15.7355C14.9352 15.8935 14.8237 16.0236 14.6657 16.0236C14.4984 16.0143 14.3962 15.8935 14.3962 15.7355ZM12.0639 15.2709C11.8037 15.2709 11.6179 15.4568 11.6179 15.7355C11.6179 16.0143 11.8037 16.2001 12.0732 16.2001C12.2033 16.2001 12.3334 16.1629 12.4356 16.0793L12.3427 15.9399C12.2683 15.9957 12.1754 16.0329 12.0825 16.0329C11.9617 16.0329 11.8409 15.9771 11.813 15.8191H12.4728C12.4728 15.7913 12.4728 15.7727 12.4728 15.7448C12.4821 15.4568 12.3148 15.2709 12.0639 15.2709ZM12.0639 15.4382C12.1847 15.4382 12.2683 15.5125 12.2869 15.6519H11.8223C11.8409 15.5311 11.9245 15.4382 12.0639 15.4382ZM16.9051 15.7355V14.9364H16.7099V15.401C16.6449 15.3174 16.552 15.2709 16.4312 15.2709C16.1803 15.2709 15.9852 15.466 15.9852 15.7355C15.9852 16.005 16.1803 16.2001 16.4312 16.2001C16.5613 16.2001 16.6542 16.1537 16.7099 16.07V16.1815H16.9051V15.7355ZM16.1896 15.7355C16.1896 15.5775 16.2918 15.4475 16.4591 15.4475C16.617 15.4475 16.7285 15.5683 16.7285 15.7355C16.7285 15.8935 16.617 16.0236 16.4591 16.0236C16.2918 16.0143 16.1896 15.8935 16.1896 15.7355ZM9.66658 15.7355V15.2895H9.47145V15.401C9.4064 15.3174 9.31348 15.2709 9.19268 15.2709C8.9418 15.2709 8.74667 15.466 8.74667 15.7355C8.74667 16.005 8.9418 16.2001 9.19268 16.2001C9.32277 16.2001 9.41569 16.1537 9.47145 16.07V16.1815H9.66658V15.7355ZM8.9418 15.7355C8.9418 15.5775 9.04401 15.4475 9.21127 15.4475C9.36923 15.4475 9.48074 15.5683 9.48074 15.7355C9.48074 15.8935 9.36923 16.0236 9.21127 16.0236C9.04401 16.0143 8.9418 15.8935 8.9418 15.7355Z" fill="black"/>
<path d="M13.4778 8.51526H10.5508V13.7746H13.4778V8.51526Z" fill="#FF5F00"/>
<path d="M10.7365 11.1452C10.7365 10.0766 11.2383 9.12881 12.0095 8.51554C11.4427 8.06952 10.7272 7.80005 9.9467 7.80005C8.09758 7.80005 6.60156 9.29607 6.60156 11.1452C6.60156 12.9943 8.09758 14.4903 9.9467 14.4903C10.7272 14.4903 11.4427 14.2208 12.0095 13.7748C11.2383 13.1708 10.7365 12.2138 10.7365 11.1452Z" fill="#EB001B"/>
<path d="M17.4275 11.1452C17.4275 12.9943 15.9315 14.4903 14.0824 14.4903C13.3018 14.4903 12.5863 14.2208 12.0195 13.7748C12.8001 13.1616 13.2925 12.2138 13.2925 11.1452C13.2925 10.0766 12.7908 9.12881 12.0195 8.51554C12.5863 8.06952 13.3018 7.80005 14.0824 7.80005C15.9315 7.80005 17.4275 9.30536 17.4275 11.1452Z" fill="#F79E1B"/>
</g>
<defs>
<clipPath id="clip0">
<rect width="10.8252" height="8.4" fill="white" transform="translate(6.60156 7.80005)"/>
</clipPath>
</defs>
</svg>
