<svg width="24" height="24" viewBox="0 0 24 24" fill="none" xmlns="http://www.w3.org/2000/svg">
<mask id="mask0" mask-type="alpha" maskUnits="userSpaceOnUse" x="0" y="4" width="24" height="16">
<rect x="0.601562" y="4.80005" width="22.8" height="14.4" rx="2" fill="#8B8E95"/>
</mask>
<g mask="url(#mask0)">
<rect x="0.601562" y="4.80005" width="22.8" height="14.4" rx="1" fill="#ECF0F5"/>
</g>
<g clip-path="url(#clip0)">
<path d="M11.2249 14.3305H10.0234L10.7749 9.68396H11.9763L11.2249 14.3305Z" fill="#00579F"/>
<path d="M15.5845 9.79792C15.3475 9.7039 14.9716 9.6001 14.5069 9.6001C13.3204 9.6001 12.4849 10.2328 12.4798 11.1373C12.4699 11.8047 13.078 12.1754 13.5327 12.3979C13.9976 12.6253 14.1556 12.7737 14.1556 12.9764C14.1508 13.2877 13.78 13.4312 13.4341 13.4312C12.9544 13.4312 12.6974 13.3572 12.3068 13.184L12.1486 13.1098L11.9805 14.1528C12.2623 14.2812 12.7814 14.3951 13.3204 14.4001C14.581 14.4001 15.4017 13.7772 15.4115 12.8133C15.4163 12.2843 15.0952 11.879 14.403 11.5478C13.9828 11.3352 13.7254 11.1919 13.7254 10.9743C13.7304 10.7766 13.9431 10.574 14.4174 10.574C14.808 10.5641 15.095 10.658 15.3124 10.7519L15.4211 10.8013L15.5845 9.79792Z" fill="#00579F"/>
<path d="M17.1791 12.6844C17.2781 12.4175 17.6588 11.3843 17.6588 11.3843C17.6538 11.3942 17.7576 11.1125 17.8169 10.9395L17.9009 11.3398C17.9009 11.3398 18.1284 12.4521 18.1778 12.6844C17.99 12.6844 17.4165 12.6844 17.1791 12.6844ZM18.6622 9.68396H17.7329C17.4463 9.68396 17.2286 9.76792 17.1049 10.0695L15.3203 14.3304H16.581C16.581 14.3304 16.7885 13.7569 16.8331 13.6334C16.9714 13.6334 18.1978 13.6334 18.3757 13.6334C18.4102 13.7965 18.519 14.3304 18.519 14.3304H19.6314L18.6622 9.68396Z" fill="#00579F"/>
<path d="M9.02095 9.68396L7.84434 12.8524L7.71577 12.2098C7.49824 11.4684 6.81601 10.6628 6.05469 10.2622L7.13242 14.3256H8.40292L10.2914 9.68396H9.02095Z" fill="#00579F"/>
<path d="M6.75357 9.68396H4.82056L4.80078 9.77784C6.30865 10.1634 7.30728 11.0929 7.71757 12.21L7.29736 10.0745C7.22818 9.77778 7.01557 9.69375 6.75357 9.68396Z" fill="#FAA61A"/>
</g>
<defs>
<clipPath id="clip0">
<rect width="14.8314" height="4.8" fill="white" transform="translate(4.80078 9.6001)"/>
</clipPath>
</defs>
</svg>
