<svg width="1200" height="309" viewBox="0 0 1200 309" fill="none" xmlns="http://www.w3.org/2000/svg">
<path d="M0 22.7152V509.84H1200V17.7888C1181.27 19.363 1163.7 25.0117 1148.25 33.8428C1146 33.6553 1143.75 33.499 1141.5 33.3427C1139.25 33.1864 1137 33.0301 1134.75 32.8426C1122.38 23.0903 1106.75 17.2139 1089.88 17.2139C1069 17.2139 1050.25 25.966 1037 40.0943C1032.5 44.8454 1025.12 44.9704 1020.5 40.3443C996 15.7136 962.125 0.334961 924.5 0.334961C882.125 0.334961 844.375 19.8395 819.5 50.3467C816.75 53.7225 812.375 55.0978 808.125 54.0976C802.125 52.7222 795.75 51.9721 789.25 51.9721C775.5 51.9721 762.5 55.2228 751.125 61.0992C747.625 62.8496 743.5 62.8496 740.125 60.8491C733.5 56.9732 725.875 54.7227 717.625 54.7227C716.625 54.7227 715.625 54.7227 714.75 54.8477C712 54.9728 709.25 54.2226 707.125 52.4722C679 30.5921 640.875 17.2139 598.875 17.2139C560.625 17.2139 525.5 28.3415 498.375 46.9709C494.75 49.4715 490.125 49.3464 486.375 47.0959C482.625 44.8454 478.375 43.5951 473.625 43.5951C467.375 43.5951 461.625 45.9707 457.25 49.8466C454.125 52.7222 449.625 53.7225 445.625 52.2221C442.032 50.9432 438.478 49.6418 434.937 48.3453C411.132 39.6287 387.923 31.1306 357.438 31.1306C342.063 31.1306 327.413 34.0861 312 40.8445C308.875 41.3446 305.75 40.5944 303.25 38.5939C295.75 32.9676 286.5 29.5918 276.375 29.5918H274.75C271.625 29.7168 268.625 28.5916 266.375 26.4661C248.875 10.2123 225.375 0.334961 199.625 0.334961C175.25 0.334961 153.125 9.21204 135.875 23.8405C132.75 26.4661 128.625 27.3413 124.75 25.966C122.25 25.0908 119.625 24.5906 116.75 24.5906C111.625 24.5906 106.875 26.216 103 28.8416C99.625 31.0922 95.5 31.5923 91.875 29.8419C74.75 21.965 56 17.464 36.25 17.464C23.625 17.464 11.5 19.3394 0 22.7152Z" fill="white"/>
</svg>
