<svg width="27" height="25" viewBox="0 0 27 25" fill="none" xmlns="http://www.w3.org/2000/svg">
<path fill-rule="evenodd" clip-rule="evenodd" d="M6.49666 3.05199V5.1508L3.99915 5.35281C2.2333 5.49564 0.792868 6.82795 0.509661 8.58035C0.448111 8.9612 0.392136 9.34273 0.341736 9.72481C0.316726 9.9144 0.417628 10.0979 0.590124 10.1798L0.703733 10.2337C8.70776 14.0313 18.2923 14.0313 26.2963 10.2337L26.4099 10.1798C26.5824 10.0979 26.6833 9.91442 26.6583 9.72482C26.6079 9.34274 26.5519 8.96121 26.4903 8.58035C26.2071 6.82795 24.7667 5.49564 23.0009 5.35281L20.5034 5.1508V3.05199C20.5034 1.77218 19.569 0.68495 18.3059 0.495102L16.5073 0.224753C14.5136 -0.0749179 12.4864 -0.0749176 10.4927 0.224753L8.6941 0.495103C7.43105 0.68495 6.49666 1.77218 6.49666 3.05199ZM16.1792 2.41637C14.403 2.14939 12.597 2.14939 10.8208 2.41637L9.02217 2.68672C8.84173 2.71384 8.70825 2.86916 8.70825 3.05199V4.99482C11.9001 4.81159 15.0999 4.81159 18.2918 4.99482V3.05199C18.2918 2.86916 18.1583 2.71384 17.9779 2.68672L16.1792 2.41637Z" fill="black"/>
<path d="M26.9439 12.8173C26.9329 12.6103 26.7167 12.481 26.5275 12.5649C18.3138 16.2091 8.68619 16.2091 0.472483 12.5649C0.283323 12.4809 0.0670546 12.6103 0.0560554 12.8173C-0.0939978 15.6413 0.0572039 18.4774 0.50966 21.277C0.792868 23.0295 2.2333 24.3618 3.99915 24.5046L6.75908 24.7278C11.2457 25.0907 15.7543 25.0907 20.2409 24.7278L23.0009 24.5046C24.7667 24.3618 26.2071 23.0295 26.4903 21.277C26.9428 18.4774 27.094 15.6413 26.9439 12.8173Z" fill="black"/>
</svg>
