<svg width="25" height="25" viewBox="0 0 25 25" fill="none" xmlns="http://www.w3.org/2000/svg">
<path d="M12.4573 0C9.54941 0.019735 6.73875 1.04578 4.50614 2.9026C2.27353 4.75942 0.757699 7.33165 0.217962 10.1792C-0.321774 13.0268 0.148122 15.9728 1.54727 18.5133C2.94641 21.0538 5.18786 23.0308 7.88818 24.1062C7.70669 22.9227 7.70669 21.7185 7.88818 20.5349L9.36642 14.2852C9.13248 13.7192 9.01665 13.1116 9.02598 12.4995C9.02598 10.7674 10.0384 9.46393 11.2926 9.46393C11.5198 9.46052 11.7451 9.5061 11.953 9.59754C12.1609 9.68898 12.3465 9.82413 12.4971 9.99372C12.6477 10.1633 12.7598 10.3633 12.8256 10.5801C12.8914 10.7969 12.9094 11.0252 12.8784 11.2496C12.8784 11.9403 12.5954 12.8536 12.2983 13.8126C12.1345 14.3411 11.9665 14.8835 11.8391 15.4101C11.762 15.6865 11.7528 15.9774 11.8124 16.258C11.872 16.5387 11.9985 16.801 12.1813 17.0226C12.3641 17.2442 12.5979 17.4186 12.8627 17.5311C13.1275 17.6437 13.4156 17.6909 13.7026 17.669C15.9245 17.669 17.6446 15.3208 17.6446 11.946C17.6669 11.2602 17.5456 10.5773 17.2883 9.94083C17.031 9.30438 16.6435 8.72836 16.1503 8.24952C15.6572 7.77068 15.0693 7.39953 14.4242 7.15975C13.7791 6.91996 13.0909 6.81682 12.4035 6.85688C11.6697 6.82547 10.9371 6.94278 10.2501 7.20171C9.56305 7.46064 8.93589 7.8558 8.40655 8.36328C7.87722 8.87076 7.45672 9.48001 7.1705 10.1541C6.88429 10.8283 6.73832 11.5533 6.74142 12.2852C6.73146 13.305 7.04501 14.3018 7.63732 15.1334C7.68039 15.1811 7.71108 15.2386 7.72669 15.3008C7.74231 15.3631 7.74239 15.4282 7.72691 15.4905C7.62832 15.8835 7.41333 16.7405 7.37751 16.9101C7.34167 17.0797 7.18937 17.1868 6.95643 17.0797C5.3886 16.3476 4.41206 14.0709 4.41206 12.2317C4.41206 8.29433 7.28792 4.66947 12.6992 4.66947C17.0443 4.66947 20.4309 7.75863 20.4309 11.8924C20.4309 16.1958 17.7432 19.66 13.9176 19.66C13.3568 19.6794 12.8 19.5589 12.2978 19.3095C11.7955 19.06 11.3638 18.6894 11.0418 18.2314L10.2623 21.2046C9.88869 22.36 9.36459 23.4616 8.70345 24.4812C9.92169 24.84 11.1871 25.0146 12.4573 24.9991C15.7838 24.9991 18.9741 23.6821 21.3263 21.338C23.6785 18.9939 25 15.8146 25 12.4995C25 9.18444 23.6785 6.00514 21.3263 3.66103C18.9741 1.31691 15.7838 0 12.4573 0Z" fill="black"/>
</svg>
