<svg width="25" height="21" viewBox="0 0 25 21" fill="none" xmlns="http://www.w3.org/2000/svg">
<path d="M9.9359 0C7.28068 0 5.12821 2.13954 5.12821 4.77879C5.12821 7.41805 7.28068 9.55759 9.9359 9.55759C12.5911 9.55759 14.7436 7.41805 14.7436 4.77879C14.7436 2.13954 12.5911 0 9.9359 0Z" fill="black"/>
<path d="M4.80769 12.1063C2.15248 12.1063 0 14.2458 0 16.8851V18.3994C0 19.3592 0.699851 20.1777 1.65291 20.3323C7.13859 21.2226 12.7332 21.2226 18.2189 20.3323C19.1719 20.1777 19.8718 19.3592 19.8718 18.3994V16.8851C19.8718 14.2458 17.7193 12.1063 15.0641 12.1063H14.6271C14.3906 12.1063 14.1555 12.1435 13.9307 12.2164L12.821 12.5766C10.9463 13.1851 8.92548 13.1851 7.05075 12.5766L5.94112 12.2164C5.71627 12.1435 5.48123 12.1063 5.2447 12.1063H4.80769Z" fill="black"/>
<path d="M20.8333 3.18586C21.3644 3.18586 21.7949 3.61377 21.7949 4.14162V6.37172H24.0385C24.5695 6.37172 25 6.79963 25 7.32748C25 7.85533 24.5695 8.28324 24.0385 8.28324H21.7949V10.5133C21.7949 11.0412 21.3644 11.4691 20.8333 11.4691C20.3023 11.4691 19.8718 11.0412 19.8718 10.5133V8.28324H17.6282C17.0972 8.28324 16.6667 7.85533 16.6667 7.32748C16.6667 6.79963 17.0972 6.37172 17.6282 6.37172H19.8718V4.14162C19.8718 3.61377 20.3023 3.18586 20.8333 3.18586Z" fill="black"/>
</svg>
