<svg width="25" height="25" viewBox="0 0 25 25" fill="none" xmlns="http://www.w3.org/2000/svg">
<path d="M11.542 0.261064C11.542 0.107266 11.4102 -0.014117 11.2572 0.0013347C4.93479 0.639762 0 5.97793 0 12.4687C0 19.3895 5.61046 25 12.5313 25C16.0094 25 19.1567 23.5825 21.4264 21.2954C21.5349 21.1861 21.5229 21.0076 21.4032 20.9109L11.9095 13.2381C11.6771 13.0503 11.542 12.7675 11.542 12.4687V0.261064Z" fill="black"/>
<path d="M22.648 19.3729C22.7676 19.4695 22.9445 19.4439 23.0286 19.3152C24.0958 17.682 24.7925 15.7841 24.9987 13.7422C25.0141 13.5891 24.8927 13.458 24.7389 13.458H16.0755C15.8267 13.458 15.7162 13.7707 15.9096 13.927L22.648 19.3729Z" fill="black"/>
<path d="M24.7389 11.4794C24.8927 11.4794 25.0141 11.3477 24.9987 11.1946C24.4026 5.29112 19.7089 0.597423 13.8053 0.00132787C13.6523 -0.014123 13.5206 0.107266 13.5206 0.261065V11.0836C13.5206 11.3022 13.6978 11.4794 13.9164 11.4794H24.7389Z" fill="black"/>
</svg>
