<svg width="25" height="24" viewBox="0 0 25 24" fill="none" xmlns="http://www.w3.org/2000/svg">
<path d="M22.7699 3.2H5.19721L3.69577 0.492284C3.52724 0.188357 3.20841 0 2.8625 0H0.954167C0.427195 0 0 0.429807 0 0.96C0 1.49019 0.427195 1.92 0.954167 1.92H2.30221L3.78397 4.59219L7.20125 12.1995L7.20476 12.2073L7.50574 12.8773L4.07476 16.5594C3.82806 16.8242 3.75084 17.2063 3.87517 17.5469C3.99951 17.8876 4.30415 18.1286 4.66252 18.1698L7.78981 18.5294C11.7015 18.9792 15.6514 18.9792 19.563 18.5294L22.6903 18.1698C23.2139 18.1096 23.5898 17.6338 23.53 17.107C23.4701 16.5802 22.9972 16.202 22.4736 16.2622L19.3463 16.6218C15.5787 17.055 11.7742 17.055 8.0065 16.6218L6.76542 16.4791L9.28363 13.7766C9.30799 13.7504 9.33061 13.7233 9.35151 13.6953L10.3093 13.8207C11.6514 13.9964 13.008 14.0308 14.3572 13.9234C17.504 13.673 20.4205 12.1665 22.4566 9.73961L23.192 8.86304C23.2167 8.8336 23.2397 8.8027 23.2607 8.77049L24.6313 6.66892C25.6029 5.1793 24.5408 3.2 22.7699 3.2Z" fill="black"/>
<path d="M6.67917 20.16C5.62523 20.16 4.77084 21.0196 4.77084 22.08C4.77084 23.1404 5.62523 24 6.67917 24C7.73312 24 8.58751 23.1404 8.58751 22.08C8.58751 21.0196 7.73312 20.16 6.67917 20.16Z" fill="black"/>
<path d="M18.7653 22.08C18.7653 21.0196 19.6197 20.16 20.6736 20.16C21.7276 20.16 22.582 21.0196 22.582 22.08C22.582 23.1404 21.7276 24 20.6736 24C19.6197 24 18.7653 23.1404 18.7653 22.08Z" fill="black"/>
</svg>
