<svg width="25" height="24" viewBox="0 0 25 24" fill="none" xmlns="http://www.w3.org/2000/svg">
<path fill-rule="evenodd" clip-rule="evenodd" d="M21.4286 24H4.54545C2.03507 24 0 21.9459 0 19.412V2.29659C0 0.897192 1.37122 0.0100149 2.57779 0.432832C2.75016 0.493234 2.91916 0.580371 3.08033 0.696568L3.30767 0.860468C4.43497 1.67321 5.95963 1.66962 7.09011 0.854583C8.67055 -0.284861 10.81 -0.284861 12.3904 0.854583C13.5209 1.66962 15.0455 1.67321 16.1729 0.860468L16.4002 0.696568C17.6895 -0.233011 19.4805 0.697278 19.4805 2.29659V12.2024H24.026C24.5639 12.2024 25 12.6425 25 13.1855V20.3952C25 22.3861 23.401 24 21.4286 24ZM19.8052 14.1687V20.3952C19.8052 21.3001 20.532 22.0337 21.4286 22.0337C22.3251 22.0337 23.0519 21.3001 23.0519 20.3952V14.1687H19.8052ZM14.2857 8.59756C14.2857 8.05459 13.8496 7.61443 13.3117 7.61443H5.51948C4.98154 7.61443 4.54545 8.05459 4.54545 8.59756C4.54545 9.14053 4.98154 9.58069 5.51948 9.58069H13.3117C13.8496 9.58069 14.2857 9.14053 14.2857 8.59756ZM12.987 12.5301C12.987 11.9871 12.5509 11.547 12.013 11.547H5.51948C4.98154 11.547 4.54545 11.9871 4.54545 12.5301C4.54545 13.0731 4.98154 13.5132 5.51948 13.5132H12.013C12.5509 13.5132 12.987 13.0731 12.987 12.5301ZM13.3117 15.4795C13.8496 15.4795 14.2857 15.9197 14.2857 16.4626C14.2857 17.0056 13.8496 17.4458 13.3117 17.4458H5.51948C4.98154 17.4458 4.54545 17.0056 4.54545 16.4626C4.54545 15.9197 4.98154 15.4795 5.51948 15.4795H13.3117Z" fill="black"/>
</svg>
