<svg width="19" height="24" viewBox="0 0 19 24" fill="none" xmlns="http://www.w3.org/2000/svg">
<path d="M11.8742 9.41174H11.7301C10.073 9.41434 8.42079 9.60273 6.80164 9.97372C6.07362 10.1167 5.35647 10.3152 4.65586 10.5676C3.37754 11.0817 2.27045 11.9782 1.47131 13.1464C-0.0451376 15.2668 -0.424251 17.5825 0.496993 20.0735C0.967481 21.4654 1.9359 22.6094 3.19628 23.2621C4.56921 23.9698 6.1274 24.176 7.62431 23.848C8.89143 23.6366 10.0923 23.1106 11.1273 22.3135C11.6391 21.887 12.1168 21.4088 12.6438 20.9424C12.6736 20.9779 12.7014 21.0152 12.7272 21.054C13.3254 21.9525 14.0019 22.7904 14.7478 23.5571C14.8869 23.7041 15.0732 23.7913 15.2702 23.8016C15.4672 23.812 15.6608 23.7446 15.8132 23.6129C16.8241 22.7227 17.8351 21.8312 18.8461 20.9384C18.8993 20.8766 18.9359 20.8009 18.9522 20.7192C18.9976 20.5869 19.0109 20.4447 18.9911 20.3056C18.9712 20.1664 18.9188 20.0346 18.8385 19.9221C18.6034 19.5634 18.3835 19.1927 18.1295 18.8459C17.7331 18.2748 17.4731 17.6118 17.3713 16.9129C17.3146 16.5813 17.2855 16.2453 17.2841 15.9085C17.2841 12.9511 17.2841 9.99232 17.2841 7.03226C17.3061 6.26849 17.2075 5.50618 16.9922 4.77634C16.6599 3.61327 15.9757 2.59593 15.0436 1.87872C13.5108 0.76201 11.7124 0.116397 9.85012 0.0143142C7.98783 -0.0877687 6.13532 0.357717 4.50042 1.30079C3.55739 1.81202 2.73647 2.54073 2.09902 3.43245C1.46156 4.32418 1.02407 5.35585 0.819239 6.45034C0.791055 6.5619 0.787367 6.67872 0.808453 6.79199C0.829538 6.90526 0.874847 7.01201 0.940951 7.10416C1.00705 7.19631 1.09222 7.27145 1.19002 7.32391C1.28781 7.37636 1.39567 7.40474 1.50543 7.40692L3.41995 7.58627C3.89764 7.63012 4.37532 7.67795 4.853 7.7178C5.03357 7.74251 5.21674 7.70138 5.37197 7.60129C5.52719 7.5012 5.64509 7.34819 5.706 7.16777C5.84417 6.46258 6.19244 5.82199 6.7003 5.33895C7.20815 4.85591 7.84918 4.55553 8.53039 4.4814C9.16965 4.34708 9.83292 4.42796 10.426 4.71257C10.8696 4.91094 11.2461 5.24517 11.5064 5.67173C11.7668 6.09828 11.8989 6.59738 11.8855 7.104C11.8855 7.8015 11.8855 8.49901 11.8855 9.19651C11.8818 9.26426 11.878 9.33601 11.8742 9.41174ZM11.1425 17.9292C10.817 18.4799 10.4086 18.9712 9.93311 19.384C9.65272 19.6365 9.31809 19.8134 8.95811 19.8995C8.59814 19.9856 8.22364 19.9783 7.86695 19.8782C7.56775 19.8001 7.27966 19.6809 7.01015 19.5235C6.70956 19.347 6.45101 19.101 6.25399 18.8041C6.05698 18.5072 5.92665 18.1672 5.87281 17.8097C5.67 16.9969 5.69634 16.1397 5.94864 15.3425C6.25342 14.4816 6.83924 13.7626 7.60157 13.3138C8.13764 12.9521 8.75175 12.7382 9.38719 12.692C10.172 12.6402 10.9605 12.6003 11.7453 12.5565H11.8818V12.7916C11.8818 13.5888 11.8818 14.4098 11.8818 15.2189C11.8947 16.1792 11.6375 17.1221 11.1425 17.9292Z" fill="black"/>
</svg>
