<svg width="30" height="35" viewBox="0 0 30 35" fill="none" xmlns="http://www.w3.org/2000/svg">
<path fill-rule="evenodd" clip-rule="evenodd" d="M19.7183 0.965235L19.71 0.96521H10.5451L10.5367 0.965235H8.68682C7.92458 0.965235 7.30666 1.58315 7.30666 2.34539C7.30666 3.10762 7.92458 3.72554 8.68682 3.72554H9.1649V13.0867C9.1649 15.763 8.35998 18.3775 6.85471 20.5904L1.1615 28.96C-0.284257 31.0854 1.04847 33.9858 3.60289 34.2732L3.76181 34.291L3.79303 34.2946C11.3256 35.142 18.9295 35.142 26.4621 34.2946L26.4937 34.2909L26.6522 34.2732C29.2066 33.9858 30.5393 31.0854 29.0936 28.96L23.4003 20.5904C21.8951 18.3775 21.0901 15.763 21.0901 13.0866V3.72554H21.5682C22.3305 3.72554 22.9484 3.10762 22.9484 2.34539C22.9484 1.58315 22.3305 0.965235 21.5682 0.965235H19.7183ZM11.1317 18.0791H19.1234C18.6005 16.476 18.3298 14.7917 18.3298 13.0866V3.72554H11.9252V13.0867C11.9252 14.7917 11.6545 16.476 11.1317 18.0791ZM11.4471 26.268C10.4308 26.268 9.60692 27.0919 9.60692 28.1082C9.60692 29.1246 10.4308 29.9484 11.4471 29.9484C12.4634 29.9484 13.2873 29.1246 13.2873 28.1082C13.2873 27.0919 12.4634 26.268 11.4471 26.268ZM15.1275 24.4278C15.1275 23.4115 15.9514 22.5876 16.9677 22.5876C17.9841 22.5876 18.8079 23.4115 18.8079 24.4278C18.8079 25.4441 17.9841 26.268 16.9677 26.268C15.9514 26.268 15.1275 25.4441 15.1275 24.4278Z" fill="black"/>
</svg>
