<svg width="38" height="32" viewBox="0 0 38 32" fill="none" xmlns="http://www.w3.org/2000/svg">
<path d="M11.1361 0.719971C5.3108 0.719971 0.347961 5.07565 0.347961 10.7326C0.347961 14.6351 2.17534 17.9206 4.5972 20.6422C7.01075 23.3545 10.1246 25.6311 12.9396 27.5366L17.7966 30.8243C18.3285 31.1843 19.0261 31.1843 19.558 30.8243L24.415 27.5366C27.23 25.6311 30.3438 23.3545 32.7574 20.6422C35.1793 17.9206 37.0066 14.6351 37.0066 10.7326C37.0066 5.07565 32.0438 0.719971 26.2185 0.719971C23.2157 0.719971 20.5734 2.12795 18.6773 3.94977C16.7812 2.12795 14.1389 0.719971 11.1361 0.719971Z" fill="black"/>
</svg>
