<svg width="36" height="33" viewBox="0 0 36 33" fill="none" xmlns="http://www.w3.org/2000/svg">
<path fill-rule="evenodd" clip-rule="evenodd" d="M35.4047 13.1705L35.4094 19.7904C35.3628 20.4211 35.3027 21.051 35.2292 21.6797C35.1062 22.7311 34.2515 23.5792 33.1782 23.6992C29.8165 24.0749 26.3377 24.0749 22.976 23.6992C21.9027 23.5792 21.048 22.7311 20.925 21.6797C20.5234 18.2463 20.5234 14.7777 20.925 11.3443C21.048 10.2929 21.9027 9.44478 22.976 9.32482C26.3377 8.9491 29.8165 8.9491 33.1782 9.32482C34.2515 9.44478 35.1062 10.2929 35.2292 11.3443C35.3003 11.9521 35.3588 12.5609 35.4047 13.1705ZM28.0771 13.7711C26.5633 13.7711 25.3362 14.9983 25.3362 16.512C25.3362 18.0258 26.5633 19.2529 28.0771 19.2529C29.5908 19.2529 30.818 18.0258 30.818 16.512C30.818 14.9983 29.5908 13.7711 28.0771 13.7711Z" fill="black"/>
<path d="M34.2963 5.62103C34.5804 6.11305 34.0472 6.66399 33.4826 6.60089C29.9186 6.20255 26.2356 6.20255 22.6716 6.60089C20.3521 6.86012 18.4763 8.68654 18.2027 11.0259C17.7763 14.6709 17.7763 18.3531 18.2027 21.9981C18.4763 24.3375 20.3521 26.1639 22.6716 26.4231C26.2356 26.8215 29.9186 26.8215 33.4826 26.4231C34.051 26.3596 34.5886 26.9144 34.3017 27.4091C32.879 29.8628 30.3426 31.5753 27.3952 31.8855L26.2041 32.0108C20.1543 32.6475 14.0522 32.6055 8.01178 31.8857L7.22251 31.7916C3.9661 31.4036 1.38592 28.8594 0.952183 25.6088C0.146554 19.571 0.146554 13.453 0.952183 7.41528C1.38592 4.16465 3.9661 1.62046 7.2225 1.23241L8.01177 1.13836C14.0522 0.418554 20.1543 0.376572 26.2041 1.0132L27.3952 1.13854C30.3451 1.44896 32.8775 3.16404 34.2963 5.62103Z" fill="black"/>
</svg>
