<svg width="35" height="38" viewBox="0 0 35 38" fill="none" xmlns="http://www.w3.org/2000/svg">
<path d="M14.0982 14.2285C14.0982 12.33 15.6372 10.7909 17.5358 10.7909C19.4343 10.7909 20.9733 12.33 20.9733 14.2285C20.9733 16.127 19.4343 17.6661 17.5358 17.6661C15.6372 17.6661 14.0982 16.127 14.0982 14.2285Z" fill="black"/>
<path fill-rule="evenodd" clip-rule="evenodd" d="M3.78553 14.2285C3.78553 6.63446 9.94172 0.478271 17.5358 0.478271C25.1298 0.478271 31.286 6.63446 31.286 14.2285C31.286 16.9239 30.5104 19.4382 29.1703 21.5604L34.5262 30.8371C34.8154 31.3379 34.7847 31.9617 34.4479 32.4318C34.111 32.9019 33.5303 33.1314 32.963 33.0187L27.8241 31.9968L26.1396 36.9582C25.9537 37.5058 25.4645 37.894 24.8889 37.9506C24.3134 38.0073 23.7579 37.722 23.4687 37.2211L18.1255 27.9663C17.9299 27.9746 17.7333 27.9787 17.5358 27.9787C17.3382 27.9787 17.1416 27.9746 16.9461 27.9663L11.6028 37.2211C11.3139 37.7215 10.7592 38.0068 10.1842 37.9508C9.60915 37.8948 9.11991 37.5079 8.93297 36.9612L7.23985 32.0099L2.10538 33.0193C1.53846 33.1307 0.958734 32.9005 0.622725 32.4305C0.286716 31.9605 0.256458 31.3374 0.545341 30.8371L5.90125 21.5604C4.5611 19.4382 3.78553 16.9239 3.78553 14.2285ZM7.88294 24.021C9.51774 25.6326 11.5542 26.8379 13.8285 27.4732L10.672 32.9404L9.61168 29.8396C9.37328 29.1424 8.65648 28.7286 7.93351 28.8707L4.71799 29.5028L7.88294 24.021ZM21.2431 27.4732L24.3948 32.9323L25.4494 29.8263C25.6871 29.1263 26.4067 28.7108 27.1318 28.855L30.3489 29.4947L27.1886 24.0209C25.5538 25.6326 23.5174 26.8379 21.2431 27.4732ZM17.5358 7.84447C14.0099 7.84447 11.1517 10.7027 11.1517 14.2285C11.1517 17.7543 14.0099 20.6125 17.5358 20.6125C21.0616 20.6125 23.9198 17.7543 23.9198 14.2285C23.9198 10.7027 21.0616 7.84447 17.5358 7.84447Z" fill="black"/>
</svg>
