<svg width="25" height="25" viewBox="0 0 25 25" fill="none"
  xmlns="http://www.w3.org/2000/svg">
  <path d="M24.962 19.6466C24.7418 20.1921 23.639 20.6431 21.7714 20.9504C21.5973 20.9795 21.5221 21.2814 21.4214 21.776C21.3805 21.9796 21.3361 22.1796 21.2797 22.3888C21.2625 22.4776 21.2153 22.5567 21.147 22.611C21.0788 22.6653 20.9942 22.691 20.9093 22.6833H20.8803C20.7022 22.676 20.5251 22.6516 20.3511 22.6106C19.89 22.5083 19.4204 22.4559 18.9495 22.4542C18.6098 22.4542 18.2735 22.4851 17.9389 22.5451C17.2339 22.7361 16.58 23.0907 16.0218 23.5889C15.0796 24.4451 13.896 24.9417 12.6588 25C12.5871 25 12.5188 24.9982 12.4676 24.9945C12.4261 24.9983 12.3845 25.0001 12.3429 25C11.1056 24.9423 9.92182 24.4456 8.9799 23.5889C8.42239 23.0923 7.7672 22.7356 7.0628 22.5451C6.72882 22.4855 6.39082 22.4551 6.05218 22.4542C5.58102 22.4597 5.11326 22.5161 4.65234 22.6233C4.47786 22.6662 4.30023 22.693 4.12142 22.7034C4.03133 22.7146 3.94053 22.6897 3.86669 22.6336C3.79285 22.5775 3.74126 22.4941 3.72196 22.3997C3.66762 22.1955 3.62035 21.9893 3.58027 21.7814C3.47784 21.285 3.40443 20.9813 3.23031 20.9522C1.36271 20.6467 0.259908 20.194 0.0396893 19.6466C0.0171601 19.5919 0.00386859 19.5335 0.000425862 19.4739C-0.00350761 19.3952 0.0199155 19.3178 0.0662142 19.2564C0.112513 19.195 0.178436 19.154 0.251373 19.1411C1.79585 18.8434 3.1876 17.9621 4.17093 16.659C4.71209 15.9916 5.16106 15.2479 5.50761 14.446L5.51273 14.4314C5.61463 14.254 5.67889 14.0549 5.701 13.8483C5.72312 13.6416 5.70256 13.4322 5.64077 13.2349C5.40177 12.6312 4.60454 12.3621 4.07704 12.1839C3.94559 12.1402 3.82097 12.0984 3.72366 12.0566C3.25591 11.8602 2.48771 11.4438 2.59013 10.871C2.66833 10.6551 2.80797 10.4706 2.9895 10.3434C3.17103 10.2163 3.38535 10.1528 3.60246 10.1618C3.70816 10.1592 3.8131 10.1816 3.90974 10.2273C4.30238 10.4418 4.73599 10.5637 5.17643 10.5837C5.43929 10.6036 5.69972 10.5187 5.90708 10.3455C5.89286 10.0799 5.8775 9.81442 5.86098 9.54901C5.62199 7.75788 5.72441 5.93039 6.16315 4.1829C6.67924 2.92711 7.53119 1.86108 8.61263 1.11792C9.69406 0.37476 10.9571 -0.0125991 12.2439 0.00420737L12.7475 0.000570824C14.0358 -0.0169669 15.3005 0.36996 16.3837 1.11308C17.4669 1.8562 18.3207 2.92261 18.8385 4.17926C19.2774 5.93055 19.3796 7.75825 19.139 9.55265L19.1339 9.63811L19.0946 10.3455C19.2824 10.5037 19.5163 10.5873 19.757 10.5819C20.1733 10.5485 20.5794 10.428 20.952 10.2273C21.0747 10.1703 21.2073 10.1418 21.3412 10.1436C21.4948 10.1436 21.6451 10.1745 21.7868 10.2345L21.7936 10.2382C21.9537 10.2788 22.0989 10.3694 22.2105 10.4983C22.3221 10.6272 22.395 10.7886 22.4201 10.9619C22.4252 11.2401 22.2323 11.6547 21.278 12.0566C21.1807 12.0966 21.0561 12.1402 20.9247 12.1839C20.3954 12.3621 19.5999 12.6312 19.3609 13.2349C19.299 13.4318 19.2783 13.6408 19.3001 13.8471C19.3219 14.0535 19.3858 14.2523 19.4873 14.4296L19.4941 14.446C19.9712 15.6072 20.6939 16.6351 21.6057 17.4496C22.5175 18.2641 23.5937 18.843 24.7503 19.1411C24.8229 19.1544 24.8885 19.1956 24.9344 19.2569C24.9804 19.3183 25.0035 19.3955 24.9996 19.4739C24.9962 19.5341 24.983 19.5932 24.9603 19.6484L24.962 19.6466Z" fill="black" />
</svg>