<svg width="24" height="21" viewBox="0 0 24 21" fill="none"
  xmlns="http://www.w3.org/2000/svg">
  <path fill-rule="evenodd" clip-rule="evenodd" d="M12 0L20.7191 0.254038C22.2597 0.298925 23.5339 1.50412 23.7091 3.08206C24.097 6.57493 24.097 10.102 23.7091 13.5949C23.5339 15.1728 22.2597 16.378 20.7191 16.4229L13.4984 16.6333V19.1471H17.9936C18.4902 19.1471 18.8927 19.5619 18.8927 20.0735C18.8927 20.5852 18.4902 21 17.9936 21H6.00641C5.50988 21 5.10737 20.5852 5.10737 20.0735C5.10737 19.5619 5.50988 19.1471 6.00641 19.1471H10.5016V16.6333L3.28095 16.4229C1.74033 16.378 0.466063 15.1728 0.290863 13.5949C-0.0969544 10.102 -0.0969542 6.57493 0.290863 3.08206C0.466063 1.50412 1.74033 0.298925 3.28095 0.254038L12 0ZM3.60897 12.3531C3.11244 12.3531 2.70993 12.7679 2.70993 13.2796C2.70993 13.7912 3.11244 14.206 3.60897 14.206H20.3911C20.8876 14.206 21.2901 13.7912 21.2901 13.2796C21.2901 12.7679 20.8876 12.3531 20.3911 12.3531H3.60897Z" fill="black" />
</svg>