<svg width="24" height="22" viewBox="0 0 24 22" fill="none"
  xmlns="http://www.w3.org/2000/svg">
  <path d="M12.9969 0.575514C12.5527 -0.191836 11.4473 -0.191839 11.0031 0.575514L7.87494 5.97961C7.65552 6.35867 7.27626 6.61735 6.84397 6.68281L0.981594 7.5704C-0.00303382 7.71948 -0.348415 8.96569 0.418402 9.60254L4.78563 13.2296C5.18989 13.5653 5.37997 14.0949 5.28177 14.6118L4.13937 20.6258C3.95878 21.5765 4.95436 22.3151 5.80859 21.8642L11.3288 18.9506C11.7489 18.7288 12.2511 18.7288 12.6712 18.9506L18.1914 21.8642C19.0456 22.3151 20.0412 21.5765 19.8606 20.6258L18.7182 14.6118C18.62 14.0949 18.8101 13.5653 19.2144 13.2296L23.5816 9.60254C24.3484 8.96569 24.003 7.71948 23.0184 7.5704L17.156 6.68281C16.7237 6.61735 16.3445 6.35867 16.1251 5.97961L12.9969 0.575514Z" fill="black" />
</svg>