<svg width="25" height="25" viewBox="0 0 25 25" fill="none"
  xmlns="http://www.w3.org/2000/svg">
  <path d="M14.0977 0.088283C13.0441 -0.0294277 11.9559 -0.0294277 10.9023 0.088283C10.1088 0.176929 9.46585 0.801202 9.3719 1.60417C9.24582 2.68174 9.24582 3.77033 9.3719 4.84789C9.46585 5.65087 10.1088 6.27514 10.9023 6.36378C11.9559 6.48149 13.0441 6.48149 14.0977 6.36378C14.8912 6.27514 15.5341 5.65087 15.6281 4.84789C15.7542 3.77033 15.7542 2.68174 15.6281 1.60417C15.5341 0.801201 14.8912 0.176929 14.0977 0.088283Z" fill="black" />
  <path d="M23.3751 0.088283C22.3215 -0.0294277 21.2332 -0.0294277 20.1796 0.088283C19.3862 0.176929 18.7432 0.801202 18.6493 1.60417C18.5232 2.68174 18.5232 3.77033 18.6493 4.84789C18.7432 5.65087 19.3862 6.27514 20.1796 6.36378C21.2332 6.48149 22.3215 6.48149 23.3751 6.36378C24.1685 6.27514 24.8115 5.65087 24.9054 4.84789C25.0315 3.77033 25.0315 2.68174 24.9054 1.60417C24.8115 0.801201 24.1685 0.176929 23.3751 0.088283Z" fill="black" />
  <path d="M4.82038 9.36225C3.76679 9.24454 2.67852 9.24454 1.62493 9.36225C0.831495 9.45089 0.188507 10.0752 0.094558 10.8781C-0.0315193 11.9557 -0.0315193 13.0443 0.094558 14.1219C0.188507 14.9248 0.831495 15.5491 1.62493 15.6377C2.67852 15.7555 3.76679 15.7555 4.82038 15.6377C5.61381 15.5491 6.2568 14.9248 6.35075 14.1219C6.47683 13.0443 6.47683 11.9557 6.35075 10.8781C6.2568 10.0752 5.61381 9.45089 4.82038 9.36225Z" fill="black" />
  <path d="M14.0977 9.36225C13.0441 9.24454 11.9559 9.24454 10.9023 9.36225C10.1088 9.45089 9.46585 10.0752 9.3719 10.8781C9.24582 11.9557 9.24582 13.0443 9.3719 14.1219C9.46585 14.9248 10.1088 15.5491 10.9023 15.6377C11.9559 15.7555 13.0441 15.7555 14.0977 15.6377C14.8912 15.5491 15.5341 14.9248 15.6281 14.1219C15.7542 13.0443 15.7542 11.9557 15.6281 10.8781C15.5341 10.0752 14.8912 9.45089 14.0977 9.36225Z" fill="black" />
  <path d="M23.3751 9.36225C22.3215 9.24454 21.2332 9.24454 20.1796 9.36225C19.3862 9.45089 18.7432 10.0752 18.6493 10.8781C18.5232 11.9557 18.5232 13.0443 18.6493 14.1219C18.7432 14.9248 19.3862 15.5491 20.1796 15.6377C21.2332 15.7555 22.3215 15.7555 23.3751 15.6377C24.1685 15.5491 24.8115 14.9248 24.9054 14.1219C25.0315 13.0443 25.0315 11.9557 24.9054 10.8781C24.8115 10.0752 24.1685 9.45089 23.3751 9.36225Z" fill="black" />
  <path d="M4.82038 18.6362C3.76679 18.5185 2.67852 18.5185 1.62493 18.6362C0.831495 18.7249 0.188507 19.3491 0.094558 20.1521C-0.0315193 21.2297 -0.0315193 22.3183 0.094558 23.3958C0.188507 24.1988 0.831495 24.8231 1.62493 24.9117C2.67852 25.0294 3.76679 25.0294 4.82038 24.9117C5.61381 24.8231 6.2568 24.1988 6.35075 23.3958C6.47683 22.3183 6.47683 21.2297 6.35075 20.1521C6.2568 19.3491 5.61381 18.7249 4.82038 18.6362Z" fill="black" />
  <path d="M14.0977 18.6362C13.0441 18.5185 11.9559 18.5185 10.9023 18.6362C10.1088 18.7249 9.46585 19.3491 9.3719 20.1521C9.24582 21.2297 9.24582 22.3183 9.3719 23.3958C9.46585 24.1988 10.1088 24.8231 10.9023 24.9117C11.9559 25.0294 13.0441 25.0294 14.0977 24.9117C14.8912 24.8231 15.5341 24.1988 15.6281 23.3958C15.7542 22.3183 15.7542 21.2297 15.6281 20.1521C15.5341 19.3491 14.8912 18.7249 14.0977 18.6362Z" fill="black" />
  <path d="M23.3751 18.6362C22.3215 18.5185 21.2332 18.5185 20.1796 18.6362C19.3862 18.7249 18.7432 19.3491 18.6493 20.1521C18.5232 21.2297 18.5232 22.3183 18.6493 23.3958C18.7432 24.1988 19.3862 24.8231 20.1796 24.9117C21.2332 25.0294 22.3215 25.0294 23.3751 24.9117C24.1685 24.8231 24.8115 24.1988 24.9054 23.3958C25.0315 22.3183 25.0315 21.2297 24.9054 20.1521C24.8115 19.3491 24.1685 18.7249 23.3751 18.6362Z" fill="black" />
</svg>