<svg width="14" height="25" viewBox="0 0 14 25" fill="none"
  xmlns="http://www.w3.org/2000/svg">
  <path d="M10.1034 0C8.41155 0 6.78895 0.667501 5.59259 1.85566C4.39624 3.04382 3.72414 4.65531 3.72414 6.33562V9.86301H0.310345C0.138946 9.86301 0 10.001 0 10.1712V14.8288C0 14.999 0.138946 15.137 0.310345 15.137H3.72414V24.6918C3.72414 24.862 3.86308 25 4.03448 25H8.72414C8.89554 25 9.03448 24.862 9.03448 24.6918V15.137H12.4785C12.6209 15.137 12.7451 15.0407 12.7796 14.9035L13.952 10.246C14.001 10.0515 13.8528 9.86301 13.6509 9.86301H9.03448V6.33562C9.03448 6.05405 9.14711 5.78402 9.34758 5.58492C9.54805 5.38582 9.81994 5.27397 10.1034 5.27397H13.6897C13.8611 5.27397 14 5.13598 14 4.96575V0.308219C14 0.137995 13.8611 0 13.6897 0H10.1034Z" fill="black" />
</svg>