<svg width="27" height="23" viewBox="0 0 27 23" fill="none"
  xmlns="http://www.w3.org/2000/svg">
  <path fill-rule="evenodd" clip-rule="evenodd" d="M26.9964 9.09026L27 13.8642C26.9641 14.319 26.9179 14.7733 26.8612 15.2267C26.7665 15.9849 26.1083 16.5965 25.2818 16.683C22.693 16.954 20.0141 16.954 17.4253 16.683C16.5988 16.5965 15.9406 15.9849 15.8459 15.2267C15.5366 12.7507 15.5366 10.2493 15.8459 7.77332C15.9406 7.01509 16.5988 6.40349 17.4253 6.31698C20.0141 6.04603 22.693 6.04603 25.2818 6.31698C26.1083 6.40349 26.7665 7.01509 26.8612 7.77332C26.916 8.2116 26.961 8.65067 26.9964 9.09026ZM21.3536 9.52341C20.1878 9.52341 19.2429 10.4084 19.2429 11.5C19.2429 12.5916 20.1878 13.4766 21.3536 13.4766C22.5193 13.4766 23.4642 12.5916 23.4642 11.5C23.4642 10.4084 22.5193 9.52341 21.3536 9.52341Z" fill="black" />
  <path d="M26.1429 3.64601C26.3616 4.00082 25.951 4.39813 25.5162 4.35262C22.7716 4.06537 19.9355 4.06537 17.1909 4.35262C15.4047 4.53957 13.9602 5.85668 13.7495 7.54371C13.4212 10.1723 13.4212 12.8277 13.7495 15.4563C13.9602 17.1433 15.4047 18.4604 17.1909 18.6474C19.9355 18.9346 22.7716 18.9346 25.5162 18.6474C25.9539 18.6016 26.3679 19.0016 26.147 19.3584C25.0514 21.1279 23.0982 22.3629 20.8284 22.5865L19.9112 22.6769C15.2524 23.136 10.5533 23.1057 5.90173 22.5867L5.29393 22.5188C2.78625 22.239 0.79931 20.4043 0.465297 18.0601C-0.155099 13.706 -0.155099 9.29401 0.465297 4.93992C0.79931 2.59574 2.78625 0.761004 5.29393 0.481166L5.90172 0.413341C10.5533 -0.105743 15.2524 -0.136018 19.9112 0.323082L20.8284 0.413472C23.1001 0.637329 25.0503 1.87416 26.1429 3.64601Z" fill="black" />
</svg>