<svg width="23" height="29" viewBox="0 0 23 29" fill="none"
  xmlns="http://www.w3.org/2000/svg">
  <path fill-rule="evenodd" clip-rule="evenodd" d="M14.8387 0.371795C14.8387 0.166458 14.6726 0 14.4677 0H4.08065C1.82697 0 0 1.83104 0 4.08974V24.9103C0 27.169 1.82697 29 4.08064 29H18.9194C21.173 29 23 27.169 23 24.9103V10.2572C23 10.0518 22.8339 9.88537 22.629 9.88537H15.9516C15.337 9.88537 14.8387 9.38599 14.8387 8.76999V0.371795ZM11.5 11.5256C9.86096 11.5256 8.53226 12.8573 8.53226 14.5C8.53226 16.1427 9.86096 17.4744 11.5 17.4744C13.139 17.4744 14.4677 16.1427 14.4677 14.5C14.4677 12.8573 13.139 11.5256 11.5 11.5256ZM5.56452 24.1667C5.56452 21.7026 7.55757 19.7051 10.0161 19.7051H12.9839C15.4424 19.7051 17.4355 21.7026 17.4355 24.1667C17.4355 24.988 16.7711 25.6538 15.9516 25.6538H7.04839C6.22887 25.6538 5.56452 24.988 5.56452 24.1667Z" fill="black" />
  <path d="M17.0645 0.853842C17.0645 0.579464 17.3504 0.40525 17.5634 0.5776C17.7428 0.722768 17.9041 0.89284 18.0417 1.08497L22.5128 7.328C22.6146 7.47014 22.5044 7.6546 22.3298 7.6546H17.4355C17.2306 7.6546 17.0645 7.48814 17.0645 7.28281V0.853842Z" fill="black" />
</svg>