<svg width="23" height="19" viewBox="0 0 23 19" fill="none"
  xmlns="http://www.w3.org/2000/svg">
  <path fill-rule="evenodd" clip-rule="evenodd" d="M5.71911 0.258443C9.56578 -0.0861474 13.4342 -0.0861477 17.2809 0.258443L19.1257 0.423703C20.8909 0.581832 22.3209 1.96609 22.5844 3.77173C23.1385 7.56923 23.1385 11.4308 22.5844 15.2283C22.5359 15.5605 22.448 15.8784 22.3257 16.1771C22.2446 16.3751 21.9945 16.4051 21.8542 16.2461L16.4533 10.1237C16.2092 9.84712 15.8298 9.74494 15.4856 9.86316L12.3941 10.9251L7.90935 5.72572C7.74172 5.53138 7.50373 5.41689 7.25152 5.40925C6.99931 5.40161 6.75521 5.5015 6.57679 5.68537L0.574013 11.8714C0.389266 12.0617 0.0741829 11.9406 0.059453 11.6718C-0.0849762 9.03594 0.033741 6.38863 0.415604 3.77173C0.679087 1.96609 2.1091 0.581832 3.87431 0.423703L5.71911 0.258443ZM13.9431 5.72355C13.9431 4.6807 14.7634 3.83531 15.7754 3.83531C16.7873 3.83531 17.6077 4.6807 17.6077 5.72355C17.6077 6.76639 16.7873 7.61178 15.7754 7.61178C14.7634 7.61178 13.9431 6.76639 13.9431 5.72355Z" fill="black" />
  <path d="M0.458933 14.6603C0.391317 14.73 0.359197 14.8283 0.372666 14.9259C0.386589 15.0267 0.400901 15.1275 0.415604 15.2283C0.679087 17.0339 2.1091 18.4182 3.87431 18.5763L5.71911 18.7416C9.56578 19.0861 13.4342 19.0861 17.2809 18.7416L19.1257 18.5763C19.6444 18.5298 20.1342 18.3775 20.5739 18.1397C20.7405 18.0496 20.7686 17.8225 20.642 17.679L15.6327 12.0007C15.5514 11.9085 15.4249 11.8744 15.3102 11.9138L12.4005 12.9133C12.0528 13.0327 11.6695 12.9272 11.426 12.6449L7.40055 7.97802C7.28382 7.84268 7.08061 7.83653 6.95637 7.96457L0.458933 14.6603Z" fill="black" />
</svg>