<svg width="17" height="16" viewBox="0 0 17 16" fill="none" xmlns="http://www.w3.org/2000/svg">
<path d="M1 7.00006C0.447715 7.00006 -4.82823e-08 7.44778 0 8.00006C4.82823e-08 8.55235 0.447715 9.00006 1 9.00006L1 7.00006ZM16.7071 8.70717C17.0976 8.31664 17.0976 7.68348 16.7071 7.29295L10.3431 0.928992C9.95262 0.538468 9.31946 0.538468 8.92893 0.928993C8.53841 1.31952 8.53841 1.95268 8.92893 2.34321L14.5858 8.00006L8.92893 13.6569C8.53841 14.0474 8.53841 14.6806 8.92893 15.0711C9.31946 15.4617 9.95262 15.4617 10.3431 15.0711L16.7071 8.70717ZM1 9.00006L16 9.00006L16 7.00006L1 7.00006L1 9.00006Z" fill="#DABA6C"/>
</svg>
