<svg width="144" height="131" viewBox="0 0 144 131" fill="none" xmlns="http://www.w3.org/2000/svg">
<path d="M79.8727 10.6337L79.3727 10.4337C78.8727 10.2337 78.4727 10.5337 78.4727 11.0337V14.6337C78.4727 16.8337 79.9727 19.2337 81.8727 20.0337L82.3727 20.2337C82.8727 20.4337 83.2727 20.1337 83.2727 19.6337V16.0337C83.1727 13.8337 81.6727 11.4337 79.8727 10.6337Z" fill="#E41F30"/>
<path d="M87.5734 10.4337L87.0734 10.6337C85.2734 11.4337 83.7734 13.8337 83.7734 16.0337V19.6337C83.7734 20.2337 84.1734 20.5337 84.6734 20.2337L85.1734 20.0337C86.9734 19.2337 88.4734 16.8337 88.4734 14.6337V11.0337C88.4734 10.5337 88.0734 10.2337 87.5734 10.4337Z" fill="#E41F30"/>
<path d="M79.8727 20.6337L79.3727 20.4337C78.8727 20.2337 78.4727 20.5337 78.4727 21.0337V24.6337C78.4727 26.8337 79.9727 29.2337 81.8727 30.0337L82.3727 30.2337C82.8727 30.4337 83.2727 30.1337 83.2727 29.6337V26.0337C83.1727 23.8337 81.6727 21.4337 79.8727 20.6337Z" fill="#E41F30"/>
<path d="M87.5734 20.4337L87.0734 20.6337C85.2734 21.4337 83.7734 23.8337 83.7734 26.0337V29.6337C83.7734 30.2337 84.1734 30.5337 84.6734 30.2337L85.1734 30.0337C86.9734 29.2337 88.4734 26.8337 88.4734 24.6337V21.0337C88.4734 20.5337 88.0734 20.2337 87.5734 20.4337Z" fill="#E41F30"/>
<path d="M35.8727 30.6337L35.3727 30.4337C34.8727 30.2337 34.4727 30.5337 34.4727 31.0337V34.6337C34.4727 36.8337 35.9727 39.2337 37.8727 40.0337L38.3727 40.2337C38.8727 40.4337 39.2727 40.1337 39.2727 39.6337V36.0337C39.1727 33.8337 37.6727 31.4337 35.8727 30.6337Z" fill="#E41F30"/>
<path d="M43.5734 30.4337L43.0734 30.6337C41.2734 31.4337 39.7734 33.8337 39.7734 36.0337V39.6337C39.7734 40.2337 40.1734 40.5337 40.6734 40.2337L41.1734 40.0337C42.9734 39.2337 44.4734 36.8337 44.4734 34.6337V31.0337C44.4734 30.5337 44.0734 30.2337 43.5734 30.4337Z" fill="#E41F30"/>
<path d="M79.8727 40.6337L79.3727 40.4337C78.8727 40.2337 78.4727 40.5337 78.4727 41.0337V44.6337C78.4727 46.8337 79.9727 49.2337 81.8727 50.0337L82.3727 50.2337C82.8727 50.4337 83.2727 50.1337 83.2727 49.6337V46.0337C83.1727 43.8337 81.6727 41.4337 79.8727 40.6337Z" fill="#E41F30"/>
<path d="M87.5734 40.4337L87.0734 40.6337C85.2734 41.4337 83.7734 43.8337 83.7734 46.0337V49.6337C83.7734 50.2337 84.1734 50.5337 84.6734 50.2337L85.1734 50.0337C86.9734 49.2337 88.4734 46.8337 88.4734 44.6337V41.0337C88.4734 40.5337 88.0734 40.2337 87.5734 40.4337Z" fill="#E41F30"/>
<path d="M79.8727 50.6337L79.3727 50.4337C78.8727 50.2337 78.4727 50.5337 78.4727 51.0337V54.6337C78.4727 56.8337 79.9727 59.2337 81.8727 60.0337L82.3727 60.2337C82.8727 60.4337 83.2727 60.1337 83.2727 59.6337V56.0337C83.1727 53.8337 81.6727 51.4337 79.8727 50.6337Z" fill="#E41F30"/>
<path d="M87.5734 50.4337L87.0734 50.6337C85.2734 51.4337 83.7734 53.8337 83.7734 56.0337V59.6337C83.7734 60.2337 84.1734 60.5337 84.6734 60.2337L85.1734 60.0337C86.9734 59.2337 88.4734 56.8337 88.4734 54.6337V51.0337C88.4734 50.5337 88.0734 50.2337 87.5734 50.4337Z" fill="#E41F30"/>
<path d="M35.8727 50.6337L35.3727 50.4337C34.8727 50.2337 34.4727 50.5337 34.4727 51.0337V54.6337C34.4727 56.8337 35.9727 59.2337 37.8727 60.0337L38.3727 60.2337C38.8727 60.4337 39.2727 60.1337 39.2727 59.6337V56.0337C39.1727 53.8337 37.6727 51.4337 35.8727 50.6337Z" fill="#E41F30"/>
<path d="M43.5734 50.4337L43.0734 50.6337C41.2734 51.4337 39.7734 53.8337 39.7734 56.0337V59.6337C39.7734 60.2337 40.1734 60.5337 40.6734 60.2337L41.1734 60.0337C42.9734 59.2337 44.4734 56.8337 44.4734 54.6337V51.0337C44.4734 50.5337 44.0734 50.2337 43.5734 50.4337Z" fill="#E41F30"/>
<path d="M79.8727 60.6337L79.3727 60.4337C78.8727 60.2337 78.4727 60.5337 78.4727 61.0337V64.6337C78.4727 66.8337 79.9727 69.2337 81.8727 70.0337L82.3727 70.2337C82.8727 70.4337 83.2727 70.1337 83.2727 69.6337V66.0337C83.1727 63.8337 81.6727 61.4337 79.8727 60.6337Z" fill="#E41F30"/>
<path d="M87.5734 60.4337L87.0734 60.6337C85.2734 61.4337 83.7734 63.8337 83.7734 66.0337V69.6337C83.7734 70.2337 84.1734 70.5337 84.6734 70.2337L85.1734 70.0337C86.9734 69.2337 88.4734 66.8337 88.4734 64.6337V61.0337C88.4734 60.5337 88.0734 60.2337 87.5734 60.4337Z" fill="#E41F30"/>
<path d="M35.8727 60.6337L35.3727 60.4337C34.8727 60.2337 34.4727 60.5337 34.4727 61.0337V64.6337C34.4727 66.8337 35.9727 69.2337 37.8727 70.0337L38.3727 70.2337C38.8727 70.4337 39.2727 70.1337 39.2727 69.6337V66.0337C39.1727 63.8337 37.6727 61.4337 35.8727 60.6337Z" fill="#E41F30"/>
<path d="M43.5734 60.4337L43.0734 60.6337C41.2734 61.4337 39.7734 63.8337 39.7734 66.0337V69.6337C39.7734 70.2337 40.1734 70.5337 40.6734 70.2337L41.1734 70.0337C42.9734 69.2337 44.4734 66.8337 44.4734 64.6337V61.0337C44.4734 60.5337 44.0734 60.2337 43.5734 60.4337Z" fill="#E41F30"/>
<path d="M90.8727 20.6337L90.3727 20.4337C89.8727 20.2337 89.4727 20.5337 89.4727 21.0337V24.6337C89.4727 26.8337 90.9727 29.2337 92.8727 30.0337L93.3727 30.2337C93.8727 30.4337 94.2727 30.1337 94.2727 29.6337V26.0337C94.1727 23.8337 92.6727 21.4337 90.8727 20.6337Z" fill="#E41F30"/>
<path d="M98.5734 20.4337L98.0734 20.6337C96.2734 21.4337 94.7734 23.8337 94.7734 26.0337V29.6337C94.7734 30.2337 95.1734 30.5337 95.6734 30.2337L96.1734 30.0337C97.9734 29.2337 99.4734 26.8337 99.4734 24.6337V21.0337C99.4734 20.5337 99.0734 20.2337 98.5734 20.4337Z" fill="#E41F30"/>
<path d="M46.8727 20.6337L46.3727 20.4337C45.8727 20.2337 45.4727 20.5337 45.4727 21.0337V24.6337C45.4727 26.8337 46.9727 29.2337 48.8727 30.0337L49.3727 30.2337C49.8727 30.4337 50.2727 30.1337 50.2727 29.6337V26.0337C50.1727 23.8337 48.6727 21.4337 46.8727 20.6337Z" fill="#E41F30"/>
<path d="M54.5734 20.4337L54.0734 20.6337C52.2734 21.4337 50.7734 23.8337 50.7734 26.0337V29.6337C50.7734 30.2337 51.1734 30.5337 51.6734 30.2337L52.1734 30.0337C53.9734 29.2337 55.4734 26.8337 55.4734 24.6337V21.0337C55.4734 20.5337 55.0734 20.2337 54.5734 20.4337Z" fill="#E41F30"/>
<path d="M90.8727 30.6337L90.3727 30.4337C89.8727 30.2337 89.4727 30.5337 89.4727 31.0337V34.6337C89.4727 36.8337 90.9727 39.2337 92.8727 40.0337L93.3727 40.2337C93.8727 40.4337 94.2727 40.1337 94.2727 39.6337V36.0337C94.1727 33.8337 92.6727 31.4337 90.8727 30.6337Z" fill="#E41F30"/>
<path d="M98.5734 30.4337L98.0734 30.6337C96.2734 31.4337 94.7734 33.8337 94.7734 36.0337V39.6337C94.7734 40.2337 95.1734 40.5337 95.6734 40.2337L96.1734 40.0337C97.9734 39.2337 99.4734 36.8337 99.4734 34.6337V31.0337C99.4734 30.5337 99.0734 30.2337 98.5734 30.4337Z" fill="#E41F30"/>
<path d="M46.8727 30.6337L46.3727 30.4337C45.8727 30.2337 45.4727 30.5337 45.4727 31.0337V34.6337C45.4727 36.8337 46.9727 39.2337 48.8727 40.0337L49.3727 40.2337C49.8727 40.4337 50.2727 40.1337 50.2727 39.6337V36.0337C50.1727 33.8337 48.6727 31.4337 46.8727 30.6337Z" fill="#E41F30"/>
<path d="M54.5734 30.4337L54.0734 30.6337C52.2734 31.4337 50.7734 33.8337 50.7734 36.0337V39.6337C50.7734 40.2337 51.1734 40.5337 51.6734 40.2337L52.1734 40.0337C53.9734 39.2337 55.4734 36.8337 55.4734 34.6337V31.0337C55.4734 30.5337 55.0734 30.2337 54.5734 30.4337Z" fill="#E41F30"/>
<path d="M90.8727 50.6337L90.3727 50.4337C89.8727 50.2337 89.4727 50.5337 89.4727 51.0337V54.6337C89.4727 56.8337 90.9727 59.2337 92.8727 60.0337L93.3727 60.2337C93.8727 60.4337 94.2727 60.1337 94.2727 59.6337V56.0337C94.1727 53.8337 92.6727 51.4337 90.8727 50.6337Z" fill="#E41F30"/>
<path d="M98.5734 50.4337L98.0734 50.6337C96.2734 51.4337 94.7734 53.8337 94.7734 56.0337V59.6337C94.7734 60.2337 95.1734 60.5337 95.6734 60.2337L96.1734 60.0337C97.9734 59.2337 99.4734 56.8337 99.4734 54.6337V51.0337C99.4734 50.5337 99.0734 50.2337 98.5734 50.4337Z" fill="#E41F30"/>
<path d="M46.8727 50.6337L46.3727 50.4337C45.8727 50.2337 45.4727 50.5337 45.4727 51.0337V54.6337C45.4727 56.8337 46.9727 59.2337 48.8727 60.0337L49.3727 60.2337C49.8727 60.4337 50.2727 60.1337 50.2727 59.6337V56.0337C50.1727 53.8337 48.6727 51.4337 46.8727 50.6337Z" fill="#E41F30"/>
<path d="M54.5734 50.4337L54.0734 50.6337C52.2734 51.4337 50.7734 53.8337 50.7734 56.0337V59.6337C50.7734 60.2337 51.1734 60.5337 51.6734 60.2337L52.1734 60.0337C53.9734 59.2337 55.4734 56.8337 55.4734 54.6337V51.0337C55.4734 50.5337 55.0734 50.2337 54.5734 50.4337Z" fill="#E41F30"/>
<path d="M90.8727 60.6337L90.3727 60.4337C89.8727 60.2337 89.4727 60.5337 89.4727 61.0337V64.6337C89.4727 66.8337 90.9727 69.2337 92.8727 70.0337L93.3727 70.2337C93.8727 70.4337 94.2727 70.1337 94.2727 69.6337V66.0337C94.1727 63.8337 92.6727 61.4337 90.8727 60.6337Z" fill="#E41F30"/>
<path d="M98.5734 60.4337L98.0734 60.6337C96.2734 61.4337 94.7734 63.8337 94.7734 66.0337V69.6337C94.7734 70.2337 95.1734 70.5337 95.6734 70.2337L96.1734 70.0337C97.9734 69.2337 99.4734 66.8337 99.4734 64.6337V61.0337C99.4734 60.5337 99.0734 60.2337 98.5734 60.4337Z" fill="#E41F30"/>
<path d="M46.8727 60.6337L46.3727 60.4337C45.8727 60.2337 45.4727 60.5337 45.4727 61.0337V64.6337C45.4727 66.8337 46.9727 69.2337 48.8727 70.0337L49.3727 70.2337C49.8727 70.4337 50.2727 70.1337 50.2727 69.6337V66.0337C50.1727 63.8337 48.6727 61.4337 46.8727 60.6337Z" fill="#E41F30"/>
<path d="M54.5734 60.4337L54.0734 60.6337C52.2734 61.4337 50.7734 63.8337 50.7734 66.0337V69.6337C50.7734 70.2337 51.1734 70.5337 51.6734 70.2337L52.1734 70.0337C53.9734 69.2337 55.4734 66.8337 55.4734 64.6337V61.0337C55.4734 60.5337 55.0734 60.2337 54.5734 60.4337Z" fill="#E41F30"/>
<path d="M90.8727 70.6338L90.3727 70.4338C89.8727 70.2338 89.4727 70.5338 89.4727 71.0338V74.6338C89.4727 76.8338 90.9727 79.2338 92.8727 80.0338L93.3727 80.2338C93.8727 80.4338 94.2727 80.1338 94.2727 79.6338V76.0338C94.1727 73.8338 92.6727 71.4338 90.8727 70.6338Z" fill="#E41F30"/>
<path d="M98.5734 70.4338L98.0734 70.6338C96.2734 71.4338 94.7734 73.8338 94.7734 76.0338V79.6338C94.7734 80.2338 95.1734 80.5338 95.6734 80.2338L96.1734 80.0338C97.9734 79.2338 99.4734 76.8338 99.4734 74.6338V71.0338C99.4734 70.5338 99.0734 70.2338 98.5734 70.4338Z" fill="#E41F30"/>
<path d="M46.8727 70.6338L46.3727 70.4338C45.8727 70.2338 45.4727 70.5338 45.4727 71.0338V74.6338C45.4727 76.8338 46.9727 79.2338 48.8727 80.0338L49.3727 80.2338C49.8727 80.4338 50.2727 80.1338 50.2727 79.6338V76.0338C50.1727 73.8338 48.6727 71.4338 46.8727 70.6338Z" fill="#E41F30"/>
<path d="M54.5734 70.4338L54.0734 70.6338C52.2734 71.4338 50.7734 73.8338 50.7734 76.0338V79.6338C50.7734 80.2338 51.1734 80.5338 51.6734 80.2338L52.1734 80.0338C53.9734 79.2338 55.4734 76.8338 55.4734 74.6338V71.0338C55.4734 70.5338 55.0734 70.2338 54.5734 70.4338Z" fill="#E41F30"/>
<path d="M57.8727 10.6337L57.3727 10.4337C56.8727 10.2337 56.4727 10.5337 56.4727 11.0337V14.6337C56.4727 16.8337 57.9727 19.2337 59.8727 20.0337L60.3727 20.2337C60.8727 20.4337 61.2727 20.1337 61.2727 19.6337V16.0337C61.1727 13.8337 59.6727 11.4337 57.8727 10.6337Z" fill="#E41F30"/>
<path d="M65.5734 10.4337L65.0734 10.6337C63.2734 11.4337 61.7734 13.8337 61.7734 16.0337V19.6337C61.7734 20.2337 62.1734 20.5337 62.6734 20.2337L63.1734 20.0337C64.9734 19.2337 66.4734 16.8337 66.4734 14.6337V11.0337C66.4734 10.5337 66.0734 10.2337 65.5734 10.4337Z" fill="#E41F30"/>
<path d="M57.8727 20.6337L57.3727 20.4337C56.8727 20.2337 56.4727 20.5337 56.4727 21.0337V24.6337C56.4727 26.8337 57.9727 29.2337 59.8727 30.0337L60.3727 30.2337C60.8727 30.4337 61.2727 30.1337 61.2727 29.6337V26.0337C61.1727 23.8337 59.6727 21.4337 57.8727 20.6337Z" fill="#E41F30"/>
<path d="M65.5734 20.4337L65.0734 20.6337C63.2734 21.4337 61.7734 23.8337 61.7734 26.0337V29.6337C61.7734 30.2337 62.1734 30.5337 62.6734 30.2337L63.1734 30.0337C64.9734 29.2337 66.4734 26.8337 66.4734 24.6337V21.0337C66.4734 20.5337 66.0734 20.2337 65.5734 20.4337Z" fill="#E41F30"/>
<path d="M101.873 30.6337L101.373 30.4337C100.873 30.2337 100.473 30.5337 100.473 31.0337V34.6337C100.473 36.8337 101.973 39.2337 103.873 40.0337L104.373 40.2337C104.873 40.4337 105.273 40.1337 105.273 39.6337V36.0337C105.173 33.8337 103.673 31.4337 101.873 30.6337Z" fill="#E41F30"/>
<path d="M109.573 30.4337L109.073 30.6337C107.273 31.4337 105.773 33.8337 105.773 36.0337V39.6337C105.773 40.2337 106.173 40.5337 106.673 40.2337L107.173 40.0337C108.973 39.2337 110.473 36.8337 110.473 34.6337V31.0337C110.473 30.5337 110.073 30.2337 109.573 30.4337Z" fill="#E41F30"/>
<path d="M57.8727 40.6337L57.3727 40.4337C56.8727 40.2337 56.4727 40.5337 56.4727 41.0337V44.6337C56.4727 46.8337 57.9727 49.2337 59.8727 50.0337L60.3727 50.2337C60.8727 50.4337 61.2727 50.1337 61.2727 49.6337V46.0337C61.1727 43.8337 59.6727 41.4337 57.8727 40.6337Z" fill="#E41F30"/>
<path d="M65.5734 40.4337L65.0734 40.6337C63.2734 41.4337 61.7734 43.8337 61.7734 46.0337V49.6337C61.7734 50.2337 62.1734 50.5337 62.6734 50.2337L63.1734 50.0337C64.9734 49.2337 66.4734 46.8337 66.4734 44.6337V41.0337C66.4734 40.5337 66.0734 40.2337 65.5734 40.4337Z" fill="#E41F30"/>
<path d="M101.873 50.6337L101.373 50.4337C100.873 50.2337 100.473 50.5337 100.473 51.0337V54.6337C100.473 56.8337 101.973 59.2337 103.873 60.0337L104.373 60.2337C104.873 60.4337 105.273 60.1337 105.273 59.6337V56.0337C105.173 53.8337 103.673 51.4337 101.873 50.6337Z" fill="#E41F30"/>
<path d="M109.573 50.4337L109.073 50.6337C107.273 51.4337 105.773 53.8337 105.773 56.0337V59.6337C105.773 60.2337 106.173 60.5337 106.673 60.2337L107.173 60.0337C108.973 59.2337 110.473 56.8337 110.473 54.6337V51.0337C110.473 50.5337 110.073 50.2337 109.573 50.4337Z" fill="#E41F30"/>
<path d="M57.8727 50.6337L57.3727 50.4337C56.8727 50.2337 56.4727 50.5337 56.4727 51.0337V54.6337C56.4727 56.8337 57.9727 59.2337 59.8727 60.0337L60.3727 60.2337C60.8727 60.4337 61.2727 60.1337 61.2727 59.6337V56.0337C61.1727 53.8337 59.6727 51.4337 57.8727 50.6337Z" fill="#E41F30"/>
<path d="M65.5734 50.4337L65.0734 50.6337C63.2734 51.4337 61.7734 53.8337 61.7734 56.0337V59.6337C61.7734 60.2337 62.1734 60.5337 62.6734 60.2337L63.1734 60.0337C64.9734 59.2337 66.4734 56.8337 66.4734 54.6337V51.0337C66.4734 50.5337 66.0734 50.2337 65.5734 50.4337Z" fill="#E41F30"/>
<path d="M101.873 60.6337L101.373 60.4337C100.873 60.2337 100.473 60.5337 100.473 61.0337V64.6337C100.473 66.8337 101.973 69.2337 103.873 70.0337L104.373 70.2337C104.873 70.4337 105.273 70.1337 105.273 69.6337V66.0337C105.173 63.8337 103.673 61.4337 101.873 60.6337Z" fill="#E41F30"/>
<path d="M109.573 60.4337L109.073 60.6337C107.273 61.4337 105.773 63.8337 105.773 66.0337V69.6337C105.773 70.2337 106.173 70.5337 106.673 70.2337L107.173 70.0337C108.973 69.2337 110.473 66.8337 110.473 64.6337V61.0337C110.473 60.5337 110.073 60.2337 109.573 60.4337Z" fill="#E41F30"/>
<path d="M57.8727 60.6337L57.3727 60.4337C56.8727 60.2337 56.4727 60.5337 56.4727 61.0337V64.6337C56.4727 66.8337 57.9727 69.2337 59.8727 70.0337L60.3727 70.2337C60.8727 70.4337 61.2727 70.1337 61.2727 69.6337V66.0337C61.1727 63.8337 59.6727 61.4337 57.8727 60.6337Z" fill="#E41F30"/>
<path d="M65.5734 60.4337L65.0734 60.6337C63.2734 61.4337 61.7734 63.8337 61.7734 66.0337V69.6337C61.7734 70.2337 62.1734 70.5337 62.6734 70.2337L63.1734 70.0337C64.9734 69.2337 66.4734 66.8337 66.4734 64.6337V61.0337C66.4734 60.5337 66.0734 60.2337 65.5734 60.4337Z" fill="#E41F30"/>
<path d="M68.8727 0.63374L68.3727 0.43374C67.8727 0.23374 67.4727 0.53374 67.4727 1.03374V4.63374C67.4727 6.83374 68.9727 9.23374 70.8727 10.0337L71.3727 10.2337C71.8727 10.4337 72.2727 10.1337 72.2727 9.63374V6.03374C72.1727 3.83374 70.6727 1.43374 68.8727 0.63374Z" fill="#E41F30"/>
<path d="M76.5734 0.43374L76.0734 0.63374C74.2734 1.43374 72.7734 3.83374 72.7734 6.03374V9.63374C72.7734 10.2337 73.1734 10.5337 73.6734 10.2337L74.1734 10.0337C75.9734 9.23374 77.4734 6.83374 77.4734 4.63374V1.03374C77.4734 0.53374 77.0734 0.23374 76.5734 0.43374Z" fill="#E41F30"/>
<path d="M68.8727 10.6337L68.3727 10.4337C67.8727 10.2337 67.4727 10.5337 67.4727 11.0337V14.6337C67.4727 16.8337 68.9727 19.2337 70.8727 20.0337L71.3727 20.2337C71.8727 20.4337 72.2727 20.1337 72.2727 19.6337V16.0337C72.1727 13.8337 70.6727 11.4337 68.8727 10.6337Z" fill="#E41F30"/>
<path d="M76.5734 10.4337L76.0734 10.6337C74.2734 11.4337 72.7734 13.8337 72.7734 16.0337V19.6337C72.7734 20.2337 73.1734 20.5337 73.6734 20.2337L74.1734 20.0337C75.9734 19.2337 77.4734 16.8337 77.4734 14.6337V11.0337C77.4734 10.5337 77.0734 10.2337 76.5734 10.4337Z" fill="#E41F30"/>
<path d="M68.8727 20.6337L68.3727 20.4337C67.8727 20.2337 67.4727 20.5337 67.4727 21.0337V24.6337C67.4727 26.8337 68.9727 29.2337 70.8727 30.0337L71.3727 30.2337C71.8727 30.4337 72.2727 30.1337 72.2727 29.6337V26.0337C72.1727 23.8337 70.6727 21.4337 68.8727 20.6337Z" fill="#E41F30"/>
<path d="M76.5734 20.4337L76.0734 20.6337C74.2734 21.4337 72.7734 23.8337 72.7734 26.0337V29.6337C72.7734 30.2337 73.1734 30.5337 73.6734 30.2337L74.1734 30.0337C75.9734 29.2337 77.4734 26.8337 77.4734 24.6337V21.0337C77.4734 20.5337 77.0734 20.2337 76.5734 20.4337Z" fill="#E41F30"/>
<path d="M68.8727 30.6337L68.3727 30.4337C67.8727 30.2337 67.4727 30.5337 67.4727 31.0337V34.6337C67.4727 36.8337 68.9727 39.2337 70.8727 40.0337L71.3727 40.2337C71.8727 40.4337 72.2727 40.1337 72.2727 39.6337V36.0337C72.1727 33.8337 70.6727 31.4337 68.8727 30.6337Z" fill="#E41F30"/>
<path d="M76.5734 30.4337L76.0734 30.6337C74.2734 31.4337 72.7734 33.8337 72.7734 36.0337V39.6337C72.7734 40.2337 73.1734 40.5337 73.6734 40.2337L74.1734 40.0337C75.9734 39.2337 77.4734 36.8337 77.4734 34.6337V31.0337C77.4734 30.5337 77.0734 30.2337 76.5734 30.4337Z" fill="#E41F30"/>
<path d="M68.8727 40.6337L68.3727 40.4337C67.8727 40.2337 67.4727 40.5337 67.4727 41.0337V44.6337C67.4727 46.8337 68.9727 49.2337 70.8727 50.0337L71.3727 50.2337C71.8727 50.4337 72.2727 50.1337 72.2727 49.6337V46.0337C72.1727 43.8337 70.6727 41.4337 68.8727 40.6337Z" fill="#E41F30"/>
<path d="M76.5734 40.4337L76.0734 40.6337C74.2734 41.4337 72.7734 43.8337 72.7734 46.0337V49.6337C72.7734 50.2337 73.1734 50.5337 73.6734 50.2337L74.1734 50.0337C75.9734 49.2337 77.4734 46.8337 77.4734 44.6337V41.0337C77.4734 40.5337 77.0734 40.2337 76.5734 40.4337Z" fill="#E41F30"/>
<path d="M112.873 60.6337L112.373 60.4337C111.873 60.2337 111.473 60.5337 111.473 61.0337V64.6337C111.473 66.8337 112.973 69.2337 114.873 70.0337L115.373 70.2337C115.873 70.4337 116.273 70.1337 116.273 69.6337V66.0337C116.173 63.8337 114.673 61.4337 112.873 60.6337Z" fill="#E41F30"/>
<path d="M120.573 60.4337L120.073 60.6337C118.273 61.4337 116.773 63.8337 116.773 66.0337V69.6337C116.773 70.2337 117.173 70.5337 117.673 70.2337L118.173 70.0337C119.973 69.2337 121.473 66.8337 121.473 64.6337V61.0337C121.473 60.5337 121.073 60.2337 120.573 60.4337Z" fill="#E41F30"/>
<path d="M68.8727 60.6337L68.3727 60.4337C67.8727 60.2337 67.4727 60.5337 67.4727 61.0337V64.6337C67.4727 66.8337 68.9727 69.2337 70.8727 70.0337L71.3727 70.2337C71.8727 70.4337 72.2727 70.1337 72.2727 69.6337V66.0337C72.1727 63.8337 70.6727 61.4337 68.8727 60.6337Z" fill="#E41F30"/>
<path d="M76.5734 60.4337L76.0734 60.6337C74.2734 61.4337 72.7734 63.8337 72.7734 66.0337V69.6337C72.7734 70.2337 73.1734 70.5337 73.6734 70.2337L74.1734 70.0337C75.9734 69.2337 77.4734 66.8337 77.4734 64.6337V61.0337C77.4734 60.5337 77.0734 60.2337 76.5734 60.4337Z" fill="#E41F30"/>
<path d="M24.8727 60.6337L24.3727 60.4337C23.8727 60.2337 23.4727 60.5337 23.4727 61.0337V64.6337C23.4727 66.8337 24.9727 69.2337 26.8727 70.0337L27.3727 70.2337C27.8727 70.4337 28.2727 70.1337 28.2727 69.6337V66.0337C28.1727 63.8337 26.6727 61.4337 24.8727 60.6337Z" fill="#E41F30"/>
<path d="M32.5734 60.4337L32.0734 60.6337C30.2734 61.4337 28.7734 63.8337 28.7734 66.0337V69.6337C28.7734 70.2337 29.1734 70.5337 29.6734 70.2337L30.1734 70.0337C31.9734 69.2337 33.4734 66.8337 33.4734 64.6337V61.0337C33.4734 60.5337 33.0734 60.2337 32.5734 60.4337Z" fill="#E41F30"/>
<path d="M68.8727 70.6338L68.3727 70.4338C67.8727 70.2338 67.4727 70.5338 67.4727 71.0338V74.6338C67.4727 76.8338 68.9727 79.2338 70.8727 80.0338L71.3727 80.2338C71.8727 80.4338 72.2727 80.1338 72.2727 79.6338V76.0338C72.1727 73.8338 70.6727 71.4338 68.8727 70.6338Z" fill="#E41F30"/>
<path d="M76.5734 70.4338L76.0734 70.6338C74.2734 71.4338 72.7734 73.8338 72.7734 76.0338V79.6338C72.7734 80.2338 73.1734 80.5338 73.6734 80.2338L74.1734 80.0338C75.9734 79.2338 77.4734 76.8338 77.4734 74.6338V71.0338C77.4734 70.5338 77.0734 70.2338 76.5734 70.4338Z" fill="#E41F30"/>
<path d="M79.8727 80.6337L79.3727 80.4337C78.8727 80.2337 78.4727 80.5337 78.4727 81.0337V84.6337C78.4727 86.8337 79.9727 89.2337 81.8727 90.0337L82.3727 90.2337C82.8727 90.4337 83.2727 90.1337 83.2727 89.6337V86.0337C83.1727 83.8337 81.6727 81.4337 79.8727 80.6337Z" fill="#E41F30"/>
<path d="M87.5734 80.4337L87.0734 80.6337C85.2734 81.4337 83.7734 83.8337 83.7734 86.0337V89.6337C83.7734 90.2337 84.1734 90.5337 84.6734 90.2337L85.1734 90.0337C86.9734 89.2337 88.4734 86.8337 88.4734 84.6337V81.0337C88.4734 80.5337 88.0734 80.2337 87.5734 80.4337Z" fill="#E41F30"/>
<path d="M35.8727 80.6337L35.3727 80.4337C34.8727 80.2337 34.4727 80.5337 34.4727 81.0337V84.6337C34.4727 86.8337 35.9727 89.2337 37.8727 90.0337L38.3727 90.2337C38.8727 90.4337 39.2727 90.1337 39.2727 89.6337V86.0337C39.1727 83.8337 37.6727 81.4337 35.8727 80.6337Z" fill="#E41F30"/>
<path d="M43.5734 80.4337L43.0734 80.6337C41.2734 81.4337 39.7734 83.8337 39.7734 86.0337V89.6337C39.7734 90.2337 40.1734 90.5337 40.6734 90.2337L41.1734 90.0337C42.9734 89.2337 44.4734 86.8337 44.4734 84.6337V81.0337C44.4734 80.5337 44.0734 80.2337 43.5734 80.4337Z" fill="#E41F30"/>
<path d="M79.8727 90.6337L79.3727 90.4337C78.8727 90.2337 78.4727 90.5337 78.4727 91.0337V94.6337C78.4727 96.8337 79.9727 99.2337 81.8727 100.034L82.3727 100.234C82.8727 100.434 83.2727 100.134 83.2727 99.6337V96.0337C83.1727 93.8337 81.6727 91.4337 79.8727 90.6337Z" fill="#E41F30"/>
<path d="M87.5734 90.4337L87.0734 90.6337C85.2734 91.4337 83.7734 93.8337 83.7734 96.0337V99.6337C83.7734 100.234 84.1734 100.534 84.6734 100.234L85.1734 100.034C86.9734 99.2337 88.4734 96.8337 88.4734 94.6337V91.0337C88.4734 90.5337 88.0734 90.2337 87.5734 90.4337Z" fill="#E41F30"/>
<path d="M35.8727 90.6337L35.3727 90.4337C34.8727 90.2337 34.4727 90.5337 34.4727 91.0337V94.6337C34.4727 96.8337 35.9727 99.2337 37.8727 100.034L38.3727 100.234C38.8727 100.434 39.2727 100.134 39.2727 99.6337V96.0337C39.1727 93.8337 37.6727 91.4337 35.8727 90.6337Z" fill="#E41F30"/>
<path d="M43.5734 90.4337L43.0734 90.6337C41.2734 91.4337 39.7734 93.8337 39.7734 96.0337V99.6337C39.7734 100.234 40.1734 100.534 40.6734 100.234L41.1734 100.034C42.9734 99.2337 44.4734 96.8337 44.4734 94.6337V91.0337C44.4734 90.5337 44.0734 90.2337 43.5734 90.4337Z" fill="#E41F30"/>
<path d="M35.8727 100.634L35.3727 100.434C34.8727 100.234 34.4727 100.534 34.4727 101.034V104.634C34.4727 106.834 35.9727 109.234 37.8727 110.034L38.3727 110.234C38.8727 110.434 39.2727 110.134 39.2727 109.634V106.034C39.1727 103.834 37.6727 101.434 35.8727 100.634Z" fill="#E41F30"/>
<path d="M43.5734 100.434L43.0734 100.634C41.2734 101.434 39.7734 103.834 39.7734 106.034V109.634C39.7734 110.234 40.1734 110.534 40.6734 110.234L41.1734 110.034C42.9734 109.234 44.4734 106.834 44.4734 104.634V101.034C44.4734 100.534 44.0734 100.234 43.5734 100.434Z" fill="#E41F30"/>
<path d="M90.8727 90.6337L90.3727 90.4337C89.8727 90.2337 89.4727 90.5337 89.4727 91.0337V94.6337C89.4727 96.8337 90.9727 99.2337 92.8727 100.034L93.3727 100.234C93.8727 100.434 94.2727 100.134 94.2727 99.6337V96.0337C94.1727 93.8337 92.6727 91.4337 90.8727 90.6337Z" fill="#E41F30"/>
<path d="M98.5734 90.4337L98.0734 90.6337C96.2734 91.4337 94.7734 93.8337 94.7734 96.0337V99.6337C94.7734 100.234 95.1734 100.534 95.6734 100.234L96.1734 100.034C97.9734 99.2337 99.4734 96.8337 99.4734 94.6337V91.0337C99.4734 90.5337 99.0734 90.2337 98.5734 90.4337Z" fill="#E41F30"/>
<path d="M46.8727 90.6337L46.3727 90.4337C45.8727 90.2337 45.4727 90.5337 45.4727 91.0337V94.6337C45.4727 96.8337 46.9727 99.2337 48.8727 100.034L49.3727 100.234C49.8727 100.434 50.2727 100.134 50.2727 99.6337V96.0337C50.1727 93.8337 48.6727 91.4337 46.8727 90.6337Z" fill="#E41F30"/>
<path d="M54.5734 90.4337L54.0734 90.6337C52.2734 91.4337 50.7734 93.8337 50.7734 96.0337V99.6337C50.7734 100.234 51.1734 100.534 51.6734 100.234L52.1734 100.034C53.9734 99.2337 55.4734 96.8337 55.4734 94.6337V91.0337C55.4734 90.5337 55.0734 90.2337 54.5734 90.4337Z" fill="#E41F30"/>
<path d="M101.873 80.6337L101.373 80.4337C100.873 80.2337 100.473 80.5337 100.473 81.0337V84.6337C100.473 86.8337 101.973 89.2337 103.873 90.0337L104.373 90.2337C104.873 90.4337 105.273 90.1337 105.273 89.6337V86.0337C105.173 83.8337 103.673 81.4337 101.873 80.6337Z" fill="#E41F30"/>
<path d="M109.573 80.4337L109.073 80.6337C107.273 81.4337 105.773 83.8337 105.773 86.0337V89.6337C105.773 90.2337 106.173 90.5337 106.673 90.2337L107.173 90.0337C108.973 89.2337 110.473 86.8337 110.473 84.6337V81.0337C110.473 80.5337 110.073 80.2337 109.573 80.4337Z" fill="#E41F30"/>
<path d="M57.8727 80.6337L57.3727 80.4337C56.8727 80.2337 56.4727 80.5337 56.4727 81.0337V84.6337C56.4727 86.8337 57.9727 89.2337 59.8727 90.0337L60.3727 90.2337C60.8727 90.4337 61.2727 90.1337 61.2727 89.6337V86.0337C61.1727 83.8337 59.6727 81.4337 57.8727 80.6337Z" fill="#E41F30"/>
<path d="M65.5734 80.4337L65.0734 80.6337C63.2734 81.4337 61.7734 83.8337 61.7734 86.0337V89.6337C61.7734 90.2337 62.1734 90.5337 62.6734 90.2337L63.1734 90.0337C64.9734 89.2337 66.4734 86.8337 66.4734 84.6337V81.0337C66.4734 80.5337 66.0734 80.2337 65.5734 80.4337Z" fill="#E41F30"/>
<path d="M101.873 90.6337L101.373 90.4337C100.873 90.2337 100.473 90.5337 100.473 91.0337V94.6337C100.473 96.8337 101.973 99.2337 103.873 100.034L104.373 100.234C104.873 100.434 105.273 100.134 105.273 99.6337V96.0337C105.173 93.8337 103.673 91.4337 101.873 90.6337Z" fill="#E41F30"/>
<path d="M109.573 90.4337L109.073 90.6337C107.273 91.4337 105.773 93.8337 105.773 96.0337V99.6337C105.773 100.234 106.173 100.534 106.673 100.234L107.173 100.034C108.973 99.2337 110.473 96.8337 110.473 94.6337V91.0337C110.473 90.5337 110.073 90.2337 109.573 90.4337Z" fill="#E41F30"/>
<path d="M57.8727 90.6337L57.3727 90.4337C56.8727 90.2337 56.4727 90.5337 56.4727 91.0337V94.6337C56.4727 96.8337 57.9727 99.2337 59.8727 100.034L60.3727 100.234C60.8727 100.434 61.2727 100.134 61.2727 99.6337V96.0337C61.1727 93.8337 59.6727 91.4337 57.8727 90.6337Z" fill="#E41F30"/>
<path d="M65.5734 90.4337L65.0734 90.6337C63.2734 91.4337 61.7734 93.8337 61.7734 96.0337V99.6337C61.7734 100.234 62.1734 100.534 62.6734 100.234L63.1734 100.034C64.9734 99.2337 66.4734 96.8337 66.4734 94.6337V91.0337C66.4734 90.5337 66.0734 90.2337 65.5734 90.4337Z" fill="#E41F30"/>
<path d="M101.873 100.634L101.373 100.434C100.873 100.234 100.473 100.534 100.473 101.034V104.634C100.473 106.834 101.973 109.234 103.873 110.034L104.373 110.234C104.873 110.434 105.273 110.134 105.273 109.634V106.034C105.173 103.834 103.673 101.434 101.873 100.634Z" fill="#E41F30"/>
<path d="M109.573 100.434L109.073 100.634C107.273 101.434 105.773 103.834 105.773 106.034V109.634C105.773 110.234 106.173 110.534 106.673 110.234L107.173 110.034C108.973 109.234 110.473 106.834 110.473 104.634V101.034C110.473 100.534 110.073 100.234 109.573 100.434Z" fill="#E41F30"/>
<path d="M123.873 100.634L123.373 100.434C122.873 100.234 122.473 100.534 122.473 101.034V104.634C122.473 106.834 123.973 109.234 125.873 110.034L126.373 110.234C126.873 110.434 127.273 110.134 127.273 109.634V106.034C127.173 103.834 125.673 101.434 123.873 100.634Z" fill="#E41F30"/>
<path d="M131.573 100.434L131.073 100.634C129.273 101.434 127.773 103.834 127.773 106.034V109.634C127.773 110.234 128.173 110.534 128.673 110.234L129.173 110.034C130.973 109.234 132.473 106.834 132.473 104.634V101.034C132.473 100.534 132.073 100.234 131.573 100.434Z" fill="#E41F30"/>
<path d="M13.8727 100.634L13.3727 100.434C12.8727 100.234 12.4727 100.534 12.4727 101.034V104.634C12.4727 106.834 13.9727 109.234 15.8727 110.034L16.3727 110.234C16.8727 110.434 17.2727 110.134 17.2727 109.634V106.034C17.1727 103.834 15.6727 101.434 13.8727 100.634Z" fill="#E41F30"/>
<path d="M21.5734 100.434L21.0734 100.634C19.2734 101.434 17.7734 103.834 17.7734 106.034V109.634C17.7734 110.234 18.1734 110.534 18.6734 110.234L19.1734 110.034C20.9734 109.234 22.4734 106.834 22.4734 104.634V101.034C22.4734 100.534 22.0734 100.234 21.5734 100.434Z" fill="#E41F30"/>
<path d="M112.873 90.6337L112.373 90.4337C111.873 90.2337 111.473 90.5337 111.473 91.0337V94.6337C111.473 96.8337 112.973 99.2337 114.873 100.034L115.373 100.234C115.873 100.434 116.273 100.134 116.273 99.6337V96.0337C116.173 93.8337 114.673 91.4337 112.873 90.6337Z" fill="#E41F30"/>
<path d="M120.573 90.4337L120.073 90.6337C118.273 91.4337 116.773 93.8337 116.773 96.0337V99.6337C116.773 100.234 117.173 100.534 117.673 100.234L118.173 100.034C119.973 99.2337 121.473 96.8337 121.473 94.6337V91.0337C121.473 90.5337 121.073 90.2337 120.573 90.4337Z" fill="#E41F30"/>
<path d="M68.8727 90.6337L68.3727 90.4337C67.8727 90.2337 67.4727 90.5337 67.4727 91.0337V94.6337C67.4727 96.8337 68.9727 99.2337 70.8727 100.034L71.3727 100.234C71.8727 100.434 72.2727 100.134 72.2727 99.6337V96.0337C72.1727 93.8337 70.6727 91.4337 68.8727 90.6337Z" fill="#E41F30"/>
<path d="M76.5734 90.4337L76.0734 90.6337C74.2734 91.4337 72.7734 93.8337 72.7734 96.0337V99.6337C72.7734 100.234 73.1734 100.534 73.6734 100.234L74.1734 100.034C75.9734 99.2337 77.4734 96.8337 77.4734 94.6337V91.0337C77.4734 90.5337 77.0734 90.2337 76.5734 90.4337Z" fill="#E41F30"/>
<path d="M24.8727 90.6337L24.3727 90.4337C23.8727 90.2337 23.4727 90.5337 23.4727 91.0337V94.6337C23.4727 96.8337 24.9727 99.2337 26.8727 100.034L27.3727 100.234C27.8727 100.434 28.2727 100.134 28.2727 99.6337V96.0337C28.1727 93.8337 26.6727 91.4337 24.8727 90.6337Z" fill="#E41F30"/>
<path d="M32.5734 90.4337L32.0734 90.6337C30.2734 91.4337 28.7734 93.8337 28.7734 96.0337V99.6337C28.7734 100.234 29.1734 100.534 29.6734 100.234L30.1734 100.034C31.9734 99.2337 33.4734 96.8337 33.4734 94.6337V91.0337C33.4734 90.5337 33.0734 90.2337 32.5734 90.4337Z" fill="#E41F30"/>
<path d="M112.873 100.634L112.373 100.434C111.873 100.234 111.473 100.534 111.473 101.034V104.634C111.473 106.834 112.973 109.234 114.873 110.034L115.373 110.234C115.873 110.434 116.273 110.134 116.273 109.634V106.034C116.173 103.834 114.673 101.434 112.873 100.634Z" fill="#E41F30"/>
<path d="M120.573 100.434L120.073 100.634C118.273 101.434 116.773 103.834 116.773 106.034V109.634C116.773 110.234 117.173 110.534 117.673 110.234L118.173 110.034C119.973 109.234 121.473 106.834 121.473 104.634V101.034C121.473 100.534 121.073 100.234 120.573 100.434Z" fill="#E41F30"/>
<path d="M68.8727 100.634L68.3727 100.434C67.8727 100.234 67.4727 100.534 67.4727 101.034V104.634C67.4727 106.834 68.9727 109.234 70.8727 110.034L71.3727 110.234C71.8727 110.434 72.2727 110.134 72.2727 109.634V106.034C72.1727 103.834 70.6727 101.434 68.8727 100.634Z" fill="#E41F30"/>
<path d="M76.5734 100.434L76.0734 100.634C74.2734 101.434 72.7734 103.834 72.7734 106.034V109.634C72.7734 110.234 73.1734 110.534 73.6734 110.234L74.1734 110.034C75.9734 109.234 77.4734 106.834 77.4734 104.634V101.034C77.4734 100.534 77.0734 100.234 76.5734 100.434Z" fill="#E41F30"/>
<path d="M24.8727 100.634L24.3727 100.434C23.8727 100.234 23.4727 100.534 23.4727 101.034V104.634C23.4727 106.834 24.9727 109.234 26.8727 110.034L27.3727 110.234C27.8727 110.434 28.2727 110.134 28.2727 109.634V106.034C28.1727 103.834 26.6727 101.434 24.8727 100.634Z" fill="#E41F30"/>
<path d="M32.5734 100.434L32.0734 100.634C30.2734 101.434 28.7734 103.834 28.7734 106.034V109.634C28.7734 110.234 29.1734 110.534 29.6734 110.234L30.1734 110.034C31.9734 109.234 33.4734 106.834 33.4734 104.634V101.034C33.4734 100.534 33.0734 100.234 32.5734 100.434Z" fill="#E41F30"/>
<path d="M68.8727 110.634L68.3727 110.434C67.8727 110.234 67.4727 110.534 67.4727 111.034V114.634C67.4727 116.834 68.9727 119.234 70.8727 120.034L71.3727 120.234C71.8727 120.434 72.2727 120.134 72.2727 119.634V116.034C72.1727 113.834 70.6727 111.434 68.8727 110.634Z" fill="#E41F30"/>
<path d="M76.5734 110.434L76.0734 110.634C74.2734 111.434 72.7734 113.834 72.7734 116.034V119.634C72.7734 120.234 73.1734 120.534 73.6734 120.234L74.1734 120.034C75.9734 119.234 77.4734 116.834 77.4734 114.634V111.034C77.4734 110.534 77.0734 110.234 76.5734 110.434Z" fill="#E41F30"/>
<path d="M68.8727 120.634L68.3727 120.434C67.8727 120.234 67.4727 120.534 67.4727 121.034V124.634C67.4727 126.834 68.9727 129.234 70.8727 130.034L71.3727 130.234C71.8727 130.434 72.2727 130.134 72.2727 129.634V126.034C72.1727 123.834 70.6727 121.434 68.8727 120.634Z" fill="#E41F30"/>
<path d="M76.5734 120.434L76.0734 120.634C74.2734 121.434 72.7734 123.834 72.7734 126.034V129.634C72.7734 130.234 73.1734 130.534 73.6734 130.234L74.1734 130.034C75.9734 129.234 77.4734 126.834 77.4734 124.634V121.034C77.4734 120.534 77.0734 120.234 76.5734 120.434Z" fill="#E41F30"/>
</svg>
