<svg width="144" height="131" viewBox="0 0 144 131" fill="none" xmlns="http://www.w3.org/2000/svg">
<path d="M79.8727 0.63374L79.3727 0.43374C78.8727 0.23374 78.4727 0.53374 78.4727 1.03374V4.63374C78.4727 6.83374 79.9727 9.23374 81.8727 10.0337L82.3727 10.2337C82.8727 10.4337 83.2727 10.1337 83.2727 9.63374V6.03374C83.1727 3.83374 81.6727 1.43374 79.8727 0.63374Z" fill="#E41F30"/>
<path d="M87.5734 0.43374L87.0734 0.63374C85.2734 1.43374 83.7734 3.83374 83.7734 6.03374V9.63374C83.7734 10.2337 84.1734 10.5337 84.6734 10.2337L85.1734 10.0337C86.9734 9.23374 88.4734 6.83374 88.4734 4.63374V1.03374C88.4734 0.53374 88.0734 0.23374 87.5734 0.43374Z" fill="#E41F30"/>
<path d="M79.8727 30.6337L79.3727 30.4337C78.8727 30.2337 78.4727 30.5337 78.4727 31.0337V34.6337C78.4727 36.8337 79.9727 39.2337 81.8727 40.0337L82.3727 40.2337C82.8727 40.4337 83.2727 40.1337 83.2727 39.6337V36.0337C83.1727 33.8337 81.6727 31.4337 79.8727 30.6337Z" fill="#E41F30"/>
<path d="M87.5734 30.4337L87.0734 30.6337C85.2734 31.4337 83.7734 33.8337 83.7734 36.0337V39.6337C83.7734 40.2337 84.1734 40.5337 84.6734 40.2337L85.1734 40.0337C86.9734 39.2337 88.4734 36.8337 88.4734 34.6337V31.0337C88.4734 30.5337 88.0734 30.2337 87.5734 30.4337Z" fill="#E41F30"/>
<path d="M79.8727 50.6337L79.3727 50.4337C78.8727 50.2337 78.4727 50.5337 78.4727 51.0337V54.6337C78.4727 56.8337 79.9727 59.2337 81.8727 60.0337L82.3727 60.2337C82.8727 60.4337 83.2727 60.1337 83.2727 59.6337V56.0337C83.1727 53.8337 81.6727 51.4337 79.8727 50.6337Z" fill="#E41F30"/>
<path d="M87.5734 50.4337L87.0734 50.6337C85.2734 51.4337 83.7734 53.8337 83.7734 56.0337V59.6337C83.7734 60.2337 84.1734 60.5337 84.6734 60.2337L85.1734 60.0337C86.9734 59.2337 88.4734 56.8337 88.4734 54.6337V51.0337C88.4734 50.5337 88.0734 50.2337 87.5734 50.4337Z" fill="#E41F30"/>
<path d="M79.8727 60.6337L79.3727 60.4337C78.8727 60.2337 78.4727 60.5337 78.4727 61.0337V64.6337C78.4727 66.8337 79.9727 69.2337 81.8727 70.0337L82.3727 70.2337C82.8727 70.4337 83.2727 70.1337 83.2727 69.6337V66.0337C83.1727 63.8337 81.6727 61.4337 79.8727 60.6337Z" fill="#E41F30"/>
<path d="M87.5734 60.4337L87.0734 60.6337C85.2734 61.4337 83.7734 63.8337 83.7734 66.0337V69.6337C83.7734 70.2337 84.1734 70.5337 84.6734 70.2337L85.1734 70.0337C86.9734 69.2337 88.4734 66.8337 88.4734 64.6337V61.0337C88.4734 60.5337 88.0734 60.2337 87.5734 60.4337Z" fill="#E41F30"/>
<path d="M35.8727 60.6337L35.3727 60.4337C34.8727 60.2337 34.4727 60.5337 34.4727 61.0337V64.6337C34.4727 66.8337 35.9727 69.2337 37.8727 70.0337L38.3727 70.2337C38.8727 70.4337 39.2727 70.1337 39.2727 69.6337V66.0337C39.1727 63.8337 37.6727 61.4337 35.8727 60.6337Z" fill="#E41F30"/>
<path d="M43.5734 60.4337L43.0734 60.6337C41.2734 61.4337 39.7734 63.8337 39.7734 66.0337V69.6337C39.7734 70.2337 40.1734 70.5337 40.6734 70.2337L41.1734 70.0337C42.9734 69.2337 44.4734 66.8337 44.4734 64.6337V61.0337C44.4734 60.5337 44.0734 60.2337 43.5734 60.4337Z" fill="#E41F30"/>
<path d="M79.8727 70.6337L79.3727 70.4337C78.8727 70.2337 78.4727 70.5337 78.4727 71.0337V74.6337C78.4727 76.8337 79.9727 79.2337 81.8727 80.0337L82.3727 80.2337C82.8727 80.4337 83.2727 80.1337 83.2727 79.6337V76.0337C83.1727 73.8337 81.6727 71.4337 79.8727 70.6337Z" fill="#E41F30"/>
<path d="M87.5734 70.4337L87.0734 70.6337C85.2734 71.4337 83.7734 73.8337 83.7734 76.0337V79.6337C83.7734 80.2337 84.1734 80.5337 84.6734 80.2337L85.1734 80.0337C86.9734 79.2337 88.4734 76.8337 88.4734 74.6337V71.0337C88.4734 70.5337 88.0734 70.2337 87.5734 70.4337Z" fill="#E41F30"/>
<path d="M35.8727 70.6337L35.3727 70.4337C34.8727 70.2337 34.4727 70.5337 34.4727 71.0337V74.6337C34.4727 76.8337 35.9727 79.2337 37.8727 80.0337L38.3727 80.2337C38.8727 80.4337 39.2727 80.1337 39.2727 79.6337V76.0337C39.1727 73.8337 37.6727 71.4337 35.8727 70.6337Z" fill="#E41F30"/>
<path d="M43.5734 70.4337L43.0734 70.6337C41.2734 71.4337 39.7734 73.8337 39.7734 76.0337V79.6337C39.7734 80.2337 40.1734 80.5337 40.6734 80.2337L41.1734 80.0337C42.9734 79.2337 44.4734 76.8337 44.4734 74.6337V71.0337C44.4734 70.5337 44.0734 70.2337 43.5734 70.4337Z" fill="#E41F30"/>
<path d="M90.8727 20.6337L90.3727 20.4337C89.8727 20.2337 89.4727 20.5337 89.4727 21.0337V24.6337C89.4727 26.8337 90.9727 29.2337 92.8727 30.0337L93.3727 30.2337C93.8727 30.4337 94.2727 30.1337 94.2727 29.6337V26.0337C94.1727 23.8337 92.6727 21.4337 90.8727 20.6337Z" fill="#E41F30"/>
<path d="M98.5734 20.4337L98.0734 20.6337C96.2734 21.4337 94.7734 23.8337 94.7734 26.0337V29.6337C94.7734 30.2337 95.1734 30.5337 95.6734 30.2337L96.1734 30.0337C97.9734 29.2337 99.4734 26.8337 99.4734 24.6337V21.0337C99.4734 20.5337 99.0734 20.2337 98.5734 20.4337Z" fill="#E41F30"/>
<path d="M90.8727 30.6337L90.3727 30.4337C89.8727 30.2337 89.4727 30.5337 89.4727 31.0337V34.6337C89.4727 36.8337 90.9727 39.2337 92.8727 40.0337L93.3727 40.2337C93.8727 40.4337 94.2727 40.1337 94.2727 39.6337V36.0337C94.1727 33.8337 92.6727 31.4337 90.8727 30.6337Z" fill="#E41F30"/>
<path d="M98.5734 30.4337L98.0734 30.6337C96.2734 31.4337 94.7734 33.8337 94.7734 36.0337V39.6337C94.7734 40.2337 95.1734 40.5337 95.6734 40.2337L96.1734 40.0337C97.9734 39.2337 99.4734 36.8337 99.4734 34.6337V31.0337C99.4734 30.5337 99.0734 30.2337 98.5734 30.4337Z" fill="#E41F30"/>
<path d="M90.8727 40.6337L90.3727 40.4337C89.8727 40.2337 89.4727 40.5337 89.4727 41.0337V44.6337C89.4727 46.8337 90.9727 49.2337 92.8727 50.0337L93.3727 50.2337C93.8727 50.4337 94.2727 50.1337 94.2727 49.6337V46.0337C94.1727 43.8337 92.6727 41.4337 90.8727 40.6337Z" fill="#E41F30"/>
<path d="M98.5734 40.4337L98.0734 40.6337C96.2734 41.4337 94.7734 43.8337 94.7734 46.0337V49.6337C94.7734 50.2337 95.1734 50.5337 95.6734 50.2337L96.1734 50.0337C97.9734 49.2337 99.4734 46.8337 99.4734 44.6337V41.0337C99.4734 40.5337 99.0734 40.2337 98.5734 40.4337Z" fill="#E41F30"/>
<path d="M90.8727 50.6337L90.3727 50.4337C89.8727 50.2337 89.4727 50.5337 89.4727 51.0337V54.6337C89.4727 56.8337 90.9727 59.2337 92.8727 60.0337L93.3727 60.2337C93.8727 60.4337 94.2727 60.1337 94.2727 59.6337V56.0337C94.1727 53.8337 92.6727 51.4337 90.8727 50.6337Z" fill="#E41F30"/>
<path d="M98.5734 50.4337L98.0734 50.6337C96.2734 51.4337 94.7734 53.8337 94.7734 56.0337V59.6337C94.7734 60.2337 95.1734 60.5337 95.6734 60.2337L96.1734 60.0337C97.9734 59.2337 99.4734 56.8337 99.4734 54.6337V51.0337C99.4734 50.5337 99.0734 50.2337 98.5734 50.4337Z" fill="#E41F30"/>
<path d="M90.8727 60.6337L90.3727 60.4337C89.8727 60.2337 89.4727 60.5337 89.4727 61.0337V64.6337C89.4727 66.8337 90.9727 69.2337 92.8727 70.0337L93.3727 70.2337C93.8727 70.4337 94.2727 70.1337 94.2727 69.6337V66.0337C94.1727 63.8337 92.6727 61.4337 90.8727 60.6337Z" fill="#E41F30"/>
<path d="M98.5734 60.4337L98.0734 60.6337C96.2734 61.4337 94.7734 63.8337 94.7734 66.0337V69.6337C94.7734 70.2337 95.1734 70.5337 95.6734 70.2337L96.1734 70.0337C97.9734 69.2337 99.4734 66.8337 99.4734 64.6337V61.0337C99.4734 60.5337 99.0734 60.2337 98.5734 60.4337Z" fill="#E41F30"/>
<path d="M46.8727 60.6337L46.3727 60.4337C45.8727 60.2337 45.4727 60.5337 45.4727 61.0337V64.6337C45.4727 66.8337 46.9727 69.2337 48.8727 70.0337L49.3727 70.2337C49.8727 70.4337 50.2727 70.1337 50.2727 69.6337V66.0337C50.1727 63.8337 48.6727 61.4337 46.8727 60.6337Z" fill="#E41F30"/>
<path d="M54.5734 60.4337L54.0734 60.6337C52.2734 61.4337 50.7734 63.8337 50.7734 66.0337V69.6337C50.7734 70.2337 51.1734 70.5337 51.6734 70.2337L52.1734 70.0337C53.9734 69.2337 55.4734 66.8337 55.4734 64.6337V61.0337C55.4734 60.5337 55.0734 60.2337 54.5734 60.4337Z" fill="#E41F30"/>
<path d="M90.8727 70.6337L90.3727 70.4337C89.8727 70.2337 89.4727 70.5337 89.4727 71.0337V74.6337C89.4727 76.8337 90.9727 79.2337 92.8727 80.0337L93.3727 80.2337C93.8727 80.4337 94.2727 80.1337 94.2727 79.6337V76.0337C94.1727 73.8337 92.6727 71.4337 90.8727 70.6337Z" fill="#E41F30"/>
<path d="M98.5734 70.4337L98.0734 70.6337C96.2734 71.4337 94.7734 73.8337 94.7734 76.0337V79.6337C94.7734 80.2337 95.1734 80.5337 95.6734 80.2337L96.1734 80.0337C97.9734 79.2337 99.4734 76.8337 99.4734 74.6337V71.0337C99.4734 70.5337 99.0734 70.2337 98.5734 70.4337Z" fill="#E41F30"/>
<path d="M46.8727 70.6337L46.3727 70.4337C45.8727 70.2337 45.4727 70.5337 45.4727 71.0337V74.6337C45.4727 76.8337 46.9727 79.2337 48.8727 80.0337L49.3727 80.2337C49.8727 80.4337 50.2727 80.1337 50.2727 79.6337V76.0337C50.1727 73.8337 48.6727 71.4337 46.8727 70.6337Z" fill="#E41F30"/>
<path d="M54.5734 70.4337L54.0734 70.6337C52.2734 71.4337 50.7734 73.8337 50.7734 76.0337V79.6337C50.7734 80.2337 51.1734 80.5337 51.6734 80.2337L52.1734 80.0337C53.9734 79.2337 55.4734 76.8337 55.4734 74.6337V71.0337C55.4734 70.5337 55.0734 70.2337 54.5734 70.4337Z" fill="#E41F30"/>
<path d="M57.8727 0.63374L57.3727 0.43374C56.8727 0.23374 56.4727 0.53374 56.4727 1.03374V4.63374C56.4727 6.83374 57.9727 9.23374 59.8727 10.0337L60.3727 10.2337C60.8727 10.4337 61.2727 10.1337 61.2727 9.63374V6.03374C61.1727 3.83374 59.6727 1.43374 57.8727 0.63374Z" fill="#E41F30"/>
<path d="M65.5734 0.43374L65.0734 0.63374C63.2734 1.43374 61.7734 3.83374 61.7734 6.03374V9.63374C61.7734 10.2337 62.1734 10.5337 62.6734 10.2337L63.1734 10.0337C64.9734 9.23374 66.4734 6.83374 66.4734 4.63374V1.03374C66.4734 0.53374 66.0734 0.23374 65.5734 0.43374Z" fill="#E41F30"/>
<path d="M101.873 10.6337L101.373 10.4337C100.873 10.2337 100.473 10.5337 100.473 11.0337V14.6337C100.473 16.8337 101.973 19.2337 103.873 20.0337L104.373 20.2337C104.873 20.4337 105.273 20.1337 105.273 19.6337V16.0337C105.173 13.8337 103.673 11.4337 101.873 10.6337Z" fill="#E41F30"/>
<path d="M109.573 10.4337L109.073 10.6337C107.273 11.4337 105.773 13.8337 105.773 16.0337V19.6337C105.773 20.2337 106.173 20.5337 106.673 20.2337L107.173 20.0337C108.973 19.2337 110.473 16.8337 110.473 14.6337V11.0337C110.473 10.5337 110.073 10.2337 109.573 10.4337Z" fill="#E41F30"/>
<path d="M101.873 30.6337L101.373 30.4337C100.873 30.2337 100.473 30.5337 100.473 31.0337V34.6337C100.473 36.8337 101.973 39.2337 103.873 40.0337L104.373 40.2337C104.873 40.4337 105.273 40.1337 105.273 39.6337V36.0337C105.173 33.8337 103.673 31.4337 101.873 30.6337Z" fill="#E41F30"/>
<path d="M109.573 30.4337L109.073 30.6337C107.273 31.4337 105.773 33.8337 105.773 36.0337V39.6337C105.773 40.2337 106.173 40.5337 106.673 40.2337L107.173 40.0337C108.973 39.2337 110.473 36.8337 110.473 34.6337V31.0337C110.473 30.5337 110.073 30.2337 109.573 30.4337Z" fill="#E41F30"/>
<path d="M101.873 40.6337L101.373 40.4337C100.873 40.2337 100.473 40.5337 100.473 41.0337V44.6337C100.473 46.8337 101.973 49.2337 103.873 50.0337L104.373 50.2337C104.873 50.4337 105.273 50.1337 105.273 49.6337V46.0337C105.173 43.8337 103.673 41.4337 101.873 40.6337Z" fill="#E41F30"/>
<path d="M109.573 40.4337L109.073 40.6337C107.273 41.4337 105.773 43.8337 105.773 46.0337V49.6337C105.773 50.2337 106.173 50.5337 106.673 50.2337L107.173 50.0337C108.973 49.2337 110.473 46.8337 110.473 44.6337V41.0337C110.473 40.5337 110.073 40.2337 109.573 40.4337Z" fill="#E41F30"/>
<path d="M13.8727 40.6337L13.3727 40.4337C12.8727 40.2337 12.4727 40.5337 12.4727 41.0337V44.6337C12.4727 46.8337 13.9727 49.2337 15.8727 50.0337L16.3727 50.2337C16.8727 50.4337 17.2727 50.1337 17.2727 49.6337V46.0337C17.1727 43.8337 15.6727 41.4337 13.8727 40.6337Z" fill="#E41F30"/>
<path d="M21.5734 40.4337L21.0734 40.6337C19.2734 41.4337 17.7734 43.8337 17.7734 46.0337V49.6337C17.7734 50.2337 18.1734 50.5337 18.6734 50.2337L19.1734 50.0337C20.9734 49.2337 22.4734 46.8337 22.4734 44.6337V41.0337C22.4734 40.5337 22.0734 40.2337 21.5734 40.4337Z" fill="#E41F30"/>
<path d="M13.8727 50.6337L13.3727 50.4337C12.8727 50.2337 12.4727 50.5337 12.4727 51.0337V54.6337C12.4727 56.8337 13.9727 59.2337 15.8727 60.0337L16.3727 60.2337C16.8727 60.4337 17.2727 60.1337 17.2727 59.6337V56.0337C17.1727 53.8337 15.6727 51.4337 13.8727 50.6337Z" fill="#E41F30"/>
<path d="M21.5734 50.4337L21.0734 50.6337C19.2734 51.4337 17.7734 53.8337 17.7734 56.0337V59.6337C17.7734 60.2337 18.1734 60.5337 18.6734 60.2337L19.1734 60.0337C20.9734 59.2337 22.4734 56.8337 22.4734 54.6337V51.0337C22.4734 50.5337 22.0734 50.2337 21.5734 50.4337Z" fill="#E41F30"/>
<path d="M57.8727 60.6337L57.3727 60.4337C56.8727 60.2337 56.4727 60.5337 56.4727 61.0337V64.6337C56.4727 66.8337 57.9727 69.2337 59.8727 70.0337L60.3727 70.2337C60.8727 70.4337 61.2727 70.1337 61.2727 69.6337V66.0337C61.1727 63.8337 59.6727 61.4337 57.8727 60.6337Z" fill="#E41F30"/>
<path d="M65.5734 60.4337L65.0734 60.6337C63.2734 61.4337 61.7734 63.8337 61.7734 66.0337V69.6337C61.7734 70.2337 62.1734 70.5337 62.6734 70.2337L63.1734 70.0337C64.9734 69.2337 66.4734 66.8337 66.4734 64.6337V61.0337C66.4734 60.5337 66.0734 60.2337 65.5734 60.4337Z" fill="#E41F30"/>
<path d="M57.8727 70.6337L57.3727 70.4337C56.8727 70.2337 56.4727 70.5337 56.4727 71.0337V74.6337C56.4727 76.8337 57.9727 79.2337 59.8727 80.0337L60.3727 80.2337C60.8727 80.4337 61.2727 80.1337 61.2727 79.6337V76.0337C61.1727 73.8337 59.6727 71.4337 57.8727 70.6337Z" fill="#E41F30"/>
<path d="M65.5734 70.4337L65.0734 70.6337C63.2734 71.4337 61.7734 73.8337 61.7734 76.0337V79.6337C61.7734 80.2337 62.1734 80.5337 62.6734 80.2337L63.1734 80.0337C64.9734 79.2337 66.4734 76.8337 66.4734 74.6337V71.0337C66.4734 70.5337 66.0734 70.2337 65.5734 70.4337Z" fill="#E41F30"/>
<path d="M112.873 0.63374L112.373 0.43374C111.873 0.23374 111.473 0.53374 111.473 1.03374V4.63374C111.473 6.83374 112.973 9.23374 114.873 10.0337L115.373 10.2337C115.873 10.4337 116.273 10.1337 116.273 9.63374V6.03374C116.173 3.83374 114.673 1.43374 112.873 0.63374Z" fill="#E41F30"/>
<path d="M120.573 0.43374L120.073 0.63374C118.273 1.43374 116.773 3.83374 116.773 6.03374V9.63374C116.773 10.2337 117.173 10.5337 117.673 10.2337L118.173 10.0337C119.973 9.23374 121.473 6.83374 121.473 4.63374V1.03374C121.473 0.53374 121.073 0.23374 120.573 0.43374Z" fill="#E41F30"/>
<path d="M68.8727 10.6337L68.3727 10.4337C67.8727 10.2337 67.4727 10.5337 67.4727 11.0337V14.6337C67.4727 16.8337 68.9727 19.2337 70.8727 20.0337L71.3727 20.2337C71.8727 20.4337 72.2727 20.1337 72.2727 19.6337V16.0337C72.1727 13.8337 70.6727 11.4337 68.8727 10.6337Z" fill="#E41F30"/>
<path d="M76.5734 10.4337L76.0734 10.6337C74.2734 11.4337 72.7734 13.8337 72.7734 16.0337V19.6337C72.7734 20.2337 73.1734 20.5337 73.6734 20.2337L74.1734 20.0337C75.9734 19.2337 77.4734 16.8337 77.4734 14.6337V11.0337C77.4734 10.5337 77.0734 10.2337 76.5734 10.4337Z" fill="#E41F30"/>
<path d="M68.8727 20.6337L68.3727 20.4337C67.8727 20.2337 67.4727 20.5337 67.4727 21.0337V24.6337C67.4727 26.8337 68.9727 29.2337 70.8727 30.0337L71.3727 30.2337C71.8727 30.4337 72.2727 30.1337 72.2727 29.6337V26.0337C72.1727 23.8337 70.6727 21.4337 68.8727 20.6337Z" fill="#E41F30"/>
<path d="M76.5734 20.4337L76.0734 20.6337C74.2734 21.4337 72.7734 23.8337 72.7734 26.0337V29.6337C72.7734 30.2337 73.1734 30.5337 73.6734 30.2337L74.1734 30.0337C75.9734 29.2337 77.4734 26.8337 77.4734 24.6337V21.0337C77.4734 20.5337 77.0734 20.2337 76.5734 20.4337Z" fill="#E41F30"/>
<path d="M112.873 30.6337L112.373 30.4337C111.873 30.2337 111.473 30.5337 111.473 31.0337V34.6337C111.473 36.8337 112.973 39.2337 114.873 40.0337L115.373 40.2337C115.873 40.4337 116.273 40.1337 116.273 39.6337V36.0337C116.173 33.8337 114.673 31.4337 112.873 30.6337Z" fill="#E41F30"/>
<path d="M120.573 30.4337L120.073 30.6337C118.273 31.4337 116.773 33.8337 116.773 36.0337V39.6337C116.773 40.2337 117.173 40.5337 117.673 40.2337L118.173 40.0337C119.973 39.2337 121.473 36.8337 121.473 34.6337V31.0337C121.473 30.5337 121.073 30.2337 120.573 30.4337Z" fill="#E41F30"/>
<path d="M112.873 40.6337L112.373 40.4337C111.873 40.2337 111.473 40.5337 111.473 41.0337V44.6337C111.473 46.8337 112.973 49.2337 114.873 50.0337L115.373 50.2337C115.873 50.4337 116.273 50.1337 116.273 49.6337V46.0337C116.173 43.8337 114.673 41.4337 112.873 40.6337Z" fill="#E41F30"/>
<path d="M120.573 40.4337L120.073 40.6337C118.273 41.4337 116.773 43.8337 116.773 46.0337V49.6337C116.773 50.2337 117.173 50.5337 117.673 50.2337L118.173 50.0337C119.973 49.2337 121.473 46.8337 121.473 44.6337V41.0337C121.473 40.5337 121.073 40.2337 120.573 40.4337Z" fill="#E41F30"/>
<path d="M123.873 40.6337L123.373 40.4337C122.873 40.2337 122.473 40.5337 122.473 41.0337V44.6337C122.473 46.8337 123.973 49.2337 125.873 50.0337L126.373 50.2337C126.873 50.4337 127.273 50.1337 127.273 49.6337V46.0337C127.173 43.8337 125.673 41.4337 123.873 40.6337Z" fill="#E41F30"/>
<path d="M131.573 40.4337L131.073 40.6337C129.273 41.4337 127.773 43.8337 127.773 46.0337V49.6337C127.773 50.2337 128.173 50.5337 128.673 50.2337L129.173 50.0337C130.973 49.2337 132.473 46.8337 132.473 44.6337V41.0337C132.473 40.5337 132.073 40.2337 131.573 40.4337Z" fill="#E41F30"/>
<path d="M68.8727 50.6337L68.3727 50.4337C67.8727 50.2337 67.4727 50.5337 67.4727 51.0337V54.6337C67.4727 56.8337 68.9727 59.2337 70.8727 60.0337L71.3727 60.2337C71.8727 60.4337 72.2727 60.1337 72.2727 59.6337V56.0337C72.1727 53.8337 70.6727 51.4337 68.8727 50.6337Z" fill="#E41F30"/>
<path d="M76.5734 50.4337L76.0734 50.6337C74.2734 51.4337 72.7734 53.8337 72.7734 56.0337V59.6337C72.7734 60.2337 73.1734 60.5337 73.6734 60.2337L74.1734 60.0337C75.9734 59.2337 77.4734 56.8337 77.4734 54.6337V51.0337C77.4734 50.5337 77.0734 50.2337 76.5734 50.4337Z" fill="#E41F30"/>
<path d="M68.8727 60.6337L68.3727 60.4337C67.8727 60.2337 67.4727 60.5337 67.4727 61.0337V64.6337C67.4727 66.8337 68.9727 69.2337 70.8727 70.0337L71.3727 70.2337C71.8727 70.4337 72.2727 70.1337 72.2727 69.6337V66.0337C72.1727 63.8337 70.6727 61.4337 68.8727 60.6337Z" fill="#E41F30"/>
<path d="M76.5734 60.4337L76.0734 60.6337C74.2734 61.4337 72.7734 63.8337 72.7734 66.0337V69.6337C72.7734 70.2337 73.1734 70.5337 73.6734 70.2337L74.1734 70.0337C75.9734 69.2337 77.4734 66.8337 77.4734 64.6337V61.0337C77.4734 60.5337 77.0734 60.2337 76.5734 60.4337Z" fill="#E41F30"/>
<path d="M24.8727 60.6337L24.3727 60.4337C23.8727 60.2337 23.4727 60.5337 23.4727 61.0337V64.6337C23.4727 66.8337 24.9727 69.2337 26.8727 70.0337L27.3727 70.2337C27.8727 70.4337 28.2727 70.1337 28.2727 69.6337V66.0337C28.1727 63.8337 26.6727 61.4337 24.8727 60.6337Z" fill="#E41F30"/>
<path d="M32.5734 60.4337L32.0734 60.6337C30.2734 61.4337 28.7734 63.8337 28.7734 66.0337V69.6337C28.7734 70.2337 29.1734 70.5337 29.6734 70.2337L30.1734 70.0337C31.9734 69.2337 33.4734 66.8337 33.4734 64.6337V61.0337C33.4734 60.5337 33.0734 60.2337 32.5734 60.4337Z" fill="#E41F30"/>
<path d="M68.8727 70.6337L68.3727 70.4337C67.8727 70.2337 67.4727 70.5337 67.4727 71.0337V74.6337C67.4727 76.8337 68.9727 79.2337 70.8727 80.0337L71.3727 80.2337C71.8727 80.4337 72.2727 80.1337 72.2727 79.6337V76.0337C72.1727 73.8337 70.6727 71.4337 68.8727 70.6337Z" fill="#E41F30"/>
<path d="M76.5734 70.4337L76.0734 70.6337C74.2734 71.4337 72.7734 73.8337 72.7734 76.0337V79.6337C72.7734 80.2337 73.1734 80.5337 73.6734 80.2337L74.1734 80.0337C75.9734 79.2337 77.4734 76.8337 77.4734 74.6337V71.0337C77.4734 70.5337 77.0734 70.2337 76.5734 70.4337Z" fill="#E41F30"/>
<path d="M24.8727 70.6337L24.3727 70.4337C23.8727 70.2337 23.4727 70.5337 23.4727 71.0337V74.6337C23.4727 76.8337 24.9727 79.2337 26.8727 80.0337L27.3727 80.2337C27.8727 80.4337 28.2727 80.1337 28.2727 79.6337V76.0337C28.1727 73.8337 26.6727 71.4337 24.8727 70.6337Z" fill="#E41F30"/>
<path d="M32.5734 70.4337L32.0734 70.6337C30.2734 71.4337 28.7734 73.8337 28.7734 76.0337V79.6337C28.7734 80.2337 29.1734 80.5337 29.6734 80.2337L30.1734 80.0337C31.9734 79.2337 33.4734 76.8337 33.4734 74.6337V71.0337C33.4734 70.5337 33.0734 70.2337 32.5734 70.4337Z" fill="#E41F30"/>
<path d="M79.8727 80.6337L79.3727 80.4337C78.8727 80.2337 78.4727 80.5337 78.4727 81.0337V84.6337C78.4727 86.8337 79.9727 89.2337 81.8727 90.0337L82.3727 90.2337C82.8727 90.4337 83.2727 90.1337 83.2727 89.6337V86.0337C83.1727 83.8337 81.6727 81.4337 79.8727 80.6337Z" fill="#E41F30"/>
<path d="M87.5734 80.4337L87.0734 80.6337C85.2734 81.4337 83.7734 83.8337 83.7734 86.0337V89.6337C83.7734 90.2337 84.1734 90.5337 84.6734 90.2337L85.1734 90.0337C86.9734 89.2337 88.4734 86.8337 88.4734 84.6337V81.0337C88.4734 80.5337 88.0734 80.2337 87.5734 80.4337Z" fill="#E41F30"/>
<path d="M35.8727 80.6337L35.3727 80.4337C34.8727 80.2337 34.4727 80.5337 34.4727 81.0337V84.6337C34.4727 86.8337 35.9727 89.2337 37.8727 90.0337L38.3727 90.2337C38.8727 90.4337 39.2727 90.1337 39.2727 89.6337V86.0337C39.1727 83.8337 37.6727 81.4337 35.8727 80.6337Z" fill="#E41F30"/>
<path d="M43.5734 80.4337L43.0734 80.6337C41.2734 81.4337 39.7734 83.8337 39.7734 86.0337V89.6337C39.7734 90.2337 40.1734 90.5337 40.6734 90.2337L41.1734 90.0337C42.9734 89.2337 44.4734 86.8337 44.4734 84.6337V81.0337C44.4734 80.5337 44.0734 80.2337 43.5734 80.4337Z" fill="#E41F30"/>
<path d="M35.8727 90.6337L35.3727 90.4337C34.8727 90.2337 34.4727 90.5337 34.4727 91.0337V94.6337C34.4727 96.8337 35.9727 99.2337 37.8727 100.034L38.3727 100.234C38.8727 100.434 39.2727 100.134 39.2727 99.6337V96.0337C39.1727 93.8337 37.6727 91.4337 35.8727 90.6337Z" fill="#E41F30"/>
<path d="M43.5734 90.4337L43.0734 90.6337C41.2734 91.4337 39.7734 93.8337 39.7734 96.0337V99.6337C39.7734 100.234 40.1734 100.534 40.6734 100.234L41.1734 100.034C42.9734 99.2337 44.4734 96.8337 44.4734 94.6337V91.0337C44.4734 90.5337 44.0734 90.2337 43.5734 90.4337Z" fill="#E41F30"/>
<path d="M90.8727 80.6337L90.3727 80.4337C89.8727 80.2337 89.4727 80.5337 89.4727 81.0337V84.6337C89.4727 86.8337 90.9727 89.2337 92.8727 90.0337L93.3727 90.2337C93.8727 90.4337 94.2727 90.1337 94.2727 89.6337V86.0337C94.1727 83.8337 92.6727 81.4337 90.8727 80.6337Z" fill="#E41F30"/>
<path d="M98.5734 80.4337L98.0734 80.6337C96.2734 81.4337 94.7734 83.8337 94.7734 86.0337V89.6337C94.7734 90.2337 95.1734 90.5337 95.6734 90.2337L96.1734 90.0337C97.9734 89.2337 99.4734 86.8337 99.4734 84.6337V81.0337C99.4734 80.5337 99.0734 80.2337 98.5734 80.4337Z" fill="#E41F30"/>
<path d="M46.8727 80.6337L46.3727 80.4337C45.8727 80.2337 45.4727 80.5337 45.4727 81.0337V84.6337C45.4727 86.8337 46.9727 89.2337 48.8727 90.0337L49.3727 90.2337C49.8727 90.4337 50.2727 90.1337 50.2727 89.6337V86.0337C50.1727 83.8337 48.6727 81.4337 46.8727 80.6337Z" fill="#E41F30"/>
<path d="M54.5734 80.4337L54.0734 80.6337C52.2734 81.4337 50.7734 83.8337 50.7734 86.0337V89.6337C50.7734 90.2337 51.1734 90.5337 51.6734 90.2337L52.1734 90.0337C53.9734 89.2337 55.4734 86.8337 55.4734 84.6337V81.0337C55.4734 80.5337 55.0734 80.2337 54.5734 80.4337Z" fill="#E41F30"/>
<path d="M101.873 80.6337L101.373 80.4337C100.873 80.2337 100.473 80.5337 100.473 81.0337V84.6337C100.473 86.8337 101.973 89.2337 103.873 90.0337L104.373 90.2337C104.873 90.4337 105.273 90.1337 105.273 89.6337V86.0337C105.173 83.8337 103.673 81.4337 101.873 80.6337Z" fill="#E41F30"/>
<path d="M109.573 80.4337L109.073 80.6337C107.273 81.4337 105.773 83.8337 105.773 86.0337V89.6337C105.773 90.2337 106.173 90.5337 106.673 90.2337L107.173 90.0337C108.973 89.2337 110.473 86.8337 110.473 84.6337V81.0337C110.473 80.5337 110.073 80.2337 109.573 80.4337Z" fill="#E41F30"/>
<path d="M57.8727 80.6337L57.3727 80.4337C56.8727 80.2337 56.4727 80.5337 56.4727 81.0337V84.6337C56.4727 86.8337 57.9727 89.2337 59.8727 90.0337L60.3727 90.2337C60.8727 90.4337 61.2727 90.1337 61.2727 89.6337V86.0337C61.1727 83.8337 59.6727 81.4337 57.8727 80.6337Z" fill="#E41F30"/>
<path d="M65.5734 80.4337L65.0734 80.6337C63.2734 81.4337 61.7734 83.8337 61.7734 86.0337V89.6337C61.7734 90.2337 62.1734 90.5337 62.6734 90.2337L63.1734 90.0337C64.9734 89.2337 66.4734 86.8337 66.4734 84.6337V81.0337C66.4734 80.5337 66.0734 80.2337 65.5734 80.4337Z" fill="#E41F30"/>
<path d="M13.8727 90.6337L13.3727 90.4337C12.8727 90.2337 12.4727 90.5337 12.4727 91.0337V94.6337C12.4727 96.8337 13.9727 99.2337 15.8727 100.034L16.3727 100.234C16.8727 100.434 17.2727 100.134 17.2727 99.6337V96.0337C17.1727 93.8337 15.6727 91.4337 13.8727 90.6337Z" fill="#E41F30"/>
<path d="M21.5734 90.4337L21.0734 90.6337C19.2734 91.4337 17.7734 93.8337 17.7734 96.0337V99.6337C17.7734 100.234 18.1734 100.534 18.6734 100.234L19.1734 100.034C20.9734 99.2337 22.4734 96.8337 22.4734 94.6337V91.0337C22.4734 90.5337 22.0734 90.2337 21.5734 90.4337Z" fill="#E41F30"/>
<path d="M13.8727 100.634L13.3727 100.434C12.8727 100.234 12.4727 100.534 12.4727 101.034V104.634C12.4727 106.834 13.9727 109.234 15.8727 110.034L16.3727 110.234C16.8727 110.434 17.2727 110.134 17.2727 109.634V106.034C17.1727 103.834 15.6727 101.434 13.8727 100.634Z" fill="#E41F30"/>
<path d="M21.5734 100.434L21.0734 100.634C19.2734 101.434 17.7734 103.834 17.7734 106.034V109.634C17.7734 110.234 18.1734 110.534 18.6734 110.234L19.1734 110.034C20.9734 109.234 22.4734 106.834 22.4734 104.634V101.034C22.4734 100.534 22.0734 100.234 21.5734 100.434Z" fill="#E41F30"/>
<path d="M13.8727 110.634L13.3727 110.434C12.8727 110.234 12.4727 110.534 12.4727 111.034V114.634C12.4727 116.834 13.9727 119.234 15.8727 120.034L16.3727 120.234C16.8727 120.434 17.2727 120.134 17.2727 119.634V116.034C17.1727 113.834 15.6727 111.434 13.8727 110.634Z" fill="#E41F30"/>
<path d="M21.5734 110.434L21.0734 110.634C19.2734 111.434 17.7734 113.834 17.7734 116.034V119.634C17.7734 120.234 18.1734 120.534 18.6734 120.234L19.1734 120.034C20.9734 119.234 22.4734 116.834 22.4734 114.634V111.034C22.4734 110.534 22.0734 110.234 21.5734 110.434Z" fill="#E41F30"/>
<path d="M101.873 120.634L101.373 120.434C100.873 120.234 100.473 120.534 100.473 121.034V124.634C100.473 126.834 101.973 129.234 103.873 130.034L104.373 130.234C104.873 130.434 105.273 130.134 105.273 129.634V126.034C105.173 123.834 103.673 121.434 101.873 120.634Z" fill="#E41F30"/>
<path d="M109.573 120.434L109.073 120.634C107.273 121.434 105.773 123.834 105.773 126.034V129.634C105.773 130.234 106.173 130.534 106.673 130.234L107.173 130.034C108.973 129.234 110.473 126.834 110.473 124.634V121.034C110.473 120.534 110.073 120.234 109.573 120.434Z" fill="#E41F30"/>
<path d="M13.8727 120.634L13.3727 120.434C12.8727 120.234 12.4727 120.534 12.4727 121.034V124.634C12.4727 126.834 13.9727 129.234 15.8727 130.034L16.3727 130.234C16.8727 130.434 17.2727 130.134 17.2727 129.634V126.034C17.1727 123.834 15.6727 121.434 13.8727 120.634Z" fill="#E41F30"/>
<path d="M21.5734 120.434L21.0734 120.634C19.2734 121.434 17.7734 123.834 17.7734 126.034V129.634C17.7734 130.234 18.1734 130.534 18.6734 130.234L19.1734 130.034C20.9734 129.234 22.4734 126.834 22.4734 124.634V121.034C22.4734 120.534 22.0734 120.234 21.5734 120.434Z" fill="#E41F30"/>
<path d="M68.8727 80.6337L68.3727 80.4337C67.8727 80.2337 67.4727 80.5337 67.4727 81.0337V84.6337C67.4727 86.8337 68.9727 89.2337 70.8727 90.0337L71.3727 90.2337C71.8727 90.4337 72.2727 90.1337 72.2727 89.6337V86.0337C72.1727 83.8337 70.6727 81.4337 68.8727 80.6337Z" fill="#E41F30"/>
<path d="M76.5734 80.4337L76.0734 80.6337C74.2734 81.4337 72.7734 83.8337 72.7734 86.0337V89.6337C72.7734 90.2337 73.1734 90.5337 73.6734 90.2337L74.1734 90.0337C75.9734 89.2337 77.4734 86.8337 77.4734 84.6337V81.0337C77.4734 80.5337 77.0734 80.2337 76.5734 80.4337Z" fill="#E41F30"/>
<path d="M24.8727 80.6337L24.3727 80.4337C23.8727 80.2337 23.4727 80.5337 23.4727 81.0337V84.6337C23.4727 86.8337 24.9727 89.2337 26.8727 90.0337L27.3727 90.2337C27.8727 90.4337 28.2727 90.1337 28.2727 89.6337V86.0337C28.1727 83.8337 26.6727 81.4337 24.8727 80.6337Z" fill="#E41F30"/>
<path d="M32.5734 80.4337L32.0734 80.6337C30.2734 81.4337 28.7734 83.8337 28.7734 86.0337V89.6337C28.7734 90.2337 29.1734 90.5337 29.6734 90.2337L30.1734 90.0337C31.9734 89.2337 33.4734 86.8337 33.4734 84.6337V81.0337C33.4734 80.5337 33.0734 80.2337 32.5734 80.4337Z" fill="#E41F30"/>
<path d="M112.873 90.6337L112.373 90.4337C111.873 90.2337 111.473 90.5337 111.473 91.0337V94.6337C111.473 96.8337 112.973 99.2337 114.873 100.034L115.373 100.234C115.873 100.434 116.273 100.134 116.273 99.6337V96.0337C116.173 93.8337 114.673 91.4337 112.873 90.6337Z" fill="#E41F30"/>
<path d="M120.573 90.4337L120.073 90.6337C118.273 91.4337 116.773 93.8337 116.773 96.0337V99.6337C116.773 100.234 117.173 100.534 117.673 100.234L118.173 100.034C119.973 99.2337 121.473 96.8337 121.473 94.6337V91.0337C121.473 90.5337 121.073 90.2337 120.573 90.4337Z" fill="#E41F30"/>
<path d="M24.8727 90.6337L24.3727 90.4337C23.8727 90.2337 23.4727 90.5337 23.4727 91.0337V94.6337C23.4727 96.8337 24.9727 99.2337 26.8727 100.034L27.3727 100.234C27.8727 100.434 28.2727 100.134 28.2727 99.6337V96.0337C28.1727 93.8337 26.6727 91.4337 24.8727 90.6337Z" fill="#E41F30"/>
<path d="M32.5734 90.4337L32.0734 90.6337C30.2734 91.4337 28.7734 93.8337 28.7734 96.0337V99.6337C28.7734 100.234 29.1734 100.534 29.6734 100.234L30.1734 100.034C31.9734 99.2337 33.4734 96.8337 33.4734 94.6337V91.0337C33.4734 90.5337 33.0734 90.2337 32.5734 90.4337Z" fill="#E41F30"/>
<path d="M112.873 100.634L112.373 100.434C111.873 100.234 111.473 100.534 111.473 101.034V104.634C111.473 106.834 112.973 109.234 114.873 110.034L115.373 110.234C115.873 110.434 116.273 110.134 116.273 109.634V106.034C116.173 103.834 114.673 101.434 112.873 100.634Z" fill="#E41F30"/>
<path d="M120.573 100.434L120.073 100.634C118.273 101.434 116.773 103.834 116.773 106.034V109.634C116.773 110.234 117.173 110.534 117.673 110.234L118.173 110.034C119.973 109.234 121.473 106.834 121.473 104.634V101.034C121.473 100.534 121.073 100.234 120.573 100.434Z" fill="#E41F30"/>
<path d="M24.8727 100.634L24.3727 100.434C23.8727 100.234 23.4727 100.534 23.4727 101.034V104.634C23.4727 106.834 24.9727 109.234 26.8727 110.034L27.3727 110.234C27.8727 110.434 28.2727 110.134 28.2727 109.634V106.034C28.1727 103.834 26.6727 101.434 24.8727 100.634Z" fill="#E41F30"/>
<path d="M32.5734 100.434L32.0734 100.634C30.2734 101.434 28.7734 103.834 28.7734 106.034V109.634C28.7734 110.234 29.1734 110.534 29.6734 110.234L30.1734 110.034C31.9734 109.234 33.4734 106.834 33.4734 104.634V101.034C33.4734 100.534 33.0734 100.234 32.5734 100.434Z" fill="#E41F30"/>
<path d="M112.873 110.634L112.373 110.434C111.873 110.234 111.473 110.534 111.473 111.034V114.634C111.473 116.834 112.973 119.234 114.873 120.034L115.373 120.234C115.873 120.434 116.273 120.134 116.273 119.634V116.034C116.173 113.834 114.673 111.434 112.873 110.634Z" fill="#E41F30"/>
<path d="M120.573 110.434L120.073 110.634C118.273 111.434 116.773 113.834 116.773 116.034V119.634C116.773 120.234 117.173 120.534 117.673 120.234L118.173 120.034C119.973 119.234 121.473 116.834 121.473 114.634V111.034C121.473 110.534 121.073 110.234 120.573 110.434Z" fill="#E41F30"/>
</svg>
