<svg width="89" height="131" viewBox="0 0 89 131" fill="none" xmlns="http://www.w3.org/2000/svg">
<path d="M57.3727 0.643567L56.8727 0.443567C56.3727 0.243567 55.9727 0.543567 55.9727 1.04357V4.64357C55.9727 6.84357 57.4727 9.24357 59.3727 10.0436L59.8727 10.2436C60.3727 10.4436 60.7727 10.1436 60.7727 9.64357V6.04357C60.6727 3.84357 59.1727 1.44357 57.3727 0.643567Z" fill="#E41F30"/>
<path d="M65.0734 0.443567L64.5734 0.643567C62.7734 1.44357 61.2734 3.84357 61.2734 6.04357V9.64357C61.2734 10.2436 61.6734 10.5436 62.1734 10.2436L62.6734 10.0436C64.4734 9.24357 65.9734 6.84357 65.9734 4.64357V1.04357C65.9734 0.543567 65.5734 0.243567 65.0734 0.443567Z" fill="#E41F30"/>
<path d="M21.0734 0.443567L20.5734 0.643567C18.7734 1.44357 17.2734 3.84357 17.2734 6.04357V9.64357C17.2734 10.2436 17.6734 10.5436 18.1734 10.2436L18.6734 10.0436C20.4734 9.24357 21.9734 6.84357 21.9734 4.64357V1.04357C21.9734 0.543567 21.5734 0.243567 21.0734 0.443567Z" fill="#E41F30"/>
<path d="M13.3727 10.6436L12.8727 10.4436C12.3727 10.2436 11.9727 10.5436 11.9727 11.0436V14.6436C11.9727 16.8436 13.4727 19.2436 15.3727 20.0436L15.8727 20.2436C16.3727 20.4436 16.7727 20.1436 16.7727 19.6436V16.0436C16.6727 13.8436 15.1727 11.4436 13.3727 10.6436Z" fill="#E41F30"/>
<path d="M57.3727 20.6436L56.8727 20.4436C56.3727 20.2436 55.9727 20.5436 55.9727 21.0436V24.6436C55.9727 26.8436 57.4727 29.2436 59.3727 30.0436L59.8727 30.2436C60.3727 30.4436 60.7727 30.1436 60.7727 29.6436V26.0436C60.6727 23.8436 59.1727 21.4436 57.3727 20.6436Z" fill="#E41F30"/>
<path d="M65.0734 20.4436L64.5734 20.6436C62.7734 21.4436 61.2734 23.8436 61.2734 26.0436V29.6436C61.2734 30.2436 61.6734 30.5436 62.1734 30.2436L62.6734 30.0436C64.4734 29.2436 65.9734 26.8436 65.9734 24.6436V21.0436C65.9734 20.5436 65.5734 20.2436 65.0734 20.4436Z" fill="#E41F30"/>
<path d="M21.0734 20.4436L20.5734 20.6436C18.7734 21.4436 17.2734 23.8436 17.2734 26.0436V29.6436C17.2734 30.2436 17.6734 30.5436 18.1734 30.2436L18.6734 30.0436C20.4734 29.2436 21.9734 26.8436 21.9734 24.6436V21.0436C21.9734 20.5436 21.5734 20.2436 21.0734 20.4436Z" fill="#E41F30"/>
<path d="M57.3727 40.6436L56.8727 40.4436C56.3727 40.2436 55.9727 40.5436 55.9727 41.0436V44.6436C55.9727 46.8436 57.4727 49.2436 59.3727 50.0436L59.8727 50.2436C60.3727 50.4436 60.7727 50.1436 60.7727 49.6436V46.0436C60.6727 43.8436 59.1727 41.4436 57.3727 40.6436Z" fill="#E41F30"/>
<path d="M65.0734 40.4436L64.5734 40.6436C62.7734 41.4436 61.2734 43.8436 61.2734 46.0436V49.6436C61.2734 50.2436 61.6734 50.5436 62.1734 50.2436L62.6734 50.0436C64.4734 49.2436 65.9734 46.8436 65.9734 44.6436V41.0436C65.9734 40.5436 65.5734 40.2436 65.0734 40.4436Z" fill="#E41F30"/>
<path d="M57.3727 50.6436L56.8727 50.4436C56.3727 50.2436 55.9727 50.5436 55.9727 51.0436V54.6436C55.9727 56.8436 57.4727 59.2436 59.3727 60.0436L59.8727 60.2436C60.3727 60.4436 60.7727 60.1436 60.7727 59.6436V56.0436C60.6727 53.8436 59.1727 51.4436 57.3727 50.6436Z" fill="#E41F30"/>
<path d="M65.0734 50.4436L64.5734 50.6436C62.7734 51.4436 61.2734 53.8436 61.2734 56.0436V59.6436C61.2734 60.2436 61.6734 60.5436 62.1734 60.2436L62.6734 60.0436C64.4734 59.2436 65.9734 56.8436 65.9734 54.6436V51.0436C65.9734 50.5436 65.5734 50.2436 65.0734 50.4436Z" fill="#E41F30"/>
<path d="M21.0734 50.4436L20.5734 50.6436C18.7734 51.4436 17.2734 53.8436 17.2734 56.0436V59.6436C17.2734 60.2436 17.6734 60.5436 18.1734 60.2436L18.6734 60.0436C20.4734 59.2436 21.9734 56.8436 21.9734 54.6436V51.0436C21.9734 50.5436 21.5734 50.2436 21.0734 50.4436Z" fill="#E41F30"/>
<path d="M57.3727 60.6436L56.8727 60.4436C56.3727 60.2436 55.9727 60.5436 55.9727 61.0436V64.6436C55.9727 66.8436 57.4727 69.2436 59.3727 70.0436L59.8727 70.2436C60.3727 70.4436 60.7727 70.1436 60.7727 69.6436V66.0436C60.6727 63.8436 59.1727 61.4436 57.3727 60.6436Z" fill="#E41F30"/>
<path d="M65.0734 60.4436L64.5734 60.6436C62.7734 61.4436 61.2734 63.8436 61.2734 66.0436V69.6436C61.2734 70.2436 61.6734 70.5436 62.1734 70.2436L62.6734 70.0436C64.4734 69.2436 65.9734 66.8436 65.9734 64.6436V61.0436C65.9734 60.5436 65.5734 60.2436 65.0734 60.4436Z" fill="#E41F30"/>
<path d="M13.3727 60.6436L12.8727 60.4436C12.3727 60.2436 11.9727 60.5436 11.9727 61.0436V64.6436C11.9727 66.8436 13.4727 69.2436 15.3727 70.0436L15.8727 70.2436C16.3727 70.4436 16.7727 70.1436 16.7727 69.6436V66.0436C16.6727 63.8436 15.1727 61.4436 13.3727 60.6436Z" fill="#E41F30"/>
<path d="M21.0734 60.4436L20.5734 60.6436C18.7734 61.4436 17.2734 63.8436 17.2734 66.0436V69.6436C17.2734 70.2436 17.6734 70.5436 18.1734 70.2436L18.6734 70.0436C20.4734 69.2436 21.9734 66.8436 21.9734 64.6436V61.0436C21.9734 60.5436 21.5734 60.2436 21.0734 60.4436Z" fill="#E41F30"/>
<path d="M57.3727 70.6436L56.8727 70.4436C56.3727 70.2436 55.9727 70.5436 55.9727 71.0436V74.6436C55.9727 76.8436 57.4727 79.2436 59.3727 80.0436L59.8727 80.2436C60.3727 80.4436 60.7727 80.1436 60.7727 79.6436V76.0436C60.6727 73.8436 59.1727 71.4436 57.3727 70.6436Z" fill="#E41F30"/>
<path d="M65.0734 70.4436L64.5734 70.6436C62.7734 71.4436 61.2734 73.8436 61.2734 76.0436V79.6436C61.2734 80.2436 61.6734 80.5436 62.1734 80.2436L62.6734 80.0436C64.4734 79.2436 65.9734 76.8436 65.9734 74.6436V71.0436C65.9734 70.5436 65.5734 70.2436 65.0734 70.4436Z" fill="#E41F30"/>
<path d="M13.3727 70.6436L12.8727 70.4436C12.3727 70.2436 11.9727 70.5436 11.9727 71.0436V74.6436C11.9727 76.8436 13.4727 79.2436 15.3727 80.0436L15.8727 80.2436C16.3727 80.4436 16.7727 80.1436 16.7727 79.6436V76.0436C16.6727 73.8436 15.1727 71.4436 13.3727 70.6436Z" fill="#E41F30"/>
<path d="M21.0734 70.4436L20.5734 70.6436C18.7734 71.4436 17.2734 73.8436 17.2734 76.0436V79.6436C17.2734 80.2436 17.6734 80.5436 18.1734 80.2436L18.6734 80.0436C20.4734 79.2436 21.9734 76.8436 21.9734 74.6436V71.0436C21.9734 70.5436 21.5734 70.2436 21.0734 70.4436Z" fill="#E41F30"/>
<path d="M68.3727 0.643567L67.8727 0.443567C67.3727 0.243567 66.9727 0.543567 66.9727 1.04357V4.64357C66.9727 6.84357 68.4727 9.24357 70.3727 10.0436L70.8727 10.2436C71.3727 10.4436 71.7727 10.1436 71.7727 9.64357V6.04357C71.6727 3.84357 70.1727 1.44357 68.3727 0.643567Z" fill="#E41F30"/>
<path d="M24.3727 0.643567L23.8727 0.443567C23.3727 0.243567 22.9727 0.543567 22.9727 1.04357V4.64357C22.9727 6.84357 24.4727 9.24357 26.3727 10.0436L26.8727 10.2436C27.3727 10.4436 27.7727 10.1436 27.7727 9.64357V6.04357C27.6727 3.84357 26.1727 1.44357 24.3727 0.643567Z" fill="#E41F30"/>
<path d="M32.0734 0.443567L31.5734 0.643567C29.7734 1.44357 28.2734 3.84357 28.2734 6.04357V9.64357C28.2734 10.2436 28.6734 10.5436 29.1734 10.2436L29.6734 10.0436C31.4734 9.24357 32.9734 6.84357 32.9734 4.64357V1.04357C32.9734 0.543567 32.5734 0.243567 32.0734 0.443567Z" fill="#E41F30"/>
<path d="M76.0734 10.4436L75.5734 10.6436C73.7734 11.4436 72.2734 13.8436 72.2734 16.0436V19.6436C72.2734 20.2436 72.6734 20.5436 73.1734 20.2436L73.6734 20.0436C75.4734 19.2436 76.9734 16.8436 76.9734 14.6436V11.0436C76.9734 10.5436 76.5734 10.2436 76.0734 10.4436Z" fill="#E41F30"/>
<path d="M68.3727 20.6436L67.8727 20.4436C67.3727 20.2436 66.9727 20.5436 66.9727 21.0436V24.6436C66.9727 26.8436 68.4727 29.2436 70.3727 30.0436L70.8727 30.2436C71.3727 30.4436 71.7727 30.1436 71.7727 29.6436V26.0436C71.6727 23.8436 70.1727 21.4436 68.3727 20.6436Z" fill="#E41F30"/>
<path d="M24.3727 20.6436L23.8727 20.4436C23.3727 20.2436 22.9727 20.5436 22.9727 21.0436V24.6436C22.9727 26.8436 24.4727 29.2436 26.3727 30.0436L26.8727 30.2436C27.3727 30.4436 27.7727 30.1436 27.7727 29.6436V26.0436C27.6727 23.8436 26.1727 21.4436 24.3727 20.6436Z" fill="#E41F30"/>
<path d="M32.0734 20.4436L31.5734 20.6436C29.7734 21.4436 28.2734 23.8436 28.2734 26.0436V29.6436C28.2734 30.2436 28.6734 30.5436 29.1734 30.2436L29.6734 30.0436C31.4734 29.2436 32.9734 26.8436 32.9734 24.6436V21.0436C32.9734 20.5436 32.5734 20.2436 32.0734 20.4436Z" fill="#E41F30"/>
<path d="M24.3727 40.6436L23.8727 40.4436C23.3727 40.2436 22.9727 40.5436 22.9727 41.0436V44.6436C22.9727 46.8436 24.4727 49.2436 26.3727 50.0436L26.8727 50.2436C27.3727 50.4436 27.7727 50.1436 27.7727 49.6436V46.0436C27.6727 43.8436 26.1727 41.4436 24.3727 40.6436Z" fill="#E41F30"/>
<path d="M32.0734 40.4436L31.5734 40.6436C29.7734 41.4436 28.2734 43.8436 28.2734 46.0436V49.6436C28.2734 50.2436 28.6734 50.5436 29.1734 50.2436L29.6734 50.0436C31.4734 49.2436 32.9734 46.8436 32.9734 44.6436V41.0436C32.9734 40.5436 32.5734 40.2436 32.0734 40.4436Z" fill="#E41F30"/>
<path d="M68.3727 50.6436L67.8727 50.4436C67.3727 50.2436 66.9727 50.5436 66.9727 51.0436V54.6436C66.9727 56.8436 68.4727 59.2436 70.3727 60.0436L70.8727 60.2436C71.3727 60.4436 71.7727 60.1436 71.7727 59.6436V56.0436C71.6727 53.8436 70.1727 51.4436 68.3727 50.6436Z" fill="#E41F30"/>
<path d="M24.3727 50.6436L23.8727 50.4436C23.3727 50.2436 22.9727 50.5436 22.9727 51.0436V54.6436C22.9727 56.8436 24.4727 59.2436 26.3727 60.0436L26.8727 60.2436C27.3727 60.4436 27.7727 60.1436 27.7727 59.6436V56.0436C27.6727 53.8436 26.1727 51.4436 24.3727 50.6436Z" fill="#E41F30"/>
<path d="M32.0734 50.4436L31.5734 50.6436C29.7734 51.4436 28.2734 53.8436 28.2734 56.0436V59.6436C28.2734 60.2436 28.6734 60.5436 29.1734 60.2436L29.6734 60.0436C31.4734 59.2436 32.9734 56.8436 32.9734 54.6436V51.0436C32.9734 50.5436 32.5734 50.2436 32.0734 50.4436Z" fill="#E41F30"/>
<path d="M68.3727 60.6436L67.8727 60.4436C67.3727 60.2436 66.9727 60.5436 66.9727 61.0436V64.6436C66.9727 66.8436 68.4727 69.2436 70.3727 70.0436L70.8727 70.2436C71.3727 70.4436 71.7727 70.1436 71.7727 69.6436V66.0436C71.6727 63.8436 70.1727 61.4436 68.3727 60.6436Z" fill="#E41F30"/>
<path d="M76.0734 60.4436L75.5734 60.6436C73.7734 61.4436 72.2734 63.8436 72.2734 66.0436V69.6436C72.2734 70.2436 72.6734 70.5436 73.1734 70.2436L73.6734 70.0436C75.4734 69.2436 76.9734 66.8436 76.9734 64.6436V61.0436C76.9734 60.5436 76.5734 60.2436 76.0734 60.4436Z" fill="#E41F30"/>
<path d="M24.3727 60.6436L23.8727 60.4436C23.3727 60.2436 22.9727 60.5436 22.9727 61.0436V64.6436C22.9727 66.8436 24.4727 69.2436 26.3727 70.0436L26.8727 70.2436C27.3727 70.4436 27.7727 70.1436 27.7727 69.6436V66.0436C27.6727 63.8436 26.1727 61.4436 24.3727 60.6436Z" fill="#E41F30"/>
<path d="M32.0734 60.4436L31.5734 60.6436C29.7734 61.4436 28.2734 63.8436 28.2734 66.0436V69.6436C28.2734 70.2436 28.6734 70.5436 29.1734 70.2436L29.6734 70.0436C31.4734 69.2436 32.9734 66.8436 32.9734 64.6436V61.0436C32.9734 60.5436 32.5734 60.2436 32.0734 60.4436Z" fill="#E41F30"/>
<path d="M68.3727 70.6436L67.8727 70.4436C67.3727 70.2436 66.9727 70.5436 66.9727 71.0436V74.6436C66.9727 76.8436 68.4727 79.2436 70.3727 80.0436L70.8727 80.2436C71.3727 80.4436 71.7727 80.1436 71.7727 79.6436V76.0436C71.6727 73.8436 70.1727 71.4436 68.3727 70.6436Z" fill="#E41F30"/>
<path d="M76.0734 70.4436L75.5734 70.6436C73.7734 71.4436 72.2734 73.8436 72.2734 76.0436V79.6436C72.2734 80.2436 72.6734 80.5436 73.1734 80.2436L73.6734 80.0436C75.4734 79.2436 76.9734 76.8436 76.9734 74.6436V71.0436C76.9734 70.5436 76.5734 70.2436 76.0734 70.4436Z" fill="#E41F30"/>
<path d="M24.3727 70.6436L23.8727 70.4436C23.3727 70.2436 22.9727 70.5436 22.9727 71.0436V74.6436C22.9727 76.8436 24.4727 79.2436 26.3727 80.0436L26.8727 80.2436C27.3727 80.4436 27.7727 80.1436 27.7727 79.6436V76.0436C27.6727 73.8436 26.1727 71.4436 24.3727 70.6436Z" fill="#E41F30"/>
<path d="M32.0734 70.4436L31.5734 70.6436C29.7734 71.4436 28.2734 73.8436 28.2734 76.0436V79.6436C28.2734 80.2436 28.6734 80.5436 29.1734 80.2436L29.6734 80.0436C31.4734 79.2436 32.9734 76.8436 32.9734 74.6436V71.0436C32.9734 70.5436 32.5734 70.2436 32.0734 70.4436Z" fill="#E41F30"/>
<path d="M35.3727 10.6436L34.8727 10.4436C34.3727 10.2436 33.9727 10.5436 33.9727 11.0436V14.6436C33.9727 16.8436 35.4727 19.2436 37.3727 20.0436L37.8727 20.2436C38.3727 20.4436 38.7727 20.1436 38.7727 19.6436V16.0436C38.6727 13.8436 37.1727 11.4436 35.3727 10.6436Z" fill="#E41F30"/>
<path d="M43.0734 10.4436L42.5734 10.6436C40.7734 11.4436 39.2734 13.8436 39.2734 16.0436V19.6436C39.2734 20.2436 39.6734 20.5436 40.1734 20.2436L40.6734 20.0436C42.4734 19.2436 43.9734 16.8436 43.9734 14.6436V11.0436C43.9734 10.5436 43.5734 10.2436 43.0734 10.4436Z" fill="#E41F30"/>
<path d="M35.3727 20.6436L34.8727 20.4436C34.3727 20.2436 33.9727 20.5436 33.9727 21.0436V24.6436C33.9727 26.8436 35.4727 29.2436 37.3727 30.0436L37.8727 30.2436C38.3727 30.4436 38.7727 30.1436 38.7727 29.6436V26.0436C38.6727 23.8436 37.1727 21.4436 35.3727 20.6436Z" fill="#E41F30"/>
<path d="M43.0734 20.4436L42.5734 20.6436C40.7734 21.4436 39.2734 23.8436 39.2734 26.0436V29.6436C39.2734 30.2436 39.6734 30.5436 40.1734 30.2436L40.6734 30.0436C42.4734 29.2436 43.9734 26.8436 43.9734 24.6436V21.0436C43.9734 20.5436 43.5734 20.2436 43.0734 20.4436Z" fill="#E41F30"/>
<path d="M43.0734 30.4436L42.5734 30.6436C40.7734 31.4436 39.2734 33.8436 39.2734 36.0436V39.6436C39.2734 40.2436 39.6734 40.5436 40.1734 40.2436L40.6734 40.0436C42.4734 39.2436 43.9734 36.8436 43.9734 34.6436V31.0436C43.9734 30.5436 43.5734 30.2436 43.0734 30.4436Z" fill="#E41F30"/>
<path d="M35.3727 40.6436L34.8727 40.4436C34.3727 40.2436 33.9727 40.5436 33.9727 41.0436V44.6436C33.9727 46.8436 35.4727 49.2436 37.3727 50.0436L37.8727 50.2436C38.3727 50.4436 38.7727 50.1436 38.7727 49.6436V46.0436C38.6727 43.8436 37.1727 41.4436 35.3727 40.6436Z" fill="#E41F30"/>
<path d="M43.0734 40.4436L42.5734 40.6436C40.7734 41.4436 39.2734 43.8436 39.2734 46.0436V49.6436C39.2734 50.2436 39.6734 50.5436 40.1734 50.2436L40.6734 50.0436C42.4734 49.2436 43.9734 46.8436 43.9734 44.6436V41.0436C43.9734 40.5436 43.5734 40.2436 43.0734 40.4436Z" fill="#E41F30"/>
<path d="M35.3727 50.6436L34.8727 50.4436C34.3727 50.2436 33.9727 50.5436 33.9727 51.0436V54.6436C33.9727 56.8436 35.4727 59.2436 37.3727 60.0436L37.8727 60.2436C38.3727 60.4436 38.7727 60.1436 38.7727 59.6436V56.0436C38.6727 53.8436 37.1727 51.4436 35.3727 50.6436Z" fill="#E41F30"/>
<path d="M43.0734 50.4436L42.5734 50.6436C40.7734 51.4436 39.2734 53.8436 39.2734 56.0436V59.6436C39.2734 60.2436 39.6734 60.5436 40.1734 60.2436L40.6734 60.0436C42.4734 59.2436 43.9734 56.8436 43.9734 54.6436V51.0436C43.9734 50.5436 43.5734 50.2436 43.0734 50.4436Z" fill="#E41F30"/>
<path d="M35.3727 60.6436L34.8727 60.4436C34.3727 60.2436 33.9727 60.5436 33.9727 61.0436V64.6436C33.9727 66.8436 35.4727 69.2436 37.3727 70.0436L37.8727 70.2436C38.3727 70.4436 38.7727 70.1436 38.7727 69.6436V66.0436C38.6727 63.8436 37.1727 61.4436 35.3727 60.6436Z" fill="#E41F30"/>
<path d="M43.0734 60.4436L42.5734 60.6436C40.7734 61.4436 39.2734 63.8436 39.2734 66.0436V69.6436C39.2734 70.2436 39.6734 70.5436 40.1734 70.2436L40.6734 70.0436C42.4734 69.2436 43.9734 66.8436 43.9734 64.6436V61.0436C43.9734 60.5436 43.5734 60.2436 43.0734 60.4436Z" fill="#E41F30"/>
<path d="M35.3727 70.6436L34.8727 70.4436C34.3727 70.2436 33.9727 70.5436 33.9727 71.0436V74.6436C33.9727 76.8436 35.4727 79.2436 37.3727 80.0436L37.8727 80.2436C38.3727 80.4436 38.7727 80.1436 38.7727 79.6436V76.0436C38.6727 73.8436 37.1727 71.4436 35.3727 70.6436Z" fill="#E41F30"/>
<path d="M43.0734 70.4436L42.5734 70.6436C40.7734 71.4436 39.2734 73.8436 39.2734 76.0436V79.6436C39.2734 80.2436 39.6734 80.5436 40.1734 80.2436L40.6734 80.0436C42.4734 79.2436 43.9734 76.8436 43.9734 74.6436V71.0436C43.9734 70.5436 43.5734 70.2436 43.0734 70.4436Z" fill="#E41F30"/>
<path d="M46.3727 10.6436L45.8727 10.4436C45.3727 10.2436 44.9727 10.5436 44.9727 11.0436V14.6436C44.9727 16.8436 46.4727 19.2436 48.3727 20.0436L48.8727 20.2436C49.3727 20.4436 49.7727 20.1436 49.7727 19.6436V16.0436C49.6727 13.8436 48.1727 11.4436 46.3727 10.6436Z" fill="#E41F30"/>
<path d="M54.0734 10.4436L53.5734 10.6436C51.7734 11.4436 50.2734 13.8436 50.2734 16.0436V19.6436C50.2734 20.2436 50.6734 20.5436 51.1734 20.2436L51.6734 20.0436C53.4734 19.2436 54.9734 16.8436 54.9734 14.6436V11.0436C54.9734 10.5436 54.5734 10.2436 54.0734 10.4436Z" fill="#E41F30"/>
<path d="M46.3727 20.6436L45.8727 20.4436C45.3727 20.2436 44.9727 20.5436 44.9727 21.0436V24.6436C44.9727 26.8436 46.4727 29.2436 48.3727 30.0436L48.8727 30.2436C49.3727 30.4436 49.7727 30.1436 49.7727 29.6436V26.0436C49.6727 23.8436 48.1727 21.4436 46.3727 20.6436Z" fill="#E41F30"/>
<path d="M54.0734 20.4436L53.5734 20.6436C51.7734 21.4436 50.2734 23.8436 50.2734 26.0436V29.6436C50.2734 30.2436 50.6734 30.5436 51.1734 30.2436L51.6734 30.0436C53.4734 29.2436 54.9734 26.8436 54.9734 24.6436V21.0436C54.9734 20.5436 54.5734 20.2436 54.0734 20.4436Z" fill="#E41F30"/>
<path d="M46.3727 30.6436L45.8727 30.4436C45.3727 30.2436 44.9727 30.5436 44.9727 31.0436V34.6436C44.9727 36.8436 46.4727 39.2436 48.3727 40.0436L48.8727 40.2436C49.3727 40.4436 49.7727 40.1436 49.7727 39.6436V36.0436C49.6727 33.8436 48.1727 31.4436 46.3727 30.6436Z" fill="#E41F30"/>
<path d="M46.3727 40.6436L45.8727 40.4436C45.3727 40.2436 44.9727 40.5436 44.9727 41.0436V44.6436C44.9727 46.8436 46.4727 49.2436 48.3727 50.0436L48.8727 50.2436C49.3727 50.4436 49.7727 50.1436 49.7727 49.6436V46.0436C49.6727 43.8436 48.1727 41.4436 46.3727 40.6436Z" fill="#E41F30"/>
<path d="M54.0734 40.4436L53.5734 40.6436C51.7734 41.4436 50.2734 43.8436 50.2734 46.0436V49.6436C50.2734 50.2436 50.6734 50.5436 51.1734 50.2436L51.6734 50.0436C53.4734 49.2436 54.9734 46.8436 54.9734 44.6436V41.0436C54.9734 40.5436 54.5734 40.2436 54.0734 40.4436Z" fill="#E41F30"/>
<path d="M46.3727 50.6436L45.8727 50.4436C45.3727 50.2436 44.9727 50.5436 44.9727 51.0436V54.6436C44.9727 56.8436 46.4727 59.2436 48.3727 60.0436L48.8727 60.2436C49.3727 60.4436 49.7727 60.1436 49.7727 59.6436V56.0436C49.6727 53.8436 48.1727 51.4436 46.3727 50.6436Z" fill="#E41F30"/>
<path d="M54.0734 50.4436L53.5734 50.6436C51.7734 51.4436 50.2734 53.8436 50.2734 56.0436V59.6436C50.2734 60.2436 50.6734 60.5436 51.1734 60.2436L51.6734 60.0436C53.4734 59.2436 54.9734 56.8436 54.9734 54.6436V51.0436C54.9734 50.5436 54.5734 50.2436 54.0734 50.4436Z" fill="#E41F30"/>
<path d="M46.3727 60.6436L45.8727 60.4436C45.3727 60.2436 44.9727 60.5436 44.9727 61.0436V64.6436C44.9727 66.8436 46.4727 69.2436 48.3727 70.0436L48.8727 70.2436C49.3727 70.4436 49.7727 70.1436 49.7727 69.6436V66.0436C49.6727 63.8436 48.1727 61.4436 46.3727 60.6436Z" fill="#E41F30"/>
<path d="M54.0734 60.4436L53.5734 60.6436C51.7734 61.4436 50.2734 63.8436 50.2734 66.0436V69.6436C50.2734 70.2436 50.6734 70.5436 51.1734 70.2436L51.6734 70.0436C53.4734 69.2436 54.9734 66.8436 54.9734 64.6436V61.0436C54.9734 60.5436 54.5734 60.2436 54.0734 60.4436Z" fill="#E41F30"/>
<path d="M46.3727 70.6436L45.8727 70.4436C45.3727 70.2436 44.9727 70.5436 44.9727 71.0436V74.6436C44.9727 76.8436 46.4727 79.2436 48.3727 80.0436L48.8727 80.2436C49.3727 80.4436 49.7727 80.1436 49.7727 79.6436V76.0436C49.6727 73.8436 48.1727 71.4436 46.3727 70.6436Z" fill="#E41F30"/>
<path d="M54.0734 70.4436L53.5734 70.6436C51.7734 71.4436 50.2734 73.8436 50.2734 76.0436V79.6436C50.2734 80.2436 50.6734 80.5436 51.1734 80.2436L51.6734 80.0436C53.4734 79.2436 54.9734 76.8436 54.9734 74.6436V71.0436C54.9734 70.5436 54.5734 70.2436 54.0734 70.4436Z" fill="#E41F30"/>
<path d="M57.3727 80.6436L56.8727 80.4436C56.3727 80.2436 55.9727 80.5436 55.9727 81.0436V84.6436C55.9727 86.8436 57.4727 89.2436 59.3727 90.0436L59.8727 90.2436C60.3727 90.4436 60.7727 90.1436 60.7727 89.6436V86.0436C60.6727 83.8436 59.1727 81.4436 57.3727 80.6436Z" fill="#E41F30"/>
<path d="M65.0734 80.4436L64.5734 80.6436C62.7734 81.4436 61.2734 83.8436 61.2734 86.0436V89.6436C61.2734 90.2436 61.6734 90.5436 62.1734 90.2436L62.6734 90.0436C64.4734 89.2436 65.9734 86.8436 65.9734 84.6436V81.0436C65.9734 80.5436 65.5734 80.2436 65.0734 80.4436Z" fill="#E41F30"/>
<path d="M13.3727 80.6436L12.8727 80.4436C12.3727 80.2436 11.9727 80.5436 11.9727 81.0436V84.6436C11.9727 86.8436 13.4727 89.2436 15.3727 90.0436L15.8727 90.2436C16.3727 90.4436 16.7727 90.1436 16.7727 89.6436V86.0436C16.6727 83.8436 15.1727 81.4436 13.3727 80.6436Z" fill="#E41F30"/>
<path d="M21.0734 80.4436L20.5734 80.6436C18.7734 81.4436 17.2734 83.8436 17.2734 86.0436V89.6436C17.2734 90.2436 17.6734 90.5436 18.1734 90.2436L18.6734 90.0436C20.4734 89.2436 21.9734 86.8436 21.9734 84.6436V81.0436C21.9734 80.5436 21.5734 80.2436 21.0734 80.4436Z" fill="#E41F30"/>
<path d="M57.3727 90.6436L56.8727 90.4436C56.3727 90.2436 55.9727 90.5436 55.9727 91.0436V94.6436C55.9727 96.8436 57.4727 99.2436 59.3727 100.044L59.8727 100.244C60.3727 100.444 60.7727 100.144 60.7727 99.6436V96.0436C60.6727 93.8436 59.1727 91.4436 57.3727 90.6436Z" fill="#E41F30"/>
<path d="M65.0734 90.4436L64.5734 90.6436C62.7734 91.4436 61.2734 93.8436 61.2734 96.0436V99.6436C61.2734 100.244 61.6734 100.544 62.1734 100.244L62.6734 100.044C64.4734 99.2436 65.9734 96.8436 65.9734 94.6436V91.0436C65.9734 90.5436 65.5734 90.2436 65.0734 90.4436Z" fill="#E41F30"/>
<path d="M13.3727 90.6436L12.8727 90.4436C12.3727 90.2436 11.9727 90.5436 11.9727 91.0436V94.6436C11.9727 96.8436 13.4727 99.2436 15.3727 100.044L15.8727 100.244C16.3727 100.444 16.7727 100.144 16.7727 99.6436V96.0436C16.6727 93.8436 15.1727 91.4436 13.3727 90.6436Z" fill="#E41F30"/>
<path d="M21.0734 90.4436L20.5734 90.6436C18.7734 91.4436 17.2734 93.8436 17.2734 96.0436V99.6436C17.2734 100.244 17.6734 100.544 18.1734 100.244L18.6734 100.044C20.4734 99.2436 21.9734 96.8436 21.9734 94.6436V91.0436C21.9734 90.5436 21.5734 90.2436 21.0734 90.4436Z" fill="#E41F30"/>
<path d="M57.3727 110.644L56.8727 110.444C56.3727 110.244 55.9727 110.544 55.9727 111.044V114.644C55.9727 116.844 57.4727 119.244 59.3727 120.044L59.8727 120.244C60.3727 120.444 60.7727 120.144 60.7727 119.644V116.044C60.6727 113.844 59.1727 111.444 57.3727 110.644Z" fill="#E41F30"/>
<path d="M65.0734 110.444L64.5734 110.644C62.7734 111.444 61.2734 113.844 61.2734 116.044V119.644C61.2734 120.244 61.6734 120.544 62.1734 120.244L62.6734 120.044C64.4734 119.244 65.9734 116.844 65.9734 114.644V111.044C65.9734 110.544 65.5734 110.244 65.0734 110.444Z" fill="#E41F30"/>
<path d="M13.3727 110.644L12.8727 110.444C12.3727 110.244 11.9727 110.544 11.9727 111.044V114.644C11.9727 116.844 13.4727 119.244 15.3727 120.044L15.8727 120.244C16.3727 120.444 16.7727 120.144 16.7727 119.644V116.044C16.6727 113.844 15.1727 111.444 13.3727 110.644Z" fill="#E41F30"/>
<path d="M21.0734 110.444L20.5734 110.644C18.7734 111.444 17.2734 113.844 17.2734 116.044V119.644C17.2734 120.244 17.6734 120.544 18.1734 120.244L18.6734 120.044C20.4734 119.244 21.9734 116.844 21.9734 114.644V111.044C21.9734 110.544 21.5734 110.244 21.0734 110.444Z" fill="#E41F30"/>
<path d="M68.3727 80.6436L67.8727 80.4436C67.3727 80.2436 66.9727 80.5436 66.9727 81.0436V84.6436C66.9727 86.8436 68.4727 89.2436 70.3727 90.0436L70.8727 90.2436C71.3727 90.4436 71.7727 90.1436 71.7727 89.6436V86.0436C71.6727 83.8436 70.1727 81.4436 68.3727 80.6436Z" fill="#E41F30"/>
<path d="M76.0734 80.4436L75.5734 80.6436C73.7734 81.4436 72.2734 83.8436 72.2734 86.0436V89.6436C72.2734 90.2436 72.6734 90.5436 73.1734 90.2436L73.6734 90.0436C75.4734 89.2436 76.9734 86.8436 76.9734 84.6436V81.0436C76.9734 80.5436 76.5734 80.2436 76.0734 80.4436Z" fill="#E41F30"/>
<path d="M24.3727 80.6436L23.8727 80.4436C23.3727 80.2436 22.9727 80.5436 22.9727 81.0436V84.6436C22.9727 86.8436 24.4727 89.2436 26.3727 90.0436L26.8727 90.2436C27.3727 90.4436 27.7727 90.1436 27.7727 89.6436V86.0436C27.6727 83.8436 26.1727 81.4436 24.3727 80.6436Z" fill="#E41F30"/>
<path d="M32.0734 80.4436L31.5734 80.6436C29.7734 81.4436 28.2734 83.8436 28.2734 86.0436V89.6436C28.2734 90.2436 28.6734 90.5436 29.1734 90.2436L29.6734 90.0436C31.4734 89.2436 32.9734 86.8436 32.9734 84.6436V81.0436C32.9734 80.5436 32.5734 80.2436 32.0734 80.4436Z" fill="#E41F30"/>
<path d="M68.3727 90.6436L67.8727 90.4436C67.3727 90.2436 66.9727 90.5436 66.9727 91.0436V94.6436C66.9727 96.8436 68.4727 99.2436 70.3727 100.044L70.8727 100.244C71.3727 100.444 71.7727 100.144 71.7727 99.6436V96.0436C71.6727 93.8436 70.1727 91.4436 68.3727 90.6436Z" fill="#E41F30"/>
<path d="M76.0734 90.4436L75.5734 90.6436C73.7734 91.4436 72.2734 93.8436 72.2734 96.0436V99.6436C72.2734 100.244 72.6734 100.544 73.1734 100.244L73.6734 100.044C75.4734 99.2436 76.9734 96.8436 76.9734 94.6436V91.0436C76.9734 90.5436 76.5734 90.2436 76.0734 90.4436Z" fill="#E41F30"/>
<path d="M24.3727 90.6436L23.8727 90.4436C23.3727 90.2436 22.9727 90.5436 22.9727 91.0436V94.6436C22.9727 96.8436 24.4727 99.2436 26.3727 100.044L26.8727 100.244C27.3727 100.444 27.7727 100.144 27.7727 99.6436V96.0436C27.6727 93.8436 26.1727 91.4436 24.3727 90.6436Z" fill="#E41F30"/>
<path d="M32.0734 90.4436L31.5734 90.6436C29.7734 91.4436 28.2734 93.8436 28.2734 96.0436V99.6436C28.2734 100.244 28.6734 100.544 29.1734 100.244L29.6734 100.044C31.4734 99.2436 32.9734 96.8436 32.9734 94.6436V91.0436C32.9734 90.5436 32.5734 90.2436 32.0734 90.4436Z" fill="#E41F30"/>
<path d="M68.3727 110.644L67.8727 110.444C67.3727 110.244 66.9727 110.544 66.9727 111.044V114.644C66.9727 116.844 68.4727 119.244 70.3727 120.044L70.8727 120.244C71.3727 120.444 71.7727 120.144 71.7727 119.644V116.044C71.6727 113.844 70.1727 111.444 68.3727 110.644Z" fill="#E41F30"/>
<path d="M76.0734 110.444L75.5734 110.644C73.7734 111.444 72.2734 113.844 72.2734 116.044V119.644C72.2734 120.244 72.6734 120.544 73.1734 120.244L73.6734 120.044C75.4734 119.244 76.9734 116.844 76.9734 114.644V111.044C76.9734 110.544 76.5734 110.244 76.0734 110.444Z" fill="#E41F30"/>
<path d="M24.3727 110.644L23.8727 110.444C23.3727 110.244 22.9727 110.544 22.9727 111.044V114.644C22.9727 116.844 24.4727 119.244 26.3727 120.044L26.8727 120.244C27.3727 120.444 27.7727 120.144 27.7727 119.644V116.044C27.6727 113.844 26.1727 111.444 24.3727 110.644Z" fill="#E41F30"/>
<path d="M32.0734 110.444L31.5734 110.644C29.7734 111.444 28.2734 113.844 28.2734 116.044V119.644C28.2734 120.244 28.6734 120.544 29.1734 120.244L29.6734 120.044C31.4734 119.244 32.9734 116.844 32.9734 114.644V111.044C32.9734 110.544 32.5734 110.244 32.0734 110.444Z" fill="#E41F30"/>
<path d="M35.3727 80.6436L34.8727 80.4436C34.3727 80.2436 33.9727 80.5436 33.9727 81.0436V84.6436C33.9727 86.8436 35.4727 89.2436 37.3727 90.0436L37.8727 90.2436C38.3727 90.4436 38.7727 90.1436 38.7727 89.6436V86.0436C38.6727 83.8436 37.1727 81.4436 35.3727 80.6436Z" fill="#E41F30"/>
<path d="M43.0734 80.4436L42.5734 80.6436C40.7734 81.4436 39.2734 83.8436 39.2734 86.0436V89.6436C39.2734 90.2436 39.6734 90.5436 40.1734 90.2436L40.6734 90.0436C42.4734 89.2436 43.9734 86.8436 43.9734 84.6436V81.0436C43.9734 80.5436 43.5734 80.2436 43.0734 80.4436Z" fill="#E41F30"/>
<path d="M79.3727 90.6436L78.8727 90.4436C78.3727 90.2436 77.9727 90.5436 77.9727 91.0436V94.6436C77.9727 96.8436 79.4727 99.2436 81.3727 100.044L81.8727 100.244C82.3727 100.444 82.7727 100.144 82.7727 99.6436V96.0436C82.6727 93.8436 81.1727 91.4436 79.3727 90.6436Z" fill="#E41F30"/>
<path d="M35.3727 90.6436L34.8727 90.4436C34.3727 90.2436 33.9727 90.5436 33.9727 91.0436V94.6436C33.9727 96.8436 35.4727 99.2436 37.3727 100.044L37.8727 100.244C38.3727 100.444 38.7727 100.144 38.7727 99.6436V96.0436C38.6727 93.8436 37.1727 91.4436 35.3727 90.6436Z" fill="#E41F30"/>
<path d="M43.0734 90.4436L42.5734 90.6436C40.7734 91.4436 39.2734 93.8436 39.2734 96.0436V99.6436C39.2734 100.244 39.6734 100.544 40.1734 100.244L40.6734 100.044C42.4734 99.2436 43.9734 96.8436 43.9734 94.6436V91.0436C43.9734 90.5436 43.5734 90.2436 43.0734 90.4436Z" fill="#E41F30"/>
<path d="M79.3727 110.644L78.8727 110.444C78.3727 110.244 77.9727 110.544 77.9727 111.044V114.644C77.9727 116.844 79.4727 119.244 81.3727 120.044L81.8727 120.244C82.3727 120.444 82.7727 120.144 82.7727 119.644V116.044C82.6727 113.844 81.1727 111.444 79.3727 110.644Z" fill="#E41F30"/>
<path d="M87.0734 110.444L86.5734 110.644C84.7734 111.444 83.2734 113.844 83.2734 116.044V119.644C83.2734 120.244 83.6734 120.544 84.1734 120.244L84.6734 120.044C86.4734 119.244 87.9734 116.844 87.9734 114.644V111.044C87.9734 110.544 87.5734 110.244 87.0734 110.444Z" fill="#E41F30"/>
<path d="M35.3727 110.644L34.8727 110.444C34.3727 110.244 33.9727 110.544 33.9727 111.044V114.644C33.9727 116.844 35.4727 119.244 37.3727 120.044L37.8727 120.244C38.3727 120.444 38.7727 120.144 38.7727 119.644V116.044C38.6727 113.844 37.1727 111.444 35.3727 110.644Z" fill="#E41F30"/>
<path d="M43.0734 110.444L42.5734 110.644C40.7734 111.444 39.2734 113.844 39.2734 116.044V119.644C39.2734 120.244 39.6734 120.544 40.1734 120.244L40.6734 120.044C42.4734 119.244 43.9734 116.844 43.9734 114.644V111.044C43.9734 110.544 43.5734 110.244 43.0734 110.444Z" fill="#E41F30"/>
<path d="M35.3727 120.644L34.8727 120.444C34.3727 120.244 33.9727 120.544 33.9727 121.044V124.644C33.9727 126.844 35.4727 129.244 37.3727 130.044L37.8727 130.244C38.3727 130.444 38.7727 130.144 38.7727 129.644V126.044C38.6727 123.844 37.1727 121.444 35.3727 120.644Z" fill="#E41F30"/>
<path d="M43.0734 120.444L42.5734 120.644C40.7734 121.444 39.2734 123.844 39.2734 126.044V129.644C39.2734 130.244 39.6734 130.544 40.1734 130.244L40.6734 130.044C42.4734 129.244 43.9734 126.844 43.9734 124.644V121.044C43.9734 120.544 43.5734 120.244 43.0734 120.444Z" fill="#E41F30"/>
<path d="M46.3727 80.6436L45.8727 80.4436C45.3727 80.2436 44.9727 80.5436 44.9727 81.0436V84.6436C44.9727 86.8436 46.4727 89.2436 48.3727 90.0436L48.8727 90.2436C49.3727 90.4436 49.7727 90.1436 49.7727 89.6436V86.0436C49.6727 83.8436 48.1727 81.4436 46.3727 80.6436Z" fill="#E41F30"/>
<path d="M54.0734 80.4436L53.5734 80.6436C51.7734 81.4436 50.2734 83.8436 50.2734 86.0436V89.6436C50.2734 90.2436 50.6734 90.5436 51.1734 90.2436L51.6734 90.0436C53.4734 89.2436 54.9734 86.8436 54.9734 84.6436V81.0436C54.9734 80.5436 54.5734 80.2436 54.0734 80.4436Z" fill="#E41F30"/>
<path d="M46.3727 90.6436L45.8727 90.4436C45.3727 90.2436 44.9727 90.5436 44.9727 91.0436V94.6436C44.9727 96.8436 46.4727 99.2436 48.3727 100.044L48.8727 100.244C49.3727 100.444 49.7727 100.144 49.7727 99.6436V96.0436C49.6727 93.8436 48.1727 91.4436 46.3727 90.6436Z" fill="#E41F30"/>
<path d="M54.0734 90.4436L53.5734 90.6436C51.7734 91.4436 50.2734 93.8436 50.2734 96.0436V99.6436C50.2734 100.244 50.6734 100.544 51.1734 100.244L51.6734 100.044C53.4734 99.2436 54.9734 96.8436 54.9734 94.6436V91.0436C54.9734 90.5436 54.5734 90.2436 54.0734 90.4436Z" fill="#E41F30"/>
<path d="M10.0734 90.4436L9.57344 90.6436C7.77344 91.4436 6.27344 93.8436 6.27344 96.0436V99.6436C6.27344 100.244 6.67344 100.544 7.17344 100.244L7.67344 100.044C9.47344 99.2436 10.9734 96.8436 10.9734 94.6436V91.0436C10.9734 90.5436 10.5734 90.2436 10.0734 90.4436Z" fill="#E41F30"/>
<path d="M46.3727 110.644L45.8727 110.444C45.3727 110.244 44.9727 110.544 44.9727 111.044V114.644C44.9727 116.844 46.4727 119.244 48.3727 120.044L48.8727 120.244C49.3727 120.444 49.7727 120.144 49.7727 119.644V116.044C49.6727 113.844 48.1727 111.444 46.3727 110.644Z" fill="#E41F30"/>
<path d="M54.0734 110.444L53.5734 110.644C51.7734 111.444 50.2734 113.844 50.2734 116.044V119.644C50.2734 120.244 50.6734 120.544 51.1734 120.244L51.6734 120.044C53.4734 119.244 54.9734 116.844 54.9734 114.644V111.044C54.9734 110.544 54.5734 110.244 54.0734 110.444Z" fill="#E41F30"/>
<path d="M2.37266 110.644L1.87266 110.444C1.37266 110.244 0.972656 110.544 0.972656 111.044V114.644C0.972656 116.844 2.47266 119.244 4.37266 120.044L4.87266 120.244C5.37266 120.444 5.77266 120.144 5.77266 119.644V116.044C5.67266 113.844 4.17266 111.444 2.37266 110.644Z" fill="#E41F30"/>
<path d="M10.0734 110.444L9.57344 110.644C7.77344 111.444 6.27344 113.844 6.27344 116.044V119.644C6.27344 120.244 6.67344 120.544 7.17344 120.244L7.67344 120.044C9.47344 119.244 10.9734 116.844 10.9734 114.644V111.044C10.9734 110.544 10.5734 110.244 10.0734 110.444Z" fill="#E41F30"/>
<path d="M46.3727 120.644L45.8727 120.444C45.3727 120.244 44.9727 120.544 44.9727 121.044V124.644C44.9727 126.844 46.4727 129.244 48.3727 130.044L48.8727 130.244C49.3727 130.444 49.7727 130.144 49.7727 129.644V126.044C49.6727 123.844 48.1727 121.444 46.3727 120.644Z" fill="#E41F30"/>
<path d="M54.0734 120.444L53.5734 120.644C51.7734 121.444 50.2734 123.844 50.2734 126.044V129.644C50.2734 130.244 50.6734 130.544 51.1734 130.244L51.6734 130.044C53.4734 129.244 54.9734 126.844 54.9734 124.644V121.044C54.9734 120.544 54.5734 120.244 54.0734 120.444Z" fill="#E41F30"/>
</svg>
