<svg width="144" height="131" viewBox="0 0 144 131" fill="none" xmlns="http://www.w3.org/2000/svg">
<path d="M35.8727 40.6337L35.3727 40.4337C34.8727 40.2337 34.4727 40.5337 34.4727 41.0337V44.6337C34.4727 46.8337 35.9727 49.2337 37.8727 50.0337L38.3727 50.2337C38.8727 50.4337 39.2727 50.1337 39.2727 49.6337V46.0337C39.1727 43.8337 37.6727 41.4337 35.8727 40.6337Z" fill="#E41F30"/>
<path d="M43.5734 40.4337L43.0734 40.6337C41.2734 41.4337 39.7734 43.8337 39.7734 46.0337V49.6337C39.7734 50.2337 40.1734 50.5337 40.6734 50.2337L41.1734 50.0337C42.9734 49.2337 44.4734 46.8337 44.4734 44.6337V41.0337C44.4734 40.5337 44.0734 40.2337 43.5734 40.4337Z" fill="#E41F30"/>
<path d="M109.073 40.6337L109.573 40.4337C110.073 40.2337 110.473 40.5337 110.473 41.0337V44.6337C110.473 46.8337 108.973 49.2337 107.073 50.0337L106.573 50.2337C106.073 50.4337 105.673 50.1337 105.673 49.6337V46.0337C105.773 43.8337 107.273 41.4337 109.073 40.6337Z" fill="#E41F30"/>
<path d="M101.372 40.4337L101.872 40.6337C103.672 41.4337 105.172 43.8337 105.172 46.0337V49.6337C105.172 50.2337 104.772 50.5337 104.272 50.2337L103.772 50.0337C101.972 49.2337 100.472 46.8337 100.472 44.6337V41.0337C100.472 40.5337 100.872 40.2337 101.372 40.4337Z" fill="#E41F30"/>
<path d="M35.8727 50.6337L35.3727 50.4337C34.8727 50.2337 34.4727 50.5337 34.4727 51.0337V54.6337C34.4727 56.8337 35.9727 59.2337 37.8727 60.0337L38.3727 60.2337C38.8727 60.4337 39.2727 60.1337 39.2727 59.6337V56.0337C39.1727 53.8337 37.6727 51.4337 35.8727 50.6337Z" fill="#E41F30"/>
<path d="M43.5734 50.4337L43.0734 50.6337C41.2734 51.4337 39.7734 53.8337 39.7734 56.0337V59.6337C39.7734 60.2337 40.1734 60.5337 40.6734 60.2337L41.1734 60.0337C42.9734 59.2337 44.4734 56.8337 44.4734 54.6337V51.0337C44.4734 50.5337 44.0734 50.2337 43.5734 50.4337Z" fill="#E41F30"/>
<path d="M109.073 50.6337L109.573 50.4337C110.073 50.2337 110.473 50.5337 110.473 51.0337V54.6337C110.473 56.8337 108.973 59.2337 107.073 60.0337L106.573 60.2337C106.073 60.4337 105.673 60.1337 105.673 59.6337V56.0337C105.773 53.8337 107.273 51.4337 109.073 50.6337Z" fill="#E41F30"/>
<path d="M101.372 50.4337L101.872 50.6337C103.672 51.4337 105.172 53.8337 105.172 56.0337V59.6337C105.172 60.2337 104.772 60.5337 104.272 60.2337L103.772 60.0337C101.972 59.2337 100.472 56.8337 100.472 54.6337V51.0337C100.472 50.5337 100.872 50.2337 101.372 50.4337Z" fill="#E41F30"/>
<path d="M35.8727 60.6337L35.3727 60.4337C34.8727 60.2337 34.4727 60.5337 34.4727 61.0337V64.6337C34.4727 66.8337 35.9727 69.2337 37.8727 70.0337L38.3727 70.2337C38.8727 70.4337 39.2727 70.1337 39.2727 69.6337V66.0337C39.1727 63.8337 37.6727 61.4337 35.8727 60.6337Z" fill="#E41F30"/>
<path d="M43.5734 60.4337L43.0734 60.6337C41.2734 61.4337 39.7734 63.8337 39.7734 66.0337V69.6337C39.7734 70.2337 40.1734 70.5337 40.6734 70.2337L41.1734 70.0337C42.9734 69.2337 44.4734 66.8337 44.4734 64.6337V61.0337C44.4734 60.5337 44.0734 60.2337 43.5734 60.4337Z" fill="#E41F30"/>
<path d="M109.073 60.6337L109.573 60.4337C110.073 60.2337 110.473 60.5337 110.473 61.0337V64.6337C110.473 66.8337 108.973 69.2337 107.073 70.0337L106.573 70.2337C106.073 70.4337 105.673 70.1337 105.673 69.6337V66.0337C105.773 63.8337 107.273 61.4337 109.073 60.6337Z" fill="#E41F30"/>
<path d="M101.372 60.4337L101.872 60.6337C103.672 61.4337 105.172 63.8337 105.172 66.0337V69.6337C105.172 70.2337 104.772 70.5337 104.272 70.2337L103.772 70.0337C101.972 69.2337 100.472 66.8337 100.472 64.6337V61.0337C100.472 60.5337 100.872 60.2337 101.372 60.4337Z" fill="#E41F30"/>
<path d="M46.8727 40.6337L46.3727 40.4337C45.8727 40.2337 45.4727 40.5337 45.4727 41.0337V44.6337C45.4727 46.8337 46.9727 49.2337 48.8727 50.0337L49.3727 50.2337C49.8727 50.4337 50.2727 50.1337 50.2727 49.6337V46.0337C50.1727 43.8337 48.6727 41.4337 46.8727 40.6337Z" fill="#E41F30"/>
<path d="M54.5734 40.4337L54.0734 40.6337C52.2734 41.4337 50.7734 43.8337 50.7734 46.0337V49.6337C50.7734 50.2337 51.1734 50.5337 51.6734 50.2337L52.1734 50.0337C53.9734 49.2337 55.4734 46.8337 55.4734 44.6337V41.0337C55.4734 40.5337 55.0734 40.2337 54.5734 40.4337Z" fill="#E41F30"/>
<path d="M98.0727 40.6337L98.5727 40.4337C99.0727 40.2337 99.4727 40.5337 99.4727 41.0337V44.6337C99.4727 46.8337 97.9727 49.2337 96.0727 50.0337L95.5727 50.2337C95.0727 50.4337 94.6727 50.1337 94.6727 49.6337V46.0337C94.7727 43.8337 96.2727 41.4337 98.0727 40.6337Z" fill="#E41F30"/>
<path d="M90.3719 40.4337L90.8719 40.6337C92.6719 41.4337 94.1719 43.8337 94.1719 46.0337V49.6337C94.1719 50.2337 93.7719 50.5337 93.2719 50.2337L92.7719 50.0337C90.9719 49.2337 89.4719 46.8337 89.4719 44.6337V41.0337C89.4719 40.5337 89.8719 40.2337 90.3719 40.4337Z" fill="#E41F30"/>
<path d="M46.8727 50.6337L46.3727 50.4337C45.8727 50.2337 45.4727 50.5337 45.4727 51.0337V54.6337C45.4727 56.8337 46.9727 59.2337 48.8727 60.0337L49.3727 60.2337C49.8727 60.4337 50.2727 60.1337 50.2727 59.6337V56.0337C50.1727 53.8337 48.6727 51.4337 46.8727 50.6337Z" fill="#E41F30"/>
<path d="M54.5734 50.4337L54.0734 50.6337C52.2734 51.4337 50.7734 53.8337 50.7734 56.0337V59.6337C50.7734 60.2337 51.1734 60.5337 51.6734 60.2337L52.1734 60.0337C53.9734 59.2337 55.4734 56.8337 55.4734 54.6337V51.0337C55.4734 50.5337 55.0734 50.2337 54.5734 50.4337Z" fill="#E41F30"/>
<path d="M98.0727 50.6337L98.5727 50.4337C99.0727 50.2337 99.4727 50.5337 99.4727 51.0337V54.6337C99.4727 56.8337 97.9727 59.2337 96.0727 60.0337L95.5727 60.2337C95.0727 60.4337 94.6727 60.1337 94.6727 59.6337V56.0337C94.7727 53.8337 96.2727 51.4337 98.0727 50.6337Z" fill="#E41F30"/>
<path d="M90.3719 50.4337L90.8719 50.6337C92.6719 51.4337 94.1719 53.8337 94.1719 56.0337V59.6337C94.1719 60.2337 93.7719 60.5337 93.2719 60.2337L92.7719 60.0337C90.9719 59.2337 89.4719 56.8337 89.4719 54.6337V51.0337C89.4719 50.5337 89.8719 50.2337 90.3719 50.4337Z" fill="#E41F30"/>
<path d="M46.8727 60.6337L46.3727 60.4337C45.8727 60.2337 45.4727 60.5337 45.4727 61.0337V64.6337C45.4727 66.8337 46.9727 69.2337 48.8727 70.0337L49.3727 70.2337C49.8727 70.4337 50.2727 70.1337 50.2727 69.6337V66.0337C50.1727 63.8337 48.6727 61.4337 46.8727 60.6337Z" fill="#E41F30"/>
<path d="M54.5734 60.4337L54.0734 60.6337C52.2734 61.4337 50.7734 63.8337 50.7734 66.0337V69.6337C50.7734 70.2337 51.1734 70.5337 51.6734 70.2337L52.1734 70.0337C53.9734 69.2337 55.4734 66.8337 55.4734 64.6337V61.0337C55.4734 60.5337 55.0734 60.2337 54.5734 60.4337Z" fill="#E41F30"/>
<path d="M98.0727 60.6337L98.5727 60.4337C99.0727 60.2337 99.4727 60.5337 99.4727 61.0337V64.6337C99.4727 66.8337 97.9727 69.2337 96.0727 70.0337L95.5727 70.2337C95.0727 70.4337 94.6727 70.1337 94.6727 69.6337V66.0337C94.7727 63.8337 96.2727 61.4337 98.0727 60.6337Z" fill="#E41F30"/>
<path d="M90.3719 60.4337L90.8719 60.6337C92.6719 61.4337 94.1719 63.8337 94.1719 66.0337V69.6337C94.1719 70.2337 93.7719 70.5337 93.2719 70.2337L92.7719 70.0337C90.9719 69.2337 89.4719 66.8337 89.4719 64.6337V61.0337C89.4719 60.5337 89.8719 60.2337 90.3719 60.4337Z" fill="#E41F30"/>
<path d="M46.8727 70.6338L46.3727 70.4338C45.8727 70.2338 45.4727 70.5338 45.4727 71.0338V74.6338C45.4727 76.8338 46.9727 79.2338 48.8727 80.0338L49.3727 80.2338C49.8727 80.4338 50.2727 80.1338 50.2727 79.6338V76.0338C50.1727 73.8338 48.6727 71.4338 46.8727 70.6338Z" fill="#E41F30"/>
<path d="M54.5734 70.4338L54.0734 70.6338C52.2734 71.4338 50.7734 73.8338 50.7734 76.0338V79.6338C50.7734 80.2338 51.1734 80.5338 51.6734 80.2338L52.1734 80.0338C53.9734 79.2338 55.4734 76.8338 55.4734 74.6338V71.0338C55.4734 70.5338 55.0734 70.2338 54.5734 70.4338Z" fill="#E41F30"/>
<path d="M98.0727 70.6338L98.5727 70.4338C99.0727 70.2338 99.4727 70.5338 99.4727 71.0338V74.6338C99.4727 76.8338 97.9727 79.2338 96.0727 80.0338L95.5727 80.2338C95.0727 80.4338 94.6727 80.1338 94.6727 79.6338V76.0338C94.7727 73.8338 96.2727 71.4338 98.0727 70.6338Z" fill="#E41F30"/>
<path d="M90.3719 70.4338L90.8719 70.6338C92.6719 71.4338 94.1719 73.8338 94.1719 76.0338V79.6338C94.1719 80.2338 93.7719 80.5338 93.2719 80.2338L92.7719 80.0338C90.9719 79.2338 89.4719 76.8338 89.4719 74.6338V71.0338C89.4719 70.5338 89.8719 70.2338 90.3719 70.4338Z" fill="#E41F30"/>
<path d="M57.8727 30.6337L57.3727 30.4337C56.8727 30.2337 56.4727 30.5337 56.4727 31.0337V34.6337C56.4727 36.8337 57.9727 39.2337 59.8727 40.0337L60.3727 40.2337C60.8727 40.4337 61.2727 40.1337 61.2727 39.6337V36.0337C61.1727 33.8337 59.6727 31.4337 57.8727 30.6337Z" fill="#E41F30"/>
<path d="M65.5734 30.4337L65.0734 30.6337C63.2734 31.4337 61.7734 33.8337 61.7734 36.0337V39.6337C61.7734 40.2337 62.1734 40.5337 62.6734 40.2337L63.1734 40.0337C64.9734 39.2337 66.4734 36.8337 66.4734 34.6337V31.0337C66.4734 30.5337 66.0734 30.2337 65.5734 30.4337Z" fill="#E41F30"/>
<path d="M87.0727 30.6337L87.5727 30.4337C88.0727 30.2337 88.4727 30.5337 88.4727 31.0337V34.6337C88.4727 36.8337 86.9727 39.2337 85.0727 40.0337L84.5727 40.2337C84.0727 40.4337 83.6727 40.1337 83.6727 39.6337V36.0337C83.7727 33.8337 85.2727 31.4337 87.0727 30.6337Z" fill="#E41F30"/>
<path d="M79.3719 30.4337L79.8719 30.6337C81.6719 31.4337 83.1719 33.8337 83.1719 36.0337V39.6337C83.1719 40.2337 82.7719 40.5337 82.2719 40.2337L81.7719 40.0337C79.9719 39.2337 78.4719 36.8337 78.4719 34.6337V31.0337C78.4719 30.5337 78.8719 30.2337 79.3719 30.4337Z" fill="#E41F30"/>
<path d="M57.8727 40.6337L57.3727 40.4337C56.8727 40.2337 56.4727 40.5337 56.4727 41.0337V44.6337C56.4727 46.8337 57.9727 49.2337 59.8727 50.0337L60.3727 50.2337C60.8727 50.4337 61.2727 50.1337 61.2727 49.6337V46.0337C61.1727 43.8337 59.6727 41.4337 57.8727 40.6337Z" fill="#E41F30"/>
<path d="M65.5734 40.4337L65.0734 40.6337C63.2734 41.4337 61.7734 43.8337 61.7734 46.0337V49.6337C61.7734 50.2337 62.1734 50.5337 62.6734 50.2337L63.1734 50.0337C64.9734 49.2337 66.4734 46.8337 66.4734 44.6337V41.0337C66.4734 40.5337 66.0734 40.2337 65.5734 40.4337Z" fill="#E41F30"/>
<path d="M87.0727 40.6337L87.5727 40.4337C88.0727 40.2337 88.4727 40.5337 88.4727 41.0337V44.6337C88.4727 46.8337 86.9727 49.2337 85.0727 50.0337L84.5727 50.2337C84.0727 50.4337 83.6727 50.1337 83.6727 49.6337V46.0337C83.7727 43.8337 85.2727 41.4337 87.0727 40.6337Z" fill="#E41F30"/>
<path d="M79.3719 40.4337L79.8719 40.6337C81.6719 41.4337 83.1719 43.8337 83.1719 46.0337V49.6337C83.1719 50.2337 82.7719 50.5337 82.2719 50.2337L81.7719 50.0337C79.9719 49.2337 78.4719 46.8337 78.4719 44.6337V41.0337C78.4719 40.5337 78.8719 40.2337 79.3719 40.4337Z" fill="#E41F30"/>
<path d="M13.8727 40.6337L13.3727 40.4337C12.8727 40.2337 12.4727 40.5337 12.4727 41.0337V44.6337C12.4727 46.8337 13.9727 49.2337 15.8727 50.0337L16.3727 50.2337C16.8727 50.4337 17.2727 50.1337 17.2727 49.6337V46.0337C17.1727 43.8337 15.6727 41.4337 13.8727 40.6337Z" fill="#E41F30"/>
<path d="M21.5734 40.4337L21.0734 40.6337C19.2734 41.4337 17.7734 43.8337 17.7734 46.0337V49.6337C17.7734 50.2337 18.1734 50.5337 18.6734 50.2337L19.1734 50.0337C20.9734 49.2337 22.4734 46.8337 22.4734 44.6337V41.0337C22.4734 40.5337 22.0734 40.2337 21.5734 40.4337Z" fill="#E41F30"/>
<path d="M131.073 40.6337L131.573 40.4337C132.073 40.2337 132.473 40.5337 132.473 41.0337V44.6337C132.473 46.8337 130.973 49.2337 129.073 50.0337L128.573 50.2337C128.073 50.4337 127.673 50.1337 127.673 49.6337V46.0337C127.773 43.8337 129.273 41.4337 131.073 40.6337Z" fill="#E41F30"/>
<path d="M123.372 40.4337L123.872 40.6337C125.672 41.4337 127.172 43.8337 127.172 46.0337V49.6337C127.172 50.2337 126.772 50.5337 126.272 50.2337L125.772 50.0337C123.972 49.2337 122.472 46.8337 122.472 44.6337V41.0337C122.472 40.5337 122.872 40.2337 123.372 40.4337Z" fill="#E41F30"/>
<path d="M57.8727 50.6337L57.3727 50.4337C56.8727 50.2337 56.4727 50.5337 56.4727 51.0337V54.6337C56.4727 56.8337 57.9727 59.2337 59.8727 60.0337L60.3727 60.2337C60.8727 60.4337 61.2727 60.1337 61.2727 59.6337V56.0337C61.1727 53.8337 59.6727 51.4337 57.8727 50.6337Z" fill="#E41F30"/>
<path d="M65.5734 50.4337L65.0734 50.6337C63.2734 51.4337 61.7734 53.8337 61.7734 56.0337V59.6337C61.7734 60.2337 62.1734 60.5337 62.6734 60.2337L63.1734 60.0337C64.9734 59.2337 66.4734 56.8337 66.4734 54.6337V51.0337C66.4734 50.5337 66.0734 50.2337 65.5734 50.4337Z" fill="#E41F30"/>
<path d="M87.0727 50.6337L87.5727 50.4337C88.0727 50.2337 88.4727 50.5337 88.4727 51.0337V54.6337C88.4727 56.8337 86.9727 59.2337 85.0727 60.0337L84.5727 60.2337C84.0727 60.4337 83.6727 60.1337 83.6727 59.6337V56.0337C83.7727 53.8337 85.2727 51.4337 87.0727 50.6337Z" fill="#E41F30"/>
<path d="M79.3719 50.4337L79.8719 50.6337C81.6719 51.4337 83.1719 53.8337 83.1719 56.0337V59.6337C83.1719 60.2337 82.7719 60.5337 82.2719 60.2337L81.7719 60.0337C79.9719 59.2337 78.4719 56.8337 78.4719 54.6337V51.0337C78.4719 50.5337 78.8719 50.2337 79.3719 50.4337Z" fill="#E41F30"/>
<path d="M57.8727 60.6337L57.3727 60.4337C56.8727 60.2337 56.4727 60.5337 56.4727 61.0337V64.6337C56.4727 66.8337 57.9727 69.2337 59.8727 70.0337L60.3727 70.2337C60.8727 70.4337 61.2727 70.1337 61.2727 69.6337V66.0337C61.1727 63.8337 59.6727 61.4337 57.8727 60.6337Z" fill="#E41F30"/>
<path d="M65.5734 60.4337L65.0734 60.6337C63.2734 61.4337 61.7734 63.8337 61.7734 66.0337V69.6337C61.7734 70.2337 62.1734 70.5337 62.6734 70.2337L63.1734 70.0337C64.9734 69.2337 66.4734 66.8337 66.4734 64.6337V61.0337C66.4734 60.5337 66.0734 60.2337 65.5734 60.4337Z" fill="#E41F30"/>
<path d="M87.0727 60.6337L87.5727 60.4337C88.0727 60.2337 88.4727 60.5337 88.4727 61.0337V64.6337C88.4727 66.8337 86.9727 69.2337 85.0727 70.0337L84.5727 70.2337C84.0727 70.4337 83.6727 70.1337 83.6727 69.6337V66.0337C83.7727 63.8337 85.2727 61.4337 87.0727 60.6337Z" fill="#E41F30"/>
<path d="M79.3719 60.4337L79.8719 60.6337C81.6719 61.4337 83.1719 63.8337 83.1719 66.0337V69.6337C83.1719 70.2337 82.7719 70.5337 82.2719 70.2337L81.7719 70.0337C79.9719 69.2337 78.4719 66.8337 78.4719 64.6337V61.0337C78.4719 60.5337 78.8719 60.2337 79.3719 60.4337Z" fill="#E41F30"/>
<path d="M57.8727 70.6338L57.3727 70.4338C56.8727 70.2338 56.4727 70.5338 56.4727 71.0338V74.6338C56.4727 76.8338 57.9727 79.2338 59.8727 80.0338L60.3727 80.2338C60.8727 80.4338 61.2727 80.1338 61.2727 79.6338V76.0338C61.1727 73.8338 59.6727 71.4338 57.8727 70.6338Z" fill="#E41F30"/>
<path d="M65.5734 70.4338L65.0734 70.6338C63.2734 71.4338 61.7734 73.8338 61.7734 76.0338V79.6338C61.7734 80.2338 62.1734 80.5338 62.6734 80.2338L63.1734 80.0338C64.9734 79.2338 66.4734 76.8338 66.4734 74.6338V71.0338C66.4734 70.5338 66.0734 70.2338 65.5734 70.4338Z" fill="#E41F30"/>
<path d="M87.0727 70.6338L87.5727 70.4338C88.0727 70.2338 88.4727 70.5338 88.4727 71.0338V74.6338C88.4727 76.8338 86.9727 79.2338 85.0727 80.0338L84.5727 80.2338C84.0727 80.4338 83.6727 80.1338 83.6727 79.6338V76.0338C83.7727 73.8338 85.2727 71.4338 87.0727 70.6338Z" fill="#E41F30"/>
<path d="M79.3719 70.4338L79.8719 70.6338C81.6719 71.4338 83.1719 73.8338 83.1719 76.0338V79.6338C83.1719 80.2338 82.7719 80.5338 82.2719 80.2338L81.7719 80.0338C79.9719 79.2338 78.4719 76.8338 78.4719 74.6338V71.0338C78.4719 70.5338 78.8719 70.2338 79.3719 70.4338Z" fill="#E41F30"/>
<path d="M68.8727 0.63374L68.3727 0.43374C67.8727 0.23374 67.4727 0.53374 67.4727 1.03374V4.63374C67.4727 6.83374 68.9727 9.23374 70.8727 10.0337L71.3727 10.2337C71.8727 10.4337 72.2727 10.1337 72.2727 9.63374V6.03374C72.1727 3.83374 70.6727 1.43374 68.8727 0.63374Z" fill="#E41F30"/>
<path d="M76.5734 0.43374L76.0734 0.63374C74.2734 1.43374 72.7734 3.83374 72.7734 6.03374V9.63374C72.7734 10.2337 73.1734 10.5337 73.6734 10.2337L74.1734 10.0337C75.9734 9.23374 77.4734 6.83374 77.4734 4.63374V1.03374C77.4734 0.53374 77.0734 0.23374 76.5734 0.43374Z" fill="#E41F30"/>
<path d="M68.8727 10.6337L68.3727 10.4337C67.8727 10.2337 67.4727 10.5337 67.4727 11.0337V14.6337C67.4727 16.8337 68.9727 19.2337 70.8727 20.0337L71.3727 20.2337C71.8727 20.4337 72.2727 20.1337 72.2727 19.6337V16.0337C72.1727 13.8337 70.6727 11.4337 68.8727 10.6337Z" fill="#E41F30"/>
<path d="M76.5734 10.4337L76.0734 10.6337C74.2734 11.4337 72.7734 13.8337 72.7734 16.0337V19.6337C72.7734 20.2337 73.1734 20.5337 73.6734 20.2337L74.1734 20.0337C75.9734 19.2337 77.4734 16.8337 77.4734 14.6337V11.0337C77.4734 10.5337 77.0734 10.2337 76.5734 10.4337Z" fill="#E41F30"/>
<path d="M68.8727 20.6337L68.3727 20.4337C67.8727 20.2337 67.4727 20.5337 67.4727 21.0337V24.6337C67.4727 26.8337 68.9727 29.2337 70.8727 30.0337L71.3727 30.2337C71.8727 30.4337 72.2727 30.1337 72.2727 29.6337V26.0337C72.1727 23.8337 70.6727 21.4337 68.8727 20.6337Z" fill="#E41F30"/>
<path d="M76.5734 20.4337L76.0734 20.6337C74.2734 21.4337 72.7734 23.8337 72.7734 26.0337V29.6337C72.7734 30.2337 73.1734 30.5337 73.6734 30.2337L74.1734 30.0337C75.9734 29.2337 77.4734 26.8337 77.4734 24.6337V21.0337C77.4734 20.5337 77.0734 20.2337 76.5734 20.4337Z" fill="#E41F30"/>
<path d="M68.8727 30.6337L68.3727 30.4337C67.8727 30.2337 67.4727 30.5337 67.4727 31.0337V34.6337C67.4727 36.8337 68.9727 39.2337 70.8727 40.0337L71.3727 40.2337C71.8727 40.4337 72.2727 40.1337 72.2727 39.6337V36.0337C72.1727 33.8337 70.6727 31.4337 68.8727 30.6337Z" fill="#E41F30"/>
<path d="M76.5734 30.4337L76.0734 30.6337C74.2734 31.4337 72.7734 33.8337 72.7734 36.0337V39.6337C72.7734 40.2337 73.1734 40.5337 73.6734 40.2337L74.1734 40.0337C75.9734 39.2337 77.4734 36.8337 77.4734 34.6337V31.0337C77.4734 30.5337 77.0734 30.2337 76.5734 30.4337Z" fill="#E41F30"/>
<path d="M68.8727 40.6337L68.3727 40.4337C67.8727 40.2337 67.4727 40.5337 67.4727 41.0337V44.6337C67.4727 46.8337 68.9727 49.2337 70.8727 50.0337L71.3727 50.2337C71.8727 50.4337 72.2727 50.1337 72.2727 49.6337V46.0337C72.1727 43.8337 70.6727 41.4337 68.8727 40.6337Z" fill="#E41F30"/>
<path d="M76.5734 40.4337L76.0734 40.6337C74.2734 41.4337 72.7734 43.8337 72.7734 46.0337V49.6337C72.7734 50.2337 73.1734 50.5337 73.6734 50.2337L74.1734 50.0337C75.9734 49.2337 77.4734 46.8337 77.4734 44.6337V41.0337C77.4734 40.5337 77.0734 40.2337 76.5734 40.4337Z" fill="#E41F30"/>
<path d="M24.8727 40.6337L24.3727 40.4337C23.8727 40.2337 23.4727 40.5337 23.4727 41.0337V44.6337C23.4727 46.8337 24.9727 49.2337 26.8727 50.0337L27.3727 50.2337C27.8727 50.4337 28.2727 50.1337 28.2727 49.6337V46.0337C28.1727 43.8337 26.6727 41.4337 24.8727 40.6337Z" fill="#E41F30"/>
<path d="M32.5734 40.4337L32.0734 40.6337C30.2734 41.4337 28.7734 43.8337 28.7734 46.0337V49.6337C28.7734 50.2337 29.1734 50.5337 29.6734 50.2337L30.1734 50.0337C31.9734 49.2337 33.4734 46.8337 33.4734 44.6337V41.0337C33.4734 40.5337 33.0734 40.2337 32.5734 40.4337Z" fill="#E41F30"/>
<path d="M120.073 40.6337L120.573 40.4337C121.073 40.2337 121.473 40.5337 121.473 41.0337V44.6337C121.473 46.8337 119.973 49.2337 118.073 50.0337L117.573 50.2337C117.073 50.4337 116.673 50.1337 116.673 49.6337V46.0337C116.773 43.8337 118.273 41.4337 120.073 40.6337Z" fill="#E41F30"/>
<path d="M112.372 40.4337L112.872 40.6337C114.672 41.4337 116.172 43.8337 116.172 46.0337V49.6337C116.172 50.2337 115.772 50.5337 115.272 50.2337L114.772 50.0337C112.972 49.2337 111.472 46.8337 111.472 44.6337V41.0337C111.472 40.5337 111.872 40.2337 112.372 40.4337Z" fill="#E41F30"/>
<path d="M68.8727 50.6337L68.3727 50.4337C67.8727 50.2337 67.4727 50.5337 67.4727 51.0337V54.6337C67.4727 56.8337 68.9727 59.2337 70.8727 60.0337L71.3727 60.2337C71.8727 60.4337 72.2727 60.1337 72.2727 59.6337V56.0337C72.1727 53.8337 70.6727 51.4337 68.8727 50.6337Z" fill="#E41F30"/>
<path d="M76.5734 50.4337L76.0734 50.6337C74.2734 51.4337 72.7734 53.8337 72.7734 56.0337V59.6337C72.7734 60.2337 73.1734 60.5337 73.6734 60.2337L74.1734 60.0337C75.9734 59.2337 77.4734 56.8337 77.4734 54.6337V51.0337C77.4734 50.5337 77.0734 50.2337 76.5734 50.4337Z" fill="#E41F30"/>
<path d="M24.8727 50.6337L24.3727 50.4337C23.8727 50.2337 23.4727 50.5337 23.4727 51.0337V54.6337C23.4727 56.8337 24.9727 59.2337 26.8727 60.0337L27.3727 60.2337C27.8727 60.4337 28.2727 60.1337 28.2727 59.6337V56.0337C28.1727 53.8337 26.6727 51.4337 24.8727 50.6337Z" fill="#E41F30"/>
<path d="M32.5734 50.4337L32.0734 50.6337C30.2734 51.4337 28.7734 53.8337 28.7734 56.0337V59.6337C28.7734 60.2337 29.1734 60.5337 29.6734 60.2337L30.1734 60.0337C31.9734 59.2337 33.4734 56.8337 33.4734 54.6337V51.0337C33.4734 50.5337 33.0734 50.2337 32.5734 50.4337Z" fill="#E41F30"/>
<path d="M120.073 50.6337L120.573 50.4337C121.073 50.2337 121.473 50.5337 121.473 51.0337V54.6337C121.473 56.8337 119.973 59.2337 118.073 60.0337L117.573 60.2337C117.073 60.4337 116.673 60.1337 116.673 59.6337V56.0337C116.773 53.8337 118.273 51.4337 120.073 50.6337Z" fill="#E41F30"/>
<path d="M112.372 50.4337L112.872 50.6337C114.672 51.4337 116.172 53.8337 116.172 56.0337V59.6337C116.172 60.2337 115.772 60.5337 115.272 60.2337L114.772 60.0337C112.972 59.2337 111.472 56.8337 111.472 54.6337V51.0337C111.472 50.5337 111.872 50.2337 112.372 50.4337Z" fill="#E41F30"/>
<path d="M68.8727 60.6337L68.3727 60.4337C67.8727 60.2337 67.4727 60.5337 67.4727 61.0337V64.6337C67.4727 66.8337 68.9727 69.2337 70.8727 70.0337L71.3727 70.2337C71.8727 70.4337 72.2727 70.1337 72.2727 69.6337V66.0337C72.1727 63.8337 70.6727 61.4337 68.8727 60.6337Z" fill="#E41F30"/>
<path d="M76.5734 60.4337L76.0734 60.6337C74.2734 61.4337 72.7734 63.8337 72.7734 66.0337V69.6337C72.7734 70.2337 73.1734 70.5337 73.6734 70.2337L74.1734 70.0337C75.9734 69.2337 77.4734 66.8337 77.4734 64.6337V61.0337C77.4734 60.5337 77.0734 60.2337 76.5734 60.4337Z" fill="#E41F30"/>
<path d="M68.8727 70.6338L68.3727 70.4338C67.8727 70.2338 67.4727 70.5338 67.4727 71.0338V74.6338C67.4727 76.8338 68.9727 79.2338 70.8727 80.0338L71.3727 80.2338C71.8727 80.4338 72.2727 80.1338 72.2727 79.6338V76.0338C72.1727 73.8338 70.6727 71.4338 68.8727 70.6338Z" fill="#E41F30"/>
<path d="M76.5734 70.4338L76.0734 70.6338C74.2734 71.4338 72.7734 73.8338 72.7734 76.0338V79.6338C72.7734 80.2338 73.1734 80.5338 73.6734 80.2338L74.1734 80.0338C75.9734 79.2338 77.4734 76.8338 77.4734 74.6338V71.0338C77.4734 70.5338 77.0734 70.2338 76.5734 70.4338Z" fill="#E41F30"/>
<path d="M35.8727 100.634L35.3727 100.434C34.8727 100.234 34.4727 100.534 34.4727 101.034V104.634C34.4727 106.834 35.9727 109.234 37.8727 110.034L38.3727 110.234C38.8727 110.434 39.2727 110.134 39.2727 109.634V106.034C39.1727 103.834 37.6727 101.434 35.8727 100.634Z" fill="#E41F30"/>
<path d="M43.5734 100.434L43.0734 100.634C41.2734 101.434 39.7734 103.834 39.7734 106.034V109.634C39.7734 110.234 40.1734 110.534 40.6734 110.234L41.1734 110.034C42.9734 109.234 44.4734 106.834 44.4734 104.634V101.034C44.4734 100.534 44.0734 100.234 43.5734 100.434Z" fill="#E41F30"/>
<path d="M35.8727 90.559L35.3727 90.359C34.8727 90.159 34.4727 90.459 34.4727 90.959V94.559C34.4727 96.759 35.9727 99.159 37.8727 99.959L38.3727 100.159C38.8727 100.359 39.2727 100.059 39.2727 99.559V95.959C39.1727 93.759 37.6727 91.359 35.8727 90.559Z" fill="#E41F30"/>
<path d="M43.5734 90.359L43.0734 90.559C41.2734 91.359 39.7734 93.759 39.7734 95.959V99.559C39.7734 100.159 40.1734 100.459 40.6734 100.159L41.1734 99.959C42.9734 99.159 44.4734 96.759 44.4734 94.559V90.959C44.4734 90.459 44.0734 90.159 43.5734 90.359Z" fill="#E41F30"/>
<path d="M109.073 100.634L109.573 100.434C110.073 100.234 110.473 100.534 110.473 101.034V104.634C110.473 106.834 108.973 109.234 107.073 110.034L106.573 110.234C106.073 110.434 105.673 110.134 105.673 109.634V106.034C105.773 103.834 107.273 101.434 109.073 100.634Z" fill="#E41F30"/>
<path d="M101.372 100.434L101.872 100.634C103.672 101.434 105.172 103.834 105.172 106.034V109.634C105.172 110.234 104.772 110.534 104.272 110.234L103.772 110.034C101.972 109.234 100.472 106.834 100.472 104.634V101.034C100.472 100.534 100.872 100.234 101.372 100.434Z" fill="#E41F30"/>
<path d="M109.073 90.559L109.573 90.359C110.073 90.159 110.473 90.459 110.473 90.959V94.559C110.473 96.759 108.973 99.159 107.073 99.959L106.573 100.159C106.073 100.359 105.673 100.059 105.673 99.559V95.959C105.773 93.759 107.273 91.359 109.073 90.559Z" fill="#E41F30"/>
<path d="M101.372 90.359L101.872 90.559C103.672 91.359 105.172 93.759 105.172 95.959V99.559C105.172 100.159 104.772 100.459 104.272 100.159L103.772 99.959C101.972 99.159 100.472 96.759 100.472 94.559V90.959C100.472 90.459 100.872 90.159 101.372 90.359Z" fill="#E41F30"/>
<path d="M35.8727 110.634L35.3727 110.434C34.8727 110.234 34.4727 110.534 34.4727 111.034V114.634C34.4727 116.834 35.9727 119.234 37.8727 120.034L38.3727 120.234C38.8727 120.434 39.2727 120.134 39.2727 119.634V116.034C39.1727 113.834 37.6727 111.434 35.8727 110.634Z" fill="#E41F30"/>
<path d="M43.5734 110.434L43.0734 110.634C41.2734 111.434 39.7734 113.834 39.7734 116.034V119.634C39.7734 120.234 40.1734 120.534 40.6734 120.234L41.1734 120.034C42.9734 119.234 44.4734 116.834 44.4734 114.634V111.034C44.4734 110.534 44.0734 110.234 43.5734 110.434Z" fill="#E41F30"/>
<path d="M109.073 110.634L109.573 110.434C110.073 110.234 110.473 110.534 110.473 111.034V114.634C110.473 116.834 108.973 119.234 107.073 120.034L106.573 120.234C106.073 120.434 105.673 120.134 105.673 119.634V116.034C105.773 113.834 107.273 111.434 109.073 110.634Z" fill="#E41F30"/>
<path d="M101.372 110.434L101.872 110.634C103.672 111.434 105.172 113.834 105.172 116.034V119.634C105.172 120.234 104.772 120.534 104.272 120.234L103.772 120.034C101.972 119.234 100.472 116.834 100.472 114.634V111.034C100.472 110.534 100.872 110.234 101.372 110.434Z" fill="#E41F30"/>
<path d="M46.8727 80.6337L46.3727 80.4337C45.8727 80.2337 45.4727 80.5337 45.4727 81.0337V84.6337C45.4727 86.8337 46.9727 89.2337 48.8727 90.0337L49.3727 90.2337C49.8727 90.4337 50.2727 90.1337 50.2727 89.6337V86.0337C50.1727 83.8337 48.6727 81.4337 46.8727 80.6337Z" fill="#E41F30"/>
<path d="M54.5734 80.4337L54.0734 80.6337C52.2734 81.4337 50.7734 83.8337 50.7734 86.0337V89.6337C50.7734 90.2337 51.1734 90.5337 51.6734 90.2337L52.1734 90.0337C53.9734 89.2337 55.4734 86.8337 55.4734 84.6337V81.0337C55.4734 80.5337 55.0734 80.2337 54.5734 80.4337Z" fill="#E41F30"/>
<path d="M98.0727 80.6337L98.5727 80.4337C99.0727 80.2337 99.4727 80.5337 99.4727 81.0337V84.6337C99.4727 86.8337 97.9727 89.2337 96.0727 90.0337L95.5727 90.2337C95.0727 90.4337 94.6727 90.1337 94.6727 89.6337V86.0337C94.7727 83.8337 96.2727 81.4337 98.0727 80.6337Z" fill="#E41F30"/>
<path d="M90.3719 80.4337L90.8719 80.6337C92.6719 81.4337 94.1719 83.8337 94.1719 86.0337V89.6337C94.1719 90.2337 93.7719 90.5337 93.2719 90.2337L92.7719 90.0337C90.9719 89.2337 89.4719 86.8337 89.4719 84.6337V81.0337C89.4719 80.5337 89.8719 80.2337 90.3719 80.4337Z" fill="#E41F30"/>
<path d="M46.8727 90.6337L46.3727 90.4337C45.8727 90.2337 45.4727 90.5337 45.4727 91.0337V94.6337C45.4727 96.8337 46.9727 99.2337 48.8727 100.034L49.3727 100.234C49.8727 100.434 50.2727 100.134 50.2727 99.6337V96.0337C50.1727 93.8337 48.6727 91.4337 46.8727 90.6337Z" fill="#E41F30"/>
<path d="M54.5734 90.4337L54.0734 90.6337C52.2734 91.4337 50.7734 93.8337 50.7734 96.0337V99.6337C50.7734 100.234 51.1734 100.534 51.6734 100.234L52.1734 100.034C53.9734 99.2337 55.4734 96.8337 55.4734 94.6337V91.0337C55.4734 90.5337 55.0734 90.2337 54.5734 90.4337Z" fill="#E41F30"/>
<path d="M98.0727 90.6337L98.5727 90.4337C99.0727 90.2337 99.4727 90.5337 99.4727 91.0337V94.6337C99.4727 96.8337 97.9727 99.2337 96.0727 100.034L95.5727 100.234C95.0727 100.434 94.6727 100.134 94.6727 99.6337V96.0337C94.7727 93.8337 96.2727 91.4337 98.0727 90.6337Z" fill="#E41F30"/>
<path d="M90.3719 90.4337L90.8719 90.6337C92.6719 91.4337 94.1719 93.8337 94.1719 96.0337V99.6337C94.1719 100.234 93.7719 100.534 93.2719 100.234L92.7719 100.034C90.9719 99.2337 89.4719 96.8337 89.4719 94.6337V91.0337C89.4719 90.5337 89.8719 90.2337 90.3719 90.4337Z" fill="#E41F30"/>
<path d="M46.8727 100.634L46.3727 100.434C45.8727 100.234 45.4727 100.534 45.4727 101.034V104.634C45.4727 106.834 46.9727 109.234 48.8727 110.034L49.3727 110.234C49.8727 110.434 50.2727 110.134 50.2727 109.634V106.034C50.1727 103.834 48.6727 101.434 46.8727 100.634Z" fill="#E41F30"/>
<path d="M54.5734 100.434L54.0734 100.634C52.2734 101.434 50.7734 103.834 50.7734 106.034V109.634C50.7734 110.234 51.1734 110.534 51.6734 110.234L52.1734 110.034C53.9734 109.234 55.4734 106.834 55.4734 104.634V101.034C55.4734 100.534 55.0734 100.234 54.5734 100.434Z" fill="#E41F30"/>
<path d="M98.0727 100.634L98.5727 100.434C99.0727 100.234 99.4727 100.534 99.4727 101.034V104.634C99.4727 106.834 97.9727 109.234 96.0727 110.034L95.5727 110.234C95.0727 110.434 94.6727 110.134 94.6727 109.634V106.034C94.7727 103.834 96.2727 101.434 98.0727 100.634Z" fill="#E41F30"/>
<path d="M90.3719 100.434L90.8719 100.634C92.6719 101.434 94.1719 103.834 94.1719 106.034V109.634C94.1719 110.234 93.7719 110.534 93.2719 110.234L92.7719 110.034C90.9719 109.234 89.4719 106.834 89.4719 104.634V101.034C89.4719 100.534 89.8719 100.234 90.3719 100.434Z" fill="#E41F30"/>
<path d="M57.8727 80.6337L57.3727 80.4337C56.8727 80.2337 56.4727 80.5337 56.4727 81.0337V84.6337C56.4727 86.8337 57.9727 89.2337 59.8727 90.0337L60.3727 90.2337C60.8727 90.4337 61.2727 90.1337 61.2727 89.6337V86.0337C61.1727 83.8337 59.6727 81.4337 57.8727 80.6337Z" fill="#E41F30"/>
<path d="M65.5734 80.4337L65.0734 80.6337C63.2734 81.4337 61.7734 83.8337 61.7734 86.0337V89.6337C61.7734 90.2337 62.1734 90.5337 62.6734 90.2337L63.1734 90.0337C64.9734 89.2337 66.4734 86.8337 66.4734 84.6337V81.0337C66.4734 80.5337 66.0734 80.2337 65.5734 80.4337Z" fill="#E41F30"/>
<path d="M87.0727 80.6337L87.5727 80.4337C88.0727 80.2337 88.4727 80.5337 88.4727 81.0337V84.6337C88.4727 86.8337 86.9727 89.2337 85.0727 90.0337L84.5727 90.2337C84.0727 90.4337 83.6727 90.1337 83.6727 89.6337V86.0337C83.7727 83.8337 85.2727 81.4337 87.0727 80.6337Z" fill="#E41F30"/>
<path d="M79.3719 80.4337L79.8719 80.6337C81.6719 81.4337 83.1719 83.8337 83.1719 86.0337V89.6337C83.1719 90.2337 82.7719 90.5337 82.2719 90.2337L81.7719 90.0337C79.9719 89.2337 78.4719 86.8337 78.4719 84.6337V81.0337C78.4719 80.5337 78.8719 80.2337 79.3719 80.4337Z" fill="#E41F30"/>
<path d="M57.8727 90.6337L57.3727 90.4337C56.8727 90.2337 56.4727 90.5337 56.4727 91.0337V94.6337C56.4727 96.8337 57.9727 99.2337 59.8727 100.034L60.3727 100.234C60.8727 100.434 61.2727 100.134 61.2727 99.6337V96.0337C61.1727 93.8337 59.6727 91.4337 57.8727 90.6337Z" fill="#E41F30"/>
<path d="M65.5734 90.4337L65.0734 90.6337C63.2734 91.4337 61.7734 93.8337 61.7734 96.0337V99.6337C61.7734 100.234 62.1734 100.534 62.6734 100.234L63.1734 100.034C64.9734 99.2337 66.4734 96.8337 66.4734 94.6337V91.0337C66.4734 90.5337 66.0734 90.2337 65.5734 90.4337Z" fill="#E41F30"/>
<path d="M87.0727 90.6337L87.5727 90.4337C88.0727 90.2337 88.4727 90.5337 88.4727 91.0337V94.6337C88.4727 96.8337 86.9727 99.2337 85.0727 100.034L84.5727 100.234C84.0727 100.434 83.6727 100.134 83.6727 99.6337V96.0337C83.7727 93.8337 85.2727 91.4337 87.0727 90.6337Z" fill="#E41F30"/>
<path d="M79.3719 90.4337L79.8719 90.6337C81.6719 91.4337 83.1719 93.8337 83.1719 96.0337V99.6337C83.1719 100.234 82.7719 100.534 82.2719 100.234L81.7719 100.034C79.9719 99.2337 78.4719 96.8337 78.4719 94.6337V91.0337C78.4719 90.5337 78.8719 90.2337 79.3719 90.4337Z" fill="#E41F30"/>
<path d="M68.8727 80.6337L68.3727 80.4337C67.8727 80.2337 67.4727 80.5337 67.4727 81.0337V84.6337C67.4727 86.8337 68.9727 89.2337 70.8727 90.0337L71.3727 90.2337C71.8727 90.4337 72.2727 90.1337 72.2727 89.6337V86.0337C72.1727 83.8337 70.6727 81.4337 68.8727 80.6337Z" fill="#E41F30"/>
<path d="M76.5734 80.4337L76.0734 80.6337C74.2734 81.4337 72.7734 83.8337 72.7734 86.0337V89.6337C72.7734 90.2337 73.1734 90.5337 73.6734 90.2337L74.1734 90.0337C75.9734 89.2337 77.4734 86.8337 77.4734 84.6337V81.0337C77.4734 80.5337 77.0734 80.2337 76.5734 80.4337Z" fill="#E41F30"/>
<path d="M24.8727 110.634L24.3727 110.434C23.8727 110.234 23.4727 110.534 23.4727 111.034V114.634C23.4727 116.834 24.9727 119.234 26.8727 120.034L27.3727 120.234C27.8727 120.434 28.2727 120.134 28.2727 119.634V116.034C28.1727 113.834 26.6727 111.434 24.8727 110.634Z" fill="#E41F30"/>
<path d="M32.5734 110.434L32.0734 110.634C30.2734 111.434 28.7734 113.834 28.7734 116.034V119.634C28.7734 120.234 29.1734 120.534 29.6734 120.234L30.1734 120.034C31.9734 119.234 33.4734 116.834 33.4734 114.634V111.034C33.4734 110.534 33.0734 110.234 32.5734 110.434Z" fill="#E41F30"/>
<path d="M120.073 110.634L120.573 110.434C121.073 110.234 121.473 110.534 121.473 111.034V114.634C121.473 116.834 119.973 119.234 118.073 120.034L117.573 120.234C117.073 120.434 116.673 120.134 116.673 119.634V116.034C116.773 113.834 118.273 111.434 120.073 110.634Z" fill="#E41F30"/>
<path d="M112.372 110.434L112.872 110.634C114.672 111.434 116.172 113.834 116.172 116.034V119.634C116.172 120.234 115.772 120.534 115.272 120.234L114.772 120.034C112.972 119.234 111.472 116.834 111.472 114.634V111.034C111.472 110.534 111.872 110.234 112.372 110.434Z" fill="#E41F30"/>
<path d="M24.8727 120.634L24.3727 120.434C23.8727 120.234 23.4727 120.534 23.4727 121.034V124.634C23.4727 126.834 24.9727 129.234 26.8727 130.034L27.3727 130.234C27.8727 130.434 28.2727 130.134 28.2727 129.634V126.034C28.1727 123.834 26.6727 121.434 24.8727 120.634Z" fill="#E41F30"/>
<path d="M32.5734 120.434L32.0734 120.634C30.2734 121.434 28.7734 123.834 28.7734 126.034V129.634C28.7734 130.234 29.1734 130.534 29.6734 130.234L30.1734 130.034C31.9734 129.234 33.4734 126.834 33.4734 124.634V121.034C33.4734 120.534 33.0734 120.234 32.5734 120.434Z" fill="#E41F30"/>
<path d="M120.073 120.634L120.573 120.434C121.073 120.234 121.473 120.534 121.473 121.034V124.634C121.473 126.834 119.973 129.234 118.073 130.034L117.573 130.234C117.073 130.434 116.673 130.134 116.673 129.634V126.034C116.773 123.834 118.273 121.434 120.073 120.634Z" fill="#E41F30"/>
<path d="M112.372 120.434L112.872 120.634C114.672 121.434 116.172 123.834 116.172 126.034V129.634C116.172 130.234 115.772 130.534 115.272 130.234L114.772 130.034C112.972 129.234 111.472 126.834 111.472 124.634V121.034C111.472 120.534 111.872 120.234 112.372 120.434Z" fill="#E41F30"/>
</svg>
