<svg width="100" height="131" viewBox="0 0 100 131" fill="none" xmlns="http://www.w3.org/2000/svg">
<path d="M57.8727 40.6337L57.3727 40.4337C56.8727 40.2337 56.4727 40.5337 56.4727 41.0337V44.6337C56.4727 46.8337 57.9727 49.2337 59.8727 50.0337L60.3727 50.2337C60.8727 50.4337 61.2727 50.1337 61.2727 49.6337V46.0337C61.1727 43.8337 59.6727 41.4337 57.8727 40.6337Z" fill="#E41F30"/>
<path d="M65.5734 40.4337L65.0734 40.6337C63.2734 41.4337 61.7734 43.8337 61.7734 46.0337V49.6337C61.7734 50.2337 62.1734 50.5337 62.6734 50.2337L63.1734 50.0337C64.9734 49.2337 66.4734 46.8337 66.4734 44.6337V41.0337C66.4734 40.5337 66.0734 40.2337 65.5734 40.4337Z" fill="#E41F30"/>
<path d="M13.8727 40.6337L13.3727 40.4337C12.8727 40.2337 12.4727 40.5337 12.4727 41.0337V44.6337C12.4727 46.8337 13.9727 49.2337 15.8727 50.0337L16.3727 50.2337C16.8727 50.4337 17.2727 50.1337 17.2727 49.6337V46.0337C17.1727 43.8337 15.6727 41.4337 13.8727 40.6337Z" fill="#E41F30"/>
<path d="M21.5734 40.4337L21.0734 40.6337C19.2734 41.4337 17.7734 43.8337 17.7734 46.0337V49.6337C17.7734 50.2337 18.1734 50.5337 18.6734 50.2337L19.1734 50.0337C20.9734 49.2337 22.4734 46.8337 22.4734 44.6337V41.0337C22.4734 40.5337 22.0734 40.2337 21.5734 40.4337Z" fill="#E41F30"/>
<path d="M57.8727 50.6337L57.3727 50.4337C56.8727 50.2337 56.4727 50.5337 56.4727 51.0337V54.6337C56.4727 56.8337 57.9727 59.2337 59.8727 60.0337L60.3727 60.2337C60.8727 60.4337 61.2727 60.1337 61.2727 59.6337V56.0337C61.1727 53.8337 59.6727 51.4337 57.8727 50.6337Z" fill="#E41F30"/>
<path d="M65.5734 50.4337L65.0734 50.6337C63.2734 51.4337 61.7734 53.8337 61.7734 56.0337V59.6337C61.7734 60.2337 62.1734 60.5337 62.6734 60.2337L63.1734 60.0337C64.9734 59.2337 66.4734 56.8337 66.4734 54.6337V51.0337C66.4734 50.5337 66.0734 50.2337 65.5734 50.4337Z" fill="#E41F30"/>
<path d="M13.8727 50.6337L13.3727 50.4337C12.8727 50.2337 12.4727 50.5337 12.4727 51.0337V54.6337C12.4727 56.8337 13.9727 59.2337 15.8727 60.0337L16.3727 60.2337C16.8727 60.4337 17.2727 60.1337 17.2727 59.6337V56.0337C17.1727 53.8337 15.6727 51.4337 13.8727 50.6337Z" fill="#E41F30"/>
<path d="M21.5734 50.4337L21.0734 50.6337C19.2734 51.4337 17.7734 53.8337 17.7734 56.0337V59.6337C17.7734 60.2337 18.1734 60.5337 18.6734 60.2337L19.1734 60.0337C20.9734 59.2337 22.4734 56.8337 22.4734 54.6337V51.0337C22.4734 50.5337 22.0734 50.2337 21.5734 50.4337Z" fill="#E41F30"/>
<path d="M57.8727 60.6337L57.3727 60.4337C56.8727 60.2337 56.4727 60.5337 56.4727 61.0337V64.6337C56.4727 66.8337 57.9727 69.2337 59.8727 70.0337L60.3727 70.2337C60.8727 70.4337 61.2727 70.1337 61.2727 69.6337V66.0337C61.1727 63.8337 59.6727 61.4337 57.8727 60.6337Z" fill="#E41F30"/>
<path d="M65.5734 60.4337L65.0734 60.6337C63.2734 61.4337 61.7734 63.8337 61.7734 66.0337V69.6337C61.7734 70.2337 62.1734 70.5337 62.6734 70.2337L63.1734 70.0337C64.9734 69.2337 66.4734 66.8337 66.4734 64.6337V61.0337C66.4734 60.5337 66.0734 60.2337 65.5734 60.4337Z" fill="#E41F30"/>
<path d="M13.8727 60.6337L13.3727 60.4337C12.8727 60.2337 12.4727 60.5337 12.4727 61.0337V64.6337C12.4727 66.8337 13.9727 69.2337 15.8727 70.0337L16.3727 70.2337C16.8727 70.4337 17.2727 70.1337 17.2727 69.6337V66.0337C17.1727 63.8337 15.6727 61.4337 13.8727 60.6337Z" fill="#E41F30"/>
<path d="M21.5734 60.4337L21.0734 60.6337C19.2734 61.4337 17.7734 63.8337 17.7734 66.0337V69.6337C17.7734 70.2337 18.1734 70.5337 18.6734 70.2337L19.1734 70.0337C20.9734 69.2337 22.4734 66.8337 22.4734 64.6337V61.0337C22.4734 60.5337 22.0734 60.2337 21.5734 60.4337Z" fill="#E41F30"/>
<path d="M57.8727 70.6337L57.3727 70.4337C56.8727 70.2337 56.4727 70.5337 56.4727 71.0337V74.6337C56.4727 76.8337 57.9727 79.2337 59.8727 80.0337L60.3727 80.2337C60.8727 80.4337 61.2727 80.1337 61.2727 79.6337V76.0337C61.1727 73.8337 59.6727 71.4337 57.8727 70.6337Z" fill="#E41F30"/>
<path d="M65.5734 70.4337L65.0734 70.6337C63.2734 71.4337 61.7734 73.8337 61.7734 76.0337V79.6337C61.7734 80.2337 62.1734 80.5337 62.6734 80.2337L63.1734 80.0337C64.9734 79.2337 66.4734 76.8337 66.4734 74.6337V71.0337C66.4734 70.5337 66.0734 70.2337 65.5734 70.4337Z" fill="#E41F30"/>
<path d="M13.8727 70.6337L13.3727 70.4337C12.8727 70.2337 12.4727 70.5337 12.4727 71.0337V74.6337C12.4727 76.8337 13.9727 79.2337 15.8727 80.0337L16.3727 80.2337C16.8727 80.4337 17.2727 80.1337 17.2727 79.6337V76.0337C17.1727 73.8337 15.6727 71.4337 13.8727 70.6337Z" fill="#E41F30"/>
<path d="M21.5734 70.4337L21.0734 70.6337C19.2734 71.4337 17.7734 73.8337 17.7734 76.0337V79.6337C17.7734 80.2337 18.1734 80.5337 18.6734 80.2337L19.1734 80.0337C20.9734 79.2337 22.4734 76.8337 22.4734 74.6337V71.0337C22.4734 70.5337 22.0734 70.2337 21.5734 70.4337Z" fill="#E41F30"/>
<path d="M68.8727 40.6337L68.3727 40.4337C67.8727 40.2337 67.4727 40.5337 67.4727 41.0337V44.6337C67.4727 46.8337 68.9727 49.2337 70.8727 50.0337L71.3727 50.2337C71.8727 50.4337 72.2727 50.1337 72.2727 49.6337V46.0337C72.1727 43.8337 70.6727 41.4337 68.8727 40.6337Z" fill="#E41F30"/>
<path d="M76.5734 40.4337L76.0734 40.6337C74.2734 41.4337 72.7734 43.8337 72.7734 46.0337V49.6337C72.7734 50.2337 73.1734 50.5337 73.6734 50.2337L74.1734 50.0337C75.9734 49.2337 77.4734 46.8337 77.4734 44.6337V41.0337C77.4734 40.5337 77.0734 40.2337 76.5734 40.4337Z" fill="#E41F30"/>
<path d="M24.8727 40.6337L24.3727 40.4337C23.8727 40.2337 23.4727 40.5337 23.4727 41.0337V44.6337C23.4727 46.8337 24.9727 49.2337 26.8727 50.0337L27.3727 50.2337C27.8727 50.4337 28.2727 50.1337 28.2727 49.6337V46.0337C28.1727 43.8337 26.6727 41.4337 24.8727 40.6337Z" fill="#E41F30"/>
<path d="M32.5734 40.4337L32.0734 40.6337C30.2734 41.4337 28.7734 43.8337 28.7734 46.0337V49.6337C28.7734 50.2337 29.1734 50.5337 29.6734 50.2337L30.1734 50.0337C31.9734 49.2337 33.4734 46.8337 33.4734 44.6337V41.0337C33.4734 40.5337 33.0734 40.2337 32.5734 40.4337Z" fill="#E41F30"/>
<path d="M68.8727 50.6337L68.3727 50.4337C67.8727 50.2337 67.4727 50.5337 67.4727 51.0337V54.6337C67.4727 56.8337 68.9727 59.2337 70.8727 60.0337L71.3727 60.2337C71.8727 60.4337 72.2727 60.1337 72.2727 59.6337V56.0337C72.1727 53.8337 70.6727 51.4337 68.8727 50.6337Z" fill="#E41F30"/>
<path d="M76.5734 50.4337L76.0734 50.6337C74.2734 51.4337 72.7734 53.8337 72.7734 56.0337V59.6337C72.7734 60.2337 73.1734 60.5337 73.6734 60.2337L74.1734 60.0337C75.9734 59.2337 77.4734 56.8337 77.4734 54.6337V51.0337C77.4734 50.5337 77.0734 50.2337 76.5734 50.4337Z" fill="#E41F30"/>
<path d="M24.8727 50.6337L24.3727 50.4337C23.8727 50.2337 23.4727 50.5337 23.4727 51.0337V54.6337C23.4727 56.8337 24.9727 59.2337 26.8727 60.0337L27.3727 60.2337C27.8727 60.4337 28.2727 60.1337 28.2727 59.6337V56.0337C28.1727 53.8337 26.6727 51.4337 24.8727 50.6337Z" fill="#E41F30"/>
<path d="M32.5734 50.4337L32.0734 50.6337C30.2734 51.4337 28.7734 53.8337 28.7734 56.0337V59.6337C28.7734 60.2337 29.1734 60.5337 29.6734 60.2337L30.1734 60.0337C31.9734 59.2337 33.4734 56.8337 33.4734 54.6337V51.0337C33.4734 50.5337 33.0734 50.2337 32.5734 50.4337Z" fill="#E41F30"/>
<path d="M68.8727 60.6337L68.3727 60.4337C67.8727 60.2337 67.4727 60.5337 67.4727 61.0337V64.6337C67.4727 66.8337 68.9727 69.2337 70.8727 70.0337L71.3727 70.2337C71.8727 70.4337 72.2727 70.1337 72.2727 69.6337V66.0337C72.1727 63.8337 70.6727 61.4337 68.8727 60.6337Z" fill="#E41F30"/>
<path d="M76.5734 60.4337L76.0734 60.6337C74.2734 61.4337 72.7734 63.8337 72.7734 66.0337V69.6337C72.7734 70.2337 73.1734 70.5337 73.6734 70.2337L74.1734 70.0337C75.9734 69.2337 77.4734 66.8337 77.4734 64.6337V61.0337C77.4734 60.5337 77.0734 60.2337 76.5734 60.4337Z" fill="#E41F30"/>
<path d="M24.8727 60.6337L24.3727 60.4337C23.8727 60.2337 23.4727 60.5337 23.4727 61.0337V64.6337C23.4727 66.8337 24.9727 69.2337 26.8727 70.0337L27.3727 70.2337C27.8727 70.4337 28.2727 70.1337 28.2727 69.6337V66.0337C28.1727 63.8337 26.6727 61.4337 24.8727 60.6337Z" fill="#E41F30"/>
<path d="M32.5734 60.4337L32.0734 60.6337C30.2734 61.4337 28.7734 63.8337 28.7734 66.0337V69.6337C28.7734 70.2337 29.1734 70.5337 29.6734 70.2337L30.1734 70.0337C31.9734 69.2337 33.4734 66.8337 33.4734 64.6337V61.0337C33.4734 60.5337 33.0734 60.2337 32.5734 60.4337Z" fill="#E41F30"/>
<path d="M68.8727 70.6337L68.3727 70.4337C67.8727 70.2337 67.4727 70.5337 67.4727 71.0337V74.6337C67.4727 76.8337 68.9727 79.2337 70.8727 80.0337L71.3727 80.2337C71.8727 80.4337 72.2727 80.1337 72.2727 79.6337V76.0337C72.1727 73.8337 70.6727 71.4337 68.8727 70.6337Z" fill="#E41F30"/>
<path d="M76.5734 70.4337L76.0734 70.6337C74.2734 71.4337 72.7734 73.8337 72.7734 76.0337V79.6337C72.7734 80.2337 73.1734 80.5337 73.6734 80.2337L74.1734 80.0337C75.9734 79.2337 77.4734 76.8337 77.4734 74.6337V71.0337C77.4734 70.5337 77.0734 70.2337 76.5734 70.4337Z" fill="#E41F30"/>
<path d="M24.8727 70.6337L24.3727 70.4337C23.8727 70.2337 23.4727 70.5337 23.4727 71.0337V74.6337C23.4727 76.8337 24.9727 79.2337 26.8727 80.0337L27.3727 80.2337C27.8727 80.4337 28.2727 80.1337 28.2727 79.6337V76.0337C28.1727 73.8337 26.6727 71.4337 24.8727 70.6337Z" fill="#E41F30"/>
<path d="M32.5734 70.4337L32.0734 70.6337C30.2734 71.4337 28.7734 73.8337 28.7734 76.0337V79.6337C28.7734 80.2337 29.1734 80.5337 29.6734 80.2337L30.1734 80.0337C31.9734 79.2337 33.4734 76.8337 33.4734 74.6337V71.0337C33.4734 70.5337 33.0734 70.2337 32.5734 70.4337Z" fill="#E41F30"/>
<path d="M79.8727 40.6337L79.3727 40.4337C78.8727 40.2337 78.4727 40.5337 78.4727 41.0337V44.6337C78.4727 46.8337 79.9727 49.2337 81.8727 50.0337L82.3727 50.2337C82.8727 50.4337 83.2727 50.1337 83.2727 49.6337V46.0337C83.1727 43.8337 81.6727 41.4337 79.8727 40.6337Z" fill="#E41F30"/>
<path d="M87.5734 40.4337L87.0734 40.6337C85.2734 41.4337 83.7734 43.8337 83.7734 46.0337V49.6337C83.7734 50.2337 84.1734 50.5337 84.6734 50.2337L85.1734 50.0337C86.9734 49.2337 88.4734 46.8337 88.4734 44.6337V41.0337C88.4734 40.5337 88.0734 40.2337 87.5734 40.4337Z" fill="#E41F30"/>
<path d="M35.8727 40.6337L35.3727 40.4337C34.8727 40.2337 34.4727 40.5337 34.4727 41.0337V44.6337C34.4727 46.8337 35.9727 49.2337 37.8727 50.0337L38.3727 50.2337C38.8727 50.4337 39.2727 50.1337 39.2727 49.6337V46.0337C39.1727 43.8337 37.6727 41.4337 35.8727 40.6337Z" fill="#E41F30"/>
<path d="M43.5734 40.4337L43.0734 40.6337C41.2734 41.4337 39.7734 43.8337 39.7734 46.0337V49.6337C39.7734 50.2337 40.1734 50.5337 40.6734 50.2337L41.1734 50.0337C42.9734 49.2337 44.4734 46.8337 44.4734 44.6337V41.0337C44.4734 40.5337 44.0734 40.2337 43.5734 40.4337Z" fill="#E41F30"/>
<path d="M79.8727 50.6337L79.3727 50.4337C78.8727 50.2337 78.4727 50.5337 78.4727 51.0337V54.6337C78.4727 56.8337 79.9727 59.2337 81.8727 60.0337L82.3727 60.2337C82.8727 60.4337 83.2727 60.1337 83.2727 59.6337V56.0337C83.1727 53.8337 81.6727 51.4337 79.8727 50.6337Z" fill="#E41F30"/>
<path d="M87.5734 50.4337L87.0734 50.6337C85.2734 51.4337 83.7734 53.8337 83.7734 56.0337V59.6337C83.7734 60.2337 84.1734 60.5337 84.6734 60.2337L85.1734 60.0337C86.9734 59.2337 88.4734 56.8337 88.4734 54.6337V51.0337C88.4734 50.5337 88.0734 50.2337 87.5734 50.4337Z" fill="#E41F30"/>
<path d="M35.8727 50.6337L35.3727 50.4337C34.8727 50.2337 34.4727 50.5337 34.4727 51.0337V54.6337C34.4727 56.8337 35.9727 59.2337 37.8727 60.0337L38.3727 60.2337C38.8727 60.4337 39.2727 60.1337 39.2727 59.6337V56.0337C39.1727 53.8337 37.6727 51.4337 35.8727 50.6337Z" fill="#E41F30"/>
<path d="M43.5734 50.4337L43.0734 50.6337C41.2734 51.4337 39.7734 53.8337 39.7734 56.0337V59.6337C39.7734 60.2337 40.1734 60.5337 40.6734 60.2337L41.1734 60.0337C42.9734 59.2337 44.4734 56.8337 44.4734 54.6337V51.0337C44.4734 50.5337 44.0734 50.2337 43.5734 50.4337Z" fill="#E41F30"/>
<path d="M79.8727 60.6337L79.3727 60.4337C78.8727 60.2337 78.4727 60.5337 78.4727 61.0337V64.6337C78.4727 66.8337 79.9727 69.2337 81.8727 70.0337L82.3727 70.2337C82.8727 70.4337 83.2727 70.1337 83.2727 69.6337V66.0337C83.1727 63.8337 81.6727 61.4337 79.8727 60.6337Z" fill="#E41F30"/>
<path d="M87.5734 60.4337L87.0734 60.6337C85.2734 61.4337 83.7734 63.8337 83.7734 66.0337V69.6337C83.7734 70.2337 84.1734 70.5337 84.6734 70.2337L85.1734 70.0337C86.9734 69.2337 88.4734 66.8337 88.4734 64.6337V61.0337C88.4734 60.5337 88.0734 60.2337 87.5734 60.4337Z" fill="#E41F30"/>
<path d="M35.8727 60.6337L35.3727 60.4337C34.8727 60.2337 34.4727 60.5337 34.4727 61.0337V64.6337C34.4727 66.8337 35.9727 69.2337 37.8727 70.0337L38.3727 70.2337C38.8727 70.4337 39.2727 70.1337 39.2727 69.6337V66.0337C39.1727 63.8337 37.6727 61.4337 35.8727 60.6337Z" fill="#E41F30"/>
<path d="M43.5734 60.4337L43.0734 60.6337C41.2734 61.4337 39.7734 63.8337 39.7734 66.0337V69.6337C39.7734 70.2337 40.1734 70.5337 40.6734 70.2337L41.1734 70.0337C42.9734 69.2337 44.4734 66.8337 44.4734 64.6337V61.0337C44.4734 60.5337 44.0734 60.2337 43.5734 60.4337Z" fill="#E41F30"/>
<path d="M79.8727 70.6337L79.3727 70.4337C78.8727 70.2337 78.4727 70.5337 78.4727 71.0337V74.6337C78.4727 76.8337 79.9727 79.2337 81.8727 80.0337L82.3727 80.2337C82.8727 80.4337 83.2727 80.1337 83.2727 79.6337V76.0337C83.1727 73.8337 81.6727 71.4337 79.8727 70.6337Z" fill="#E41F30"/>
<path d="M87.5734 70.4337L87.0734 70.6337C85.2734 71.4337 83.7734 73.8337 83.7734 76.0337V79.6337C83.7734 80.2337 84.1734 80.5337 84.6734 80.2337L85.1734 80.0337C86.9734 79.2337 88.4734 76.8337 88.4734 74.6337V71.0337C88.4734 70.5337 88.0734 70.2337 87.5734 70.4337Z" fill="#E41F30"/>
<path d="M35.8727 70.6337L35.3727 70.4337C34.8727 70.2337 34.4727 70.5337 34.4727 71.0337V74.6337C34.4727 76.8337 35.9727 79.2337 37.8727 80.0337L38.3727 80.2337C38.8727 80.4337 39.2727 80.1337 39.2727 79.6337V76.0337C39.1727 73.8337 37.6727 71.4337 35.8727 70.6337Z" fill="#E41F30"/>
<path d="M43.5734 70.4337L43.0734 70.6337C41.2734 71.4337 39.7734 73.8337 39.7734 76.0337V79.6337C39.7734 80.2337 40.1734 80.5337 40.6734 80.2337L41.1734 80.0337C42.9734 79.2337 44.4734 76.8337 44.4734 74.6337V71.0337C44.4734 70.5337 44.0734 70.2337 43.5734 70.4337Z" fill="#E41F30"/>
<path d="M90.8727 40.6337L90.3727 40.4337C89.8727 40.2337 89.4727 40.5337 89.4727 41.0337V44.6337C89.4727 46.8337 90.9727 49.2337 92.8727 50.0337L93.3727 50.2337C93.8727 50.4337 94.2727 50.1337 94.2727 49.6337V46.0337C94.1727 43.8337 92.6727 41.4337 90.8727 40.6337Z" fill="#E41F30"/>
<path d="M98.5734 40.4337L98.0734 40.6337C96.2734 41.4337 94.7734 43.8337 94.7734 46.0337V49.6337C94.7734 50.2337 95.1734 50.5337 95.6734 50.2337L96.1734 50.0337C97.9734 49.2337 99.4734 46.8337 99.4734 44.6337V41.0337C99.4734 40.5337 99.0734 40.2337 98.5734 40.4337Z" fill="#E41F30"/>
<path d="M2.87266 40.6337L2.37266 40.4337C1.87266 40.2337 1.47266 40.5337 1.47266 41.0337V44.6337C1.47266 46.8337 2.97266 49.2337 4.87266 50.0337L5.37266 50.2337C5.87266 50.4337 6.27266 50.1337 6.27266 49.6337V46.0337C6.17266 43.8337 4.67266 41.4337 2.87266 40.6337Z" fill="#E41F30"/>
<path d="M10.5734 40.4337L10.0734 40.6337C8.27344 41.4337 6.77344 43.8337 6.77344 46.0337V49.6337C6.77344 50.2337 7.17344 50.5337 7.67344 50.2337L8.17344 50.0337C9.97344 49.2337 11.4734 46.8337 11.4734 44.6337V41.0337C11.4734 40.5337 11.0734 40.2337 10.5734 40.4337Z" fill="#E41F30"/>
<path d="M90.8727 50.6337L90.3727 50.4337C89.8727 50.2337 89.4727 50.5337 89.4727 51.0337V54.6337C89.4727 56.8337 90.9727 59.2337 92.8727 60.0337L93.3727 60.2337C93.8727 60.4337 94.2727 60.1337 94.2727 59.6337V56.0337C94.1727 53.8337 92.6727 51.4337 90.8727 50.6337Z" fill="#E41F30"/>
<path d="M98.5734 50.4337L98.0734 50.6337C96.2734 51.4337 94.7734 53.8337 94.7734 56.0337V59.6337C94.7734 60.2337 95.1734 60.5337 95.6734 60.2337L96.1734 60.0337C97.9734 59.2337 99.4734 56.8337 99.4734 54.6337V51.0337C99.4734 50.5337 99.0734 50.2337 98.5734 50.4337Z" fill="#E41F30"/>
<path d="M2.87266 50.6337L2.37266 50.4337C1.87266 50.2337 1.47266 50.5337 1.47266 51.0337V54.6337C1.47266 56.8337 2.97266 59.2337 4.87266 60.0337L5.37266 60.2337C5.87266 60.4337 6.27266 60.1337 6.27266 59.6337V56.0337C6.17266 53.8337 4.67266 51.4337 2.87266 50.6337Z" fill="#E41F30"/>
<path d="M10.5734 50.4337L10.0734 50.6337C8.27344 51.4337 6.77344 53.8337 6.77344 56.0337V59.6337C6.77344 60.2337 7.17344 60.5337 7.67344 60.2337L8.17344 60.0337C9.97344 59.2337 11.4734 56.8337 11.4734 54.6337V51.0337C11.4734 50.5337 11.0734 50.2337 10.5734 50.4337Z" fill="#E41F30"/>
<path d="M90.8727 60.6337L90.3727 60.4337C89.8727 60.2337 89.4727 60.5337 89.4727 61.0337V64.6337C89.4727 66.8337 90.9727 69.2337 92.8727 70.0337L93.3727 70.2337C93.8727 70.4337 94.2727 70.1337 94.2727 69.6337V66.0337C94.1727 63.8337 92.6727 61.4337 90.8727 60.6337Z" fill="#E41F30"/>
<path d="M98.5734 60.4337L98.0734 60.6337C96.2734 61.4337 94.7734 63.8337 94.7734 66.0337V69.6337C94.7734 70.2337 95.1734 70.5337 95.6734 70.2337L96.1734 70.0337C97.9734 69.2337 99.4734 66.8337 99.4734 64.6337V61.0337C99.4734 60.5337 99.0734 60.2337 98.5734 60.4337Z" fill="#E41F30"/>
<path d="M2.87266 60.6337L2.37266 60.4337C1.87266 60.2337 1.47266 60.5337 1.47266 61.0337V64.6337C1.47266 66.8337 2.97266 69.2337 4.87266 70.0337L5.37266 70.2337C5.87266 70.4337 6.27266 70.1337 6.27266 69.6337V66.0337C6.17266 63.8337 4.67266 61.4337 2.87266 60.6337Z" fill="#E41F30"/>
<path d="M10.5734 60.4337L10.0734 60.6337C8.27344 61.4337 6.77344 63.8337 6.77344 66.0337V69.6337C6.77344 70.2337 7.17344 70.5337 7.67344 70.2337L8.17344 70.0337C9.97344 69.2337 11.4734 66.8337 11.4734 64.6337V61.0337C11.4734 60.5337 11.0734 60.2337 10.5734 60.4337Z" fill="#E41F30"/>
<path d="M90.8727 70.6337L90.3727 70.4337C89.8727 70.2337 89.4727 70.5337 89.4727 71.0337V74.6337C89.4727 76.8337 90.9727 79.2337 92.8727 80.0337L93.3727 80.2337C93.8727 80.4337 94.2727 80.1337 94.2727 79.6337V76.0337C94.1727 73.8337 92.6727 71.4337 90.8727 70.6337Z" fill="#E41F30"/>
<path d="M98.5734 70.4337L98.0734 70.6337C96.2734 71.4337 94.7734 73.8337 94.7734 76.0337V79.6337C94.7734 80.2337 95.1734 80.5337 95.6734 80.2337L96.1734 80.0337C97.9734 79.2337 99.4734 76.8337 99.4734 74.6337V71.0337C99.4734 70.5337 99.0734 70.2337 98.5734 70.4337Z" fill="#E41F30"/>
<path d="M2.87266 70.6337L2.37266 70.4337C1.87266 70.2337 1.47266 70.5337 1.47266 71.0337V74.6337C1.47266 76.8337 2.97266 79.2337 4.87266 80.0337L5.37266 80.2337C5.87266 80.4337 6.27266 80.1337 6.27266 79.6337V76.0337C6.17266 73.8337 4.67266 71.4337 2.87266 70.6337Z" fill="#E41F30"/>
<path d="M10.5734 70.4337L10.0734 70.6337C8.27344 71.4337 6.77344 73.8337 6.77344 76.0337V79.6337C6.77344 80.2337 7.17344 80.5337 7.67344 80.2337L8.17344 80.0337C9.97344 79.2337 11.4734 76.8337 11.4734 74.6337V71.0337C11.4734 70.5337 11.0734 70.2337 10.5734 70.4337Z" fill="#E41F30"/>
<path d="M57.8727 90.6337L57.3727 90.4337C56.8727 90.2337 56.4727 90.5337 56.4727 91.0337V94.6337C56.4727 96.8337 57.9727 99.2337 59.8727 100.034L60.3727 100.234C60.8727 100.434 61.2727 100.134 61.2727 99.6337V96.0337C61.1727 93.8337 59.6727 91.4337 57.8727 90.6337Z" fill="#E41F30"/>
<path d="M65.5734 90.4337L65.0734 90.6337C63.2734 91.4337 61.7734 93.8337 61.7734 96.0337V99.6337C61.7734 100.234 62.1734 100.534 62.6734 100.234L63.1734 100.034C64.9734 99.2337 66.4734 96.8337 66.4734 94.6337V91.0337C66.4734 90.5337 66.0734 90.2337 65.5734 90.4337Z" fill="#E41F30"/>
<path d="M13.8727 90.6337L13.3727 90.4337C12.8727 90.2337 12.4727 90.5337 12.4727 91.0337V94.6337C12.4727 96.8337 13.9727 99.2337 15.8727 100.034L16.3727 100.234C16.8727 100.434 17.2727 100.134 17.2727 99.6337V96.0337C17.1727 93.8337 15.6727 91.4337 13.8727 90.6337Z" fill="#E41F30"/>
<path d="M21.5734 90.4337L21.0734 90.6337C19.2734 91.4337 17.7734 93.8337 17.7734 96.0337V99.6337C17.7734 100.234 18.1734 100.534 18.6734 100.234L19.1734 100.034C20.9734 99.2337 22.4734 96.8337 22.4734 94.6337V91.0337C22.4734 90.5337 22.0734 90.2337 21.5734 90.4337Z" fill="#E41F30"/>
<path d="M57.8727 100.634L57.3727 100.434C56.8727 100.234 56.4727 100.534 56.4727 101.034V104.634C56.4727 106.834 57.9727 109.234 59.8727 110.034L60.3727 110.234C60.8727 110.434 61.2727 110.134 61.2727 109.634V106.034C61.1727 103.834 59.6727 101.434 57.8727 100.634Z" fill="#E41F30"/>
<path d="M65.5734 100.434L65.0734 100.634C63.2734 101.434 61.7734 103.834 61.7734 106.034V109.634C61.7734 110.234 62.1734 110.534 62.6734 110.234L63.1734 110.034C64.9734 109.234 66.4734 106.834 66.4734 104.634V101.034C66.4734 100.534 66.0734 100.234 65.5734 100.434Z" fill="#E41F30"/>
<path d="M13.8727 100.634L13.3727 100.434C12.8727 100.234 12.4727 100.534 12.4727 101.034V104.634C12.4727 106.834 13.9727 109.234 15.8727 110.034L16.3727 110.234C16.8727 110.434 17.2727 110.134 17.2727 109.634V106.034C17.1727 103.834 15.6727 101.434 13.8727 100.634Z" fill="#E41F30"/>
<path d="M21.5734 100.434L21.0734 100.634C19.2734 101.434 17.7734 103.834 17.7734 106.034V109.634C17.7734 110.234 18.1734 110.534 18.6734 110.234L19.1734 110.034C20.9734 109.234 22.4734 106.834 22.4734 104.634V101.034C22.4734 100.534 22.0734 100.234 21.5734 100.434Z" fill="#E41F30"/>
<path d="M57.8727 110.634L57.3727 110.434C56.8727 110.234 56.4727 110.534 56.4727 111.034V114.634C56.4727 116.834 57.9727 119.234 59.8727 120.034L60.3727 120.234C60.8727 120.434 61.2727 120.134 61.2727 119.634V116.034C61.1727 113.834 59.6727 111.434 57.8727 110.634Z" fill="#E41F30"/>
<path d="M65.5734 110.434L65.0734 110.634C63.2734 111.434 61.7734 113.834 61.7734 116.034V119.634C61.7734 120.234 62.1734 120.534 62.6734 120.234L63.1734 120.034C64.9734 119.234 66.4734 116.834 66.4734 114.634V111.034C66.4734 110.534 66.0734 110.234 65.5734 110.434Z" fill="#E41F30"/>
<path d="M13.8727 110.634L13.3727 110.434C12.8727 110.234 12.4727 110.534 12.4727 111.034V114.634C12.4727 116.834 13.9727 119.234 15.8727 120.034L16.3727 120.234C16.8727 120.434 17.2727 120.134 17.2727 119.634V116.034C17.1727 113.834 15.6727 111.434 13.8727 110.634Z" fill="#E41F30"/>
<path d="M21.5734 110.434L21.0734 110.634C19.2734 111.434 17.7734 113.834 17.7734 116.034V119.634C17.7734 120.234 18.1734 120.534 18.6734 120.234L19.1734 120.034C20.9734 119.234 22.4734 116.834 22.4734 114.634V111.034C22.4734 110.534 22.0734 110.234 21.5734 110.434Z" fill="#E41F30"/>
<path d="M57.8727 120.634L57.3727 120.434C56.8727 120.234 56.4727 120.534 56.4727 121.034V124.634C56.4727 126.834 57.9727 129.234 59.8727 130.034L60.3727 130.234C60.8727 130.434 61.2727 130.134 61.2727 129.634V126.034C61.1727 123.834 59.6727 121.434 57.8727 120.634Z" fill="#E41F30"/>
<path d="M65.5734 120.434L65.0734 120.634C63.2734 121.434 61.7734 123.834 61.7734 126.034V129.634C61.7734 130.234 62.1734 130.534 62.6734 130.234L63.1734 130.034C64.9734 129.234 66.4734 126.834 66.4734 124.634V121.034C66.4734 120.534 66.0734 120.234 65.5734 120.434Z" fill="#E41F30"/>
<path d="M13.8727 120.634L13.3727 120.434C12.8727 120.234 12.4727 120.534 12.4727 121.034V124.634C12.4727 126.834 13.9727 129.234 15.8727 130.034L16.3727 130.234C16.8727 130.434 17.2727 130.134 17.2727 129.634V126.034C17.1727 123.834 15.6727 121.434 13.8727 120.634Z" fill="#E41F30"/>
<path d="M21.5734 120.434L21.0734 120.634C19.2734 121.434 17.7734 123.834 17.7734 126.034V129.634C17.7734 130.234 18.1734 130.534 18.6734 130.234L19.1734 130.034C20.9734 129.234 22.4734 126.834 22.4734 124.634V121.034C22.4734 120.534 22.0734 120.234 21.5734 120.434Z" fill="#E41F30"/>
<path d="M68.8727 90.6337L68.3727 90.4337C67.8727 90.2337 67.4727 90.5337 67.4727 91.0337V94.6337C67.4727 96.8337 68.9727 99.2337 70.8727 100.034L71.3727 100.234C71.8727 100.434 72.2727 100.134 72.2727 99.6337V96.0337C72.1727 93.8337 70.6727 91.4337 68.8727 90.6337Z" fill="#E41F30"/>
<path d="M76.5734 90.4337L76.0734 90.6337C74.2734 91.4337 72.7734 93.8337 72.7734 96.0337V99.6337C72.7734 100.234 73.1734 100.534 73.6734 100.234L74.1734 100.034C75.9734 99.2337 77.4734 96.8337 77.4734 94.6337V91.0337C77.4734 90.5337 77.0734 90.2337 76.5734 90.4337Z" fill="#E41F30"/>
<path d="M24.8727 90.6337L24.3727 90.4337C23.8727 90.2337 23.4727 90.5337 23.4727 91.0337V94.6337C23.4727 96.8337 24.9727 99.2337 26.8727 100.034L27.3727 100.234C27.8727 100.434 28.2727 100.134 28.2727 99.6337V96.0337C28.1727 93.8337 26.6727 91.4337 24.8727 90.6337Z" fill="#E41F30"/>
<path d="M32.5734 90.4337L32.0734 90.6337C30.2734 91.4337 28.7734 93.8337 28.7734 96.0337V99.6337C28.7734 100.234 29.1734 100.534 29.6734 100.234L30.1734 100.034C31.9734 99.2337 33.4734 96.8337 33.4734 94.6337V91.0337C33.4734 90.5337 33.0734 90.2337 32.5734 90.4337Z" fill="#E41F30"/>
<path d="M68.8727 100.634L68.3727 100.434C67.8727 100.234 67.4727 100.534 67.4727 101.034V104.634C67.4727 106.834 68.9727 109.234 70.8727 110.034L71.3727 110.234C71.8727 110.434 72.2727 110.134 72.2727 109.634V106.034C72.1727 103.834 70.6727 101.434 68.8727 100.634Z" fill="#E41F30"/>
<path d="M76.5734 100.434L76.0734 100.634C74.2734 101.434 72.7734 103.834 72.7734 106.034V109.634C72.7734 110.234 73.1734 110.534 73.6734 110.234L74.1734 110.034C75.9734 109.234 77.4734 106.834 77.4734 104.634V101.034C77.4734 100.534 77.0734 100.234 76.5734 100.434Z" fill="#E41F30"/>
<path d="M24.8727 100.634L24.3727 100.434C23.8727 100.234 23.4727 100.534 23.4727 101.034V104.634C23.4727 106.834 24.9727 109.234 26.8727 110.034L27.3727 110.234C27.8727 110.434 28.2727 110.134 28.2727 109.634V106.034C28.1727 103.834 26.6727 101.434 24.8727 100.634Z" fill="#E41F30"/>
<path d="M32.5734 100.434L32.0734 100.634C30.2734 101.434 28.7734 103.834 28.7734 106.034V109.634C28.7734 110.234 29.1734 110.534 29.6734 110.234L30.1734 110.034C31.9734 109.234 33.4734 106.834 33.4734 104.634V101.034C33.4734 100.534 33.0734 100.234 32.5734 100.434Z" fill="#E41F30"/>
<path d="M68.8727 110.634L68.3727 110.434C67.8727 110.234 67.4727 110.534 67.4727 111.034V114.634C67.4727 116.834 68.9727 119.234 70.8727 120.034L71.3727 120.234C71.8727 120.434 72.2727 120.134 72.2727 119.634V116.034C72.1727 113.834 70.6727 111.434 68.8727 110.634Z" fill="#E41F30"/>
<path d="M76.5734 110.434L76.0734 110.634C74.2734 111.434 72.7734 113.834 72.7734 116.034V119.634C72.7734 120.234 73.1734 120.534 73.6734 120.234L74.1734 120.034C75.9734 119.234 77.4734 116.834 77.4734 114.634V111.034C77.4734 110.534 77.0734 110.234 76.5734 110.434Z" fill="#E41F30"/>
<path d="M24.8727 110.634L24.3727 110.434C23.8727 110.234 23.4727 110.534 23.4727 111.034V114.634C23.4727 116.834 24.9727 119.234 26.8727 120.034L27.3727 120.234C27.8727 120.434 28.2727 120.134 28.2727 119.634V116.034C28.1727 113.834 26.6727 111.434 24.8727 110.634Z" fill="#E41F30"/>
<path d="M32.5734 110.434L32.0734 110.634C30.2734 111.434 28.7734 113.834 28.7734 116.034V119.634C28.7734 120.234 29.1734 120.534 29.6734 120.234L30.1734 120.034C31.9734 119.234 33.4734 116.834 33.4734 114.634V111.034C33.4734 110.534 33.0734 110.234 32.5734 110.434Z" fill="#E41F30"/>
<path d="M68.8727 120.634L68.3727 120.434C67.8727 120.234 67.4727 120.534 67.4727 121.034V124.634C67.4727 126.834 68.9727 129.234 70.8727 130.034L71.3727 130.234C71.8727 130.434 72.2727 130.134 72.2727 129.634V126.034C72.1727 123.834 70.6727 121.434 68.8727 120.634Z" fill="#E41F30"/>
<path d="M76.5734 120.434L76.0734 120.634C74.2734 121.434 72.7734 123.834 72.7734 126.034V129.634C72.7734 130.234 73.1734 130.534 73.6734 130.234L74.1734 130.034C75.9734 129.234 77.4734 126.834 77.4734 124.634V121.034C77.4734 120.534 77.0734 120.234 76.5734 120.434Z" fill="#E41F30"/>
<path d="M24.8727 120.634L24.3727 120.434C23.8727 120.234 23.4727 120.534 23.4727 121.034V124.634C23.4727 126.834 24.9727 129.234 26.8727 130.034L27.3727 130.234C27.8727 130.434 28.2727 130.134 28.2727 129.634V126.034C28.1727 123.834 26.6727 121.434 24.8727 120.634Z" fill="#E41F30"/>
<path d="M32.5734 120.434L32.0734 120.634C30.2734 121.434 28.7734 123.834 28.7734 126.034V129.634C28.7734 130.234 29.1734 130.534 29.6734 130.234L30.1734 130.034C31.9734 129.234 33.4734 126.834 33.4734 124.634V121.034C33.4734 120.534 33.0734 120.234 32.5734 120.434Z" fill="#E41F30"/>
<path d="M79.8727 90.6337L79.3727 90.4337C78.8727 90.2337 78.4727 90.5337 78.4727 91.0337V94.6337C78.4727 96.8337 79.9727 99.2337 81.8727 100.034L82.3727 100.234C82.8727 100.434 83.2727 100.134 83.2727 99.6337V96.0337C83.1727 93.8337 81.6727 91.4337 79.8727 90.6337Z" fill="#E41F30"/>
<path d="M87.5734 90.4337L87.0734 90.6337C85.2734 91.4337 83.7734 93.8337 83.7734 96.0337V99.6337C83.7734 100.234 84.1734 100.534 84.6734 100.234L85.1734 100.034C86.9734 99.2337 88.4734 96.8337 88.4734 94.6337V91.0337C88.4734 90.5337 88.0734 90.2337 87.5734 90.4337Z" fill="#E41F30"/>
<path d="M35.8727 90.6337L35.3727 90.4337C34.8727 90.2337 34.4727 90.5337 34.4727 91.0337V94.6337C34.4727 96.8337 35.9727 99.2337 37.8727 100.034L38.3727 100.234C38.8727 100.434 39.2727 100.134 39.2727 99.6337V96.0337C39.1727 93.8337 37.6727 91.4337 35.8727 90.6337Z" fill="#E41F30"/>
<path d="M43.5734 90.4337L43.0734 90.6337C41.2734 91.4337 39.7734 93.8337 39.7734 96.0337V99.6337C39.7734 100.234 40.1734 100.534 40.6734 100.234L41.1734 100.034C42.9734 99.2337 44.4734 96.8337 44.4734 94.6337V91.0337C44.4734 90.5337 44.0734 90.2337 43.5734 90.4337Z" fill="#E41F30"/>
<path d="M79.8727 100.634L79.3727 100.434C78.8727 100.234 78.4727 100.534 78.4727 101.034V104.634C78.4727 106.834 79.9727 109.234 81.8727 110.034L82.3727 110.234C82.8727 110.434 83.2727 110.134 83.2727 109.634V106.034C83.1727 103.834 81.6727 101.434 79.8727 100.634Z" fill="#E41F30"/>
<path d="M87.5734 100.434L87.0734 100.634C85.2734 101.434 83.7734 103.834 83.7734 106.034V109.634C83.7734 110.234 84.1734 110.534 84.6734 110.234L85.1734 110.034C86.9734 109.234 88.4734 106.834 88.4734 104.634V101.034C88.4734 100.534 88.0734 100.234 87.5734 100.434Z" fill="#E41F30"/>
<path d="M35.8727 100.634L35.3727 100.434C34.8727 100.234 34.4727 100.534 34.4727 101.034V104.634C34.4727 106.834 35.9727 109.234 37.8727 110.034L38.3727 110.234C38.8727 110.434 39.2727 110.134 39.2727 109.634V106.034C39.1727 103.834 37.6727 101.434 35.8727 100.634Z" fill="#E41F30"/>
<path d="M43.5734 100.434L43.0734 100.634C41.2734 101.434 39.7734 103.834 39.7734 106.034V109.634C39.7734 110.234 40.1734 110.534 40.6734 110.234L41.1734 110.034C42.9734 109.234 44.4734 106.834 44.4734 104.634V101.034C44.4734 100.534 44.0734 100.234 43.5734 100.434Z" fill="#E41F30"/>
<path d="M79.8727 110.634L79.3727 110.434C78.8727 110.234 78.4727 110.534 78.4727 111.034V114.634C78.4727 116.834 79.9727 119.234 81.8727 120.034L82.3727 120.234C82.8727 120.434 83.2727 120.134 83.2727 119.634V116.034C83.1727 113.834 81.6727 111.434 79.8727 110.634Z" fill="#E41F30"/>
<path d="M87.5734 110.434L87.0734 110.634C85.2734 111.434 83.7734 113.834 83.7734 116.034V119.634C83.7734 120.234 84.1734 120.534 84.6734 120.234L85.1734 120.034C86.9734 119.234 88.4734 116.834 88.4734 114.634V111.034C88.4734 110.534 88.0734 110.234 87.5734 110.434Z" fill="#E41F30"/>
<path d="M35.8727 110.634L35.3727 110.434C34.8727 110.234 34.4727 110.534 34.4727 111.034V114.634C34.4727 116.834 35.9727 119.234 37.8727 120.034L38.3727 120.234C38.8727 120.434 39.2727 120.134 39.2727 119.634V116.034C39.1727 113.834 37.6727 111.434 35.8727 110.634Z" fill="#E41F30"/>
<path d="M43.5734 110.434L43.0734 110.634C41.2734 111.434 39.7734 113.834 39.7734 116.034V119.634C39.7734 120.234 40.1734 120.534 40.6734 120.234L41.1734 120.034C42.9734 119.234 44.4734 116.834 44.4734 114.634V111.034C44.4734 110.534 44.0734 110.234 43.5734 110.434Z" fill="#E41F30"/>
<path d="M79.8727 120.634L79.3727 120.434C78.8727 120.234 78.4727 120.534 78.4727 121.034V124.634C78.4727 126.834 79.9727 129.234 81.8727 130.034L82.3727 130.234C82.8727 130.434 83.2727 130.134 83.2727 129.634V126.034C83.1727 123.834 81.6727 121.434 79.8727 120.634Z" fill="#E41F30"/>
<path d="M87.5734 120.434L87.0734 120.634C85.2734 121.434 83.7734 123.834 83.7734 126.034V129.634C83.7734 130.234 84.1734 130.534 84.6734 130.234L85.1734 130.034C86.9734 129.234 88.4734 126.834 88.4734 124.634V121.034C88.4734 120.534 88.0734 120.234 87.5734 120.434Z" fill="#E41F30"/>
<path d="M35.8727 120.634L35.3727 120.434C34.8727 120.234 34.4727 120.534 34.4727 121.034V124.634C34.4727 126.834 35.9727 129.234 37.8727 130.034L38.3727 130.234C38.8727 130.434 39.2727 130.134 39.2727 129.634V126.034C39.1727 123.834 37.6727 121.434 35.8727 120.634Z" fill="#E41F30"/>
<path d="M43.5734 120.434L43.0734 120.634C41.2734 121.434 39.7734 123.834 39.7734 126.034V129.634C39.7734 130.234 40.1734 130.534 40.6734 130.234L41.1734 130.034C42.9734 129.234 44.4734 126.834 44.4734 124.634V121.034C44.4734 120.534 44.0734 120.234 43.5734 120.434Z" fill="#E41F30"/>
<path d="M90.8727 90.6337L90.3727 90.4337C89.8727 90.2337 89.4727 90.5337 89.4727 91.0337V94.6337C89.4727 96.8337 90.9727 99.2337 92.8727 100.034L93.3727 100.234C93.8727 100.434 94.2727 100.134 94.2727 99.6337V96.0337C94.1727 93.8337 92.6727 91.4337 90.8727 90.6337Z" fill="#E41F30"/>
<path d="M98.5734 90.4337L98.0734 90.6337C96.2734 91.4337 94.7734 93.8337 94.7734 96.0337V99.6337C94.7734 100.234 95.1734 100.534 95.6734 100.234L96.1734 100.034C97.9734 99.2337 99.4734 96.8337 99.4734 94.6337V91.0337C99.4734 90.5337 99.0734 90.2337 98.5734 90.4337Z" fill="#E41F30"/>
<path d="M2.87266 90.6337L2.37266 90.4337C1.87266 90.2337 1.47266 90.5337 1.47266 91.0337V94.6337C1.47266 96.8337 2.97266 99.2337 4.87266 100.034L5.37266 100.234C5.87266 100.434 6.27266 100.134 6.27266 99.6337V96.0337C6.17266 93.8337 4.67266 91.4337 2.87266 90.6337Z" fill="#E41F30"/>
<path d="M10.5734 90.4337L10.0734 90.6337C8.27344 91.4337 6.77344 93.8337 6.77344 96.0337V99.6337C6.77344 100.234 7.17344 100.534 7.67344 100.234L8.17344 100.034C9.97344 99.2337 11.4734 96.8337 11.4734 94.6337V91.0337C11.4734 90.5337 11.0734 90.2337 10.5734 90.4337Z" fill="#E41F30"/>
<path d="M90.8727 100.634L90.3727 100.434C89.8727 100.234 89.4727 100.534 89.4727 101.034V104.634C89.4727 106.834 90.9727 109.234 92.8727 110.034L93.3727 110.234C93.8727 110.434 94.2727 110.134 94.2727 109.634V106.034C94.1727 103.834 92.6727 101.434 90.8727 100.634Z" fill="#E41F30"/>
<path d="M98.5734 100.434L98.0734 100.634C96.2734 101.434 94.7734 103.834 94.7734 106.034V109.634C94.7734 110.234 95.1734 110.534 95.6734 110.234L96.1734 110.034C97.9734 109.234 99.4734 106.834 99.4734 104.634V101.034C99.4734 100.534 99.0734 100.234 98.5734 100.434Z" fill="#E41F30"/>
<path d="M2.87266 100.634L2.37266 100.434C1.87266 100.234 1.47266 100.534 1.47266 101.034V104.634C1.47266 106.834 2.97266 109.234 4.87266 110.034L5.37266 110.234C5.87266 110.434 6.27266 110.134 6.27266 109.634V106.034C6.17266 103.834 4.67266 101.434 2.87266 100.634Z" fill="#E41F30"/>
<path d="M10.5734 100.434L10.0734 100.634C8.27344 101.434 6.77344 103.834 6.77344 106.034V109.634C6.77344 110.234 7.17344 110.534 7.67344 110.234L8.17344 110.034C9.97344 109.234 11.4734 106.834 11.4734 104.634V101.034C11.4734 100.534 11.0734 100.234 10.5734 100.434Z" fill="#E41F30"/>
<path d="M90.8727 110.634L90.3727 110.434C89.8727 110.234 89.4727 110.534 89.4727 111.034V114.634C89.4727 116.834 90.9727 119.234 92.8727 120.034L93.3727 120.234C93.8727 120.434 94.2727 120.134 94.2727 119.634V116.034C94.1727 113.834 92.6727 111.434 90.8727 110.634Z" fill="#E41F30"/>
<path d="M98.5734 110.434L98.0734 110.634C96.2734 111.434 94.7734 113.834 94.7734 116.034V119.634C94.7734 120.234 95.1734 120.534 95.6734 120.234L96.1734 120.034C97.9734 119.234 99.4734 116.834 99.4734 114.634V111.034C99.4734 110.534 99.0734 110.234 98.5734 110.434Z" fill="#E41F30"/>
<path d="M2.87266 110.634L2.37266 110.434C1.87266 110.234 1.47266 110.534 1.47266 111.034V114.634C1.47266 116.834 2.97266 119.234 4.87266 120.034L5.37266 120.234C5.87266 120.434 6.27266 120.134 6.27266 119.634V116.034C6.17266 113.834 4.67266 111.434 2.87266 110.634Z" fill="#E41F30"/>
<path d="M10.5734 110.434L10.0734 110.634C8.27344 111.434 6.77344 113.834 6.77344 116.034V119.634C6.77344 120.234 7.17344 120.534 7.67344 120.234L8.17344 120.034C9.97344 119.234 11.4734 116.834 11.4734 114.634V111.034C11.4734 110.534 11.0734 110.234 10.5734 110.434Z" fill="#E41F30"/>
<path d="M90.8727 120.634L90.3727 120.434C89.8727 120.234 89.4727 120.534 89.4727 121.034V124.634C89.4727 126.834 90.9727 129.234 92.8727 130.034L93.3727 130.234C93.8727 130.434 94.2727 130.134 94.2727 129.634V126.034C94.1727 123.834 92.6727 121.434 90.8727 120.634Z" fill="#E41F30"/>
<path d="M98.5734 120.434L98.0734 120.634C96.2734 121.434 94.7734 123.834 94.7734 126.034V129.634C94.7734 130.234 95.1734 130.534 95.6734 130.234L96.1734 130.034C97.9734 129.234 99.4734 126.834 99.4734 124.634V121.034C99.4734 120.534 99.0734 120.234 98.5734 120.434Z" fill="#E41F30"/>
<path d="M2.87266 120.634L2.37266 120.434C1.87266 120.234 1.47266 120.534 1.47266 121.034V124.634C1.47266 126.834 2.97266 129.234 4.87266 130.034L5.37266 130.234C5.87266 130.434 6.27266 130.134 6.27266 129.634V126.034C6.17266 123.834 4.67266 121.434 2.87266 120.634Z" fill="#E41F30"/>
<path d="M10.5734 120.434L10.0734 120.634C8.27344 121.434 6.77344 123.834 6.77344 126.034V129.634C6.77344 130.234 7.17344 130.534 7.67344 130.234L8.17344 130.034C9.97344 129.234 11.4734 126.834 11.4734 124.634V121.034C11.4734 120.534 11.0734 120.234 10.5734 120.434Z" fill="#E41F30"/>
<path d="M63.3727 0.63374L62.8727 0.43374C62.3727 0.23374 61.9727 0.53374 61.9727 1.03374V4.63374C61.9727 6.83374 63.4727 9.23374 65.3727 10.0337L65.8727 10.2337C66.3727 10.4337 66.7727 10.1337 66.7727 9.63374V6.03374C66.6727 3.83374 65.1727 1.43374 63.3727 0.63374Z" fill="#E41F30"/>
<path d="M71.0734 0.43374L70.5734 0.63374C68.7734 1.43374 67.2734 3.83374 67.2734 6.03374V9.63374C67.2734 10.2337 67.6734 10.5337 68.1734 10.2337L68.6734 10.0337C70.4734 9.23374 71.9734 6.83374 71.9734 4.63374V1.03374C71.9734 0.53374 71.5734 0.23374 71.0734 0.43374Z" fill="#E41F30"/>
<path d="M27.0734 0.43374L26.5734 0.63374C24.7734 1.43374 23.2734 3.83374 23.2734 6.03374V9.63374C23.2734 10.2337 23.6734 10.5337 24.1734 10.2337L24.6734 10.0337C26.4734 9.23374 27.9734 6.83374 27.9734 4.63374V1.03374C27.9734 0.53374 27.5734 0.23374 27.0734 0.43374Z" fill="#E41F30"/>
<path d="M19.3727 10.6337L18.8727 10.4337C18.3727 10.2337 17.9727 10.5337 17.9727 11.0337V14.6337C17.9727 16.8337 19.4727 19.2337 21.3727 20.0337L21.8727 20.2337C22.3727 20.4337 22.7727 20.1337 22.7727 19.6337V16.0337C22.6727 13.8337 21.1727 11.4337 19.3727 10.6337Z" fill="#E41F30"/>
<path d="M63.3727 20.6337L62.8727 20.4337C62.3727 20.2337 61.9727 20.5337 61.9727 21.0337V24.6337C61.9727 26.8337 63.4727 29.2337 65.3727 30.0337L65.8727 30.2337C66.3727 30.4337 66.7727 30.1337 66.7727 29.6337V26.0337C66.6727 23.8337 65.1727 21.4337 63.3727 20.6337Z" fill="#E41F30"/>
<path d="M71.0734 20.4337L70.5734 20.6337C68.7734 21.4337 67.2734 23.8337 67.2734 26.0337V29.6337C67.2734 30.2337 67.6734 30.5337 68.1734 30.2337L68.6734 30.0337C70.4734 29.2337 71.9734 26.8337 71.9734 24.6337V21.0337C71.9734 20.5337 71.5734 20.2337 71.0734 20.4337Z" fill="#E41F30"/>
<path d="M27.0734 20.4337L26.5734 20.6337C24.7734 21.4337 23.2734 23.8337 23.2734 26.0337V29.6337C23.2734 30.2337 23.6734 30.5337 24.1734 30.2337L24.6734 30.0337C26.4734 29.2337 27.9734 26.8337 27.9734 24.6337V21.0337C27.9734 20.5337 27.5734 20.2337 27.0734 20.4337Z" fill="#E41F30"/>
<path d="M74.3727 0.63374L73.8727 0.43374C73.3727 0.23374 72.9727 0.53374 72.9727 1.03374V4.63374C72.9727 6.83374 74.4727 9.23374 76.3727 10.0337L76.8727 10.2337C77.3727 10.4337 77.7727 10.1337 77.7727 9.63374V6.03374C77.6727 3.83374 76.1727 1.43374 74.3727 0.63374Z" fill="#E41F30"/>
<path d="M30.3727 0.63374L29.8727 0.43374C29.3727 0.23374 28.9727 0.53374 28.9727 1.03374V4.63374C28.9727 6.83374 30.4727 9.23374 32.3727 10.0337L32.8727 10.2337C33.3727 10.4337 33.7727 10.1337 33.7727 9.63374V6.03374C33.6727 3.83374 32.1727 1.43374 30.3727 0.63374Z" fill="#E41F30"/>
<path d="M38.0734 0.43374L37.5734 0.63374C35.7734 1.43374 34.2734 3.83374 34.2734 6.03374V9.63374C34.2734 10.2337 34.6734 10.5337 35.1734 10.2337L35.6734 10.0337C37.4734 9.23374 38.9734 6.83374 38.9734 4.63374V1.03374C38.9734 0.53374 38.5734 0.23374 38.0734 0.43374Z" fill="#E41F30"/>
<path d="M82.0734 10.4337L81.5734 10.6337C79.7734 11.4337 78.2734 13.8337 78.2734 16.0337V19.6337C78.2734 20.2337 78.6734 20.5337 79.1734 20.2337L79.6734 20.0337C81.4734 19.2337 82.9734 16.8337 82.9734 14.6337V11.0337C82.9734 10.5337 82.5734 10.2337 82.0734 10.4337Z" fill="#E41F30"/>
<path d="M74.3727 20.6337L73.8727 20.4337C73.3727 20.2337 72.9727 20.5337 72.9727 21.0337V24.6337C72.9727 26.8337 74.4727 29.2337 76.3727 30.0337L76.8727 30.2337C77.3727 30.4337 77.7727 30.1337 77.7727 29.6337V26.0337C77.6727 23.8337 76.1727 21.4337 74.3727 20.6337Z" fill="#E41F30"/>
<path d="M30.3727 20.6337L29.8727 20.4337C29.3727 20.2337 28.9727 20.5337 28.9727 21.0337V24.6337C28.9727 26.8337 30.4727 29.2337 32.3727 30.0337L32.8727 30.2337C33.3727 30.4337 33.7727 30.1337 33.7727 29.6337V26.0337C33.6727 23.8337 32.1727 21.4337 30.3727 20.6337Z" fill="#E41F30"/>
<path d="M38.0734 20.4337L37.5734 20.6337C35.7734 21.4337 34.2734 23.8337 34.2734 26.0337V29.6337C34.2734 30.2337 34.6734 30.5337 35.1734 30.2337L35.6734 30.0337C37.4734 29.2337 38.9734 26.8337 38.9734 24.6337V21.0337C38.9734 20.5337 38.5734 20.2337 38.0734 20.4337Z" fill="#E41F30"/>
<path d="M41.3727 10.6337L40.8727 10.4337C40.3727 10.2337 39.9727 10.5337 39.9727 11.0337V14.6337C39.9727 16.8337 41.4727 19.2337 43.3727 20.0337L43.8727 20.2337C44.3727 20.4337 44.7727 20.1337 44.7727 19.6337V16.0337C44.6727 13.8337 43.1727 11.4337 41.3727 10.6337Z" fill="#E41F30"/>
<path d="M49.0734 10.4337L48.5734 10.6337C46.7734 11.4337 45.2734 13.8337 45.2734 16.0337V19.6337C45.2734 20.2337 45.6734 20.5337 46.1734 20.2337L46.6734 20.0337C48.4734 19.2337 49.9734 16.8337 49.9734 14.6337V11.0337C49.9734 10.5337 49.5734 10.2337 49.0734 10.4337Z" fill="#E41F30"/>
<path d="M41.3727 20.6337L40.8727 20.4337C40.3727 20.2337 39.9727 20.5337 39.9727 21.0337V24.6337C39.9727 26.8337 41.4727 29.2337 43.3727 30.0337L43.8727 30.2337C44.3727 30.4337 44.7727 30.1337 44.7727 29.6337V26.0337C44.6727 23.8337 43.1727 21.4337 41.3727 20.6337Z" fill="#E41F30"/>
<path d="M49.0734 20.4337L48.5734 20.6337C46.7734 21.4337 45.2734 23.8337 45.2734 26.0337V29.6337C45.2734 30.2337 45.6734 30.5337 46.1734 30.2337L46.6734 30.0337C48.4734 29.2337 49.9734 26.8337 49.9734 24.6337V21.0337C49.9734 20.5337 49.5734 20.2337 49.0734 20.4337Z" fill="#E41F30"/>
<path d="M49.0734 30.4337L48.5734 30.6337C46.7734 31.4337 45.2734 33.8337 45.2734 36.0337V39.6337C45.2734 40.2337 45.6734 40.5337 46.1734 40.2337L46.6734 40.0337C48.4734 39.2337 49.9734 36.8337 49.9734 34.6337V31.0337C49.9734 30.5337 49.5734 30.2337 49.0734 30.4337Z" fill="#E41F30"/>
<path d="M52.3727 10.6337L51.8727 10.4337C51.3727 10.2337 50.9727 10.5337 50.9727 11.0337V14.6337C50.9727 16.8337 52.4727 19.2337 54.3727 20.0337L54.8727 20.2337C55.3727 20.4337 55.7727 20.1337 55.7727 19.6337V16.0337C55.6727 13.8337 54.1727 11.4337 52.3727 10.6337Z" fill="#E41F30"/>
<path d="M60.0734 10.4337L59.5734 10.6337C57.7734 11.4337 56.2734 13.8337 56.2734 16.0337V19.6337C56.2734 20.2337 56.6734 20.5337 57.1734 20.2337L57.6734 20.0337C59.4734 19.2337 60.9734 16.8337 60.9734 14.6337V11.0337C60.9734 10.5337 60.5734 10.2337 60.0734 10.4337Z" fill="#E41F30"/>
<path d="M52.3727 20.6337L51.8727 20.4337C51.3727 20.2337 50.9727 20.5337 50.9727 21.0337V24.6337C50.9727 26.8337 52.4727 29.2337 54.3727 30.0337L54.8727 30.2337C55.3727 30.4337 55.7727 30.1337 55.7727 29.6337V26.0337C55.6727 23.8337 54.1727 21.4337 52.3727 20.6337Z" fill="#E41F30"/>
<path d="M60.0734 20.4337L59.5734 20.6337C57.7734 21.4337 56.2734 23.8337 56.2734 26.0337V29.6337C56.2734 30.2337 56.6734 30.5337 57.1734 30.2337L57.6734 30.0337C59.4734 29.2337 60.9734 26.8337 60.9734 24.6337V21.0337C60.9734 20.5337 60.5734 20.2337 60.0734 20.4337Z" fill="#E41F30"/>
<path d="M52.3727 30.6337L51.8727 30.4337C51.3727 30.2337 50.9727 30.5337 50.9727 31.0337V34.6337C50.9727 36.8337 52.4727 39.2337 54.3727 40.0337L54.8727 40.2337C55.3727 40.4337 55.7727 40.1337 55.7727 39.6337V36.0337C55.6727 33.8337 54.1727 31.4337 52.3727 30.6337Z" fill="#E41F30"/>
</svg>
