<svg width="144" height="131" viewBox="0 0 144 131" fill="none" xmlns="http://www.w3.org/2000/svg">
<path d="M74.3727 0.63374L73.8727 0.43374C73.3727 0.23374 72.9727 0.53374 72.9727 1.03374V4.63374C72.9727 6.83374 74.4727 9.23374 76.3727 10.0337L76.8727 10.2337C77.3727 10.4337 77.7727 10.1337 77.7727 9.63374V6.03374C77.6727 3.83374 76.1727 1.43374 74.3727 0.63374Z" fill="#E41F30"/>
<path d="M82.0734 0.43374L81.5734 0.63374C79.7734 1.43374 78.2734 3.83374 78.2734 6.03374V9.63374C78.2734 10.2337 78.6734 10.5337 79.1734 10.2337L79.6734 10.0337C81.4734 9.23374 82.9734 6.83374 82.9734 4.63374V1.03374C82.9734 0.53374 82.5734 0.23374 82.0734 0.43374Z" fill="#E41F30"/>
<path d="M74.3727 10.6337L73.8727 10.4337C73.3727 10.2337 72.9727 10.5337 72.9727 11.0337V14.6337C72.9727 16.8337 74.4727 19.2337 76.3727 20.0337L76.8727 20.2337C77.3727 20.4337 77.7727 20.1337 77.7727 19.6337V16.0337C77.6727 13.8337 76.1727 11.4337 74.3727 10.6337Z" fill="#E41F30"/>
<path d="M82.0734 10.4337L81.5734 10.6337C79.7734 11.4337 78.2734 13.8337 78.2734 16.0337V19.6337C78.2734 20.2337 78.6734 20.5337 79.1734 20.2337L79.6734 20.0337C81.4734 19.2337 82.9734 16.8337 82.9734 14.6337V11.0337C82.9734 10.5337 82.5734 10.2337 82.0734 10.4337Z" fill="#E41F30"/>
<path d="M74.3727 30.6337L73.8727 30.4337C73.3727 30.2337 72.9727 30.5337 72.9727 31.0337V34.6337C72.9727 36.8337 74.4727 39.2337 76.3727 40.0337L76.8727 40.2337C77.3727 40.4337 77.7727 40.1337 77.7727 39.6337V36.0337C77.6727 33.8337 76.1727 31.4337 74.3727 30.6337Z" fill="#E41F30"/>
<path d="M82.0734 30.4337L81.5734 30.6337C79.7734 31.4337 78.2734 33.8337 78.2734 36.0337V39.6337C78.2734 40.2337 78.6734 40.5337 79.1734 40.2337L79.6734 40.0337C81.4734 39.2337 82.9734 36.8337 82.9734 34.6337V31.0337C82.9734 30.5337 82.5734 30.2337 82.0734 30.4337Z" fill="#E41F30"/>
<path d="M74.3727 40.6337L73.8727 40.4337C73.3727 40.2337 72.9727 40.5337 72.9727 41.0337V44.6337C72.9727 46.8337 74.4727 49.2337 76.3727 50.0337L76.8727 50.2337C77.3727 50.4337 77.7727 50.1337 77.7727 49.6337V46.0337C77.6727 43.8337 76.1727 41.4337 74.3727 40.6337Z" fill="#E41F30"/>
<path d="M82.0734 40.4337L81.5734 40.6337C79.7734 41.4337 78.2734 43.8337 78.2734 46.0337V49.6337C78.2734 50.2337 78.6734 50.5337 79.1734 50.2337L79.6734 50.0337C81.4734 49.2337 82.9734 46.8337 82.9734 44.6337V41.0337C82.9734 40.5337 82.5734 40.2337 82.0734 40.4337Z" fill="#E41F30"/>
<path d="M74.3727 50.6337L73.8727 50.4337C73.3727 50.2337 72.9727 50.5337 72.9727 51.0337V54.6337C72.9727 56.8337 74.4727 59.2337 76.3727 60.0337L76.8727 60.2337C77.3727 60.4337 77.7727 60.1337 77.7727 59.6337V56.0337C77.6727 53.8337 76.1727 51.4337 74.3727 50.6337Z" fill="#E41F30"/>
<path d="M82.0734 50.4337L81.5734 50.6337C79.7734 51.4337 78.2734 53.8337 78.2734 56.0337V59.6337C78.2734 60.2337 78.6734 60.5337 79.1734 60.2337L79.6734 60.0337C81.4734 59.2337 82.9734 56.8337 82.9734 54.6337V51.0337C82.9734 50.5337 82.5734 50.2337 82.0734 50.4337Z" fill="#E41F30"/>
<path d="M74.3727 60.6337L73.8727 60.4337C73.3727 60.2337 72.9727 60.5337 72.9727 61.0337V64.6337C72.9727 66.8337 74.4727 69.2337 76.3727 70.0337L76.8727 70.2337C77.3727 70.4337 77.7727 70.1337 77.7727 69.6337V66.0337C77.6727 63.8337 76.1727 61.4337 74.3727 60.6337Z" fill="#E41F30"/>
<path d="M82.0734 60.4337L81.5734 60.6337C79.7734 61.4337 78.2734 63.8337 78.2734 66.0337V69.6337C78.2734 70.2337 78.6734 70.5337 79.1734 70.2337L79.6734 70.0337C81.4734 69.2337 82.9734 66.8337 82.9734 64.6337V61.0337C82.9734 60.5337 82.5734 60.2337 82.0734 60.4337Z" fill="#E41F30"/>
<path d="M74.3727 70.6337L73.8727 70.4337C73.3727 70.2337 72.9727 70.5337 72.9727 71.0337V74.6337C72.9727 76.8337 74.4727 79.2337 76.3727 80.0337L76.8727 80.2337C77.3727 80.4337 77.7727 80.1337 77.7727 79.6337V76.0337C77.6727 73.8337 76.1727 71.4337 74.3727 70.6337Z" fill="#E41F30"/>
<path d="M82.0734 70.4337L81.5734 70.6337C79.7734 71.4337 78.2734 73.8337 78.2734 76.0337V79.6337C78.2734 80.2337 78.6734 80.5337 79.1734 80.2337L79.6734 80.0337C81.4734 79.2337 82.9734 76.8337 82.9734 74.6337V71.0337C82.9734 70.5337 82.5734 70.2337 82.0734 70.4337Z" fill="#E41F30"/>
<path d="M85.3727 0.63374L84.8727 0.43374C84.3727 0.23374 83.9727 0.53374 83.9727 1.03374V4.63374C83.9727 6.83374 85.4727 9.23374 87.3727 10.0337L87.8727 10.2337C88.3727 10.4337 88.7727 10.1337 88.7727 9.63374V6.03374C88.6727 3.83374 87.1727 1.43374 85.3727 0.63374Z" fill="#E41F30"/>
<path d="M93.0734 0.43374L92.5734 0.63374C90.7734 1.43374 89.2734 3.83374 89.2734 6.03374V9.63374C89.2734 10.2337 89.6734 10.5337 90.1734 10.2337L90.6734 10.0337C92.4734 9.23374 93.9734 6.83374 93.9734 4.63374V1.03374C93.9734 0.53374 93.5734 0.23374 93.0734 0.43374Z" fill="#E41F30"/>
<path d="M85.3727 10.6337L84.8727 10.4337C84.3727 10.2337 83.9727 10.5337 83.9727 11.0337V14.6337C83.9727 16.8337 85.4727 19.2337 87.3727 20.0337L87.8727 20.2337C88.3727 20.4337 88.7727 20.1337 88.7727 19.6337V16.0337C88.6727 13.8337 87.1727 11.4337 85.3727 10.6337Z" fill="#E41F30"/>
<path d="M93.0734 10.4337L92.5734 10.6337C90.7734 11.4337 89.2734 13.8337 89.2734 16.0337V19.6337C89.2734 20.2337 89.6734 20.5337 90.1734 20.2337L90.6734 20.0337C92.4734 19.2337 93.9734 16.8337 93.9734 14.6337V11.0337C93.9734 10.5337 93.5734 10.2337 93.0734 10.4337Z" fill="#E41F30"/>
<path d="M85.3727 30.6337L84.8727 30.4337C84.3727 30.2337 83.9727 30.5337 83.9727 31.0337V34.6337C83.9727 36.8337 85.4727 39.2337 87.3727 40.0337L87.8727 40.2337C88.3727 40.4337 88.7727 40.1337 88.7727 39.6337V36.0337C88.6727 33.8337 87.1727 31.4337 85.3727 30.6337Z" fill="#E41F30"/>
<path d="M93.0734 30.4337L92.5734 30.6337C90.7734 31.4337 89.2734 33.8337 89.2734 36.0337V39.6337C89.2734 40.2337 89.6734 40.5337 90.1734 40.2337L90.6734 40.0337C92.4734 39.2337 93.9734 36.8337 93.9734 34.6337V31.0337C93.9734 30.5337 93.5734 30.2337 93.0734 30.4337Z" fill="#E41F30"/>
<path d="M85.3727 50.6337L84.8727 50.4337C84.3727 50.2337 83.9727 50.5337 83.9727 51.0337V54.6337C83.9727 56.8337 85.4727 59.2337 87.3727 60.0337L87.8727 60.2337C88.3727 60.4337 88.7727 60.1337 88.7727 59.6337V56.0337C88.6727 53.8337 87.1727 51.4337 85.3727 50.6337Z" fill="#E41F30"/>
<path d="M93.0734 50.4337L92.5734 50.6337C90.7734 51.4337 89.2734 53.8337 89.2734 56.0337V59.6337C89.2734 60.2337 89.6734 60.5337 90.1734 60.2337L90.6734 60.0337C92.4734 59.2337 93.9734 56.8337 93.9734 54.6337V51.0337C93.9734 50.5337 93.5734 50.2337 93.0734 50.4337Z" fill="#E41F30"/>
<path d="M85.3727 60.6337L84.8727 60.4337C84.3727 60.2337 83.9727 60.5337 83.9727 61.0337V64.6337C83.9727 66.8337 85.4727 69.2337 87.3727 70.0337L87.8727 70.2337C88.3727 70.4337 88.7727 70.1337 88.7727 69.6337V66.0337C88.6727 63.8337 87.1727 61.4337 85.3727 60.6337Z" fill="#E41F30"/>
<path d="M93.0734 60.4337L92.5734 60.6337C90.7734 61.4337 89.2734 63.8337 89.2734 66.0337V69.6337C89.2734 70.2337 89.6734 70.5337 90.1734 70.2337L90.6734 70.0337C92.4734 69.2337 93.9734 66.8337 93.9734 64.6337V61.0337C93.9734 60.5337 93.5734 60.2337 93.0734 60.4337Z" fill="#E41F30"/>
<path d="M85.3727 70.6337L84.8727 70.4337C84.3727 70.2337 83.9727 70.5337 83.9727 71.0337V74.6337C83.9727 76.8337 85.4727 79.2337 87.3727 80.0337L87.8727 80.2337C88.3727 80.4337 88.7727 80.1337 88.7727 79.6337V76.0337C88.6727 73.8337 87.1727 71.4337 85.3727 70.6337Z" fill="#E41F30"/>
<path d="M93.0734 70.4337L92.5734 70.6337C90.7734 71.4337 89.2734 73.8337 89.2734 76.0337V79.6337C89.2734 80.2337 89.6734 80.5337 90.1734 80.2337L90.6734 80.0337C92.4734 79.2337 93.9734 76.8337 93.9734 74.6337V71.0337C93.9734 70.5337 93.5734 70.2337 93.0734 70.4337Z" fill="#E41F30"/>
<path d="M96.3727 0.63374L95.8727 0.43374C95.3727 0.23374 94.9727 0.53374 94.9727 1.03374V4.63374C94.9727 6.83374 96.4727 9.23374 98.3727 10.0337L98.8727 10.2337C99.3727 10.4337 99.7727 10.1337 99.7727 9.63374V6.03374C99.6727 3.83374 98.1727 1.43374 96.3727 0.63374Z" fill="#E41F30"/>
<path d="M104.073 0.43374L103.573 0.63374C101.773 1.43374 100.273 3.83374 100.273 6.03374V9.63374C100.273 10.2337 100.673 10.5337 101.173 10.2337L101.673 10.0337C103.473 9.23374 104.973 6.83374 104.973 4.63374V1.03374C104.973 0.53374 104.573 0.23374 104.073 0.43374Z" fill="#E41F30"/>
<path d="M118.373 0.63374L117.873 0.43374C117.373 0.23374 116.973 0.53374 116.973 1.03374V4.63374C116.973 6.83374 118.473 9.23374 120.373 10.0337L120.873 10.2337C121.373 10.4337 121.773 10.1337 121.773 9.63374V6.03374C121.673 3.83374 120.173 1.43374 118.373 0.63374Z" fill="#E41F30"/>
<path d="M60.0734 0.43374L59.5734 0.63374C57.7734 1.43374 56.2734 3.83374 56.2734 6.03374V9.63374C56.2734 10.2337 56.6734 10.5337 57.1734 10.2337L57.6734 10.0337C59.4734 9.23374 60.9734 6.83374 60.9734 4.63374V1.03374C60.9734 0.53374 60.5734 0.23374 60.0734 0.43374Z" fill="#E41F30"/>
<path d="M96.3727 10.6337L95.8727 10.4337C95.3727 10.2337 94.9727 10.5337 94.9727 11.0337V14.6337C94.9727 16.8337 96.4727 19.2337 98.3727 20.0337L98.8727 20.2337C99.3727 20.4337 99.7727 20.1337 99.7727 19.6337V16.0337C99.6727 13.8337 98.1727 11.4337 96.3727 10.6337Z" fill="#E41F30"/>
<path d="M104.073 10.4337L103.573 10.6337C101.773 11.4337 100.273 13.8337 100.273 16.0337V19.6337C100.273 20.2337 100.673 20.5337 101.173 20.2337L101.673 20.0337C103.473 19.2337 104.973 16.8337 104.973 14.6337V11.0337C104.973 10.5337 104.573 10.2337 104.073 10.4337Z" fill="#E41F30"/>
<path d="M118.373 10.6337L117.873 10.4337C117.373 10.2337 116.973 10.5337 116.973 11.0337V14.6337C116.973 16.8337 118.473 19.2337 120.373 20.0337L120.873 20.2337C121.373 20.4337 121.773 20.1337 121.773 19.6337V16.0337C121.673 13.8337 120.173 11.4337 118.373 10.6337Z" fill="#E41F30"/>
<path d="M60.0734 10.4337L59.5734 10.6337C57.7734 11.4337 56.2734 13.8337 56.2734 16.0337V19.6337C56.2734 20.2337 56.6734 20.5337 57.1734 20.2337L57.6734 20.0337C59.4734 19.2337 60.9734 16.8337 60.9734 14.6337V11.0337C60.9734 10.5337 60.5734 10.2337 60.0734 10.4337Z" fill="#E41F30"/>
<path d="M96.3727 30.6337L95.8727 30.4337C95.3727 30.2337 94.9727 30.5337 94.9727 31.0337V34.6337C94.9727 36.8337 96.4727 39.2337 98.3727 40.0337L98.8727 40.2337C99.3727 40.4337 99.7727 40.1337 99.7727 39.6337V36.0337C99.6727 33.8337 98.1727 31.4337 96.3727 30.6337Z" fill="#E41F30"/>
<path d="M104.073 30.4337L103.573 30.6337C101.773 31.4337 100.273 33.8337 100.273 36.0337V39.6337C100.273 40.2337 100.673 40.5337 101.173 40.2337L101.673 40.0337C103.473 39.2337 104.973 36.8337 104.973 34.6337V31.0337C104.973 30.5337 104.573 30.2337 104.073 30.4337Z" fill="#E41F30"/>
<path d="M96.3727 40.6337L95.8727 40.4337C95.3727 40.2337 94.9727 40.5337 94.9727 41.0337V44.6337C94.9727 46.8337 96.4727 49.2337 98.3727 50.0337L98.8727 50.2337C99.3727 50.4337 99.7727 50.1337 99.7727 49.6337V46.0337C99.6727 43.8337 98.1727 41.4337 96.3727 40.6337Z" fill="#E41F30"/>
<path d="M104.073 40.4337L103.573 40.6337C101.773 41.4337 100.273 43.8337 100.273 46.0337V49.6337C100.273 50.2337 100.673 50.5337 101.173 50.2337L101.673 50.0337C103.473 49.2337 104.973 46.8337 104.973 44.6337V41.0337C104.973 40.5337 104.573 40.2337 104.073 40.4337Z" fill="#E41F30"/>
<path d="M96.3727 50.6337L95.8727 50.4337C95.3727 50.2337 94.9727 50.5337 94.9727 51.0337V54.6337C94.9727 56.8337 96.4727 59.2337 98.3727 60.0337L98.8727 60.2337C99.3727 60.4337 99.7727 60.1337 99.7727 59.6337V56.0337C99.6727 53.8337 98.1727 51.4337 96.3727 50.6337Z" fill="#E41F30"/>
<path d="M104.073 50.4337L103.573 50.6337C101.773 51.4337 100.273 53.8337 100.273 56.0337V59.6337C100.273 60.2337 100.673 60.5337 101.173 60.2337L101.673 60.0337C103.473 59.2337 104.973 56.8337 104.973 54.6337V51.0337C104.973 50.5337 104.573 50.2337 104.073 50.4337Z" fill="#E41F30"/>
<path d="M96.3727 60.6337L95.8727 60.4337C95.3727 60.2337 94.9727 60.5337 94.9727 61.0337V64.6337C94.9727 66.8337 96.4727 69.2337 98.3727 70.0337L98.8727 70.2337C99.3727 70.4337 99.7727 70.1337 99.7727 69.6337V66.0337C99.6727 63.8337 98.1727 61.4337 96.3727 60.6337Z" fill="#E41F30"/>
<path d="M104.073 60.4337L103.573 60.6337C101.773 61.4337 100.273 63.8337 100.273 66.0337V69.6337C100.273 70.2337 100.673 70.5337 101.173 70.2337L101.673 70.0337C103.473 69.2337 104.973 66.8337 104.973 64.6337V61.0337C104.973 60.5337 104.573 60.2337 104.073 60.4337Z" fill="#E41F30"/>
<path d="M96.3727 70.6337L95.8727 70.4337C95.3727 70.2337 94.9727 70.5337 94.9727 71.0337V74.6337C94.9727 76.8337 96.4727 79.2337 98.3727 80.0337L98.8727 80.2337C99.3727 80.4337 99.7727 80.1337 99.7727 79.6337V76.0337C99.6727 73.8337 98.1727 71.4337 96.3727 70.6337Z" fill="#E41F30"/>
<path d="M104.073 70.4337L103.573 70.6337C101.773 71.4337 100.273 73.8337 100.273 76.0337V79.6337C100.273 80.2337 100.673 80.5337 101.173 80.2337L101.673 80.0337C103.473 79.2337 104.973 76.8337 104.973 74.6337V71.0337C104.973 70.5337 104.573 70.2337 104.073 70.4337Z" fill="#E41F30"/>
<path d="M60.0734 70.4337L59.5734 70.6337C57.7734 71.4337 56.2734 73.8337 56.2734 76.0337V79.6337C56.2734 80.2337 56.6734 80.5337 57.1734 80.2337L57.6734 80.0337C59.4734 79.2337 60.9734 76.8337 60.9734 74.6337V71.0337C60.9734 70.5337 60.5734 70.2337 60.0734 70.4337Z" fill="#E41F30"/>
<path d="M107.373 0.63374L106.873 0.43374C106.373 0.23374 105.973 0.53374 105.973 1.03374V4.63374C105.973 6.83374 107.473 9.23374 109.373 10.0337L109.873 10.2337C110.373 10.4337 110.773 10.1337 110.773 9.63374V6.03374C110.673 3.83374 109.173 1.43374 107.373 0.63374Z" fill="#E41F30"/>
<path d="M115.073 0.43374L114.573 0.63374C112.773 1.43374 111.273 3.83374 111.273 6.03374V9.63374C111.273 10.2337 111.673 10.5337 112.173 10.2337L112.673 10.0337C114.473 9.23374 115.973 6.83374 115.973 4.63374V1.03374C115.973 0.53374 115.573 0.23374 115.073 0.43374Z" fill="#E41F30"/>
<path d="M63.3727 0.63374L62.8727 0.43374C62.3727 0.23374 61.9727 0.53374 61.9727 1.03374V4.63374C61.9727 6.83374 63.4727 9.23374 65.3727 10.0337L65.8727 10.2337C66.3727 10.4337 66.7727 10.1337 66.7727 9.63374V6.03374C66.6727 3.83374 65.1727 1.43374 63.3727 0.63374Z" fill="#E41F30"/>
<path d="M71.0734 0.43374L70.5734 0.63374C68.7734 1.43374 67.2734 3.83374 67.2734 6.03374V9.63374C67.2734 10.2337 67.6734 10.5337 68.1734 10.2337L68.6734 10.0337C70.4734 9.23374 71.9734 6.83374 71.9734 4.63374V1.03374C71.9734 0.53374 71.5734 0.23374 71.0734 0.43374Z" fill="#E41F30"/>
<path d="M107.373 10.6337L106.873 10.4337C106.373 10.2337 105.973 10.5337 105.973 11.0337V14.6337C105.973 16.8337 107.473 19.2337 109.373 20.0337L109.873 20.2337C110.373 20.4337 110.773 20.1337 110.773 19.6337V16.0337C110.673 13.8337 109.173 11.4337 107.373 10.6337Z" fill="#E41F30"/>
<path d="M115.073 10.4337L114.573 10.6337C112.773 11.4337 111.273 13.8337 111.273 16.0337V19.6337C111.273 20.2337 111.673 20.5337 112.173 20.2337L112.673 20.0337C114.473 19.2337 115.973 16.8337 115.973 14.6337V11.0337C115.973 10.5337 115.573 10.2337 115.073 10.4337Z" fill="#E41F30"/>
<path d="M63.3727 10.6337L62.8727 10.4337C62.3727 10.2337 61.9727 10.5337 61.9727 11.0337V14.6337C61.9727 16.8337 63.4727 19.2337 65.3727 20.0337L65.8727 20.2337C66.3727 20.4337 66.7727 20.1337 66.7727 19.6337V16.0337C66.6727 13.8337 65.1727 11.4337 63.3727 10.6337Z" fill="#E41F30"/>
<path d="M71.0734 10.4337L70.5734 10.6337C68.7734 11.4337 67.2734 13.8337 67.2734 16.0337V19.6337C67.2734 20.2337 67.6734 20.5337 68.1734 20.2337L68.6734 20.0337C70.4734 19.2337 71.9734 16.8337 71.9734 14.6337V11.0337C71.9734 10.5337 71.5734 10.2337 71.0734 10.4337Z" fill="#E41F30"/>
<path d="M107.373 30.6337L106.873 30.4337C106.373 30.2337 105.973 30.5337 105.973 31.0337V34.6337C105.973 36.8337 107.473 39.2337 109.373 40.0337L109.873 40.2337C110.373 40.4337 110.773 40.1337 110.773 39.6337V36.0337C110.673 33.8337 109.173 31.4337 107.373 30.6337Z" fill="#E41F30"/>
<path d="M115.073 30.4337L114.573 30.6337C112.773 31.4337 111.273 33.8337 111.273 36.0337V39.6337C111.273 40.2337 111.673 40.5337 112.173 40.2337L112.673 40.0337C114.473 39.2337 115.973 36.8337 115.973 34.6337V31.0337C115.973 30.5337 115.573 30.2337 115.073 30.4337Z" fill="#E41F30"/>
<path d="M63.3727 30.6337L62.8727 30.4337C62.3727 30.2337 61.9727 30.5337 61.9727 31.0337V34.6337C61.9727 36.8337 63.4727 39.2337 65.3727 40.0337L65.8727 40.2337C66.3727 40.4337 66.7727 40.1337 66.7727 39.6337V36.0337C66.6727 33.8337 65.1727 31.4337 63.3727 30.6337Z" fill="#E41F30"/>
<path d="M71.0734 30.4337L70.5734 30.6337C68.7734 31.4337 67.2734 33.8337 67.2734 36.0337V39.6337C67.2734 40.2337 67.6734 40.5337 68.1734 40.2337L68.6734 40.0337C70.4734 39.2337 71.9734 36.8337 71.9734 34.6337V31.0337C71.9734 30.5337 71.5734 30.2337 71.0734 30.4337Z" fill="#E41F30"/>
<path d="M107.373 50.6337L106.873 50.4337C106.373 50.2337 105.973 50.5337 105.973 51.0337V54.6337C105.973 56.8337 107.473 59.2337 109.373 60.0337L109.873 60.2337C110.373 60.4337 110.773 60.1337 110.773 59.6337V56.0337C110.673 53.8337 109.173 51.4337 107.373 50.6337Z" fill="#E41F30"/>
<path d="M115.073 50.4337L114.573 50.6337C112.773 51.4337 111.273 53.8337 111.273 56.0337V59.6337C111.273 60.2337 111.673 60.5337 112.173 60.2337L112.673 60.0337C114.473 59.2337 115.973 56.8337 115.973 54.6337V51.0337C115.973 50.5337 115.573 50.2337 115.073 50.4337Z" fill="#E41F30"/>
<path d="M63.3727 50.6337L62.8727 50.4337C62.3727 50.2337 61.9727 50.5337 61.9727 51.0337V54.6337C61.9727 56.8337 63.4727 59.2337 65.3727 60.0337L65.8727 60.2337C66.3727 60.4337 66.7727 60.1337 66.7727 59.6337V56.0337C66.6727 53.8337 65.1727 51.4337 63.3727 50.6337Z" fill="#E41F30"/>
<path d="M71.0734 50.4337L70.5734 50.6337C68.7734 51.4337 67.2734 53.8337 67.2734 56.0337V59.6337C67.2734 60.2337 67.6734 60.5337 68.1734 60.2337L68.6734 60.0337C70.4734 59.2337 71.9734 56.8337 71.9734 54.6337V51.0337C71.9734 50.5337 71.5734 50.2337 71.0734 50.4337Z" fill="#E41F30"/>
<path d="M107.373 60.6337L106.873 60.4337C106.373 60.2337 105.973 60.5337 105.973 61.0337V64.6337C105.973 66.8337 107.473 69.2337 109.373 70.0337L109.873 70.2337C110.373 70.4337 110.773 70.1337 110.773 69.6337V66.0337C110.673 63.8337 109.173 61.4337 107.373 60.6337Z" fill="#E41F30"/>
<path d="M115.073 60.4337L114.573 60.6337C112.773 61.4337 111.273 63.8337 111.273 66.0337V69.6337C111.273 70.2337 111.673 70.5337 112.173 70.2337L112.673 70.0337C114.473 69.2337 115.973 66.8337 115.973 64.6337V61.0337C115.973 60.5337 115.573 60.2337 115.073 60.4337Z" fill="#E41F30"/>
<path d="M63.3727 60.6337L62.8727 60.4337C62.3727 60.2337 61.9727 60.5337 61.9727 61.0337V64.6337C61.9727 66.8337 63.4727 69.2337 65.3727 70.0337L65.8727 70.2337C66.3727 70.4337 66.7727 70.1337 66.7727 69.6337V66.0337C66.6727 63.8337 65.1727 61.4337 63.3727 60.6337Z" fill="#E41F30"/>
<path d="M71.0734 60.4337L70.5734 60.6337C68.7734 61.4337 67.2734 63.8337 67.2734 66.0337V69.6337C67.2734 70.2337 67.6734 70.5337 68.1734 70.2337L68.6734 70.0337C70.4734 69.2337 71.9734 66.8337 71.9734 64.6337V61.0337C71.9734 60.5337 71.5734 60.2337 71.0734 60.4337Z" fill="#E41F30"/>
<path d="M107.373 70.6337L106.873 70.4337C106.373 70.2337 105.973 70.5337 105.973 71.0337V74.6337C105.973 76.8337 107.473 79.2337 109.373 80.0337L109.873 80.2337C110.373 80.4337 110.773 80.1337 110.773 79.6337V76.0337C110.673 73.8337 109.173 71.4337 107.373 70.6337Z" fill="#E41F30"/>
<path d="M115.073 70.4337L114.573 70.6337C112.773 71.4337 111.273 73.8337 111.273 76.0337V79.6337C111.273 80.2337 111.673 80.5337 112.173 80.2337L112.673 80.0337C114.473 79.2337 115.973 76.8337 115.973 74.6337V71.0337C115.973 70.5337 115.573 70.2337 115.073 70.4337Z" fill="#E41F30"/>
<path d="M63.3727 70.6337L62.8727 70.4337C62.3727 70.2337 61.9727 70.5337 61.9727 71.0337V74.6337C61.9727 76.8337 63.4727 79.2337 65.3727 80.0337L65.8727 80.2337C66.3727 80.4337 66.7727 80.1337 66.7727 79.6337V76.0337C66.6727 73.8337 65.1727 71.4337 63.3727 70.6337Z" fill="#E41F30"/>
<path d="M71.0734 70.4337L70.5734 70.6337C68.7734 71.4337 67.2734 73.8337 67.2734 76.0337V79.6337C67.2734 80.2337 67.6734 80.5337 68.1734 80.2337L68.6734 80.0337C70.4734 79.2337 71.9734 76.8337 71.9734 74.6337V71.0337C71.9734 70.5337 71.5734 70.2337 71.0734 70.4337Z" fill="#E41F30"/>
<path d="M74.3727 80.6337L73.8727 80.4337C73.3727 80.2337 72.9727 80.5337 72.9727 81.0337V84.6337C72.9727 86.8337 74.4727 89.2337 76.3727 90.0337L76.8727 90.2337C77.3727 90.4337 77.7727 90.1337 77.7727 89.6337V86.0337C77.6727 83.8337 76.1727 81.4337 74.3727 80.6337Z" fill="#E41F30"/>
<path d="M82.0734 80.4337L81.5734 80.6337C79.7734 81.4337 78.2734 83.8337 78.2734 86.0337V89.6337C78.2734 90.2337 78.6734 90.5337 79.1734 90.2337L79.6734 90.0337C81.4734 89.2337 82.9734 86.8337 82.9734 84.6337V81.0337C82.9734 80.5337 82.5734 80.2337 82.0734 80.4337Z" fill="#E41F30"/>
<path d="M74.3727 90.6337L73.8727 90.4337C73.3727 90.2337 72.9727 90.5337 72.9727 91.0337V94.6337C72.9727 96.8337 74.4727 99.2337 76.3727 100.034L76.8727 100.234C77.3727 100.434 77.7727 100.134 77.7727 99.6337V96.0337C77.6727 93.8337 76.1727 91.4337 74.3727 90.6337Z" fill="#E41F30"/>
<path d="M82.0734 90.4337L81.5734 90.6337C79.7734 91.4337 78.2734 93.8337 78.2734 96.0337V99.6337C78.2734 100.234 78.6734 100.534 79.1734 100.234L79.6734 100.034C81.4734 99.2337 82.9734 96.8337 82.9734 94.6337V91.0337C82.9734 90.5337 82.5734 90.2337 82.0734 90.4337Z" fill="#E41F30"/>
<path d="M38.0734 90.4337L37.5734 90.6337C35.7734 91.4337 34.2734 93.8337 34.2734 96.0337V99.6337C34.2734 100.234 34.6734 100.534 35.1734 100.234L35.6734 100.034C37.4734 99.2337 38.9734 96.8337 38.9734 94.6337V91.0337C38.9734 90.5337 38.5734 90.2337 38.0734 90.4337Z" fill="#E41F30"/>
<path d="M74.3727 100.634L73.8727 100.434C73.3727 100.234 72.9727 100.534 72.9727 101.034V104.634C72.9727 106.834 74.4727 109.234 76.3727 110.034L76.8727 110.234C77.3727 110.434 77.7727 110.134 77.7727 109.634V106.034C77.6727 103.834 76.1727 101.434 74.3727 100.634Z" fill="#E41F30"/>
<path d="M82.0734 100.434L81.5734 100.634C79.7734 101.434 78.2734 103.834 78.2734 106.034V109.634C78.2734 110.234 78.6734 110.534 79.1734 110.234L79.6734 110.034C81.4734 109.234 82.9734 106.834 82.9734 104.634V101.034C82.9734 100.534 82.5734 100.234 82.0734 100.434Z" fill="#E41F30"/>
<path d="M30.3727 100.634L29.8727 100.434C29.3727 100.234 28.9727 100.534 28.9727 101.034V104.634C28.9727 106.834 30.4727 109.234 32.3727 110.034L32.8727 110.234C33.3727 110.434 33.7727 110.134 33.7727 109.634V106.034C33.6727 103.834 32.1727 101.434 30.3727 100.634Z" fill="#E41F30"/>
<path d="M38.0734 100.434L37.5734 100.634C35.7734 101.434 34.2734 103.834 34.2734 106.034V109.634C34.2734 110.234 34.6734 110.534 35.1734 110.234L35.6734 110.034C37.4734 109.234 38.9734 106.834 38.9734 104.634V101.034C38.9734 100.534 38.5734 100.234 38.0734 100.434Z" fill="#E41F30"/>
<path d="M74.3727 110.634L73.8727 110.434C73.3727 110.234 72.9727 110.534 72.9727 111.034V114.634C72.9727 116.834 74.4727 119.234 76.3727 120.034L76.8727 120.234C77.3727 120.434 77.7727 120.134 77.7727 119.634V116.034C77.6727 113.834 76.1727 111.434 74.3727 110.634Z" fill="#E41F30"/>
<path d="M82.0734 110.434L81.5734 110.634C79.7734 111.434 78.2734 113.834 78.2734 116.034V119.634C78.2734 120.234 78.6734 120.534 79.1734 120.234L79.6734 120.034C81.4734 119.234 82.9734 116.834 82.9734 114.634V111.034C82.9734 110.534 82.5734 110.234 82.0734 110.434Z" fill="#E41F30"/>
<path d="M30.3727 110.634L29.8727 110.434C29.3727 110.234 28.9727 110.534 28.9727 111.034V114.634C28.9727 116.834 30.4727 119.234 32.3727 120.034L32.8727 120.234C33.3727 120.434 33.7727 120.134 33.7727 119.634V116.034C33.6727 113.834 32.1727 111.434 30.3727 110.634Z" fill="#E41F30"/>
<path d="M38.0734 110.434L37.5734 110.634C35.7734 111.434 34.2734 113.834 34.2734 116.034V119.634C34.2734 120.234 34.6734 120.534 35.1734 120.234L35.6734 120.034C37.4734 119.234 38.9734 116.834 38.9734 114.634V111.034C38.9734 110.534 38.5734 110.234 38.0734 110.434Z" fill="#E41F30"/>
<path d="M30.3727 120.634L29.8727 120.434C29.3727 120.234 28.9727 120.534 28.9727 121.034V124.634C28.9727 126.834 30.4727 129.234 32.3727 130.034L32.8727 130.234C33.3727 130.434 33.7727 130.134 33.7727 129.634V126.034C33.6727 123.834 32.1727 121.434 30.3727 120.634Z" fill="#E41F30"/>
<path d="M38.0734 120.434L37.5734 120.634C35.7734 121.434 34.2734 123.834 34.2734 126.034V129.634C34.2734 130.234 34.6734 130.534 35.1734 130.234L35.6734 130.034C37.4734 129.234 38.9734 126.834 38.9734 124.634V121.034C38.9734 120.534 38.5734 120.234 38.0734 120.434Z" fill="#E41F30"/>
<path d="M85.3727 80.6337L84.8727 80.4337C84.3727 80.2337 83.9727 80.5337 83.9727 81.0337V84.6337C83.9727 86.8337 85.4727 89.2337 87.3727 90.0337L87.8727 90.2337C88.3727 90.4337 88.7727 90.1337 88.7727 89.6337V86.0337C88.6727 83.8337 87.1727 81.4337 85.3727 80.6337Z" fill="#E41F30"/>
<path d="M93.0734 80.4337L92.5734 80.6337C90.7734 81.4337 89.2734 83.8337 89.2734 86.0337V89.6337C89.2734 90.2337 89.6734 90.5337 90.1734 90.2337L90.6734 90.0337C92.4734 89.2337 93.9734 86.8337 93.9734 84.6337V81.0337C93.9734 80.5337 93.5734 80.2337 93.0734 80.4337Z" fill="#E41F30"/>
<path d="M49.0734 80.4337L48.5734 80.6337C46.7734 81.4337 45.2734 83.8337 45.2734 86.0337V89.6337C45.2734 90.2337 45.6734 90.5337 46.1734 90.2337L46.6734 90.0337C48.4734 89.2337 49.9734 86.8337 49.9734 84.6337V81.0337C49.9734 80.5337 49.5734 80.2337 49.0734 80.4337Z" fill="#E41F30"/>
<path d="M85.3727 90.6337L84.8727 90.4337C84.3727 90.2337 83.9727 90.5337 83.9727 91.0337V94.6337C83.9727 96.8337 85.4727 99.2337 87.3727 100.034L87.8727 100.234C88.3727 100.434 88.7727 100.134 88.7727 99.6337V96.0337C88.6727 93.8337 87.1727 91.4337 85.3727 90.6337Z" fill="#E41F30"/>
<path d="M93.0734 90.4337L92.5734 90.6337C90.7734 91.4337 89.2734 93.8337 89.2734 96.0337V99.6337C89.2734 100.234 89.6734 100.534 90.1734 100.234L90.6734 100.034C92.4734 99.2337 93.9734 96.8337 93.9734 94.6337V91.0337C93.9734 90.5337 93.5734 90.2337 93.0734 90.4337Z" fill="#E41F30"/>
<path d="M41.3727 90.6337L40.8727 90.4337C40.3727 90.2337 39.9727 90.5337 39.9727 91.0337V94.6337C39.9727 96.8337 41.4727 99.2337 43.3727 100.034L43.8727 100.234C44.3727 100.434 44.7727 100.134 44.7727 99.6337V96.0337C44.6727 93.8337 43.1727 91.4337 41.3727 90.6337Z" fill="#E41F30"/>
<path d="M49.0734 90.4337L48.5734 90.6337C46.7734 91.4337 45.2734 93.8337 45.2734 96.0337V99.6337C45.2734 100.234 45.6734 100.534 46.1734 100.234L46.6734 100.034C48.4734 99.2337 49.9734 96.8337 49.9734 94.6337V91.0337C49.9734 90.5337 49.5734 90.2337 49.0734 90.4337Z" fill="#E41F30"/>
<path d="M85.3727 100.634L84.8727 100.434C84.3727 100.234 83.9727 100.534 83.9727 101.034V104.634C83.9727 106.834 85.4727 109.234 87.3727 110.034L87.8727 110.234C88.3727 110.434 88.7727 110.134 88.7727 109.634V106.034C88.6727 103.834 87.1727 101.434 85.3727 100.634Z" fill="#E41F30"/>
<path d="M93.0734 100.434L92.5734 100.634C90.7734 101.434 89.2734 103.834 89.2734 106.034V109.634C89.2734 110.234 89.6734 110.534 90.1734 110.234L90.6734 110.034C92.4734 109.234 93.9734 106.834 93.9734 104.634V101.034C93.9734 100.534 93.5734 100.234 93.0734 100.434Z" fill="#E41F30"/>
<path d="M41.3727 100.634L40.8727 100.434C40.3727 100.234 39.9727 100.534 39.9727 101.034V104.634C39.9727 106.834 41.4727 109.234 43.3727 110.034L43.8727 110.234C44.3727 110.434 44.7727 110.134 44.7727 109.634V106.034C44.6727 103.834 43.1727 101.434 41.3727 100.634Z" fill="#E41F30"/>
<path d="M49.0734 100.434L48.5734 100.634C46.7734 101.434 45.2734 103.834 45.2734 106.034V109.634C45.2734 110.234 45.6734 110.534 46.1734 110.234L46.6734 110.034C48.4734 109.234 49.9734 106.834 49.9734 104.634V101.034C49.9734 100.534 49.5734 100.234 49.0734 100.434Z" fill="#E41F30"/>
<path d="M41.3727 110.634L40.8727 110.434C40.3727 110.234 39.9727 110.534 39.9727 111.034V114.634C39.9727 116.834 41.4727 119.234 43.3727 120.034L43.8727 120.234C44.3727 120.434 44.7727 120.134 44.7727 119.634V116.034C44.6727 113.834 43.1727 111.434 41.3727 110.634Z" fill="#E41F30"/>
<path d="M49.0734 110.434L48.5734 110.634C46.7734 111.434 45.2734 113.834 45.2734 116.034V119.634C45.2734 120.234 45.6734 120.534 46.1734 120.234L46.6734 120.034C48.4734 119.234 49.9734 116.834 49.9734 114.634V111.034C49.9734 110.534 49.5734 110.234 49.0734 110.434Z" fill="#E41F30"/>
<path d="M41.3727 120.634L40.8727 120.434C40.3727 120.234 39.9727 120.534 39.9727 121.034V124.634C39.9727 126.834 41.4727 129.234 43.3727 130.034L43.8727 130.234C44.3727 130.434 44.7727 130.134 44.7727 129.634V126.034C44.6727 123.834 43.1727 121.434 41.3727 120.634Z" fill="#E41F30"/>
<path d="M49.0734 120.434L48.5734 120.634C46.7734 121.434 45.2734 123.834 45.2734 126.034V129.634C45.2734 130.234 45.6734 130.534 46.1734 130.234L46.6734 130.034C48.4734 129.234 49.9734 126.834 49.9734 124.634V121.034C49.9734 120.534 49.5734 120.234 49.0734 120.434Z" fill="#E41F30"/>
<path d="M96.3727 80.6337L95.8727 80.4337C95.3727 80.2337 94.9727 80.5337 94.9727 81.0337V84.6337C94.9727 86.8337 96.4727 89.2337 98.3727 90.0337L98.8727 90.2337C99.3727 90.4337 99.7727 90.1337 99.7727 89.6337V86.0337C99.6727 83.8337 98.1727 81.4337 96.3727 80.6337Z" fill="#E41F30"/>
<path d="M104.073 80.4337L103.573 80.6337C101.773 81.4337 100.273 83.8337 100.273 86.0337V89.6337C100.273 90.2337 100.673 90.5337 101.173 90.2337L101.673 90.0337C103.473 89.2337 104.973 86.8337 104.973 84.6337V81.0337C104.973 80.5337 104.573 80.2337 104.073 80.4337Z" fill="#E41F30"/>
<path d="M52.3727 80.6337L51.8727 80.4337C51.3727 80.2337 50.9727 80.5337 50.9727 81.0337V84.6337C50.9727 86.8337 52.4727 89.2337 54.3727 90.0337L54.8727 90.2337C55.3727 90.4337 55.7727 90.1337 55.7727 89.6337V86.0337C55.6727 83.8337 54.1727 81.4337 52.3727 80.6337Z" fill="#E41F30"/>
<path d="M60.0734 80.4337L59.5734 80.6337C57.7734 81.4337 56.2734 83.8337 56.2734 86.0337V89.6337C56.2734 90.2337 56.6734 90.5337 57.1734 90.2337L57.6734 90.0337C59.4734 89.2337 60.9734 86.8337 60.9734 84.6337V81.0337C60.9734 80.5337 60.5734 80.2337 60.0734 80.4337Z" fill="#E41F30"/>
<path d="M96.3727 90.6337L95.8727 90.4337C95.3727 90.2337 94.9727 90.5337 94.9727 91.0337V94.6337C94.9727 96.8337 96.4727 99.2337 98.3727 100.034L98.8727 100.234C99.3727 100.434 99.7727 100.134 99.7727 99.6337V96.0337C99.6727 93.8337 98.1727 91.4337 96.3727 90.6337Z" fill="#E41F30"/>
<path d="M104.073 90.4337L103.573 90.6337C101.773 91.4337 100.273 93.8337 100.273 96.0337V99.6337C100.273 100.234 100.673 100.534 101.173 100.234L101.673 100.034C103.473 99.2337 104.973 96.8337 104.973 94.6337V91.0337C104.973 90.5337 104.573 90.2337 104.073 90.4337Z" fill="#E41F30"/>
<path d="M52.3727 90.6337L51.8727 90.4337C51.3727 90.2337 50.9727 90.5337 50.9727 91.0337V94.6337C50.9727 96.8337 52.4727 99.2337 54.3727 100.034L54.8727 100.234C55.3727 100.434 55.7727 100.134 55.7727 99.6337V96.0337C55.6727 93.8337 54.1727 91.4337 52.3727 90.6337Z" fill="#E41F30"/>
<path d="M60.0734 90.4337L59.5734 90.6337C57.7734 91.4337 56.2734 93.8337 56.2734 96.0337V99.6337C56.2734 100.234 56.6734 100.534 57.1734 100.234L57.6734 100.034C59.4734 99.2337 60.9734 96.8337 60.9734 94.6337V91.0337C60.9734 90.5337 60.5734 90.2337 60.0734 90.4337Z" fill="#E41F30"/>
<path d="M52.3727 100.634L51.8727 100.434C51.3727 100.234 50.9727 100.534 50.9727 101.034V104.634C50.9727 106.834 52.4727 109.234 54.3727 110.034L54.8727 110.234C55.3727 110.434 55.7727 110.134 55.7727 109.634V106.034C55.6727 103.834 54.1727 101.434 52.3727 100.634Z" fill="#E41F30"/>
<path d="M60.0734 100.434L59.5734 100.634C57.7734 101.434 56.2734 103.834 56.2734 106.034V109.634C56.2734 110.234 56.6734 110.534 57.1734 110.234L57.6734 110.034C59.4734 109.234 60.9734 106.834 60.9734 104.634V101.034C60.9734 100.534 60.5734 100.234 60.0734 100.434Z" fill="#E41F30"/>
<path d="M52.3727 110.634L51.8727 110.434C51.3727 110.234 50.9727 110.534 50.9727 111.034V114.634C50.9727 116.834 52.4727 119.234 54.3727 120.034L54.8727 120.234C55.3727 120.434 55.7727 120.134 55.7727 119.634V116.034C55.6727 113.834 54.1727 111.434 52.3727 110.634Z" fill="#E41F30"/>
<path d="M60.0734 110.434L59.5734 110.634C57.7734 111.434 56.2734 113.834 56.2734 116.034V119.634C56.2734 120.234 56.6734 120.534 57.1734 120.234L57.6734 120.034C59.4734 119.234 60.9734 116.834 60.9734 114.634V111.034C60.9734 110.534 60.5734 110.234 60.0734 110.434Z" fill="#E41F30"/>
<path d="M52.3727 120.634L51.8727 120.434C51.3727 120.234 50.9727 120.534 50.9727 121.034V124.634C50.9727 126.834 52.4727 129.234 54.3727 130.034L54.8727 130.234C55.3727 130.434 55.7727 130.134 55.7727 129.634V126.034C55.6727 123.834 54.1727 121.434 52.3727 120.634Z" fill="#E41F30"/>
<path d="M60.0734 120.434L59.5734 120.634C57.7734 121.434 56.2734 123.834 56.2734 126.034V129.634C56.2734 130.234 56.6734 130.534 57.1734 130.234L57.6734 130.034C59.4734 129.234 60.9734 126.834 60.9734 124.634V121.034C60.9734 120.534 60.5734 120.234 60.0734 120.434Z" fill="#E41F30"/>
<path d="M107.373 80.6337L106.873 80.4337C106.373 80.2337 105.973 80.5337 105.973 81.0337V84.6337C105.973 86.8337 107.473 89.2337 109.373 90.0337L109.873 90.2337C110.373 90.4337 110.773 90.1337 110.773 89.6337V86.0337C110.673 83.8337 109.173 81.4337 107.373 80.6337Z" fill="#E41F30"/>
<path d="M63.3727 80.6337L62.8727 80.4337C62.3727 80.2337 61.9727 80.5337 61.9727 81.0337V84.6337C61.9727 86.8337 63.4727 89.2337 65.3727 90.0337L65.8727 90.2337C66.3727 90.4337 66.7727 90.1337 66.7727 89.6337V86.0337C66.6727 83.8337 65.1727 81.4337 63.3727 80.6337Z" fill="#E41F30"/>
<path d="M71.0734 80.4337L70.5734 80.6337C68.7734 81.4337 67.2734 83.8337 67.2734 86.0337V89.6337C67.2734 90.2337 67.6734 90.5337 68.1734 90.2337L68.6734 90.0337C70.4734 89.2337 71.9734 86.8337 71.9734 84.6337V81.0337C71.9734 80.5337 71.5734 80.2337 71.0734 80.4337Z" fill="#E41F30"/>
<path d="M63.3727 90.6337L62.8727 90.4337C62.3727 90.2337 61.9727 90.5337 61.9727 91.0337V94.6337C61.9727 96.8337 63.4727 99.2337 65.3727 100.034L65.8727 100.234C66.3727 100.434 66.7727 100.134 66.7727 99.6337V96.0337C66.6727 93.8337 65.1727 91.4337 63.3727 90.6337Z" fill="#E41F30"/>
<path d="M71.0734 90.4337L70.5734 90.6337C68.7734 91.4337 67.2734 93.8337 67.2734 96.0337V99.6337C67.2734 100.234 67.6734 100.534 68.1734 100.234L68.6734 100.034C70.4734 99.2337 71.9734 96.8337 71.9734 94.6337V91.0337C71.9734 90.5337 71.5734 90.2337 71.0734 90.4337Z" fill="#E41F30"/>
<path d="M63.3727 100.634L62.8727 100.434C62.3727 100.234 61.9727 100.534 61.9727 101.034V104.634C61.9727 106.834 63.4727 109.234 65.3727 110.034L65.8727 110.234C66.3727 110.434 66.7727 110.134 66.7727 109.634V106.034C66.6727 103.834 65.1727 101.434 63.3727 100.634Z" fill="#E41F30"/>
<path d="M71.0734 100.434L70.5734 100.634C68.7734 101.434 67.2734 103.834 67.2734 106.034V109.634C67.2734 110.234 67.6734 110.534 68.1734 110.234L68.6734 110.034C70.4734 109.234 71.9734 106.834 71.9734 104.634V101.034C71.9734 100.534 71.5734 100.234 71.0734 100.434Z" fill="#E41F30"/>
<path d="M27.0734 100.434L26.5734 100.634C24.7734 101.434 23.2734 103.834 23.2734 106.034V109.634C23.2734 110.234 23.6734 110.534 24.1734 110.234L24.6734 110.034C26.4734 109.234 27.9734 106.834 27.9734 104.634V101.034C27.9734 100.534 27.5734 100.234 27.0734 100.434Z" fill="#E41F30"/>
<path d="M63.3727 110.634L62.8727 110.434C62.3727 110.234 61.9727 110.534 61.9727 111.034V114.634C61.9727 116.834 63.4727 119.234 65.3727 120.034L65.8727 120.234C66.3727 120.434 66.7727 120.134 66.7727 119.634V116.034C66.6727 113.834 65.1727 111.434 63.3727 110.634Z" fill="#E41F30"/>
<path d="M71.0734 110.434L70.5734 110.634C68.7734 111.434 67.2734 113.834 67.2734 116.034V119.634C67.2734 120.234 67.6734 120.534 68.1734 120.234L68.6734 120.034C70.4734 119.234 71.9734 116.834 71.9734 114.634V111.034C71.9734 110.534 71.5734 110.234 71.0734 110.434Z" fill="#E41F30"/>
<path d="M19.3727 110.634L18.8727 110.434C18.3727 110.234 17.9727 110.534 17.9727 111.034V114.634C17.9727 116.834 19.4727 119.234 21.3727 120.034L21.8727 120.234C22.3727 120.434 22.7727 120.134 22.7727 119.634V116.034C22.6727 113.834 21.1727 111.434 19.3727 110.634Z" fill="#E41F30"/>
<path d="M27.0734 110.434L26.5734 110.634C24.7734 111.434 23.2734 113.834 23.2734 116.034V119.634C23.2734 120.234 23.6734 120.534 24.1734 120.234L24.6734 120.034C26.4734 119.234 27.9734 116.834 27.9734 114.634V111.034C27.9734 110.534 27.5734 110.234 27.0734 110.434Z" fill="#E41F30"/>
<path d="M63.3727 120.634L62.8727 120.434C62.3727 120.234 61.9727 120.534 61.9727 121.034V124.634C61.9727 126.834 63.4727 129.234 65.3727 130.034L65.8727 130.234C66.3727 130.434 66.7727 130.134 66.7727 129.634V126.034C66.6727 123.834 65.1727 121.434 63.3727 120.634Z" fill="#E41F30"/>
<path d="M71.0734 120.434L70.5734 120.634C68.7734 121.434 67.2734 123.834 67.2734 126.034V129.634C67.2734 130.234 67.6734 130.534 68.1734 130.234L68.6734 130.034C70.4734 129.234 71.9734 126.834 71.9734 124.634V121.034C71.9734 120.534 71.5734 120.234 71.0734 120.434Z" fill="#E41F30"/>
</svg>
