<svg width="122" height="131" viewBox="0 0 122 131" fill="none" xmlns="http://www.w3.org/2000/svg">
<path d="M24.8727 10.4462L24.3727 10.2462C23.8727 10.0462 23.4727 10.3462 23.4727 10.8462V14.4462C23.4727 16.6462 24.9727 19.0462 26.8727 19.8462L27.3727 20.0462C27.8727 20.2462 28.2727 19.9462 28.2727 19.4462V15.8462C28.1727 13.6462 26.6727 11.2462 24.8727 10.4462Z" fill="#E41F30"/>
<path d="M32.5734 10.2462L32.0734 10.4462C30.2734 11.2462 28.7734 13.6462 28.7734 15.8462V19.4462C28.7734 20.0462 29.1734 20.3462 29.6734 20.0462L30.1734 19.8462C31.9734 19.0462 33.4734 16.6462 33.4734 14.4462V10.8462C33.4734 10.3462 33.0734 10.0462 32.5734 10.2462Z" fill="#E41F30"/>
<path d="M98.0727 10.4462L98.5727 10.2462C99.0727 10.0462 99.4727 10.3462 99.4727 10.8462V14.4462C99.4727 16.6462 97.9727 19.0462 96.0727 19.8462L95.5727 20.0462C95.0727 20.2462 94.6727 19.9462 94.6727 19.4462V15.8462C94.7727 13.6462 96.2727 11.2462 98.0727 10.4462Z" fill="#E41F30"/>
<path d="M90.3719 10.2462L90.8719 10.4462C92.6719 11.2462 94.1719 13.6462 94.1719 15.8462V19.4462C94.1719 20.0462 93.7719 20.3462 93.2719 20.0462L92.7719 19.8462C90.9719 19.0462 89.4719 16.6462 89.4719 14.4462V10.8462C89.4719 10.3462 89.8719 10.0462 90.3719 10.2462Z" fill="#E41F30"/>
<path d="M68.8727 60.4462L68.3727 60.2462C67.8727 60.0462 67.4727 60.3462 67.4727 60.8462V64.4462C67.4727 66.6462 68.9727 69.0462 70.8727 69.8462L71.3727 70.0462C71.8727 70.2462 72.2727 69.9462 72.2727 69.4462V65.8462C72.1727 63.6462 70.6727 61.2462 68.8727 60.4462Z" fill="#E41F30"/>
<path d="M35.8727 0.44624L35.3727 0.24624C34.8727 0.04624 34.4727 0.34624 34.4727 0.84624V4.44624C34.4727 6.64624 35.9727 9.04624 37.8727 9.84624L38.3727 10.0462C38.8727 10.2462 39.2727 9.94624 39.2727 9.44624V5.84624C39.1727 3.64624 37.6727 1.24624 35.8727 0.44624Z" fill="#E41F30"/>
<path d="M43.5734 0.24624L43.0734 0.44624C41.2734 1.24624 39.7734 3.64624 39.7734 5.84624V9.44624C39.7734 10.0462 40.1734 10.3462 40.6734 10.0462L41.1734 9.84624C42.9734 9.04624 44.4734 6.64624 44.4734 4.44624V0.84624C44.4734 0.34624 44.0734 0.04624 43.5734 0.24624Z" fill="#E41F30"/>
<path d="M87.0727 0.44624L87.5727 0.24624C88.0727 0.04624 88.4727 0.34624 88.4727 0.84624V4.44624C88.4727 6.64624 86.9727 9.04624 85.0727 9.84624L84.5727 10.0462C84.0727 10.2462 83.6727 9.94624 83.6727 9.44624V5.84624C83.7727 3.64624 85.2727 1.24624 87.0727 0.44624Z" fill="#E41F30"/>
<path d="M79.3719 0.24624L79.8719 0.44624C81.6719 1.24624 83.1719 3.64624 83.1719 5.84624V9.44624C83.1719 10.0462 82.7719 10.3462 82.2719 10.0462L81.7719 9.84624C79.9719 9.04624 78.4719 6.64624 78.4719 4.44624V0.84624C78.4719 0.34624 78.8719 0.04624 79.3719 0.24624Z" fill="#E41F30"/>
<path d="M46.8727 0.44624L46.3727 0.24624C45.8727 0.04624 45.4727 0.34624 45.4727 0.84624V4.44624C45.4727 6.64624 46.9727 9.04624 48.8727 9.84624L49.3727 10.0462C49.8727 10.2462 50.2727 9.94624 50.2727 9.44624V5.84624C50.1727 3.64624 48.6727 1.24624 46.8727 0.44624Z" fill="#E41F30"/>
<path d="M54.5734 0.24624L54.0734 0.44624C52.2734 1.24624 50.7734 3.64624 50.7734 5.84624V9.44624C50.7734 10.0462 51.1734 10.3462 51.6734 10.0462L52.1734 9.84624C53.9734 9.04624 55.4734 6.64624 55.4734 4.44624V0.84624C55.4734 0.34624 55.0734 0.04624 54.5734 0.24624Z" fill="#E41F30"/>
<path d="M76.0727 0.44624L76.5727 0.24624C77.0727 0.04624 77.4727 0.34624 77.4727 0.84624V4.44624C77.4727 6.64624 75.9727 9.04624 74.0727 9.84624L73.5727 10.0462C73.0727 10.2462 72.6727 9.94624 72.6727 9.44624V5.84624C72.7727 3.64624 74.2727 1.24624 76.0727 0.44624Z" fill="#E41F30"/>
<path d="M68.3719 0.24624L68.8719 0.44624C70.6719 1.24624 72.1719 3.64624 72.1719 5.84624V9.44624C72.1719 10.0462 71.7719 10.3462 71.2719 10.0462L70.7719 9.84624C68.9719 9.04624 67.4719 6.64624 67.4719 4.44624V0.84624C67.4719 0.34624 67.8719 0.04624 68.3719 0.24624Z" fill="#E41F30"/>
<path d="M2.87266 30.4462L2.37266 30.2462C1.87266 30.0462 1.47266 30.3462 1.47266 30.8462V34.4462C1.47266 36.6462 2.97266 39.0462 4.87266 39.8462L5.37266 40.0462C5.87266 40.2462 6.27266 39.9462 6.27266 39.4462V35.8462C6.17266 33.6462 4.67266 31.2462 2.87266 30.4462Z" fill="#E41F30"/>
<path d="M10.5734 30.2462L10.0734 30.4462C8.27344 31.2462 6.77344 33.6462 6.77344 35.8462V39.4462C6.77344 40.0462 7.17344 40.3462 7.67344 40.0462L8.17344 39.8462C9.97344 39.0462 11.4734 36.6462 11.4734 34.4462V30.8462C11.4734 30.3462 11.0734 30.0462 10.5734 30.2462Z" fill="#E41F30"/>
<path d="M120.073 30.4462L120.573 30.2462C121.073 30.0462 121.473 30.3462 121.473 30.8462V34.4462C121.473 36.6462 119.973 39.0462 118.073 39.8462L117.573 40.0462C117.073 40.2462 116.673 39.9462 116.673 39.4462V35.8462C116.773 33.6462 118.273 31.2462 120.073 30.4462Z" fill="#E41F30"/>
<path d="M112.372 30.2462L112.872 30.4462C114.672 31.2462 116.172 33.6462 116.172 35.8462V39.4462C116.172 40.0462 115.772 40.3462 115.272 40.0462L114.772 39.8462C112.972 39.0462 111.472 36.6462 111.472 34.4462V30.8462C111.472 30.3462 111.872 30.0462 112.372 30.2462Z" fill="#E41F30"/>
<path d="M2.87266 40.4462L2.37266 40.2462C1.87266 40.0462 1.47266 40.3462 1.47266 40.8462V44.4462C1.47266 46.6462 2.97266 49.0462 4.87266 49.8462L5.37266 50.0462C5.87266 50.2462 6.27266 49.9462 6.27266 49.4462V45.8462C6.17266 43.6462 4.67266 41.2462 2.87266 40.4462Z" fill="#E41F30"/>
<path d="M10.5734 40.2462L10.0734 40.4462C8.27344 41.2462 6.77344 43.6462 6.77344 45.8462V49.4462C6.77344 50.0462 7.17344 50.3462 7.67344 50.0462L8.17344 49.8462C9.97344 49.0462 11.4734 46.6462 11.4734 44.4462V40.8462C11.4734 40.3462 11.0734 40.0462 10.5734 40.2462Z" fill="#E41F30"/>
<path d="M120.073 40.4462L120.573 40.2462C121.073 40.0462 121.473 40.3462 121.473 40.8462V44.4462C121.473 46.6462 119.973 49.0462 118.073 49.8462L117.573 50.0462C117.073 50.2462 116.673 49.9462 116.673 49.4462V45.8462C116.773 43.6462 118.273 41.2462 120.073 40.4462Z" fill="#E41F30"/>
<path d="M112.372 40.2462L112.872 40.4462C114.672 41.2462 116.172 43.6462 116.172 45.8462V49.4462C116.172 50.0462 115.772 50.3462 115.272 50.0462L114.772 49.8462C112.972 49.0462 111.472 46.6462 111.472 44.4462V40.8462C111.472 40.3462 111.872 40.0462 112.372 40.2462Z" fill="#E41F30"/>
<path d="M2.87266 50.4462L2.37266 50.2462C1.87266 50.0462 1.47266 50.3462 1.47266 50.8462V54.4462C1.47266 56.6462 2.97266 59.0462 4.87266 59.8462L5.37266 60.0462C5.87266 60.2462 6.27266 59.9462 6.27266 59.4462V55.8462C6.17266 53.6462 4.67266 51.2462 2.87266 50.4462Z" fill="#E41F30"/>
<path d="M10.5734 50.2462L10.0734 50.4462C8.27344 51.2462 6.77344 53.6462 6.77344 55.8462V59.4462C6.77344 60.0462 7.17344 60.3462 7.67344 60.0462L8.17344 59.8462C9.97344 59.0462 11.4734 56.6462 11.4734 54.4462V50.8462C11.4734 50.3462 11.0734 50.0462 10.5734 50.2462Z" fill="#E41F30"/>
<path d="M120.073 50.4462L120.573 50.2462C121.073 50.0462 121.473 50.3462 121.473 50.8462V54.4462C121.473 56.6462 119.973 59.0462 118.073 59.8462L117.573 60.0462C117.073 60.2462 116.673 59.9462 116.673 59.4462V55.8462C116.773 53.6462 118.273 51.2462 120.073 50.4462Z" fill="#E41F30"/>
<path d="M112.372 50.2462L112.872 50.4462C114.672 51.2462 116.172 53.6462 116.172 55.8462V59.4462C116.172 60.0462 115.772 60.3462 115.272 60.0462L114.772 59.8462C112.972 59.0462 111.472 56.6462 111.472 54.4462V50.8462C111.472 50.3462 111.872 50.0462 112.372 50.2462Z" fill="#E41F30"/>
<path d="M54.5734 60.2462L54.0734 60.4462C52.2734 61.2462 50.7734 63.6462 50.7734 65.8462V69.4462C50.7734 70.0462 51.1734 70.3462 51.6734 70.0462L52.1734 69.8462C53.9734 69.0462 55.4734 66.6462 55.4734 64.4462V60.8462C55.4734 60.3462 55.0734 60.0462 54.5734 60.2462Z" fill="#E41F30"/>
<path d="M2.87266 60.4462L2.37266 60.2462C1.87266 60.0462 1.47266 60.3462 1.47266 60.8462V64.4462C1.47266 66.6462 2.97266 69.0462 4.87266 69.8462L5.37266 70.0462C5.87266 70.2462 6.27266 69.9462 6.27266 69.4462V65.8462C6.17266 63.6462 4.67266 61.2462 2.87266 60.4462Z" fill="#E41F30"/>
<path d="M10.5734 60.2462L10.0734 60.4462C8.27344 61.2462 6.77344 63.6462 6.77344 65.8462V69.4462C6.77344 70.0462 7.17344 70.3462 7.67344 70.0462L8.17344 69.8462C9.97344 69.0462 11.4734 66.6462 11.4734 64.4462V60.8462C11.4734 60.3462 11.0734 60.0462 10.5734 60.2462Z" fill="#E41F30"/>
<path d="M120.073 60.4462L120.573 60.2462C121.073 60.0462 121.473 60.3462 121.473 60.8462V64.4462C121.473 66.6462 119.973 69.0462 118.073 69.8462L117.573 70.0462C117.073 70.2462 116.673 69.9462 116.673 69.4462V65.8462C116.773 63.6462 118.273 61.2462 120.073 60.4462Z" fill="#E41F30"/>
<path d="M112.372 60.2462L112.872 60.4462C114.672 61.2462 116.172 63.6462 116.172 65.8462V69.4462C116.172 70.0462 115.772 70.3462 115.272 70.0462L114.772 69.8462C112.972 69.0462 111.472 66.6462 111.472 64.4462V60.8462C111.472 60.3462 111.872 60.0462 112.372 60.2462Z" fill="#E41F30"/>
<path d="M2.87266 70.4462L2.37266 70.2462C1.87266 70.0462 1.47266 70.3462 1.47266 70.8462V74.4462C1.47266 76.6462 2.97266 79.0462 4.87266 79.8462L5.37266 80.0462C5.87266 80.2462 6.27266 79.9462 6.27266 79.4462V75.8462C6.17266 73.6462 4.67266 71.2462 2.87266 70.4462Z" fill="#E41F30"/>
<path d="M10.5734 70.2462L10.0734 70.4462C8.27344 71.2462 6.77344 73.6462 6.77344 75.8462V79.4462C6.77344 80.0462 7.17344 80.3462 7.67344 80.0462L8.17344 79.8462C9.97344 79.0462 11.4734 76.6462 11.4734 74.4462V70.8462C11.4734 70.3462 11.0734 70.0462 10.5734 70.2462Z" fill="#E41F30"/>
<path d="M120.073 70.4462L120.573 70.2462C121.073 70.0462 121.473 70.3462 121.473 70.8462V74.4462C121.473 76.6462 119.973 79.0462 118.073 79.8462L117.573 80.0462C117.073 80.2462 116.673 79.9462 116.673 79.4462V75.8462C116.773 73.6462 118.273 71.2462 120.073 70.4462Z" fill="#E41F30"/>
<path d="M112.372 70.2462L112.872 70.4462C114.672 71.2462 116.172 73.6462 116.172 75.8462V79.4462C116.172 80.0462 115.772 80.3462 115.272 80.0462L114.772 79.8462C112.972 79.0462 111.472 76.6462 111.472 74.4462V70.8462C111.472 70.3462 111.872 70.0462 112.372 70.2462Z" fill="#E41F30"/>
<path d="M57.8727 0.44624L57.3727 0.24624C56.8727 0.04624 56.4727 0.34624 56.4727 0.84624V4.44624C56.4727 6.64624 57.9727 9.04624 59.8727 9.84624L60.3727 10.0462C60.8727 10.2462 61.2727 9.94624 61.2727 9.44624V5.84624C61.1727 3.64624 59.6727 1.24624 57.8727 0.44624Z" fill="#E41F30"/>
<path d="M65.5734 0.24624L65.0734 0.44624C63.2734 1.24624 61.7734 3.64624 61.7734 5.84624V9.44624C61.7734 10.0462 62.1734 10.3462 62.6734 10.0462L63.1734 9.84624C64.9734 9.04624 66.4734 6.64624 66.4734 4.44624V0.84624C66.4734 0.34624 66.0734 0.04624 65.5734 0.24624Z" fill="#E41F30"/>
<path d="M13.8727 20.4462L13.3727 20.2462C12.8727 20.0462 12.4727 20.3462 12.4727 20.8462V24.4462C12.4727 26.6462 13.9727 29.0462 15.8727 29.8462L16.3727 30.0462C16.8727 30.2462 17.2727 29.9462 17.2727 29.4462V25.8462C17.1727 23.6462 15.6727 21.2462 13.8727 20.4462Z" fill="#E41F30"/>
<path d="M21.5734 20.2462L21.0734 20.4462C19.2734 21.2462 17.7734 23.6462 17.7734 25.8462V29.4462C17.7734 30.0462 18.1734 30.3462 18.6734 30.0462L19.1734 29.8462C20.9734 29.0462 22.4734 26.6462 22.4734 24.4462V20.8462C22.4734 20.3462 22.0734 20.0462 21.5734 20.2462Z" fill="#E41F30"/>
<path d="M109.073 20.4462L109.573 20.2462C110.073 20.0462 110.473 20.3462 110.473 20.8462V24.4462C110.473 26.6462 108.973 29.0462 107.073 29.8462L106.573 30.0462C106.073 30.2462 105.673 29.9462 105.673 29.4462V25.8462C105.773 23.6462 107.273 21.2462 109.073 20.4462Z" fill="#E41F30"/>
<path d="M101.372 20.2462L101.872 20.4462C103.672 21.2462 105.172 23.6462 105.172 25.8462V29.4462C105.172 30.0462 104.772 30.3462 104.272 30.0462L103.772 29.8462C101.972 29.0462 100.472 26.6462 100.472 24.4462V20.8462C100.472 20.3462 100.872 20.0462 101.372 20.2462Z" fill="#E41F30"/>
<path d="M24.8727 110.446L24.3727 110.246C23.8727 110.046 23.4727 110.346 23.4727 110.846V114.446C23.4727 116.646 24.9727 119.046 26.8727 119.846L27.3727 120.046C27.8727 120.246 28.2727 119.946 28.2727 119.446V115.846C28.1727 113.646 26.6727 111.246 24.8727 110.446Z" fill="#E41F30"/>
<path d="M32.5734 110.246L32.0734 110.446C30.2734 111.246 28.7734 113.646 28.7734 115.846V119.446C28.7734 120.046 29.1734 120.346 29.6734 120.046L30.1734 119.846C31.9734 119.046 33.4734 116.646 33.4734 114.446V110.846C33.4734 110.346 33.0734 110.046 32.5734 110.246Z" fill="#E41F30"/>
<path d="M98.0727 110.446L98.5727 110.246C99.0727 110.046 99.4727 110.346 99.4727 110.846V114.446C99.4727 116.646 97.9727 119.046 96.0727 119.846L95.5727 120.046C95.0727 120.246 94.6727 119.946 94.6727 119.446V115.846C94.7727 113.646 96.2727 111.246 98.0727 110.446Z" fill="#E41F30"/>
<path d="M90.3719 110.246L90.8719 110.446C92.6719 111.246 94.1719 113.646 94.1719 115.846V119.446C94.1719 120.046 93.7719 120.346 93.2719 120.046L92.7719 119.846C90.9719 119.046 89.4719 116.646 89.4719 114.446V110.846C89.4719 110.346 89.8719 110.046 90.3719 110.246Z" fill="#E41F30"/>
<path d="M109.073 110.446L109.573 110.246C110.073 110.046 110.473 110.346 110.473 110.846V114.446C110.473 116.646 108.973 119.046 107.073 119.846L106.573 120.046C106.073 120.246 105.673 119.946 105.673 119.446V115.846C105.773 113.646 107.273 111.246 109.073 110.446Z" fill="#E41F30"/>
<path d="M101.372 110.246L101.872 110.446C103.672 111.246 105.172 113.646 105.172 115.846V119.446C105.172 120.046 104.772 120.346 104.272 120.046L103.772 119.846C101.972 119.046 100.472 116.646 100.472 114.446V110.846C100.472 110.346 100.872 110.046 101.372 110.246Z" fill="#E41F30"/>
<path d="M120.073 110.446L120.573 110.246C121.073 110.046 121.473 110.346 121.473 110.846V114.446C121.473 116.646 119.973 119.046 118.073 119.846L117.573 120.046C117.073 120.246 116.673 119.946 116.673 119.446V115.846C116.773 113.646 118.273 111.246 120.073 110.446Z" fill="#E41F30"/>
<path d="M112.372 110.246L112.872 110.446C114.672 111.246 116.172 113.646 116.172 115.846V119.446C116.172 120.046 115.772 120.346 115.272 120.046L114.772 119.846C112.972 119.046 111.472 116.646 111.472 114.446V110.846C111.472 110.346 111.872 110.046 112.372 110.246Z" fill="#E41F30"/>
<path d="M98.0727 100.372L98.5727 100.172C99.0727 99.9715 99.4727 100.272 99.4727 100.772V104.372C99.4727 106.572 97.9727 108.972 96.0727 109.772L95.5727 109.972C95.0727 110.172 94.6727 109.872 94.6727 109.372V105.772C94.7727 103.572 96.2727 101.172 98.0727 100.372Z" fill="#E41F30"/>
<path d="M90.3719 100.172L90.8719 100.372C92.6719 101.172 94.1719 103.572 94.1719 105.772V109.372C94.1719 109.972 93.7719 110.272 93.2719 109.972L92.7719 109.772C90.9719 108.972 89.4719 106.572 89.4719 104.372V100.772C89.4719 100.272 89.8719 99.9715 90.3719 100.172Z" fill="#E41F30"/>
<path d="M98.0727 90.3715L98.5727 90.1715C99.0727 89.9715 99.4727 90.2715 99.4727 90.7715V94.3715C99.4727 96.5715 97.9727 98.9715 96.0727 99.7715L95.5727 99.9715C95.0727 100.172 94.6727 99.8715 94.6727 99.3715V95.7715C94.7727 93.5715 96.2727 91.1715 98.0727 90.3715Z" fill="#E41F30"/>
<path d="M90.3719 90.1715L90.8719 90.3715C92.6719 91.1715 94.1719 93.5715 94.1719 95.7715V99.3715C94.1719 99.9715 93.7719 100.272 93.2719 99.9715L92.7719 99.7715C90.9719 98.9715 89.4719 96.5715 89.4719 94.3715V90.7715C89.4719 90.2715 89.8719 89.9715 90.3719 90.1715Z" fill="#E41F30"/>
<path d="M35.8727 120.446L35.3727 120.246C34.8727 120.046 34.4727 120.346 34.4727 120.846V124.446C34.4727 126.646 35.9727 129.046 37.8727 129.846L38.3727 130.046C38.8727 130.246 39.2727 129.946 39.2727 129.446V125.846C39.1727 123.646 37.6727 121.246 35.8727 120.446Z" fill="#E41F30"/>
<path d="M43.5734 120.246L43.0734 120.446C41.2734 121.246 39.7734 123.646 39.7734 125.846V129.446C39.7734 130.046 40.1734 130.346 40.6734 130.046L41.1734 129.846C42.9734 129.046 44.4734 126.646 44.4734 124.446V120.846C44.4734 120.346 44.0734 120.046 43.5734 120.246Z" fill="#E41F30"/>
<path d="M2.87266 80.4462L2.37266 80.2462C1.87266 80.0462 1.47266 80.3462 1.47266 80.8462V84.4462C1.47266 86.6462 2.97266 89.0462 4.87266 89.8462L5.37266 90.0462C5.87266 90.2462 6.27266 89.9462 6.27266 89.4462V85.8462C6.17266 83.6462 4.67266 81.2462 2.87266 80.4462Z" fill="#E41F30"/>
<path d="M10.5734 80.2462L10.0734 80.4462C8.27344 81.2462 6.77344 83.6462 6.77344 85.8462V89.4462C6.77344 90.0462 7.17344 90.3462 7.67344 90.0462L8.17344 89.8462C9.97344 89.0462 11.4734 86.6462 11.4734 84.4462V80.8462C11.4734 80.3462 11.0734 80.0462 10.5734 80.2462Z" fill="#E41F30"/>
<path d="M120.073 80.4462L120.573 80.2462C121.073 80.0462 121.473 80.3462 121.473 80.8462V84.4462C121.473 86.6462 119.973 89.0462 118.073 89.8462L117.573 90.0462C117.073 90.2462 116.673 89.9462 116.673 89.4462V85.8462C116.773 83.6462 118.273 81.2462 120.073 80.4462Z" fill="#E41F30"/>
<path d="M112.372 80.2462L112.872 80.4462C114.672 81.2462 116.172 83.6462 116.172 85.8462V89.4462C116.172 90.0462 115.772 90.3462 115.272 90.0462L114.772 89.8462C112.972 89.0462 111.472 86.6462 111.472 84.4462V80.8462C111.472 80.3462 111.872 80.0462 112.372 80.2462Z" fill="#E41F30"/>
<path d="M2.87266 90.4462L2.37266 90.2462C1.87266 90.0462 1.47266 90.3462 1.47266 90.8462V94.4462C1.47266 96.6462 2.97266 99.0462 4.87266 99.8462L5.37266 100.046C5.87266 100.246 6.27266 99.9462 6.27266 99.4462V95.8462C6.17266 93.6462 4.67266 91.2462 2.87266 90.4462Z" fill="#E41F30"/>
<path d="M10.5734 90.2462L10.0734 90.4462C8.27344 91.2462 6.77344 93.6462 6.77344 95.8462V99.4462C6.77344 100.046 7.17344 100.346 7.67344 100.046L8.17344 99.8462C9.97344 99.0462 11.4734 96.6462 11.4734 94.4462V90.8462C11.4734 90.3462 11.0734 90.0462 10.5734 90.2462Z" fill="#E41F30"/>
<path d="M120.073 90.4462L120.573 90.2462C121.073 90.0462 121.473 90.3462 121.473 90.8462V94.4462C121.473 96.6462 119.973 99.0462 118.073 99.8462L117.573 100.046C117.073 100.246 116.673 99.9462 116.673 99.4462V95.8462C116.773 93.6462 118.273 91.2462 120.073 90.4462Z" fill="#E41F30"/>
<path d="M112.372 90.2462L112.872 90.4462C114.672 91.2462 116.172 93.6462 116.172 95.8462V99.4462C116.172 100.046 115.772 100.346 115.272 100.046L114.772 99.8462C112.972 99.0462 111.472 96.6462 111.472 94.4462V90.8462C111.472 90.3462 111.872 90.0462 112.372 90.2462Z" fill="#E41F30"/>
<path d="M46.8727 120.446L46.3727 120.246C45.8727 120.046 45.4727 120.346 45.4727 120.846V124.446C45.4727 126.646 46.9727 129.046 48.8727 129.846L49.3727 130.046C49.8727 130.246 50.2727 129.946 50.2727 129.446V125.846C50.1727 123.646 48.6727 121.246 46.8727 120.446Z" fill="#E41F30"/>
<path d="M54.5734 120.246L54.0734 120.446C52.2734 121.246 50.7734 123.646 50.7734 125.846V129.446C50.7734 130.046 51.1734 130.346 51.6734 130.046L52.1734 129.846C53.9734 129.046 55.4734 126.646 55.4734 124.446V120.846C55.4734 120.346 55.0734 120.046 54.5734 120.246Z" fill="#E41F30"/>
<path d="M68.8727 40.4462L68.3727 40.2462C67.8727 40.0462 67.4727 40.3462 67.4727 40.8462V44.4462C67.4727 46.6462 68.9727 49.0462 70.8727 49.8462L71.3727 50.0462C71.8727 50.2462 72.2727 49.9462 72.2727 49.4462V45.8462C72.1727 43.6462 70.6727 41.2462 68.8727 40.4462Z" fill="#E41F30"/>
<path d="M76.5734 40.2462L76.0734 40.4462C74.2734 41.2462 72.7734 43.6462 72.7734 45.8462V49.4462C72.7734 50.0462 73.1734 50.3462 73.6734 50.0462L74.1734 49.8462C75.9734 49.0462 77.4734 46.6462 77.4734 44.4462V40.8462C77.4734 40.3462 77.0734 40.0462 76.5734 40.2462Z" fill="#E41F30"/>
<path d="M68.8727 70.4462L68.3727 70.2462C67.8727 70.0462 67.4727 70.3462 67.4727 70.8462V74.4462C67.4727 76.6462 68.9727 79.0462 70.8727 79.8462L71.3727 80.0462C71.8727 80.2462 72.2727 79.9462 72.2727 79.4462V75.8462C72.1727 73.6462 70.6727 71.2462 68.8727 70.4462Z" fill="#E41F30"/>
<path d="M76.5734 70.2462L76.0734 70.4462C74.2734 71.2462 72.7734 73.6462 72.7734 75.8462V79.4462C72.7734 80.0462 73.1734 80.3462 73.6734 80.0462L74.1734 79.8462C75.9734 79.0462 77.4734 76.6462 77.4734 74.4462V70.8462C77.4734 70.3462 77.0734 70.0462 76.5734 70.2462Z" fill="#E41F30"/>
<path d="M46.8727 40.4462L46.3727 40.2462C45.8727 40.0462 45.4727 40.3462 45.4727 40.8462V44.4462C45.4727 46.6462 46.9727 49.0462 48.8727 49.8462L49.3727 50.0462C49.8727 50.2462 50.2727 49.9462 50.2727 49.4462V45.8462C50.1727 43.6462 48.6727 41.2462 46.8727 40.4462Z" fill="#E41F30"/>
<path d="M54.5734 40.2462L54.0734 40.4462C52.2734 41.2462 50.7734 43.6462 50.7734 45.8462V49.4462C50.7734 50.0462 51.1734 50.3462 51.6734 50.0462L52.1734 49.8462C53.9734 49.0462 55.4734 46.6462 55.4734 44.4462V40.8462C55.4734 40.3462 55.0734 40.0462 54.5734 40.2462Z" fill="#E41F30"/>
<path d="M46.8727 50.4462L46.3727 50.2462C45.8727 50.0462 45.4727 50.3462 45.4727 50.8462V54.4462C45.4727 56.6462 46.9727 59.0462 48.8727 59.8462L49.3727 60.0462C49.8727 60.2462 50.2727 59.9462 50.2727 59.4462V55.8462C50.1727 53.6462 48.6727 51.2462 46.8727 50.4462Z" fill="#E41F30"/>
<path d="M54.5734 50.2462L54.0734 50.4462C52.2734 51.2462 50.7734 53.6462 50.7734 55.8462V59.4462C50.7734 60.0462 51.1734 60.3462 51.6734 60.0462L52.1734 59.8462C53.9734 59.0462 55.4734 56.6462 55.4734 54.4462V50.8462C55.4734 50.3462 55.0734 50.0462 54.5734 50.2462Z" fill="#E41F30"/>
<path d="M57.8727 30.4462L57.3727 30.2462C56.8727 30.0462 56.4727 30.3462 56.4727 30.8462V34.4462C56.4727 36.6462 57.9727 39.0462 59.8727 39.8462L60.3727 40.0462C60.8727 40.2462 61.2727 39.9462 61.2727 39.4462V35.8462C61.1727 33.6462 59.6727 31.2462 57.8727 30.4462Z" fill="#E41F30"/>
<path d="M65.5734 30.2462L65.0734 30.4462C63.2734 31.2462 61.7734 33.6462 61.7734 35.8462V39.4462C61.7734 40.0462 62.1734 40.3462 62.6734 40.0462L63.1734 39.8462C64.9734 39.0462 66.4734 36.6462 66.4734 34.4462V30.8462C66.4734 30.3462 66.0734 30.0462 65.5734 30.2462Z" fill="#E41F30"/>
<path d="M57.8727 40.4462L57.3727 40.2462C56.8727 40.0462 56.4727 40.3462 56.4727 40.8462V44.4462C56.4727 46.6462 57.9727 49.0462 59.8727 49.8462L60.3727 50.0462C60.8727 50.2462 61.2727 49.9462 61.2727 49.4462V45.8462C61.1727 43.6462 59.6727 41.2462 57.8727 40.4462Z" fill="#E41F30"/>
<path d="M65.5734 40.2462L65.0734 40.4462C63.2734 41.2462 61.7734 43.6462 61.7734 45.8462V49.4462C61.7734 50.0462 62.1734 50.3462 62.6734 50.0462L63.1734 49.8462C64.9734 49.0462 66.4734 46.6462 66.4734 44.4462V40.8462C66.4734 40.3462 66.0734 40.0462 65.5734 40.2462Z" fill="#E41F30"/>
<path d="M57.8727 60.4462L57.3727 60.2462C56.8727 60.0462 56.4727 60.3462 56.4727 60.8462V64.4462C56.4727 66.6462 57.9727 69.0462 59.8727 69.8462L60.3727 70.0462C60.8727 70.2462 61.2727 69.9462 61.2727 69.4462V65.8462C61.1727 63.6462 59.6727 61.2462 57.8727 60.4462Z" fill="#E41F30"/>
<path d="M65.5734 60.2462L65.0734 60.4462C63.2734 61.2462 61.7734 63.6462 61.7734 65.8462V69.4462C61.7734 70.0462 62.1734 70.3462 62.6734 70.0462L63.1734 69.8462C64.9734 69.0462 66.4734 66.6462 66.4734 64.4462V60.8462C66.4734 60.3462 66.0734 60.0462 65.5734 60.2462Z" fill="#E41F30"/>
<path d="M68.8727 80.4462L68.3727 80.2462C67.8727 80.0462 67.4727 80.3462 67.4727 80.8462V84.4462C67.4727 86.6462 68.9727 89.0462 70.8727 89.8462L71.3727 90.0462C71.8727 90.2462 72.2727 89.9462 72.2727 89.4462V85.8462C72.1727 83.6462 70.6727 81.2462 68.8727 80.4462Z" fill="#E41F30"/>
<path d="M76.5734 80.2462L76.0734 80.4462C74.2734 81.2462 72.7734 83.6462 72.7734 85.8462V89.4462C72.7734 90.0462 73.1734 90.3462 73.6734 90.0462L74.1734 89.8462C75.9734 89.0462 77.4734 86.6462 77.4734 84.4462V80.8462C77.4734 80.3462 77.0734 80.0462 76.5734 80.2462Z" fill="#E41F30"/>
<path d="M46.8727 80.4462L46.3727 80.2462C45.8727 80.0462 45.4727 80.3462 45.4727 80.8462V84.4462C45.4727 86.6462 46.9727 89.0462 48.8727 89.8462L49.3727 90.0462C49.8727 90.2462 50.2727 89.9462 50.2727 89.4462V85.8462C50.1727 83.6462 48.6727 81.2462 46.8727 80.4462Z" fill="#E41F30"/>
<path d="M54.5734 80.2462L54.0734 80.4462C52.2734 81.2462 50.7734 83.6462 50.7734 85.8462V89.4462C50.7734 90.0462 51.1734 90.3462 51.6734 90.0462L52.1734 89.8462C53.9734 89.0462 55.4734 86.6462 55.4734 84.4462V80.8462C55.4734 80.3462 55.0734 80.0462 54.5734 80.2462Z" fill="#E41F30"/>
<path d="M57.8727 80.4462L57.3727 80.2462C56.8727 80.0462 56.4727 80.3462 56.4727 80.8462V84.4462C56.4727 86.6462 57.9727 89.0462 59.8727 89.8462L60.3727 90.0462C60.8727 90.2462 61.2727 89.9462 61.2727 89.4462V85.8462C61.1727 83.6462 59.6727 81.2462 57.8727 80.4462Z" fill="#E41F30"/>
<path d="M65.5734 80.2462L65.0734 80.4462C63.2734 81.2462 61.7734 83.6462 61.7734 85.8462V89.4462C61.7734 90.0462 62.1734 90.3462 62.6734 90.0462L63.1734 89.8462C64.9734 89.0462 66.4734 86.6462 66.4734 84.4462V80.8462C66.4734 80.3462 66.0734 80.0462 65.5734 80.2462Z" fill="#E41F30"/>
<path d="M57.8727 90.4462L57.3727 90.2462C56.8727 90.0462 56.4727 90.3462 56.4727 90.8462V94.4462C56.4727 96.6462 57.9727 99.0462 59.8727 99.8462L60.3727 100.046C60.8727 100.246 61.2727 99.9462 61.2727 99.4462V95.8462C61.1727 93.6462 59.6727 91.2462 57.8727 90.4462Z" fill="#E41F30"/>
<path d="M65.5734 90.2462L65.0734 90.4462C63.2734 91.2462 61.7734 93.6462 61.7734 95.8462V99.4462C61.7734 100.046 62.1734 100.346 62.6734 100.046L63.1734 99.8462C64.9734 99.0462 66.4734 96.6462 66.4734 94.4462V90.8462C66.4734 90.3462 66.0734 90.0462 65.5734 90.2462Z" fill="#E41F30"/>
<path d="M13.8727 100.446L13.3727 100.246C12.8727 100.046 12.4727 100.346 12.4727 100.846V104.446C12.4727 106.646 13.9727 109.046 15.8727 109.846L16.3727 110.046C16.8727 110.246 17.2727 109.946 17.2727 109.446V105.846C17.1727 103.646 15.6727 101.246 13.8727 100.446Z" fill="#E41F30"/>
<path d="M21.5734 100.246L21.0734 100.446C19.2734 101.246 17.7734 103.646 17.7734 105.846V109.446C17.7734 110.046 18.1734 110.346 18.6734 110.046L19.1734 109.846C20.9734 109.046 22.4734 106.646 22.4734 104.446V100.846C22.4734 100.346 22.0734 100.046 21.5734 100.246Z" fill="#E41F30"/>
<path d="M109.073 100.446L109.573 100.246C110.073 100.046 110.473 100.346 110.473 100.846V104.446C110.473 106.646 108.973 109.046 107.073 109.846L106.573 110.046C106.073 110.246 105.673 109.946 105.673 109.446V105.846C105.773 103.646 107.273 101.246 109.073 100.446Z" fill="#E41F30"/>
<path d="M101.372 100.246L101.872 100.446C103.672 101.246 105.172 103.646 105.172 105.846V109.446C105.172 110.046 104.772 110.346 104.272 110.046L103.772 109.846C101.972 109.046 100.472 106.646 100.472 104.446V100.846C100.472 100.346 100.872 100.046 101.372 100.246Z" fill="#E41F30"/>
</svg>
