<svg width="55" height="30" viewBox="0 0 55 30" fill="none" xmlns="http://www.w3.org/2000/svg">
<path d="M26.7722 12.2197H15.4373V11.0123H14.1782V1.35538H15.4373V0.147461H26.7722V2.5617H19.2153V4.97593H22.9937V7.39017H19.2153V9.80387H26.7722V12.2192V12.2197Z" fill="#E0E0E0"/>
<path d="M26.8304 12.2754H15.3786V11.0686H14.119V1.29962H15.3786V0.0927734H26.8298V2.61847H19.2735V4.92071H23.0519V7.4464H19.2735V9.74918H26.8298V12.2754H26.8304ZM15.4956 12.1639H26.714V9.86117H19.1571V7.33548H22.9355V5.03377H19.1571V2.50754H26.7134V0.204766H15.4961V1.41215H14.2359V10.9571H15.4956V12.1639Z" fill="#E0E0E0"/>
<path d="M40.7865 12.2197H29.4511V11.0123H28.192V1.35538H29.4511V0.147461H40.7859V2.5617H33.2301V4.97593H37.008V7.39017H33.2296V9.80387H40.7865V12.2192V12.2197Z" fill="#E0E0E0"/>
<path d="M40.8447 12.2754H29.3935V11.0686H28.1343V1.29962H29.3935V0.0927734H40.8441V2.61847H33.2883V4.92071H37.0668V7.4464H33.2883V9.74918H40.8441V12.2754H40.8447ZM29.5099 12.1639H40.7288V9.86117H33.1714V7.33548H36.9498V5.03377H33.1714V2.50754H40.7277V0.204766H29.5088V1.41215H28.2497V10.9571H29.5093V12.1639H29.5099Z" fill="#E0E0E0"/>
<path d="M54.9327 12.1947H49.8946V7.36624H47.3764V12.1952H42.3383V0.123535H47.3758V4.95201H49.8946V0.123535H54.9327V4.95201H53.6731V7.36624H54.9327V12.1952V12.1947Z" fill="#E0E0E0"/>
<path d="M54.9904 12.251H49.8364V7.42257H47.434V12.251H42.28V0.0678711H47.434V4.89634H49.8364V0.0678711H54.9904V5.0078H53.7312V7.31058H54.9904V12.251ZM49.9528 12.1396H54.874V7.42257H53.6148V4.89687H54.874V0.17933H49.9528V5.0078H47.3176V0.179863H42.3964V12.1396H47.3176V7.31164H49.9528V12.1401V12.1396Z" fill="#E0E0E0"/>
<path d="M12.5945 12.2142H1.25913V11.0074H0V1.34992H1.25913V0.143066H12.5945V2.5573H5.03757V9.79947H7.55582V7.38577H6.2967V4.97154H12.5939V12.2142H12.5945Z" fill="#E0E0E0"/>
<path d="M12.4781 0.25457V2.44535H4.92116V9.91151H7.67223V7.27382H6.41311V5.08357H12.4775V12.1034H1.37607V10.896H0.115874V1.46195H1.375V0.25457H12.4775H12.4781ZM12.5945 0.142578H1.25913V1.34996H0V11.0074H1.25913V12.2143H12.5945V4.97211H6.29723V7.38582H7.55636V9.80005H5.03757V2.55735H12.5945V0.142578Z" fill="#E0E0E0"/>
<path d="M17.3111 28.2727H15.58V29.9324H1.73117V28.2738H0V14.9984H1.73117V13.3394H15.58V14.9979H17.3111V28.2722V28.2727ZM10.3865 26.6142V16.6586H6.92413V26.6136H10.3865V26.6142Z" fill="#E0E0E0"/>
<path d="M15.4641 13.4513V15.1104H17.1942V28.1613H15.463V29.8204H1.84757V28.1618H0.116942V15.1104H1.84757V13.4513H15.4641ZM6.80825 26.7251H10.5029V16.5466H6.80772V26.7262L6.80825 26.7251ZM15.58 13.3394H1.73117V14.999H0V28.2727H1.73117V29.9324H15.58V28.2738H17.3111V14.9984H15.58V13.3394ZM6.92413 26.6136V16.6586H10.3865V26.6136H6.92413Z" fill="#E0E0E0"/>
<path d="M36.2562 28.2727H34.5251V29.9324H20.6757V28.2738H18.9446V13.3394H25.8692V26.6131H29.3316V13.3394H36.2557V28.2722L36.2562 28.2727Z" fill="#E0E0E0"/>
<path d="M36.1398 13.4513V28.1613H34.4087V29.8204H20.7922V28.1618H19.061V13.4513H25.7528V26.7256H29.448V13.4508H36.1398V13.4513ZM36.2562 13.3394H29.3316V26.6136H25.8692V13.3399H18.9446V28.2727H20.6757V29.9324H34.5251V28.2738H36.2557V13.3394H36.2562Z" fill="#E0E0E0"/>
<path d="M55 16.658H49.8065V29.9317H42.8824V16.6585H37.6884V13.3403H55V16.6585V16.658Z" fill="#E0E0E0"/>
<path d="M54.8836 13.4513V16.5471H49.6901V29.8204H42.9988V16.5466H37.8053V13.4519H54.8836V13.4513ZM55 13.3394H37.6889V16.6586H42.8824V29.9324H49.8065V16.6581H55V13.3399V13.3394Z" fill="#E0E0E0"/>
</svg>
