<svg width="37" height="31" viewBox="0 0 37 31" fill="none" xmlns="http://www.w3.org/2000/svg">
<path fill-rule="evenodd" clip-rule="evenodd" d="M19.3917 0.332157C18.9857 0.216954 18.5575 0.21706 18.1515 0.332601C17.287 0.578615 16.4144 0.80647 15.5387 1.03511C11.6309 2.05542 7.32821 3.17884 3.64755 6.18235L1.91217 7.59847C0.528346 8.72771 0.529074 10.9392 1.9141 12.0673L3.62141 13.4579C4.88272 14.4852 6.19725 15.2888 7.54436 15.9442V23.6625C7.54436 25.5521 8.70356 27.2482 10.4641 27.9346L17.1337 30.5348C18.2048 30.9524 19.3936 30.9524 20.4647 30.5348L27.1343 27.9346C28.8949 27.2482 30.0541 25.5521 30.0541 23.6625V15.958C31.3922 15.3061 32.698 14.5066 33.9509 13.4843L34.2225 13.2626V21.505C34.2225 22.1957 34.7824 22.7555 35.4731 22.7555C36.1637 22.7555 36.7236 22.1957 36.7236 21.505V9.83331C36.7233 8.99826 36.3768 8.16334 35.6843 7.59929L33.977 6.20871C30.2696 3.18905 25.7861 2.01971 21.9993 1.03207C21.1255 0.804178 20.2546 0.577042 19.3917 0.332157ZM12.6284 16.1898C11.9951 15.9143 11.2584 16.2044 10.9829 16.8378C10.7074 17.4711 10.9976 18.2078 11.6309 18.4833C13.7616 19.41 15.9671 20.1682 18.2274 20.7483C18.6213 20.8494 19.0344 20.8493 19.4283 20.7479C21.6825 20.1677 23.8816 19.4095 26.0054 18.4827C26.6384 18.2065 26.9277 17.4694 26.6514 16.8364C26.3752 16.2034 25.6381 15.9142 25.0051 16.1904C23.0099 17.061 20.9444 17.7739 18.8271 18.3201C16.7033 17.7737 14.6308 17.0607 12.6284 16.1898Z" fill="black"/>
</svg>
