<svg width="38" height="37" viewBox="0 0 38 37" fill="none" xmlns="http://www.w3.org/2000/svg">
<path fill-rule="evenodd" clip-rule="evenodd" d="M19.0191 0.0307617C19.8377 0.0307617 20.5012 0.694304 20.5012 1.51282V4.94508C23.3298 4.98392 26.1572 5.13393 28.977 5.39512L29.6322 5.45582C34.1075 5.87037 37.5536 9.5867 37.6298 14.0805L37.6537 15.4904C37.7466 20.9737 37.3046 26.453 36.334 31.8505C35.8922 34.3069 33.7547 36.0943 31.2589 36.0943H30.8221C28.5763 36.0943 26.5415 34.7708 25.6309 32.7179L23.5351 27.9925C21.7981 24.0761 16.2402 24.0761 14.5032 27.9925L12.4073 32.7179C11.4968 34.7708 9.46197 36.0943 7.21617 36.0943H6.77936C4.28357 36.0943 2.14603 34.3069 1.70429 31.8505C0.73364 26.453 0.291647 20.9737 0.38458 15.4904L0.408475 14.0805C0.484637 9.58671 3.93075 5.87037 8.40605 5.45582L9.06132 5.39512C11.881 5.13393 14.7085 4.98392 17.5371 4.94508V1.51282C17.5371 0.694304 18.2006 0.0307617 19.0191 0.0307617ZM28.8996 11.3932C28.8996 10.3019 28.0148 9.41716 26.9235 9.41716C25.8321 9.41716 24.9474 10.3019 24.9474 11.3932V11.8873C24.9474 12.9786 25.8321 13.8633 26.9235 13.8633C28.0148 13.8633 28.8996 12.9786 28.8996 11.8873V11.3932ZM11.1148 9.91118C11.9333 9.91118 12.5969 10.5747 12.5969 11.3932V13.8633H15.067C15.8855 13.8633 16.549 14.5269 16.549 15.3454C16.549 16.1639 15.8855 16.8275 15.067 16.8275H12.5969V19.2976C12.5969 20.1161 11.9333 20.7796 11.1148 20.7796C10.2963 20.7796 9.63274 20.1161 9.63274 19.2976V16.8275H7.16263C6.34411 16.8275 5.68057 16.1639 5.68057 15.3454C5.68057 14.5269 6.34411 13.8633 7.16263 13.8633L9.63274 13.8633V11.3932C9.63274 10.5747 10.2963 9.91118 11.1148 9.91118ZM26.9235 16.8275C28.0148 16.8275 28.8996 17.7122 28.8996 18.8036V19.2976C28.8996 20.3889 28.0148 21.2737 26.9235 21.2737C25.8321 21.2737 24.9474 20.3889 24.9474 19.2976V18.8036C24.9474 17.7122 25.8321 16.8275 26.9235 16.8275ZM30.8756 17.3215C31.967 17.3215 32.8517 16.4368 32.8517 15.3454C32.8517 14.254 31.967 13.3693 30.8756 13.3693H30.3816C29.2903 13.3693 28.4055 14.254 28.4055 15.3454C28.4055 16.4368 29.2903 17.3215 30.3816 17.3215H30.8756ZM25.4414 15.3454C25.4414 16.4368 24.5567 17.3215 23.4653 17.3215H22.9713C21.8799 17.3215 20.9952 16.4368 20.9952 15.3454C20.9952 14.254 21.8799 13.3693 22.9713 13.3693H23.4653C24.5567 13.3693 25.4414 14.254 25.4414 15.3454Z" fill="black"/>
</svg>
