<svg width="33" height="38" viewBox="0 0 33 38" fill="none" xmlns="http://www.w3.org/2000/svg">
<path d="M17.2299 0.447528C16.5901 0.250889 15.906 0.250889 15.2663 0.447528L9.53437 2.20923C6.58879 3.11455 3.79137 4.44559 1.23082 6.16013C-0.396821 7.25 0.374689 9.78885 2.33353 9.78885H30.1626C32.1215 9.78885 32.893 7.25 31.2653 6.16013C28.7048 4.44559 25.9074 3.11455 22.9618 2.20923L17.2299 0.447528Z" fill="black"/>
<path d="M1.36994 35.7056C1.36994 34.9104 2.01457 34.2657 2.80976 34.2657H29.6863C30.4815 34.2657 31.1261 34.9104 31.1261 35.7056C31.1261 36.5007 30.4815 37.1454 29.6863 37.1454H2.80976C2.01457 37.1454 1.36994 36.5007 1.36994 35.7056Z" fill="black"/>
<path d="M5.20945 28.0265C5.20945 28.8217 5.85408 29.4664 6.64927 29.4664C7.44446 29.4664 8.08908 28.8217 8.08908 28.0265L8.08908 16.508C8.08908 15.7128 7.44446 15.0682 6.64927 15.0682C5.85408 15.0682 5.20945 15.7128 5.20945 16.508L5.20945 28.0265Z" fill="black"/>
<path d="M16.248 29.4664C15.4529 29.4664 14.8082 28.8217 14.8082 28.0265L14.8082 16.508C14.8082 15.7128 15.4529 15.0682 16.248 15.0682C17.0432 15.0682 17.6879 15.7128 17.6879 16.508V28.0265C17.6879 28.8217 17.0432 29.4664 16.248 29.4664Z" fill="black"/>
<path d="M24.407 28.0265C24.407 28.8217 25.0516 29.4664 25.8468 29.4664C26.642 29.4664 27.2866 28.8217 27.2866 28.0265V16.508C27.2866 15.7128 26.642 15.0682 25.8468 15.0682C25.0516 15.0682 24.407 15.7128 24.407 16.508V28.0265Z" fill="black"/>
</svg>
