<svg width="33" height="31" viewBox="0 0 33 31" fill="none" xmlns="http://www.w3.org/2000/svg">
<path fill-rule="evenodd" clip-rule="evenodd" d="M8.26201 4.54794V7.00167L5.33615 7.23784C3.26745 7.40482 1.57997 8.96242 1.24819 11.0112C1.17609 11.4564 1.11051 11.9025 1.05147 12.3491C1.02217 12.5708 1.14038 12.7854 1.34246 12.881L1.47555 12.9441C10.8523 17.3839 22.0806 17.3839 31.4574 12.9441L31.5905 12.8811C31.7926 12.7854 31.9108 12.5708 31.8815 12.3492C31.8224 11.9025 31.7568 11.4564 31.6847 11.0112C31.353 8.96242 29.6655 7.40482 27.5968 7.23784L24.6709 7.00167V4.54794C24.6709 3.05172 23.5763 1.78063 22.0966 1.55868L19.9895 1.24262C17.6539 0.892272 15.2791 0.892272 12.9434 1.24262L10.8363 1.55868C9.35665 1.78063 8.26201 3.05171 8.26201 4.54794ZM19.6052 3.80484C17.5244 3.49271 15.4086 3.49271 13.3278 3.80484L11.2207 4.1209C11.0093 4.15261 10.8529 4.33419 10.8529 4.54794V6.81931C14.5922 6.60509 18.3407 6.6051 22.0801 6.81931V4.54794C22.0801 4.3342 21.9237 4.15261 21.7123 4.1209L19.6052 3.80484Z" fill="black"/>
<path d="M32.2161 15.9646C32.2033 15.7225 31.9499 15.5714 31.7283 15.6695C22.1059 19.93 10.8271 19.93 1.20464 15.6695C0.983038 15.5713 0.729678 15.7225 0.716792 15.9645C0.541004 19.2661 0.718138 22.5818 1.24819 25.8549C1.57997 27.9036 3.26745 29.4612 5.33615 29.6282L8.56944 29.8892C13.8256 30.3135 19.1074 30.3135 24.3635 29.8892L27.5968 29.6282C29.6655 29.4612 31.353 27.9036 31.6847 25.8549C32.2148 22.5818 32.3919 19.2661 32.2161 15.9646Z" fill="black"/>
</svg>
