<svg width="28" height="37" viewBox="0 0 28 37" fill="none" xmlns="http://www.w3.org/2000/svg">
<path fill-rule="evenodd" clip-rule="evenodd" d="M7.02128 5.70906C7.02128 2.97834 9.23497 0.764648 11.9657 0.764648H15.5616C18.2924 0.764648 20.5061 2.97834 20.5061 5.70906V9.305C20.5061 10.0497 19.9023 10.6535 19.1576 10.6535H8.36976C7.62502 10.6535 7.02128 10.0497 7.02128 9.305V5.70906ZM11.9657 3.4616C10.7245 3.4616 9.71824 4.46783 9.71824 5.70906V7.95653H17.8091V5.70906C17.8091 4.46782 16.8029 3.4616 15.5616 3.4616H11.9657Z" fill="black"/>
<path fill-rule="evenodd" clip-rule="evenodd" d="M3.85134 5.58099C4.07864 5.47202 4.33101 5.64546 4.33055 5.89754L4.32433 9.30502C4.32433 11.5392 6.13553 13.3504 8.36976 13.3504H19.1576C21.3918 13.3504 23.203 11.5392 23.203 9.30502V5.89652C23.203 5.64473 23.4552 5.47174 23.6822 5.58059C25.813 6.60211 27.2484 8.77781 27.2484 11.2566V30.1163C27.2484 33.1922 24.9573 35.7864 21.9049 36.1666C16.4983 36.8399 11.029 36.8399 5.62241 36.1666C2.57007 35.7864 0.2789 33.1922 0.2789 30.1163V11.2566C0.2789 8.77814 1.72017 6.60268 3.85134 5.58099ZM19.1576 18.2948C19.9023 18.2948 20.5061 18.8986 20.5061 19.6433C20.5061 20.3881 19.9023 20.9918 19.1576 20.9918H8.36976C7.62502 20.9918 7.02128 20.3881 7.02128 19.6433C7.02128 18.8986 7.62502 18.2948 8.36976 18.2948H19.1576ZM17.3596 23.6888C18.1044 23.6888 18.7081 24.2925 18.7081 25.0372C18.7081 25.782 18.1044 26.3857 17.3596 26.3857H8.36976C7.62502 26.3857 7.02128 25.782 7.02128 25.0372C7.02128 24.2925 7.62502 23.6888 8.36976 23.6888H17.3596Z" fill="black"/>
</svg>
