<svg width="44" height="38" viewBox="0 0 44 38" fill="none" xmlns="http://www.w3.org/2000/svg">
<path d="M9.37637 3.61649C10.1825 2.81036 10.1825 1.50337 9.37637 0.697246C8.57025 -0.10888 7.26326 -0.10888 6.45713 0.697246L0.952556 6.20182C0.14643 7.00795 0.14643 8.31494 0.952556 9.12106L6.45713 14.6256C7.26326 15.4318 8.57025 15.4318 9.37637 14.6256C10.1825 13.8195 10.1825 12.5125 9.37637 11.7064L7.39563 9.72566H35.4396C36.5797 9.72566 37.5038 8.80148 37.5038 7.66144C37.5038 6.52141 36.5797 5.59723 35.4396 5.59723H7.39563L9.37637 3.61649Z" fill="black"/>
<path d="M33.98 22.7155C33.1739 23.5217 33.1739 24.8287 33.98 25.6348L35.9607 27.6155H7.91675C6.77672 27.6155 5.85254 28.5397 5.85254 29.6797C5.85254 30.8198 6.77672 31.744 7.91675 31.744H35.9607L33.98 33.7247C33.1739 34.5308 33.1739 35.8378 33.98 36.6439C34.7861 37.4501 36.0931 37.4501 36.8993 36.6439L42.4038 31.1394C43.2099 30.3332 43.2099 29.0262 42.4038 28.2201L36.8993 22.7155C36.0931 21.9094 34.7861 21.9094 33.98 22.7155Z" fill="black"/>
</svg>
