<svg width="41" height="38" viewBox="0 0 41 38" fill="none" xmlns="http://www.w3.org/2000/svg">
<path d="M8.89477 8.87914C8.89477 4.41812 12.5111 0.801758 16.9721 0.801758C21.4332 0.801758 25.0495 4.41812 25.0495 8.87914C25.0495 13.3401 21.4332 16.9565 16.9721 16.9565C12.5111 16.9565 8.89477 13.3401 8.89477 8.87914Z" fill="black"/>
<path d="M0.2789 29.3418C0.2789 24.8808 3.89527 21.2645 8.35628 21.2645H9.0905C9.48789 21.2645 9.88278 21.3273 10.2605 21.4506L12.1248 22.0594C14.1959 22.7356 16.3731 22.9672 18.5168 22.7542C18.8618 22.7199 19.1269 23.0783 18.9963 23.3994C18.3856 24.9012 18.0491 26.5437 18.0491 28.2648C18.0491 30.9621 18.8754 33.4663 20.2886 35.5383C20.4859 35.8275 20.2963 36.2338 19.9464 36.2459C14.3034 36.4403 8.64599 36.0812 3.05595 35.1686C1.45472 34.9071 0.2789 33.5238 0.2789 31.9014V29.3418Z" fill="black"/>
<path fill-rule="evenodd" clip-rule="evenodd" d="M21.2801 28.2648C21.2801 30.3582 21.9437 32.2966 23.0721 33.8811C23.7008 34.764 24.4738 35.537 25.3567 36.1657C26.9412 37.2941 28.8796 37.9577 30.9729 37.9577C36.3262 37.9577 40.6658 33.6181 40.6658 28.2648C40.6658 26.1715 40.0022 24.2331 38.8738 22.6486C38.2451 21.7657 37.4721 20.9927 36.5892 20.364C35.0047 19.2356 33.0663 18.572 30.9729 18.572C25.6197 18.572 21.2801 22.9116 21.2801 28.2648ZM30.9729 34.7267C29.7746 34.7267 28.6524 34.4005 27.6903 33.8321L36.5402 24.9823C37.1086 25.9443 37.4348 27.0665 37.4348 28.2648C37.4348 31.8337 34.5417 34.7267 30.9729 34.7267ZM25.4057 31.5474L34.2555 22.6976C33.2935 22.1292 32.1713 21.8029 30.9729 21.8029C27.4041 21.8029 24.511 24.696 24.511 28.2648C24.511 29.4632 24.8372 30.5854 25.4057 31.5474Z" fill="black"/>
</svg>
