<svg width="26" height="36" viewBox="0 0 26 36" fill="none" xmlns="http://www.w3.org/2000/svg">
<path d="M13.0198 0.926825C12.4904 0.694693 11.9689 0.857086 11.6335 1.19872C11.3076 1.53058 11.1446 2.03708 11.2589 2.54774C11.4392 3.3538 11.5345 4.1924 11.5345 5.0538C11.5345 7.02047 11.0388 8.3979 10.186 9.53977C9.31897 10.7005 8.06396 11.6455 6.47938 12.7118C6.45447 12.7286 6.43128 12.7477 6.41013 12.769L6.21821 12.9624C2.81839 15.1589 0.566345 18.9833 0.566345 23.334C0.566345 30.1488 6.09078 35.6732 12.9055 35.6732C19.7202 35.6732 25.2447 30.1488 25.2447 23.334C25.2447 21.3332 24.7681 19.4423 23.9218 17.77C23.853 17.6339 23.7208 17.5412 23.5695 17.5227C23.4181 17.5042 23.2675 17.5624 23.168 17.6779C23.0391 17.8273 22.9129 17.9748 22.7885 18.1201C21.1829 19.996 19.8873 21.5099 17.2309 22.1861C17.1179 22.2149 17.0478 22.1935 16.998 22.1624C16.9394 22.1258 16.8752 22.0527 16.8313 21.9359C16.7397 21.6925 16.779 21.3822 16.9667 21.1788C18.3874 19.6385 19.3966 17.5476 19.7573 14.5732C20.4328 9.00155 17.9006 3.0667 13.0198 0.926825Z" fill="black"/>
</svg>
