<svg width="451" height="240" viewBox="0 0 451 240" fill="none" xmlns="http://www.w3.org/2000/svg">
<path d="M276.9 80.3124L276.4 80.1124C275.9 79.9125 275.5 80.2124 275.5 80.7122V84.3111C275.5 86.5104 277 88.9097 278.9 89.7094L279.4 89.9094C279.9 90.1093 280.3 89.8094 280.3 89.3096V85.7107C280.2 83.5114 278.7 81.1121 276.9 80.3124Z" fill="white"/>
<path d="M284.601 80.1124L284.101 80.3124C282.301 81.1121 280.801 83.5114 280.801 85.7107V89.3096C280.801 89.9094 281.201 90.2093 281.701 89.9094L282.201 89.7094C284.001 88.9097 285.501 86.5104 285.501 84.3111V80.7122C285.501 80.2124 285.101 79.9125 284.601 80.1124Z" fill="white"/>
<path d="M276.9 90.3092L276.4 90.1093C275.9 89.9093 275.5 90.2092 275.5 90.7091V94.308C275.5 96.5073 277 98.9065 278.9 99.7063L279.4 99.9062C279.9 100.106 280.3 99.8062 280.3 99.3064V95.7075C280.2 93.5082 278.7 91.1089 276.9 90.3092Z" fill="white"/>
<path d="M284.601 90.1093L284.101 90.3092C282.301 91.1089 280.801 93.5082 280.801 95.7075V99.3064C280.801 99.9062 281.201 100.206 281.701 99.9062L282.201 99.7063C284.001 98.9065 285.501 96.5073 285.501 94.308V90.7091C285.501 90.2092 285.101 89.9093 284.601 90.1093Z" fill="white"/>
<path d="M276.9 100.306L276.4 100.106C275.9 99.9061 275.5 100.206 275.5 100.706V104.305C275.5 106.504 277 108.903 278.9 109.703L279.4 109.903C279.9 110.103 280.3 109.803 280.3 109.303V105.704C280.2 103.505 278.7 101.106 276.9 100.306Z" fill="white"/>
<path d="M284.601 100.106L284.101 100.306C282.301 101.106 280.801 103.505 280.801 105.704V109.303C280.801 109.903 281.201 110.203 281.701 109.903L282.201 109.703C284.001 108.903 285.501 106.504 285.501 104.305V100.706C285.501 100.206 285.101 99.9061 284.601 100.106Z" fill="white"/>
<path d="M276.9 110.303L276.4 110.103C275.9 109.903 275.5 110.203 275.5 110.703V114.302C275.5 116.501 277 118.9 278.9 119.7L279.4 119.9C279.9 120.1 280.3 119.8 280.3 119.3V115.701C280.2 113.502 278.7 111.103 276.9 110.303Z" fill="white"/>
<path d="M284.601 110.103L284.101 110.303C282.301 111.103 280.801 113.502 280.801 115.701V119.3C280.801 119.9 281.201 120.2 281.701 119.9L282.201 119.7C284.001 118.9 285.501 116.501 285.501 114.302V110.703C285.501 110.203 285.101 109.903 284.601 110.103Z" fill="white"/>
<path d="M265.9 70.3153L265.4 70.1154C264.9 69.9154 264.5 70.2153 264.5 70.7152V74.3141C264.5 76.5134 266 78.9126 267.9 79.7124L268.4 79.9123C268.9 80.1122 269.3 79.8123 269.3 79.3125V75.7136C269.2 73.5143 267.7 71.115 265.9 70.3153Z" fill="white"/>
<path d="M273.601 70.1154L273.101 70.3153C271.301 71.115 269.801 73.5143 269.801 75.7136V79.3125C269.801 79.9123 270.201 80.2122 270.701 79.9123L271.201 79.7124C273.001 78.9126 274.501 76.5134 274.501 74.3141V70.7152C274.501 70.2153 274.101 69.9154 273.601 70.1154Z" fill="white"/>
<path d="M265.9 80.3124L265.4 80.1124C264.9 79.9125 264.5 80.2124 264.5 80.7122V84.3111C264.5 86.5104 266 88.9097 267.9 89.7094L268.4 89.9094C268.9 90.1093 269.3 89.8094 269.3 89.3096V85.7107C269.2 83.5114 267.7 81.1121 265.9 80.3124Z" fill="white"/>
<path d="M273.601 80.1124L273.101 80.3124C271.301 81.1121 269.801 83.5114 269.801 85.7107V89.3096C269.801 89.9094 270.201 90.2093 270.701 89.9094L271.201 89.7094C273.001 88.9097 274.501 86.5104 274.501 84.3111V80.7122C274.501 80.2124 274.101 79.9125 273.601 80.1124Z" fill="white"/>
<path d="M265.9 90.3092L265.4 90.1093C264.9 89.9093 264.5 90.2092 264.5 90.7091V94.308C264.5 96.5073 266 98.9065 267.9 99.7063L268.4 99.9062C268.9 100.106 269.3 99.8062 269.3 99.3064V95.7075C269.2 93.5082 267.7 91.1089 265.9 90.3092Z" fill="white"/>
<path d="M273.601 90.1093L273.101 90.3092C271.301 91.1089 269.801 93.5082 269.801 95.7075V99.3064C269.801 99.9062 270.201 100.206 270.701 99.9062L271.201 99.7063C273.001 98.9065 274.501 96.5073 274.501 94.308V90.7091C274.501 90.2092 274.101 89.9093 273.601 90.1093Z" fill="white"/>
<path d="M265.9 100.306L265.4 100.106C264.9 99.9061 264.5 100.206 264.5 100.706V104.305C264.5 106.504 266 108.903 267.9 109.703L268.4 109.903C268.9 110.103 269.3 109.803 269.3 109.303V105.704C269.2 103.505 267.7 101.106 265.9 100.306Z" fill="white"/>
<path d="M273.601 100.106L273.101 100.306C271.301 101.106 269.801 103.505 269.801 105.704V109.303C269.801 109.903 270.201 110.203 270.701 109.903L271.201 109.703C273.001 108.903 274.501 106.504 274.501 104.305V100.706C274.501 100.206 274.101 99.9061 273.601 100.106Z" fill="white"/>
<path d="M265.9 110.303L265.4 110.103C264.9 109.903 264.5 110.203 264.5 110.703V114.302C264.5 116.501 266 118.9 267.9 119.7L268.4 119.9C268.9 120.1 269.3 119.8 269.3 119.3V115.701C269.2 113.502 267.7 111.103 265.9 110.303Z" fill="white"/>
<path d="M273.601 110.103L273.101 110.303C271.301 111.103 269.801 113.502 269.801 115.701V119.3C269.801 119.9 270.201 120.2 270.701 119.9L271.201 119.7C273.001 118.9 274.501 116.501 274.501 114.302V110.703C274.501 110.203 274.101 109.903 273.601 110.103Z" fill="white"/>
<path d="M265.9 120.3L265.4 120.1C264.9 119.9 264.5 120.2 264.5 120.7V124.299C264.5 126.498 266 128.897 267.9 129.697L268.4 129.897C268.9 130.097 269.3 129.797 269.3 129.297V125.698C269.2 123.499 267.7 121.1 265.9 120.3Z" fill="white"/>
<path d="M273.601 120.1L273.101 120.3C271.301 121.1 269.801 123.499 269.801 125.698V129.297C269.801 129.897 270.201 130.197 270.701 129.897L271.201 129.697C273.001 128.897 274.501 126.498 274.501 124.299V120.7C274.501 120.2 274.101 119.9 273.601 120.1Z" fill="white"/>
<path d="M254.9 70.3153L254.4 70.1154C253.9 69.9154 253.5 70.2153 253.5 70.7152V74.3141C253.5 76.5134 255 78.9126 256.9 79.7124L257.4 79.9123C257.9 80.1122 258.3 79.8123 258.3 79.3125V75.7136C258.2 73.5143 256.7 71.115 254.9 70.3153Z" fill="white"/>
<path d="M262.601 70.1154L262.101 70.3153C260.301 71.115 258.801 73.5143 258.801 75.7136V79.3125C258.801 79.9123 259.201 80.2122 259.701 79.9123L260.201 79.7124C262.001 78.9126 263.501 76.5134 263.501 74.3141V70.7152C263.501 70.2153 263.101 69.9154 262.601 70.1154Z" fill="white"/>
<path d="M254.9 80.3124L254.4 80.1124C253.9 79.9125 253.5 80.2124 253.5 80.7122V84.3111C253.5 86.5104 255 88.9097 256.9 89.7094L257.4 89.9094C257.9 90.1093 258.3 89.8094 258.3 89.3096V85.7107C258.2 83.5114 256.7 81.1121 254.9 80.3124Z" fill="white"/>
<path d="M262.601 80.1124L262.101 80.3124C260.301 81.1121 258.801 83.5114 258.801 85.7107V89.3096C258.801 89.9094 259.201 90.2093 259.701 89.9094L260.201 89.7094C262.001 88.9097 263.501 86.5104 263.501 84.3111V80.7122C263.501 80.2124 263.101 79.9125 262.601 80.1124Z" fill="white"/>
<path d="M254.9 90.3092L254.4 90.1093C253.9 89.9093 253.5 90.2092 253.5 90.7091V94.308C253.5 96.5073 255 98.9065 256.9 99.7063L257.4 99.9062C257.9 100.106 258.3 99.8062 258.3 99.3064V95.7075C258.2 93.5082 256.7 91.1089 254.9 90.3092Z" fill="white"/>
<path d="M262.601 90.1093L262.101 90.3092C260.301 91.1089 258.801 93.5082 258.801 95.7075V99.3064C258.801 99.9062 259.201 100.206 259.701 99.9062L260.201 99.7063C262.001 98.9065 263.501 96.5073 263.501 94.308V90.7091C263.501 90.2092 263.101 89.9093 262.601 90.1093Z" fill="white"/>
<path d="M254.9 100.306L254.4 100.106C253.9 99.9061 253.5 100.206 253.5 100.706V104.305C253.5 106.504 255 108.903 256.9 109.703L257.4 109.903C257.9 110.103 258.3 109.803 258.3 109.303V105.704C258.2 103.505 256.7 101.106 254.9 100.306Z" fill="white"/>
<path d="M262.601 100.106L262.101 100.306C260.301 101.106 258.801 103.505 258.801 105.704V109.303C258.801 109.903 259.201 110.203 259.701 109.903L260.201 109.703C262.001 108.903 263.501 106.504 263.501 104.305V100.706C263.501 100.206 263.101 99.9061 262.601 100.106Z" fill="white"/>
<path d="M254.9 110.303L254.4 110.103C253.9 109.903 253.5 110.203 253.5 110.703V114.302C253.5 116.501 255 118.9 256.9 119.7L257.4 119.9C257.9 120.1 258.3 119.8 258.3 119.3V115.701C258.2 113.502 256.7 111.103 254.9 110.303Z" fill="white"/>
<path d="M262.601 110.103L262.101 110.303C260.301 111.103 258.801 113.502 258.801 115.701V119.3C258.801 119.9 259.201 120.2 259.701 119.9L260.201 119.7C262.001 118.9 263.501 116.501 263.501 114.302V110.703C263.501 110.203 263.101 109.903 262.601 110.103Z" fill="white"/>
<path d="M254.9 120.3L254.4 120.1C253.9 119.9 253.5 120.2 253.5 120.7V124.299C253.5 126.498 255 128.897 256.9 129.697L257.4 129.897C257.9 130.097 258.3 129.797 258.3 129.297V125.698C258.2 123.499 256.7 121.1 254.9 120.3Z" fill="white"/>
<path d="M262.601 120.1L262.101 120.3C260.301 121.1 258.801 123.499 258.801 125.698V129.297C258.801 129.897 259.201 130.197 259.701 129.897L260.201 129.697C262.001 128.897 263.501 126.498 263.501 124.299V120.7C263.501 120.2 263.101 119.9 262.601 120.1Z" fill="white"/>
<path d="M254.9 130.297L254.4 130.097C253.9 129.897 253.5 130.197 253.5 130.697V134.295C253.5 136.495 255 138.894 256.9 139.694L257.4 139.894C257.9 140.094 258.3 139.794 258.3 139.294V135.695C258.2 133.496 256.7 131.096 254.9 130.297Z" fill="white"/>
<path d="M262.601 130.097L262.101 130.297C260.301 131.096 258.801 133.496 258.801 135.695V139.294C258.801 139.894 259.201 140.194 259.701 139.894L260.201 139.694C262.001 138.894 263.501 136.495 263.501 134.295V130.697C263.501 130.197 263.101 129.897 262.601 130.097Z" fill="white"/>
<path d="M243.9 70.3153L243.4 70.1154C242.9 69.9154 242.5 70.2153 242.5 70.7152V74.3141C242.5 76.5134 244 78.9126 245.9 79.7124L246.4 79.9123C246.9 80.1122 247.3 79.8123 247.3 79.3125V75.7136C247.2 73.5143 245.7 71.115 243.9 70.3153Z" fill="white"/>
<path d="M251.601 70.1154L251.101 70.3153C249.301 71.115 247.801 73.5143 247.801 75.7136V79.3125C247.801 79.9123 248.201 80.2122 248.701 79.9123L249.201 79.7124C251.001 78.9126 252.501 76.5134 252.501 74.3141V70.7152C252.501 70.2153 252.101 69.9154 251.601 70.1154Z" fill="white"/>
<path d="M243.9 80.3124L243.4 80.1124C242.9 79.9125 242.5 80.2124 242.5 80.7122V84.3111C242.5 86.5104 244 88.9097 245.9 89.7094L246.4 89.9094C246.9 90.1093 247.3 89.8094 247.3 89.3096V85.7107C247.2 83.5114 245.7 81.1121 243.9 80.3124Z" fill="white"/>
<path d="M251.601 80.1124L251.101 80.3124C249.301 81.1121 247.801 83.5114 247.801 85.7107V89.3096C247.801 89.9094 248.201 90.2093 248.701 89.9094L249.201 89.7094C251.001 88.9097 252.501 86.5104 252.501 84.3111V80.7122C252.501 80.2124 252.101 79.9125 251.601 80.1124Z" fill="white"/>
<path d="M243.9 90.3092L243.4 90.1093C242.9 89.9093 242.5 90.2092 242.5 90.7091V94.308C242.5 96.5073 244 98.9065 245.9 99.7063L246.4 99.9062C246.9 100.106 247.3 99.8062 247.3 99.3064V95.7075C247.2 93.5082 245.7 91.1089 243.9 90.3092Z" fill="white"/>
<path d="M251.601 90.1093L251.101 90.3092C249.301 91.1089 247.801 93.5082 247.801 95.7075V99.3064C247.801 99.9062 248.201 100.206 248.701 99.9062L249.201 99.7063C251.001 98.9065 252.501 96.5073 252.501 94.308V90.7091C252.501 90.2092 252.101 89.9093 251.601 90.1093Z" fill="white"/>
<path d="M243.9 100.306L243.4 100.106C242.9 99.9061 242.5 100.206 242.5 100.706V104.305C242.5 106.504 244 108.903 245.9 109.703L246.4 109.903C246.9 110.103 247.3 109.803 247.3 109.303V105.704C247.2 103.505 245.7 101.106 243.9 100.306Z" fill="white"/>
<path d="M251.601 100.106L251.101 100.306C249.301 101.106 247.801 103.505 247.801 105.704V109.303C247.801 109.903 248.201 110.203 248.701 109.903L249.201 109.703C251.001 108.903 252.501 106.504 252.501 104.305V100.706C252.501 100.206 252.101 99.9061 251.601 100.106Z" fill="white"/>
<path d="M243.9 110.303L243.4 110.103C242.9 109.903 242.5 110.203 242.5 110.703V114.302C242.5 116.501 244 118.9 245.9 119.7L246.4 119.9C246.9 120.1 247.3 119.8 247.3 119.3V115.701C247.2 113.502 245.7 111.103 243.9 110.303Z" fill="white"/>
<path d="M251.601 110.103L251.101 110.303C249.301 111.103 247.801 113.502 247.801 115.701V119.3C247.801 119.9 248.201 120.2 248.701 119.9L249.201 119.7C251.001 118.9 252.501 116.501 252.501 114.302V110.703C252.501 110.203 252.101 109.903 251.601 110.103Z" fill="white"/>
<path d="M243.9 120.3L243.4 120.1C242.9 119.9 242.5 120.2 242.5 120.7V124.299C242.5 126.498 244 128.897 245.9 129.697L246.4 129.897C246.9 130.097 247.3 129.797 247.3 129.297V125.698C247.2 123.499 245.7 121.1 243.9 120.3Z" fill="white"/>
<path d="M251.601 120.1L251.101 120.3C249.301 121.1 247.801 123.499 247.801 125.698V129.297C247.801 129.897 248.201 130.197 248.701 129.897L249.201 129.697C251.001 128.897 252.501 126.498 252.501 124.299V120.7C252.501 120.2 252.101 119.9 251.601 120.1Z" fill="white"/>
<path d="M243.9 130.297L243.4 130.097C242.9 129.897 242.5 130.197 242.5 130.697V134.295C242.5 136.495 244 138.894 245.9 139.694L246.4 139.894C246.9 140.094 247.3 139.794 247.3 139.294V135.695C247.2 133.496 245.7 131.096 243.9 130.297Z" fill="white"/>
<path d="M251.601 130.097L251.101 130.297C249.301 131.096 247.801 133.496 247.801 135.695V139.294C247.801 139.894 248.201 140.194 248.701 139.894L249.201 139.694C251.001 138.894 252.501 136.495 252.501 134.295V130.697C252.501 130.197 252.101 129.897 251.601 130.097Z" fill="white"/>
<path d="M243.9 140.294L243.4 140.094C242.9 139.894 242.5 140.194 242.5 140.694V144.293C242.5 146.492 244 148.891 245.9 149.691L246.4 149.891C246.9 150.091 247.3 149.791 247.3 149.291V145.692C247.2 143.493 245.7 141.094 243.9 140.294Z" fill="white"/>
<path d="M251.601 140.094L251.101 140.294C249.301 141.094 247.801 143.493 247.801 145.692V149.291C247.801 149.891 248.201 150.191 248.701 149.891L249.201 149.691C251.001 148.891 252.501 146.492 252.501 144.293V140.694C252.501 140.194 252.101 139.894 251.601 140.094Z" fill="white"/>
<path d="M232.9 80.3124L232.4 80.1124C231.9 79.9125 231.5 80.2124 231.5 80.7122V84.3111C231.5 86.5104 233 88.9097 234.9 89.7094L235.4 89.9094C235.9 90.1093 236.3 89.8094 236.3 89.3096V85.7107C236.2 83.5114 234.7 81.1121 232.9 80.3124Z" fill="white"/>
<path d="M240.601 80.1124L240.101 80.3124C238.301 81.1121 236.801 83.5114 236.801 85.7107V89.3096C236.801 89.9094 237.201 90.2093 237.701 89.9094L238.201 89.7094C240.001 88.9097 241.501 86.5104 241.501 84.3111V80.7122C241.501 80.2124 241.101 79.9125 240.601 80.1124Z" fill="white"/>
<path d="M232.9 90.3092L232.4 90.1093C231.9 89.9093 231.5 90.2092 231.5 90.7091V94.308C231.5 96.5073 233 98.9065 234.9 99.7063L235.4 99.9062C235.9 100.106 236.3 99.8062 236.3 99.3064V95.7075C236.2 93.5082 234.7 91.1089 232.9 90.3092Z" fill="white"/>
<path d="M240.601 90.1093L240.101 90.3092C238.301 91.1089 236.801 93.5082 236.801 95.7075V99.3064C236.801 99.9062 237.201 100.206 237.701 99.9062L238.201 99.7063C240.001 98.9065 241.501 96.5073 241.501 94.308V90.7091C241.501 90.2092 241.101 89.9093 240.601 90.1093Z" fill="white"/>
<path d="M232.9 100.306L232.4 100.106C231.9 99.9061 231.5 100.206 231.5 100.706V104.305C231.5 106.504 233 108.903 234.9 109.703L235.4 109.903C235.9 110.103 236.3 109.803 236.3 109.303V105.704C236.2 103.505 234.7 101.106 232.9 100.306Z" fill="white"/>
<path d="M240.601 100.106L240.101 100.306C238.301 101.106 236.801 103.505 236.801 105.704V109.303C236.801 109.903 237.201 110.203 237.701 109.903L238.201 109.703C240.001 108.903 241.501 106.504 241.501 104.305V100.706C241.501 100.206 241.101 99.9061 240.601 100.106Z" fill="white"/>
<path d="M232.9 110.303L232.4 110.103C231.9 109.903 231.5 110.203 231.5 110.703V114.302C231.5 116.501 233 118.9 234.9 119.7L235.4 119.9C235.9 120.1 236.3 119.8 236.3 119.3V115.701C236.2 113.502 234.7 111.103 232.9 110.303Z" fill="white"/>
<path d="M240.601 110.103L240.101 110.303C238.301 111.103 236.801 113.502 236.801 115.701V119.3C236.801 119.9 237.201 120.2 237.701 119.9L238.201 119.7C240.001 118.9 241.501 116.501 241.501 114.302V110.703C241.501 110.203 241.101 109.903 240.601 110.103Z" fill="white"/>
<path d="M232.9 120.3L232.4 120.1C231.9 119.9 231.5 120.2 231.5 120.7V124.299C231.5 126.498 233 128.897 234.9 129.697L235.4 129.897C235.9 130.097 236.3 129.797 236.3 129.297V125.698C236.2 123.499 234.7 121.1 232.9 120.3Z" fill="white"/>
<path d="M240.601 120.1L240.101 120.3C238.301 121.1 236.801 123.499 236.801 125.698V129.297C236.801 129.897 237.201 130.197 237.701 129.897L238.201 129.697C240.001 128.897 241.501 126.498 241.501 124.299V120.7C241.501 120.2 241.101 119.9 240.601 120.1Z" fill="white"/>
<path d="M232.9 130.297L232.4 130.097C231.9 129.897 231.5 130.197 231.5 130.697V134.295C231.5 136.495 233 138.894 234.9 139.694L235.4 139.894C235.9 140.094 236.3 139.794 236.3 139.294V135.695C236.2 133.496 234.7 131.096 232.9 130.297Z" fill="white"/>
<path d="M240.601 130.097L240.101 130.297C238.301 131.096 236.801 133.496 236.801 135.695V139.294C236.801 139.894 237.201 140.194 237.701 139.894L238.201 139.694C240.001 138.894 241.501 136.495 241.501 134.295V130.697C241.501 130.197 241.101 129.897 240.601 130.097Z" fill="white"/>
<path d="M232.9 140.294L232.4 140.094C231.9 139.894 231.5 140.194 231.5 140.694V144.293C231.5 146.492 233 148.891 234.9 149.691L235.4 149.891C235.9 150.091 236.3 149.791 236.3 149.291V145.692C236.2 143.493 234.7 141.094 232.9 140.294Z" fill="white"/>
<path d="M240.601 140.094L240.101 140.294C238.301 141.094 236.801 143.493 236.801 145.692V149.291C236.801 149.891 237.201 150.191 237.701 149.891L238.201 149.691C240.001 148.891 241.501 146.492 241.501 144.293V140.694C241.501 140.194 241.101 139.894 240.601 140.094Z" fill="white"/>
<path d="M232.9 150.29L232.4 150.09C231.9 149.891 231.5 150.19 231.5 150.69V154.289C231.5 156.488 233 158.888 234.9 159.687L235.4 159.887C235.9 160.087 236.3 159.787 236.3 159.288V155.689C236.2 153.489 234.7 151.09 232.9 150.29Z" fill="white"/>
<path d="M240.601 150.09L240.101 150.29C238.301 151.09 236.801 153.489 236.801 155.689V159.288C236.801 159.887 237.201 160.187 237.701 159.887L238.201 159.687C240.001 158.888 241.501 156.488 241.501 154.289V150.69C241.501 150.19 241.101 149.891 240.601 150.09Z" fill="white"/>
<path d="M221.9 90.3092L221.4 90.1093C220.9 89.9093 220.5 90.2092 220.5 90.7091V94.308C220.5 96.5073 222 98.9065 223.9 99.7063L224.4 99.9062C224.9 100.106 225.3 99.8062 225.3 99.3064V95.7075C225.2 93.5082 223.7 91.1089 221.9 90.3092Z" fill="white"/>
<path d="M229.601 90.1093L229.101 90.3092C227.301 91.1089 225.801 93.5082 225.801 95.7075V99.3064C225.801 99.9062 226.201 100.206 226.701 99.9062L227.201 99.7063C229.001 98.9065 230.501 96.5073 230.501 94.308V90.7091C230.501 90.2092 230.101 89.9093 229.601 90.1093Z" fill="white"/>
<path d="M221.9 100.306L221.4 100.106C220.9 99.9061 220.5 100.206 220.5 100.706V104.305C220.5 106.504 222 108.903 223.9 109.703L224.4 109.903C224.9 110.103 225.3 109.803 225.3 109.303V105.704C225.2 103.505 223.7 101.106 221.9 100.306Z" fill="white"/>
<path d="M229.601 100.106L229.101 100.306C227.301 101.106 225.801 103.505 225.801 105.704V109.303C225.801 109.903 226.201 110.203 226.701 109.903L227.201 109.703C229.001 108.903 230.501 106.504 230.501 104.305V100.706C230.501 100.206 230.101 99.9061 229.601 100.106Z" fill="white"/>
<path d="M221.9 110.303L221.4 110.103C220.9 109.903 220.5 110.203 220.5 110.703V114.302C220.5 116.501 222 118.9 223.9 119.7L224.4 119.9C224.9 120.1 225.3 119.8 225.3 119.3V115.701C225.2 113.502 223.7 111.103 221.9 110.303Z" fill="white"/>
<path d="M229.601 110.103L229.101 110.303C227.301 111.103 225.801 113.502 225.801 115.701V119.3C225.801 119.9 226.201 120.2 226.701 119.9L227.201 119.7C229.001 118.9 230.501 116.501 230.501 114.302V110.703C230.501 110.203 230.101 109.903 229.601 110.103Z" fill="white"/>
<path d="M221.9 120.3L221.4 120.1C220.9 119.9 220.5 120.2 220.5 120.7V124.299C220.5 126.498 222 128.897 223.9 129.697L224.4 129.897C224.9 130.097 225.3 129.797 225.3 129.297V125.698C225.2 123.499 223.7 121.1 221.9 120.3Z" fill="white"/>
<path d="M229.601 120.1L229.101 120.3C227.301 121.1 225.801 123.499 225.801 125.698V129.297C225.801 129.897 226.201 130.197 226.701 129.897L227.201 129.697C229.001 128.897 230.501 126.498 230.501 124.299V120.7C230.501 120.2 230.101 119.9 229.601 120.1Z" fill="white"/>
<path d="M221.9 130.297L221.4 130.097C220.9 129.897 220.5 130.197 220.5 130.697V134.295C220.5 136.495 222 138.894 223.9 139.694L224.4 139.894C224.9 140.094 225.3 139.794 225.3 139.294V135.695C225.2 133.496 223.7 131.096 221.9 130.297Z" fill="white"/>
<path d="M229.601 130.097L229.101 130.297C227.301 131.096 225.801 133.496 225.801 135.695V139.294C225.801 139.894 226.201 140.194 226.701 139.894L227.201 139.694C229.001 138.894 230.501 136.495 230.501 134.295V130.697C230.501 130.197 230.101 129.897 229.601 130.097Z" fill="white"/>
<path d="M221.9 140.294L221.4 140.094C220.9 139.894 220.5 140.194 220.5 140.694V144.293C220.5 146.492 222 148.891 223.9 149.691L224.4 149.891C224.9 150.091 225.3 149.791 225.3 149.291V145.692C225.2 143.493 223.7 141.094 221.9 140.294Z" fill="white"/>
<path d="M229.601 140.094L229.101 140.294C227.301 141.094 225.801 143.493 225.801 145.692V149.291C225.801 149.891 226.201 150.191 226.701 149.891L227.201 149.691C229.001 148.891 230.501 146.492 230.501 144.293V140.694C230.501 140.194 230.101 139.894 229.601 140.094Z" fill="white"/>
<path d="M221.9 150.29L221.4 150.09C220.9 149.891 220.5 150.19 220.5 150.69V154.289C220.5 156.488 222 158.888 223.9 159.687L224.4 159.887C224.9 160.087 225.3 159.787 225.3 159.288V155.689C225.2 153.489 223.7 151.09 221.9 150.29Z" fill="white"/>
<path d="M229.601 150.09L229.101 150.29C227.301 151.09 225.801 153.489 225.801 155.689V159.288C225.801 159.887 226.201 160.187 226.701 159.887L227.201 159.687C229.001 158.888 230.501 156.488 230.501 154.289V150.69C230.501 150.19 230.101 149.891 229.601 150.09Z" fill="white"/>
<path d="M221.9 160.287L221.4 160.088C220.9 159.888 220.5 160.187 220.5 160.687V164.286C220.5 166.486 222 168.885 223.9 169.685L224.4 169.884C224.9 170.084 225.3 169.785 225.3 169.285V165.686C225.2 163.486 223.7 161.087 221.9 160.287Z" fill="white"/>
<path d="M229.601 160.088L229.101 160.287C227.301 161.087 225.801 163.486 225.801 165.686V169.285C225.801 169.884 226.201 170.184 226.701 169.884L227.201 169.685C229.001 168.885 230.501 166.486 230.501 164.286V160.687C230.501 160.187 230.101 159.888 229.601 160.088Z" fill="white"/>
<path d="M210.9 80.3124L210.4 80.1124C209.9 79.9125 209.5 80.2124 209.5 80.7122V84.3111C209.5 86.5104 211 88.9097 212.9 89.7094L213.4 89.9094C213.9 90.1093 214.3 89.8094 214.3 89.3096V85.7107C214.2 83.5114 212.7 81.1121 210.9 80.3124Z" fill="white"/>
<path d="M218.601 80.1124L218.101 80.3124C216.301 81.1121 214.801 83.5114 214.801 85.7107V89.3096C214.801 89.9094 215.201 90.2093 215.701 89.9094L216.201 89.7094C218.001 88.9097 219.501 86.5104 219.501 84.3111V80.7122C219.501 80.2124 219.101 79.9125 218.601 80.1124Z" fill="white"/>
<path d="M210.9 90.3092L210.4 90.1093C209.9 89.9093 209.5 90.2092 209.5 90.7091V94.308C209.5 96.5073 211 98.9065 212.9 99.7063L213.4 99.9062C213.9 100.106 214.3 99.8062 214.3 99.3064V95.7075C214.2 93.5082 212.7 91.1089 210.9 90.3092Z" fill="white"/>
<path d="M218.601 90.1093L218.101 90.3092C216.301 91.1089 214.801 93.5082 214.801 95.7075V99.3064C214.801 99.9062 215.201 100.206 215.701 99.9062L216.201 99.7063C218.001 98.9065 219.501 96.5073 219.501 94.308V90.7091C219.501 90.2092 219.101 89.9093 218.601 90.1093Z" fill="white"/>
<path d="M210.9 100.306L210.4 100.106C209.9 99.9061 209.5 100.206 209.5 100.706V104.305C209.5 106.504 211 108.903 212.9 109.703L213.4 109.903C213.9 110.103 214.3 109.803 214.3 109.303V105.704C214.2 103.505 212.7 101.106 210.9 100.306Z" fill="white"/>
<path d="M218.601 100.106L218.101 100.306C216.301 101.106 214.801 103.505 214.801 105.704V109.303C214.801 109.903 215.201 110.203 215.701 109.903L216.201 109.703C218.001 108.903 219.501 106.504 219.501 104.305V100.706C219.501 100.206 219.101 99.9061 218.601 100.106Z" fill="white"/>
<path d="M210.9 110.303L210.4 110.103C209.9 109.903 209.5 110.203 209.5 110.703V114.302C209.5 116.501 211 118.9 212.9 119.7L213.4 119.9C213.9 120.1 214.3 119.8 214.3 119.3V115.701C214.2 113.502 212.7 111.103 210.9 110.303Z" fill="white"/>
<path d="M218.601 110.103L218.101 110.303C216.301 111.103 214.801 113.502 214.801 115.701V119.3C214.801 119.9 215.201 120.2 215.701 119.9L216.201 119.7C218.001 118.9 219.501 116.501 219.501 114.302V110.703C219.501 110.203 219.101 109.903 218.601 110.103Z" fill="white"/>
<path d="M210.9 120.3L210.4 120.1C209.9 119.9 209.5 120.2 209.5 120.7V124.299C209.5 126.498 211 128.897 212.9 129.697L213.4 129.897C213.9 130.097 214.3 129.797 214.3 129.297V125.698C214.2 123.499 212.7 121.1 210.9 120.3Z" fill="white"/>
<path d="M218.601 120.1L218.101 120.3C216.301 121.1 214.801 123.499 214.801 125.698V129.297C214.801 129.897 215.201 130.197 215.701 129.897L216.201 129.697C218.001 128.897 219.501 126.498 219.501 124.299V120.7C219.501 120.2 219.101 119.9 218.601 120.1Z" fill="white"/>
<path d="M210.9 130.297L210.4 130.097C209.9 129.897 209.5 130.197 209.5 130.697V134.295C209.5 136.495 211 138.894 212.9 139.694L213.4 139.894C213.9 140.094 214.3 139.794 214.3 139.294V135.695C214.2 133.496 212.7 131.096 210.9 130.297Z" fill="white"/>
<path d="M218.601 130.097L218.101 130.297C216.301 131.096 214.801 133.496 214.801 135.695V139.294C214.801 139.894 215.201 140.194 215.701 139.894L216.201 139.694C218.001 138.894 219.501 136.495 219.501 134.295V130.697C219.501 130.197 219.101 129.897 218.601 130.097Z" fill="white"/>
<path d="M210.9 140.294L210.4 140.094C209.9 139.894 209.5 140.194 209.5 140.694V144.293C209.5 146.492 211 148.891 212.9 149.691L213.4 149.891C213.9 150.091 214.3 149.791 214.3 149.291V145.692C214.2 143.493 212.7 141.094 210.9 140.294Z" fill="white"/>
<path d="M218.601 140.094L218.101 140.294C216.301 141.094 214.801 143.493 214.801 145.692V149.291C214.801 149.891 215.201 150.191 215.701 149.891L216.201 149.691C218.001 148.891 219.501 146.492 219.501 144.293V140.694C219.501 140.194 219.101 139.894 218.601 140.094Z" fill="white"/>
<path d="M210.9 150.29L210.4 150.09C209.9 149.891 209.5 150.19 209.5 150.69V154.289C209.5 156.488 211 158.888 212.9 159.687L213.4 159.887C213.9 160.087 214.3 159.787 214.3 159.288V155.689C214.2 153.489 212.7 151.09 210.9 150.29Z" fill="white"/>
<path d="M218.601 150.09L218.101 150.29C216.301 151.09 214.801 153.489 214.801 155.689V159.288C214.801 159.887 215.201 160.187 215.701 159.887L216.201 159.687C218.001 158.888 219.501 156.488 219.501 154.289V150.69C219.501 150.19 219.101 149.891 218.601 150.09Z" fill="white"/>
<path d="M199.9 70.3153L199.4 70.1154C198.9 69.9154 198.5 70.2153 198.5 70.7152V74.3141C198.5 76.5134 200 78.9126 201.9 79.7124L202.4 79.9123C202.9 80.1122 203.3 79.8123 203.3 79.3125V75.7136C203.2 73.5143 201.7 71.115 199.9 70.3153Z" fill="white"/>
<path d="M207.601 70.1154L207.101 70.3153C205.301 71.115 203.801 73.5143 203.801 75.7136V79.3125C203.801 79.9123 204.201 80.2122 204.701 79.9123L205.201 79.7124C207.001 78.9126 208.501 76.5134 208.501 74.3141V70.7152C208.501 70.2153 208.101 69.9154 207.601 70.1154Z" fill="white"/>
<path d="M199.9 80.3124L199.4 80.1124C198.9 79.9125 198.5 80.2124 198.5 80.7122V84.3111C198.5 86.5104 200 88.9097 201.9 89.7094L202.4 89.9094C202.9 90.1093 203.3 89.8094 203.3 89.3096V85.7107C203.2 83.5114 201.7 81.1121 199.9 80.3124Z" fill="white"/>
<path d="M207.601 80.1124L207.101 80.3124C205.301 81.1121 203.801 83.5114 203.801 85.7107V89.3096C203.801 89.9094 204.201 90.2093 204.701 89.9094L205.201 89.7094C207.001 88.9097 208.501 86.5104 208.501 84.3111V80.7122C208.501 80.2124 208.101 79.9125 207.601 80.1124Z" fill="white"/>
<path d="M199.9 90.3092L199.4 90.1093C198.9 89.9093 198.5 90.2092 198.5 90.7091V94.308C198.5 96.5073 200 98.9065 201.9 99.7063L202.4 99.9062C202.9 100.106 203.3 99.8062 203.3 99.3064V95.7075C203.2 93.5082 201.7 91.1089 199.9 90.3092Z" fill="white"/>
<path d="M207.601 90.1093L207.101 90.3092C205.301 91.1089 203.801 93.5082 203.801 95.7075V99.3064C203.801 99.9062 204.201 100.206 204.701 99.9062L205.201 99.7063C207.001 98.9065 208.501 96.5073 208.501 94.308V90.7091C208.501 90.2092 208.101 89.9093 207.601 90.1093Z" fill="white"/>
<path d="M199.9 100.306L199.4 100.106C198.9 99.9061 198.5 100.206 198.5 100.706V104.305C198.5 106.504 200 108.903 201.9 109.703L202.4 109.903C202.9 110.103 203.3 109.803 203.3 109.303V105.704C203.2 103.505 201.7 101.106 199.9 100.306Z" fill="white"/>
<path d="M207.601 100.106L207.101 100.306C205.301 101.106 203.801 103.505 203.801 105.704V109.303C203.801 109.903 204.201 110.203 204.701 109.903L205.201 109.703C207.001 108.903 208.501 106.504 208.501 104.305V100.706C208.501 100.206 208.101 99.9061 207.601 100.106Z" fill="white"/>
<path d="M199.9 110.303L199.4 110.103C198.9 109.903 198.5 110.203 198.5 110.703V114.302C198.5 116.501 200 118.9 201.9 119.7L202.4 119.9C202.9 120.1 203.3 119.8 203.3 119.3V115.701C203.2 113.502 201.7 111.103 199.9 110.303Z" fill="white"/>
<path d="M207.601 110.103L207.101 110.303C205.301 111.103 203.801 113.502 203.801 115.701V119.3C203.801 119.9 204.201 120.2 204.701 119.9L205.201 119.7C207.001 118.9 208.501 116.501 208.501 114.302V110.703C208.501 110.203 208.101 109.903 207.601 110.103Z" fill="white"/>
<path d="M199.9 120.3L199.4 120.1C198.9 119.9 198.5 120.2 198.5 120.7V124.299C198.5 126.498 200 128.897 201.9 129.697L202.4 129.897C202.9 130.097 203.3 129.797 203.3 129.297V125.698C203.2 123.499 201.7 121.1 199.9 120.3Z" fill="white"/>
<path d="M207.601 120.1L207.101 120.3C205.301 121.1 203.801 123.499 203.801 125.698V129.297C203.801 129.897 204.201 130.197 204.701 129.897L205.201 129.697C207.001 128.897 208.501 126.498 208.501 124.299V120.7C208.501 120.2 208.101 119.9 207.601 120.1Z" fill="white"/>
<path d="M199.9 130.297L199.4 130.097C198.9 129.897 198.5 130.197 198.5 130.697V134.295C198.5 136.495 200 138.894 201.9 139.694L202.4 139.894C202.9 140.094 203.3 139.794 203.3 139.294V135.695C203.2 133.496 201.7 131.096 199.9 130.297Z" fill="white"/>
<path d="M207.601 130.097L207.101 130.297C205.301 131.096 203.801 133.496 203.801 135.695V139.294C203.801 139.894 204.201 140.194 204.701 139.894L205.201 139.694C207.001 138.894 208.501 136.495 208.501 134.295V130.697C208.501 130.197 208.101 129.897 207.601 130.097Z" fill="white"/>
<path d="M199.9 140.294L199.4 140.094C198.9 139.894 198.5 140.194 198.5 140.694V144.293C198.5 146.492 200 148.891 201.9 149.691L202.4 149.891C202.9 150.091 203.3 149.791 203.3 149.291V145.692C203.2 143.493 201.7 141.094 199.9 140.294Z" fill="white"/>
<path d="M207.601 140.094L207.101 140.294C205.301 141.094 203.801 143.493 203.801 145.692V149.291C203.801 149.891 204.201 150.191 204.701 149.891L205.201 149.691C207.001 148.891 208.501 146.492 208.501 144.293V140.694C208.501 140.194 208.101 139.894 207.601 140.094Z" fill="white"/>
<path d="M188.9 70.3153L188.4 70.1154C187.9 69.9154 187.5 70.2153 187.5 70.7152V74.3141C187.5 76.5134 189 78.9126 190.9 79.7124L191.4 79.9123C191.9 80.1122 192.3 79.8123 192.3 79.3125V75.7136C192.2 73.5143 190.7 71.115 188.9 70.3153Z" fill="white"/>
<path d="M196.601 70.1154L196.101 70.3153C194.301 71.115 192.801 73.5143 192.801 75.7136V79.3125C192.801 79.9123 193.201 80.2122 193.701 79.9123L194.201 79.7124C196.001 78.9126 197.501 76.5134 197.501 74.3141V70.7152C197.501 70.2153 197.101 69.9154 196.601 70.1154Z" fill="white"/>
<path d="M188.9 80.3124L188.4 80.1124C187.9 79.9125 187.5 80.2124 187.5 80.7122V84.3111C187.5 86.5104 189 88.9097 190.9 89.7094L191.4 89.9094C191.9 90.1093 192.3 89.8094 192.3 89.3096V85.7107C192.2 83.5114 190.7 81.1121 188.9 80.3124Z" fill="white"/>
<path d="M196.601 80.1124L196.101 80.3124C194.301 81.1121 192.801 83.5114 192.801 85.7107V89.3096C192.801 89.9094 193.201 90.2093 193.701 89.9094L194.201 89.7094C196.001 88.9097 197.501 86.5104 197.501 84.3111V80.7122C197.501 80.2124 197.101 79.9125 196.601 80.1124Z" fill="white"/>
<path d="M188.9 90.3092L188.4 90.1093C187.9 89.9093 187.5 90.2092 187.5 90.7091V94.308C187.5 96.5073 189 98.9065 190.9 99.7063L191.4 99.9062C191.9 100.106 192.3 99.8062 192.3 99.3064V95.7075C192.2 93.5082 190.7 91.1089 188.9 90.3092Z" fill="white"/>
<path d="M196.601 90.1093L196.101 90.3092C194.301 91.1089 192.801 93.5082 192.801 95.7075V99.3064C192.801 99.9062 193.201 100.206 193.701 99.9062L194.201 99.7063C196.001 98.9065 197.501 96.5073 197.501 94.308V90.7091C197.501 90.2092 197.101 89.9093 196.601 90.1093Z" fill="white"/>
<path d="M188.9 100.306L188.4 100.106C187.9 99.9061 187.5 100.206 187.5 100.706V104.305C187.5 106.504 189 108.903 190.9 109.703L191.4 109.903C191.9 110.103 192.3 109.803 192.3 109.303V105.704C192.2 103.505 190.7 101.106 188.9 100.306Z" fill="white"/>
<path d="M196.601 100.106L196.101 100.306C194.301 101.106 192.801 103.505 192.801 105.704V109.303C192.801 109.903 193.201 110.203 193.701 109.903L194.201 109.703C196.001 108.903 197.501 106.504 197.501 104.305V100.706C197.501 100.206 197.101 99.9061 196.601 100.106Z" fill="white"/>
<path d="M188.9 110.303L188.4 110.103C187.9 109.903 187.5 110.203 187.5 110.703V114.302C187.5 116.501 189 118.9 190.9 119.7L191.4 119.9C191.9 120.1 192.3 119.8 192.3 119.3V115.701C192.2 113.502 190.7 111.103 188.9 110.303Z" fill="white"/>
<path d="M196.601 110.103L196.101 110.303C194.301 111.103 192.801 113.502 192.801 115.701V119.3C192.801 119.9 193.201 120.2 193.701 119.9L194.201 119.7C196.001 118.9 197.501 116.501 197.501 114.302V110.703C197.501 110.203 197.101 109.903 196.601 110.103Z" fill="white"/>
<path d="M188.9 120.3L188.4 120.1C187.9 119.9 187.5 120.2 187.5 120.7V124.299C187.5 126.498 189 128.897 190.9 129.697L191.4 129.897C191.9 130.097 192.3 129.797 192.3 129.297V125.698C192.2 123.499 190.7 121.1 188.9 120.3Z" fill="white"/>
<path d="M196.601 120.1L196.101 120.3C194.301 121.1 192.801 123.499 192.801 125.698V129.297C192.801 129.897 193.201 130.197 193.701 129.897L194.201 129.697C196.001 128.897 197.501 126.498 197.501 124.299V120.7C197.501 120.2 197.101 119.9 196.601 120.1Z" fill="white"/>
<path d="M188.9 130.297L188.4 130.097C187.9 129.897 187.5 130.197 187.5 130.697V134.295C187.5 136.495 189 138.894 190.9 139.694L191.4 139.894C191.9 140.094 192.3 139.794 192.3 139.294V135.695C192.2 133.496 190.7 131.096 188.9 130.297Z" fill="white"/>
<path d="M196.601 130.097L196.101 130.297C194.301 131.096 192.801 133.496 192.801 135.695V139.294C192.801 139.894 193.201 140.194 193.701 139.894L194.201 139.694C196.001 138.894 197.501 136.495 197.501 134.295V130.697C197.501 130.197 197.101 129.897 196.601 130.097Z" fill="white"/>
<path d="M177.9 70.3153L177.4 70.1154C176.9 69.9154 176.5 70.2153 176.5 70.7152V74.3141C176.5 76.5134 178 78.9126 179.9 79.7124L180.4 79.9123C180.9 80.1122 181.3 79.8123 181.3 79.3125V75.7136C181.2 73.5143 179.7 71.115 177.9 70.3153Z" fill="white"/>
<path d="M185.601 70.1154L185.101 70.3153C183.301 71.115 181.801 73.5143 181.801 75.7136V79.3125C181.801 79.9123 182.201 80.2122 182.701 79.9123L183.201 79.7124C185.001 78.9126 186.501 76.5134 186.501 74.3141V70.7152C186.501 70.2153 186.101 69.9154 185.601 70.1154Z" fill="white"/>
<path d="M177.9 80.3124L177.4 80.1124C176.9 79.9125 176.5 80.2124 176.5 80.7122V84.3111C176.5 86.5104 178 88.9097 179.9 89.7094L180.4 89.9094C180.9 90.1093 181.3 89.8094 181.3 89.3096V85.7107C181.2 83.5114 179.7 81.1121 177.9 80.3124Z" fill="white"/>
<path d="M185.601 80.1124L185.101 80.3124C183.301 81.1121 181.801 83.5114 181.801 85.7107V89.3096C181.801 89.9094 182.201 90.2093 182.701 89.9094L183.201 89.7094C185.001 88.9097 186.501 86.5104 186.501 84.3111V80.7122C186.501 80.2124 186.101 79.9125 185.601 80.1124Z" fill="white"/>
<path d="M177.9 90.3092L177.4 90.1093C176.9 89.9093 176.5 90.2092 176.5 90.7091V94.308C176.5 96.5073 178 98.9065 179.9 99.7063L180.4 99.9062C180.9 100.106 181.3 99.8062 181.3 99.3064V95.7075C181.2 93.5082 179.7 91.1089 177.9 90.3092Z" fill="white"/>
<path d="M185.601 90.1093L185.101 90.3092C183.301 91.1089 181.801 93.5082 181.801 95.7075V99.3064C181.801 99.9062 182.201 100.206 182.701 99.9062L183.201 99.7063C185.001 98.9065 186.501 96.5073 186.501 94.308V90.7091C186.501 90.2092 186.101 89.9093 185.601 90.1093Z" fill="white"/>
<path d="M177.9 100.306L177.4 100.106C176.9 99.9061 176.5 100.206 176.5 100.706V104.305C176.5 106.504 178 108.903 179.9 109.703L180.4 109.903C180.9 110.103 181.3 109.803 181.3 109.303V105.704C181.2 103.505 179.7 101.106 177.9 100.306Z" fill="white"/>
<path d="M185.601 100.106L185.101 100.306C183.301 101.106 181.801 103.505 181.801 105.704V109.303C181.801 109.903 182.201 110.203 182.701 109.903L183.201 109.703C185.001 108.903 186.501 106.504 186.501 104.305V100.706C186.501 100.206 186.101 99.9061 185.601 100.106Z" fill="white"/>
<path d="M177.9 110.303L177.4 110.103C176.9 109.903 176.5 110.203 176.5 110.703V114.302C176.5 116.501 178 118.9 179.9 119.7L180.4 119.9C180.9 120.1 181.3 119.8 181.3 119.3V115.701C181.2 113.502 179.7 111.103 177.9 110.303Z" fill="white"/>
<path d="M185.601 110.103L185.101 110.303C183.301 111.103 181.801 113.502 181.801 115.701V119.3C181.801 119.9 182.201 120.2 182.701 119.9L183.201 119.7C185.001 118.9 186.501 116.501 186.501 114.302V110.703C186.501 110.203 186.101 109.903 185.601 110.103Z" fill="white"/>
<path d="M177.9 120.3L177.4 120.1C176.9 119.9 176.5 120.2 176.5 120.7V124.299C176.5 126.498 178 128.897 179.9 129.697L180.4 129.897C180.9 130.097 181.3 129.797 181.3 129.297V125.698C181.2 123.499 179.7 121.1 177.9 120.3Z" fill="white"/>
<path d="M185.601 120.1L185.101 120.3C183.301 121.1 181.801 123.499 181.801 125.698V129.297C181.801 129.897 182.201 130.197 182.701 129.897L183.201 129.697C185.001 128.897 186.501 126.498 186.501 124.299V120.7C186.501 120.2 186.101 119.9 185.601 120.1Z" fill="white"/>
<path d="M166.9 80.3124L166.4 80.1124C165.9 79.9125 165.5 80.2124 165.5 80.7122V84.3111C165.5 86.5104 167 88.9097 168.9 89.7094L169.4 89.9094C169.9 90.1093 170.3 89.8094 170.3 89.3096V85.7107C170.2 83.5114 168.7 81.1121 166.9 80.3124Z" fill="white"/>
<path d="M174.601 80.1124L174.101 80.3124C172.301 81.1121 170.801 83.5114 170.801 85.7107V89.3096C170.801 89.9094 171.201 90.2093 171.701 89.9094L172.201 89.7094C174.001 88.9097 175.501 86.5104 175.501 84.3111V80.7122C175.501 80.2124 175.101 79.9125 174.601 80.1124Z" fill="white"/>
<path d="M166.9 90.3092L166.4 90.1093C165.9 89.9093 165.5 90.2092 165.5 90.7091V94.308C165.5 96.5073 167 98.9065 168.9 99.7063L169.4 99.9062C169.9 100.106 170.3 99.8062 170.3 99.3064V95.7075C170.2 93.5082 168.7 91.1089 166.9 90.3092Z" fill="white"/>
<path d="M174.601 90.1093L174.101 90.3092C172.301 91.1089 170.801 93.5082 170.801 95.7075V99.3064C170.801 99.9062 171.201 100.206 171.701 99.9062L172.201 99.7063C174.001 98.9065 175.501 96.5073 175.501 94.308V90.7091C175.501 90.2092 175.101 89.9093 174.601 90.1093Z" fill="white"/>
<path d="M166.9 100.306L166.4 100.106C165.9 99.9061 165.5 100.206 165.5 100.706V104.305C165.5 106.504 167 108.903 168.9 109.703L169.4 109.903C169.9 110.103 170.3 109.803 170.3 109.303V105.704C170.2 103.505 168.7 101.106 166.9 100.306Z" fill="white"/>
<path d="M174.601 100.106L174.101 100.306C172.301 101.106 170.801 103.505 170.801 105.704V109.303C170.801 109.903 171.201 110.203 171.701 109.903L172.201 109.703C174.001 108.903 175.501 106.504 175.501 104.305V100.706C175.501 100.206 175.101 99.9061 174.601 100.106Z" fill="white"/>
<path d="M166.9 110.303L166.4 110.103C165.9 109.903 165.5 110.203 165.5 110.703V114.302C165.5 116.501 167 118.9 168.9 119.7L169.4 119.9C169.9 120.1 170.3 119.8 170.3 119.3V115.701C170.2 113.502 168.7 111.103 166.9 110.303Z" fill="white"/>
<path d="M174.601 110.103L174.101 110.303C172.301 111.103 170.801 113.502 170.801 115.701V119.3C170.801 119.9 171.201 120.2 171.701 119.9L172.201 119.7C174.001 118.9 175.501 116.501 175.501 114.302V110.703C175.501 110.203 175.101 109.903 174.601 110.103Z" fill="white"/>
</svg>
