<svg width="451" height="240" viewBox="0 0 451 240" fill="none" xmlns="http://www.w3.org/2000/svg">
<path d="M298.9 70.3153L298.4 70.1154C297.9 69.9154 297.5 70.2153 297.5 70.7152V74.3141C297.5 76.5134 299 78.9126 300.9 79.7124L301.4 79.9123C301.9 80.1122 302.3 79.8123 302.3 79.3125V75.7136C302.2 73.5143 300.7 71.115 298.9 70.3153Z" fill="white"/>
<path d="M306.6 70.1154L306.1 70.3153C304.3 71.115 302.8 73.5143 302.8 75.7136V79.3125C302.8 79.9123 303.2 80.2122 303.7 79.9123L304.2 79.7124C306 78.9126 307.5 76.5134 307.5 74.3141V70.7152C307.5 70.2153 307.1 69.9154 306.6 70.1154Z" fill="white"/>
<path d="M298.9 80.3124L298.4 80.1124C297.9 79.9125 297.5 80.2124 297.5 80.7122V84.3111C297.5 86.5104 299 88.9097 300.9 89.7094L301.4 89.9094C301.9 90.1093 302.3 89.8094 302.3 89.3096V85.7107C302.2 83.5114 300.7 81.1121 298.9 80.3124Z" fill="white"/>
<path d="M306.6 80.1124L306.1 80.3124C304.3 81.1121 302.8 83.5114 302.8 85.7107V89.3096C302.8 89.9094 303.2 90.2093 303.7 89.9094L304.2 89.7094C306 88.9097 307.5 86.5104 307.5 84.3111V80.7122C307.5 80.2124 307.1 79.9125 306.6 80.1124Z" fill="white"/>
<path d="M298.9 90.3092L298.4 90.1093C297.9 89.9093 297.5 90.2092 297.5 90.7091V94.308C297.5 96.5073 299 98.9065 300.9 99.7063L301.4 99.9062C301.9 100.106 302.3 99.8062 302.3 99.3064V95.7075C302.2 93.5082 300.7 91.1089 298.9 90.3092Z" fill="white"/>
<path d="M306.6 90.1093L306.1 90.3092C304.3 91.1089 302.8 93.5082 302.8 95.7075V99.3064C302.8 99.9062 303.2 100.206 303.7 99.9062L304.2 99.7063C306 98.9065 307.5 96.5073 307.5 94.308V90.7091C307.5 90.2092 307.1 89.9093 306.6 90.1093Z" fill="white"/>
<path d="M298.9 100.306L298.4 100.106C297.9 99.9061 297.5 100.206 297.5 100.706V104.305C297.5 106.504 299 108.903 300.9 109.703L301.4 109.903C301.9 110.103 302.3 109.803 302.3 109.303V105.704C302.2 103.505 300.7 101.106 298.9 100.306Z" fill="white"/>
<path d="M306.6 100.106L306.1 100.306C304.3 101.106 302.8 103.505 302.8 105.704V109.303C302.8 109.903 303.2 110.203 303.7 109.903L304.2 109.703C306 108.903 307.5 106.504 307.5 104.305V100.706C307.5 100.206 307.1 99.9061 306.6 100.106Z" fill="white"/>
<path d="M298.9 110.303L298.4 110.103C297.9 109.903 297.5 110.203 297.5 110.703V114.302C297.5 116.501 299 118.9 300.9 119.7L301.4 119.9C301.9 120.1 302.3 119.8 302.3 119.3V115.701C302.2 113.502 300.7 111.103 298.9 110.303Z" fill="white"/>
<path d="M306.6 110.103L306.1 110.303C304.3 111.103 302.8 113.502 302.8 115.701V119.3C302.8 119.9 303.2 120.2 303.7 119.9L304.2 119.7C306 118.9 307.5 116.501 307.5 114.302V110.703C307.5 110.203 307.1 109.903 306.6 110.103Z" fill="white"/>
<path d="M155.9 120.3L155.4 120.1C154.9 119.9 154.5 120.2 154.5 120.7V124.299C154.5 126.498 156 128.897 157.9 129.697L158.4 129.897C158.9 130.097 159.3 129.797 159.3 129.297V125.698C159.2 123.499 157.7 121.1 155.9 120.3Z" fill="white"/>
<path d="M163.6 120.1L163.1 120.3C161.3 121.1 159.8 123.499 159.8 125.698V129.297C159.8 129.897 160.2 130.197 160.7 129.897L161.2 129.697C163 128.897 164.5 126.498 164.5 124.299V120.7C164.5 120.2 164.1 119.9 163.6 120.1Z" fill="white"/>
<path d="M144.9 70.3153L144.4 70.1154C143.9 69.9154 143.5 70.2153 143.5 70.7152V74.3141C143.5 76.5134 145 78.9126 146.9 79.7124L147.4 79.9123C147.9 80.1122 148.3 79.8123 148.3 79.3125V75.7136C148.2 73.5143 146.7 71.115 144.9 70.3153Z" fill="white"/>
<path d="M152.6 70.1154L152.1 70.3153C150.3 71.115 148.8 73.5143 148.8 75.7136V79.3125C148.8 79.9123 149.2 80.2122 149.7 79.9123L150.2 79.7124C152 78.9126 153.5 76.5134 153.5 74.3141V70.7152C153.5 70.2153 153.1 69.9154 152.6 70.1154Z" fill="white"/>
<path d="M144.9 80.3124L144.4 80.1124C143.9 79.9125 143.5 80.2124 143.5 80.7122V84.3111C143.5 86.5104 145 88.9097 146.9 89.7094L147.4 89.9094C147.9 90.1093 148.3 89.8094 148.3 89.3096V85.7107C148.2 83.5114 146.7 81.1121 144.9 80.3124Z" fill="white"/>
<path d="M152.6 80.1124L152.1 80.3124C150.3 81.1121 148.8 83.5114 148.8 85.7107V89.3096C148.8 89.9094 149.2 90.2093 149.7 89.9094L150.2 89.7094C152 88.9097 153.5 86.5104 153.5 84.3111V80.7122C153.5 80.2124 153.1 79.9125 152.6 80.1124Z" fill="white"/>
<path d="M144.9 90.3092L144.4 90.1093C143.9 89.9093 143.5 90.2092 143.5 90.7091V94.308C143.5 96.5073 145 98.9065 146.9 99.7063L147.4 99.9062C147.9 100.106 148.3 99.8062 148.3 99.3064V95.7075C148.2 93.5082 146.7 91.1089 144.9 90.3092Z" fill="white"/>
<path d="M152.6 90.1093L152.1 90.3092C150.3 91.1089 148.8 93.5082 148.8 95.7075V99.3064C148.8 99.9062 149.2 100.206 149.7 99.9062L150.2 99.7063C152 98.9065 153.5 96.5073 153.5 94.308V90.7091C153.5 90.2092 153.1 89.9093 152.6 90.1093Z" fill="white"/>
<path d="M144.9 100.306L144.4 100.106C143.9 99.9061 143.5 100.206 143.5 100.706V104.305C143.5 106.504 145 108.903 146.9 109.703L147.4 109.903C147.9 110.103 148.3 109.803 148.3 109.303V105.704C148.2 103.505 146.7 101.106 144.9 100.306Z" fill="white"/>
<path d="M152.6 100.106L152.1 100.306C150.3 101.106 148.8 103.505 148.8 105.704V109.303C148.8 109.903 149.2 110.203 149.7 109.903L150.2 109.703C152 108.903 153.5 106.504 153.5 104.305V100.706C153.5 100.206 153.1 99.9061 152.6 100.106Z" fill="white"/>
<path d="M144.9 110.303L144.4 110.103C143.9 109.903 143.5 110.203 143.5 110.703V114.302C143.5 116.501 145 118.9 146.9 119.7L147.4 119.9C147.9 120.1 148.3 119.8 148.3 119.3V115.701C148.2 113.502 146.7 111.103 144.9 110.303Z" fill="white"/>
<path d="M152.6 110.103L152.1 110.303C150.3 111.103 148.8 113.502 148.8 115.701V119.3C148.8 119.9 149.2 120.2 149.7 119.9L150.2 119.7C152 118.9 153.5 116.501 153.5 114.302V110.703C153.5 110.203 153.1 109.903 152.6 110.103Z" fill="white"/>
<path d="M287.9 60.3187L287.4 60.1188C286.9 59.9188 286.5 60.2187 286.5 60.7186V64.3175C286.5 66.5168 288 68.916 289.9 69.7158L290.4 69.9157C290.9 70.1157 291.3 69.8158 291.3 69.3159V65.717C291.2 63.5177 289.7 61.1185 287.9 60.3187Z" fill="white"/>
<path d="M295.6 60.1188L295.1 60.3187C293.3 61.1185 291.8 63.5177 291.8 65.717V69.3159C291.8 69.9157 292.2 70.2156 292.7 69.9157L293.2 69.7158C295 68.916 296.5 66.5168 296.5 64.3175V60.7186C296.5 60.2187 296.1 59.9188 295.6 60.1188Z" fill="white"/>
<path d="M287.9 70.3153L287.4 70.1154C286.9 69.9154 286.5 70.2153 286.5 70.7152V74.3141C286.5 76.5134 288 78.9126 289.9 79.7124L290.4 79.9123C290.9 80.1122 291.3 79.8123 291.3 79.3125V75.7136C291.2 73.5143 289.7 71.115 287.9 70.3153Z" fill="white"/>
<path d="M295.6 70.1154L295.1 70.3153C293.3 71.115 291.8 73.5143 291.8 75.7136V79.3125C291.8 79.9123 292.2 80.2122 292.7 79.9123L293.2 79.7124C295 78.9126 296.5 76.5134 296.5 74.3141V70.7152C296.5 70.2153 296.1 69.9154 295.6 70.1154Z" fill="white"/>
<path d="M287.9 80.3124L287.4 80.1124C286.9 79.9125 286.5 80.2124 286.5 80.7122V84.3111C286.5 86.5104 288 88.9097 289.9 89.7094L290.4 89.9094C290.9 90.1093 291.3 89.8094 291.3 89.3096V85.7107C291.2 83.5114 289.7 81.1121 287.9 80.3124Z" fill="white"/>
<path d="M295.6 80.1124L295.1 80.3124C293.3 81.1121 291.8 83.5114 291.8 85.7107V89.3096C291.8 89.9094 292.2 90.2093 292.7 89.9094L293.2 89.7094C295 88.9097 296.5 86.5104 296.5 84.3111V80.7122C296.5 80.2124 296.1 79.9125 295.6 80.1124Z" fill="white"/>
<path d="M287.9 90.3092L287.4 90.1093C286.9 89.9093 286.5 90.2092 286.5 90.7091V94.308C286.5 96.5073 288 98.9065 289.9 99.7063L290.4 99.9062C290.9 100.106 291.3 99.8062 291.3 99.3064V95.7075C291.2 93.5082 289.7 91.1089 287.9 90.3092Z" fill="white"/>
<path d="M295.6 90.1093L295.1 90.3092C293.3 91.1089 291.8 93.5082 291.8 95.7075V99.3064C291.8 99.9062 292.2 100.206 292.7 99.9062L293.2 99.7063C295 98.9065 296.5 96.5073 296.5 94.308V90.7091C296.5 90.2092 296.1 89.9093 295.6 90.1093Z" fill="white"/>
<path d="M287.9 100.306L287.4 100.106C286.9 99.9061 286.5 100.206 286.5 100.706V104.305C286.5 106.504 288 108.903 289.9 109.703L290.4 109.903C290.9 110.103 291.3 109.803 291.3 109.303V105.704C291.2 103.505 289.7 101.106 287.9 100.306Z" fill="white"/>
<path d="M295.6 100.106L295.1 100.306C293.3 101.106 291.8 103.505 291.8 105.704V109.303C291.8 109.903 292.2 110.203 292.7 109.903L293.2 109.703C295 108.903 296.5 106.504 296.5 104.305V100.706C296.5 100.206 296.1 99.9061 295.6 100.106Z" fill="white"/>
<path d="M287.9 110.303L287.4 110.103C286.9 109.903 286.5 110.203 286.5 110.703V114.302C286.5 116.501 288 118.9 289.9 119.7L290.4 119.9C290.9 120.1 291.3 119.8 291.3 119.3V115.701C291.2 113.502 289.7 111.103 287.9 110.303Z" fill="white"/>
<path d="M295.6 110.103L295.1 110.303C293.3 111.103 291.8 113.502 291.8 115.701V119.3C291.8 119.9 292.2 120.2 292.7 119.9L293.2 119.7C295 118.9 296.5 116.501 296.5 114.302V110.703C296.5 110.203 296.1 109.903 295.6 110.103Z" fill="white"/>
<path d="M287.9 120.3L287.4 120.1C286.9 119.9 286.5 120.2 286.5 120.7V124.299C286.5 126.498 288 128.897 289.9 129.697L290.4 129.897C290.9 130.097 291.3 129.797 291.3 129.297V125.698C291.2 123.499 289.7 121.1 287.9 120.3Z" fill="white"/>
<path d="M295.6 120.1L295.1 120.3C293.3 121.1 291.8 123.499 291.8 125.698V129.297C291.8 129.897 292.2 130.197 292.7 129.897L293.2 129.697C295 128.897 296.5 126.498 296.5 124.299V120.7C296.5 120.2 296.1 119.9 295.6 120.1Z" fill="white"/>
<path d="M276.9 50.3216L276.4 50.1217C275.9 49.9218 275.5 50.2217 275.5 50.7215V54.3204C275.5 56.5197 277 58.919 278.9 59.7187L279.4 59.9187C279.9 60.1186 280.3 59.8187 280.3 59.3188V55.72C280.2 53.5207 278.7 51.1214 276.9 50.3216Z" fill="white"/>
<path d="M284.6 50.1217L284.1 50.3216C282.3 51.1214 280.8 53.5207 280.8 55.72V59.3188C280.8 59.9187 281.2 60.2186 281.7 59.9187L282.2 59.7187C284 58.919 285.5 56.5197 285.5 54.3204V50.7215C285.5 50.2217 285.1 49.9218 284.6 50.1217Z" fill="white"/>
<path d="M276.9 60.3187L276.4 60.1188C275.9 59.9188 275.5 60.2187 275.5 60.7186V64.3175C275.5 66.5168 277 68.916 278.9 69.7158L279.4 69.9157C279.9 70.1157 280.3 69.8158 280.3 69.3159V65.717C280.2 63.5177 278.7 61.1185 276.9 60.3187Z" fill="white"/>
<path d="M284.6 60.1188L284.1 60.3187C282.3 61.1185 280.8 63.5177 280.8 65.717V69.3159C280.8 69.9157 281.2 70.2156 281.7 69.9157L282.2 69.7158C284 68.916 285.5 66.5168 285.5 64.3175V60.7186C285.5 60.2187 285.1 59.9188 284.6 60.1188Z" fill="white"/>
<path d="M276.9 70.3153L276.4 70.1154C275.9 69.9154 275.5 70.2153 275.5 70.7152V74.3141C275.5 76.5134 277 78.9126 278.9 79.7124L279.4 79.9123C279.9 80.1122 280.3 79.8123 280.3 79.3125V75.7136C280.2 73.5143 278.7 71.115 276.9 70.3153Z" fill="white"/>
<path d="M284.6 70.1154L284.1 70.3153C282.3 71.115 280.8 73.5143 280.8 75.7136V79.3125C280.8 79.9123 281.2 80.2122 281.7 79.9123L282.2 79.7124C284 78.9126 285.5 76.5134 285.5 74.3141V70.7152C285.5 70.2153 285.1 69.9154 284.6 70.1154Z" fill="white"/>
<path d="M276.9 80.3124L276.4 80.1124C275.9 79.9125 275.5 80.2124 275.5 80.7122V84.3111C275.5 86.5104 277 88.9097 278.9 89.7094L279.4 89.9094C279.9 90.1093 280.3 89.8094 280.3 89.3096V85.7107C280.2 83.5114 278.7 81.1121 276.9 80.3124Z" fill="white"/>
<path d="M284.6 80.1124L284.1 80.3124C282.3 81.1121 280.8 83.5114 280.8 85.7107V89.3096C280.8 89.9094 281.2 90.2093 281.7 89.9094L282.2 89.7094C284 88.9097 285.5 86.5104 285.5 84.3111V80.7122C285.5 80.2124 285.1 79.9125 284.6 80.1124Z" fill="white"/>
<path d="M276.9 90.3092L276.4 90.1093C275.9 89.9093 275.5 90.2092 275.5 90.7091V94.308C275.5 96.5073 277 98.9065 278.9 99.7063L279.4 99.9062C279.9 100.106 280.3 99.8062 280.3 99.3064V95.7075C280.2 93.5082 278.7 91.1089 276.9 90.3092Z" fill="white"/>
<path d="M284.6 90.1093L284.1 90.3092C282.3 91.1089 280.8 93.5082 280.8 95.7075V99.3064C280.8 99.9062 281.2 100.206 281.7 99.9062L282.2 99.7063C284 98.9065 285.5 96.5073 285.5 94.308V90.7091C285.5 90.2092 285.1 89.9093 284.6 90.1093Z" fill="white"/>
<path d="M276.9 100.306L276.4 100.106C275.9 99.9061 275.5 100.206 275.5 100.706V104.305C275.5 106.504 277 108.903 278.9 109.703L279.4 109.903C279.9 110.103 280.3 109.803 280.3 109.303V105.704C280.2 103.505 278.7 101.106 276.9 100.306Z" fill="white"/>
<path d="M284.6 100.106L284.1 100.306C282.3 101.106 280.8 103.505 280.8 105.704V109.303C280.8 109.903 281.2 110.203 281.7 109.903L282.2 109.703C284 108.903 285.5 106.504 285.5 104.305V100.706C285.5 100.206 285.1 99.9061 284.6 100.106Z" fill="white"/>
<path d="M276.9 110.303L276.4 110.103C275.9 109.903 275.5 110.203 275.5 110.703V114.302C275.5 116.501 277 118.9 278.9 119.7L279.4 119.9C279.9 120.1 280.3 119.8 280.3 119.3V115.701C280.2 113.502 278.7 111.103 276.9 110.303Z" fill="white"/>
<path d="M284.6 110.103L284.1 110.303C282.3 111.103 280.8 113.502 280.8 115.701V119.3C280.8 119.9 281.2 120.2 281.7 119.9L282.2 119.7C284 118.9 285.5 116.501 285.5 114.302V110.703C285.5 110.203 285.1 109.903 284.6 110.103Z" fill="white"/>
<path d="M276.9 120.3L276.4 120.1C275.9 119.9 275.5 120.2 275.5 120.7V124.299C275.5 126.498 277 128.897 278.9 129.697L279.4 129.897C279.9 130.097 280.3 129.797 280.3 129.297V125.698C280.2 123.499 278.7 121.1 276.9 120.3Z" fill="white"/>
<path d="M284.6 120.1L284.1 120.3C282.3 121.1 280.8 123.499 280.8 125.698V129.297C280.8 129.897 281.2 130.197 281.7 129.897L282.2 129.697C284 128.897 285.5 126.498 285.5 124.299V120.7C285.5 120.2 285.1 119.9 284.6 120.1Z" fill="white"/>
<path d="M276.9 130.297L276.4 130.097C275.9 129.897 275.5 130.197 275.5 130.697V134.295C275.5 136.495 277 138.894 278.9 139.694L279.4 139.894C279.9 140.094 280.3 139.794 280.3 139.294V135.695C280.2 133.496 278.7 131.096 276.9 130.297Z" fill="white"/>
<path d="M284.6 130.097L284.1 130.297C282.3 131.096 280.8 133.496 280.8 135.695V139.294C280.8 139.894 281.2 140.194 281.7 139.894L282.2 139.694C284 138.894 285.5 136.495 285.5 134.295V130.697C285.5 130.197 285.1 129.897 284.6 130.097Z" fill="white"/>
<path d="M265.9 50.3216L265.4 50.1217C264.9 49.9218 264.5 50.2217 264.5 50.7215V54.3204C264.5 56.5197 266 58.919 267.9 59.7187L268.4 59.9187C268.9 60.1186 269.3 59.8187 269.3 59.3188V55.72C269.2 53.5207 267.7 51.1214 265.9 50.3216Z" fill="white"/>
<path d="M273.6 50.1217L273.1 50.3216C271.3 51.1214 269.8 53.5207 269.8 55.72V59.3188C269.8 59.9187 270.2 60.2186 270.7 59.9187L271.2 59.7187C273 58.919 274.5 56.5197 274.5 54.3204V50.7215C274.5 50.2217 274.1 49.9218 273.6 50.1217Z" fill="white"/>
<path d="M265.9 60.3187L265.4 60.1188C264.9 59.9188 264.5 60.2187 264.5 60.7186V64.3175C264.5 66.5168 266 68.916 267.9 69.7158L268.4 69.9157C268.9 70.1157 269.3 69.8158 269.3 69.3159V65.717C269.2 63.5177 267.7 61.1185 265.9 60.3187Z" fill="white"/>
<path d="M273.6 60.1188L273.1 60.3187C271.3 61.1185 269.8 63.5177 269.8 65.717V69.3159C269.8 69.9157 270.2 70.2156 270.7 69.9157L271.2 69.7158C273 68.916 274.5 66.5168 274.5 64.3175V60.7186C274.5 60.2187 274.1 59.9188 273.6 60.1188Z" fill="white"/>
<path d="M265.9 70.3153L265.4 70.1154C264.9 69.9154 264.5 70.2153 264.5 70.7152V74.3141C264.5 76.5134 266 78.9126 267.9 79.7124L268.4 79.9123C268.9 80.1122 269.3 79.8123 269.3 79.3125V75.7136C269.2 73.5143 267.7 71.115 265.9 70.3153Z" fill="white"/>
<path d="M273.6 70.1154L273.1 70.3153C271.3 71.115 269.8 73.5143 269.8 75.7136V79.3125C269.8 79.9123 270.2 80.2122 270.7 79.9123L271.2 79.7124C273 78.9126 274.5 76.5134 274.5 74.3141V70.7152C274.5 70.2153 274.1 69.9154 273.6 70.1154Z" fill="white"/>
<path d="M265.9 80.3124L265.4 80.1124C264.9 79.9125 264.5 80.2124 264.5 80.7122V84.3111C264.5 86.5104 266 88.9097 267.9 89.7094L268.4 89.9094C268.9 90.1093 269.3 89.8094 269.3 89.3096V85.7107C269.2 83.5114 267.7 81.1121 265.9 80.3124Z" fill="white"/>
<path d="M273.6 80.1124L273.1 80.3124C271.3 81.1121 269.8 83.5114 269.8 85.7107V89.3096C269.8 89.9094 270.2 90.2093 270.7 89.9094L271.2 89.7094C273 88.9097 274.5 86.5104 274.5 84.3111V80.7122C274.5 80.2124 274.1 79.9125 273.6 80.1124Z" fill="white"/>
<path d="M265.9 90.3092L265.4 90.1093C264.9 89.9093 264.5 90.2092 264.5 90.7091V94.308C264.5 96.5073 266 98.9065 267.9 99.7063L268.4 99.9062C268.9 100.106 269.3 99.8062 269.3 99.3064V95.7075C269.2 93.5082 267.7 91.1089 265.9 90.3092Z" fill="white"/>
<path d="M273.6 90.1093L273.1 90.3092C271.3 91.1089 269.8 93.5082 269.8 95.7075V99.3064C269.8 99.9062 270.2 100.206 270.7 99.9062L271.2 99.7063C273 98.9065 274.5 96.5073 274.5 94.308V90.7091C274.5 90.2092 274.1 89.9093 273.6 90.1093Z" fill="white"/>
<path d="M265.9 100.306L265.4 100.106C264.9 99.9061 264.5 100.206 264.5 100.706V104.305C264.5 106.504 266 108.903 267.9 109.703L268.4 109.903C268.9 110.103 269.3 109.803 269.3 109.303V105.704C269.2 103.505 267.7 101.106 265.9 100.306Z" fill="white"/>
<path d="M273.6 100.106L273.1 100.306C271.3 101.106 269.8 103.505 269.8 105.704V109.303C269.8 109.903 270.2 110.203 270.7 109.903L271.2 109.703C273 108.903 274.5 106.504 274.5 104.305V100.706C274.5 100.206 274.1 99.9061 273.6 100.106Z" fill="white"/>
<path d="M265.9 110.303L265.4 110.103C264.9 109.903 264.5 110.203 264.5 110.703V114.302C264.5 116.501 266 118.9 267.9 119.7L268.4 119.9C268.9 120.1 269.3 119.8 269.3 119.3V115.701C269.2 113.502 267.7 111.103 265.9 110.303Z" fill="white"/>
<path d="M273.6 110.103L273.1 110.303C271.3 111.103 269.8 113.502 269.8 115.701V119.3C269.8 119.9 270.2 120.2 270.7 119.9L271.2 119.7C273 118.9 274.5 116.501 274.5 114.302V110.703C274.5 110.203 274.1 109.903 273.6 110.103Z" fill="white"/>
<path d="M265.9 120.3L265.4 120.1C264.9 119.9 264.5 120.2 264.5 120.7V124.299C264.5 126.498 266 128.897 267.9 129.697L268.4 129.897C268.9 130.097 269.3 129.797 269.3 129.297V125.698C269.2 123.499 267.7 121.1 265.9 120.3Z" fill="white"/>
<path d="M273.6 120.1L273.1 120.3C271.3 121.1 269.8 123.499 269.8 125.698V129.297C269.8 129.897 270.2 130.197 270.7 129.897L271.2 129.697C273 128.897 274.5 126.498 274.5 124.299V120.7C274.5 120.2 274.1 119.9 273.6 120.1Z" fill="white"/>
<path d="M265.9 130.297L265.4 130.097C264.9 129.897 264.5 130.197 264.5 130.697V134.295C264.5 136.495 266 138.894 267.9 139.694L268.4 139.894C268.9 140.094 269.3 139.794 269.3 139.294V135.695C269.2 133.496 267.7 131.096 265.9 130.297Z" fill="white"/>
<path d="M273.6 130.097L273.1 130.297C271.3 131.096 269.8 133.496 269.8 135.695V139.294C269.8 139.894 270.2 140.194 270.7 139.894L271.2 139.694C273 138.894 274.5 136.495 274.5 134.295V130.697C274.5 130.197 274.1 129.897 273.6 130.097Z" fill="white"/>
<path d="M265.9 140.294L265.4 140.094C264.9 139.894 264.5 140.194 264.5 140.694V144.293C264.5 146.492 266 148.891 267.9 149.691L268.4 149.891C268.9 150.091 269.3 149.791 269.3 149.291V145.692C269.2 143.493 267.7 141.094 265.9 140.294Z" fill="white"/>
<path d="M273.6 140.094L273.1 140.294C271.3 141.094 269.8 143.493 269.8 145.692V149.291C269.8 149.891 270.2 150.191 270.7 149.891L271.2 149.691C273 148.891 274.5 146.492 274.5 144.293V140.694C274.5 140.194 274.1 139.894 273.6 140.094Z" fill="white"/>
<path d="M254.9 50.3216L254.4 50.1217C253.9 49.9218 253.5 50.2217 253.5 50.7215V54.3204C253.5 56.5197 255 58.919 256.9 59.7187L257.4 59.9187C257.9 60.1186 258.3 59.8187 258.3 59.3188V55.72C258.2 53.5207 256.7 51.1214 254.9 50.3216Z" fill="white"/>
<path d="M262.6 50.1217L262.1 50.3216C260.3 51.1214 258.8 53.5207 258.8 55.72V59.3188C258.8 59.9187 259.2 60.2186 259.7 59.9187L260.2 59.7187C262 58.919 263.5 56.5197 263.5 54.3204V50.7215C263.5 50.2217 263.1 49.9218 262.6 50.1217Z" fill="white"/>
<path d="M254.9 60.3187L254.4 60.1188C253.9 59.9188 253.5 60.2187 253.5 60.7186V64.3175C253.5 66.5168 255 68.916 256.9 69.7158L257.4 69.9157C257.9 70.1157 258.3 69.8158 258.3 69.3159V65.717C258.2 63.5177 256.7 61.1185 254.9 60.3187Z" fill="white"/>
<path d="M262.6 60.1188L262.1 60.3187C260.3 61.1185 258.8 63.5177 258.8 65.717V69.3159C258.8 69.9157 259.2 70.2156 259.7 69.9157L260.2 69.7158C262 68.916 263.5 66.5168 263.5 64.3175V60.7186C263.5 60.2187 263.1 59.9188 262.6 60.1188Z" fill="white"/>
<path d="M254.9 70.3153L254.4 70.1154C253.9 69.9154 253.5 70.2153 253.5 70.7152V74.3141C253.5 76.5134 255 78.9126 256.9 79.7124L257.4 79.9123C257.9 80.1122 258.3 79.8123 258.3 79.3125V75.7136C258.2 73.5143 256.7 71.115 254.9 70.3153Z" fill="white"/>
<path d="M262.6 70.1154L262.1 70.3153C260.3 71.115 258.8 73.5143 258.8 75.7136V79.3125C258.8 79.9123 259.2 80.2122 259.7 79.9123L260.2 79.7124C262 78.9126 263.5 76.5134 263.5 74.3141V70.7152C263.5 70.2153 263.1 69.9154 262.6 70.1154Z" fill="white"/>
<path d="M254.9 80.3124L254.4 80.1124C253.9 79.9125 253.5 80.2124 253.5 80.7122V84.3111C253.5 86.5104 255 88.9097 256.9 89.7094L257.4 89.9094C257.9 90.1093 258.3 89.8094 258.3 89.3096V85.7107C258.2 83.5114 256.7 81.1121 254.9 80.3124Z" fill="white"/>
<path d="M262.6 80.1124L262.1 80.3124C260.3 81.1121 258.8 83.5114 258.8 85.7107V89.3096C258.8 89.9094 259.2 90.2093 259.7 89.9094L260.2 89.7094C262 88.9097 263.5 86.5104 263.5 84.3111V80.7122C263.5 80.2124 263.1 79.9125 262.6 80.1124Z" fill="white"/>
<path d="M254.9 90.3092L254.4 90.1093C253.9 89.9093 253.5 90.2092 253.5 90.7091V94.308C253.5 96.5073 255 98.9065 256.9 99.7063L257.4 99.9062C257.9 100.106 258.3 99.8062 258.3 99.3064V95.7075C258.2 93.5082 256.7 91.1089 254.9 90.3092Z" fill="white"/>
<path d="M262.6 90.1093L262.1 90.3092C260.3 91.1089 258.8 93.5082 258.8 95.7075V99.3064C258.8 99.9062 259.2 100.206 259.7 99.9062L260.2 99.7063C262 98.9065 263.5 96.5073 263.5 94.308V90.7091C263.5 90.2092 263.1 89.9093 262.6 90.1093Z" fill="white"/>
<path d="M254.9 100.306L254.4 100.106C253.9 99.9061 253.5 100.206 253.5 100.706V104.305C253.5 106.504 255 108.903 256.9 109.703L257.4 109.903C257.9 110.103 258.3 109.803 258.3 109.303V105.704C258.2 103.505 256.7 101.106 254.9 100.306Z" fill="white"/>
<path d="M262.6 100.106L262.1 100.306C260.3 101.106 258.8 103.505 258.8 105.704V109.303C258.8 109.903 259.2 110.203 259.7 109.903L260.2 109.703C262 108.903 263.5 106.504 263.5 104.305V100.706C263.5 100.206 263.1 99.9061 262.6 100.106Z" fill="white"/>
<path d="M254.9 110.303L254.4 110.103C253.9 109.903 253.5 110.203 253.5 110.703V114.302C253.5 116.501 255 118.9 256.9 119.7L257.4 119.9C257.9 120.1 258.3 119.8 258.3 119.3V115.701C258.2 113.502 256.7 111.103 254.9 110.303Z" fill="white"/>
<path d="M262.6 110.103L262.1 110.303C260.3 111.103 258.8 113.502 258.8 115.701V119.3C258.8 119.9 259.2 120.2 259.7 119.9L260.2 119.7C262 118.9 263.5 116.501 263.5 114.302V110.703C263.5 110.203 263.1 109.903 262.6 110.103Z" fill="white"/>
<path d="M254.9 120.3L254.4 120.1C253.9 119.9 253.5 120.2 253.5 120.7V124.299C253.5 126.498 255 128.897 256.9 129.697L257.4 129.897C257.9 130.097 258.3 129.797 258.3 129.297V125.698C258.2 123.499 256.7 121.1 254.9 120.3Z" fill="white"/>
<path d="M262.6 120.1L262.1 120.3C260.3 121.1 258.8 123.499 258.8 125.698V129.297C258.8 129.897 259.2 130.197 259.7 129.897L260.2 129.697C262 128.897 263.5 126.498 263.5 124.299V120.7C263.5 120.2 263.1 119.9 262.6 120.1Z" fill="white"/>
<path d="M254.9 130.297L254.4 130.097C253.9 129.897 253.5 130.197 253.5 130.697V134.295C253.5 136.495 255 138.894 256.9 139.694L257.4 139.894C257.9 140.094 258.3 139.794 258.3 139.294V135.695C258.2 133.496 256.7 131.096 254.9 130.297Z" fill="white"/>
<path d="M262.6 130.097L262.1 130.297C260.3 131.096 258.8 133.496 258.8 135.695V139.294C258.8 139.894 259.2 140.194 259.7 139.894L260.2 139.694C262 138.894 263.5 136.495 263.5 134.295V130.697C263.5 130.197 263.1 129.897 262.6 130.097Z" fill="white"/>
<path d="M254.9 140.294L254.4 140.094C253.9 139.894 253.5 140.194 253.5 140.694V144.293C253.5 146.492 255 148.891 256.9 149.691L257.4 149.891C257.9 150.091 258.3 149.791 258.3 149.291V145.692C258.2 143.493 256.7 141.094 254.9 140.294Z" fill="white"/>
<path d="M262.6 140.094L262.1 140.294C260.3 141.094 258.8 143.493 258.8 145.692V149.291C258.8 149.891 259.2 150.191 259.7 149.891L260.2 149.691C262 148.891 263.5 146.492 263.5 144.293V140.694C263.5 140.194 263.1 139.894 262.6 140.094Z" fill="white"/>
<path d="M254.9 150.29L254.4 150.09C253.9 149.891 253.5 150.19 253.5 150.69V154.289C253.5 156.488 255 158.888 256.9 159.687L257.4 159.887C257.9 160.087 258.3 159.787 258.3 159.288V155.689C258.2 153.489 256.7 151.09 254.9 150.29Z" fill="white"/>
<path d="M262.6 150.09L262.1 150.29C260.3 151.09 258.8 153.489 258.8 155.689V159.288C258.8 159.887 259.2 160.187 259.7 159.887L260.2 159.687C262 158.888 263.5 156.488 263.5 154.289V150.69C263.5 150.19 263.1 149.891 262.6 150.09Z" fill="white"/>
<path d="M243.9 50.3216L243.4 50.1217C242.9 49.9218 242.5 50.2217 242.5 50.7215V54.3204C242.5 56.5197 244 58.919 245.9 59.7187L246.4 59.9187C246.9 60.1186 247.3 59.8187 247.3 59.3188V55.72C247.2 53.5207 245.7 51.1214 243.9 50.3216Z" fill="white"/>
<path d="M251.6 50.1217L251.1 50.3216C249.3 51.1214 247.8 53.5207 247.8 55.72V59.3188C247.8 59.9187 248.2 60.2186 248.7 59.9187L249.2 59.7187C251 58.919 252.5 56.5197 252.5 54.3204V50.7215C252.5 50.2217 252.1 49.9218 251.6 50.1217Z" fill="white"/>
<path d="M243.9 60.3187L243.4 60.1188C242.9 59.9188 242.5 60.2187 242.5 60.7186V64.3175C242.5 66.5168 244 68.916 245.9 69.7158L246.4 69.9157C246.9 70.1157 247.3 69.8158 247.3 69.3159V65.717C247.2 63.5177 245.7 61.1185 243.9 60.3187Z" fill="white"/>
<path d="M251.6 60.1188L251.1 60.3187C249.3 61.1185 247.8 63.5177 247.8 65.717V69.3159C247.8 69.9157 248.2 70.2156 248.7 69.9157L249.2 69.7158C251 68.916 252.5 66.5168 252.5 64.3175V60.7186C252.5 60.2187 252.1 59.9188 251.6 60.1188Z" fill="white"/>
<path d="M243.9 70.3153L243.4 70.1154C242.9 69.9154 242.5 70.2153 242.5 70.7152V74.3141C242.5 76.5134 244 78.9126 245.9 79.7124L246.4 79.9123C246.9 80.1122 247.3 79.8123 247.3 79.3125V75.7136C247.2 73.5143 245.7 71.115 243.9 70.3153Z" fill="white"/>
<path d="M251.6 70.1154L251.1 70.3153C249.3 71.115 247.8 73.5143 247.8 75.7136V79.3125C247.8 79.9123 248.2 80.2122 248.7 79.9123L249.2 79.7124C251 78.9126 252.5 76.5134 252.5 74.3141V70.7152C252.5 70.2153 252.1 69.9154 251.6 70.1154Z" fill="white"/>
<path d="M243.9 80.3124L243.4 80.1124C242.9 79.9125 242.5 80.2124 242.5 80.7122V84.3111C242.5 86.5104 244 88.9097 245.9 89.7094L246.4 89.9094C246.9 90.1093 247.3 89.8094 247.3 89.3096V85.7107C247.2 83.5114 245.7 81.1121 243.9 80.3124Z" fill="white"/>
<path d="M251.6 80.1124L251.1 80.3124C249.3 81.1121 247.8 83.5114 247.8 85.7107V89.3096C247.8 89.9094 248.2 90.2093 248.7 89.9094L249.2 89.7094C251 88.9097 252.5 86.5104 252.5 84.3111V80.7122C252.5 80.2124 252.1 79.9125 251.6 80.1124Z" fill="white"/>
<path d="M243.9 90.3092L243.4 90.1093C242.9 89.9093 242.5 90.2092 242.5 90.7091V94.308C242.5 96.5073 244 98.9065 245.9 99.7063L246.4 99.9062C246.9 100.106 247.3 99.8062 247.3 99.3064V95.7075C247.2 93.5082 245.7 91.1089 243.9 90.3092Z" fill="white"/>
<path d="M251.6 90.1093L251.1 90.3092C249.3 91.1089 247.8 93.5082 247.8 95.7075V99.3064C247.8 99.9062 248.2 100.206 248.7 99.9062L249.2 99.7063C251 98.9065 252.5 96.5073 252.5 94.308V90.7091C252.5 90.2092 252.1 89.9093 251.6 90.1093Z" fill="white"/>
<path d="M243.9 100.306L243.4 100.106C242.9 99.9061 242.5 100.206 242.5 100.706V104.305C242.5 106.504 244 108.903 245.9 109.703L246.4 109.903C246.9 110.103 247.3 109.803 247.3 109.303V105.704C247.2 103.505 245.7 101.106 243.9 100.306Z" fill="white"/>
<path d="M251.6 100.106L251.1 100.306C249.3 101.106 247.8 103.505 247.8 105.704V109.303C247.8 109.903 248.2 110.203 248.7 109.903L249.2 109.703C251 108.903 252.5 106.504 252.5 104.305V100.706C252.5 100.206 252.1 99.9061 251.6 100.106Z" fill="white"/>
<path d="M243.9 110.303L243.4 110.103C242.9 109.903 242.5 110.203 242.5 110.703V114.302C242.5 116.501 244 118.9 245.9 119.7L246.4 119.9C246.9 120.1 247.3 119.8 247.3 119.3V115.701C247.2 113.502 245.7 111.103 243.9 110.303Z" fill="white"/>
<path d="M251.6 110.103L251.1 110.303C249.3 111.103 247.8 113.502 247.8 115.701V119.3C247.8 119.9 248.2 120.2 248.7 119.9L249.2 119.7C251 118.9 252.5 116.501 252.5 114.302V110.703C252.5 110.203 252.1 109.903 251.6 110.103Z" fill="white"/>
<path d="M243.9 120.3L243.4 120.1C242.9 119.9 242.5 120.2 242.5 120.7V124.299C242.5 126.498 244 128.897 245.9 129.697L246.4 129.897C246.9 130.097 247.3 129.797 247.3 129.297V125.698C247.2 123.499 245.7 121.1 243.9 120.3Z" fill="white"/>
<path d="M251.6 120.1L251.1 120.3C249.3 121.1 247.8 123.499 247.8 125.698V129.297C247.8 129.897 248.2 130.197 248.7 129.897L249.2 129.697C251 128.897 252.5 126.498 252.5 124.299V120.7C252.5 120.2 252.1 119.9 251.6 120.1Z" fill="white"/>
<path d="M243.9 130.297L243.4 130.097C242.9 129.897 242.5 130.197 242.5 130.697V134.295C242.5 136.495 244 138.894 245.9 139.694L246.4 139.894C246.9 140.094 247.3 139.794 247.3 139.294V135.695C247.2 133.496 245.7 131.096 243.9 130.297Z" fill="white"/>
<path d="M251.6 130.097L251.1 130.297C249.3 131.096 247.8 133.496 247.8 135.695V139.294C247.8 139.894 248.2 140.194 248.7 139.894L249.2 139.694C251 138.894 252.5 136.495 252.5 134.295V130.697C252.5 130.197 252.1 129.897 251.6 130.097Z" fill="white"/>
<path d="M243.9 140.294L243.4 140.094C242.9 139.894 242.5 140.194 242.5 140.694V144.293C242.5 146.492 244 148.891 245.9 149.691L246.4 149.891C246.9 150.091 247.3 149.791 247.3 149.291V145.692C247.2 143.493 245.7 141.094 243.9 140.294Z" fill="white"/>
<path d="M251.6 140.094L251.1 140.294C249.3 141.094 247.8 143.493 247.8 145.692V149.291C247.8 149.891 248.2 150.191 248.7 149.891L249.2 149.691C251 148.891 252.5 146.492 252.5 144.293V140.694C252.5 140.194 252.1 139.894 251.6 140.094Z" fill="white"/>
<path d="M243.9 150.29L243.4 150.09C242.9 149.891 242.5 150.19 242.5 150.69V154.289C242.5 156.488 244 158.888 245.9 159.687L246.4 159.887C246.9 160.087 247.3 159.787 247.3 159.288V155.689C247.2 153.489 245.7 151.09 243.9 150.29Z" fill="white"/>
<path d="M251.6 150.09L251.1 150.29C249.3 151.09 247.8 153.489 247.8 155.689V159.288C247.8 159.887 248.2 160.187 248.7 159.887L249.2 159.687C251 158.888 252.5 156.488 252.5 154.289V150.69C252.5 150.19 252.1 149.891 251.6 150.09Z" fill="white"/>
<path d="M243.9 160.287L243.4 160.088C242.9 159.888 242.5 160.187 242.5 160.687V164.286C242.5 166.486 244 168.885 245.9 169.685L246.4 169.884C246.9 170.084 247.3 169.785 247.3 169.285V165.686C247.2 163.486 245.7 161.087 243.9 160.287Z" fill="white"/>
<path d="M251.6 160.088L251.1 160.287C249.3 161.087 247.8 163.486 247.8 165.686V169.285C247.8 169.884 248.2 170.184 248.7 169.884L249.2 169.685C251 168.885 252.5 166.486 252.5 164.286V160.687C252.5 160.187 252.1 159.888 251.6 160.088Z" fill="white"/>
<path d="M232.9 60.3187L232.4 60.1188C231.9 59.9188 231.5 60.2187 231.5 60.7186V64.3175C231.5 66.5168 233 68.916 234.9 69.7158L235.4 69.9157C235.9 70.1157 236.3 69.8158 236.3 69.3159V65.717C236.2 63.5177 234.7 61.1185 232.9 60.3187Z" fill="white"/>
<path d="M240.6 60.1188L240.1 60.3187C238.3 61.1185 236.8 63.5177 236.8 65.717V69.3159C236.8 69.9157 237.2 70.2156 237.7 69.9157L238.2 69.7158C240 68.916 241.5 66.5168 241.5 64.3175V60.7186C241.5 60.2187 241.1 59.9188 240.6 60.1188Z" fill="white"/>
<path d="M232.9 70.3153L232.4 70.1154C231.9 69.9154 231.5 70.2153 231.5 70.7152V74.3141C231.5 76.5134 233 78.9126 234.9 79.7124L235.4 79.9123C235.9 80.1122 236.3 79.8123 236.3 79.3125V75.7136C236.2 73.5143 234.7 71.115 232.9 70.3153Z" fill="white"/>
<path d="M240.6 70.1154L240.1 70.3153C238.3 71.115 236.8 73.5143 236.8 75.7136V79.3125C236.8 79.9123 237.2 80.2122 237.7 79.9123L238.2 79.7124C240 78.9126 241.5 76.5134 241.5 74.3141V70.7152C241.5 70.2153 241.1 69.9154 240.6 70.1154Z" fill="white"/>
<path d="M232.9 80.3124L232.4 80.1124C231.9 79.9125 231.5 80.2124 231.5 80.7122V84.3111C231.5 86.5104 233 88.9097 234.9 89.7094L235.4 89.9094C235.9 90.1093 236.3 89.8094 236.3 89.3096V85.7107C236.2 83.5114 234.7 81.1121 232.9 80.3124Z" fill="white"/>
<path d="M240.6 80.1124L240.1 80.3124C238.3 81.1121 236.8 83.5114 236.8 85.7107V89.3096C236.8 89.9094 237.2 90.2093 237.7 89.9094L238.2 89.7094C240 88.9097 241.5 86.5104 241.5 84.3111V80.7122C241.5 80.2124 241.1 79.9125 240.6 80.1124Z" fill="white"/>
<path d="M232.9 90.3092L232.4 90.1093C231.9 89.9093 231.5 90.2092 231.5 90.7091V94.308C231.5 96.5073 233 98.9065 234.9 99.7063L235.4 99.9062C235.9 100.106 236.3 99.8062 236.3 99.3064V95.7075C236.2 93.5082 234.7 91.1089 232.9 90.3092Z" fill="white"/>
<path d="M240.6 90.1093L240.1 90.3092C238.3 91.1089 236.8 93.5082 236.8 95.7075V99.3064C236.8 99.9062 237.2 100.206 237.7 99.9062L238.2 99.7063C240 98.9065 241.5 96.5073 241.5 94.308V90.7091C241.5 90.2092 241.1 89.9093 240.6 90.1093Z" fill="white"/>
<path d="M232.9 100.306L232.4 100.106C231.9 99.9061 231.5 100.206 231.5 100.706V104.305C231.5 106.504 233 108.903 234.9 109.703L235.4 109.903C235.9 110.103 236.3 109.803 236.3 109.303V105.704C236.2 103.505 234.7 101.106 232.9 100.306Z" fill="white"/>
<path d="M240.6 100.106L240.1 100.306C238.3 101.106 236.8 103.505 236.8 105.704V109.303C236.8 109.903 237.2 110.203 237.7 109.903L238.2 109.703C240 108.903 241.5 106.504 241.5 104.305V100.706C241.5 100.206 241.1 99.9061 240.6 100.106Z" fill="white"/>
<path d="M232.9 110.303L232.4 110.103C231.9 109.903 231.5 110.203 231.5 110.703V114.302C231.5 116.501 233 118.9 234.9 119.7L235.4 119.9C235.9 120.1 236.3 119.8 236.3 119.3V115.701C236.2 113.502 234.7 111.103 232.9 110.303Z" fill="white"/>
<path d="M240.6 110.103L240.1 110.303C238.3 111.103 236.8 113.502 236.8 115.701V119.3C236.8 119.9 237.2 120.2 237.7 119.9L238.2 119.7C240 118.9 241.5 116.501 241.5 114.302V110.703C241.5 110.203 241.1 109.903 240.6 110.103Z" fill="white"/>
<path d="M232.9 120.3L232.4 120.1C231.9 119.9 231.5 120.2 231.5 120.7V124.299C231.5 126.498 233 128.897 234.9 129.697L235.4 129.897C235.9 130.097 236.3 129.797 236.3 129.297V125.698C236.2 123.499 234.7 121.1 232.9 120.3Z" fill="white"/>
<path d="M240.6 120.1L240.1 120.3C238.3 121.1 236.8 123.499 236.8 125.698V129.297C236.8 129.897 237.2 130.197 237.7 129.897L238.2 129.697C240 128.897 241.5 126.498 241.5 124.299V120.7C241.5 120.2 241.1 119.9 240.6 120.1Z" fill="white"/>
<path d="M232.9 130.297L232.4 130.097C231.9 129.897 231.5 130.197 231.5 130.697V134.295C231.5 136.495 233 138.894 234.9 139.694L235.4 139.894C235.9 140.094 236.3 139.794 236.3 139.294V135.695C236.2 133.496 234.7 131.096 232.9 130.297Z" fill="white"/>
<path d="M240.6 130.097L240.1 130.297C238.3 131.096 236.8 133.496 236.8 135.695V139.294C236.8 139.894 237.2 140.194 237.7 139.894L238.2 139.694C240 138.894 241.5 136.495 241.5 134.295V130.697C241.5 130.197 241.1 129.897 240.6 130.097Z" fill="white"/>
<path d="M232.9 140.294L232.4 140.094C231.9 139.894 231.5 140.194 231.5 140.694V144.293C231.5 146.492 233 148.891 234.9 149.691L235.4 149.891C235.9 150.091 236.3 149.791 236.3 149.291V145.692C236.2 143.493 234.7 141.094 232.9 140.294Z" fill="white"/>
<path d="M240.6 140.094L240.1 140.294C238.3 141.094 236.8 143.493 236.8 145.692V149.291C236.8 149.891 237.2 150.191 237.7 149.891L238.2 149.691C240 148.891 241.5 146.492 241.5 144.293V140.694C241.5 140.194 241.1 139.894 240.6 140.094Z" fill="white"/>
<path d="M232.9 150.29L232.4 150.09C231.9 149.891 231.5 150.19 231.5 150.69V154.289C231.5 156.488 233 158.888 234.9 159.687L235.4 159.887C235.9 160.087 236.3 159.787 236.3 159.288V155.689C236.2 153.489 234.7 151.09 232.9 150.29Z" fill="white"/>
<path d="M240.6 150.09L240.1 150.29C238.3 151.09 236.8 153.489 236.8 155.689V159.288C236.8 159.887 237.2 160.187 237.7 159.887L238.2 159.687C240 158.888 241.5 156.488 241.5 154.289V150.69C241.5 150.19 241.1 149.891 240.6 150.09Z" fill="white"/>
<path d="M232.9 160.287L232.4 160.088C231.9 159.888 231.5 160.187 231.5 160.687V164.286C231.5 166.486 233 168.885 234.9 169.685L235.4 169.884C235.9 170.084 236.3 169.785 236.3 169.285V165.686C236.2 163.486 234.7 161.087 232.9 160.287Z" fill="white"/>
<path d="M240.6 160.088L240.1 160.287C238.3 161.087 236.8 163.486 236.8 165.686V169.285C236.8 169.884 237.2 170.184 237.7 169.884L238.2 169.685C240 168.885 241.5 166.486 241.5 164.286V160.687C241.5 160.187 241.1 159.888 240.6 160.088Z" fill="white"/>
<path d="M232.9 170.284L232.4 170.084C231.9 169.884 231.5 170.184 231.5 170.684V174.283C231.5 176.482 233 178.882 234.9 179.681L235.4 179.881C235.9 180.081 236.3 179.781 236.3 179.281V175.683C236.2 173.483 234.7 171.084 232.9 170.284Z" fill="white"/>
<path d="M240.6 170.084L240.1 170.284C238.3 171.084 236.8 173.483 236.8 175.683V179.281C236.8 179.881 237.2 180.181 237.7 179.881L238.2 179.681C240 178.882 241.5 176.482 241.5 174.283V170.684C241.5 170.184 241.1 169.884 240.6 170.084Z" fill="white"/>
<path d="M221.9 70.3153L221.4 70.1154C220.9 69.9154 220.5 70.2153 220.5 70.7152V74.3141C220.5 76.5134 222 78.9126 223.9 79.7124L224.4 79.9123C224.9 80.1122 225.3 79.8123 225.3 79.3125V75.7136C225.2 73.5143 223.7 71.115 221.9 70.3153Z" fill="white"/>
<path d="M229.6 70.1154L229.1 70.3153C227.3 71.115 225.8 73.5143 225.8 75.7136V79.3125C225.8 79.9123 226.2 80.2122 226.7 79.9123L227.2 79.7124C229 78.9126 230.5 76.5134 230.5 74.3141V70.7152C230.5 70.2153 230.1 69.9154 229.6 70.1154Z" fill="white"/>
<path d="M221.9 80.3124L221.4 80.1124C220.9 79.9125 220.5 80.2124 220.5 80.7122V84.3111C220.5 86.5104 222 88.9097 223.9 89.7094L224.4 89.9094C224.9 90.1093 225.3 89.8094 225.3 89.3096V85.7107C225.2 83.5114 223.7 81.1121 221.9 80.3124Z" fill="white"/>
<path d="M229.6 80.1124L229.1 80.3124C227.3 81.1121 225.8 83.5114 225.8 85.7107V89.3096C225.8 89.9094 226.2 90.2093 226.7 89.9094L227.2 89.7094C229 88.9097 230.5 86.5104 230.5 84.3111V80.7122C230.5 80.2124 230.1 79.9125 229.6 80.1124Z" fill="white"/>
<path d="M221.9 90.3092L221.4 90.1093C220.9 89.9093 220.5 90.2092 220.5 90.7091V94.308C220.5 96.5073 222 98.9065 223.9 99.7063L224.4 99.9062C224.9 100.106 225.3 99.8062 225.3 99.3064V95.7075C225.2 93.5082 223.7 91.1089 221.9 90.3092Z" fill="white"/>
<path d="M229.6 90.1093L229.1 90.3092C227.3 91.1089 225.8 93.5082 225.8 95.7075V99.3064C225.8 99.9062 226.2 100.206 226.7 99.9062L227.2 99.7063C229 98.9065 230.5 96.5073 230.5 94.308V90.7091C230.5 90.2092 230.1 89.9093 229.6 90.1093Z" fill="white"/>
<path d="M221.9 100.306L221.4 100.106C220.9 99.9061 220.5 100.206 220.5 100.706V104.305C220.5 106.504 222 108.903 223.9 109.703L224.4 109.903C224.9 110.103 225.3 109.803 225.3 109.303V105.704C225.2 103.505 223.7 101.106 221.9 100.306Z" fill="white"/>
<path d="M229.6 100.106L229.1 100.306C227.3 101.106 225.8 103.505 225.8 105.704V109.303C225.8 109.903 226.2 110.203 226.7 109.903L227.2 109.703C229 108.903 230.5 106.504 230.5 104.305V100.706C230.5 100.206 230.1 99.9061 229.6 100.106Z" fill="white"/>
<path d="M221.9 110.303L221.4 110.103C220.9 109.903 220.5 110.203 220.5 110.703V114.302C220.5 116.501 222 118.9 223.9 119.7L224.4 119.9C224.9 120.1 225.3 119.8 225.3 119.3V115.701C225.2 113.502 223.7 111.103 221.9 110.303Z" fill="white"/>
<path d="M229.6 110.103L229.1 110.303C227.3 111.103 225.8 113.502 225.8 115.701V119.3C225.8 119.9 226.2 120.2 226.7 119.9L227.2 119.7C229 118.9 230.5 116.501 230.5 114.302V110.703C230.5 110.203 230.1 109.903 229.6 110.103Z" fill="white"/>
<path d="M221.9 120.3L221.4 120.1C220.9 119.9 220.5 120.2 220.5 120.7V124.299C220.5 126.498 222 128.897 223.9 129.697L224.4 129.897C224.9 130.097 225.3 129.797 225.3 129.297V125.698C225.2 123.499 223.7 121.1 221.9 120.3Z" fill="white"/>
<path d="M229.6 120.1L229.1 120.3C227.3 121.1 225.8 123.499 225.8 125.698V129.297C225.8 129.897 226.2 130.197 226.7 129.897L227.2 129.697C229 128.897 230.5 126.498 230.5 124.299V120.7C230.5 120.2 230.1 119.9 229.6 120.1Z" fill="white"/>
<path d="M221.9 130.297L221.4 130.097C220.9 129.897 220.5 130.197 220.5 130.697V134.295C220.5 136.495 222 138.894 223.9 139.694L224.4 139.894C224.9 140.094 225.3 139.794 225.3 139.294V135.695C225.2 133.496 223.7 131.096 221.9 130.297Z" fill="white"/>
<path d="M229.6 130.097L229.1 130.297C227.3 131.096 225.8 133.496 225.8 135.695V139.294C225.8 139.894 226.2 140.194 226.7 139.894L227.2 139.694C229 138.894 230.5 136.495 230.5 134.295V130.697C230.5 130.197 230.1 129.897 229.6 130.097Z" fill="white"/>
<path d="M221.9 140.294L221.4 140.094C220.9 139.894 220.5 140.194 220.5 140.694V144.293C220.5 146.492 222 148.891 223.9 149.691L224.4 149.891C224.9 150.091 225.3 149.791 225.3 149.291V145.692C225.2 143.493 223.7 141.094 221.9 140.294Z" fill="white"/>
<path d="M229.6 140.094L229.1 140.294C227.3 141.094 225.8 143.493 225.8 145.692V149.291C225.8 149.891 226.2 150.191 226.7 149.891L227.2 149.691C229 148.891 230.5 146.492 230.5 144.293V140.694C230.5 140.194 230.1 139.894 229.6 140.094Z" fill="white"/>
<path d="M221.9 150.29L221.4 150.09C220.9 149.891 220.5 150.19 220.5 150.69V154.289C220.5 156.488 222 158.888 223.9 159.687L224.4 159.887C224.9 160.087 225.3 159.787 225.3 159.288V155.689C225.2 153.489 223.7 151.09 221.9 150.29Z" fill="white"/>
<path d="M229.6 150.09L229.1 150.29C227.3 151.09 225.8 153.489 225.8 155.689V159.288C225.8 159.887 226.2 160.187 226.7 159.887L227.2 159.687C229 158.888 230.5 156.488 230.5 154.289V150.69C230.5 150.19 230.1 149.891 229.6 150.09Z" fill="white"/>
<path d="M221.9 160.287L221.4 160.088C220.9 159.888 220.5 160.187 220.5 160.687V164.286C220.5 166.486 222 168.885 223.9 169.685L224.4 169.884C224.9 170.084 225.3 169.785 225.3 169.285V165.686C225.2 163.486 223.7 161.087 221.9 160.287Z" fill="white"/>
<path d="M229.6 160.088L229.1 160.287C227.3 161.087 225.8 163.486 225.8 165.686V169.285C225.8 169.884 226.2 170.184 226.7 169.884L227.2 169.685C229 168.885 230.5 166.486 230.5 164.286V160.687C230.5 160.187 230.1 159.888 229.6 160.088Z" fill="white"/>
<path d="M221.9 170.284L221.4 170.084C220.9 169.884 220.5 170.184 220.5 170.684V174.283C220.5 176.482 222 178.882 223.9 179.681L224.4 179.881C224.9 180.081 225.3 179.781 225.3 179.281V175.683C225.2 173.483 223.7 171.084 221.9 170.284Z" fill="white"/>
<path d="M229.6 170.084L229.1 170.284C227.3 171.084 225.8 173.483 225.8 175.683V179.281C225.8 179.881 226.2 180.181 226.7 179.881L227.2 179.681C229 178.882 230.5 176.482 230.5 174.283V170.684C230.5 170.184 230.1 169.884 229.6 170.084Z" fill="white"/>
<path d="M221.9 180.281L221.4 180.081C220.9 179.881 220.5 180.181 220.5 180.681V184.28C220.5 186.479 222 188.878 223.9 189.678L224.4 189.878C224.9 190.078 225.3 189.778 225.3 189.278V185.679C225.2 183.48 223.7 181.081 221.9 180.281Z" fill="white"/>
<path d="M229.6 180.081L229.1 180.281C227.3 181.081 225.8 183.48 225.8 185.679V189.278C225.8 189.878 226.2 190.178 226.7 189.878L227.2 189.678C229 188.878 230.5 186.479 230.5 184.28V180.681C230.5 180.181 230.1 179.881 229.6 180.081Z" fill="white"/>
<path d="M210.9 60.3187L210.4 60.1188C209.9 59.9188 209.5 60.2187 209.5 60.7186V64.3175C209.5 66.5168 211 68.916 212.9 69.7158L213.4 69.9157C213.9 70.1157 214.3 69.8158 214.3 69.3159V65.717C214.2 63.5177 212.7 61.1185 210.9 60.3187Z" fill="white"/>
<path d="M218.6 60.1188L218.1 60.3187C216.3 61.1185 214.8 63.5177 214.8 65.717V69.3159C214.8 69.9157 215.2 70.2156 215.7 69.9157L216.2 69.7158C218 68.916 219.5 66.5168 219.5 64.3175V60.7186C219.5 60.2187 219.1 59.9188 218.6 60.1188Z" fill="white"/>
<path d="M210.9 70.3153L210.4 70.1154C209.9 69.9154 209.5 70.2153 209.5 70.7152V74.3141C209.5 76.5134 211 78.9126 212.9 79.7124L213.4 79.9123C213.9 80.1122 214.3 79.8123 214.3 79.3125V75.7136C214.2 73.5143 212.7 71.115 210.9 70.3153Z" fill="white"/>
<path d="M218.6 70.1154L218.1 70.3153C216.3 71.115 214.8 73.5143 214.8 75.7136V79.3125C214.8 79.9123 215.2 80.2122 215.7 79.9123L216.2 79.7124C218 78.9126 219.5 76.5134 219.5 74.3141V70.7152C219.5 70.2153 219.1 69.9154 218.6 70.1154Z" fill="white"/>
<path d="M210.9 80.3124L210.4 80.1124C209.9 79.9125 209.5 80.2124 209.5 80.7122V84.3111C209.5 86.5104 211 88.9097 212.9 89.7094L213.4 89.9094C213.9 90.1093 214.3 89.8094 214.3 89.3096V85.7107C214.2 83.5114 212.7 81.1121 210.9 80.3124Z" fill="white"/>
<path d="M218.6 80.1124L218.1 80.3124C216.3 81.1121 214.8 83.5114 214.8 85.7107V89.3096C214.8 89.9094 215.2 90.2093 215.7 89.9094L216.2 89.7094C218 88.9097 219.5 86.5104 219.5 84.3111V80.7122C219.5 80.2124 219.1 79.9125 218.6 80.1124Z" fill="white"/>
<path d="M210.9 90.3092L210.4 90.1093C209.9 89.9093 209.5 90.2092 209.5 90.7091V94.308C209.5 96.5073 211 98.9065 212.9 99.7063L213.4 99.9062C213.9 100.106 214.3 99.8062 214.3 99.3064V95.7075C214.2 93.5082 212.7 91.1089 210.9 90.3092Z" fill="white"/>
<path d="M218.6 90.1093L218.1 90.3092C216.3 91.1089 214.8 93.5082 214.8 95.7075V99.3064C214.8 99.9062 215.2 100.206 215.7 99.9062L216.2 99.7063C218 98.9065 219.5 96.5073 219.5 94.308V90.7091C219.5 90.2092 219.1 89.9093 218.6 90.1093Z" fill="white"/>
<path d="M210.9 100.306L210.4 100.106C209.9 99.9061 209.5 100.206 209.5 100.706V104.305C209.5 106.504 211 108.903 212.9 109.703L213.4 109.903C213.9 110.103 214.3 109.803 214.3 109.303V105.704C214.2 103.505 212.7 101.106 210.9 100.306Z" fill="white"/>
<path d="M218.6 100.106L218.1 100.306C216.3 101.106 214.8 103.505 214.8 105.704V109.303C214.8 109.903 215.2 110.203 215.7 109.903L216.2 109.703C218 108.903 219.5 106.504 219.5 104.305V100.706C219.5 100.206 219.1 99.9061 218.6 100.106Z" fill="white"/>
<path d="M210.9 110.303L210.4 110.103C209.9 109.903 209.5 110.203 209.5 110.703V114.302C209.5 116.501 211 118.9 212.9 119.7L213.4 119.9C213.9 120.1 214.3 119.8 214.3 119.3V115.701C214.2 113.502 212.7 111.103 210.9 110.303Z" fill="white"/>
<path d="M218.6 110.103L218.1 110.303C216.3 111.103 214.8 113.502 214.8 115.701V119.3C214.8 119.9 215.2 120.2 215.7 119.9L216.2 119.7C218 118.9 219.5 116.501 219.5 114.302V110.703C219.5 110.203 219.1 109.903 218.6 110.103Z" fill="white"/>
<path d="M210.9 120.3L210.4 120.1C209.9 119.9 209.5 120.2 209.5 120.7V124.299C209.5 126.498 211 128.897 212.9 129.697L213.4 129.897C213.9 130.097 214.3 129.797 214.3 129.297V125.698C214.2 123.499 212.7 121.1 210.9 120.3Z" fill="white"/>
<path d="M218.6 120.1L218.1 120.3C216.3 121.1 214.8 123.499 214.8 125.698V129.297C214.8 129.897 215.2 130.197 215.7 129.897L216.2 129.697C218 128.897 219.5 126.498 219.5 124.299V120.7C219.5 120.2 219.1 119.9 218.6 120.1Z" fill="white"/>
<path d="M210.9 130.297L210.4 130.097C209.9 129.897 209.5 130.197 209.5 130.697V134.295C209.5 136.495 211 138.894 212.9 139.694L213.4 139.894C213.9 140.094 214.3 139.794 214.3 139.294V135.695C214.2 133.496 212.7 131.096 210.9 130.297Z" fill="white"/>
<path d="M218.6 130.097L218.1 130.297C216.3 131.096 214.8 133.496 214.8 135.695V139.294C214.8 139.894 215.2 140.194 215.7 139.894L216.2 139.694C218 138.894 219.5 136.495 219.5 134.295V130.697C219.5 130.197 219.1 129.897 218.6 130.097Z" fill="white"/>
<path d="M210.9 140.294L210.4 140.094C209.9 139.894 209.5 140.194 209.5 140.694V144.293C209.5 146.492 211 148.891 212.9 149.691L213.4 149.891C213.9 150.091 214.3 149.791 214.3 149.291V145.692C214.2 143.493 212.7 141.094 210.9 140.294Z" fill="white"/>
<path d="M218.6 140.094L218.1 140.294C216.3 141.094 214.8 143.493 214.8 145.692V149.291C214.8 149.891 215.2 150.191 215.7 149.891L216.2 149.691C218 148.891 219.5 146.492 219.5 144.293V140.694C219.5 140.194 219.1 139.894 218.6 140.094Z" fill="white"/>
<path d="M210.9 150.29L210.4 150.09C209.9 149.891 209.5 150.19 209.5 150.69V154.289C209.5 156.488 211 158.888 212.9 159.687L213.4 159.887C213.9 160.087 214.3 159.787 214.3 159.288V155.689C214.2 153.489 212.7 151.09 210.9 150.29Z" fill="white"/>
<path d="M218.6 150.09L218.1 150.29C216.3 151.09 214.8 153.489 214.8 155.689V159.288C214.8 159.887 215.2 160.187 215.7 159.887L216.2 159.687C218 158.888 219.5 156.488 219.5 154.289V150.69C219.5 150.19 219.1 149.891 218.6 150.09Z" fill="white"/>
<path d="M210.9 160.287L210.4 160.088C209.9 159.888 209.5 160.187 209.5 160.687V164.286C209.5 166.486 211 168.885 212.9 169.685L213.4 169.884C213.9 170.084 214.3 169.785 214.3 169.285V165.686C214.2 163.486 212.7 161.087 210.9 160.287Z" fill="white"/>
<path d="M218.6 160.088L218.1 160.287C216.3 161.087 214.8 163.486 214.8 165.686V169.285C214.8 169.884 215.2 170.184 215.7 169.884L216.2 169.685C218 168.885 219.5 166.486 219.5 164.286V160.687C219.5 160.187 219.1 159.888 218.6 160.088Z" fill="white"/>
<path d="M210.9 170.284L210.4 170.084C209.9 169.884 209.5 170.184 209.5 170.684V174.283C209.5 176.482 211 178.882 212.9 179.681L213.4 179.881C213.9 180.081 214.3 179.781 214.3 179.281V175.683C214.2 173.483 212.7 171.084 210.9 170.284Z" fill="white"/>
<path d="M218.6 170.084L218.1 170.284C216.3 171.084 214.8 173.483 214.8 175.683V179.281C214.8 179.881 215.2 180.181 215.7 179.881L216.2 179.681C218 178.882 219.5 176.482 219.5 174.283V170.684C219.5 170.184 219.1 169.884 218.6 170.084Z" fill="white"/>
<path d="M199.9 50.3216L199.4 50.1217C198.9 49.9218 198.5 50.2217 198.5 50.7215V54.3204C198.5 56.5197 200 58.919 201.9 59.7187L202.4 59.9187C202.9 60.1186 203.3 59.8187 203.3 59.3188V55.72C203.2 53.5207 201.7 51.1214 199.9 50.3216Z" fill="white"/>
<path d="M207.6 50.1217L207.1 50.3216C205.3 51.1214 203.8 53.5207 203.8 55.72V59.3188C203.8 59.9187 204.2 60.2186 204.7 59.9187L205.2 59.7187C207 58.919 208.5 56.5197 208.5 54.3204V50.7215C208.5 50.2217 208.1 49.9218 207.6 50.1217Z" fill="white"/>
<path d="M199.9 60.3187L199.4 60.1188C198.9 59.9188 198.5 60.2187 198.5 60.7186V64.3175C198.5 66.5168 200 68.916 201.9 69.7158L202.4 69.9157C202.9 70.1157 203.3 69.8158 203.3 69.3159V65.717C203.2 63.5177 201.7 61.1185 199.9 60.3187Z" fill="white"/>
<path d="M207.6 60.1188L207.1 60.3187C205.3 61.1185 203.8 63.5177 203.8 65.717V69.3159C203.8 69.9157 204.2 70.2156 204.7 69.9157L205.2 69.7158C207 68.916 208.5 66.5168 208.5 64.3175V60.7186C208.5 60.2187 208.1 59.9188 207.6 60.1188Z" fill="white"/>
<path d="M199.9 70.3153L199.4 70.1154C198.9 69.9154 198.5 70.2153 198.5 70.7152V74.3141C198.5 76.5134 200 78.9126 201.9 79.7124L202.4 79.9123C202.9 80.1122 203.3 79.8123 203.3 79.3125V75.7136C203.2 73.5143 201.7 71.115 199.9 70.3153Z" fill="white"/>
<path d="M207.6 70.1154L207.1 70.3153C205.3 71.115 203.8 73.5143 203.8 75.7136V79.3125C203.8 79.9123 204.2 80.2122 204.7 79.9123L205.2 79.7124C207 78.9126 208.5 76.5134 208.5 74.3141V70.7152C208.5 70.2153 208.1 69.9154 207.6 70.1154Z" fill="white"/>
<path d="M199.9 80.3124L199.4 80.1124C198.9 79.9125 198.5 80.2124 198.5 80.7122V84.3111C198.5 86.5104 200 88.9097 201.9 89.7094L202.4 89.9094C202.9 90.1093 203.3 89.8094 203.3 89.3096V85.7107C203.2 83.5114 201.7 81.1121 199.9 80.3124Z" fill="white"/>
<path d="M207.6 80.1124L207.1 80.3124C205.3 81.1121 203.8 83.5114 203.8 85.7107V89.3096C203.8 89.9094 204.2 90.2093 204.7 89.9094L205.2 89.7094C207 88.9097 208.5 86.5104 208.5 84.3111V80.7122C208.5 80.2124 208.1 79.9125 207.6 80.1124Z" fill="white"/>
<path d="M199.9 90.3092L199.4 90.1093C198.9 89.9093 198.5 90.2092 198.5 90.7091V94.308C198.5 96.5073 200 98.9065 201.9 99.7063L202.4 99.9062C202.9 100.106 203.3 99.8062 203.3 99.3064V95.7075C203.2 93.5082 201.7 91.1089 199.9 90.3092Z" fill="white"/>
<path d="M207.6 90.1093L207.1 90.3092C205.3 91.1089 203.8 93.5082 203.8 95.7075V99.3064C203.8 99.9062 204.2 100.206 204.7 99.9062L205.2 99.7063C207 98.9065 208.5 96.5073 208.5 94.308V90.7091C208.5 90.2092 208.1 89.9093 207.6 90.1093Z" fill="white"/>
<path d="M199.9 100.306L199.4 100.106C198.9 99.9061 198.5 100.206 198.5 100.706V104.305C198.5 106.504 200 108.903 201.9 109.703L202.4 109.903C202.9 110.103 203.3 109.803 203.3 109.303V105.704C203.2 103.505 201.7 101.106 199.9 100.306Z" fill="white"/>
<path d="M207.6 100.106L207.1 100.306C205.3 101.106 203.8 103.505 203.8 105.704V109.303C203.8 109.903 204.2 110.203 204.7 109.903L205.2 109.703C207 108.903 208.5 106.504 208.5 104.305V100.706C208.5 100.206 208.1 99.9061 207.6 100.106Z" fill="white"/>
<path d="M199.9 110.303L199.4 110.103C198.9 109.903 198.5 110.203 198.5 110.703V114.302C198.5 116.501 200 118.9 201.9 119.7L202.4 119.9C202.9 120.1 203.3 119.8 203.3 119.3V115.701C203.2 113.502 201.7 111.103 199.9 110.303Z" fill="white"/>
<path d="M207.6 110.103L207.1 110.303C205.3 111.103 203.8 113.502 203.8 115.701V119.3C203.8 119.9 204.2 120.2 204.7 119.9L205.2 119.7C207 118.9 208.5 116.501 208.5 114.302V110.703C208.5 110.203 208.1 109.903 207.6 110.103Z" fill="white"/>
<path d="M199.9 120.3L199.4 120.1C198.9 119.9 198.5 120.2 198.5 120.7V124.299C198.5 126.498 200 128.897 201.9 129.697L202.4 129.897C202.9 130.097 203.3 129.797 203.3 129.297V125.698C203.2 123.499 201.7 121.1 199.9 120.3Z" fill="white"/>
<path d="M207.6 120.1L207.1 120.3C205.3 121.1 203.8 123.499 203.8 125.698V129.297C203.8 129.897 204.2 130.197 204.7 129.897L205.2 129.697C207 128.897 208.5 126.498 208.5 124.299V120.7C208.5 120.2 208.1 119.9 207.6 120.1Z" fill="white"/>
<path d="M199.9 130.297L199.4 130.097C198.9 129.897 198.5 130.197 198.5 130.697V134.295C198.5 136.495 200 138.894 201.9 139.694L202.4 139.894C202.9 140.094 203.3 139.794 203.3 139.294V135.695C203.2 133.496 201.7 131.096 199.9 130.297Z" fill="white"/>
<path d="M207.6 130.097L207.1 130.297C205.3 131.096 203.8 133.496 203.8 135.695V139.294C203.8 139.894 204.2 140.194 204.7 139.894L205.2 139.694C207 138.894 208.5 136.495 208.5 134.295V130.697C208.5 130.197 208.1 129.897 207.6 130.097Z" fill="white"/>
<path d="M199.9 140.294L199.4 140.094C198.9 139.894 198.5 140.194 198.5 140.694V144.293C198.5 146.492 200 148.891 201.9 149.691L202.4 149.891C202.9 150.091 203.3 149.791 203.3 149.291V145.692C203.2 143.493 201.7 141.094 199.9 140.294Z" fill="white"/>
<path d="M207.6 140.094L207.1 140.294C205.3 141.094 203.8 143.493 203.8 145.692V149.291C203.8 149.891 204.2 150.191 204.7 149.891L205.2 149.691C207 148.891 208.5 146.492 208.5 144.293V140.694C208.5 140.194 208.1 139.894 207.6 140.094Z" fill="white"/>
<path d="M199.9 150.29L199.4 150.09C198.9 149.891 198.5 150.19 198.5 150.69V154.289C198.5 156.488 200 158.888 201.9 159.687L202.4 159.887C202.9 160.087 203.3 159.787 203.3 159.288V155.689C203.2 153.489 201.7 151.09 199.9 150.29Z" fill="white"/>
<path d="M207.6 150.09L207.1 150.29C205.3 151.09 203.8 153.489 203.8 155.689V159.288C203.8 159.887 204.2 160.187 204.7 159.887L205.2 159.687C207 158.888 208.5 156.488 208.5 154.289V150.69C208.5 150.19 208.1 149.891 207.6 150.09Z" fill="white"/>
<path d="M199.9 160.287L199.4 160.088C198.9 159.888 198.5 160.187 198.5 160.687V164.286C198.5 166.486 200 168.885 201.9 169.685L202.4 169.884C202.9 170.084 203.3 169.785 203.3 169.285V165.686C203.2 163.486 201.7 161.087 199.9 160.287Z" fill="white"/>
<path d="M207.6 160.088L207.1 160.287C205.3 161.087 203.8 163.486 203.8 165.686V169.285C203.8 169.884 204.2 170.184 204.7 169.884L205.2 169.685C207 168.885 208.5 166.486 208.5 164.286V160.687C208.5 160.187 208.1 159.888 207.6 160.088Z" fill="white"/>
<path d="M188.9 50.3216L188.4 50.1217C187.9 49.9218 187.5 50.2217 187.5 50.7215V54.3204C187.5 56.5197 189 58.919 190.9 59.7187L191.4 59.9187C191.9 60.1186 192.3 59.8187 192.3 59.3188V55.72C192.2 53.5207 190.7 51.1214 188.9 50.3216Z" fill="white"/>
<path d="M196.6 50.1217L196.1 50.3216C194.3 51.1214 192.8 53.5207 192.8 55.72V59.3188C192.8 59.9187 193.2 60.2186 193.7 59.9187L194.2 59.7187C196 58.919 197.5 56.5197 197.5 54.3204V50.7215C197.5 50.2217 197.1 49.9218 196.6 50.1217Z" fill="white"/>
<path d="M188.9 60.3187L188.4 60.1188C187.9 59.9188 187.5 60.2187 187.5 60.7186V64.3175C187.5 66.5168 189 68.916 190.9 69.7158L191.4 69.9157C191.9 70.1157 192.3 69.8158 192.3 69.3159V65.717C192.2 63.5177 190.7 61.1185 188.9 60.3187Z" fill="white"/>
<path d="M196.6 60.1188L196.1 60.3187C194.3 61.1185 192.8 63.5177 192.8 65.717V69.3159C192.8 69.9157 193.2 70.2156 193.7 69.9157L194.2 69.7158C196 68.916 197.5 66.5168 197.5 64.3175V60.7186C197.5 60.2187 197.1 59.9188 196.6 60.1188Z" fill="white"/>
<path d="M188.9 70.3153L188.4 70.1154C187.9 69.9154 187.5 70.2153 187.5 70.7152V74.3141C187.5 76.5134 189 78.9126 190.9 79.7124L191.4 79.9123C191.9 80.1122 192.3 79.8123 192.3 79.3125V75.7136C192.2 73.5143 190.7 71.115 188.9 70.3153Z" fill="white"/>
<path d="M196.6 70.1154L196.1 70.3153C194.3 71.115 192.8 73.5143 192.8 75.7136V79.3125C192.8 79.9123 193.2 80.2122 193.7 79.9123L194.2 79.7124C196 78.9126 197.5 76.5134 197.5 74.3141V70.7152C197.5 70.2153 197.1 69.9154 196.6 70.1154Z" fill="white"/>
<path d="M188.9 80.3124L188.4 80.1124C187.9 79.9125 187.5 80.2124 187.5 80.7122V84.3111C187.5 86.5104 189 88.9097 190.9 89.7094L191.4 89.9094C191.9 90.1093 192.3 89.8094 192.3 89.3096V85.7107C192.2 83.5114 190.7 81.1121 188.9 80.3124Z" fill="white"/>
<path d="M196.6 80.1124L196.1 80.3124C194.3 81.1121 192.8 83.5114 192.8 85.7107V89.3096C192.8 89.9094 193.2 90.2093 193.7 89.9094L194.2 89.7094C196 88.9097 197.5 86.5104 197.5 84.3111V80.7122C197.5 80.2124 197.1 79.9125 196.6 80.1124Z" fill="white"/>
<path d="M188.9 90.3092L188.4 90.1093C187.9 89.9093 187.5 90.2092 187.5 90.7091V94.308C187.5 96.5073 189 98.9065 190.9 99.7063L191.4 99.9062C191.9 100.106 192.3 99.8062 192.3 99.3064V95.7075C192.2 93.5082 190.7 91.1089 188.9 90.3092Z" fill="white"/>
<path d="M196.6 90.1093L196.1 90.3092C194.3 91.1089 192.8 93.5082 192.8 95.7075V99.3064C192.8 99.9062 193.2 100.206 193.7 99.9062L194.2 99.7063C196 98.9065 197.5 96.5073 197.5 94.308V90.7091C197.5 90.2092 197.1 89.9093 196.6 90.1093Z" fill="white"/>
<path d="M188.9 100.306L188.4 100.106C187.9 99.9061 187.5 100.206 187.5 100.706V104.305C187.5 106.504 189 108.903 190.9 109.703L191.4 109.903C191.9 110.103 192.3 109.803 192.3 109.303V105.704C192.2 103.505 190.7 101.106 188.9 100.306Z" fill="white"/>
<path d="M196.6 100.106L196.1 100.306C194.3 101.106 192.8 103.505 192.8 105.704V109.303C192.8 109.903 193.2 110.203 193.7 109.903L194.2 109.703C196 108.903 197.5 106.504 197.5 104.305V100.706C197.5 100.206 197.1 99.9061 196.6 100.106Z" fill="white"/>
<path d="M188.9 110.303L188.4 110.103C187.9 109.903 187.5 110.203 187.5 110.703V114.302C187.5 116.501 189 118.9 190.9 119.7L191.4 119.9C191.9 120.1 192.3 119.8 192.3 119.3V115.701C192.2 113.502 190.7 111.103 188.9 110.303Z" fill="white"/>
<path d="M196.6 110.103L196.1 110.303C194.3 111.103 192.8 113.502 192.8 115.701V119.3C192.8 119.9 193.2 120.2 193.7 119.9L194.2 119.7C196 118.9 197.5 116.501 197.5 114.302V110.703C197.5 110.203 197.1 109.903 196.6 110.103Z" fill="white"/>
<path d="M188.9 120.3L188.4 120.1C187.9 119.9 187.5 120.2 187.5 120.7V124.299C187.5 126.498 189 128.897 190.9 129.697L191.4 129.897C191.9 130.097 192.3 129.797 192.3 129.297V125.698C192.2 123.499 190.7 121.1 188.9 120.3Z" fill="white"/>
<path d="M196.6 120.1L196.1 120.3C194.3 121.1 192.8 123.499 192.8 125.698V129.297C192.8 129.897 193.2 130.197 193.7 129.897L194.2 129.697C196 128.897 197.5 126.498 197.5 124.299V120.7C197.5 120.2 197.1 119.9 196.6 120.1Z" fill="white"/>
<path d="M188.9 130.297L188.4 130.097C187.9 129.897 187.5 130.197 187.5 130.697V134.295C187.5 136.495 189 138.894 190.9 139.694L191.4 139.894C191.9 140.094 192.3 139.794 192.3 139.294V135.695C192.2 133.496 190.7 131.096 188.9 130.297Z" fill="white"/>
<path d="M196.6 130.097L196.1 130.297C194.3 131.096 192.8 133.496 192.8 135.695V139.294C192.8 139.894 193.2 140.194 193.7 139.894L194.2 139.694C196 138.894 197.5 136.495 197.5 134.295V130.697C197.5 130.197 197.1 129.897 196.6 130.097Z" fill="white"/>
<path d="M188.9 140.294L188.4 140.094C187.9 139.894 187.5 140.194 187.5 140.694V144.293C187.5 146.492 189 148.891 190.9 149.691L191.4 149.891C191.9 150.091 192.3 149.791 192.3 149.291V145.692C192.2 143.493 190.7 141.094 188.9 140.294Z" fill="white"/>
<path d="M196.6 140.094L196.1 140.294C194.3 141.094 192.8 143.493 192.8 145.692V149.291C192.8 149.891 193.2 150.191 193.7 149.891L194.2 149.691C196 148.891 197.5 146.492 197.5 144.293V140.694C197.5 140.194 197.1 139.894 196.6 140.094Z" fill="white"/>
<path d="M188.9 150.29L188.4 150.09C187.9 149.891 187.5 150.19 187.5 150.69V154.289C187.5 156.488 189 158.888 190.9 159.687L191.4 159.887C191.9 160.087 192.3 159.787 192.3 159.288V155.689C192.2 153.489 190.7 151.09 188.9 150.29Z" fill="white"/>
<path d="M196.6 150.09L196.1 150.29C194.3 151.09 192.8 153.489 192.8 155.689V159.288C192.8 159.887 193.2 160.187 193.7 159.887L194.2 159.687C196 158.888 197.5 156.488 197.5 154.289V150.69C197.5 150.19 197.1 149.891 196.6 150.09Z" fill="white"/>
<path d="M177.9 50.3216L177.4 50.1217C176.9 49.9218 176.5 50.2217 176.5 50.7215V54.3204C176.5 56.5197 178 58.919 179.9 59.7187L180.4 59.9187C180.9 60.1186 181.3 59.8187 181.3 59.3188V55.72C181.2 53.5207 179.7 51.1214 177.9 50.3216Z" fill="white"/>
<path d="M185.6 50.1217L185.1 50.3216C183.3 51.1214 181.8 53.5207 181.8 55.72V59.3188C181.8 59.9187 182.2 60.2186 182.7 59.9187L183.2 59.7187C185 58.919 186.5 56.5197 186.5 54.3204V50.7215C186.5 50.2217 186.1 49.9218 185.6 50.1217Z" fill="white"/>
<path d="M177.9 60.3187L177.4 60.1188C176.9 59.9188 176.5 60.2187 176.5 60.7186V64.3175C176.5 66.5168 178 68.916 179.9 69.7158L180.4 69.9157C180.9 70.1157 181.3 69.8158 181.3 69.3159V65.717C181.2 63.5177 179.7 61.1185 177.9 60.3187Z" fill="white"/>
<path d="M185.6 60.1188L185.1 60.3187C183.3 61.1185 181.8 63.5177 181.8 65.717V69.3159C181.8 69.9157 182.2 70.2156 182.7 69.9157L183.2 69.7158C185 68.916 186.5 66.5168 186.5 64.3175V60.7186C186.5 60.2187 186.1 59.9188 185.6 60.1188Z" fill="white"/>
<path d="M177.9 70.3153L177.4 70.1154C176.9 69.9154 176.5 70.2153 176.5 70.7152V74.3141C176.5 76.5134 178 78.9126 179.9 79.7124L180.4 79.9123C180.9 80.1122 181.3 79.8123 181.3 79.3125V75.7136C181.2 73.5143 179.7 71.115 177.9 70.3153Z" fill="white"/>
<path d="M185.6 70.1154L185.1 70.3153C183.3 71.115 181.8 73.5143 181.8 75.7136V79.3125C181.8 79.9123 182.2 80.2122 182.7 79.9123L183.2 79.7124C185 78.9126 186.5 76.5134 186.5 74.3141V70.7152C186.5 70.2153 186.1 69.9154 185.6 70.1154Z" fill="white"/>
<path d="M177.9 80.3124L177.4 80.1124C176.9 79.9125 176.5 80.2124 176.5 80.7122V84.3111C176.5 86.5104 178 88.9097 179.9 89.7094L180.4 89.9094C180.9 90.1093 181.3 89.8094 181.3 89.3096V85.7107C181.2 83.5114 179.7 81.1121 177.9 80.3124Z" fill="white"/>
<path d="M185.6 80.1124L185.1 80.3124C183.3 81.1121 181.8 83.5114 181.8 85.7107V89.3096C181.8 89.9094 182.2 90.2093 182.7 89.9094L183.2 89.7094C185 88.9097 186.5 86.5104 186.5 84.3111V80.7122C186.5 80.2124 186.1 79.9125 185.6 80.1124Z" fill="white"/>
<path d="M177.9 90.3092L177.4 90.1093C176.9 89.9093 176.5 90.2092 176.5 90.7091V94.308C176.5 96.5073 178 98.9065 179.9 99.7063L180.4 99.9062C180.9 100.106 181.3 99.8062 181.3 99.3064V95.7075C181.2 93.5082 179.7 91.1089 177.9 90.3092Z" fill="white"/>
<path d="M185.6 90.1093L185.1 90.3092C183.3 91.1089 181.8 93.5082 181.8 95.7075V99.3064C181.8 99.9062 182.2 100.206 182.7 99.9062L183.2 99.7063C185 98.9065 186.5 96.5073 186.5 94.308V90.7091C186.5 90.2092 186.1 89.9093 185.6 90.1093Z" fill="white"/>
<path d="M177.9 100.306L177.4 100.106C176.9 99.9061 176.5 100.206 176.5 100.706V104.305C176.5 106.504 178 108.903 179.9 109.703L180.4 109.903C180.9 110.103 181.3 109.803 181.3 109.303V105.704C181.2 103.505 179.7 101.106 177.9 100.306Z" fill="white"/>
<path d="M185.6 100.106L185.1 100.306C183.3 101.106 181.8 103.505 181.8 105.704V109.303C181.8 109.903 182.2 110.203 182.7 109.903L183.2 109.703C185 108.903 186.5 106.504 186.5 104.305V100.706C186.5 100.206 186.1 99.9061 185.6 100.106Z" fill="white"/>
<path d="M177.9 110.303L177.4 110.103C176.9 109.903 176.5 110.203 176.5 110.703V114.302C176.5 116.501 178 118.9 179.9 119.7L180.4 119.9C180.9 120.1 181.3 119.8 181.3 119.3V115.701C181.2 113.502 179.7 111.103 177.9 110.303Z" fill="white"/>
<path d="M185.6 110.103L185.1 110.303C183.3 111.103 181.8 113.502 181.8 115.701V119.3C181.8 119.9 182.2 120.2 182.7 119.9L183.2 119.7C185 118.9 186.5 116.501 186.5 114.302V110.703C186.5 110.203 186.1 109.903 185.6 110.103Z" fill="white"/>
<path d="M177.9 120.3L177.4 120.1C176.9 119.9 176.5 120.2 176.5 120.7V124.299C176.5 126.498 178 128.897 179.9 129.697L180.4 129.897C180.9 130.097 181.3 129.797 181.3 129.297V125.698C181.2 123.499 179.7 121.1 177.9 120.3Z" fill="white"/>
<path d="M185.6 120.1L185.1 120.3C183.3 121.1 181.8 123.499 181.8 125.698V129.297C181.8 129.897 182.2 130.197 182.7 129.897L183.2 129.697C185 128.897 186.5 126.498 186.5 124.299V120.7C186.5 120.2 186.1 119.9 185.6 120.1Z" fill="white"/>
<path d="M177.9 130.297L177.4 130.097C176.9 129.897 176.5 130.197 176.5 130.697V134.295C176.5 136.495 178 138.894 179.9 139.694L180.4 139.894C180.9 140.094 181.3 139.794 181.3 139.294V135.695C181.2 133.496 179.7 131.096 177.9 130.297Z" fill="white"/>
<path d="M185.6 130.097L185.1 130.297C183.3 131.096 181.8 133.496 181.8 135.695V139.294C181.8 139.894 182.2 140.194 182.7 139.894L183.2 139.694C185 138.894 186.5 136.495 186.5 134.295V130.697C186.5 130.197 186.1 129.897 185.6 130.097Z" fill="white"/>
<path d="M177.9 140.294L177.4 140.094C176.9 139.894 176.5 140.194 176.5 140.694V144.293C176.5 146.492 178 148.891 179.9 149.691L180.4 149.891C180.9 150.091 181.3 149.791 181.3 149.291V145.692C181.2 143.493 179.7 141.094 177.9 140.294Z" fill="white"/>
<path d="M185.6 140.094L185.1 140.294C183.3 141.094 181.8 143.493 181.8 145.692V149.291C181.8 149.891 182.2 150.191 182.7 149.891L183.2 149.691C185 148.891 186.5 146.492 186.5 144.293V140.694C186.5 140.194 186.1 139.894 185.6 140.094Z" fill="white"/>
<path d="M166.9 50.3216L166.4 50.1217C165.9 49.9218 165.5 50.2217 165.5 50.7215V54.3204C165.5 56.5197 167 58.919 168.9 59.7187L169.4 59.9187C169.9 60.1186 170.3 59.8187 170.3 59.3188V55.72C170.2 53.5207 168.7 51.1214 166.9 50.3216Z" fill="white"/>
<path d="M174.6 50.1217L174.1 50.3216C172.3 51.1214 170.8 53.5207 170.8 55.72V59.3188C170.8 59.9187 171.2 60.2186 171.7 59.9187L172.2 59.7187C174 58.919 175.5 56.5197 175.5 54.3204V50.7215C175.5 50.2217 175.1 49.9218 174.6 50.1217Z" fill="white"/>
<path d="M166.9 60.3187L166.4 60.1188C165.9 59.9188 165.5 60.2187 165.5 60.7186V64.3175C165.5 66.5168 167 68.916 168.9 69.7158L169.4 69.9157C169.9 70.1157 170.3 69.8158 170.3 69.3159V65.717C170.2 63.5177 168.7 61.1185 166.9 60.3187Z" fill="white"/>
<path d="M174.6 60.1188L174.1 60.3187C172.3 61.1185 170.8 63.5177 170.8 65.717V69.3159C170.8 69.9157 171.2 70.2156 171.7 69.9157L172.2 69.7158C174 68.916 175.5 66.5168 175.5 64.3175V60.7186C175.5 60.2187 175.1 59.9188 174.6 60.1188Z" fill="white"/>
<path d="M166.9 70.3153L166.4 70.1154C165.9 69.9154 165.5 70.2153 165.5 70.7152V74.3141C165.5 76.5134 167 78.9126 168.9 79.7124L169.4 79.9123C169.9 80.1122 170.3 79.8123 170.3 79.3125V75.7136C170.2 73.5143 168.7 71.115 166.9 70.3153Z" fill="white"/>
<path d="M174.6 70.1154L174.1 70.3153C172.3 71.115 170.8 73.5143 170.8 75.7136V79.3125C170.8 79.9123 171.2 80.2122 171.7 79.9123L172.2 79.7124C174 78.9126 175.5 76.5134 175.5 74.3141V70.7152C175.5 70.2153 175.1 69.9154 174.6 70.1154Z" fill="white"/>
<path d="M166.9 80.3124L166.4 80.1124C165.9 79.9125 165.5 80.2124 165.5 80.7122V84.3111C165.5 86.5104 167 88.9097 168.9 89.7094L169.4 89.9094C169.9 90.1093 170.3 89.8094 170.3 89.3096V85.7107C170.2 83.5114 168.7 81.1121 166.9 80.3124Z" fill="white"/>
<path d="M174.6 80.1124L174.1 80.3124C172.3 81.1121 170.8 83.5114 170.8 85.7107V89.3096C170.8 89.9094 171.2 90.2093 171.7 89.9094L172.2 89.7094C174 88.9097 175.5 86.5104 175.5 84.3111V80.7122C175.5 80.2124 175.1 79.9125 174.6 80.1124Z" fill="white"/>
<path d="M166.9 90.3092L166.4 90.1093C165.9 89.9093 165.5 90.2092 165.5 90.7091V94.308C165.5 96.5073 167 98.9065 168.9 99.7063L169.4 99.9062C169.9 100.106 170.3 99.8062 170.3 99.3064V95.7075C170.2 93.5082 168.7 91.1089 166.9 90.3092Z" fill="white"/>
<path d="M174.6 90.1093L174.1 90.3092C172.3 91.1089 170.8 93.5082 170.8 95.7075V99.3064C170.8 99.9062 171.2 100.206 171.7 99.9062L172.2 99.7063C174 98.9065 175.5 96.5073 175.5 94.308V90.7091C175.5 90.2092 175.1 89.9093 174.6 90.1093Z" fill="white"/>
<path d="M166.9 100.306L166.4 100.106C165.9 99.9061 165.5 100.206 165.5 100.706V104.305C165.5 106.504 167 108.903 168.9 109.703L169.4 109.903C169.9 110.103 170.3 109.803 170.3 109.303V105.704C170.2 103.505 168.7 101.106 166.9 100.306Z" fill="white"/>
<path d="M174.6 100.106L174.1 100.306C172.3 101.106 170.8 103.505 170.8 105.704V109.303C170.8 109.903 171.2 110.203 171.7 109.903L172.2 109.703C174 108.903 175.5 106.504 175.5 104.305V100.706C175.5 100.206 175.1 99.9061 174.6 100.106Z" fill="white"/>
<path d="M166.9 110.303L166.4 110.103C165.9 109.903 165.5 110.203 165.5 110.703V114.302C165.5 116.501 167 118.9 168.9 119.7L169.4 119.9C169.9 120.1 170.3 119.8 170.3 119.3V115.701C170.2 113.502 168.7 111.103 166.9 110.303Z" fill="white"/>
<path d="M174.6 110.103L174.1 110.303C172.3 111.103 170.8 113.502 170.8 115.701V119.3C170.8 119.9 171.2 120.2 171.7 119.9L172.2 119.7C174 118.9 175.5 116.501 175.5 114.302V110.703C175.5 110.203 175.1 109.903 174.6 110.103Z" fill="white"/>
<path d="M166.9 120.3L166.4 120.1C165.9 119.9 165.5 120.2 165.5 120.7V124.299C165.5 126.498 167 128.897 168.9 129.697L169.4 129.897C169.9 130.097 170.3 129.797 170.3 129.297V125.698C170.2 123.499 168.7 121.1 166.9 120.3Z" fill="white"/>
<path d="M174.6 120.1L174.1 120.3C172.3 121.1 170.8 123.499 170.8 125.698V129.297C170.8 129.897 171.2 130.197 171.7 129.897L172.2 129.697C174 128.897 175.5 126.498 175.5 124.299V120.7C175.5 120.2 175.1 119.9 174.6 120.1Z" fill="white"/>
<path d="M166.9 130.297L166.4 130.097C165.9 129.897 165.5 130.197 165.5 130.697V134.295C165.5 136.495 167 138.894 168.9 139.694L169.4 139.894C169.9 140.094 170.3 139.794 170.3 139.294V135.695C170.2 133.496 168.7 131.096 166.9 130.297Z" fill="white"/>
<path d="M174.6 130.097L174.1 130.297C172.3 131.096 170.8 133.496 170.8 135.695V139.294C170.8 139.894 171.2 140.194 171.7 139.894L172.2 139.694C174 138.894 175.5 136.495 175.5 134.295V130.697C175.5 130.197 175.1 129.897 174.6 130.097Z" fill="white"/>
<path d="M155.9 60.3187L155.4 60.1188C154.9 59.9188 154.5 60.2187 154.5 60.7186V64.3175C154.5 66.5168 156 68.916 157.9 69.7158L158.4 69.9157C158.9 70.1157 159.3 69.8158 159.3 69.3159V65.717C159.2 63.5177 157.7 61.1185 155.9 60.3187Z" fill="white"/>
<path d="M163.6 60.1188L163.1 60.3187C161.3 61.1185 159.8 63.5177 159.8 65.717V69.3159C159.8 69.9157 160.2 70.2156 160.7 69.9157L161.2 69.7158C163 68.916 164.5 66.5168 164.5 64.3175V60.7186C164.5 60.2187 164.1 59.9188 163.6 60.1188Z" fill="white"/>
<path d="M155.9 70.3153L155.4 70.1154C154.9 69.9154 154.5 70.2153 154.5 70.7152V74.3141C154.5 76.5134 156 78.9126 157.9 79.7124L158.4 79.9123C158.9 80.1122 159.3 79.8123 159.3 79.3125V75.7136C159.2 73.5143 157.7 71.115 155.9 70.3153Z" fill="white"/>
<path d="M163.6 70.1154L163.1 70.3153C161.3 71.115 159.8 73.5143 159.8 75.7136V79.3125C159.8 79.9123 160.2 80.2122 160.7 79.9123L161.2 79.7124C163 78.9126 164.5 76.5134 164.5 74.3141V70.7152C164.5 70.2153 164.1 69.9154 163.6 70.1154Z" fill="white"/>
<path d="M155.9 80.3124L155.4 80.1124C154.9 79.9125 154.5 80.2124 154.5 80.7122V84.3111C154.5 86.5104 156 88.9097 157.9 89.7094L158.4 89.9094C158.9 90.1093 159.3 89.8094 159.3 89.3096V85.7107C159.2 83.5114 157.7 81.1121 155.9 80.3124Z" fill="white"/>
<path d="M163.6 80.1124L163.1 80.3124C161.3 81.1121 159.8 83.5114 159.8 85.7107V89.3096C159.8 89.9094 160.2 90.2093 160.7 89.9094L161.2 89.7094C163 88.9097 164.5 86.5104 164.5 84.3111V80.7122C164.5 80.2124 164.1 79.9125 163.6 80.1124Z" fill="white"/>
<path d="M155.9 90.3092L155.4 90.1093C154.9 89.9093 154.5 90.2092 154.5 90.7091V94.308C154.5 96.5073 156 98.9065 157.9 99.7063L158.4 99.9062C158.9 100.106 159.3 99.8062 159.3 99.3064V95.7075C159.2 93.5082 157.7 91.1089 155.9 90.3092Z" fill="white"/>
<path d="M163.6 90.1093L163.1 90.3092C161.3 91.1089 159.8 93.5082 159.8 95.7075V99.3064C159.8 99.9062 160.2 100.206 160.7 99.9062L161.2 99.7063C163 98.9065 164.5 96.5073 164.5 94.308V90.7091C164.5 90.2092 164.1 89.9093 163.6 90.1093Z" fill="white"/>
<path d="M155.9 100.306L155.4 100.106C154.9 99.9061 154.5 100.206 154.5 100.706V104.305C154.5 106.504 156 108.903 157.9 109.703L158.4 109.903C158.9 110.103 159.3 109.803 159.3 109.303V105.704C159.2 103.505 157.7 101.106 155.9 100.306Z" fill="white"/>
<path d="M163.6 100.106L163.1 100.306C161.3 101.106 159.8 103.505 159.8 105.704V109.303C159.8 109.903 160.2 110.203 160.7 109.903L161.2 109.703C163 108.903 164.5 106.504 164.5 104.305V100.706C164.5 100.206 164.1 99.9061 163.6 100.106Z" fill="white"/>
<path d="M155.9 110.303L155.4 110.103C154.9 109.903 154.5 110.203 154.5 110.703V114.302C154.5 116.501 156 118.9 157.9 119.7L158.4 119.9C158.9 120.1 159.3 119.8 159.3 119.3V115.701C159.2 113.502 157.7 111.103 155.9 110.303Z" fill="white"/>
<path d="M163.6 110.103L163.1 110.303C161.3 111.103 159.8 113.502 159.8 115.701V119.3C159.8 119.9 160.2 120.2 160.7 119.9L161.2 119.7C163 118.9 164.5 116.501 164.5 114.302V110.703C164.5 110.203 164.1 109.903 163.6 110.103Z" fill="white"/>
</svg>
