<svg width="151" height="86" viewBox="0 0 151 86" fill="none" xmlns="http://www.w3.org/2000/svg">
<g filter="url(#filter0_d_156_2250)">
<path d="M38.2951 39.4459C36.4284 39.4459 34.6868 39.4459 33.0701 39.4459C31.4535 39.4459 29.9701 39.4459 28.6201 39.4459C27.2701 39.4459 26.0535 39.4459 24.9701 39.4459C24.9701 38.0152 24.9701 36.6289 24.9701 35.2868C24.9701 33.9321 24.9701 32.4001 24.9701 30.6909V21.4231C24.9701 19.6506 24.9701 18.068 24.9701 16.6753C24.9701 15.2699 24.9701 13.8329 24.9701 12.3643C27.0535 12.3643 29.4368 12.3643 32.1201 12.3643C34.8035 12.3643 37.4785 12.3643 40.1451 12.3643C42.7951 12.3643 44.9868 12.5162 46.7201 12.8201C48.4535 13.1113 49.8201 13.5291 50.8201 14.0735C51.8368 14.6179 52.5534 15.2636 52.9701 16.0106C53.3868 16.7576 53.5951 17.5869 53.5951 18.4985C53.5951 19.6506 53.3035 20.6508 52.7201 21.4991C52.1368 22.3474 51.3451 23.0437 50.3451 23.5881C49.3451 24.1199 48.2201 24.4934 46.9701 24.7086V25.2594C48.5035 25.5253 49.8201 25.9178 50.9201 26.4368C52.0368 26.9559 52.8868 27.6523 53.4701 28.5259C54.0535 29.3868 54.3451 30.4693 54.3451 31.7734C54.3451 32.9382 54.1035 33.9954 53.6201 34.945C53.1368 35.8819 52.3035 36.6858 51.1201 37.3569C49.9368 38.0279 48.3035 38.547 46.2201 38.9142C44.1368 39.2687 41.4951 39.4459 38.2951 39.4459ZM35.0951 33.9004H39.2701C40.2368 33.9004 41.0451 33.7992 41.6951 33.5966C42.3618 33.394 42.8535 33.0838 43.1701 32.666C43.5035 32.2482 43.6701 31.7291 43.6701 31.1087C43.6701 30.2098 43.3201 29.5261 42.6201 29.0577C41.9201 28.5892 40.8785 28.355 39.4951 28.355H32.6451V23.3223H38.9451C39.8285 23.3223 40.5701 23.2147 41.1701 22.9994C41.7701 22.7715 42.2201 22.455 42.5201 22.0498C42.8368 21.632 42.9951 21.1319 42.9951 20.5495C42.9951 19.6886 42.6951 19.0176 42.0951 18.5364C41.5118 18.0553 40.5951 17.8148 39.3451 17.8148H35.0951C35.0951 18.5871 35.0951 19.3911 35.0951 20.2267C35.0951 21.0496 35.0951 22.0119 35.0951 23.1134V29.0007C35.0951 30.0262 35.0951 30.9188 35.0951 31.6785C35.0951 32.4381 35.0951 33.1788 35.0951 33.9004Z" fill="white"/>
<path d="M73.9389 39.9967C70.1389 39.9967 67.0972 39.5535 64.8139 38.6673C62.5305 37.7684 60.8805 36.4833 59.8639 34.812C58.8472 33.1408 58.3389 31.153 58.3389 28.8487C58.3389 28.3803 58.3389 27.7473 58.3389 26.9496C58.3389 26.152 58.3389 25.272 58.3389 24.3098C58.3389 23.3349 58.3389 22.379 58.3389 21.4421C58.3389 19.6569 58.3389 18.068 58.3389 16.6753C58.3389 15.2699 58.3389 13.8329 58.3389 12.3643H68.6389C68.6389 13.8329 68.6389 15.2699 68.6389 16.6753C68.6389 18.068 68.6389 19.6569 68.6389 21.4421V28.5069C68.6389 29.6084 68.8222 30.5453 69.1889 31.3176C69.5722 32.0773 70.1555 32.6533 70.9389 33.0458C71.7222 33.4383 72.7139 33.6346 73.9139 33.6346C75.1639 33.6346 76.1639 33.4383 76.9139 33.0458C77.6805 32.6533 78.2305 32.0773 78.5639 31.3176C78.9139 30.5453 79.0889 29.6021 79.0889 28.4879V21.4421C79.0889 19.6569 79.0889 18.068 79.0889 16.6753C79.0889 15.2699 79.0889 13.8329 79.0889 12.3643H89.3889C89.3889 13.8329 89.3889 15.2699 89.3889 16.6753C89.3889 18.068 89.3889 19.6569 89.3889 21.4421C89.3889 22.379 89.3889 23.3413 89.3889 24.3288C89.3889 25.3037 89.3889 26.1963 89.3889 27.0066C89.3889 27.8169 89.3889 28.4373 89.3889 28.8677C89.3889 31.172 88.8472 33.1598 87.7639 34.831C86.6805 36.4896 84.9972 37.7684 82.7139 38.6673C80.4472 39.5535 77.5222 39.9967 73.9389 39.9967Z" fill="white"/>
<path d="M104.617 30.463L97.492 19.505C96.7253 18.3149 95.9837 17.1754 95.267 16.0866C94.567 14.9977 93.7587 13.757 92.842 12.3643H104.542C104.992 13.3138 105.367 14.1368 105.667 14.8331C105.984 15.5168 106.284 16.1689 106.567 16.7892C106.85 17.397 107.167 18.068 107.517 18.8023L109.167 22.3917H109.967L111.617 18.8973C112 18.125 112.342 17.4223 112.642 16.7892C112.942 16.1435 113.259 15.4788 113.592 14.7952C113.925 14.0988 114.317 13.2885 114.767 12.3643H126.067C125.317 13.5544 124.55 14.7572 123.767 15.9726C123 17.1754 122.25 18.3465 121.517 19.486L114.467 30.463H104.617ZM104.392 39.4459C104.392 38.0152 104.392 36.6289 104.392 35.2868C104.392 33.9321 104.392 32.4001 104.392 30.6909V23.873H114.717V30.6909C114.717 32.4001 114.717 33.9321 114.717 35.2868C114.717 36.6289 114.717 38.0152 114.717 39.4459H104.392Z" fill="white"/>
<path d="M12.4219 72.8707C12.4219 71.44 12.4219 70.0536 12.4219 68.7116C12.4219 67.3569 12.4219 65.8249 12.4219 64.1157V54.8669C12.4219 53.0817 12.4219 51.4928 12.4219 50.1001C12.4219 48.6947 12.4219 47.2577 12.4219 45.789H21.3219C22.7385 47.397 24.0552 48.8909 25.2719 50.271C26.4885 51.6384 27.7135 53.0247 28.9469 54.4301L33.6719 59.7667H34.3969V54.8669C34.3969 53.0817 34.3969 51.4928 34.3969 50.1001C34.3969 48.6947 34.3969 47.2577 34.3969 45.789H44.0219C44.0219 47.2577 44.0219 48.6947 44.0219 50.1001C44.0219 51.4928 44.0219 53.0817 44.0219 54.8669V64.1157C44.0219 65.8249 44.0219 67.3569 44.0219 68.7116C44.0219 70.0536 44.0219 71.44 44.0219 72.8707H35.2219C34.0552 71.5666 32.8469 70.2182 31.5969 68.8255C30.3635 67.4328 29.0219 65.9135 27.5719 64.2676L22.7469 58.8741H22.0469V64.1157C22.0469 65.8249 22.0469 67.3569 22.0469 68.7116C22.0469 70.0536 22.0469 71.44 22.0469 72.8707H12.4219Z" fill="white"/>
<path d="M67.3992 73.4214C64.0826 73.4214 61.2242 73.0479 58.8242 72.301C56.4242 71.5413 54.4576 70.5031 52.9242 69.1864C51.4076 67.857 50.2826 66.3503 49.5492 64.6664C48.8159 62.9825 48.4492 61.2163 48.4492 59.3678C48.4492 56.7344 49.1242 54.3478 50.4742 52.2081C51.8409 50.0684 53.8992 48.3655 56.6492 47.0994C59.4159 45.8333 62.9159 45.2003 67.1492 45.2003C70.3659 45.2003 73.1576 45.5675 75.5242 46.3018C77.8909 47.0361 79.8492 48.049 81.3992 49.3404C82.9492 50.6318 84.1076 52.1321 84.8742 53.8414C85.6409 55.5506 86.0242 57.3801 86.0242 59.3299C86.0242 62.0393 85.3242 64.4575 83.9242 66.5846C82.5242 68.6989 80.4409 70.3702 77.6742 71.5983C74.9076 72.8137 71.4826 73.4214 67.3992 73.4214ZM67.2742 67.0593C68.5909 67.0593 69.7409 66.8568 70.7242 66.4516C71.7076 66.0465 72.5409 65.4894 73.2242 64.7804C73.9076 64.0587 74.4159 63.2358 74.7492 62.3115C75.0992 61.3746 75.2742 60.3807 75.2742 59.3299C75.2742 58.241 75.0826 57.2282 74.6992 56.2912C74.3326 55.3417 73.7992 54.5187 73.0992 53.8224C72.4159 53.1134 71.5826 52.5626 70.5992 52.1701C69.6159 51.7776 68.5076 51.5814 67.2742 51.5814C65.9909 51.5814 64.8492 51.784 63.8492 52.1891C62.8492 52.5816 62.0076 53.1324 61.3242 53.8414C60.6409 54.5504 60.1159 55.3797 59.7492 56.3292C59.3826 57.2661 59.1992 58.2663 59.1992 59.3299C59.1992 60.3807 59.3742 61.3746 59.7242 62.3115C60.0742 63.2358 60.5826 64.0587 61.2492 64.7804C61.9326 65.4894 62.7742 66.0465 63.7742 66.4516C64.7909 66.8568 65.9576 67.0593 67.2742 67.0593Z" fill="white"/>
<path d="M96.2773 72.8707C95.8273 71.5286 95.344 70.098 94.8273 68.5786C94.3273 67.0467 93.8607 65.6287 93.4273 64.3246L90.6023 55.7975C90.1023 54.2908 89.5523 52.6449 88.9523 50.8597C88.369 49.0745 87.8107 47.3843 87.2773 45.789H98.9773C99.2773 47.283 99.6023 48.8593 99.9523 50.5179C100.319 52.1765 100.652 53.7527 100.952 55.2467L102.702 63.5649H103.427L105.327 55.1138C105.561 54.1642 105.794 53.1577 106.027 52.0942C106.277 51.018 106.519 49.9418 106.752 48.8656C107.002 47.7895 107.244 46.7639 107.477 45.789H118.227C118.594 47.283 118.969 48.8403 119.352 50.4609C119.736 52.0815 120.111 53.6515 120.477 55.1708L122.477 63.5649H123.177L124.952 55.1138C125.252 53.6704 125.577 52.1195 125.927 50.4609C126.277 48.8023 126.594 47.245 126.877 45.789H138.577C138.027 47.397 137.452 49.0935 136.852 50.8787C136.252 52.6512 135.694 54.2718 135.177 55.7405L132.252 64.3246C131.786 65.6666 131.294 67.0973 130.777 68.6166C130.277 70.1359 129.802 71.554 129.352 72.8707H116.977C116.627 71.554 116.252 70.1739 115.852 68.7306C115.469 67.2746 115.102 65.8819 114.752 64.5525L112.752 57.0699H112.027L110.127 64.5525C109.811 65.8566 109.461 67.2429 109.077 68.7116C108.711 70.1803 108.361 71.5666 108.027 72.8707H96.2773Z" fill="white"/>
</g>
<g filter="url(#filter1_d_156_2250)">
<path d="M38.2951 39.4459C36.4284 39.4459 34.6868 39.4459 33.0701 39.4459C31.4535 39.4459 29.9701 39.4459 28.6201 39.4459C27.2701 39.4459 26.0535 39.4459 24.9701 39.4459C24.9701 38.0152 24.9701 36.6289 24.9701 35.2868C24.9701 33.9321 24.9701 32.4001 24.9701 30.6909V21.4231C24.9701 19.6506 24.9701 18.068 24.9701 16.6753C24.9701 15.2699 24.9701 13.8329 24.9701 12.3643C27.0535 12.3643 29.4368 12.3643 32.1201 12.3643C34.8035 12.3643 37.4785 12.3643 40.1451 12.3643C42.7951 12.3643 44.9868 12.5162 46.7201 12.8201C48.4535 13.1113 49.8201 13.5291 50.8201 14.0735C51.8368 14.6179 52.5534 15.2636 52.9701 16.0106C53.3868 16.7576 53.5951 17.5869 53.5951 18.4985C53.5951 19.6506 53.3035 20.6508 52.7201 21.4991C52.1368 22.3474 51.3451 23.0437 50.3451 23.5881C49.3451 24.1199 48.2201 24.4934 46.9701 24.7086V25.2594C48.5035 25.5253 49.8201 25.9178 50.9201 26.4368C52.0368 26.9559 52.8868 27.6523 53.4701 28.5259C54.0535 29.3868 54.3451 30.4693 54.3451 31.7734C54.3451 32.9382 54.1035 33.9954 53.6201 34.945C53.1368 35.8819 52.3035 36.6858 51.1201 37.3569C49.9368 38.0279 48.3035 38.547 46.2201 38.9142C44.1368 39.2687 41.4951 39.4459 38.2951 39.4459ZM35.0951 33.9004H39.2701C40.2368 33.9004 41.0451 33.7992 41.6951 33.5966C42.3618 33.394 42.8535 33.0838 43.1701 32.666C43.5035 32.2482 43.6701 31.7291 43.6701 31.1087C43.6701 30.2098 43.3201 29.5261 42.6201 29.0577C41.9201 28.5892 40.8785 28.355 39.4951 28.355H32.6451V23.3223H38.9451C39.8285 23.3223 40.5701 23.2147 41.1701 22.9994C41.7701 22.7715 42.2201 22.455 42.5201 22.0498C42.8368 21.632 42.9951 21.1319 42.9951 20.5495C42.9951 19.6886 42.6951 19.0176 42.0951 18.5364C41.5118 18.0553 40.5951 17.8148 39.3451 17.8148H35.0951C35.0951 18.5871 35.0951 19.3911 35.0951 20.2267C35.0951 21.0496 35.0951 22.0119 35.0951 23.1134V29.0007C35.0951 30.0262 35.0951 30.9188 35.0951 31.6785C35.0951 32.4381 35.0951 33.1788 35.0951 33.9004Z" fill="white"/>
<path d="M73.9389 39.9967C70.1389 39.9967 67.0972 39.5535 64.8139 38.6673C62.5305 37.7684 60.8805 36.4833 59.8639 34.812C58.8472 33.1408 58.3389 31.153 58.3389 28.8487C58.3389 28.3803 58.3389 27.7473 58.3389 26.9496C58.3389 26.152 58.3389 25.272 58.3389 24.3098C58.3389 23.3349 58.3389 22.379 58.3389 21.4421C58.3389 19.6569 58.3389 18.068 58.3389 16.6753C58.3389 15.2699 58.3389 13.8329 58.3389 12.3643H68.6389C68.6389 13.8329 68.6389 15.2699 68.6389 16.6753C68.6389 18.068 68.6389 19.6569 68.6389 21.4421V28.5069C68.6389 29.6084 68.8222 30.5453 69.1889 31.3176C69.5722 32.0773 70.1555 32.6533 70.9389 33.0458C71.7222 33.4383 72.7139 33.6346 73.9139 33.6346C75.1639 33.6346 76.1639 33.4383 76.9139 33.0458C77.6805 32.6533 78.2305 32.0773 78.5639 31.3176C78.9139 30.5453 79.0889 29.6021 79.0889 28.4879V21.4421C79.0889 19.6569 79.0889 18.068 79.0889 16.6753C79.0889 15.2699 79.0889 13.8329 79.0889 12.3643H89.3889C89.3889 13.8329 89.3889 15.2699 89.3889 16.6753C89.3889 18.068 89.3889 19.6569 89.3889 21.4421C89.3889 22.379 89.3889 23.3413 89.3889 24.3288C89.3889 25.3037 89.3889 26.1963 89.3889 27.0066C89.3889 27.8169 89.3889 28.4373 89.3889 28.8677C89.3889 31.172 88.8472 33.1598 87.7639 34.831C86.6805 36.4896 84.9972 37.7684 82.7139 38.6673C80.4472 39.5535 77.5222 39.9967 73.9389 39.9967Z" fill="white"/>
<path d="M104.617 30.463L97.492 19.505C96.7253 18.3149 95.9837 17.1754 95.267 16.0866C94.567 14.9977 93.7587 13.757 92.842 12.3643H104.542C104.992 13.3138 105.367 14.1368 105.667 14.8331C105.984 15.5168 106.284 16.1689 106.567 16.7892C106.85 17.397 107.167 18.068 107.517 18.8023L109.167 22.3917H109.967L111.617 18.8973C112 18.125 112.342 17.4223 112.642 16.7892C112.942 16.1435 113.259 15.4788 113.592 14.7952C113.925 14.0988 114.317 13.2885 114.767 12.3643H126.067C125.317 13.5544 124.55 14.7572 123.767 15.9726C123 17.1754 122.25 18.3465 121.517 19.486L114.467 30.463H104.617ZM104.392 39.4459C104.392 38.0152 104.392 36.6289 104.392 35.2868C104.392 33.9321 104.392 32.4001 104.392 30.6909V23.873H114.717V30.6909C114.717 32.4001 114.717 33.9321 114.717 35.2868C114.717 36.6289 114.717 38.0152 114.717 39.4459H104.392Z" fill="white"/>
<path d="M12.4219 72.8707C12.4219 71.44 12.4219 70.0536 12.4219 68.7116C12.4219 67.3569 12.4219 65.8249 12.4219 64.1157V54.8669C12.4219 53.0817 12.4219 51.4928 12.4219 50.1001C12.4219 48.6947 12.4219 47.2577 12.4219 45.789H21.3219C22.7385 47.397 24.0552 48.891 25.2719 50.271C26.4885 51.6384 27.7135 53.0247 28.9469 54.4301L33.6719 59.7667H34.3969V54.8669C34.3969 53.0817 34.3969 51.4928 34.3969 50.1001C34.3969 48.6947 34.3969 47.2577 34.3969 45.789H44.0219C44.0219 47.2577 44.0219 48.6947 44.0219 50.1001C44.0219 51.4928 44.0219 53.0817 44.0219 54.8669V64.1157C44.0219 65.8249 44.0219 67.3569 44.0219 68.7116C44.0219 70.0536 44.0219 71.44 44.0219 72.8707H35.2219C34.0552 71.5666 32.8469 70.2182 31.5969 68.8255C30.3635 67.4328 29.0219 65.9135 27.5719 64.2676L22.7469 58.8741H22.0469V64.1157C22.0469 65.8249 22.0469 67.3569 22.0469 68.7116C22.0469 70.0536 22.0469 71.44 22.0469 72.8707H12.4219Z" fill="white"/>
<path d="M67.3992 73.4214C64.0826 73.4214 61.2242 73.0479 58.8242 72.301C56.4242 71.5413 54.4576 70.5031 52.9242 69.1864C51.4076 67.857 50.2826 66.3503 49.5492 64.6664C48.8159 62.9825 48.4492 61.2163 48.4492 59.3678C48.4492 56.7344 49.1242 54.3478 50.4742 52.2081C51.8409 50.0684 53.8992 48.3655 56.6492 47.0994C59.4159 45.8333 62.9159 45.2003 67.1492 45.2003C70.3659 45.2003 73.1576 45.5675 75.5242 46.3018C77.8909 47.0361 79.8492 48.049 81.3992 49.3404C82.9492 50.6318 84.1076 52.1321 84.8742 53.8414C85.6409 55.5506 86.0242 57.3801 86.0242 59.3299C86.0242 62.0393 85.3242 64.4575 83.9242 66.5846C82.5242 68.6989 80.4409 70.3702 77.6742 71.5983C74.9076 72.8137 71.4826 73.4214 67.3992 73.4214ZM67.2742 67.0593C68.5909 67.0593 69.7409 66.8568 70.7242 66.4516C71.7076 66.0465 72.5409 65.4894 73.2242 64.7804C73.9076 64.0587 74.4159 63.2357 74.7492 62.3115C75.0992 61.3746 75.2742 60.3807 75.2742 59.3299C75.2742 58.241 75.0826 57.2282 74.6992 56.2912C74.3326 55.3417 73.7992 54.5187 73.0992 53.8224C72.4159 53.1134 71.5826 52.5626 70.5992 52.1701C69.6159 51.7776 68.5076 51.5814 67.2742 51.5814C65.9909 51.5814 64.8492 51.784 63.8492 52.1891C62.8492 52.5816 62.0076 53.1324 61.3242 53.8414C60.6409 54.5504 60.1159 55.3797 59.7492 56.3292C59.3826 57.2661 59.1992 58.2663 59.1992 59.3299C59.1992 60.3807 59.3742 61.3746 59.7242 62.3115C60.0742 63.2357 60.5826 64.0587 61.2492 64.7804C61.9326 65.4894 62.7742 66.0465 63.7742 66.4516C64.7909 66.8568 65.9576 67.0593 67.2742 67.0593Z" fill="white"/>
<path d="M96.2773 72.8707C95.8273 71.5286 95.344 70.098 94.8273 68.5786C94.3273 67.0467 93.8607 65.6287 93.4273 64.3246L90.6023 55.7975C90.1023 54.2908 89.5523 52.6449 88.9523 50.8597C88.369 49.0745 87.8107 47.3843 87.2773 45.789H98.9773C99.2773 47.283 99.6023 48.8593 99.9523 50.5179C100.319 52.1765 100.652 53.7527 100.952 55.2467L102.702 63.5649H103.427L105.327 55.1138C105.561 54.1642 105.794 53.1577 106.027 52.0942C106.277 51.018 106.519 49.9418 106.752 48.8656C107.002 47.7895 107.244 46.7639 107.477 45.789H118.227C118.594 47.283 118.969 48.8403 119.352 50.4609C119.736 52.0815 120.111 53.6515 120.477 55.1708L122.477 63.5649H123.177L124.952 55.1138C125.252 53.6704 125.577 52.1195 125.927 50.4609C126.277 48.8023 126.594 47.245 126.877 45.789H138.577C138.027 47.397 137.452 49.0935 136.852 50.8787C136.252 52.6512 135.694 54.2718 135.177 55.7405L132.252 64.3246C131.786 65.6666 131.294 67.0973 130.777 68.6166C130.277 70.1359 129.802 71.554 129.352 72.8707H116.977C116.627 71.554 116.252 70.1739 115.852 68.7306C115.469 67.2746 115.102 65.8819 114.752 64.5525L112.752 57.0699H112.027L110.127 64.5525C109.811 65.8566 109.461 67.2429 109.077 68.7116C108.711 70.1803 108.361 71.5666 108.027 72.8707H96.2773Z" fill="white"/>
</g>
<defs>
<filter id="filter0_d_156_2250" x="4.42188" y="4.36426" width="146.155" height="81.0571" filterUnits="userSpaceOnUse" color-interpolation-filters="sRGB">
<feFlood flood-opacity="0" result="BackgroundImageFix"/>
<feColorMatrix in="SourceAlpha" type="matrix" values="0 0 0 0 0 0 0 0 0 0 0 0 0 0 0 0 0 0 127 0" result="hardAlpha"/>
<feOffset dx="2" dy="2"/>
<feGaussianBlur stdDeviation="5"/>
<feComposite in2="hardAlpha" operator="out"/>
<feColorMatrix type="matrix" values="0 0 0 0 0.554167 0 0 0 0 0.417896 0 0 0 0 0.0923611 0 0 0 0.8 0"/>
<feBlend mode="normal" in2="BackgroundImageFix" result="effect1_dropShadow_156_2250"/>
<feBlend mode="normal" in="SourceGraphic" in2="effect1_dropShadow_156_2250" result="shape"/>
</filter>
<filter id="filter1_d_156_2250" x="0.421875" y="0.364258" width="146.155" height="81.0571" filterUnits="userSpaceOnUse" color-interpolation-filters="sRGB">
<feFlood flood-opacity="0" result="BackgroundImageFix"/>
<feColorMatrix in="SourceAlpha" type="matrix" values="0 0 0 0 0 0 0 0 0 0 0 0 0 0 0 0 0 0 127 0" result="hardAlpha"/>
<feOffset dx="-2" dy="-2"/>
<feGaussianBlur stdDeviation="5"/>
<feComposite in2="hardAlpha" operator="out"/>
<feColorMatrix type="matrix" values="0 0 0 0 0.991667 0 0 0 0 0.966278 0 0 0 0 0.780937 0 0 0 1 0"/>
<feBlend mode="normal" in2="BackgroundImageFix" result="effect1_dropShadow_156_2250"/>
<feBlend mode="normal" in="SourceGraphic" in2="effect1_dropShadow_156_2250" result="shape"/>
</filter>
</defs>
</svg>
