<svg width="168" height="27" viewBox="0 0 168 27" fill="none" xmlns="http://www.w3.org/2000/svg">
<g filter="url(#filter0_dd_156_5347)">
<path d="M12.8947 21.7459C11.7095 21.7459 10.6037 21.7459 9.57729 21.7459C8.55086 21.7459 7.60909 21.7459 6.75197 21.7459C5.89485 21.7459 5.12238 21.7459 4.43457 21.7459C4.43457 20.8376 4.43457 19.9574 4.43457 19.1053C4.43457 18.2452 4.43457 17.2725 4.43457 16.1873V10.3031C4.43457 9.17776 4.43457 8.17298 4.43457 7.28875C4.43457 6.39648 4.43457 5.48411 4.43457 4.55165C5.75729 4.55165 7.27047 4.55165 8.97413 4.55165C10.6778 4.55165 12.3762 4.55165 14.0692 4.55165C15.7517 4.55165 17.1432 4.64811 18.2437 4.84104C19.3442 5.02592 20.2119 5.29119 20.8468 5.63684C21.4923 5.9825 21.9473 6.39246 22.2119 6.86673C22.4764 7.341 22.6087 7.86751 22.6087 8.44628C22.6087 9.17778 22.4235 9.8128 22.0532 10.3514C21.6828 10.89 21.1802 11.3321 20.5452 11.6777C19.9103 12.0153 19.1961 12.2525 18.4025 12.3891V12.7388C19.376 12.9076 20.2119 13.1568 20.9103 13.4864C21.6193 13.816 22.159 14.2581 22.5293 14.8128C22.8997 15.3594 23.0849 16.0467 23.0849 16.8746C23.0849 17.6142 22.9314 18.2854 22.6246 18.8883C22.3177 19.4831 21.7886 19.9935 21.0373 20.4196C20.286 20.8456 19.249 21.1752 17.9263 21.4083C16.6036 21.6334 14.9264 21.7459 12.8947 21.7459ZM10.863 18.2251H13.5137C14.1274 18.2251 14.6406 18.1608 15.0533 18.0322C15.4766 17.9035 15.7888 17.7066 15.9898 17.4413C16.2015 17.1761 16.3073 16.8465 16.3073 16.4526C16.3073 15.8819 16.0851 15.4478 15.6406 15.1504C15.1962 14.853 14.5348 14.7042 13.6565 14.7042H9.30746V11.5089H13.3073C13.8682 11.5089 14.3391 11.4406 14.72 11.3039C15.101 11.1592 15.3867 10.9583 15.5771 10.701C15.7782 10.4358 15.8787 10.1183 15.8787 9.74849C15.8787 9.20188 15.6882 8.77586 15.3073 8.4704C14.9369 8.16494 14.3549 8.01221 13.5613 8.01221H10.863C10.863 8.50255 10.863 9.01298 10.863 9.54351C10.863 10.066 10.863 10.6769 10.863 11.3763V15.1142C10.863 15.7653 10.863 16.332 10.863 16.8143C10.863 17.2966 10.863 17.7669 10.863 18.2251Z" fill="white"/>
<path d="M35.525 22.0956C33.1124 22.0956 31.1812 21.8143 29.7315 21.2516C28.2818 20.6808 27.2342 19.8649 26.5887 18.8038C25.9433 17.7428 25.6205 16.4807 25.6205 15.0177C25.6205 14.7203 25.6205 14.3184 25.6205 13.8119C25.6205 13.3055 25.6205 12.7468 25.6205 12.1359C25.6205 11.517 25.6205 10.91 25.6205 10.3152C25.6205 9.18178 25.6205 8.17298 25.6205 7.28875C25.6205 6.39648 25.6205 5.48411 25.6205 4.55165H32.16C32.16 5.48411 32.16 6.39648 32.16 7.28875C32.16 8.17298 32.16 9.18178 32.16 10.3152V14.8007C32.16 15.5 32.2764 16.0949 32.5092 16.5852C32.7526 17.0675 33.123 17.4333 33.6203 17.6825C34.1176 17.9317 34.7473 18.0563 35.5091 18.0563C36.3028 18.0563 36.9377 17.9317 37.4139 17.6825C37.9006 17.4333 38.2498 17.0675 38.4614 16.5852C38.6837 16.0949 38.7948 15.496 38.7948 14.7886V10.3152C38.7948 9.18178 38.7948 8.17298 38.7948 7.28875C38.7948 6.39648 38.7948 5.48411 38.7948 4.55165H45.3343C45.3343 5.48411 45.3343 6.39648 45.3343 7.28875C45.3343 8.17298 45.3343 9.18178 45.3343 10.3152C45.3343 10.91 45.3343 11.521 45.3343 12.148C45.3343 12.7669 45.3343 13.3336 45.3343 13.8481C45.3343 14.3626 45.3343 14.7565 45.3343 15.0298C45.3343 16.4928 44.9904 17.7548 44.3026 18.8159C43.6147 19.8689 42.546 20.6808 41.0963 21.2516C39.6572 21.8143 37.8001 22.0956 35.525 22.0956Z" fill="white"/>
<path d="M55.0027 16.0426L50.479 9.08534C49.9922 8.32973 49.5213 7.60626 49.0663 6.91496C48.6219 6.22365 48.1087 5.43588 47.5267 4.55165H54.9551C55.2408 5.15454 55.4788 5.67703 55.6693 6.11915C55.8704 6.55323 56.0608 6.96721 56.2407 7.36109C56.4206 7.74694 56.6217 8.17298 56.8439 8.63921L57.8915 10.9181H58.3994L59.447 8.6995C59.6904 8.20915 59.9073 7.76302 60.0978 7.36109C60.2882 6.95113 60.4893 6.52911 60.7009 6.09503C60.9126 5.65292 61.1612 5.13846 61.4469 4.55165H68.6214C68.1452 5.30727 67.6584 6.07092 67.1611 6.84261C66.6743 7.60626 66.1981 8.34982 65.7325 9.07328L61.2565 16.0426H55.0027ZM54.8598 21.7459C54.8598 20.8376 54.8598 19.9574 54.8598 19.1053C54.8598 18.2452 54.8598 17.2725 54.8598 16.1873V11.8586H61.4152V16.1873C61.4152 17.2725 61.4152 18.2452 61.4152 19.1053C61.4152 19.9574 61.4152 20.8376 61.4152 21.7459H54.8598Z" fill="white"/>
<path d="M83.4707 21.7194C83.4707 20.8111 83.4707 19.9309 83.4707 19.0788C83.4707 18.2187 83.4707 17.246 83.4707 16.1608V10.2887C83.4707 9.1553 83.4707 8.14648 83.4707 7.26225C83.4707 6.36998 83.4707 5.45762 83.4707 4.52515H89.1214C90.0208 5.54604 90.8568 6.49457 91.6293 7.37077C92.4017 8.23892 93.1795 9.11913 93.9625 10.0114L96.9624 13.3996H97.4227V10.2887C97.4227 9.1553 97.4227 8.14648 97.4227 7.26225C97.4227 6.36998 97.4227 5.45762 97.4227 4.52515H103.534C103.534 5.45762 103.534 6.36998 103.534 7.26225C103.534 8.14648 103.534 9.1553 103.534 10.2887V16.1608C103.534 17.246 103.534 18.2187 103.534 19.0788C103.534 19.9309 103.534 20.8111 103.534 21.7194H97.9465C97.2058 20.8914 96.4387 20.0354 95.645 19.1511C94.862 18.2669 94.0101 17.3023 93.0895 16.2573L90.0261 12.8329H89.5817V16.1608C89.5817 17.246 89.5817 18.2187 89.5817 19.0788C89.5817 19.9309 89.5817 20.8111 89.5817 21.7194H83.4707Z" fill="white"/>
<path d="M118.376 22.0691C116.27 22.0691 114.456 21.8319 112.932 21.3577C111.408 20.8754 110.159 20.2162 109.186 19.3802C108.223 18.5362 107.509 17.5796 107.043 16.5105C106.577 15.4414 106.345 14.32 106.345 13.1464C106.345 11.4744 106.773 9.95915 107.63 8.60065C108.498 7.24215 109.805 6.16098 111.551 5.35713C113.307 4.55329 115.53 4.15137 118.217 4.15137C120.26 4.15137 122.032 4.38448 123.535 4.85071C125.037 5.31694 126.281 5.96002 127.265 6.77994C128.249 7.59986 128.984 8.55242 129.471 9.63761C129.958 10.7228 130.201 11.8844 130.201 13.1223C130.201 14.8425 129.757 16.3779 128.868 17.7283C127.979 19.0707 126.656 20.1318 124.9 20.9115C123.143 21.6832 120.969 22.0691 118.376 22.0691ZM118.297 18.0298C119.133 18.0298 119.863 17.9011 120.487 17.6439C121.111 17.3867 121.641 17.033 122.074 16.5828C122.508 16.1246 122.831 15.6021 123.043 15.0153C123.265 14.4205 123.376 13.7895 123.376 13.1223C123.376 12.431 123.254 11.7879 123.011 11.1931C122.778 10.5902 122.439 10.0677 121.995 9.62555C121.561 9.1754 121.032 8.82573 120.408 8.57654C119.783 8.32734 119.08 8.20275 118.297 8.20275C117.482 8.20275 116.757 8.33136 116.122 8.58859C115.487 8.83778 114.953 9.18746 114.519 9.63761C114.085 10.0878 113.752 10.6143 113.519 11.2172C113.286 11.812 113.17 12.4471 113.17 13.1223C113.17 13.7895 113.281 14.4205 113.503 15.0153C113.725 15.6021 114.048 16.1246 114.471 16.5828C114.905 17.033 115.44 17.3867 116.075 17.6439C116.72 17.9011 117.461 18.0298 118.297 18.0298Z" fill="white"/>
<path d="M136.711 21.7194C136.425 20.8673 136.118 19.959 135.79 18.9944C135.473 18.0217 135.177 17.1214 134.901 16.2935L133.108 10.8796C132.79 9.92298 132.441 8.87798 132.06 7.74456C131.69 6.61113 131.335 5.538 130.997 4.52515H138.425C138.616 5.47369 138.822 6.47448 139.044 7.52752C139.277 8.58056 139.489 9.58134 139.679 10.5299L140.79 15.8111H141.25L142.457 10.4455C142.605 9.84259 142.753 9.20354 142.901 8.5283C143.06 7.84504 143.213 7.16177 143.362 6.4785C143.52 5.79523 143.674 5.14412 143.822 4.52515H150.647C150.88 5.47369 151.118 6.46242 151.361 7.49134C151.605 8.52027 151.843 9.51703 152.076 10.4816L153.345 15.8111H153.79L154.917 10.4455C155.107 9.52909 155.314 8.54438 155.536 7.49134C155.758 6.43831 155.959 5.44958 156.139 4.52515H163.567C163.218 5.54604 162.853 6.62319 162.472 7.75661C162.091 8.882 161.737 9.91092 161.409 10.8434L159.552 16.2935C159.255 17.1455 158.943 18.0539 158.615 19.0185C158.298 19.9831 157.996 20.8834 157.71 21.7194H149.853C149.631 20.8834 149.393 20.0072 149.139 19.0908C148.896 18.1664 148.663 17.2822 148.441 16.4381L147.171 11.6874H146.711L145.504 16.4381C145.303 17.2661 145.081 18.1463 144.838 19.0788C144.605 20.0112 144.383 20.8914 144.171 21.7194H136.711Z" fill="white"/>
</g>
<defs>
<filter id="filter0_dd_156_5347" x="0.43457" y="0.151367" width="167.133" height="25.9442" filterUnits="userSpaceOnUse" color-interpolation-filters="sRGB">
<feFlood flood-opacity="0" result="BackgroundImageFix"/>
<feColorMatrix in="SourceAlpha" type="matrix" values="0 0 0 0 0 0 0 0 0 0 0 0 0 0 0 0 0 0 127 0" result="hardAlpha"/>
<feOffset dx="-1" dy="-1"/>
<feGaussianBlur stdDeviation="1.5"/>
<feComposite in2="hardAlpha" operator="out"/>
<feColorMatrix type="matrix" values="0 0 0 0 0.991667 0 0 0 0 0.966278 0 0 0 0 0.780937 0 0 0 1 0"/>
<feBlend mode="normal" in2="BackgroundImageFix" result="effect1_dropShadow_156_5347"/>
<feColorMatrix in="SourceAlpha" type="matrix" values="0 0 0 0 0 0 0 0 0 0 0 0 0 0 0 0 0 0 127 0" result="hardAlpha"/>
<feOffset dx="1" dy="1"/>
<feGaussianBlur stdDeviation="1.5"/>
<feComposite in2="hardAlpha" operator="out"/>
<feColorMatrix type="matrix" values="0 0 0 0 0.554167 0 0 0 0 0.417896 0 0 0 0 0.0923611 0 0 0 0.8 0"/>
<feBlend mode="normal" in2="effect1_dropShadow_156_5347" result="effect2_dropShadow_156_5347"/>
<feBlend mode="normal" in="SourceGraphic" in2="effect2_dropShadow_156_5347" result="shape"/>
</filter>
</defs>
</svg>
