<svg width="110" height="101" viewBox="0 0 110 101" fill="none" xmlns="http://www.w3.org/2000/svg">
<path d="M4.02266 10.8205L3.52266 11.0205C1.72266 11.8205 0.222656 14.2205 0.222656 16.4205V20.0205C0.222656 20.6205 0.622656 20.9205 1.12266 20.6205L1.62266 20.4205C3.42266 19.6205 4.92266 17.2205 4.92266 15.0205V11.4205C4.92266 10.9205 4.52266 10.6205 4.02266 10.8205Z" fill="white"/>
<path d="M4.02266 40.8205L3.52266 41.0205C1.72266 41.8205 0.222656 44.2205 0.222656 46.4205V50.0205C0.222656 50.6205 0.622656 50.9205 1.12266 50.6205L1.62266 50.4205C3.42266 49.6205 4.92266 47.2205 4.92266 45.0205V41.4205C4.92266 40.9205 4.52266 40.6205 4.02266 40.8205Z" fill="white"/>
<path d="M7.32187 1.02046L6.82187 0.820459C6.32187 0.620459 5.92188 0.920459 5.92188 1.42046V5.02046C5.92188 7.22046 7.42188 9.62046 9.32188 10.4205L9.82188 10.6205C10.3219 10.8205 10.7219 10.5205 10.7219 10.0205V6.42046C10.6219 4.22046 9.12187 1.82046 7.32187 1.02046Z" fill="white"/>
<path d="M15.0227 0.820459L14.5227 1.02046C12.7227 1.82046 11.2227 4.22046 11.2227 6.42046V10.0205C11.2227 10.6205 11.6227 10.9205 12.1227 10.6205L12.6227 10.4205C14.4227 9.62046 15.9227 7.22046 15.9227 5.02046V1.42046C15.9227 0.920459 15.5227 0.620459 15.0227 0.820459Z" fill="white"/>
<path d="M7.32187 11.0205L6.82187 10.8205C6.32187 10.6205 5.92188 10.9205 5.92188 11.4205V15.0205C5.92188 17.2205 7.42188 19.6205 9.32188 20.4205L9.82188 20.6205C10.3219 20.8205 10.7219 20.5205 10.7219 20.0205V16.4205C10.6219 14.2205 9.12187 11.8205 7.32187 11.0205Z" fill="white"/>
<path d="M15.0227 10.8205L14.5227 11.0205C12.7227 11.8205 11.2227 14.2205 11.2227 16.4205V20.0205C11.2227 20.6205 11.6227 20.9205 12.1227 20.6205L12.6227 20.4205C14.4227 19.6205 15.9227 17.2205 15.9227 15.0205V11.4205C15.9227 10.9205 15.5227 10.6205 15.0227 10.8205Z" fill="white"/>
<path d="M7.32187 41.0205L6.82187 40.8205C6.32187 40.6205 5.92188 40.9205 5.92188 41.4205V45.0205C5.92188 47.2205 7.42188 49.6205 9.32188 50.4205L9.82188 50.6205C10.3219 50.8205 10.7219 50.5205 10.7219 50.0205V46.4205C10.6219 44.2205 9.12187 41.8205 7.32187 41.0205Z" fill="white"/>
<path d="M15.0227 40.8205L14.5227 41.0205C12.7227 41.8205 11.2227 44.2205 11.2227 46.4205V50.0205C11.2227 50.6205 11.6227 50.9205 12.1227 50.6205L12.6227 50.4205C14.4227 49.6205 15.9227 47.2205 15.9227 45.0205V41.4205C15.9227 40.9205 15.5227 40.6205 15.0227 40.8205Z" fill="white"/>
<path d="M18.3219 1.02046L17.8219 0.820459C17.3219 0.620459 16.9219 0.920459 16.9219 1.42046V5.02046C16.9219 7.22046 18.4219 9.62046 20.3219 10.4205L20.8219 10.6205C21.3219 10.8205 21.7219 10.5205 21.7219 10.0205V6.42046C21.6219 4.22046 20.1219 1.82046 18.3219 1.02046Z" fill="white"/>
<path d="M26.0227 0.820459L25.5227 1.02046C23.7227 1.82046 22.2227 4.22046 22.2227 6.42046V10.0205C22.2227 10.6205 22.6227 10.9205 23.1227 10.6205L23.6227 10.4205C25.4227 9.62046 26.9227 7.22046 26.9227 5.02046V1.42046C26.9227 0.920459 26.5227 0.620459 26.0227 0.820459Z" fill="white"/>
<path d="M18.3219 11.0205L17.8219 10.8205C17.3219 10.6205 16.9219 10.9205 16.9219 11.4205V15.0205C16.9219 17.2205 18.4219 19.6205 20.3219 20.4205L20.8219 20.6205C21.3219 20.8205 21.7219 20.5205 21.7219 20.0205V16.4205C21.6219 14.2205 20.1219 11.8205 18.3219 11.0205Z" fill="white"/>
<path d="M26.0227 10.8205L25.5227 11.0205C23.7227 11.8205 22.2227 14.2205 22.2227 16.4205V20.0205C22.2227 20.6205 22.6227 20.9205 23.1227 20.6205L23.6227 20.4205C25.4227 19.6205 26.9227 17.2205 26.9227 15.0205V11.4205C26.9227 10.9205 26.5227 10.6205 26.0227 10.8205Z" fill="white"/>
<path d="M18.3219 41.0205L17.8219 40.8205C17.3219 40.6205 16.9219 40.9205 16.9219 41.4205V45.0205C16.9219 47.2205 18.4219 49.6205 20.3219 50.4205L20.8219 50.6205C21.3219 50.8205 21.7219 50.5205 21.7219 50.0205V46.4205C21.6219 44.2205 20.1219 41.8205 18.3219 41.0205Z" fill="white"/>
<path d="M26.0227 40.8205L25.5227 41.0205C23.7227 41.8205 22.2227 44.2205 22.2227 46.4205V50.0205C22.2227 50.6205 22.6227 50.9205 23.1227 50.6205L23.6227 50.4205C25.4227 49.6205 26.9227 47.2205 26.9227 45.0205V41.4205C26.9227 40.9205 26.5227 40.6205 26.0227 40.8205Z" fill="white"/>
<path d="M29.3219 1.02046L28.8219 0.820459C28.3219 0.620459 27.9219 0.920459 27.9219 1.42046V5.02046C27.9219 7.22046 29.4219 9.62046 31.3219 10.4205L31.8219 10.6205C32.3219 10.8205 32.7219 10.5205 32.7219 10.0205V6.42046C32.6219 4.22046 31.1219 1.82046 29.3219 1.02046Z" fill="white"/>
<path d="M37.0227 0.820459L36.5227 1.02046C34.7227 1.82046 33.2227 4.22046 33.2227 6.42046V10.0205C33.2227 10.6205 33.6227 10.9205 34.1227 10.6205L34.6227 10.4205C36.4227 9.62046 37.9227 7.22046 37.9227 5.02046V1.42046C37.9227 0.920459 37.5227 0.620459 37.0227 0.820459Z" fill="white"/>
<path d="M29.3219 11.0205L28.8219 10.8205C28.3219 10.6205 27.9219 10.9205 27.9219 11.4205V15.0205C27.9219 17.2205 29.4219 19.6205 31.3219 20.4205L31.8219 20.6205C32.3219 20.8205 32.7219 20.5205 32.7219 20.0205V16.4205C32.6219 14.2205 31.1219 11.8205 29.3219 11.0205Z" fill="white"/>
<path d="M37.0227 10.8205L36.5227 11.0205C34.7227 11.8205 33.2227 14.2205 33.2227 16.4205V20.0205C33.2227 20.6205 33.6227 20.9205 34.1227 20.6205L34.6227 20.4205C36.4227 19.6205 37.9227 17.2205 37.9227 15.0205V11.4205C37.9227 10.9205 37.5227 10.6205 37.0227 10.8205Z" fill="white"/>
<path d="M29.3219 41.0205L28.8219 40.8205C28.3219 40.6205 27.9219 40.9205 27.9219 41.4205V45.0205C27.9219 47.2205 29.4219 49.6205 31.3219 50.4205L31.8219 50.6205C32.3219 50.8205 32.7219 50.5205 32.7219 50.0205V46.4205C32.6219 44.2205 31.1219 41.8205 29.3219 41.0205Z" fill="white"/>
<path d="M37.0227 40.8205L36.5227 41.0205C34.7227 41.8205 33.2227 44.2205 33.2227 46.4205V50.0205C33.2227 50.6205 33.6227 50.9205 34.1227 50.6205L34.6227 50.4205C36.4227 49.6205 37.9227 47.2205 37.9227 45.0205V41.4205C37.9227 40.9205 37.5227 40.6205 37.0227 40.8205Z" fill="white"/>
<path d="M40.3219 11.0205L39.8219 10.8205C39.3219 10.6205 38.9219 10.9205 38.9219 11.4205V15.0205C38.9219 17.2205 40.4219 19.6205 42.3219 20.4205L42.8219 20.6205C43.3219 20.8205 43.7219 20.5205 43.7219 20.0205V16.4205C43.6219 14.2205 42.1219 11.8205 40.3219 11.0205Z" fill="white"/>
<path d="M48.0227 10.8205L47.5227 11.0205C45.7227 11.8205 44.2227 14.2205 44.2227 16.4205V20.0205C44.2227 20.6205 44.6227 20.9205 45.1227 20.6205L45.6227 20.4205C47.4227 19.6205 48.9227 17.2205 48.9227 15.0205V11.4205C48.9227 10.9205 48.5227 10.6205 48.0227 10.8205Z" fill="white"/>
<path d="M40.3219 41.0205L39.8219 40.8205C39.3219 40.6205 38.9219 40.9205 38.9219 41.4205V45.0205C38.9219 47.2205 40.4219 49.6205 42.3219 50.4205L42.8219 50.6205C43.3219 50.8205 43.7219 50.5205 43.7219 50.0205V46.4205C43.6219 44.2205 42.1219 41.8205 40.3219 41.0205Z" fill="white"/>
<path d="M48.0227 40.8205L47.5227 41.0205C45.7227 41.8205 44.2227 44.2205 44.2227 46.4205V50.0205C44.2227 50.6205 44.6227 50.9205 45.1227 50.6205L45.6227 50.4205C47.4227 49.6205 48.9227 47.2205 48.9227 45.0205V41.4205C48.9227 40.9205 48.5227 40.6205 48.0227 40.8205Z" fill="white"/>
<path d="M51.3219 41.0205L50.8219 40.8205C50.3219 40.6205 49.9219 40.9205 49.9219 41.4205V45.0205C49.9219 47.2205 51.4219 49.6205 53.3219 50.4205L53.8219 50.6205C54.3219 50.8205 54.7219 50.5205 54.7219 50.0205V46.4205C54.6219 44.2205 53.1219 41.8205 51.3219 41.0205Z" fill="white"/>
<path d="M59.0227 40.8205L58.5227 41.0205C56.7227 41.8205 55.2227 44.2205 55.2227 46.4205V50.0205C55.2227 50.6205 55.6227 50.9205 56.1227 50.6205L56.6227 50.4205C58.4227 49.6205 59.9227 47.2205 59.9227 45.0205V41.4205C59.9227 40.9205 59.5227 40.6205 59.0227 40.8205Z" fill="white"/>
<path d="M62.3219 11.0205L61.8219 10.8205C61.3219 10.6205 60.9219 10.9205 60.9219 11.4205V15.0205C60.9219 17.2205 62.4219 19.6205 64.3219 20.4205L64.8219 20.6205C65.3219 20.8205 65.7219 20.5205 65.7219 20.0205V16.4205C65.6219 14.2205 64.1219 11.8205 62.3219 11.0205Z" fill="white"/>
<path d="M70.0227 10.8205L69.5227 11.0205C67.7227 11.8205 66.2227 14.2205 66.2227 16.4205V20.0205C66.2227 20.6205 66.6227 20.9205 67.1227 20.6205L67.6227 20.4205C69.4227 19.6205 70.9227 17.2205 70.9227 15.0205V11.4205C70.9227 10.9205 70.5227 10.6205 70.0227 10.8205Z" fill="white"/>
<path d="M62.3219 41.0205L61.8219 40.8205C61.3219 40.6205 60.9219 40.9205 60.9219 41.4205V45.0205C60.9219 47.2205 62.4219 49.6205 64.3219 50.4205L64.8219 50.6205C65.3219 50.8205 65.7219 50.5205 65.7219 50.0205V46.4205C65.6219 44.2205 64.1219 41.8205 62.3219 41.0205Z" fill="white"/>
<path d="M70.0227 40.8205L69.5227 41.0205C67.7227 41.8205 66.2227 44.2205 66.2227 46.4205V50.0205C66.2227 50.6205 66.6227 50.9205 67.1227 50.6205L67.6227 50.4205C69.4227 49.6205 70.9227 47.2205 70.9227 45.0205V41.4205C70.9227 40.9205 70.5227 40.6205 70.0227 40.8205Z" fill="white"/>
<path d="M73.3219 1.02046L72.8219 0.820459C72.3219 0.620459 71.9219 0.920459 71.9219 1.42046V5.02046C71.9219 7.22046 73.4219 9.62046 75.3219 10.4205L75.8219 10.6205C76.3219 10.8205 76.7219 10.5205 76.7219 10.0205V6.42046C76.6219 4.22046 75.1219 1.82046 73.3219 1.02046Z" fill="white"/>
<path d="M81.0227 0.820459L80.5227 1.02046C78.7227 1.82046 77.2227 4.22046 77.2227 6.42046V10.0205C77.2227 10.6205 77.6227 10.9205 78.1227 10.6205L78.6227 10.4205C80.4227 9.62046 81.9227 7.22046 81.9227 5.02046V1.42046C81.9227 0.920459 81.5227 0.620459 81.0227 0.820459Z" fill="white"/>
<path d="M73.3219 11.0205L72.8219 10.8205C72.3219 10.6205 71.9219 10.9205 71.9219 11.4205V15.0205C71.9219 17.2205 73.4219 19.6205 75.3219 20.4205L75.8219 20.6205C76.3219 20.8205 76.7219 20.5205 76.7219 20.0205V16.4205C76.6219 14.2205 75.1219 11.8205 73.3219 11.0205Z" fill="white"/>
<path d="M81.0227 10.8205L80.5227 11.0205C78.7227 11.8205 77.2227 14.2205 77.2227 16.4205V20.0205C77.2227 20.6205 77.6227 20.9205 78.1227 20.6205L78.6227 20.4205C80.4227 19.6205 81.9227 17.2205 81.9227 15.0205V11.4205C81.9227 10.9205 81.5227 10.6205 81.0227 10.8205Z" fill="white"/>
<path d="M73.3219 41.0205L72.8219 40.8205C72.3219 40.6205 71.9219 40.9205 71.9219 41.4205V45.0205C71.9219 47.2205 73.4219 49.6205 75.3219 50.4205L75.8219 50.6205C76.3219 50.8205 76.7219 50.5205 76.7219 50.0205V46.4205C76.6219 44.2205 75.1219 41.8205 73.3219 41.0205Z" fill="white"/>
<path d="M81.0227 40.8205L80.5227 41.0205C78.7227 41.8205 77.2227 44.2205 77.2227 46.4205V50.0205C77.2227 50.6205 77.6227 50.9205 78.1227 50.6205L78.6227 50.4205C80.4227 49.6205 81.9227 47.2205 81.9227 45.0205V41.4205C81.9227 40.9205 81.5227 40.6205 81.0227 40.8205Z" fill="white"/>
<path d="M84.3219 1.02046L83.8219 0.820459C83.3219 0.620459 82.9219 0.920459 82.9219 1.42046V5.02046C82.9219 7.22046 84.4219 9.62046 86.3219 10.4205L86.8219 10.6205C87.3219 10.8205 87.7219 10.5205 87.7219 10.0205V6.42046C87.6219 4.22046 86.1219 1.82046 84.3219 1.02046Z" fill="white"/>
<path d="M92.0227 0.820459L91.5227 1.02046C89.7227 1.82046 88.2227 4.22046 88.2227 6.42046V10.0205C88.2227 10.6205 88.6227 10.9205 89.1227 10.6205L89.6227 10.4205C91.4227 9.62046 92.9227 7.22046 92.9227 5.02046V1.42046C92.9227 0.920459 92.5227 0.620459 92.0227 0.820459Z" fill="white"/>
<path d="M84.3219 11.0205L83.8219 10.8205C83.3219 10.6205 82.9219 10.9205 82.9219 11.4205V15.0205C82.9219 17.2205 84.4219 19.6205 86.3219 20.4205L86.8219 20.6205C87.3219 20.8205 87.7219 20.5205 87.7219 20.0205V16.4205C87.6219 14.2205 86.1219 11.8205 84.3219 11.0205Z" fill="white"/>
<path d="M92.0227 10.8205L91.5227 11.0205C89.7227 11.8205 88.2227 14.2205 88.2227 16.4205V20.0205C88.2227 20.6205 88.6227 20.9205 89.1227 20.6205L89.6227 20.4205C91.4227 19.6205 92.9227 17.2205 92.9227 15.0205V11.4205C92.9227 10.9205 92.5227 10.6205 92.0227 10.8205Z" fill="white"/>
<path d="M84.3219 41.0205L83.8219 40.8205C83.3219 40.6205 82.9219 40.9205 82.9219 41.4205V45.0205C82.9219 47.2205 84.4219 49.6205 86.3219 50.4205L86.8219 50.6205C87.3219 50.8205 87.7219 50.5205 87.7219 50.0205V46.4205C87.6219 44.2205 86.1219 41.8205 84.3219 41.0205Z" fill="white"/>
<path d="M92.0227 40.8205L91.5227 41.0205C89.7227 41.8205 88.2227 44.2205 88.2227 46.4205V50.0205C88.2227 50.6205 88.6227 50.9205 89.1227 50.6205L89.6227 50.4205C91.4227 49.6205 92.9227 47.2205 92.9227 45.0205V41.4205C92.9227 40.9205 92.5227 40.6205 92.0227 40.8205Z" fill="white"/>
<path d="M95.3219 1.02046L94.8219 0.820459C94.3219 0.620459 93.9219 0.920459 93.9219 1.42046V5.02046C93.9219 7.22046 95.4219 9.62046 97.3219 10.4205L97.8219 10.6205C98.3219 10.8205 98.7219 10.5205 98.7219 10.0205V6.42046C98.6219 4.22046 97.1219 1.82046 95.3219 1.02046Z" fill="white"/>
<path d="M103.023 0.820459L102.523 1.02046C100.723 1.82046 99.2227 4.22046 99.2227 6.42046V10.0205C99.2227 10.6205 99.6227 10.9205 100.123 10.6205L100.623 10.4205C102.423 9.62046 103.923 7.22046 103.923 5.02046V1.42046C103.923 0.920459 103.523 0.620459 103.023 0.820459Z" fill="white"/>
<path d="M95.3219 11.0205L94.8219 10.8205C94.3219 10.6205 93.9219 10.9205 93.9219 11.4205V15.0205C93.9219 17.2205 95.4219 19.6205 97.3219 20.4205L97.8219 20.6205C98.3219 20.8205 98.7219 20.5205 98.7219 20.0205V16.4205C98.6219 14.2205 97.1219 11.8205 95.3219 11.0205Z" fill="white"/>
<path d="M103.023 10.8205L102.523 11.0205C100.723 11.8205 99.2227 14.2205 99.2227 16.4205V20.0205C99.2227 20.6205 99.6227 20.9205 100.123 20.6205L100.623 20.4205C102.423 19.6205 103.923 17.2205 103.923 15.0205V11.4205C103.923 10.9205 103.523 10.6205 103.023 10.8205Z" fill="white"/>
<path d="M95.3219 41.0205L94.8219 40.8205C94.3219 40.6205 93.9219 40.9205 93.9219 41.4205V45.0205C93.9219 47.2205 95.4219 49.6205 97.3219 50.4205L97.8219 50.6205C98.3219 50.8205 98.7219 50.5205 98.7219 50.0205V46.4205C98.6219 44.2205 97.1219 41.8205 95.3219 41.0205Z" fill="white"/>
<path d="M103.023 40.8205L102.523 41.0205C100.723 41.8205 99.2227 44.2205 99.2227 46.4205V50.0205C99.2227 50.6205 99.6227 50.9205 100.123 50.6205L100.623 50.4205C102.423 49.6205 103.923 47.2205 103.923 45.0205V41.4205C103.923 40.9205 103.523 40.6205 103.023 40.8205Z" fill="white"/>
<path d="M106.322 11.0205L105.822 10.8205C105.322 10.6205 104.922 10.9205 104.922 11.4205V15.0205C104.922 17.2205 106.422 19.6205 108.322 20.4205L108.822 20.6205C109.322 20.8205 109.722 20.5205 109.722 20.0205V16.4205C109.622 14.2205 108.122 11.8205 106.322 11.0205Z" fill="white"/>
<path d="M106.322 41.0205L105.822 40.8205C105.322 40.6205 104.922 40.9205 104.922 41.4205V45.0205C104.922 47.2205 106.422 49.6205 108.322 50.4205L108.822 50.6205C109.322 50.8205 109.722 50.5205 109.722 50.0205V46.4205C109.622 44.2205 108.122 41.8205 106.322 41.0205Z" fill="white"/>
<path d="M4.02266 20.8205L3.52266 21.0205C1.72266 21.8205 0.222656 24.2205 0.222656 26.4205V30.0205C0.222656 30.6205 0.622656 30.9205 1.12266 30.6205L1.62266 30.4205C3.42266 29.6205 4.92266 27.2205 4.92266 25.0205V21.4205C4.92266 20.9205 4.52266 20.6205 4.02266 20.8205Z" fill="white"/>
<path d="M4.02266 30.8205L3.52266 31.0205C1.72266 31.8205 0.222656 34.2205 0.222656 36.4205V40.0205C0.222656 40.6205 0.622656 40.9205 1.12266 40.6205L1.62266 40.4205C3.42266 39.6205 4.92266 37.2205 4.92266 35.0205V31.4205C4.92266 30.9205 4.52266 30.6205 4.02266 30.8205Z" fill="white"/>
<path d="M7.32187 21.0205L6.82187 20.8205C6.32187 20.6205 5.92188 20.9205 5.92188 21.4205V25.0205C5.92188 27.2205 7.42188 29.6205 9.32188 30.4205L9.82188 30.6205C10.3219 30.8205 10.7219 30.5205 10.7219 30.0205V26.4205C10.6219 24.2205 9.12187 21.8205 7.32187 21.0205Z" fill="white"/>
<path d="M15.0227 20.8205L14.5227 21.0205C12.7227 21.8205 11.2227 24.2205 11.2227 26.4205V30.0205C11.2227 30.6205 11.6227 30.9205 12.1227 30.6205L12.6227 30.4205C14.4227 29.6205 15.9227 27.2205 15.9227 25.0205V21.4205C15.9227 20.9205 15.5227 20.6205 15.0227 20.8205Z" fill="white"/>
<path d="M7.32187 51.0205L6.82187 50.8205C6.32187 50.6205 5.92188 50.9205 5.92188 51.4205V55.0205C5.92188 57.2205 7.42188 59.6205 9.32188 60.4205L9.82188 60.6205C10.3219 60.8205 10.7219 60.5205 10.7219 60.0205V56.4205C10.6219 54.2205 9.12187 51.8205 7.32187 51.0205Z" fill="white"/>
<path d="M15.0227 50.8205L14.5227 51.0205C12.7227 51.8205 11.2227 54.2205 11.2227 56.4205V60.0205C11.2227 60.6205 11.6227 60.9205 12.1227 60.6205L12.6227 60.4205C14.4227 59.6205 15.9227 57.2205 15.9227 55.0205V51.4205C15.9227 50.9205 15.5227 50.6205 15.0227 50.8205Z" fill="white"/>
<path d="M7.32187 31.0205L6.82187 30.8205C6.32187 30.6205 5.92188 30.9205 5.92188 31.4205V35.0205C5.92188 37.2205 7.42188 39.6205 9.32188 40.4205L9.82188 40.6205C10.3219 40.8205 10.7219 40.5205 10.7219 40.0205V36.4205C10.6219 34.2205 9.12187 31.8205 7.32187 31.0205Z" fill="white"/>
<path d="M15.0227 30.8205L14.5227 31.0205C12.7227 31.8205 11.2227 34.2205 11.2227 36.4205V40.0205C11.2227 40.6205 11.6227 40.9205 12.1227 40.6205L12.6227 40.4205C14.4227 39.6205 15.9227 37.2205 15.9227 35.0205V31.4205C15.9227 30.9205 15.5227 30.6205 15.0227 30.8205Z" fill="white"/>
<path d="M18.3219 21.0205L17.8219 20.8205C17.3219 20.6205 16.9219 20.9205 16.9219 21.4205V25.0205C16.9219 27.2205 18.4219 29.6205 20.3219 30.4205L20.8219 30.6205C21.3219 30.8205 21.7219 30.5205 21.7219 30.0205V26.4205C21.6219 24.2205 20.1219 21.8205 18.3219 21.0205Z" fill="white"/>
<path d="M26.0227 20.8205L25.5227 21.0205C23.7227 21.8205 22.2227 24.2205 22.2227 26.4205V30.0205C22.2227 30.6205 22.6227 30.9205 23.1227 30.6205L23.6227 30.4205C25.4227 29.6205 26.9227 27.2205 26.9227 25.0205V21.4205C26.9227 20.9205 26.5227 20.6205 26.0227 20.8205Z" fill="white"/>
<path d="M18.3219 51.0205L17.8219 50.8205C17.3219 50.6205 16.9219 50.9205 16.9219 51.4205V55.0205C16.9219 57.2205 18.4219 59.6205 20.3219 60.4205L20.8219 60.6205C21.3219 60.8205 21.7219 60.5205 21.7219 60.0205V56.4205C21.6219 54.2205 20.1219 51.8205 18.3219 51.0205Z" fill="white"/>
<path d="M26.0227 50.8205L25.5227 51.0205C23.7227 51.8205 22.2227 54.2205 22.2227 56.4205V60.0205C22.2227 60.6205 22.6227 60.9205 23.1227 60.6205L23.6227 60.4205C25.4227 59.6205 26.9227 57.2205 26.9227 55.0205V51.4205C26.9227 50.9205 26.5227 50.6205 26.0227 50.8205Z" fill="white"/>
<path d="M18.3219 31.0205L17.8219 30.8205C17.3219 30.6205 16.9219 30.9205 16.9219 31.4205V35.0205C16.9219 37.2205 18.4219 39.6205 20.3219 40.4205L20.8219 40.6205C21.3219 40.8205 21.7219 40.5205 21.7219 40.0205V36.4205C21.6219 34.2205 20.1219 31.8205 18.3219 31.0205Z" fill="white"/>
<path d="M26.0227 30.8205L25.5227 31.0205C23.7227 31.8205 22.2227 34.2205 22.2227 36.4205V40.0205C22.2227 40.6205 22.6227 40.9205 23.1227 40.6205L23.6227 40.4205C25.4227 39.6205 26.9227 37.2205 26.9227 35.0205V31.4205C26.9227 30.9205 26.5227 30.6205 26.0227 30.8205Z" fill="white"/>
<path d="M26.0227 60.8205L25.5227 61.0205C23.7227 61.8205 22.2227 64.2205 22.2227 66.4205V70.0205C22.2227 70.6205 22.6227 70.9205 23.1227 70.6205L23.6227 70.4205C25.4227 69.6205 26.9227 67.2205 26.9227 65.0205V61.4205C26.9227 60.9205 26.5227 60.6205 26.0227 60.8205Z" fill="white"/>
<path d="M29.3219 21.0205L28.8219 20.8205C28.3219 20.6205 27.9219 20.9205 27.9219 21.4205V25.0205C27.9219 27.2205 29.4219 29.6205 31.3219 30.4205L31.8219 30.6205C32.3219 30.8205 32.7219 30.5205 32.7219 30.0205V26.4205C32.6219 24.2205 31.1219 21.8205 29.3219 21.0205Z" fill="white"/>
<path d="M37.0227 20.8205L36.5227 21.0205C34.7227 21.8205 33.2227 24.2205 33.2227 26.4205V30.0205C33.2227 30.6205 33.6227 30.9205 34.1227 30.6205L34.6227 30.4205C36.4227 29.6205 37.9227 27.2205 37.9227 25.0205V21.4205C37.9227 20.9205 37.5227 20.6205 37.0227 20.8205Z" fill="white"/>
<path d="M29.3219 51.0205L28.8219 50.8205C28.3219 50.6205 27.9219 50.9205 27.9219 51.4205V55.0205C27.9219 57.2205 29.4219 59.6205 31.3219 60.4205L31.8219 60.6205C32.3219 60.8205 32.7219 60.5205 32.7219 60.0205V56.4205C32.6219 54.2205 31.1219 51.8205 29.3219 51.0205Z" fill="white"/>
<path d="M37.0227 50.8205L36.5227 51.0205C34.7227 51.8205 33.2227 54.2205 33.2227 56.4205V60.0205C33.2227 60.6205 33.6227 60.9205 34.1227 60.6205L34.6227 60.4205C36.4227 59.6205 37.9227 57.2205 37.9227 55.0205V51.4205C37.9227 50.9205 37.5227 50.6205 37.0227 50.8205Z" fill="white"/>
<path d="M29.3219 31.0205L28.8219 30.8205C28.3219 30.6205 27.9219 30.9205 27.9219 31.4205V35.0205C27.9219 37.2205 29.4219 39.6205 31.3219 40.4205L31.8219 40.6205C32.3219 40.8205 32.7219 40.5205 32.7219 40.0205V36.4205C32.6219 34.2205 31.1219 31.8205 29.3219 31.0205Z" fill="white"/>
<path d="M37.0227 30.8205L36.5227 31.0205C34.7227 31.8205 33.2227 34.2205 33.2227 36.4205V40.0205C33.2227 40.6205 33.6227 40.9205 34.1227 40.6205L34.6227 40.4205C36.4227 39.6205 37.9227 37.2205 37.9227 35.0205V31.4205C37.9227 30.9205 37.5227 30.6205 37.0227 30.8205Z" fill="white"/>
<path d="M29.3219 61.0205L28.8219 60.8205C28.3219 60.6205 27.9219 60.9205 27.9219 61.4205V65.0205C27.9219 67.2205 29.4219 69.6205 31.3219 70.4205L31.8219 70.6205C32.3219 70.8205 32.7219 70.5205 32.7219 70.0205V66.4205C32.6219 64.2205 31.1219 61.8205 29.3219 61.0205Z" fill="white"/>
<path d="M37.0227 60.8205L36.5227 61.0205C34.7227 61.8205 33.2227 64.2205 33.2227 66.4205V70.0205C33.2227 70.6205 33.6227 70.9205 34.1227 70.6205L34.6227 70.4205C36.4227 69.6205 37.9227 67.2205 37.9227 65.0205V61.4205C37.9227 60.9205 37.5227 60.6205 37.0227 60.8205Z" fill="white"/>
<path d="M29.3219 71.0205L28.8219 70.8205C28.3219 70.6205 27.9219 70.9205 27.9219 71.4205V75.0205C27.9219 77.2205 29.4219 79.6205 31.3219 80.4205L31.8219 80.6205C32.3219 80.8205 32.7219 80.5205 32.7219 80.0205V76.4205C32.6219 74.2205 31.1219 71.8205 29.3219 71.0205Z" fill="white"/>
<path d="M37.0227 70.8205L36.5227 71.0205C34.7227 71.8205 33.2227 74.2205 33.2227 76.4205V80.0205C33.2227 80.6205 33.6227 80.9205 34.1227 80.6205L34.6227 80.4205C36.4227 79.6205 37.9227 77.2205 37.9227 75.0205V71.4205C37.9227 70.9205 37.5227 70.6205 37.0227 70.8205Z" fill="white"/>
<path d="M40.3219 21.0205L39.8219 20.8205C39.3219 20.6205 38.9219 20.9205 38.9219 21.4205V25.0205C38.9219 27.2205 40.4219 29.6205 42.3219 30.4205L42.8219 30.6205C43.3219 30.8205 43.7219 30.5205 43.7219 30.0205V26.4205C43.6219 24.2205 42.1219 21.8205 40.3219 21.0205Z" fill="#E41F30"/>
<path d="M48.0227 20.8205L47.5227 21.0205C45.7227 21.8205 44.2227 24.2205 44.2227 26.4205V30.0205C44.2227 30.6205 44.6227 30.9205 45.1227 30.6205L45.6227 30.4205C47.4227 29.6205 48.9227 27.2205 48.9227 25.0205V21.4205C48.9227 20.9205 48.5227 20.6205 48.0227 20.8205Z" fill="#E41F30"/>
<path d="M40.3219 51.0205L39.8219 50.8205C39.3219 50.6205 38.9219 50.9205 38.9219 51.4205V55.0205C38.9219 57.2205 40.4219 59.6205 42.3219 60.4205L42.8219 60.6205C43.3219 60.8205 43.7219 60.5205 43.7219 60.0205V56.4205C43.6219 54.2205 42.1219 51.8205 40.3219 51.0205Z" fill="#E41F30"/>
<path d="M48.0227 50.8205L47.5227 51.0205C45.7227 51.8205 44.2227 54.2205 44.2227 56.4205V60.0205C44.2227 60.6205 44.6227 60.9205 45.1227 60.6205L45.6227 60.4205C47.4227 59.6205 48.9227 57.2205 48.9227 55.0205V51.4205C48.9227 50.9205 48.5227 50.6205 48.0227 50.8205Z" fill="#E41F30"/>
<path d="M40.3219 21.0205L39.8219 20.8205C39.3219 20.6205 38.9219 20.9205 38.9219 21.4205V25.0205C38.9219 27.2205 40.4219 29.6205 42.3219 30.4205L42.8219 30.6205C43.3219 30.8205 43.7219 30.5205 43.7219 30.0205V26.4205C43.6219 24.2205 42.1219 21.8205 40.3219 21.0205Z" fill="white"/>
<path d="M48.0227 20.8205L47.5227 21.0205C45.7227 21.8205 44.2227 24.2205 44.2227 26.4205V30.0205C44.2227 30.6205 44.6227 30.9205 45.1227 30.6205L45.6227 30.4205C47.4227 29.6205 48.9227 27.2205 48.9227 25.0205V21.4205C48.9227 20.9205 48.5227 20.6205 48.0227 20.8205Z" fill="white"/>
<path d="M40.3219 51.0205L39.8219 50.8205C39.3219 50.6205 38.9219 50.9205 38.9219 51.4205V55.0205C38.9219 57.2205 40.4219 59.6205 42.3219 60.4205L42.8219 60.6205C43.3219 60.8205 43.7219 60.5205 43.7219 60.0205V56.4205C43.6219 54.2205 42.1219 51.8205 40.3219 51.0205Z" fill="white"/>
<path d="M48.0227 50.8205L47.5227 51.0205C45.7227 51.8205 44.2227 54.2205 44.2227 56.4205V60.0205C44.2227 60.6205 44.6227 60.9205 45.1227 60.6205L45.6227 60.4205C47.4227 59.6205 48.9227 57.2205 48.9227 55.0205V51.4205C48.9227 50.9205 48.5227 50.6205 48.0227 50.8205Z" fill="white"/>
<path d="M40.3219 31.0205L39.8219 30.8205C39.3219 30.6205 38.9219 30.9205 38.9219 31.4205V35.0205C38.9219 37.2205 40.4219 39.6205 42.3219 40.4205L42.8219 40.6205C43.3219 40.8205 43.7219 40.5205 43.7219 40.0205V36.4205C43.6219 34.2205 42.1219 31.8205 40.3219 31.0205Z" fill="white"/>
<path d="M48.0227 30.8205L47.5227 31.0205C45.7227 31.8205 44.2227 34.2205 44.2227 36.4205V40.0205C44.2227 40.6205 44.6227 40.9205 45.1227 40.6205L45.6227 40.4205C47.4227 39.6205 48.9227 37.2205 48.9227 35.0205V31.4205C48.9227 30.9205 48.5227 30.6205 48.0227 30.8205Z" fill="white"/>
<path d="M40.3219 61.0205L39.8219 60.8205C39.3219 60.6205 38.9219 60.9205 38.9219 61.4205V65.0205C38.9219 67.2205 40.4219 69.6205 42.3219 70.4205L42.8219 70.6205C43.3219 70.8205 43.7219 70.5205 43.7219 70.0205V66.4205C43.6219 64.2205 42.1219 61.8205 40.3219 61.0205Z" fill="white"/>
<path d="M48.0227 60.8205L47.5227 61.0205C45.7227 61.8205 44.2227 64.2205 44.2227 66.4205V70.0205C44.2227 70.6205 44.6227 70.9205 45.1227 70.6205L45.6227 70.4205C47.4227 69.6205 48.9227 67.2205 48.9227 65.0205V61.4205C48.9227 60.9205 48.5227 60.6205 48.0227 60.8205Z" fill="white"/>
<path d="M40.3219 71.0205L39.8219 70.8205C39.3219 70.6205 38.9219 70.9205 38.9219 71.4205V75.0205C38.9219 77.2205 40.4219 79.6205 42.3219 80.4205L42.8219 80.6205C43.3219 80.8205 43.7219 80.5205 43.7219 80.0205V76.4205C43.6219 74.2205 42.1219 71.8205 40.3219 71.0205Z" fill="white"/>
<path d="M48.0227 70.8205L47.5227 71.0205C45.7227 71.8205 44.2227 74.2205 44.2227 76.4205V80.0205C44.2227 80.6205 44.6227 80.9205 45.1227 80.6205L45.6227 80.4205C47.4227 79.6205 48.9227 77.2205 48.9227 75.0205V71.4205C48.9227 70.9205 48.5227 70.6205 48.0227 70.8205Z" fill="white"/>
<path d="M48.0227 80.8205L47.5227 81.0205C45.7227 81.8205 44.2227 84.2205 44.2227 86.4205V90.0205C44.2227 90.6205 44.6227 90.9205 45.1227 90.6205L45.6227 90.4205C47.4227 89.6205 48.9227 87.2205 48.9227 85.0205V81.4205C48.9227 80.9205 48.5227 80.6205 48.0227 80.8205Z" fill="white"/>
<path d="M51.3219 21.0205L50.8219 20.8205C50.3219 20.6205 49.9219 20.9205 49.9219 21.4205V25.0205C49.9219 27.2205 51.4219 29.6205 53.3219 30.4205L53.8219 30.6205C54.3219 30.8205 54.7219 30.5205 54.7219 30.0205V26.4205C54.6219 24.2205 53.1219 21.8205 51.3219 21.0205Z" fill="#E41F30"/>
<path d="M59.0227 20.8205L58.5227 21.0205C56.7227 21.8205 55.2227 24.2205 55.2227 26.4205V30.0205C55.2227 30.6205 55.6227 30.9205 56.1227 30.6205L56.6227 30.4205C58.4227 29.6205 59.9227 27.2205 59.9227 25.0205V21.4205C59.9227 20.9205 59.5227 20.6205 59.0227 20.8205Z" fill="#E41F30"/>
<path d="M51.3219 51.0205L50.8219 50.8205C50.3219 50.6205 49.9219 50.9205 49.9219 51.4205V55.0205C49.9219 57.2205 51.4219 59.6205 53.3219 60.4205L53.8219 60.6205C54.3219 60.8205 54.7219 60.5205 54.7219 60.0205V56.4205C54.6219 54.2205 53.1219 51.8205 51.3219 51.0205Z" fill="#E41F30"/>
<path d="M59.0227 50.8205L58.5227 51.0205C56.7227 51.8205 55.2227 54.2205 55.2227 56.4205V60.0205C55.2227 60.6205 55.6227 60.9205 56.1227 60.6205L56.6227 60.4205C58.4227 59.6205 59.9227 57.2205 59.9227 55.0205V51.4205C59.9227 50.9205 59.5227 50.6205 59.0227 50.8205Z" fill="#E41F30"/>
<path d="M51.3219 21.0205L50.8219 20.8205C50.3219 20.6205 49.9219 20.9205 49.9219 21.4205V25.0205C49.9219 27.2205 51.4219 29.6205 53.3219 30.4205L53.8219 30.6205C54.3219 30.8205 54.7219 30.5205 54.7219 30.0205V26.4205C54.6219 24.2205 53.1219 21.8205 51.3219 21.0205Z" fill="white"/>
<path d="M59.0227 20.8205L58.5227 21.0205C56.7227 21.8205 55.2227 24.2205 55.2227 26.4205V30.0205C55.2227 30.6205 55.6227 30.9205 56.1227 30.6205L56.6227 30.4205C58.4227 29.6205 59.9227 27.2205 59.9227 25.0205V21.4205C59.9227 20.9205 59.5227 20.6205 59.0227 20.8205Z" fill="white"/>
<path d="M51.3219 51.0205L50.8219 50.8205C50.3219 50.6205 49.9219 50.9205 49.9219 51.4205V55.0205C49.9219 57.2205 51.4219 59.6205 53.3219 60.4205L53.8219 60.6205C54.3219 60.8205 54.7219 60.5205 54.7219 60.0205V56.4205C54.6219 54.2205 53.1219 51.8205 51.3219 51.0205Z" fill="white"/>
<path d="M59.0227 50.8205L58.5227 51.0205C56.7227 51.8205 55.2227 54.2205 55.2227 56.4205V60.0205C55.2227 60.6205 55.6227 60.9205 56.1227 60.6205L56.6227 60.4205C58.4227 59.6205 59.9227 57.2205 59.9227 55.0205V51.4205C59.9227 50.9205 59.5227 50.6205 59.0227 50.8205Z" fill="white"/>
<path d="M51.3219 31.0205L50.8219 30.8205C50.3219 30.6205 49.9219 30.9205 49.9219 31.4205V35.0205C49.9219 37.2205 51.4219 39.6205 53.3219 40.4205L53.8219 40.6205C54.3219 40.8205 54.7219 40.5205 54.7219 40.0205V36.4205C54.6219 34.2205 53.1219 31.8205 51.3219 31.0205Z" fill="white"/>
<path d="M59.0227 30.8205L58.5227 31.0205C56.7227 31.8205 55.2227 34.2205 55.2227 36.4205V40.0205C55.2227 40.6205 55.6227 40.9205 56.1227 40.6205L56.6227 40.4205C58.4227 39.6205 59.9227 37.2205 59.9227 35.0205V31.4205C59.9227 30.9205 59.5227 30.6205 59.0227 30.8205Z" fill="white"/>
<path d="M51.3219 61.0205L50.8219 60.8205C50.3219 60.6205 49.9219 60.9205 49.9219 61.4205V65.0205C49.9219 67.2205 51.4219 69.6205 53.3219 70.4205L53.8219 70.6205C54.3219 70.8205 54.7219 70.5205 54.7219 70.0205V66.4205C54.6219 64.2205 53.1219 61.8205 51.3219 61.0205Z" fill="white"/>
<path d="M59.0227 60.8205L58.5227 61.0205C56.7227 61.8205 55.2227 64.2205 55.2227 66.4205V70.0205C55.2227 70.6205 55.6227 70.9205 56.1227 70.6205L56.6227 70.4205C58.4227 69.6205 59.9227 67.2205 59.9227 65.0205V61.4205C59.9227 60.9205 59.5227 60.6205 59.0227 60.8205Z" fill="white"/>
<path d="M51.3219 71.0205L50.8219 70.8205C50.3219 70.6205 49.9219 70.9205 49.9219 71.4205V75.0205C49.9219 77.2205 51.4219 79.6205 53.3219 80.4205L53.8219 80.6205C54.3219 80.8205 54.7219 80.5205 54.7219 80.0205V76.4205C54.6219 74.2205 53.1219 71.8205 51.3219 71.0205Z" fill="white"/>
<path d="M59.0227 70.8205L58.5227 71.0205C56.7227 71.8205 55.2227 74.2205 55.2227 76.4205V80.0205C55.2227 80.6205 55.6227 80.9205 56.1227 80.6205L56.6227 80.4205C58.4227 79.6205 59.9227 77.2205 59.9227 75.0205V71.4205C59.9227 70.9205 59.5227 70.6205 59.0227 70.8205Z" fill="white"/>
<path d="M51.3219 81.0205L50.8219 80.8205C50.3219 80.6205 49.9219 80.9205 49.9219 81.4205V85.0205C49.9219 87.2205 51.4219 89.6205 53.3219 90.4205L53.8219 90.6205C54.3219 90.8205 54.7219 90.5205 54.7219 90.0205V86.4205C54.6219 84.2205 53.1219 81.8205 51.3219 81.0205Z" fill="white"/>
<path d="M59.0227 80.8205L58.5227 81.0205C56.7227 81.8205 55.2227 84.2205 55.2227 86.4205V90.0205C55.2227 90.6205 55.6227 90.9205 56.1227 90.6205L56.6227 90.4205C58.4227 89.6205 59.9227 87.2205 59.9227 85.0205V81.4205C59.9227 80.9205 59.5227 80.6205 59.0227 80.8205Z" fill="white"/>
<path d="M51.3219 91.0205L50.8219 90.8205C50.3219 90.6205 49.9219 90.9205 49.9219 91.4205V95.0205C49.9219 97.2205 51.4219 99.6205 53.3219 100.42L53.8219 100.62C54.3219 100.82 54.7219 100.52 54.7219 100.02V96.4205C54.6219 94.2205 53.1219 91.8205 51.3219 91.0205Z" fill="white"/>
<path d="M59.0227 90.8205L58.5227 91.0205C56.7227 91.8205 55.2227 94.2205 55.2227 96.4205V100.02C55.2227 100.62 55.6227 100.92 56.1227 100.62L56.6227 100.42C58.4227 99.6205 59.9227 97.2205 59.9227 95.0205V91.4205C59.9227 90.9205 59.5227 90.6205 59.0227 90.8205Z" fill="white"/>
<path d="M62.3219 21.0205L61.8219 20.8205C61.3219 20.6205 60.9219 20.9205 60.9219 21.4205V25.0205C60.9219 27.2205 62.4219 29.6205 64.3219 30.4205L64.8219 30.6205C65.3219 30.8205 65.7219 30.5205 65.7219 30.0205V26.4205C65.6219 24.2205 64.1219 21.8205 62.3219 21.0205Z" fill="white"/>
<path d="M70.0227 20.8205L69.5227 21.0205C67.7227 21.8205 66.2227 24.2205 66.2227 26.4205V30.0205C66.2227 30.6205 66.6227 30.9205 67.1227 30.6205L67.6227 30.4205C69.4227 29.6205 70.9227 27.2205 70.9227 25.0205V21.4205C70.9227 20.9205 70.5227 20.6205 70.0227 20.8205Z" fill="white"/>
<path d="M62.3219 51.0205L61.8219 50.8205C61.3219 50.6205 60.9219 50.9205 60.9219 51.4205V55.0205C60.9219 57.2205 62.4219 59.6205 64.3219 60.4205L64.8219 60.6205C65.3219 60.8205 65.7219 60.5205 65.7219 60.0205V56.4205C65.6219 54.2205 64.1219 51.8205 62.3219 51.0205Z" fill="white"/>
<path d="M70.0227 50.8205L69.5227 51.0205C67.7227 51.8205 66.2227 54.2205 66.2227 56.4205V60.0205C66.2227 60.6205 66.6227 60.9205 67.1227 60.6205L67.6227 60.4205C69.4227 59.6205 70.9227 57.2205 70.9227 55.0205V51.4205C70.9227 50.9205 70.5227 50.6205 70.0227 50.8205Z" fill="white"/>
<path d="M62.3219 31.0205L61.8219 30.8205C61.3219 30.6205 60.9219 30.9205 60.9219 31.4205V35.0205C60.9219 37.2205 62.4219 39.6205 64.3219 40.4205L64.8219 40.6205C65.3219 40.8205 65.7219 40.5205 65.7219 40.0205V36.4205C65.6219 34.2205 64.1219 31.8205 62.3219 31.0205Z" fill="white"/>
<path d="M70.0227 30.8205L69.5227 31.0205C67.7227 31.8205 66.2227 34.2205 66.2227 36.4205V40.0205C66.2227 40.6205 66.6227 40.9205 67.1227 40.6205L67.6227 40.4205C69.4227 39.6205 70.9227 37.2205 70.9227 35.0205V31.4205C70.9227 30.9205 70.5227 30.6205 70.0227 30.8205Z" fill="white"/>
<path d="M62.3219 61.0205L61.8219 60.8205C61.3219 60.6205 60.9219 60.9205 60.9219 61.4205V65.0205C60.9219 67.2205 62.4219 69.6205 64.3219 70.4205L64.8219 70.6205C65.3219 70.8205 65.7219 70.5205 65.7219 70.0205V66.4205C65.6219 64.2205 64.1219 61.8205 62.3219 61.0205Z" fill="white"/>
<path d="M70.0227 60.8205L69.5227 61.0205C67.7227 61.8205 66.2227 64.2205 66.2227 66.4205V70.0205C66.2227 70.6205 66.6227 70.9205 67.1227 70.6205L67.6227 70.4205C69.4227 69.6205 70.9227 67.2205 70.9227 65.0205V61.4205C70.9227 60.9205 70.5227 60.6205 70.0227 60.8205Z" fill="white"/>
<path d="M62.3219 71.0205L61.8219 70.8205C61.3219 70.6205 60.9219 70.9205 60.9219 71.4205V75.0205C60.9219 77.2205 62.4219 79.6205 64.3219 80.4205L64.8219 80.6205C65.3219 80.8205 65.7219 80.5205 65.7219 80.0205V76.4205C65.6219 74.2205 64.1219 71.8205 62.3219 71.0205Z" fill="white"/>
<path d="M70.0227 70.8205L69.5227 71.0205C67.7227 71.8205 66.2227 74.2205 66.2227 76.4205V80.0205C66.2227 80.6205 66.6227 80.9205 67.1227 80.6205L67.6227 80.4205C69.4227 79.6205 70.9227 77.2205 70.9227 75.0205V71.4205C70.9227 70.9205 70.5227 70.6205 70.0227 70.8205Z" fill="white"/>
<path d="M62.3219 81.0205L61.8219 80.8205C61.3219 80.6205 60.9219 80.9205 60.9219 81.4205V85.0205C60.9219 87.2205 62.4219 89.6205 64.3219 90.4205L64.8219 90.6205C65.3219 90.8205 65.7219 90.5205 65.7219 90.0205V86.4205C65.6219 84.2205 64.1219 81.8205 62.3219 81.0205Z" fill="white"/>
<path d="M73.3219 21.0205L72.8219 20.8205C72.3219 20.6205 71.9219 20.9205 71.9219 21.4205V25.0205C71.9219 27.2205 73.4219 29.6205 75.3219 30.4205L75.8219 30.6205C76.3219 30.8205 76.7219 30.5205 76.7219 30.0205V26.4205C76.6219 24.2205 75.1219 21.8205 73.3219 21.0205Z" fill="white"/>
<path d="M81.0227 20.8205L80.5227 21.0205C78.7227 21.8205 77.2227 24.2205 77.2227 26.4205V30.0205C77.2227 30.6205 77.6227 30.9205 78.1227 30.6205L78.6227 30.4205C80.4227 29.6205 81.9227 27.2205 81.9227 25.0205V21.4205C81.9227 20.9205 81.5227 20.6205 81.0227 20.8205Z" fill="white"/>
<path d="M73.3219 51.0205L72.8219 50.8205C72.3219 50.6205 71.9219 50.9205 71.9219 51.4205V55.0205C71.9219 57.2205 73.4219 59.6205 75.3219 60.4205L75.8219 60.6205C76.3219 60.8205 76.7219 60.5205 76.7219 60.0205V56.4205C76.6219 54.2205 75.1219 51.8205 73.3219 51.0205Z" fill="white"/>
<path d="M81.0227 50.8205L80.5227 51.0205C78.7227 51.8205 77.2227 54.2205 77.2227 56.4205V60.0205C77.2227 60.6205 77.6227 60.9205 78.1227 60.6205L78.6227 60.4205C80.4227 59.6205 81.9227 57.2205 81.9227 55.0205V51.4205C81.9227 50.9205 81.5227 50.6205 81.0227 50.8205Z" fill="white"/>
<path d="M73.3219 31.0205L72.8219 30.8205C72.3219 30.6205 71.9219 30.9205 71.9219 31.4205V35.0205C71.9219 37.2205 73.4219 39.6205 75.3219 40.4205L75.8219 40.6205C76.3219 40.8205 76.7219 40.5205 76.7219 40.0205V36.4205C76.6219 34.2205 75.1219 31.8205 73.3219 31.0205Z" fill="white"/>
<path d="M81.0227 30.8205L80.5227 31.0205C78.7227 31.8205 77.2227 34.2205 77.2227 36.4205V40.0205C77.2227 40.6205 77.6227 40.9205 78.1227 40.6205L78.6227 40.4205C80.4227 39.6205 81.9227 37.2205 81.9227 35.0205V31.4205C81.9227 30.9205 81.5227 30.6205 81.0227 30.8205Z" fill="white"/>
<path d="M73.3219 61.0205L72.8219 60.8205C72.3219 60.6205 71.9219 60.9205 71.9219 61.4205V65.0205C71.9219 67.2205 73.4219 69.6205 75.3219 70.4205L75.8219 70.6205C76.3219 70.8205 76.7219 70.5205 76.7219 70.0205V66.4205C76.6219 64.2205 75.1219 61.8205 73.3219 61.0205Z" fill="white"/>
<path d="M81.0227 60.8205L80.5227 61.0205C78.7227 61.8205 77.2227 64.2205 77.2227 66.4205V70.0205C77.2227 70.6205 77.6227 70.9205 78.1227 70.6205L78.6227 70.4205C80.4227 69.6205 81.9227 67.2205 81.9227 65.0205V61.4205C81.9227 60.9205 81.5227 60.6205 81.0227 60.8205Z" fill="white"/>
<path d="M73.3219 71.0205L72.8219 70.8205C72.3219 70.6205 71.9219 70.9205 71.9219 71.4205V75.0205C71.9219 77.2205 73.4219 79.6205 75.3219 80.4205L75.8219 80.6205C76.3219 80.8205 76.7219 80.5205 76.7219 80.0205V76.4205C76.6219 74.2205 75.1219 71.8205 73.3219 71.0205Z" fill="white"/>
<path d="M81.0227 70.8205L80.5227 71.0205C78.7227 71.8205 77.2227 74.2205 77.2227 76.4205V80.0205C77.2227 80.6205 77.6227 80.9205 78.1227 80.6205L78.6227 80.4205C80.4227 79.6205 81.9227 77.2205 81.9227 75.0205V71.4205C81.9227 70.9205 81.5227 70.6205 81.0227 70.8205Z" fill="white"/>
<path d="M84.3219 21.0205L83.8219 20.8205C83.3219 20.6205 82.9219 20.9205 82.9219 21.4205V25.0205C82.9219 27.2205 84.4219 29.6205 86.3219 30.4205L86.8219 30.6205C87.3219 30.8205 87.7219 30.5205 87.7219 30.0205V26.4205C87.6219 24.2205 86.1219 21.8205 84.3219 21.0205Z" fill="white"/>
<path d="M92.0227 20.8205L91.5227 21.0205C89.7227 21.8205 88.2227 24.2205 88.2227 26.4205V30.0205C88.2227 30.6205 88.6227 30.9205 89.1227 30.6205L89.6227 30.4205C91.4227 29.6205 92.9227 27.2205 92.9227 25.0205V21.4205C92.9227 20.9205 92.5227 20.6205 92.0227 20.8205Z" fill="white"/>
<path d="M84.3219 51.0205L83.8219 50.8205C83.3219 50.6205 82.9219 50.9205 82.9219 51.4205V55.0205C82.9219 57.2205 84.4219 59.6205 86.3219 60.4205L86.8219 60.6205C87.3219 60.8205 87.7219 60.5205 87.7219 60.0205V56.4205C87.6219 54.2205 86.1219 51.8205 84.3219 51.0205Z" fill="white"/>
<path d="M92.0227 50.8205L91.5227 51.0205C89.7227 51.8205 88.2227 54.2205 88.2227 56.4205V60.0205C88.2227 60.6205 88.6227 60.9205 89.1227 60.6205L89.6227 60.4205C91.4227 59.6205 92.9227 57.2205 92.9227 55.0205V51.4205C92.9227 50.9205 92.5227 50.6205 92.0227 50.8205Z" fill="white"/>
<path d="M84.3219 31.0205L83.8219 30.8205C83.3219 30.6205 82.9219 30.9205 82.9219 31.4205V35.0205C82.9219 37.2205 84.4219 39.6205 86.3219 40.4205L86.8219 40.6205C87.3219 40.8205 87.7219 40.5205 87.7219 40.0205V36.4205C87.6219 34.2205 86.1219 31.8205 84.3219 31.0205Z" fill="white"/>
<path d="M92.0227 30.8205L91.5227 31.0205C89.7227 31.8205 88.2227 34.2205 88.2227 36.4205V40.0205C88.2227 40.6205 88.6227 40.9205 89.1227 40.6205L89.6227 40.4205C91.4227 39.6205 92.9227 37.2205 92.9227 35.0205V31.4205C92.9227 30.9205 92.5227 30.6205 92.0227 30.8205Z" fill="white"/>
<path d="M84.3219 61.0205L83.8219 60.8205C83.3219 60.6205 82.9219 60.9205 82.9219 61.4205V65.0205C82.9219 67.2205 84.4219 69.6205 86.3219 70.4205L86.8219 70.6205C87.3219 70.8205 87.7219 70.5205 87.7219 70.0205V66.4205C87.6219 64.2205 86.1219 61.8205 84.3219 61.0205Z" fill="white"/>
<path d="M95.3219 21.0205L94.8219 20.8205C94.3219 20.6205 93.9219 20.9205 93.9219 21.4205V25.0205C93.9219 27.2205 95.4219 29.6205 97.3219 30.4205L97.8219 30.6205C98.3219 30.8205 98.7219 30.5205 98.7219 30.0205V26.4205C98.6219 24.2205 97.1219 21.8205 95.3219 21.0205Z" fill="white"/>
<path d="M103.023 20.8205L102.523 21.0205C100.723 21.8205 99.2227 24.2205 99.2227 26.4205V30.0205C99.2227 30.6205 99.6227 30.9205 100.123 30.6205L100.623 30.4205C102.423 29.6205 103.923 27.2205 103.923 25.0205V21.4205C103.923 20.9205 103.523 20.6205 103.023 20.8205Z" fill="white"/>
<path d="M95.3219 51.0205L94.8219 50.8205C94.3219 50.6205 93.9219 50.9205 93.9219 51.4205V55.0205C93.9219 57.2205 95.4219 59.6205 97.3219 60.4205L97.8219 60.6205C98.3219 60.8205 98.7219 60.5205 98.7219 60.0205V56.4205C98.6219 54.2205 97.1219 51.8205 95.3219 51.0205Z" fill="white"/>
<path d="M103.023 50.8205L102.523 51.0205C100.723 51.8205 99.2227 54.2205 99.2227 56.4205V60.0205C99.2227 60.6205 99.6227 60.9205 100.123 60.6205L100.623 60.4205C102.423 59.6205 103.923 57.2205 103.923 55.0205V51.4205C103.923 50.9205 103.523 50.6205 103.023 50.8205Z" fill="white"/>
<path d="M95.3219 31.0205L94.8219 30.8205C94.3219 30.6205 93.9219 30.9205 93.9219 31.4205V35.0205C93.9219 37.2205 95.4219 39.6205 97.3219 40.4205L97.8219 40.6205C98.3219 40.8205 98.7219 40.5205 98.7219 40.0205V36.4205C98.6219 34.2205 97.1219 31.8205 95.3219 31.0205Z" fill="white"/>
<path d="M103.023 30.8205L102.523 31.0205C100.723 31.8205 99.2227 34.2205 99.2227 36.4205V40.0205C99.2227 40.6205 99.6227 40.9205 100.123 40.6205L100.623 40.4205C102.423 39.6205 103.923 37.2205 103.923 35.0205V31.4205C103.923 30.9205 103.523 30.6205 103.023 30.8205Z" fill="white"/>
<path d="M106.322 21.0205L105.822 20.8205C105.322 20.6205 104.922 20.9205 104.922 21.4205V25.0205C104.922 27.2205 106.422 29.6205 108.322 30.4205L108.822 30.6205C109.322 30.8205 109.722 30.5205 109.722 30.0205V26.4205C109.622 24.2205 108.122 21.8205 106.322 21.0205Z" fill="white"/>
<path d="M106.322 31.0205L105.822 30.8205C105.322 30.6205 104.922 30.9205 104.922 31.4205V35.0205C104.922 37.2205 106.422 39.6205 108.322 40.4205L108.822 40.6205C109.322 40.8205 109.722 40.5205 109.722 40.0205V36.4205C109.622 34.2205 108.122 31.8205 106.322 31.0205Z" fill="white"/>
</svg>
