<svg width="144" height="140" viewBox="0 0 144 140" fill="none" xmlns="http://www.w3.org/2000/svg">
<path d="M2.4 10.2724L1.9 10.0724C1.4 9.87241 1 10.1724 1 10.6724V14.2724C1 16.4724 2.5 18.8724 4.4 19.6724L4.9 19.8724C5.4 20.0724 5.8 19.7724 5.8 19.2724V15.6724C5.7 13.4724 4.2 11.0724 2.4 10.2724Z" fill="white"/>
<path d="M10.0998 10.0724L9.5998 10.2724C7.7998 11.0724 6.2998 13.4724 6.2998 15.6724V19.2724C6.2998 19.8724 6.6998 20.1724 7.1998 19.8724L7.6998 19.6724C9.4998 18.8724 10.9998 16.4724 10.9998 14.2724V10.6724C10.9998 10.1724 10.5998 9.87241 10.0998 10.0724Z" fill="white"/>
<path d="M2.4 20.2724L1.9 20.0724C1.4 19.8724 1 20.1724 1 20.6724V24.2724C1 26.4724 2.5 28.8724 4.4 29.6724L4.9 29.8724C5.4 30.0724 5.8 29.7724 5.8 29.2724V25.6724C5.7 23.4724 4.2 21.0724 2.4 20.2724Z" fill="white"/>
<path d="M10.0998 20.0724L9.5998 20.2724C7.7998 21.0724 6.2998 23.4724 6.2998 25.6724V29.2724C6.2998 29.8724 6.6998 30.1724 7.1998 29.8724L7.6998 29.6724C9.4998 28.8724 10.9998 26.4724 10.9998 24.2724V20.6724C10.9998 20.1724 10.5998 19.8724 10.0998 20.0724Z" fill="white"/>
<path d="M2.4 30.2724L1.9 30.0724C1.4 29.8724 1 30.1724 1 30.6724V34.2724C1 36.4724 2.5 38.8724 4.4 39.6724L4.9 39.8724C5.4 40.0724 5.8 39.7724 5.8 39.2724V35.6724C5.7 33.4724 4.2 31.0724 2.4 30.2724Z" fill="white"/>
<path d="M10.0998 30.0724L9.5998 30.2724C7.7998 31.0724 6.2998 33.4724 6.2998 35.6724V39.2724C6.2998 39.8724 6.6998 40.1724 7.1998 39.8724L7.6998 39.6724C9.4998 38.8724 10.9998 36.4724 10.9998 34.2724V30.6724C10.9998 30.1724 10.5998 29.8724 10.0998 30.0724Z" fill="white"/>
<path d="M2.4 40.2724L1.9 40.0724C1.4 39.8724 1 40.1724 1 40.6724V44.2724C1 46.4724 2.5 48.8724 4.4 49.6724L4.9 49.8724C5.4 50.0724 5.8 49.7724 5.8 49.2724V45.6724C5.7 43.4724 4.2 41.0724 2.4 40.2724Z" fill="white"/>
<path d="M10.0998 40.0724L9.5998 40.2724C7.7998 41.0724 6.2998 43.4724 6.2998 45.6724V49.2724C6.2998 49.8724 6.6998 50.1724 7.1998 49.8724L7.6998 49.6724C9.4998 48.8724 10.9998 46.4724 10.9998 44.2724V40.6724C10.9998 40.1724 10.5998 39.8724 10.0998 40.0724Z" fill="white"/>
<path d="M2.4 50.2724L1.9 50.0724C1.4 49.8724 1 50.1724 1 50.6724V54.2724C1 56.4724 2.5 58.8724 4.4 59.6724L4.9 59.8724C5.4 60.0724 5.8 59.7724 5.8 59.2724V55.6724C5.7 53.4724 4.2 51.0724 2.4 50.2724Z" fill="white"/>
<path d="M10.0998 50.0724L9.5998 50.2724C7.7998 51.0724 6.2998 53.4724 6.2998 55.6724V59.2724C6.2998 59.8724 6.6998 60.1724 7.1998 59.8724L7.6998 59.6724C9.4998 58.8724 10.9998 56.4724 10.9998 54.2724V50.6724C10.9998 50.1724 10.5998 49.8724 10.0998 50.0724Z" fill="white"/>
<path d="M2.4 60.2724L1.9 60.0724C1.4 59.8724 1 60.1724 1 60.6724V64.2724C1 66.4724 2.5 68.8724 4.4 69.6724L4.9 69.8724C5.4 70.0724 5.8 69.7724 5.8 69.2724V65.6724C5.7 63.4724 4.2 61.0724 2.4 60.2724Z" fill="white"/>
<path d="M10.0998 60.0724L9.5998 60.2724C7.7998 61.0724 6.2998 63.4724 6.2998 65.6724V69.2724C6.2998 69.8724 6.6998 70.1724 7.1998 69.8724L7.6998 69.6724C9.4998 68.8724 10.9998 66.4724 10.9998 64.2724V60.6724C10.9998 60.1724 10.5998 59.8724 10.0998 60.0724Z" fill="white"/>
<path d="M13.4 0.272412L12.9 0.0724119C12.4 -0.127588 12 0.172412 12 0.672412V4.27241C12 6.47241 13.5 8.87241 15.4 9.67241L15.9 9.87241C16.4 10.0724 16.8 9.77241 16.8 9.27241V5.67241C16.7 3.47241 15.2 1.07241 13.4 0.272412Z" fill="white"/>
<path d="M21.0998 0.0724119L20.5998 0.272412C18.7998 1.07241 17.2998 3.47241 17.2998 5.67241V9.27241C17.2998 9.87241 17.6998 10.1724 18.1998 9.87241L18.6998 9.67241C20.4998 8.87241 21.9998 6.47241 21.9998 4.27241V0.672412C21.9998 0.172412 21.5998 -0.127588 21.0998 0.0724119Z" fill="white"/>
<path d="M13.4 10.2724L12.9 10.0724C12.4 9.87241 12 10.1724 12 10.6724V14.2724C12 16.4724 13.5 18.8724 15.4 19.6724L15.9 19.8724C16.4 20.0724 16.8 19.7724 16.8 19.2724V15.6724C16.7 13.4724 15.2 11.0724 13.4 10.2724Z" fill="white"/>
<path d="M21.0998 10.0724L20.5998 10.2724C18.7998 11.0724 17.2998 13.4724 17.2998 15.6724V19.2724C17.2998 19.8724 17.6998 20.1724 18.1998 19.8724L18.6998 19.6724C20.4998 18.8724 21.9998 16.4724 21.9998 14.2724V10.6724C21.9998 10.1724 21.5998 9.87241 21.0998 10.0724Z" fill="white"/>
<path d="M13.4 20.2724L12.9 20.0724C12.4 19.8724 12 20.1724 12 20.6724V24.2724C12 26.4724 13.5 28.8724 15.4 29.6724L15.9 29.8724C16.4 30.0724 16.8 29.7724 16.8 29.2724V25.6724C16.7 23.4724 15.2 21.0724 13.4 20.2724Z" fill="white"/>
<path d="M21.0998 20.0724L20.5998 20.2724C18.7998 21.0724 17.2998 23.4724 17.2998 25.6724V29.2724C17.2998 29.8724 17.6998 30.1724 18.1998 29.8724L18.6998 29.6724C20.4998 28.8724 21.9998 26.4724 21.9998 24.2724V20.6724C21.9998 20.1724 21.5998 19.8724 21.0998 20.0724Z" fill="white"/>
<path d="M13.4 30.2724L12.9 30.0724C12.4 29.8724 12 30.1724 12 30.6724V34.2724C12 36.4724 13.5 38.8724 15.4 39.6724L15.9 39.8724C16.4 40.0724 16.8 39.7724 16.8 39.2724V35.6724C16.7 33.4724 15.2 31.0724 13.4 30.2724Z" fill="white"/>
<path d="M21.0998 30.0724L20.5998 30.2724C18.7998 31.0724 17.2998 33.4724 17.2998 35.6724V39.2724C17.2998 39.8724 17.6998 40.1724 18.1998 39.8724L18.6998 39.6724C20.4998 38.8724 21.9998 36.4724 21.9998 34.2724V30.6724C21.9998 30.1724 21.5998 29.8724 21.0998 30.0724Z" fill="white"/>
<path d="M13.4 40.2724L12.9 40.0724C12.4 39.8724 12 40.1724 12 40.6724V44.2724C12 46.4724 13.5 48.8724 15.4 49.6724L15.9 49.8724C16.4 50.0724 16.8 49.7724 16.8 49.2724V45.6724C16.7 43.4724 15.2 41.0724 13.4 40.2724Z" fill="white"/>
<path d="M21.0998 40.0724L20.5998 40.2724C18.7998 41.0724 17.2998 43.4724 17.2998 45.6724V49.2724C17.2998 49.8724 17.6998 50.1724 18.1998 49.8724L18.6998 49.6724C20.4998 48.8724 21.9998 46.4724 21.9998 44.2724V40.6724C21.9998 40.1724 21.5998 39.8724 21.0998 40.0724Z" fill="white"/>
<path d="M13.4 50.2724L12.9 50.0724C12.4 49.8724 12 50.1724 12 50.6724V54.2724C12 56.4724 13.5 58.8724 15.4 59.6724L15.9 59.8724C16.4 60.0724 16.8 59.7724 16.8 59.2724V55.6724C16.7 53.4724 15.2 51.0724 13.4 50.2724Z" fill="white"/>
<path d="M21.0998 50.0724L20.5998 50.2724C18.7998 51.0724 17.2998 53.4724 17.2998 55.6724V59.2724C17.2998 59.8724 17.6998 60.1724 18.1998 59.8724L18.6998 59.6724C20.4998 58.8724 21.9998 56.4724 21.9998 54.2724V50.6724C21.9998 50.1724 21.5998 49.8724 21.0998 50.0724Z" fill="white"/>
<path d="M13.4 60.2724L12.9 60.0724C12.4 59.8724 12 60.1724 12 60.6724V64.2724C12 66.4724 13.5 68.8724 15.4 69.6724L15.9 69.8724C16.4 70.0724 16.8 69.7724 16.8 69.2724V65.6724C16.7 63.4724 15.2 61.0724 13.4 60.2724Z" fill="white"/>
<path d="M21.0998 60.0724L20.5998 60.2724C18.7998 61.0724 17.2998 63.4724 17.2998 65.6724V69.2724C17.2998 69.8724 17.6998 70.1724 18.1998 69.8724L18.6998 69.6724C20.4998 68.8724 21.9998 66.4724 21.9998 64.2724V60.6724C21.9998 60.1724 21.5998 59.8724 21.0998 60.0724Z" fill="white"/>
<path d="M24.4 0.272412L23.9 0.0724119C23.4 -0.127588 23 0.172412 23 0.672412V4.27241C23 6.47241 24.5 8.87241 26.4 9.67241L26.9 9.87241C27.4 10.0724 27.8 9.77241 27.8 9.27241V5.67241C27.7 3.47241 26.2 1.07241 24.4 0.272412Z" fill="white"/>
<path d="M32.0998 0.0724119L31.5998 0.272412C29.7998 1.07241 28.2998 3.47241 28.2998 5.67241V9.27241C28.2998 9.87241 28.6998 10.1724 29.1998 9.87241L29.6998 9.67241C31.4998 8.87241 32.9998 6.47241 32.9998 4.27241V0.672412C32.9998 0.172412 32.5998 -0.127588 32.0998 0.0724119Z" fill="white"/>
<path d="M24.4 10.2724L23.9 10.0724C23.4 9.87241 23 10.1724 23 10.6724V14.2724C23 16.4724 24.5 18.8724 26.4 19.6724L26.9 19.8724C27.4 20.0724 27.8 19.7724 27.8 19.2724V15.6724C27.7 13.4724 26.2 11.0724 24.4 10.2724Z" fill="white"/>
<path d="M32.0998 10.0724L31.5998 10.2724C29.7998 11.0724 28.2998 13.4724 28.2998 15.6724V19.2724C28.2998 19.8724 28.6998 20.1724 29.1998 19.8724L29.6998 19.6724C31.4998 18.8724 32.9998 16.4724 32.9998 14.2724V10.6724C32.9998 10.1724 32.5998 9.87241 32.0998 10.0724Z" fill="white"/>
<path d="M24.4 20.2724L23.9 20.0724C23.4 19.8724 23 20.1724 23 20.6724V24.2724C23 26.4724 24.5 28.8724 26.4 29.6724L26.9 29.8724C27.4 30.0724 27.8 29.7724 27.8 29.2724V25.6724C27.7 23.4724 26.2 21.0724 24.4 20.2724Z" fill="white"/>
<path d="M32.0998 20.0724L31.5998 20.2724C29.7998 21.0724 28.2998 23.4724 28.2998 25.6724V29.2724C28.2998 29.8724 28.6998 30.1724 29.1998 29.8724L29.6998 29.6724C31.4998 28.8724 32.9998 26.4724 32.9998 24.2724V20.6724C32.9998 20.1724 32.5998 19.8724 32.0998 20.0724Z" fill="white"/>
<path d="M24.4 30.2724L23.9 30.0724C23.4 29.8724 23 30.1724 23 30.6724V34.2724C23 36.4724 24.5 38.8724 26.4 39.6724L26.9 39.8724C27.4 40.0724 27.8 39.7724 27.8 39.2724V35.6724C27.7 33.4724 26.2 31.0724 24.4 30.2724Z" fill="white"/>
<path d="M32.0998 30.0724L31.5998 30.2724C29.7998 31.0724 28.2998 33.4724 28.2998 35.6724V39.2724C28.2998 39.8724 28.6998 40.1724 29.1998 39.8724L29.6998 39.6724C31.4998 38.8724 32.9998 36.4724 32.9998 34.2724V30.6724C32.9998 30.1724 32.5998 29.8724 32.0998 30.0724Z" fill="white"/>
<path d="M24.4 40.2724L23.9 40.0724C23.4 39.8724 23 40.1724 23 40.6724V44.2724C23 46.4724 24.5 48.8724 26.4 49.6724L26.9 49.8724C27.4 50.0724 27.8 49.7724 27.8 49.2724V45.6724C27.7 43.4724 26.2 41.0724 24.4 40.2724Z" fill="white"/>
<path d="M32.0998 40.0724L31.5998 40.2724C29.7998 41.0724 28.2998 43.4724 28.2998 45.6724V49.2724C28.2998 49.8724 28.6998 50.1724 29.1998 49.8724L29.6998 49.6724C31.4998 48.8724 32.9998 46.4724 32.9998 44.2724V40.6724C32.9998 40.1724 32.5998 39.8724 32.0998 40.0724Z" fill="white"/>
<path d="M24.4 50.2724L23.9 50.0724C23.4 49.8724 23 50.1724 23 50.6724V54.2724C23 56.4724 24.5 58.8724 26.4 59.6724L26.9 59.8724C27.4 60.0724 27.8 59.7724 27.8 59.2724V55.6724C27.7 53.4724 26.2 51.0724 24.4 50.2724Z" fill="white"/>
<path d="M32.0998 50.0724L31.5998 50.2724C29.7998 51.0724 28.2998 53.4724 28.2998 55.6724V59.2724C28.2998 59.8724 28.6998 60.1724 29.1998 59.8724L29.6998 59.6724C31.4998 58.8724 32.9998 56.4724 32.9998 54.2724V50.6724C32.9998 50.1724 32.5998 49.8724 32.0998 50.0724Z" fill="white"/>
<path d="M24.4 60.2724L23.9 60.0724C23.4 59.8724 23 60.1724 23 60.6724V64.2724C23 66.4724 24.5 68.8724 26.4 69.6724L26.9 69.8724C27.4 70.0724 27.8 69.7724 27.8 69.2724V65.6724C27.7 63.4724 26.2 61.0724 24.4 60.2724Z" fill="white"/>
<path d="M32.0998 60.0724L31.5998 60.2724C29.7998 61.0724 28.2998 63.4724 28.2998 65.6724V69.2724C28.2998 69.8724 28.6998 70.1724 29.1998 69.8724L29.6998 69.6724C31.4998 68.8724 32.9998 66.4724 32.9998 64.2724V60.6724C32.9998 60.1724 32.5998 59.8724 32.0998 60.0724Z" fill="white"/>
<path d="M35.4 0.272412L34.9 0.0724119C34.4 -0.127588 34 0.172412 34 0.672412V4.27241C34 6.47241 35.5 8.87241 37.4 9.67241L37.9 9.87241C38.4 10.0724 38.8 9.77241 38.8 9.27241V5.67241C38.7 3.47241 37.2 1.07241 35.4 0.272412Z" fill="white"/>
<path d="M43.0998 0.0724119L42.5998 0.272412C40.7998 1.07241 39.2998 3.47241 39.2998 5.67241V9.27241C39.2998 9.87241 39.6998 10.1724 40.1998 9.87241L40.6998 9.67241C42.4998 8.87241 43.9998 6.47241 43.9998 4.27241V0.672412C43.9998 0.172412 43.5998 -0.127588 43.0998 0.0724119Z" fill="white"/>
<path d="M35.4 10.2724L34.9 10.0724C34.4 9.87241 34 10.1724 34 10.6724V14.2724C34 16.4724 35.5 18.8724 37.4 19.6724L37.9 19.8724C38.4 20.0724 38.8 19.7724 38.8 19.2724V15.6724C38.7 13.4724 37.2 11.0724 35.4 10.2724Z" fill="white"/>
<path d="M43.0998 10.0724L42.5998 10.2724C40.7998 11.0724 39.2998 13.4724 39.2998 15.6724V19.2724C39.2998 19.8724 39.6998 20.1724 40.1998 19.8724L40.6998 19.6724C42.4998 18.8724 43.9998 16.4724 43.9998 14.2724V10.6724C43.9998 10.1724 43.5998 9.87241 43.0998 10.0724Z" fill="white"/>
<path d="M35.4 20.2724L34.9 20.0724C34.4 19.8724 34 20.1724 34 20.6724V24.2724C34 26.4724 35.5 28.8724 37.4 29.6724L37.9 29.8724C38.4 30.0724 38.8 29.7724 38.8 29.2724V25.6724C38.7 23.4724 37.2 21.0724 35.4 20.2724Z" fill="white"/>
<path d="M43.0998 20.0724L42.5998 20.2724C40.7998 21.0724 39.2998 23.4724 39.2998 25.6724V29.2724C39.2998 29.8724 39.6998 30.1724 40.1998 29.8724L40.6998 29.6724C42.4998 28.8724 43.9998 26.4724 43.9998 24.2724V20.6724C43.9998 20.1724 43.5998 19.8724 43.0998 20.0724Z" fill="white"/>
<path d="M35.4 30.2724L34.9 30.0724C34.4 29.8724 34 30.1724 34 30.6724V34.2724C34 36.4724 35.5 38.8724 37.4 39.6724L37.9 39.8724C38.4 40.0724 38.8 39.7724 38.8 39.2724V35.6724C38.7 33.4724 37.2 31.0724 35.4 30.2724Z" fill="white"/>
<path d="M43.0998 30.0724L42.5998 30.2724C40.7998 31.0724 39.2998 33.4724 39.2998 35.6724V39.2724C39.2998 39.8724 39.6998 40.1724 40.1998 39.8724L40.6998 39.6724C42.4998 38.8724 43.9998 36.4724 43.9998 34.2724V30.6724C43.9998 30.1724 43.5998 29.8724 43.0998 30.0724Z" fill="white"/>
<path d="M35.4 40.2724L34.9 40.0724C34.4 39.8724 34 40.1724 34 40.6724V44.2724C34 46.4724 35.5 48.8724 37.4 49.6724L37.9 49.8724C38.4 50.0724 38.8 49.7724 38.8 49.2724V45.6724C38.7 43.4724 37.2 41.0724 35.4 40.2724Z" fill="white"/>
<path d="M43.0998 40.0724L42.5998 40.2724C40.7998 41.0724 39.2998 43.4724 39.2998 45.6724V49.2724C39.2998 49.8724 39.6998 50.1724 40.1998 49.8724L40.6998 49.6724C42.4998 48.8724 43.9998 46.4724 43.9998 44.2724V40.6724C43.9998 40.1724 43.5998 39.8724 43.0998 40.0724Z" fill="white"/>
<path d="M35.4 50.2724L34.9 50.0724C34.4 49.8724 34 50.1724 34 50.6724V54.2724C34 56.4724 35.5 58.8724 37.4 59.6724L37.9 59.8724C38.4 60.0724 38.8 59.7724 38.8 59.2724V55.6724C38.7 53.4724 37.2 51.0724 35.4 50.2724Z" fill="white"/>
<path d="M43.0998 50.0724L42.5998 50.2724C40.7998 51.0724 39.2998 53.4724 39.2998 55.6724V59.2724C39.2998 59.8724 39.6998 60.1724 40.1998 59.8724L40.6998 59.6724C42.4998 58.8724 43.9998 56.4724 43.9998 54.2724V50.6724C43.9998 50.1724 43.5998 49.8724 43.0998 50.0724Z" fill="white"/>
<path d="M35.4 60.2724L34.9 60.0724C34.4 59.8724 34 60.1724 34 60.6724V64.2724C34 66.4724 35.5 68.8724 37.4 69.6724L37.9 69.8724C38.4 70.0724 38.8 69.7724 38.8 69.2724V65.6724C38.7 63.4724 37.2 61.0724 35.4 60.2724Z" fill="white"/>
<path d="M43.0998 60.0724L42.5998 60.2724C40.7998 61.0724 39.2998 63.4724 39.2998 65.6724V69.2724C39.2998 69.8724 39.6998 70.1724 40.1998 69.8724L40.6998 69.6724C42.4998 68.8724 43.9998 66.4724 43.9998 64.2724V60.6724C43.9998 60.1724 43.5998 59.8724 43.0998 60.0724Z" fill="white"/>
<path d="M46.4 0.272412L45.9 0.0724119C45.4 -0.127588 45 0.172412 45 0.672412V4.27241C45 6.47241 46.5 8.87241 48.4 9.67241L48.9 9.87241C49.4 10.0724 49.8 9.77241 49.8 9.27241V5.67241C49.7 3.47241 48.2 1.07241 46.4 0.272412Z" fill="white"/>
<path d="M54.0998 0.0724119L53.5998 0.272412C51.7998 1.07241 50.2998 3.47241 50.2998 5.67241V9.27241C50.2998 9.87241 50.6998 10.1724 51.1998 9.87241L51.6998 9.67241C53.4998 8.87241 54.9998 6.47241 54.9998 4.27241V0.672412C54.9998 0.172412 54.5998 -0.127588 54.0998 0.0724119Z" fill="white"/>
<path d="M46.4 10.2724L45.9 10.0724C45.4 9.87241 45 10.1724 45 10.6724V14.2724C45 16.4724 46.5 18.8724 48.4 19.6724L48.9 19.8724C49.4 20.0724 49.8 19.7724 49.8 19.2724V15.6724C49.7 13.4724 48.2 11.0724 46.4 10.2724Z" fill="white"/>
<path d="M54.0998 10.0724L53.5998 10.2724C51.7998 11.0724 50.2998 13.4724 50.2998 15.6724V19.2724C50.2998 19.8724 50.6998 20.1724 51.1998 19.8724L51.6998 19.6724C53.4998 18.8724 54.9998 16.4724 54.9998 14.2724V10.6724C54.9998 10.1724 54.5998 9.87241 54.0998 10.0724Z" fill="white"/>
<path d="M46.4 20.2724L45.9 20.0724C45.4 19.8724 45 20.1724 45 20.6724V24.2724C45 26.4724 46.5 28.8724 48.4 29.6724L48.9 29.8724C49.4 30.0724 49.8 29.7724 49.8 29.2724V25.6724C49.7 23.4724 48.2 21.0724 46.4 20.2724Z" fill="white"/>
<path d="M54.0998 20.0724L53.5998 20.2724C51.7998 21.0724 50.2998 23.4724 50.2998 25.6724V29.2724C50.2998 29.8724 50.6998 30.1724 51.1998 29.8724L51.6998 29.6724C53.4998 28.8724 54.9998 26.4724 54.9998 24.2724V20.6724C54.9998 20.1724 54.5998 19.8724 54.0998 20.0724Z" fill="white"/>
<path d="M46.4 30.2724L45.9 30.0724C45.4 29.8724 45 30.1724 45 30.6724V34.2724C45 36.4724 46.5 38.8724 48.4 39.6724L48.9 39.8724C49.4 40.0724 49.8 39.7724 49.8 39.2724V35.6724C49.7 33.4724 48.2 31.0724 46.4 30.2724Z" fill="white"/>
<path d="M54.0998 30.0724L53.5998 30.2724C51.7998 31.0724 50.2998 33.4724 50.2998 35.6724V39.2724C50.2998 39.8724 50.6998 40.1724 51.1998 39.8724L51.6998 39.6724C53.4998 38.8724 54.9998 36.4724 54.9998 34.2724V30.6724C54.9998 30.1724 54.5998 29.8724 54.0998 30.0724Z" fill="white"/>
<path d="M46.4 40.2724L45.9 40.0724C45.4 39.8724 45 40.1724 45 40.6724V44.2724C45 46.4724 46.5 48.8724 48.4 49.6724L48.9 49.8724C49.4 50.0724 49.8 49.7724 49.8 49.2724V45.6724C49.7 43.4724 48.2 41.0724 46.4 40.2724Z" fill="white"/>
<path d="M54.0998 40.0724L53.5998 40.2724C51.7998 41.0724 50.2998 43.4724 50.2998 45.6724V49.2724C50.2998 49.8724 50.6998 50.1724 51.1998 49.8724L51.6998 49.6724C53.4998 48.8724 54.9998 46.4724 54.9998 44.2724V40.6724C54.9998 40.1724 54.5998 39.8724 54.0998 40.0724Z" fill="white"/>
<path d="M46.4 50.2724L45.9 50.0724C45.4 49.8724 45 50.1724 45 50.6724V54.2724C45 56.4724 46.5 58.8724 48.4 59.6724L48.9 59.8724C49.4 60.0724 49.8 59.7724 49.8 59.2724V55.6724C49.7 53.4724 48.2 51.0724 46.4 50.2724Z" fill="white"/>
<path d="M54.0998 50.0724L53.5998 50.2724C51.7998 51.0724 50.2998 53.4724 50.2998 55.6724V59.2724C50.2998 59.8724 50.6998 60.1724 51.1998 59.8724L51.6998 59.6724C53.4998 58.8724 54.9998 56.4724 54.9998 54.2724V50.6724C54.9998 50.1724 54.5998 49.8724 54.0998 50.0724Z" fill="white"/>
<path d="M46.4 60.2724L45.9 60.0724C45.4 59.8724 45 60.1724 45 60.6724V64.2724C45 66.4724 46.5 68.8724 48.4 69.6724L48.9 69.8724C49.4 70.0724 49.8 69.7724 49.8 69.2724V65.6724C49.7 63.4724 48.2 61.0724 46.4 60.2724Z" fill="white"/>
<path d="M54.0998 60.0724L53.5998 60.2724C51.7998 61.0724 50.2998 63.4724 50.2998 65.6724V69.2724C50.2998 69.8724 50.6998 70.1724 51.1998 69.8724L51.6998 69.6724C53.4998 68.8724 54.9998 66.4724 54.9998 64.2724V60.6724C54.9998 60.1724 54.5998 59.8724 54.0998 60.0724Z" fill="white"/>
<path d="M57.4 10.2724L56.9 10.0724C56.4 9.87241 56 10.1724 56 10.6724V14.2724C56 16.4724 57.5 18.8724 59.4 19.6724L59.9 19.8724C60.4 20.0724 60.8 19.7724 60.8 19.2724V15.6724C60.7 13.4724 59.2 11.0724 57.4 10.2724Z" fill="white"/>
<path d="M65.0998 10.0724L64.5998 10.2724C62.7998 11.0724 61.2998 13.4724 61.2998 15.6724V19.2724C61.2998 19.8724 61.6998 20.1724 62.1998 19.8724L62.6998 19.6724C64.4998 18.8724 65.9998 16.4724 65.9998 14.2724V10.6724C65.9998 10.1724 65.5998 9.87241 65.0998 10.0724Z" fill="white"/>
<path d="M57.4 20.2724L56.9 20.0724C56.4 19.8724 56 20.1724 56 20.6724V24.2724C56 26.4724 57.5 28.8724 59.4 29.6724L59.9 29.8724C60.4 30.0724 60.8 29.7724 60.8 29.2724V25.6724C60.7 23.4724 59.2 21.0724 57.4 20.2724Z" fill="white"/>
<path d="M65.0998 20.0724L64.5998 20.2724C62.7998 21.0724 61.2998 23.4724 61.2998 25.6724V29.2724C61.2998 29.8724 61.6998 30.1724 62.1998 29.8724L62.6998 29.6724C64.4998 28.8724 65.9998 26.4724 65.9998 24.2724V20.6724C65.9998 20.1724 65.5998 19.8724 65.0998 20.0724Z" fill="white"/>
<path d="M57.4 30.2724L56.9 30.0724C56.4 29.8724 56 30.1724 56 30.6724V34.2724C56 36.4724 57.5 38.8724 59.4 39.6724L59.9 39.8724C60.4 40.0724 60.8 39.7724 60.8 39.2724V35.6724C60.7 33.4724 59.2 31.0724 57.4 30.2724Z" fill="white"/>
<path d="M65.0998 30.0724L64.5998 30.2724C62.7998 31.0724 61.2998 33.4724 61.2998 35.6724V39.2724C61.2998 39.8724 61.6998 40.1724 62.1998 39.8724L62.6998 39.6724C64.4998 38.8724 65.9998 36.4724 65.9998 34.2724V30.6724C65.9998 30.1724 65.5998 29.8724 65.0998 30.0724Z" fill="white"/>
<path d="M57.4 40.2724L56.9 40.0724C56.4 39.8724 56 40.1724 56 40.6724V44.2724C56 46.4724 57.5 48.8724 59.4 49.6724L59.9 49.8724C60.4 50.0724 60.8 49.7724 60.8 49.2724V45.6724C60.7 43.4724 59.2 41.0724 57.4 40.2724Z" fill="white"/>
<path d="M65.0998 40.0724L64.5998 40.2724C62.7998 41.0724 61.2998 43.4724 61.2998 45.6724V49.2724C61.2998 49.8724 61.6998 50.1724 62.1998 49.8724L62.6998 49.6724C64.4998 48.8724 65.9998 46.4724 65.9998 44.2724V40.6724C65.9998 40.1724 65.5998 39.8724 65.0998 40.0724Z" fill="white"/>
<path d="M57.4 50.2724L56.9 50.0724C56.4 49.8724 56 50.1724 56 50.6724V54.2724C56 56.4724 57.5 58.8724 59.4 59.6724L59.9 59.8724C60.4 60.0724 60.8 59.7724 60.8 59.2724V55.6724C60.7 53.4724 59.2 51.0724 57.4 50.2724Z" fill="white"/>
<path d="M65.0998 50.0724L64.5998 50.2724C62.7998 51.0724 61.2998 53.4724 61.2998 55.6724V59.2724C61.2998 59.8724 61.6998 60.1724 62.1998 59.8724L62.6998 59.6724C64.4998 58.8724 65.9998 56.4724 65.9998 54.2724V50.6724C65.9998 50.1724 65.5998 49.8724 65.0998 50.0724Z" fill="white"/>
<path d="M57.4 60.2724L56.9 60.0724C56.4 59.8724 56 60.1724 56 60.6724V64.2724C56 66.4724 57.5 68.8724 59.4 69.6724L59.9 69.8724C60.4 70.0724 60.8 69.7724 60.8 69.2724V65.6724C60.7 63.4724 59.2 61.0724 57.4 60.2724Z" fill="white"/>
<path d="M65.0998 60.0724L64.5998 60.2724C62.7998 61.0724 61.2998 63.4724 61.2998 65.6724V69.2724C61.2998 69.8724 61.6998 70.1724 62.1998 69.8724L62.6998 69.6724C64.4998 68.8724 65.9998 66.4724 65.9998 64.2724V60.6724C65.9998 60.1724 65.5998 59.8724 65.0998 60.0724Z" fill="white"/>
<path d="M68.4 20.2724L67.9 20.0724C67.4 19.8724 67 20.1724 67 20.6724V24.2724C67 26.4724 68.5 28.8724 70.4 29.6724L70.9 29.8724C71.4 30.0724 71.8 29.7724 71.8 29.2724V25.6724C71.7 23.4724 70.2 21.0724 68.4 20.2724Z" fill="white"/>
<path d="M76.0998 20.0724L75.5998 20.2724C73.7998 21.0724 72.2998 23.4724 72.2998 25.6724V29.2724C72.2998 29.8724 72.6998 30.1724 73.1998 29.8724L73.6998 29.6724C75.4998 28.8724 76.9998 26.4724 76.9998 24.2724V20.6724C76.9998 20.1724 76.5998 19.8724 76.0998 20.0724Z" fill="white"/>
<path d="M68.4 30.2724L67.9 30.0724C67.4 29.8724 67 30.1724 67 30.6724V34.2724C67 36.4724 68.5 38.8724 70.4 39.6724L70.9 39.8724C71.4 40.0724 71.8 39.7724 71.8 39.2724V35.6724C71.7 33.4724 70.2 31.0724 68.4 30.2724Z" fill="white"/>
<path d="M76.0998 30.0724L75.5998 30.2724C73.7998 31.0724 72.2998 33.4724 72.2998 35.6724V39.2724C72.2998 39.8724 72.6998 40.1724 73.1998 39.8724L73.6998 39.6724C75.4998 38.8724 76.9998 36.4724 76.9998 34.2724V30.6724C76.9998 30.1724 76.5998 29.8724 76.0998 30.0724Z" fill="white"/>
<path d="M68.4 40.2724L67.9 40.0724C67.4 39.8724 67 40.1724 67 40.6724V44.2724C67 46.4724 68.5 48.8724 70.4 49.6724L70.9 49.8724C71.4 50.0724 71.8 49.7724 71.8 49.2724V45.6724C71.7 43.4724 70.2 41.0724 68.4 40.2724Z" fill="white"/>
<path d="M76.0998 40.0724L75.5998 40.2724C73.7998 41.0724 72.2998 43.4724 72.2998 45.6724V49.2724C72.2998 49.8724 72.6998 50.1724 73.1998 49.8724L73.6998 49.6724C75.4998 48.8724 76.9998 46.4724 76.9998 44.2724V40.6724C76.9998 40.1724 76.5998 39.8724 76.0998 40.0724Z" fill="white"/>
<path d="M68.4 50.2724L67.9 50.0724C67.4 49.8724 67 50.1724 67 50.6724V54.2724C67 56.4724 68.5 58.8724 70.4 59.6724L70.9 59.8724C71.4 60.0724 71.8 59.7724 71.8 59.2724V55.6724C71.7 53.4724 70.2 51.0724 68.4 50.2724Z" fill="white"/>
<path d="M76.0998 50.0724L75.5998 50.2724C73.7998 51.0724 72.2998 53.4724 72.2998 55.6724V59.2724C72.2998 59.8724 72.6998 60.1724 73.1998 59.8724L73.6998 59.6724C75.4998 58.8724 76.9998 56.4724 76.9998 54.2724V50.6724C76.9998 50.1724 76.5998 49.8724 76.0998 50.0724Z" fill="white"/>
<path d="M68.4 60.2724L67.9 60.0724C67.4 59.8724 67 60.1724 67 60.6724V64.2724C67 66.4724 68.5 68.8724 70.4 69.6724L70.9 69.8724C71.4 70.0724 71.8 69.7724 71.8 69.2724V65.6724C71.7 63.4724 70.2 61.0724 68.4 60.2724Z" fill="white"/>
<path d="M76.0998 60.0724L75.5998 60.2724C73.7998 61.0724 72.2998 63.4724 72.2998 65.6724V69.2724C72.2998 69.8724 72.6998 70.1724 73.1998 69.8724L73.6998 69.6724C75.4998 68.8724 76.9998 66.4724 76.9998 64.2724V60.6724C76.9998 60.1724 76.5998 59.8724 76.0998 60.0724Z" fill="white"/>
<path d="M79.4 10.2724L78.9 10.0724C78.4 9.87241 78 10.1724 78 10.6724V14.2724C78 16.4724 79.5 18.8724 81.4 19.6724L81.9 19.8724C82.4 20.0724 82.8 19.7724 82.8 19.2724V15.6724C82.7 13.4724 81.2 11.0724 79.4 10.2724Z" fill="white"/>
<path d="M87.0998 10.0724L86.5998 10.2724C84.7998 11.0724 83.2998 13.4724 83.2998 15.6724V19.2724C83.2998 19.8724 83.6998 20.1724 84.1998 19.8724L84.6998 19.6724C86.4998 18.8724 87.9998 16.4724 87.9998 14.2724V10.6724C87.9998 10.1724 87.5998 9.87241 87.0998 10.0724Z" fill="white"/>
<path d="M79.4 20.2724L78.9 20.0724C78.4 19.8724 78 20.1724 78 20.6724V24.2724C78 26.4724 79.5 28.8724 81.4 29.6724L81.9 29.8724C82.4 30.0724 82.8 29.7724 82.8 29.2724V25.6724C82.7 23.4724 81.2 21.0724 79.4 20.2724Z" fill="white"/>
<path d="M87.0998 20.0724L86.5998 20.2724C84.7998 21.0724 83.2998 23.4724 83.2998 25.6724V29.2724C83.2998 29.8724 83.6998 30.1724 84.1998 29.8724L84.6998 29.6724C86.4998 28.8724 87.9998 26.4724 87.9998 24.2724V20.6724C87.9998 20.1724 87.5998 19.8724 87.0998 20.0724Z" fill="white"/>
<path d="M79.4 30.2724L78.9 30.0724C78.4 29.8724 78 30.1724 78 30.6724V34.2724C78 36.4724 79.5 38.8724 81.4 39.6724L81.9 39.8724C82.4 40.0724 82.8 39.7724 82.8 39.2724V35.6724C82.7 33.4724 81.2 31.0724 79.4 30.2724Z" fill="white"/>
<path d="M87.0998 30.0724L86.5998 30.2724C84.7998 31.0724 83.2998 33.4724 83.2998 35.6724V39.2724C83.2998 39.8724 83.6998 40.1724 84.1998 39.8724L84.6998 39.6724C86.4998 38.8724 87.9998 36.4724 87.9998 34.2724V30.6724C87.9998 30.1724 87.5998 29.8724 87.0998 30.0724Z" fill="white"/>
<path d="M79.4 40.2724L78.9 40.0724C78.4 39.8724 78 40.1724 78 40.6724V44.2724C78 46.4724 79.5 48.8724 81.4 49.6724L81.9 49.8724C82.4 50.0724 82.8 49.7724 82.8 49.2724V45.6724C82.7 43.4724 81.2 41.0724 79.4 40.2724Z" fill="white"/>
<path d="M87.0998 40.0724L86.5998 40.2724C84.7998 41.0724 83.2998 43.4724 83.2998 45.6724V49.2724C83.2998 49.8724 83.6998 50.1724 84.1998 49.8724L84.6998 49.6724C86.4998 48.8724 87.9998 46.4724 87.9998 44.2724V40.6724C87.9998 40.1724 87.5998 39.8724 87.0998 40.0724Z" fill="white"/>
<path d="M79.4 50.2724L78.9 50.0724C78.4 49.8724 78 50.1724 78 50.6724V54.2724C78 56.4724 79.5 58.8724 81.4 59.6724L81.9 59.8724C82.4 60.0724 82.8 59.7724 82.8 59.2724V55.6724C82.7 53.4724 81.2 51.0724 79.4 50.2724Z" fill="white"/>
<path d="M87.0998 50.0724L86.5998 50.2724C84.7998 51.0724 83.2998 53.4724 83.2998 55.6724V59.2724C83.2998 59.8724 83.6998 60.1724 84.1998 59.8724L84.6998 59.6724C86.4998 58.8724 87.9998 56.4724 87.9998 54.2724V50.6724C87.9998 50.1724 87.5998 49.8724 87.0998 50.0724Z" fill="white"/>
<path d="M79.4 60.2724L78.9 60.0724C78.4 59.8724 78 60.1724 78 60.6724V64.2724C78 66.4724 79.5 68.8724 81.4 69.6724L81.9 69.8724C82.4 70.0724 82.8 69.7724 82.8 69.2724V65.6724C82.7 63.4724 81.2 61.0724 79.4 60.2724Z" fill="white"/>
<path d="M87.0998 60.0724L86.5998 60.2724C84.7998 61.0724 83.2998 63.4724 83.2998 65.6724V69.2724C83.2998 69.8724 83.6998 70.1724 84.1998 69.8724L84.6998 69.6724C86.4998 68.8724 87.9998 66.4724 87.9998 64.2724V60.6724C87.9998 60.1724 87.5998 59.8724 87.0998 60.0724Z" fill="white"/>
<path d="M90.4 0.272412L89.9 0.0724119C89.4 -0.127588 89 0.172412 89 0.672412V4.27241C89 6.47241 90.5 8.87241 92.4 9.67241L92.9 9.87241C93.4 10.0724 93.8 9.77241 93.8 9.27241V5.67241C93.7 3.47241 92.2 1.07241 90.4 0.272412Z" fill="white"/>
<path d="M98.0998 0.0724119L97.5998 0.272412C95.7998 1.07241 94.2998 3.47241 94.2998 5.67241V9.27241C94.2998 9.87241 94.6998 10.1724 95.1998 9.87241L95.6998 9.67241C97.4998 8.87241 98.9998 6.47241 98.9998 4.27241V0.672412C98.9998 0.172412 98.5998 -0.127588 98.0998 0.0724119Z" fill="white"/>
<path d="M90.4 10.2724L89.9 10.0724C89.4 9.87241 89 10.1724 89 10.6724V14.2724C89 16.4724 90.5 18.8724 92.4 19.6724L92.9 19.8724C93.4 20.0724 93.8 19.7724 93.8 19.2724V15.6724C93.7 13.4724 92.2 11.0724 90.4 10.2724Z" fill="white"/>
<path d="M98.0998 10.0724L97.5998 10.2724C95.7998 11.0724 94.2998 13.4724 94.2998 15.6724V19.2724C94.2998 19.8724 94.6998 20.1724 95.1998 19.8724L95.6998 19.6724C97.4998 18.8724 98.9998 16.4724 98.9998 14.2724V10.6724C98.9998 10.1724 98.5998 9.87241 98.0998 10.0724Z" fill="white"/>
<path d="M90.4 20.2724L89.9 20.0724C89.4 19.8724 89 20.1724 89 20.6724V24.2724C89 26.4724 90.5 28.8724 92.4 29.6724L92.9 29.8724C93.4 30.0724 93.8 29.7724 93.8 29.2724V25.6724C93.7 23.4724 92.2 21.0724 90.4 20.2724Z" fill="white"/>
<path d="M98.0998 20.0724L97.5998 20.2724C95.7998 21.0724 94.2998 23.4724 94.2998 25.6724V29.2724C94.2998 29.8724 94.6998 30.1724 95.1998 29.8724L95.6998 29.6724C97.4998 28.8724 98.9998 26.4724 98.9998 24.2724V20.6724C98.9998 20.1724 98.5998 19.8724 98.0998 20.0724Z" fill="white"/>
<path d="M90.4 30.2724L89.9 30.0724C89.4 29.8724 89 30.1724 89 30.6724V34.2724C89 36.4724 90.5 38.8724 92.4 39.6724L92.9 39.8724C93.4 40.0724 93.8 39.7724 93.8 39.2724V35.6724C93.7 33.4724 92.2 31.0724 90.4 30.2724Z" fill="white"/>
<path d="M98.0998 30.0724L97.5998 30.2724C95.7998 31.0724 94.2998 33.4724 94.2998 35.6724V39.2724C94.2998 39.8724 94.6998 40.1724 95.1998 39.8724L95.6998 39.6724C97.4998 38.8724 98.9998 36.4724 98.9998 34.2724V30.6724C98.9998 30.1724 98.5998 29.8724 98.0998 30.0724Z" fill="white"/>
<path d="M90.4 40.2724L89.9 40.0724C89.4 39.8724 89 40.1724 89 40.6724V44.2724C89 46.4724 90.5 48.8724 92.4 49.6724L92.9 49.8724C93.4 50.0724 93.8 49.7724 93.8 49.2724V45.6724C93.7 43.4724 92.2 41.0724 90.4 40.2724Z" fill="white"/>
<path d="M98.0998 40.0724L97.5998 40.2724C95.7998 41.0724 94.2998 43.4724 94.2998 45.6724V49.2724C94.2998 49.8724 94.6998 50.1724 95.1998 49.8724L95.6998 49.6724C97.4998 48.8724 98.9998 46.4724 98.9998 44.2724V40.6724C98.9998 40.1724 98.5998 39.8724 98.0998 40.0724Z" fill="white"/>
<path d="M90.4 50.2724L89.9 50.0724C89.4 49.8724 89 50.1724 89 50.6724V54.2724C89 56.4724 90.5 58.8724 92.4 59.6724L92.9 59.8724C93.4 60.0724 93.8 59.7724 93.8 59.2724V55.6724C93.7 53.4724 92.2 51.0724 90.4 50.2724Z" fill="white"/>
<path d="M98.0998 50.0724L97.5998 50.2724C95.7998 51.0724 94.2998 53.4724 94.2998 55.6724V59.2724C94.2998 59.8724 94.6998 60.1724 95.1998 59.8724L95.6998 59.6724C97.4998 58.8724 98.9998 56.4724 98.9998 54.2724V50.6724C98.9998 50.1724 98.5998 49.8724 98.0998 50.0724Z" fill="white"/>
<path d="M90.4 60.2724L89.9 60.0724C89.4 59.8724 89 60.1724 89 60.6724V64.2724C89 66.4724 90.5 68.8724 92.4 69.6724L92.9 69.8724C93.4 70.0724 93.8 69.7724 93.8 69.2724V65.6724C93.7 63.4724 92.2 61.0724 90.4 60.2724Z" fill="white"/>
<path d="M98.0998 60.0724L97.5998 60.2724C95.7998 61.0724 94.2998 63.4724 94.2998 65.6724V69.2724C94.2998 69.8724 94.6998 70.1724 95.1998 69.8724L95.6998 69.6724C97.4998 68.8724 98.9998 66.4724 98.9998 64.2724V60.6724C98.9998 60.1724 98.5998 59.8724 98.0998 60.0724Z" fill="white"/>
<path d="M101.4 0.272412L100.9 0.0724119C100.4 -0.127588 100 0.172412 100 0.672412V4.27241C100 6.47241 101.5 8.87241 103.4 9.67241L103.9 9.87241C104.4 10.0724 104.8 9.77241 104.8 9.27241V5.67241C104.7 3.47241 103.2 1.07241 101.4 0.272412Z" fill="white"/>
<path d="M109.1 0.0724119L108.6 0.272412C106.8 1.07241 105.3 3.47241 105.3 5.67241V9.27241C105.3 9.87241 105.7 10.1724 106.2 9.87241L106.7 9.67241C108.5 8.87241 110 6.47241 110 4.27241V0.672412C110 0.172412 109.6 -0.127588 109.1 0.0724119Z" fill="white"/>
<path d="M101.4 10.2724L100.9 10.0724C100.4 9.87241 100 10.1724 100 10.6724V14.2724C100 16.4724 101.5 18.8724 103.4 19.6724L103.9 19.8724C104.4 20.0724 104.8 19.7724 104.8 19.2724V15.6724C104.7 13.4724 103.2 11.0724 101.4 10.2724Z" fill="white"/>
<path d="M109.1 10.0724L108.6 10.2724C106.8 11.0724 105.3 13.4724 105.3 15.6724V19.2724C105.3 19.8724 105.7 20.1724 106.2 19.8724L106.7 19.6724C108.5 18.8724 110 16.4724 110 14.2724V10.6724C110 10.1724 109.6 9.87241 109.1 10.0724Z" fill="white"/>
<path d="M101.4 20.2724L100.9 20.0724C100.4 19.8724 100 20.1724 100 20.6724V24.2724C100 26.4724 101.5 28.8724 103.4 29.6724L103.9 29.8724C104.4 30.0724 104.8 29.7724 104.8 29.2724V25.6724C104.7 23.4724 103.2 21.0724 101.4 20.2724Z" fill="white"/>
<path d="M109.1 20.0724L108.6 20.2724C106.8 21.0724 105.3 23.4724 105.3 25.6724V29.2724C105.3 29.8724 105.7 30.1724 106.2 29.8724L106.7 29.6724C108.5 28.8724 110 26.4724 110 24.2724V20.6724C110 20.1724 109.6 19.8724 109.1 20.0724Z" fill="white"/>
<path d="M101.4 30.2724L100.9 30.0724C100.4 29.8724 100 30.1724 100 30.6724V34.2724C100 36.4724 101.5 38.8724 103.4 39.6724L103.9 39.8724C104.4 40.0724 104.8 39.7724 104.8 39.2724V35.6724C104.7 33.4724 103.2 31.0724 101.4 30.2724Z" fill="white"/>
<path d="M109.1 30.0724L108.6 30.2724C106.8 31.0724 105.3 33.4724 105.3 35.6724V39.2724C105.3 39.8724 105.7 40.1724 106.2 39.8724L106.7 39.6724C108.5 38.8724 110 36.4724 110 34.2724V30.6724C110 30.1724 109.6 29.8724 109.1 30.0724Z" fill="white"/>
<path d="M101.4 40.2724L100.9 40.0724C100.4 39.8724 100 40.1724 100 40.6724V44.2724C100 46.4724 101.5 48.8724 103.4 49.6724L103.9 49.8724C104.4 50.0724 104.8 49.7724 104.8 49.2724V45.6724C104.7 43.4724 103.2 41.0724 101.4 40.2724Z" fill="white"/>
<path d="M109.1 40.0724L108.6 40.2724C106.8 41.0724 105.3 43.4724 105.3 45.6724V49.2724C105.3 49.8724 105.7 50.1724 106.2 49.8724L106.7 49.6724C108.5 48.8724 110 46.4724 110 44.2724V40.6724C110 40.1724 109.6 39.8724 109.1 40.0724Z" fill="white"/>
<path d="M101.4 50.2724L100.9 50.0724C100.4 49.8724 100 50.1724 100 50.6724V54.2724C100 56.4724 101.5 58.8724 103.4 59.6724L103.9 59.8724C104.4 60.0724 104.8 59.7724 104.8 59.2724V55.6724C104.7 53.4724 103.2 51.0724 101.4 50.2724Z" fill="white"/>
<path d="M109.1 50.0724L108.6 50.2724C106.8 51.0724 105.3 53.4724 105.3 55.6724V59.2724C105.3 59.8724 105.7 60.1724 106.2 59.8724L106.7 59.6724C108.5 58.8724 110 56.4724 110 54.2724V50.6724C110 50.1724 109.6 49.8724 109.1 50.0724Z" fill="white"/>
<path d="M101.4 60.2724L100.9 60.0724C100.4 59.8724 100 60.1724 100 60.6724V64.2724C100 66.4724 101.5 68.8724 103.4 69.6724L103.9 69.8724C104.4 70.0724 104.8 69.7724 104.8 69.2724V65.6724C104.7 63.4724 103.2 61.0724 101.4 60.2724Z" fill="white"/>
<path d="M109.1 60.0724L108.6 60.2724C106.8 61.0724 105.3 63.4724 105.3 65.6724V69.2724C105.3 69.8724 105.7 70.1724 106.2 69.8724L106.7 69.6724C108.5 68.8724 110 66.4724 110 64.2724V60.6724C110 60.1724 109.6 59.8724 109.1 60.0724Z" fill="white"/>
<path d="M112.4 0.272412L111.9 0.0724119C111.4 -0.127588 111 0.172412 111 0.672412V4.27241C111 6.47241 112.5 8.87241 114.4 9.67241L114.9 9.87241C115.4 10.0724 115.8 9.77241 115.8 9.27241V5.67241C115.7 3.47241 114.2 1.07241 112.4 0.272412Z" fill="white"/>
<path d="M120.1 0.0724119L119.6 0.272412C117.8 1.07241 116.3 3.47241 116.3 5.67241V9.27241C116.3 9.87241 116.7 10.1724 117.2 9.87241L117.7 9.67241C119.5 8.87241 121 6.47241 121 4.27241V0.672412C121 0.172412 120.6 -0.127588 120.1 0.0724119Z" fill="white"/>
<path d="M112.4 10.2724L111.9 10.0724C111.4 9.87241 111 10.1724 111 10.6724V14.2724C111 16.4724 112.5 18.8724 114.4 19.6724L114.9 19.8724C115.4 20.0724 115.8 19.7724 115.8 19.2724V15.6724C115.7 13.4724 114.2 11.0724 112.4 10.2724Z" fill="white"/>
<path d="M120.1 10.0724L119.6 10.2724C117.8 11.0724 116.3 13.4724 116.3 15.6724V19.2724C116.3 19.8724 116.7 20.1724 117.2 19.8724L117.7 19.6724C119.5 18.8724 121 16.4724 121 14.2724V10.6724C121 10.1724 120.6 9.87241 120.1 10.0724Z" fill="white"/>
<path d="M112.4 20.2724L111.9 20.0724C111.4 19.8724 111 20.1724 111 20.6724V24.2724C111 26.4724 112.5 28.8724 114.4 29.6724L114.9 29.8724C115.4 30.0724 115.8 29.7724 115.8 29.2724V25.6724C115.7 23.4724 114.2 21.0724 112.4 20.2724Z" fill="white"/>
<path d="M120.1 20.0724L119.6 20.2724C117.8 21.0724 116.3 23.4724 116.3 25.6724V29.2724C116.3 29.8724 116.7 30.1724 117.2 29.8724L117.7 29.6724C119.5 28.8724 121 26.4724 121 24.2724V20.6724C121 20.1724 120.6 19.8724 120.1 20.0724Z" fill="white"/>
<path d="M112.4 30.2724L111.9 30.0724C111.4 29.8724 111 30.1724 111 30.6724V34.2724C111 36.4724 112.5 38.8724 114.4 39.6724L114.9 39.8724C115.4 40.0724 115.8 39.7724 115.8 39.2724V35.6724C115.7 33.4724 114.2 31.0724 112.4 30.2724Z" fill="white"/>
<path d="M120.1 30.0724L119.6 30.2724C117.8 31.0724 116.3 33.4724 116.3 35.6724V39.2724C116.3 39.8724 116.7 40.1724 117.2 39.8724L117.7 39.6724C119.5 38.8724 121 36.4724 121 34.2724V30.6724C121 30.1724 120.6 29.8724 120.1 30.0724Z" fill="white"/>
<path d="M112.4 40.2724L111.9 40.0724C111.4 39.8724 111 40.1724 111 40.6724V44.2724C111 46.4724 112.5 48.8724 114.4 49.6724L114.9 49.8724C115.4 50.0724 115.8 49.7724 115.8 49.2724V45.6724C115.7 43.4724 114.2 41.0724 112.4 40.2724Z" fill="white"/>
<path d="M120.1 40.0724L119.6 40.2724C117.8 41.0724 116.3 43.4724 116.3 45.6724V49.2724C116.3 49.8724 116.7 50.1724 117.2 49.8724L117.7 49.6724C119.5 48.8724 121 46.4724 121 44.2724V40.6724C121 40.1724 120.6 39.8724 120.1 40.0724Z" fill="white"/>
<path d="M112.4 50.2724L111.9 50.0724C111.4 49.8724 111 50.1724 111 50.6724V54.2724C111 56.4724 112.5 58.8724 114.4 59.6724L114.9 59.8724C115.4 60.0724 115.8 59.7724 115.8 59.2724V55.6724C115.7 53.4724 114.2 51.0724 112.4 50.2724Z" fill="white"/>
<path d="M120.1 50.0724L119.6 50.2724C117.8 51.0724 116.3 53.4724 116.3 55.6724V59.2724C116.3 59.8724 116.7 60.1724 117.2 59.8724L117.7 59.6724C119.5 58.8724 121 56.4724 121 54.2724V50.6724C121 50.1724 120.6 49.8724 120.1 50.0724Z" fill="white"/>
<path d="M112.4 60.2724L111.9 60.0724C111.4 59.8724 111 60.1724 111 60.6724V64.2724C111 66.4724 112.5 68.8724 114.4 69.6724L114.9 69.8724C115.4 70.0724 115.8 69.7724 115.8 69.2724V65.6724C115.7 63.4724 114.2 61.0724 112.4 60.2724Z" fill="white"/>
<path d="M120.1 60.0724L119.6 60.2724C117.8 61.0724 116.3 63.4724 116.3 65.6724V69.2724C116.3 69.8724 116.7 70.1724 117.2 69.8724L117.7 69.6724C119.5 68.8724 121 66.4724 121 64.2724V60.6724C121 60.1724 120.6 59.8724 120.1 60.0724Z" fill="white"/>
<path d="M123.4 0.272412L122.9 0.0724119C122.4 -0.127588 122 0.172412 122 0.672412V4.27241C122 6.47241 123.5 8.87241 125.4 9.67241L125.9 9.87241C126.4 10.0724 126.8 9.77241 126.8 9.27241V5.67241C126.7 3.47241 125.2 1.07241 123.4 0.272412Z" fill="white"/>
<path d="M131.1 0.0724119L130.6 0.272412C128.8 1.07241 127.3 3.47241 127.3 5.67241V9.27241C127.3 9.87241 127.7 10.1724 128.2 9.87241L128.7 9.67241C130.5 8.87241 132 6.47241 132 4.27241V0.672412C132 0.172412 131.6 -0.127588 131.1 0.0724119Z" fill="white"/>
<path d="M123.4 10.2724L122.9 10.0724C122.4 9.87241 122 10.1724 122 10.6724V14.2724C122 16.4724 123.5 18.8724 125.4 19.6724L125.9 19.8724C126.4 20.0724 126.8 19.7724 126.8 19.2724V15.6724C126.7 13.4724 125.2 11.0724 123.4 10.2724Z" fill="white"/>
<path d="M131.1 10.0724L130.6 10.2724C128.8 11.0724 127.3 13.4724 127.3 15.6724V19.2724C127.3 19.8724 127.7 20.1724 128.2 19.8724L128.7 19.6724C130.5 18.8724 132 16.4724 132 14.2724V10.6724C132 10.1724 131.6 9.87241 131.1 10.0724Z" fill="white"/>
<path d="M123.4 20.2724L122.9 20.0724C122.4 19.8724 122 20.1724 122 20.6724V24.2724C122 26.4724 123.5 28.8724 125.4 29.6724L125.9 29.8724C126.4 30.0724 126.8 29.7724 126.8 29.2724V25.6724C126.7 23.4724 125.2 21.0724 123.4 20.2724Z" fill="white"/>
<path d="M131.1 20.0724L130.6 20.2724C128.8 21.0724 127.3 23.4724 127.3 25.6724V29.2724C127.3 29.8724 127.7 30.1724 128.2 29.8724L128.7 29.6724C130.5 28.8724 132 26.4724 132 24.2724V20.6724C132 20.1724 131.6 19.8724 131.1 20.0724Z" fill="white"/>
<path d="M123.4 30.2724L122.9 30.0724C122.4 29.8724 122 30.1724 122 30.6724V34.2724C122 36.4724 123.5 38.8724 125.4 39.6724L125.9 39.8724C126.4 40.0724 126.8 39.7724 126.8 39.2724V35.6724C126.7 33.4724 125.2 31.0724 123.4 30.2724Z" fill="white"/>
<path d="M131.1 30.0724L130.6 30.2724C128.8 31.0724 127.3 33.4724 127.3 35.6724V39.2724C127.3 39.8724 127.7 40.1724 128.2 39.8724L128.7 39.6724C130.5 38.8724 132 36.4724 132 34.2724V30.6724C132 30.1724 131.6 29.8724 131.1 30.0724Z" fill="white"/>
<path d="M123.4 40.2724L122.9 40.0724C122.4 39.8724 122 40.1724 122 40.6724V44.2724C122 46.4724 123.5 48.8724 125.4 49.6724L125.9 49.8724C126.4 50.0724 126.8 49.7724 126.8 49.2724V45.6724C126.7 43.4724 125.2 41.0724 123.4 40.2724Z" fill="white"/>
<path d="M131.1 40.0724L130.6 40.2724C128.8 41.0724 127.3 43.4724 127.3 45.6724V49.2724C127.3 49.8724 127.7 50.1724 128.2 49.8724L128.7 49.6724C130.5 48.8724 132 46.4724 132 44.2724V40.6724C132 40.1724 131.6 39.8724 131.1 40.0724Z" fill="white"/>
<path d="M123.4 50.2724L122.9 50.0724C122.4 49.8724 122 50.1724 122 50.6724V54.2724C122 56.4724 123.5 58.8724 125.4 59.6724L125.9 59.8724C126.4 60.0724 126.8 59.7724 126.8 59.2724V55.6724C126.7 53.4724 125.2 51.0724 123.4 50.2724Z" fill="white"/>
<path d="M131.1 50.0724L130.6 50.2724C128.8 51.0724 127.3 53.4724 127.3 55.6724V59.2724C127.3 59.8724 127.7 60.1724 128.2 59.8724L128.7 59.6724C130.5 58.8724 132 56.4724 132 54.2724V50.6724C132 50.1724 131.6 49.8724 131.1 50.0724Z" fill="white"/>
<path d="M123.4 60.2724L122.9 60.0724C122.4 59.8724 122 60.1724 122 60.6724V64.2724C122 66.4724 123.5 68.8724 125.4 69.6724L125.9 69.8724C126.4 70.0724 126.8 69.7724 126.8 69.2724V65.6724C126.7 63.4724 125.2 61.0724 123.4 60.2724Z" fill="white"/>
<path d="M131.1 60.0724L130.6 60.2724C128.8 61.0724 127.3 63.4724 127.3 65.6724V69.2724C127.3 69.8724 127.7 70.1724 128.2 69.8724L128.7 69.6724C130.5 68.8724 132 66.4724 132 64.2724V60.6724C132 60.1724 131.6 59.8724 131.1 60.0724Z" fill="white"/>
<path d="M134.4 10.2724L133.9 10.0724C133.4 9.87241 133 10.1724 133 10.6724V14.2724C133 16.4724 134.5 18.8724 136.4 19.6724L136.9 19.8724C137.4 20.0724 137.8 19.7724 137.8 19.2724V15.6724C137.7 13.4724 136.2 11.0724 134.4 10.2724Z" fill="white"/>
<path d="M142.1 10.0724L141.6 10.2724C139.8 11.0724 138.3 13.4724 138.3 15.6724V19.2724C138.3 19.8724 138.7 20.1724 139.2 19.8724L139.7 19.6724C141.5 18.8724 143 16.4724 143 14.2724V10.6724C143 10.1724 142.6 9.87241 142.1 10.0724Z" fill="white"/>
<path d="M134.4 20.2724L133.9 20.0724C133.4 19.8724 133 20.1724 133 20.6724V24.2724C133 26.4724 134.5 28.8724 136.4 29.6724L136.9 29.8724C137.4 30.0724 137.8 29.7724 137.8 29.2724V25.6724C137.7 23.4724 136.2 21.0724 134.4 20.2724Z" fill="white"/>
<path d="M142.1 20.0724L141.6 20.2724C139.8 21.0724 138.3 23.4724 138.3 25.6724V29.2724C138.3 29.8724 138.7 30.1724 139.2 29.8724L139.7 29.6724C141.5 28.8724 143 26.4724 143 24.2724V20.6724C143 20.1724 142.6 19.8724 142.1 20.0724Z" fill="white"/>
<path d="M134.4 30.2724L133.9 30.0724C133.4 29.8724 133 30.1724 133 30.6724V34.2724C133 36.4724 134.5 38.8724 136.4 39.6724L136.9 39.8724C137.4 40.0724 137.8 39.7724 137.8 39.2724V35.6724C137.7 33.4724 136.2 31.0724 134.4 30.2724Z" fill="white"/>
<path d="M142.1 30.0724L141.6 30.2724C139.8 31.0724 138.3 33.4724 138.3 35.6724V39.2724C138.3 39.8724 138.7 40.1724 139.2 39.8724L139.7 39.6724C141.5 38.8724 143 36.4724 143 34.2724V30.6724C143 30.1724 142.6 29.8724 142.1 30.0724Z" fill="white"/>
<path d="M134.4 40.2724L133.9 40.0724C133.4 39.8724 133 40.1724 133 40.6724V44.2724C133 46.4724 134.5 48.8724 136.4 49.6724L136.9 49.8724C137.4 50.0724 137.8 49.7724 137.8 49.2724V45.6724C137.7 43.4724 136.2 41.0724 134.4 40.2724Z" fill="white"/>
<path d="M142.1 40.0724L141.6 40.2724C139.8 41.0724 138.3 43.4724 138.3 45.6724V49.2724C138.3 49.8724 138.7 50.1724 139.2 49.8724L139.7 49.6724C141.5 48.8724 143 46.4724 143 44.2724V40.6724C143 40.1724 142.6 39.8724 142.1 40.0724Z" fill="white"/>
<path d="M134.4 50.2724L133.9 50.0724C133.4 49.8724 133 50.1724 133 50.6724V54.2724C133 56.4724 134.5 58.8724 136.4 59.6724L136.9 59.8724C137.4 60.0724 137.8 59.7724 137.8 59.2724V55.6724C137.7 53.4724 136.2 51.0724 134.4 50.2724Z" fill="white"/>
<path d="M142.1 50.0724L141.6 50.2724C139.8 51.0724 138.3 53.4724 138.3 55.6724V59.2724C138.3 59.8724 138.7 60.1724 139.2 59.8724L139.7 59.6724C141.5 58.8724 143 56.4724 143 54.2724V50.6724C143 50.1724 142.6 49.8724 142.1 50.0724Z" fill="white"/>
<path d="M134.4 60.2724L133.9 60.0724C133.4 59.8724 133 60.1724 133 60.6724V64.2724C133 66.4724 134.5 68.8724 136.4 69.6724L136.9 69.8724C137.4 70.0724 137.8 69.7724 137.8 69.2724V65.6724C137.7 63.4724 136.2 61.0724 134.4 60.2724Z" fill="white"/>
<path d="M142.1 60.0724L141.6 60.2724C139.8 61.0724 138.3 63.4724 138.3 65.6724V69.2724C138.3 69.8724 138.7 70.1724 139.2 69.8724L139.7 69.6724C141.5 68.8724 143 66.4724 143 64.2724V60.6724C143 60.1724 142.6 59.8724 142.1 60.0724Z" fill="white"/>
<path d="M10.1008 70.0724L9.60078 70.2724C7.80078 71.0724 6.30078 73.4724 6.30078 75.6724V79.2724C6.30078 79.8724 6.70078 80.1724 7.20078 79.8724L7.70078 79.6724C9.50078 78.8724 11.0008 76.4724 11.0008 74.2724V70.6724C11.0008 70.1724 10.6008 69.8724 10.1008 70.0724Z" fill="white"/>
<path d="M13.4 70.2724L12.9 70.0724C12.4 69.8724 12 70.1724 12 70.6724V74.2724C12 76.4724 13.5 78.8724 15.4 79.6724L15.9 79.8724C16.4 80.0724 16.8 79.7724 16.8 79.2724V75.6724C16.7 73.4724 15.2 71.0724 13.4 70.2724Z" fill="white"/>
<path d="M21.0998 70.0724L20.5998 70.2724C18.7998 71.0724 17.2998 73.4724 17.2998 75.6724V79.2724C17.2998 79.8724 17.6998 80.1724 18.1998 79.8724L18.6998 79.6724C20.4998 78.8724 21.9998 76.4724 21.9998 74.2724V70.6724C21.9998 70.1724 21.5998 69.8724 21.0998 70.0724Z" fill="white"/>
<path d="M24.4 70.2724L23.9 70.0724C23.4 69.8724 23 70.1724 23 70.6724V74.2724C23 76.4724 24.5 78.8724 26.4 79.6724L26.9 79.8724C27.4 80.0724 27.8 79.7724 27.8 79.2724V75.6724C27.7 73.4724 26.2 71.0724 24.4 70.2724Z" fill="white"/>
<path d="M32.0998 70.0724L31.5998 70.2724C29.7998 71.0724 28.2998 73.4724 28.2998 75.6724V79.2724C28.2998 79.8724 28.6998 80.1724 29.1998 79.8724L29.6998 79.6724C31.4998 78.8724 32.9998 76.4724 32.9998 74.2724V70.6724C32.9998 70.1724 32.5998 69.8724 32.0998 70.0724Z" fill="white"/>
<path d="M24.4 70.2724L23.9 70.0724C23.4 69.8724 23 70.1724 23 70.6724V74.2724C23 76.4724 24.5 78.8724 26.4 79.6724L26.9 79.8724C27.4 80.0724 27.8 79.7724 27.8 79.2724V75.6724C27.7 73.4724 26.2 71.0724 24.4 70.2724Z" fill="white"/>
<path d="M32.0998 70.0724L31.5998 70.2724C29.7998 71.0724 28.2998 73.4724 28.2998 75.6724V79.2724C28.2998 79.8724 28.6998 80.1724 29.1998 79.8724L29.6998 79.6724C31.4998 78.8724 32.9998 76.4724 32.9998 74.2724V70.6724C32.9998 70.1724 32.5998 69.8724 32.0998 70.0724Z" fill="white"/>
<path d="M24.4 80.2724L23.9 80.0724C23.4 79.8724 23 80.1724 23 80.6724V84.2724C23 86.4724 24.5 88.8724 26.4 89.6724L26.9 89.8724C27.4 90.0724 27.8 89.7724 27.8 89.2724V85.6724C27.7 83.4724 26.2 81.0724 24.4 80.2724Z" fill="white"/>
<path d="M32.0998 80.0724L31.5998 80.2724C29.7998 81.0724 28.2998 83.4724 28.2998 85.6724V89.2724C28.2998 89.8724 28.6998 90.1724 29.1998 89.8724L29.6998 89.6724C31.4998 88.8724 32.9998 86.4724 32.9998 84.2724V80.6724C32.9998 80.1724 32.5998 79.8724 32.0998 80.0724Z" fill="white"/>
<path d="M13.401 80.2724L12.901 80.0724C12.401 79.8724 12.001 80.1724 12.001 80.6724V84.2724C12.001 86.4724 13.501 88.8724 15.401 89.6724L15.901 89.8724C16.401 90.0724 16.801 89.7724 16.801 89.2724V85.6724C16.701 83.4724 15.201 81.0724 13.401 80.2724Z" fill="white"/>
<path d="M21.1008 80.0724L20.6008 80.2724C18.8008 81.0724 17.3008 83.4724 17.3008 85.6724V89.2724C17.3008 89.8724 17.7008 90.1724 18.2008 89.8724L18.7008 89.6724C20.5008 88.8724 22.0008 86.4724 22.0008 84.2724V80.6724C22.0008 80.1724 21.6008 79.8724 21.1008 80.0724Z" fill="white"/>
<path d="M32.1008 90.0724L31.6008 90.2724C29.8008 91.0724 28.3008 93.4724 28.3008 95.6724V99.2724C28.3008 99.8724 28.7008 100.172 29.2008 99.8724L29.7008 99.6724C31.5008 98.8724 33.0008 96.4724 33.0008 94.2724V90.6724C33.0008 90.1724 32.6008 89.8724 32.1008 90.0724Z" fill="white"/>
<path d="M35.4 70.2724L34.9 70.0724C34.4 69.8724 34 70.1724 34 70.6724V74.2724C34 76.4724 35.5 78.8724 37.4 79.6724L37.9 79.8724C38.4 80.0724 38.8 79.7724 38.8 79.2724V75.6724C38.7 73.4724 37.2 71.0724 35.4 70.2724Z" fill="white"/>
<path d="M43.0998 70.0724L42.5998 70.2724C40.7998 71.0724 39.2998 73.4724 39.2998 75.6724V79.2724C39.2998 79.8724 39.6998 80.1724 40.1998 79.8724L40.6998 79.6724C42.4998 78.8724 43.9998 76.4724 43.9998 74.2724V70.6724C43.9998 70.1724 43.5998 69.8724 43.0998 70.0724Z" fill="white"/>
<path d="M35.4 80.2724L34.9 80.0724C34.4 79.8724 34 80.1724 34 80.6724V84.2724C34 86.4724 35.5 88.8724 37.4 89.6724L37.9 89.8724C38.4 90.0724 38.8 89.7724 38.8 89.2724V85.6724C38.7 83.4724 37.2 81.0724 35.4 80.2724Z" fill="white"/>
<path d="M43.0998 80.0724L42.5998 80.2724C40.7998 81.0724 39.2998 83.4724 39.2998 85.6724V89.2724C39.2998 89.8724 39.6998 90.1724 40.1998 89.8724L40.6998 89.6724C42.4998 88.8724 43.9998 86.4724 43.9998 84.2724V80.6724C43.9998 80.1724 43.5998 79.8724 43.0998 80.0724Z" fill="white"/>
<path d="M35.4 90.2724L34.9 90.0724C34.4 89.8724 34 90.1724 34 90.6724V94.2724C34 96.4724 35.5 98.8724 37.4 99.6724L37.9 99.8724C38.4 100.072 38.8 99.7724 38.8 99.2724V95.6724C38.7 93.4724 37.2 91.0724 35.4 90.2724Z" fill="white"/>
<path d="M43.0998 90.0724L42.5998 90.2724C40.7998 91.0724 39.2998 93.4724 39.2998 95.6724V99.2724C39.2998 99.8724 39.6998 100.172 40.1998 99.8724L40.6998 99.6724C42.4998 98.8724 43.9998 96.4724 43.9998 94.2724V90.6724C43.9998 90.1724 43.5998 89.8724 43.0998 90.0724Z" fill="white"/>
<path d="M43.1008 110.072L42.6008 110.272C40.8008 111.072 39.3008 113.472 39.3008 115.672V119.272C39.3008 119.872 39.7008 120.172 40.2008 119.872L40.7008 119.672C42.5008 118.872 44.0008 116.472 44.0008 114.272V110.672C44.0008 110.172 43.6008 109.872 43.1008 110.072Z" fill="white"/>
<path d="M46.4 70.2724L45.9 70.0724C45.4 69.8724 45 70.1724 45 70.6724V74.2724C45 76.4724 46.5 78.8724 48.4 79.6724L48.9 79.8724C49.4 80.0724 49.8 79.7724 49.8 79.2724V75.6724C49.7 73.4724 48.2 71.0724 46.4 70.2724Z" fill="white"/>
<path d="M54.0998 70.0724L53.5998 70.2724C51.7998 71.0724 50.2998 73.4724 50.2998 75.6724V79.2724C50.2998 79.8724 50.6998 80.1724 51.1998 79.8724L51.6998 79.6724C53.4998 78.8724 54.9998 76.4724 54.9998 74.2724V70.6724C54.9998 70.1724 54.5998 69.8724 54.0998 70.0724Z" fill="white"/>
<path d="M46.4 80.2724L45.9 80.0724C45.4 79.8724 45 80.1724 45 80.6724V84.2724C45 86.4724 46.5 88.8724 48.4 89.6724L48.9 89.8724C49.4 90.0724 49.8 89.7724 49.8 89.2724V85.6724C49.7 83.4724 48.2 81.0724 46.4 80.2724Z" fill="white"/>
<path d="M54.0998 80.0724L53.5998 80.2724C51.7998 81.0724 50.2998 83.4724 50.2998 85.6724V89.2724C50.2998 89.8724 50.6998 90.1724 51.1998 89.8724L51.6998 89.6724C53.4998 88.8724 54.9998 86.4724 54.9998 84.2724V80.6724C54.9998 80.1724 54.5998 79.8724 54.0998 80.0724Z" fill="white"/>
<path d="M46.4 90.2724L45.9 90.0724C45.4 89.8724 45 90.1724 45 90.6724V94.2724C45 96.4724 46.5 98.8724 48.4 99.6724L48.9 99.8724C49.4 100.072 49.8 99.7724 49.8 99.2724V95.6724C49.7 93.4724 48.2 91.0724 46.4 90.2724Z" fill="white"/>
<path d="M54.0998 90.0724L53.5998 90.2724C51.7998 91.0724 50.2998 93.4724 50.2998 95.6724V99.2724C50.2998 99.8724 50.6998 100.172 51.1998 99.8724L51.6998 99.6724C53.4998 98.8724 54.9998 96.4724 54.9998 94.2724V90.6724C54.9998 90.1724 54.5998 89.8724 54.0998 90.0724Z" fill="white"/>
<path d="M46.4 110.272L45.9 110.072C45.4 109.872 45 110.172 45 110.672V114.272C45 116.472 46.5 118.872 48.4 119.672L48.9 119.872C49.4 120.072 49.8 119.772 49.8 119.272V115.672C49.7 113.472 48.2 111.072 46.4 110.272Z" fill="white"/>
<path d="M54.0998 110.072L53.5998 110.272C51.7998 111.072 50.2998 113.472 50.2998 115.672V119.272C50.2998 119.872 50.6998 120.172 51.1998 119.872L51.6998 119.672C53.4998 118.872 54.9998 116.472 54.9998 114.272V110.672C54.9998 110.172 54.5998 109.872 54.0998 110.072Z" fill="white"/>
<path d="M57.4 70.2724L56.9 70.0724C56.4 69.8724 56 70.1724 56 70.6724V74.2724C56 76.4724 57.5 78.8724 59.4 79.6724L59.9 79.8724C60.4 80.0724 60.8 79.7724 60.8 79.2724V75.6724C60.7 73.4724 59.2 71.0724 57.4 70.2724Z" fill="white"/>
<path d="M65.0998 70.0724L64.5998 70.2724C62.7998 71.0724 61.2998 73.4724 61.2998 75.6724V79.2724C61.2998 79.8724 61.6998 80.1724 62.1998 79.8724L62.6998 79.6724C64.4998 78.8724 65.9998 76.4724 65.9998 74.2724V70.6724C65.9998 70.1724 65.5998 69.8724 65.0998 70.0724Z" fill="white"/>
<path d="M57.4 80.2724L56.9 80.0724C56.4 79.8724 56 80.1724 56 80.6724V84.2724C56 86.4724 57.5 88.8724 59.4 89.6724L59.9 89.8724C60.4 90.0724 60.8 89.7724 60.8 89.2724V85.6724C60.7 83.4724 59.2 81.0724 57.4 80.2724Z" fill="white"/>
<path d="M65.0998 80.0724L64.5998 80.2724C62.7998 81.0724 61.2998 83.4724 61.2998 85.6724V89.2724C61.2998 89.8724 61.6998 90.1724 62.1998 89.8724L62.6998 89.6724C64.4998 88.8724 65.9998 86.4724 65.9998 84.2724V80.6724C65.9998 80.1724 65.5998 79.8724 65.0998 80.0724Z" fill="white"/>
<path d="M57.4 90.2724L56.9 90.0724C56.4 89.8724 56 90.1724 56 90.6724V94.2724C56 96.4724 57.5 98.8724 59.4 99.6724L59.9 99.8724C60.4 100.072 60.8 99.7724 60.8 99.2724V95.6724C60.7 93.4724 59.2 91.0724 57.4 90.2724Z" fill="white"/>
<path d="M65.0998 90.0724L64.5998 90.2724C62.7998 91.0724 61.2998 93.4724 61.2998 95.6724V99.2724C61.2998 99.8724 61.6998 100.172 62.1998 99.8724L62.6998 99.6724C64.4998 98.8724 65.9998 96.4724 65.9998 94.2724V90.6724C65.9998 90.1724 65.5998 89.8724 65.0998 90.0724Z" fill="white"/>
<path d="M57.4 110.272L56.9 110.072C56.4 109.872 56 110.172 56 110.672V114.272C56 116.472 57.5 118.872 59.4 119.672L59.9 119.872C60.4 120.072 60.8 119.772 60.8 119.272V115.672C60.7 113.472 59.2 111.072 57.4 110.272Z" fill="white"/>
<path d="M65.0998 110.072L64.5998 110.272C62.7998 111.072 61.2998 113.472 61.2998 115.672V119.272C61.2998 119.872 61.6998 120.172 62.1998 119.872L62.6998 119.672C64.4998 118.872 65.9998 116.472 65.9998 114.272V110.672C65.9998 110.172 65.5998 109.872 65.0998 110.072Z" fill="white"/>
<path d="M57.4 120.272L56.9 120.072C56.4 119.872 56 120.172 56 120.672V124.272C56 126.472 57.5 128.872 59.4 129.672L59.9 129.872C60.4 130.072 60.8 129.772 60.8 129.272V125.672C60.7 123.472 59.2 121.072 57.4 120.272Z" fill="white"/>
<path d="M65.0998 120.072L64.5998 120.272C62.7998 121.072 61.2998 123.472 61.2998 125.672V129.272C61.2998 129.872 61.6998 130.172 62.1998 129.872L62.6998 129.672C64.4998 128.872 65.9998 126.472 65.9998 124.272V120.672C65.9998 120.172 65.5998 119.872 65.0998 120.072Z" fill="white"/>
<path d="M68.4 70.2724L67.9 70.0724C67.4 69.8724 67 70.1724 67 70.6724V74.2724C67 76.4724 68.5 78.8724 70.4 79.6724L70.9 79.8724C71.4 80.0724 71.8 79.7724 71.8 79.2724V75.6724C71.7 73.4724 70.2 71.0724 68.4 70.2724Z" fill="white"/>
<path d="M76.0998 70.0724L75.5998 70.2724C73.7998 71.0724 72.2998 73.4724 72.2998 75.6724V79.2724C72.2998 79.8724 72.6998 80.1724 73.1998 79.8724L73.6998 79.6724C75.4998 78.8724 76.9998 76.4724 76.9998 74.2724V70.6724C76.9998 70.1724 76.5998 69.8724 76.0998 70.0724Z" fill="white"/>
<path d="M68.4 80.2724L67.9 80.0724C67.4 79.8724 67 80.1724 67 80.6724V84.2724C67 86.4724 68.5 88.8724 70.4 89.6724L70.9 89.8724C71.4 90.0724 71.8 89.7724 71.8 89.2724V85.6724C71.7 83.4724 70.2 81.0724 68.4 80.2724Z" fill="white"/>
<path d="M76.0998 80.0724L75.5998 80.2724C73.7998 81.0724 72.2998 83.4724 72.2998 85.6724V89.2724C72.2998 89.8724 72.6998 90.1724 73.1998 89.8724L73.6998 89.6724C75.4998 88.8724 76.9998 86.4724 76.9998 84.2724V80.6724C76.9998 80.1724 76.5998 79.8724 76.0998 80.0724Z" fill="white"/>
<path d="M68.4 90.2724L67.9 90.0724C67.4 89.8724 67 90.1724 67 90.6724V94.2724C67 96.4724 68.5 98.8724 70.4 99.6724L70.9 99.8724C71.4 100.072 71.8 99.7724 71.8 99.2724V95.6724C71.7 93.4724 70.2 91.0724 68.4 90.2724Z" fill="white"/>
<path d="M76.0998 90.0724L75.5998 90.2724C73.7998 91.0724 72.2998 93.4724 72.2998 95.6724V99.2724C72.2998 99.8724 72.6998 100.172 73.1998 99.8724L73.6998 99.6724C75.4998 98.8724 76.9998 96.4724 76.9998 94.2724V90.6724C76.9998 90.1724 76.5998 89.8724 76.0998 90.0724Z" fill="white"/>
<path d="M68.4 110.272L67.9 110.072C67.4 109.872 67 110.172 67 110.672V114.272C67 116.472 68.5 118.872 70.4 119.672L70.9 119.872C71.4 120.072 71.8 119.772 71.8 119.272V115.672C71.7 113.472 70.2 111.072 68.4 110.272Z" fill="white"/>
<path d="M76.0998 110.072L75.5998 110.272C73.7998 111.072 72.2998 113.472 72.2998 115.672V119.272C72.2998 119.872 72.6998 120.172 73.1998 119.872L73.6998 119.672C75.4998 118.872 76.9998 116.472 76.9998 114.272V110.672C76.9998 110.172 76.5998 109.872 76.0998 110.072Z" fill="white"/>
<path d="M68.4 120.272L67.9 120.072C67.4 119.872 67 120.172 67 120.672V124.272C67 126.472 68.5 128.872 70.4 129.672L70.9 129.872C71.4 130.072 71.8 129.772 71.8 129.272V125.672C71.7 123.472 70.2 121.072 68.4 120.272Z" fill="white"/>
<path d="M76.0998 120.072L75.5998 120.272C73.7998 121.072 72.2998 123.472 72.2998 125.672V129.272C72.2998 129.872 72.6998 130.172 73.1998 129.872L73.6998 129.672C75.4998 128.872 76.9998 126.472 76.9998 124.272V120.672C76.9998 120.172 76.5998 119.872 76.0998 120.072Z" fill="white"/>
<path d="M68.4 130.272L67.9 130.072C67.4 129.872 67 130.172 67 130.672V134.272C67 136.472 68.5 138.872 70.4 139.672L70.9 139.872C71.4 140.072 71.8 139.772 71.8 139.272V135.672C71.7 133.472 70.2 131.072 68.4 130.272Z" fill="white"/>
<path d="M76.0998 130.072L75.5998 130.272C73.7998 131.072 72.2998 133.472 72.2998 135.672V139.272C72.2998 139.872 72.6998 140.172 73.1998 139.872L73.6998 139.672C75.4998 138.872 76.9998 136.472 76.9998 134.272V130.672C76.9998 130.172 76.5998 129.872 76.0998 130.072Z" fill="white"/>
<path d="M79.4 70.2724L78.9 70.0724C78.4 69.8724 78 70.1724 78 70.6724V74.2724C78 76.4724 79.5 78.8724 81.4 79.6724L81.9 79.8724C82.4 80.0724 82.8 79.7724 82.8 79.2724V75.6724C82.7 73.4724 81.2 71.0724 79.4 70.2724Z" fill="white"/>
<path d="M87.0998 70.0724L86.5998 70.2724C84.7998 71.0724 83.2998 73.4724 83.2998 75.6724V79.2724C83.2998 79.8724 83.6998 80.1724 84.1998 79.8724L84.6998 79.6724C86.4998 78.8724 87.9998 76.4724 87.9998 74.2724V70.6724C87.9998 70.1724 87.5998 69.8724 87.0998 70.0724Z" fill="white"/>
<path d="M79.4 80.2724L78.9 80.0724C78.4 79.8724 78 80.1724 78 80.6724V84.2724C78 86.4724 79.5 88.8724 81.4 89.6724L81.9 89.8724C82.4 90.0724 82.8 89.7724 82.8 89.2724V85.6724C82.7 83.4724 81.2 81.0724 79.4 80.2724Z" fill="white"/>
<path d="M87.0998 80.0724L86.5998 80.2724C84.7998 81.0724 83.2998 83.4724 83.2998 85.6724V89.2724C83.2998 89.8724 83.6998 90.1724 84.1998 89.8724L84.6998 89.6724C86.4998 88.8724 87.9998 86.4724 87.9998 84.2724V80.6724C87.9998 80.1724 87.5998 79.8724 87.0998 80.0724Z" fill="white"/>
<path d="M79.4 90.2724L78.9 90.0724C78.4 89.8724 78 90.1724 78 90.6724V94.2724C78 96.4724 79.5 98.8724 81.4 99.6724L81.9 99.8724C82.4 100.072 82.8 99.7724 82.8 99.2724V95.6724C82.7 93.4724 81.2 91.0724 79.4 90.2724Z" fill="white"/>
<path d="M87.0998 90.0724L86.5998 90.2724C84.7998 91.0724 83.2998 93.4724 83.2998 95.6724V99.2724C83.2998 99.8724 83.6998 100.172 84.1998 99.8724L84.6998 99.6724C86.4998 98.8724 87.9998 96.4724 87.9998 94.2724V90.6724C87.9998 90.1724 87.5998 89.8724 87.0998 90.0724Z" fill="white"/>
<path d="M79.4 110.272L78.9 110.072C78.4 109.872 78 110.172 78 110.672V114.272C78 116.472 79.5 118.872 81.4 119.672L81.9 119.872C82.4 120.072 82.8 119.772 82.8 119.272V115.672C82.7 113.472 81.2 111.072 79.4 110.272Z" fill="white"/>
<path d="M87.0998 110.072L86.5998 110.272C84.7998 111.072 83.2998 113.472 83.2998 115.672V119.272C83.2998 119.872 83.6998 120.172 84.1998 119.872L84.6998 119.672C86.4998 118.872 87.9998 116.472 87.9998 114.272V110.672C87.9998 110.172 87.5998 109.872 87.0998 110.072Z" fill="white"/>
<path d="M79.4 120.272L78.9 120.072C78.4 119.872 78 120.172 78 120.672V124.272C78 126.472 79.5 128.872 81.4 129.672L81.9 129.872C82.4 130.072 82.8 129.772 82.8 129.272V125.672C82.7 123.472 81.2 121.072 79.4 120.272Z" fill="white"/>
<path d="M87.0998 120.072L86.5998 120.272C84.7998 121.072 83.2998 123.472 83.2998 125.672V129.272C83.2998 129.872 83.6998 130.172 84.1998 129.872L84.6998 129.672C86.4998 128.872 87.9998 126.472 87.9998 124.272V120.672C87.9998 120.172 87.5998 119.872 87.0998 120.072Z" fill="white"/>
<path d="M90.4 70.2724L89.9 70.0724C89.4 69.8724 89 70.1724 89 70.6724V74.2724C89 76.4724 90.5 78.8724 92.4 79.6724L92.9 79.8724C93.4 80.0724 93.8 79.7724 93.8 79.2724V75.6724C93.7 73.4724 92.2 71.0724 90.4 70.2724Z" fill="white"/>
<path d="M98.0998 70.0724L97.5998 70.2724C95.7998 71.0724 94.2998 73.4724 94.2998 75.6724V79.2724C94.2998 79.8724 94.6998 80.1724 95.1998 79.8724L95.6998 79.6724C97.4998 78.8724 98.9998 76.4724 98.9998 74.2724V70.6724C98.9998 70.1724 98.5998 69.8724 98.0998 70.0724Z" fill="white"/>
<path d="M90.4 80.2724L89.9 80.0724C89.4 79.8724 89 80.1724 89 80.6724V84.2724C89 86.4724 90.5 88.8724 92.4 89.6724L92.9 89.8724C93.4 90.0724 93.8 89.7724 93.8 89.2724V85.6724C93.7 83.4724 92.2 81.0724 90.4 80.2724Z" fill="white"/>
<path d="M98.0998 80.0724L97.5998 80.2724C95.7998 81.0724 94.2998 83.4724 94.2998 85.6724V89.2724C94.2998 89.8724 94.6998 90.1724 95.1998 89.8724L95.6998 89.6724C97.4998 88.8724 98.9998 86.4724 98.9998 84.2724V80.6724C98.9998 80.1724 98.5998 79.8724 98.0998 80.0724Z" fill="white"/>
<path d="M90.4 90.2724L89.9 90.0724C89.4 89.8724 89 90.1724 89 90.6724V94.2724C89 96.4724 90.5 98.8724 92.4 99.6724L92.9 99.8724C93.4 100.072 93.8 99.7724 93.8 99.2724V95.6724C93.7 93.4724 92.2 91.0724 90.4 90.2724Z" fill="white"/>
<path d="M98.0998 90.0724L97.5998 90.2724C95.7998 91.0724 94.2998 93.4724 94.2998 95.6724V99.2724C94.2998 99.8724 94.6998 100.172 95.1998 99.8724L95.6998 99.6724C97.4998 98.8724 98.9998 96.4724 98.9998 94.2724V90.6724C98.9998 90.1724 98.5998 89.8724 98.0998 90.0724Z" fill="white"/>
<path d="M90.4 110.272L89.9 110.072C89.4 109.872 89 110.172 89 110.672V114.272C89 116.472 90.5 118.872 92.4 119.672L92.9 119.872C93.4 120.072 93.8 119.772 93.8 119.272V115.672C93.7 113.472 92.2 111.072 90.4 110.272Z" fill="white"/>
<path d="M98.0998 110.072L97.5998 110.272C95.7998 111.072 94.2998 113.472 94.2998 115.672V119.272C94.2998 119.872 94.6998 120.172 95.1998 119.872L95.6998 119.672C97.4998 118.872 98.9998 116.472 98.9998 114.272V110.672C98.9998 110.172 98.5998 109.872 98.0998 110.072Z" fill="white"/>
<path d="M101.4 70.2724L100.9 70.0724C100.4 69.8724 100 70.1724 100 70.6724V74.2724C100 76.4724 101.5 78.8724 103.4 79.6724L103.9 79.8724C104.4 80.0724 104.8 79.7724 104.8 79.2724V75.6724C104.7 73.4724 103.2 71.0724 101.4 70.2724Z" fill="white"/>
<path d="M109.1 70.0724L108.6 70.2724C106.8 71.0724 105.3 73.4724 105.3 75.6724V79.2724C105.3 79.8724 105.7 80.1724 106.2 79.8724L106.7 79.6724C108.5 78.8724 110 76.4724 110 74.2724V70.6724C110 70.1724 109.6 69.8724 109.1 70.0724Z" fill="white"/>
<path d="M101.4 70.2724L100.9 70.0724C100.4 69.8724 100 70.1724 100 70.6724V74.2724C100 76.4724 101.5 78.8724 103.4 79.6724L103.9 79.8724C104.4 80.0724 104.8 79.7724 104.8 79.2724V75.6724C104.7 73.4724 103.2 71.0724 101.4 70.2724Z" fill="white"/>
<path d="M109.1 70.0724L108.6 70.2724C106.8 71.0724 105.3 73.4724 105.3 75.6724V79.2724C105.3 79.8724 105.7 80.1724 106.2 79.8724L106.7 79.6724C108.5 78.8724 110 76.4724 110 74.2724V70.6724C110 70.1724 109.6 69.8724 109.1 70.0724Z" fill="white"/>
<path d="M101.4 80.2724L100.9 80.0724C100.4 79.8724 100 80.1724 100 80.6724V84.2724C100 86.4724 101.5 88.8724 103.4 89.6724L103.9 89.8724C104.4 90.0724 104.8 89.7724 104.8 89.2724V85.6724C104.7 83.4724 103.2 81.0724 101.4 80.2724Z" fill="white"/>
<path d="M109.1 80.0724L108.6 80.2724C106.8 81.0724 105.3 83.4724 105.3 85.6724V89.2724C105.3 89.8724 105.7 90.1724 106.2 89.8724L106.7 89.6724C108.5 88.8724 110 86.4724 110 84.2724V80.6724C110 80.1724 109.6 79.8724 109.1 80.0724Z" fill="white"/>
<path d="M101.4 90.2724L100.9 90.0724C100.4 89.8724 100 90.1724 100 90.6724V94.2724C100 96.4724 101.5 98.8724 103.4 99.6724L103.9 99.8724C104.4 100.072 104.8 99.7724 104.8 99.2724V95.6724C104.7 93.4724 103.2 91.0724 101.4 90.2724Z" fill="white"/>
<path d="M109.1 90.0724L108.6 90.2724C106.8 91.0724 105.3 93.4724 105.3 95.6724V99.2724C105.3 99.8724 105.7 100.172 106.2 99.8724L106.7 99.6724C108.5 98.8724 110 96.4724 110 94.2724V90.6724C110 90.1724 109.6 89.8724 109.1 90.0724Z" fill="white"/>
<path d="M101.4 110.272L100.9 110.072C100.4 109.872 100 110.172 100 110.672V114.272C100 116.472 101.5 118.872 103.4 119.672L103.9 119.872C104.4 120.072 104.8 119.772 104.8 119.272V115.672C104.7 113.472 103.2 111.072 101.4 110.272Z" fill="white"/>
<path d="M112.4 70.2724L111.9 70.0724C111.4 69.8724 111 70.1724 111 70.6724V74.2724C111 76.4724 112.5 78.8724 114.4 79.6724L114.9 79.8724C115.4 80.0724 115.8 79.7724 115.8 79.2724V75.6724C115.7 73.4724 114.2 71.0724 112.4 70.2724Z" fill="white"/>
<path d="M120.1 70.0724L119.6 70.2724C117.8 71.0724 116.3 73.4724 116.3 75.6724V79.2724C116.3 79.8724 116.7 80.1724 117.2 79.8724L117.7 79.6724C119.5 78.8724 121 76.4724 121 74.2724V70.6724C121 70.1724 120.6 69.8724 120.1 70.0724Z" fill="white"/>
<path d="M112.4 80.2724L111.9 80.0724C111.4 79.8724 111 80.1724 111 80.6724V84.2724C111 86.4724 112.5 88.8724 114.4 89.6724L114.9 89.8724C115.4 90.0724 115.8 89.7724 115.8 89.2724V85.6724C115.7 83.4724 114.2 81.0724 112.4 80.2724Z" fill="white"/>
<path d="M120.1 80.0724L119.6 80.2724C117.8 81.0724 116.3 83.4724 116.3 85.6724V89.2724C116.3 89.8724 116.7 90.1724 117.2 89.8724L117.7 89.6724C119.5 88.8724 121 86.4724 121 84.2724V80.6724C121 80.1724 120.6 79.8724 120.1 80.0724Z" fill="white"/>
<path d="M123.4 80.2724L122.9 80.0724C122.4 79.8724 122 80.1724 122 80.6724V84.2724C122 86.4724 123.5 88.8724 125.4 89.6724L125.9 89.8724C126.4 90.0724 126.8 89.7724 126.8 89.2724V85.6724C126.7 83.4724 125.2 81.0724 123.4 80.2724Z" fill="white"/>
<path d="M131.1 80.0724L130.6 80.2724C128.8 81.0724 127.3 83.4724 127.3 85.6724V89.2724C127.3 89.8724 127.7 90.1724 128.2 89.8724L128.7 89.6724C130.5 88.8724 132 86.4724 132 84.2724V80.6724C132 80.1724 131.6 79.8724 131.1 80.0724Z" fill="white"/>
<path d="M112.4 90.2724L111.9 90.0724C111.4 89.8724 111 90.1724 111 90.6724V94.2724C111 96.4724 112.5 98.8724 114.4 99.6724L114.9 99.8724C115.4 100.072 115.8 99.7724 115.8 99.2724V95.6724C115.7 93.4724 114.2 91.0724 112.4 90.2724Z" fill="white"/>
<path d="M123.4 70.2724L122.9 70.0724C122.4 69.8724 122 70.1724 122 70.6724V74.2724C122 76.4724 123.5 78.8724 125.4 79.6724L125.9 79.8724C126.4 80.0724 126.8 79.7724 126.8 79.2724V75.6724C126.7 73.4724 125.2 71.0724 123.4 70.2724Z" fill="white"/>
<path d="M131.1 70.0724L130.6 70.2724C128.8 71.0724 127.3 73.4724 127.3 75.6724V79.2724C127.3 79.8724 127.7 80.1724 128.2 79.8724L128.7 79.6724C130.5 78.8724 132 76.4724 132 74.2724V70.6724C132 70.1724 131.6 69.8724 131.1 70.0724Z" fill="white"/>
<path d="M134.4 70.2724L133.9 70.0724C133.4 69.8724 133 70.1724 133 70.6724V74.2724C133 76.4724 134.5 78.8724 136.4 79.6724L136.9 79.8724C137.4 80.0724 137.8 79.7724 137.8 79.2724V75.6724C137.7 73.4724 136.2 71.0724 134.4 70.2724Z" fill="white"/>
<path d="M35.4 100.272L34.9 100.072C34.4 99.8724 34 100.172 34 100.672V104.272C34 106.472 35.5 108.872 37.4 109.672L37.9 109.872C38.4 110.072 38.8 109.772 38.8 109.272V105.672C38.7 103.472 37.2 101.072 35.4 100.272Z" fill="white"/>
<path d="M43.0998 100.072L42.5998 100.272C40.7998 101.072 39.2998 103.472 39.2998 105.672V109.272C39.2998 109.872 39.6998 110.172 40.1998 109.872L40.6998 109.672C42.4998 108.872 43.9998 106.472 43.9998 104.272V100.672C43.9998 100.172 43.5998 99.8724 43.0998 100.072Z" fill="white"/>
<path d="M46.4 100.272L45.9 100.072C45.4 99.8724 45 100.172 45 100.672V104.272C45 106.472 46.5 108.872 48.4 109.672L48.9 109.872C49.4 110.072 49.8 109.772 49.8 109.272V105.672C49.7 103.472 48.2 101.072 46.4 100.272Z" fill="white"/>
<path d="M54.0998 100.072L53.5998 100.272C51.7998 101.072 50.2998 103.472 50.2998 105.672V109.272C50.2998 109.872 50.6998 110.172 51.1998 109.872L51.6998 109.672C53.4998 108.872 54.9998 106.472 54.9998 104.272V100.672C54.9998 100.172 54.5998 99.8724 54.0998 100.072Z" fill="white"/>
<path d="M57.4 100.272L56.9 100.072C56.4 99.8724 56 100.172 56 100.672V104.272C56 106.472 57.5 108.872 59.4 109.672L59.9 109.872C60.4 110.072 60.8 109.772 60.8 109.272V105.672C60.7 103.472 59.2 101.072 57.4 100.272Z" fill="white"/>
<path d="M65.0998 100.072L64.5998 100.272C62.7998 101.072 61.2998 103.472 61.2998 105.672V109.272C61.2998 109.872 61.6998 110.172 62.1998 109.872L62.6998 109.672C64.4998 108.872 65.9998 106.472 65.9998 104.272V100.672C65.9998 100.172 65.5998 99.8724 65.0998 100.072Z" fill="white"/>
<path d="M68.4 100.272L67.9 100.072C67.4 99.8724 67 100.172 67 100.672V104.272C67 106.472 68.5 108.872 70.4 109.672L70.9 109.872C71.4 110.072 71.8 109.772 71.8 109.272V105.672C71.7 103.472 70.2 101.072 68.4 100.272Z" fill="white"/>
<path d="M76.0998 100.072L75.5998 100.272C73.7998 101.072 72.2998 103.472 72.2998 105.672V109.272C72.2998 109.872 72.6998 110.172 73.1998 109.872L73.6998 109.672C75.4998 108.872 76.9998 106.472 76.9998 104.272V100.672C76.9998 100.172 76.5998 99.8724 76.0998 100.072Z" fill="white"/>
<path d="M79.4 100.272L78.9 100.072C78.4 99.8724 78 100.172 78 100.672V104.272C78 106.472 79.5 108.872 81.4 109.672L81.9 109.872C82.4 110.072 82.8 109.772 82.8 109.272V105.672C82.7 103.472 81.2 101.072 79.4 100.272Z" fill="white"/>
<path d="M87.0998 100.072L86.5998 100.272C84.7998 101.072 83.2998 103.472 83.2998 105.672V109.272C83.2998 109.872 83.6998 110.172 84.1998 109.872L84.6998 109.672C86.4998 108.872 87.9998 106.472 87.9998 104.272V100.672C87.9998 100.172 87.5998 99.8724 87.0998 100.072Z" fill="white"/>
<path d="M90.4 100.272L89.9 100.072C89.4 99.8724 89 100.172 89 100.672V104.272C89 106.472 90.5 108.872 92.4 109.672L92.9 109.872C93.4 110.072 93.8 109.772 93.8 109.272V105.672C93.7 103.472 92.2 101.072 90.4 100.272Z" fill="white"/>
<path d="M98.0998 100.072L97.5998 100.272C95.7998 101.072 94.2998 103.472 94.2998 105.672V109.272C94.2998 109.872 94.6998 110.172 95.1998 109.872L95.6998 109.672C97.4998 108.872 98.9998 106.472 98.9998 104.272V100.672C98.9998 100.172 98.5998 99.8724 98.0998 100.072Z" fill="white"/>
<path d="M101.4 100.272L100.9 100.072C100.4 99.8724 100 100.172 100 100.672V104.272C100 106.472 101.5 108.872 103.4 109.672L103.9 109.872C104.4 110.072 104.8 109.772 104.8 109.272V105.672C104.7 103.472 103.2 101.072 101.4 100.272Z" fill="white"/>
<path d="M109.1 100.072L108.6 100.272C106.8 101.072 105.3 103.472 105.3 105.672V109.272C105.3 109.872 105.7 110.172 106.2 109.872L106.7 109.672C108.5 108.872 110 106.472 110 104.272V100.672C110 100.172 109.6 99.8724 109.1 100.072Z" fill="white"/>
</svg>
