<svg width="130" height="71" viewBox="0 0 130 71" fill="none" xmlns="http://www.w3.org/2000/svg">
<path d="M63.2633 29.2107H36.3757V26.3799H33.4164V3.48222H36.3757V0.650069H63.2728V6.56661H45.5213V11.9591H54.3923V17.8756H45.5213V23.2694H63.2633V29.2107ZM36.6489 28.9494H62.9996V23.5569H45.248V17.6404H54.119V12.2466H45.248V6.33136H62.99V0.937597H36.6489V3.76975H33.6896V26.1447H36.6489V28.9494Z" fill="white"/>
<path d="M96.1814 29.2107H69.2842V26.3799H66.3236V3.48222H69.2842V0.650069H96.1814V6.56661H78.4381V11.9591H87.3091V17.8756H78.4381V23.2694H96.1814V29.2107ZM69.5575 28.9494H95.9082V23.5569H78.1648V17.6404H87.0358V12.2466H78.1648V6.33136H95.9082V0.937597H69.5575V3.76975H66.5968V26.1447H69.5575V28.9494Z" fill="white"/>
<path d="M129.399 29.1505H117.294V17.8323H111.656V29.1505H99.5507V0.597656H111.656V11.9158H117.294V0.597656H129.399V12.1772H126.438V17.571H129.399V29.1505ZM117.567 28.8891H129.126V17.8323H126.165V11.9158H129.126V0.859045H117.567V12.1772H111.382V0.859045H99.824V28.8891H111.382V17.571H117.567V28.8891Z" fill="white"/>
<path d="M29.5635 1.03294V6.16531H11.8201V23.6614H18.2783V17.4835H15.3177V12.3511H29.5635V28.8016H3.48605V25.9695H0.534967V3.86509H3.49561V1.03294H29.5635ZM29.8368 0.771548H3.2128V3.6037H0.261719V26.24H3.22236V29.0721H29.8449V12.0897H15.0445V17.7448H18.0051V23.4H12.0934V6.4267H29.8368V0.771548Z" fill="white"/>
<path d="M36.5764 31.9644V35.85H40.6383V66.4416H36.5764V70.3272H4.5968V66.4416H0.534967V35.85H4.5968V31.9644H36.5764ZM16.2467 63.0789H24.9265V39.2219H16.2467V63.0789ZM36.8497 31.703H4.32356V35.5886H0.261719V66.703H4.32356V70.5886H36.8497V66.703H40.9115V35.5886H36.8497V31.703ZM16.52 62.8175V39.4833H24.6532V62.8175H16.52Z" fill="white"/>
<path d="M85.1326 31.9644V66.4416H81.0708V70.3272H49.0816V66.4416H45.0198V31.9644H60.7315V63.0789H69.4113V31.9644H85.1326ZM85.4059 31.703H69.1476V62.8175H61.0144V31.703H44.7465V66.703H48.8084V70.5886H81.3345V66.703H85.3963L85.4059 31.703Z" fill="white"/>
<path d="M63.1266 29.0798H36.5122V26.2489H33.5529V3.61265H36.5122V0.780498H63.1361V6.43565H45.3846V12.0986H54.2556V17.7616H45.3846V23.4168H63.1266V29.0798Z" fill="white"/>
<path d="M96.0449 29.0798H69.421V26.2489H66.4603V3.61265H69.421V0.780498H96.0449V6.43565H78.3015V12.0986H87.1725V17.7616H78.3015V23.4168H96.0449V29.0798Z" fill="white"/>
<path d="M129.262 29.0195H117.431V17.7014H111.519V29.0195H99.6872V0.7281H111.519V12.0462H117.431V0.7281H129.262V12.0462H126.302V17.7014H129.262V29.0195Z" fill="white"/>
<path d="M29.8368 29.0633H3.2128V26.2312H0.261719V3.6037L3.22236 3.60401V0.771862H29.8449V6.42701L12.0934 6.4267V23.4H18.0051V17.7448H15.0445V12.0897L29.8368 12.09V29.0633Z" fill="white"/>
<path d="M40.9115 66.703H36.8497V70.5886H4.32356V66.703H0.261719V35.5886H4.32356V31.703H36.8497V35.5886H40.9115V66.703ZM24.6532 62.8175V39.4833H16.52V62.8175H24.6532Z" fill="white"/>
<path d="M85.4059 66.7027H81.344V70.5883L48.8084 70.5886V66.703H44.7465V31.703L61.0048 31.7027V62.8172H69.138V31.7027H85.3963L85.4059 66.7027Z" fill="white"/>
<path d="M129.417 39.483H117.222V70.5974H100.963V39.483H88.7668V31.7027H129.417V39.483Z" fill="white"/>
<path d="M129.143 31.9644V39.2219H116.948V70.3363H101.237V39.2219H89.0401V31.9644H129.143ZM129.417 31.7027H88.7668V39.483H100.963V70.5974H117.222V39.483H129.417V31.7027Z" fill="white"/>
</svg>
