<svg width="143" height="130" viewBox="0 0 143 130" fill="none" xmlns="http://www.w3.org/2000/svg">
<path d="M34.9 0.262646L34.4 0.0626462C33.9 -0.137354 33.5 0.162646 33.5 0.662646V4.26265C33.5 6.46265 35 8.86265 36.9 9.66265L37.4 9.86265C37.9 10.0626 38.3 9.76265 38.3 9.26265V5.66265C38.2 3.46265 36.7 1.06265 34.9 0.262646Z" fill="#E41F30"/>
<path d="M42.5998 0.0626462L42.0998 0.262646C40.2998 1.06265 38.7998 3.46265 38.7998 5.66265V9.26265C38.7998 9.86265 39.1998 10.1626 39.6998 9.86265L40.1998 9.66265C41.9998 8.86265 43.4998 6.46265 43.4998 4.26265V0.662646C43.4998 0.162646 43.0998 -0.137354 42.5998 0.0626462Z" fill="#E41F30"/>
<path d="M108.1 0.262646L108.6 0.0626462C109.1 -0.137354 109.5 0.162646 109.5 0.662646V4.26265C109.5 6.46265 108 8.86265 106.1 9.66265L105.6 9.86265C105.1 10.0626 104.7 9.76265 104.7 9.26265V5.66265C104.8 3.46265 106.3 1.06265 108.1 0.262646Z" fill="#E41F30"/>
<path d="M100.4 0.0626462L100.9 0.262646C102.7 1.06265 104.2 3.46265 104.2 5.66265V9.26265C104.2 9.86265 103.8 10.1626 103.3 9.86265L102.8 9.66265C101 8.86265 99.5002 6.46265 99.5002 4.26265V0.662646C99.5002 0.162646 99.9002 -0.137354 100.4 0.0626462Z" fill="#E41F30"/>
<path d="M1.9 10.2626L1.4 10.0626C0.9 9.86265 0.5 10.1626 0.5 10.6626V14.2626C0.5 16.4626 2 18.8626 3.9 19.6626L4.4 19.8626C4.9 20.0626 5.3 19.7626 5.3 19.2626V15.6626C5.2 13.4626 3.7 11.0626 1.9 10.2626Z" fill="#E41F30"/>
<path d="M9.5998 10.0626L9.0998 10.2626C7.2998 11.0626 5.7998 13.4626 5.7998 15.6626V19.2626C5.7998 19.8626 6.1998 20.1626 6.6998 19.8626L7.1998 19.6626C8.9998 18.8626 10.4998 16.4626 10.4998 14.2626V10.6626C10.4998 10.1626 10.0998 9.86265 9.5998 10.0626Z" fill="#E41F30"/>
<path d="M141.1 10.2626L141.6 10.0626C142.1 9.86265 142.5 10.1626 142.5 10.6626V14.2626C142.5 16.4626 141 18.8626 139.1 19.6626L138.6 19.8626C138.1 20.0626 137.7 19.7626 137.7 19.2626V15.6626C137.8 13.4626 139.3 11.0626 141.1 10.2626Z" fill="#E41F30"/>
<path d="M133.4 10.0626L133.9 10.2626C135.7 11.0626 137.2 13.4626 137.2 15.6626V19.2626C137.2 19.8626 136.8 20.1626 136.3 19.8626L135.8 19.6626C134 18.8626 132.5 16.4626 132.5 14.2626V10.6626C132.5 10.1626 132.9 9.86265 133.4 10.0626Z" fill="#E41F30"/>
<path d="M34.9 10.2626L34.4 10.0626C33.9 9.86265 33.5 10.1626 33.5 10.6626V14.2626C33.5 16.4626 35 18.8626 36.9 19.6626L37.4 19.8626C37.9 20.0626 38.3 19.7626 38.3 19.2626V15.6626C38.2 13.4626 36.7 11.0626 34.9 10.2626Z" fill="#E41F30"/>
<path d="M42.5998 10.0626L42.0998 10.2626C40.2998 11.0626 38.7998 13.4626 38.7998 15.6626V19.2626C38.7998 19.8626 39.1998 20.1626 39.6998 19.8626L40.1998 19.6626C41.9998 18.8626 43.4998 16.4626 43.4998 14.2626V10.6626C43.4998 10.1626 43.0998 9.86265 42.5998 10.0626Z" fill="#E41F30"/>
<path d="M108.1 10.2626L108.6 10.0626C109.1 9.86265 109.5 10.1626 109.5 10.6626V14.2626C109.5 16.4626 108 18.8626 106.1 19.6626L105.6 19.8626C105.1 20.0626 104.7 19.7626 104.7 19.2626V15.6626C104.8 13.4626 106.3 11.0626 108.1 10.2626Z" fill="#E41F30"/>
<path d="M100.4 10.0626L100.9 10.2626C102.7 11.0626 104.2 13.4626 104.2 15.6626V19.2626C104.2 19.8626 103.8 20.1626 103.3 19.8626L102.8 19.6626C101 18.8626 99.5002 16.4626 99.5002 14.2626V10.6626C99.5002 10.1626 99.9002 9.86265 100.4 10.0626Z" fill="#E41F30"/>
<path d="M45.9 10.2626L45.4 10.0626C44.9 9.86265 44.5 10.1626 44.5 10.6626V14.2626C44.5 16.4626 46 18.8626 47.9 19.6626L48.4 19.8626C48.9 20.0626 49.3 19.7626 49.3 19.2626V15.6626C49.2 13.4626 47.7 11.0626 45.9 10.2626Z" fill="#E41F30"/>
<path d="M53.5998 10.0626L53.0998 10.2626C51.2998 11.0626 49.7998 13.4626 49.7998 15.6626V19.2626C49.7998 19.8626 50.1998 20.1626 50.6998 19.8626L51.1998 19.6626C52.9998 18.8626 54.4998 16.4626 54.4998 14.2626V10.6626C54.4998 10.1626 54.0998 9.86265 53.5998 10.0626Z" fill="#E41F30"/>
<path d="M97.1 10.2626L97.6 10.0626C98.1 9.86265 98.5 10.1626 98.5 10.6626V14.2626C98.5 16.4626 97 18.8626 95.1 19.6626L94.6 19.8626C94.1 20.0626 93.7 19.7626 93.7 19.2626V15.6626C93.8 13.4626 95.3 11.0626 97.1 10.2626Z" fill="#E41F30"/>
<path d="M89.4002 10.0626L89.9002 10.2626C91.7002 11.0626 93.2002 13.4626 93.2002 15.6626V19.2626C93.2002 19.8626 92.8002 20.1626 92.3002 19.8626L91.8002 19.6626C90.0002 18.8626 88.5002 16.4626 88.5002 14.2626V10.6626C88.5002 10.1626 88.9002 9.86265 89.4002 10.0626Z" fill="#E41F30"/>
<path d="M34.9 20.2626L34.4 20.0626C33.9 19.8626 33.5 20.1626 33.5 20.6626V24.2626C33.5 26.4626 35 28.8626 36.9 29.6626L37.4 29.8626C37.9 30.0626 38.3 29.7626 38.3 29.2626V25.6626C38.2 23.4626 36.7 21.0626 34.9 20.2626Z" fill="#E41F30"/>
<path d="M42.5998 20.0626L42.0998 20.2626C40.2998 21.0626 38.7998 23.4626 38.7998 25.6626V29.2626C38.7998 29.8626 39.1998 30.1626 39.6998 29.8626L40.1998 29.6626C41.9998 28.8626 43.4998 26.4626 43.4998 24.2626V20.6626C43.4998 20.1626 43.0998 19.8626 42.5998 20.0626Z" fill="#E41F30"/>
<path d="M108.1 20.2626L108.6 20.0626C109.1 19.8626 109.5 20.1626 109.5 20.6626V24.2626C109.5 26.4626 108 28.8626 106.1 29.6626L105.6 29.8626C105.1 30.0626 104.7 29.7626 104.7 29.2626V25.6626C104.8 23.4626 106.3 21.0626 108.1 20.2626Z" fill="#E41F30"/>
<path d="M100.4 20.0626L100.9 20.2626C102.7 21.0626 104.2 23.4626 104.2 25.6626V29.2626C104.2 29.8626 103.8 30.1626 103.3 29.8626L102.8 29.6626C101 28.8626 99.5002 26.4626 99.5002 24.2626V20.6626C99.5002 20.1626 99.9002 19.8626 100.4 20.0626Z" fill="#E41F30"/>
<path d="M45.9 20.2626L45.4 20.0626C44.9 19.8626 44.5 20.1626 44.5 20.6626V24.2626C44.5 26.4626 46 28.8626 47.9 29.6626L48.4 29.8626C48.9 30.0626 49.3 29.7626 49.3 29.2626V25.6626C49.2 23.4626 47.7 21.0626 45.9 20.2626Z" fill="#E41F30"/>
<path d="M53.5998 20.0626L53.0998 20.2626C51.2998 21.0626 49.7998 23.4626 49.7998 25.6626V29.2626C49.7998 29.8626 50.1998 30.1626 50.6998 29.8626L51.1998 29.6626C52.9998 28.8626 54.4998 26.4626 54.4998 24.2626V20.6626C54.4998 20.1626 54.0998 19.8626 53.5998 20.0626Z" fill="#E41F30"/>
<path d="M97.1 20.2626L97.6 20.0626C98.1 19.8626 98.5 20.1626 98.5 20.6626V24.2626C98.5 26.4626 97 28.8626 95.1 29.6626L94.6 29.8626C94.1 30.0626 93.7 29.7626 93.7 29.2626V25.6626C93.8 23.4626 95.3 21.0626 97.1 20.2626Z" fill="#E41F30"/>
<path d="M89.4002 20.0626L89.9002 20.2626C91.7002 21.0626 93.2002 23.4626 93.2002 25.6626V29.2626C93.2002 29.8626 92.8002 30.1626 92.3002 29.8626L91.8002 29.6626C90.0002 28.8626 88.5002 26.4626 88.5002 24.2626V20.6626C88.5002 20.1626 88.9002 19.8626 89.4002 20.0626Z" fill="#E41F30"/>
<path d="M56.9 20.2626L56.4 20.0626C55.9 19.8626 55.5 20.1626 55.5 20.6626V24.2626C55.5 26.4626 57 28.8626 58.9 29.6626L59.4 29.8626C59.9 30.0626 60.3 29.7626 60.3 29.2626V25.6626C60.2 23.4626 58.7 21.0626 56.9 20.2626Z" fill="#E41F30"/>
<path d="M64.5998 20.0626L64.0998 20.2626C62.2998 21.0626 60.7998 23.4626 60.7998 25.6626V29.2626C60.7998 29.8626 61.1998 30.1626 61.6998 29.8626L62.1998 29.6626C63.9998 28.8626 65.4998 26.4626 65.4998 24.2626V20.6626C65.4998 20.1626 65.0998 19.8626 64.5998 20.0626Z" fill="#E41F30"/>
<path d="M86.1 20.2626L86.6 20.0626C87.1 19.8626 87.5 20.1626 87.5 20.6626V24.2626C87.5 26.4626 86 28.8626 84.1 29.6626L83.6 29.8626C83.1 30.0626 82.7 29.7626 82.7 29.2626V25.6626C82.8 23.4626 84.3 21.0626 86.1 20.2626Z" fill="#E41F30"/>
<path d="M78.4002 20.0626L78.9002 20.2626C80.7002 21.0626 82.2002 23.4626 82.2002 25.6626V29.2626C82.2002 29.8626 81.8002 30.1626 81.3002 29.8626L80.8002 29.6626C79.0002 28.8626 77.5002 26.4626 77.5002 24.2626V20.6626C77.5002 20.1626 77.9002 19.8626 78.4002 20.0626Z" fill="#E41F30"/>
<path d="M12.9 30.2626L12.4 30.0626C11.9 29.8626 11.5 30.1626 11.5 30.6626V34.2626C11.5 36.4626 13 38.8626 14.9 39.6626L15.4 39.8626C15.9 40.0626 16.3 39.7626 16.3 39.2626V35.6626C16.2 33.4626 14.7 31.0626 12.9 30.2626Z" fill="#E41F30"/>
<path d="M20.5998 30.0626L20.0998 30.2626C18.2998 31.0626 16.7998 33.4626 16.7998 35.6626V39.2626C16.7998 39.8626 17.1998 40.1626 17.6998 39.8626L18.1998 39.6626C19.9998 38.8626 21.4998 36.4626 21.4998 34.2626V30.6626C21.4998 30.1626 21.0998 29.8626 20.5998 30.0626Z" fill="#E41F30"/>
<path d="M130.1 30.2626L130.6 30.0626C131.1 29.8626 131.5 30.1626 131.5 30.6626V34.2626C131.5 36.4626 130 38.8626 128.1 39.6626L127.6 39.8626C127.1 40.0626 126.7 39.7626 126.7 39.2626V35.6626C126.8 33.4626 128.3 31.0626 130.1 30.2626Z" fill="#E41F30"/>
<path d="M122.4 30.0626L122.9 30.2626C124.7 31.0626 126.2 33.4626 126.2 35.6626V39.2626C126.2 39.8626 125.8 40.1626 125.3 39.8626L124.8 39.6626C123 38.8626 121.5 36.4626 121.5 34.2626V30.6626C121.5 30.1626 121.9 29.8626 122.4 30.0626Z" fill="#E41F30"/>
<path d="M23.9 30.2626L23.4 30.0626C22.9 29.8626 22.5 30.1626 22.5 30.6626V34.2626C22.5 36.4626 24 38.8626 25.9 39.6626L26.4 39.8626C26.9 40.0626 27.3 39.7626 27.3 39.2626V35.6626C27.2 33.4626 25.7 31.0626 23.9 30.2626Z" fill="#E41F30"/>
<path d="M31.5998 30.0626L31.0998 30.2626C29.2998 31.0626 27.7998 33.4626 27.7998 35.6626V39.2626C27.7998 39.8626 28.1998 40.1626 28.6998 39.8626L29.1998 39.6626C30.9998 38.8626 32.4998 36.4626 32.4998 34.2626V30.6626C32.4998 30.1626 32.0998 29.8626 31.5998 30.0626Z" fill="#E41F30"/>
<path d="M119.1 30.2626L119.6 30.0626C120.1 29.8626 120.5 30.1626 120.5 30.6626V34.2626C120.5 36.4626 119 38.8626 117.1 39.6626L116.6 39.8626C116.1 40.0626 115.7 39.7626 115.7 39.2626V35.6626C115.8 33.4626 117.3 31.0626 119.1 30.2626Z" fill="#E41F30"/>
<path d="M111.4 30.0626L111.9 30.2626C113.7 31.0626 115.2 33.4626 115.2 35.6626V39.2626C115.2 39.8626 114.8 40.1626 114.3 39.8626L113.8 39.6626C112 38.8626 110.5 36.4626 110.5 34.2626V30.6626C110.5 30.1626 110.9 29.8626 111.4 30.0626Z" fill="#E41F30"/>
<path d="M45.9 30.2626L45.4 30.0626C44.9 29.8626 44.5 30.1626 44.5 30.6626V34.2626C44.5 36.4626 46 38.8626 47.9 39.6626L48.4 39.8626C48.9 40.0626 49.3 39.7626 49.3 39.2626V35.6626C49.2 33.4626 47.7 31.0626 45.9 30.2626Z" fill="#E41F30"/>
<path d="M53.5998 30.0626L53.0998 30.2626C51.2998 31.0626 49.7998 33.4626 49.7998 35.6626V39.2626C49.7998 39.8626 50.1998 40.1626 50.6998 39.8626L51.1998 39.6626C52.9998 38.8626 54.4998 36.4626 54.4998 34.2626V30.6626C54.4998 30.1626 54.0998 29.8626 53.5998 30.0626Z" fill="#E41F30"/>
<path d="M97.1 30.2626L97.6 30.0626C98.1 29.8626 98.5 30.1626 98.5 30.6626V34.2626C98.5 36.4626 97 38.8626 95.1 39.6626L94.6 39.8626C94.1 40.0626 93.7 39.7626 93.7 39.2626V35.6626C93.8 33.4626 95.3 31.0626 97.1 30.2626Z" fill="#E41F30"/>
<path d="M89.4002 30.0626L89.9002 30.2626C91.7002 31.0626 93.2002 33.4626 93.2002 35.6626V39.2626C93.2002 39.8626 92.8002 40.1626 92.3002 39.8626L91.8002 39.6626C90.0002 38.8626 88.5002 36.4626 88.5002 34.2626V30.6626C88.5002 30.1626 88.9002 29.8626 89.4002 30.0626Z" fill="#E41F30"/>
<path d="M56.9 30.2626L56.4 30.0626C55.9 29.8626 55.5 30.1626 55.5 30.6626V34.2626C55.5 36.4626 57 38.8626 58.9 39.6626L59.4 39.8626C59.9 40.0626 60.3 39.7626 60.3 39.2626V35.6626C60.2 33.4626 58.7 31.0626 56.9 30.2626Z" fill="#E41F30"/>
<path d="M64.5998 30.0626L64.0998 30.2626C62.2998 31.0626 60.7998 33.4626 60.7998 35.6626V39.2626C60.7998 39.8626 61.1998 40.1626 61.6998 39.8626L62.1998 39.6626C63.9998 38.8626 65.4998 36.4626 65.4998 34.2626V30.6626C65.4998 30.1626 65.0998 29.8626 64.5998 30.0626Z" fill="#E41F30"/>
<path d="M86.1 30.2626L86.6 30.0626C87.1 29.8626 87.5 30.1626 87.5 30.6626V34.2626C87.5 36.4626 86 38.8626 84.1 39.6626L83.6 39.8626C83.1 40.0626 82.7 39.7626 82.7 39.2626V35.6626C82.8 33.4626 84.3 31.0626 86.1 30.2626Z" fill="#E41F30"/>
<path d="M78.4002 30.0626L78.9002 30.2626C80.7002 31.0626 82.2002 33.4626 82.2002 35.6626V39.2626C82.2002 39.8626 81.8002 40.1626 81.3002 39.8626L80.8002 39.6626C79.0002 38.8626 77.5002 36.4626 77.5002 34.2626V30.6626C77.5002 30.1626 77.9002 29.8626 78.4002 30.0626Z" fill="#E41F30"/>
<path d="M12.9 40.2626L12.4 40.0626C11.9 39.8626 11.5 40.1626 11.5 40.6626V44.2626C11.5 46.4626 13 48.8626 14.9 49.6626L15.4 49.8626C15.9 50.0626 16.3 49.7626 16.3 49.2626V45.6626C16.2 43.4626 14.7 41.0626 12.9 40.2626Z" fill="#E41F30"/>
<path d="M20.5998 40.0626L20.0998 40.2626C18.2998 41.0626 16.7998 43.4626 16.7998 45.6626V49.2626C16.7998 49.8626 17.1998 50.1626 17.6998 49.8626L18.1998 49.6626C19.9998 48.8626 21.4998 46.4626 21.4998 44.2626V40.6626C21.4998 40.1626 21.0998 39.8626 20.5998 40.0626Z" fill="#E41F30"/>
<path d="M130.1 40.2626L130.6 40.0626C131.1 39.8626 131.5 40.1626 131.5 40.6626V44.2626C131.5 46.4626 130 48.8626 128.1 49.6626L127.6 49.8626C127.1 50.0626 126.7 49.7626 126.7 49.2626V45.6626C126.8 43.4626 128.3 41.0626 130.1 40.2626Z" fill="#E41F30"/>
<path d="M122.4 40.0626L122.9 40.2626C124.7 41.0626 126.2 43.4626 126.2 45.6626V49.2626C126.2 49.8626 125.8 50.1626 125.3 49.8626L124.8 49.6626C123 48.8626 121.5 46.4626 121.5 44.2626V40.6626C121.5 40.1626 121.9 39.8626 122.4 40.0626Z" fill="#E41F30"/>
<path d="M23.9 40.2626L23.4 40.0626C22.9 39.8626 22.5 40.1626 22.5 40.6626V44.2626C22.5 46.4626 24 48.8626 25.9 49.6626L26.4 49.8626C26.9 50.0626 27.3 49.7626 27.3 49.2626V45.6626C27.2 43.4626 25.7 41.0626 23.9 40.2626Z" fill="#E41F30"/>
<path d="M31.5998 40.0626L31.0998 40.2626C29.2998 41.0626 27.7998 43.4626 27.7998 45.6626V49.2626C27.7998 49.8626 28.1998 50.1626 28.6998 49.8626L29.1998 49.6626C30.9998 48.8626 32.4998 46.4626 32.4998 44.2626V40.6626C32.4998 40.1626 32.0998 39.8626 31.5998 40.0626Z" fill="#E41F30"/>
<path d="M119.1 40.2626L119.6 40.0626C120.1 39.8626 120.5 40.1626 120.5 40.6626V44.2626C120.5 46.4626 119 48.8626 117.1 49.6626L116.6 49.8626C116.1 50.0626 115.7 49.7626 115.7 49.2626V45.6626C115.8 43.4626 117.3 41.0626 119.1 40.2626Z" fill="#E41F30"/>
<path d="M111.4 40.0626L111.9 40.2626C113.7 41.0626 115.2 43.4626 115.2 45.6626V49.2626C115.2 49.8626 114.8 50.1626 114.3 49.8626L113.8 49.6626C112 48.8626 110.5 46.4626 110.5 44.2626V40.6626C110.5 40.1626 110.9 39.8626 111.4 40.0626Z" fill="#E41F30"/>
<path d="M34.9 40.2626L34.4 40.0626C33.9 39.8626 33.5 40.1626 33.5 40.6626V44.2626C33.5 46.4626 35 48.8626 36.9 49.6626L37.4 49.8626C37.9 50.0626 38.3 49.7626 38.3 49.2626V45.6626C38.2 43.4626 36.7 41.0626 34.9 40.2626Z" fill="#E41F30"/>
<path d="M42.5998 40.0626L42.0998 40.2626C40.2998 41.0626 38.7998 43.4626 38.7998 45.6626V49.2626C38.7998 49.8626 39.1998 50.1626 39.6998 49.8626L40.1998 49.6626C41.9998 48.8626 43.4998 46.4626 43.4998 44.2626V40.6626C43.4998 40.1626 43.0998 39.8626 42.5998 40.0626Z" fill="#E41F30"/>
<path d="M108.1 40.2626L108.6 40.0626C109.1 39.8626 109.5 40.1626 109.5 40.6626V44.2626C109.5 46.4626 108 48.8626 106.1 49.6626L105.6 49.8626C105.1 50.0626 104.7 49.7626 104.7 49.2626V45.6626C104.8 43.4626 106.3 41.0626 108.1 40.2626Z" fill="#E41F30"/>
<path d="M100.4 40.0626L100.9 40.2626C102.7 41.0626 104.2 43.4626 104.2 45.6626V49.2626C104.2 49.8626 103.8 50.1626 103.3 49.8626L102.8 49.6626C101 48.8626 99.5002 46.4626 99.5002 44.2626V40.6626C99.5002 40.1626 99.9002 39.8626 100.4 40.0626Z" fill="#E41F30"/>
<path d="M56.9 40.2626L56.4 40.0626C55.9 39.8626 55.5 40.1626 55.5 40.6626V44.2626C55.5 46.4626 57 48.8626 58.9 49.6626L59.4 49.8626C59.9 50.0626 60.3 49.7626 60.3 49.2626V45.6626C60.2 43.4626 58.7 41.0626 56.9 40.2626Z" fill="#E41F30"/>
<path d="M64.5998 40.0626L64.0998 40.2626C62.2998 41.0626 60.7998 43.4626 60.7998 45.6626V49.2626C60.7998 49.8626 61.1998 50.1626 61.6998 49.8626L62.1998 49.6626C63.9998 48.8626 65.4998 46.4626 65.4998 44.2626V40.6626C65.4998 40.1626 65.0998 39.8626 64.5998 40.0626Z" fill="#E41F30"/>
<path d="M86.1 40.2626L86.6 40.0626C87.1 39.8626 87.5 40.1626 87.5 40.6626V44.2626C87.5 46.4626 86 48.8626 84.1 49.6626L83.6 49.8626C83.1 50.0626 82.7 49.7626 82.7 49.2626V45.6626C82.8 43.4626 84.3 41.0626 86.1 40.2626Z" fill="#E41F30"/>
<path d="M78.4002 40.0626L78.9002 40.2626C80.7002 41.0626 82.2002 43.4626 82.2002 45.6626V49.2626C82.2002 49.8626 81.8002 50.1626 81.3002 49.8626L80.8002 49.6626C79.0002 48.8626 77.5002 46.4626 77.5002 44.2626V40.6626C77.5002 40.1626 77.9002 39.8626 78.4002 40.0626Z" fill="#E41F30"/>
<path d="M23.9 50.2626L23.4 50.0626C22.9 49.8626 22.5 50.1626 22.5 50.6626V54.2626C22.5 56.4626 24 58.8626 25.9 59.6626L26.4 59.8626C26.9 60.0626 27.3 59.7626 27.3 59.2626V55.6626C27.2 53.4626 25.7 51.0626 23.9 50.2626Z" fill="#E41F30"/>
<path d="M31.5998 50.0626L31.0998 50.2626C29.2998 51.0626 27.7998 53.4626 27.7998 55.6626V59.2626C27.7998 59.8626 28.1998 60.1626 28.6998 59.8626L29.1998 59.6626C30.9998 58.8626 32.4998 56.4626 32.4998 54.2626V50.6626C32.4998 50.1626 32.0998 49.8626 31.5998 50.0626Z" fill="#E41F30"/>
<path d="M119.1 50.2626L119.6 50.0626C120.1 49.8626 120.5 50.1626 120.5 50.6626V54.2626C120.5 56.4626 119 58.8626 117.1 59.6626L116.6 59.8626C116.1 60.0626 115.7 59.7626 115.7 59.2626V55.6626C115.8 53.4626 117.3 51.0626 119.1 50.2626Z" fill="#E41F30"/>
<path d="M111.4 50.0626L111.9 50.2626C113.7 51.0626 115.2 53.4626 115.2 55.6626V59.2626C115.2 59.8626 114.8 60.1626 114.3 59.8626L113.8 59.6626C112 58.8626 110.5 56.4626 110.5 54.2626V50.6626C110.5 50.1626 110.9 49.8626 111.4 50.0626Z" fill="#E41F30"/>
<path d="M34.9 50.2626L34.4 50.0626C33.9 49.8626 33.5 50.1626 33.5 50.6626V54.2626C33.5 56.4626 35 58.8626 36.9 59.6626L37.4 59.8626C37.9 60.0626 38.3 59.7626 38.3 59.2626V55.6626C38.2 53.4626 36.7 51.0626 34.9 50.2626Z" fill="#E41F30"/>
<path d="M42.5998 50.0626L42.0998 50.2626C40.2998 51.0626 38.7998 53.4626 38.7998 55.6626V59.2626C38.7998 59.8626 39.1998 60.1626 39.6998 59.8626L40.1998 59.6626C41.9998 58.8626 43.4998 56.4626 43.4998 54.2626V50.6626C43.4998 50.1626 43.0998 49.8626 42.5998 50.0626Z" fill="#E41F30"/>
<path d="M108.1 50.2626L108.6 50.0626C109.1 49.8626 109.5 50.1626 109.5 50.6626V54.2626C109.5 56.4626 108 58.8626 106.1 59.6626L105.6 59.8626C105.1 60.0626 104.7 59.7626 104.7 59.2626V55.6626C104.8 53.4626 106.3 51.0626 108.1 50.2626Z" fill="#E41F30"/>
<path d="M100.4 50.0626L100.9 50.2626C102.7 51.0626 104.2 53.4626 104.2 55.6626V59.2626C104.2 59.8626 103.8 60.1626 103.3 59.8626L102.8 59.6626C101 58.8626 99.5002 56.4626 99.5002 54.2626V50.6626C99.5002 50.1626 99.9002 49.8626 100.4 50.0626Z" fill="#E41F30"/>
<path d="M45.9 50.2626L45.4 50.0626C44.9 49.8626 44.5 50.1626 44.5 50.6626V54.2626C44.5 56.4626 46 58.8626 47.9 59.6626L48.4 59.8626C48.9 60.0626 49.3 59.7626 49.3 59.2626V55.6626C49.2 53.4626 47.7 51.0626 45.9 50.2626Z" fill="#E41F30"/>
<path d="M53.5998 50.0626L53.0998 50.2626C51.2998 51.0626 49.7998 53.4626 49.7998 55.6626V59.2626C49.7998 59.8626 50.1998 60.1626 50.6998 59.8626L51.1998 59.6626C52.9998 58.8626 54.4998 56.4626 54.4998 54.2626V50.6626C54.4998 50.1626 54.0998 49.8626 53.5998 50.0626Z" fill="#E41F30"/>
<path d="M97.1 50.2626L97.6 50.0626C98.1 49.8626 98.5 50.1626 98.5 50.6626V54.2626C98.5 56.4626 97 58.8626 95.1 59.6626L94.6 59.8626C94.1 60.0626 93.7 59.7626 93.7 59.2626V55.6626C93.8 53.4626 95.3 51.0626 97.1 50.2626Z" fill="#E41F30"/>
<path d="M89.4002 50.0626L89.9002 50.2626C91.7002 51.0626 93.2002 53.4626 93.2002 55.6626V59.2626C93.2002 59.8626 92.8002 60.1626 92.3002 59.8626L91.8002 59.6626C90.0002 58.8626 88.5002 56.4626 88.5002 54.2626V50.6626C88.5002 50.1626 88.9002 49.8626 89.4002 50.0626Z" fill="#E41F30"/>
<path d="M67.9 50.2626L67.4 50.0626C66.9 49.8626 66.5 50.1626 66.5 50.6626V54.2626C66.5 56.4626 68 58.8626 69.9 59.6626L70.4 59.8626C70.9 60.0626 71.3 59.7626 71.3 59.2626V55.6626C71.2 53.4626 69.7 51.0626 67.9 50.2626Z" fill="#E41F30"/>
<path d="M75.5998 50.0626L75.0998 50.2626C73.2998 51.0626 71.7998 53.4626 71.7998 55.6626V59.2626C71.7998 59.8626 72.1998 60.1626 72.6998 59.8626L73.1998 59.6626C74.9998 58.8626 76.4998 56.4626 76.4998 54.2626V50.6626C76.4998 50.1626 76.0998 49.8626 75.5998 50.0626Z" fill="#E41F30"/>
<path d="M67.9 70.2626L67.4 70.0626C66.9 69.8626 66.5 70.1626 66.5 70.6626V74.2626C66.5 76.4626 68 78.8626 69.9 79.6626L70.4 79.8626C70.9 80.0626 71.3 79.7626 71.3 79.2626V75.6626C71.2 73.4626 69.7 71.0626 67.9 70.2626Z" fill="#E41F30"/>
<path d="M75.5998 70.0626L75.0998 70.2626C73.2998 71.0626 71.7998 73.4626 71.7998 75.6626V79.2626C71.7998 79.8626 72.1998 80.1626 72.6998 79.8626L73.1998 79.6626C74.9998 78.8626 76.4998 76.4626 76.4998 74.2626V70.6626C76.4998 70.1626 76.0998 69.8626 75.5998 70.0626Z" fill="#E41F30"/>
<path d="M1.9 60.2626L1.4 60.0626C0.9 59.8626 0.5 60.1626 0.5 60.6626V64.2626C0.5 66.4626 2 68.8626 3.9 69.6626L4.4 69.8626C4.9 70.0626 5.3 69.7626 5.3 69.2626V65.6626C5.2 63.4626 3.7 61.0626 1.9 60.2626Z" fill="#E41F30"/>
<path d="M9.5998 60.0626L9.0998 60.2626C7.2998 61.0626 5.7998 63.4626 5.7998 65.6626V69.2626C5.7998 69.8626 6.1998 70.1626 6.6998 69.8626L7.1998 69.6626C8.9998 68.8626 10.4998 66.4626 10.4998 64.2626V60.6626C10.4998 60.1626 10.0998 59.8626 9.5998 60.0626Z" fill="#E41F30"/>
<path d="M141.1 60.2626L141.6 60.0626C142.1 59.8626 142.5 60.1626 142.5 60.6626V64.2626C142.5 66.4626 141 68.8626 139.1 69.6626L138.6 69.8626C138.1 70.0626 137.7 69.7626 137.7 69.2626V65.6626C137.8 63.4626 139.3 61.0626 141.1 60.2626Z" fill="#E41F30"/>
<path d="M133.4 60.0626L133.9 60.2626C135.7 61.0626 137.2 63.4626 137.2 65.6626V69.2626C137.2 69.8626 136.8 70.1626 136.3 69.8626L135.8 69.6626C134 68.8626 132.5 66.4626 132.5 64.2626V60.6626C132.5 60.1626 132.9 59.8626 133.4 60.0626Z" fill="#E41F30"/>
<path d="M56.9 60.2626L56.4 60.0626C55.9 59.8626 55.5 60.1626 55.5 60.6626V64.2626C55.5 66.4626 57 68.8626 58.9 69.6626L59.4 69.8626C59.9 70.0626 60.3 69.7626 60.3 69.2626V65.6626C60.2 63.4626 58.7 61.0626 56.9 60.2626Z" fill="#E41F30"/>
<path d="M64.5998 60.0626L64.0998 60.2626C62.2998 61.0626 60.7998 63.4626 60.7998 65.6626V69.2626C60.7998 69.8626 61.1998 70.1626 61.6998 69.8626L62.1998 69.6626C63.9998 68.8626 65.4998 66.4626 65.4998 64.2626V60.6626C65.4998 60.1626 65.0998 59.8626 64.5998 60.0626Z" fill="#E41F30"/>
<path d="M86.1 60.2626L86.6 60.0626C87.1 59.8626 87.5 60.1626 87.5 60.6626V64.2626C87.5 66.4626 86 68.8626 84.1 69.6626L83.6 69.8626C83.1 70.0626 82.7 69.7626 82.7 69.2626V65.6626C82.8 63.4626 84.3 61.0626 86.1 60.2626Z" fill="#E41F30"/>
<path d="M78.4002 60.0626L78.9002 60.2626C80.7002 61.0626 82.2002 63.4626 82.2002 65.6626V69.2626C82.2002 69.8626 81.8002 70.1626 81.3002 69.8626L80.8002 69.6626C79.0002 68.8626 77.5002 66.4626 77.5002 64.2626V60.6626C77.5002 60.1626 77.9002 59.8626 78.4002 60.0626Z" fill="#E41F30"/>
<path d="M23.9 70.2626L23.4 70.0626C22.9 69.8626 22.5 70.1626 22.5 70.6626V74.2626C22.5 76.4626 24 78.8626 25.9 79.6626L26.4 79.8626C26.9 80.0626 27.3 79.7626 27.3 79.2626V75.6626C27.2 73.4626 25.7 71.0626 23.9 70.2626Z" fill="#E41F30"/>
<path d="M31.5998 70.0626L31.0998 70.2626C29.2998 71.0626 27.7998 73.4626 27.7998 75.6626V79.2626C27.7998 79.8626 28.1998 80.1626 28.6998 79.8626L29.1998 79.6626C30.9998 78.8626 32.4998 76.4626 32.4998 74.2626V70.6626C32.4998 70.1626 32.0998 69.8626 31.5998 70.0626Z" fill="#E41F30"/>
<path d="M119.1 70.2626L119.6 70.0626C120.1 69.8626 120.5 70.1626 120.5 70.6626V74.2626C120.5 76.4626 119 78.8626 117.1 79.6626L116.6 79.8626C116.1 80.0626 115.7 79.7626 115.7 79.2626V75.6626C115.8 73.4626 117.3 71.0626 119.1 70.2626Z" fill="#E41F30"/>
<path d="M111.4 70.0626L111.9 70.2626C113.7 71.0626 115.2 73.4626 115.2 75.6626V79.2626C115.2 79.8626 114.8 80.1626 114.3 79.8626L113.8 79.6626C112 78.8626 110.5 76.4626 110.5 74.2626V70.6626C110.5 70.1626 110.9 69.8626 111.4 70.0626Z" fill="#E41F30"/>
<path d="M34.9 70.2626L34.4 70.0626C33.9 69.8626 33.5 70.1626 33.5 70.6626V74.2626C33.5 76.4626 35 78.8626 36.9 79.6626L37.4 79.8626C37.9 80.0626 38.3 79.7626 38.3 79.2626V75.6626C38.2 73.4626 36.7 71.0626 34.9 70.2626Z" fill="#E41F30"/>
<path d="M42.5998 70.0626L42.0998 70.2626C40.2998 71.0626 38.7998 73.4626 38.7998 75.6626V79.2626C38.7998 79.8626 39.1998 80.1626 39.6998 79.8626L40.1998 79.6626C41.9998 78.8626 43.4998 76.4626 43.4998 74.2626V70.6626C43.4998 70.1626 43.0998 69.8626 42.5998 70.0626Z" fill="#E41F30"/>
<path d="M108.1 70.2626L108.6 70.0626C109.1 69.8626 109.5 70.1626 109.5 70.6626V74.2626C109.5 76.4626 108 78.8626 106.1 79.6626L105.6 79.8626C105.1 80.0626 104.7 79.7626 104.7 79.2626V75.6626C104.8 73.4626 106.3 71.0626 108.1 70.2626Z" fill="#E41F30"/>
<path d="M100.4 70.0626L100.9 70.2626C102.7 71.0626 104.2 73.4626 104.2 75.6626V79.2626C104.2 79.8626 103.8 80.1626 103.3 79.8626L102.8 79.6626C101 78.8626 99.5002 76.4626 99.5002 74.2626V70.6626C99.5002 70.1626 99.9002 69.8626 100.4 70.0626Z" fill="#E41F30"/>
<path d="M45.9 70.2626L45.4 70.0626C44.9 69.8626 44.5 70.1626 44.5 70.6626V74.2626C44.5 76.4626 46 78.8626 47.9 79.6626L48.4 79.8626C48.9 80.0626 49.3 79.7626 49.3 79.2626V75.6626C49.2 73.4626 47.7 71.0626 45.9 70.2626Z" fill="#E41F30"/>
<path d="M53.5998 70.0626L53.0998 70.2626C51.2998 71.0626 49.7998 73.4626 49.7998 75.6626V79.2626C49.7998 79.8626 50.1998 80.1626 50.6998 79.8626L51.1998 79.6626C52.9998 78.8626 54.4998 76.4626 54.4998 74.2626V70.6626C54.4998 70.1626 54.0998 69.8626 53.5998 70.0626Z" fill="#E41F30"/>
<path d="M97.1 70.2626L97.6 70.0626C98.1 69.8626 98.5 70.1626 98.5 70.6626V74.2626C98.5 76.4626 97 78.8626 95.1 79.6626L94.6 79.8626C94.1 80.0626 93.7 79.7626 93.7 79.2626V75.6626C93.8 73.4626 95.3 71.0626 97.1 70.2626Z" fill="#E41F30"/>
<path d="M89.4002 70.0626L89.9002 70.2626C91.7002 71.0626 93.2002 73.4626 93.2002 75.6626V79.2626C93.2002 79.8626 92.8002 80.1626 92.3002 79.8626L91.8002 79.6626C90.0002 78.8626 88.5002 76.4626 88.5002 74.2626V70.6626C88.5002 70.1626 88.9002 69.8626 89.4002 70.0626Z" fill="#E41F30"/>
<path d="M12.9 80.2626L12.4 80.0626C11.9 79.8626 11.5 80.1626 11.5 80.6626V84.2626C11.5 86.4626 13 88.8626 14.9 89.6626L15.4 89.8626C15.9 90.0626 16.3 89.7626 16.3 89.2626V85.6626C16.2 83.4626 14.7 81.0626 12.9 80.2626Z" fill="#E41F30"/>
<path d="M20.5998 80.0626L20.0998 80.2626C18.2998 81.0626 16.7998 83.4626 16.7998 85.6626V89.2626C16.7998 89.8626 17.1998 90.1626 17.6998 89.8626L18.1998 89.6626C19.9998 88.8626 21.4998 86.4626 21.4998 84.2626V80.6626C21.4998 80.1626 21.0998 79.8626 20.5998 80.0626Z" fill="#E41F30"/>
<path d="M130.1 80.2626L130.6 80.0626C131.1 79.8626 131.5 80.1626 131.5 80.6626V84.2626C131.5 86.4626 130 88.8626 128.1 89.6626L127.6 89.8626C127.1 90.0626 126.7 89.7626 126.7 89.2626V85.6626C126.8 83.4626 128.3 81.0626 130.1 80.2626Z" fill="#E41F30"/>
<path d="M122.4 80.0626L122.9 80.2626C124.7 81.0626 126.2 83.4626 126.2 85.6626V89.2626C126.2 89.8626 125.8 90.1626 125.3 89.8626L124.8 89.6626C123 88.8626 121.5 86.4626 121.5 84.2626V80.6626C121.5 80.1626 121.9 79.8626 122.4 80.0626Z" fill="#E41F30"/>
<path d="M23.9 80.2626L23.4 80.0626C22.9 79.8626 22.5 80.1626 22.5 80.6626V84.2626C22.5 86.4626 24 88.8626 25.9 89.6626L26.4 89.8626C26.9 90.0626 27.3 89.7626 27.3 89.2626V85.6626C27.2 83.4626 25.7 81.0626 23.9 80.2626Z" fill="#E41F30"/>
<path d="M31.5998 80.0626L31.0998 80.2626C29.2998 81.0626 27.7998 83.4626 27.7998 85.6626V89.2626C27.7998 89.8626 28.1998 90.1626 28.6998 89.8626L29.1998 89.6626C30.9998 88.8626 32.4998 86.4626 32.4998 84.2626V80.6626C32.4998 80.1626 32.0998 79.8626 31.5998 80.0626Z" fill="#E41F30"/>
<path d="M119.1 80.2626L119.6 80.0626C120.1 79.8626 120.5 80.1626 120.5 80.6626V84.2626C120.5 86.4626 119 88.8626 117.1 89.6626L116.6 89.8626C116.1 90.0626 115.7 89.7626 115.7 89.2626V85.6626C115.8 83.4626 117.3 81.0626 119.1 80.2626Z" fill="#E41F30"/>
<path d="M111.4 80.0626L111.9 80.2626C113.7 81.0626 115.2 83.4626 115.2 85.6626V89.2626C115.2 89.8626 114.8 90.1626 114.3 89.8626L113.8 89.6626C112 88.8626 110.5 86.4626 110.5 84.2626V80.6626C110.5 80.1626 110.9 79.8626 111.4 80.0626Z" fill="#E41F30"/>
<path d="M34.9 80.2626L34.4 80.0626C33.9 79.8626 33.5 80.1626 33.5 80.6626V84.2626C33.5 86.4626 35 88.8626 36.9 89.6626L37.4 89.8626C37.9 90.0626 38.3 89.7626 38.3 89.2626V85.6626C38.2 83.4626 36.7 81.0626 34.9 80.2626Z" fill="#E41F30"/>
<path d="M42.5998 80.0626L42.0998 80.2626C40.2998 81.0626 38.7998 83.4626 38.7998 85.6626V89.2626C38.7998 89.8626 39.1998 90.1626 39.6998 89.8626L40.1998 89.6626C41.9998 88.8626 43.4998 86.4626 43.4998 84.2626V80.6626C43.4998 80.1626 43.0998 79.8626 42.5998 80.0626Z" fill="#E41F30"/>
<path d="M108.1 80.2626L108.6 80.0626C109.1 79.8626 109.5 80.1626 109.5 80.6626V84.2626C109.5 86.4626 108 88.8626 106.1 89.6626L105.6 89.8626C105.1 90.0626 104.7 89.7626 104.7 89.2626V85.6626C104.8 83.4626 106.3 81.0626 108.1 80.2626Z" fill="#E41F30"/>
<path d="M100.4 80.0626L100.9 80.2626C102.7 81.0626 104.2 83.4626 104.2 85.6626V89.2626C104.2 89.8626 103.8 90.1626 103.3 89.8626L102.8 89.6626C101 88.8626 99.5002 86.4626 99.5002 84.2626V80.6626C99.5002 80.1626 99.9002 79.8626 100.4 80.0626Z" fill="#E41F30"/>
<path d="M56.9 80.2626L56.4 80.0626C55.9 79.8626 55.5 80.1626 55.5 80.6626V84.2626C55.5 86.4626 57 88.8626 58.9 89.6626L59.4 89.8626C59.9 90.0626 60.3 89.7626 60.3 89.2626V85.6626C60.2 83.4626 58.7 81.0626 56.9 80.2626Z" fill="#E41F30"/>
<path d="M64.5998 80.0626L64.0998 80.2626C62.2998 81.0626 60.7998 83.4626 60.7998 85.6626V89.2626C60.7998 89.8626 61.1998 90.1626 61.6998 89.8626L62.1998 89.6626C63.9998 88.8626 65.4998 86.4626 65.4998 84.2626V80.6626C65.4998 80.1626 65.0998 79.8626 64.5998 80.0626Z" fill="#E41F30"/>
<path d="M86.1 80.2626L86.6 80.0626C87.1 79.8626 87.5 80.1626 87.5 80.6626V84.2626C87.5 86.4626 86 88.8626 84.1 89.6626L83.6 89.8626C83.1 90.0626 82.7 89.7626 82.7 89.2626V85.6626C82.8 83.4626 84.3 81.0626 86.1 80.2626Z" fill="#E41F30"/>
<path d="M78.4002 80.0626L78.9002 80.2626C80.7002 81.0626 82.2002 83.4626 82.2002 85.6626V89.2626C82.2002 89.8626 81.8002 90.1626 81.3002 89.8626L80.8002 89.6626C79.0002 88.8626 77.5002 86.4626 77.5002 84.2626V80.6626C77.5002 80.1626 77.9002 79.8626 78.4002 80.0626Z" fill="#E41F30"/>
<path d="M1.9 90.2626L1.4 90.0626C0.9 89.8626 0.5 90.1626 0.5 90.6626V94.2626C0.5 96.4626 2 98.8626 3.9 99.6626L4.4 99.8626C4.9 100.063 5.3 99.7626 5.3 99.2626V95.6626C5.2 93.4626 3.7 91.0626 1.9 90.2626Z" fill="#E41F30"/>
<path d="M9.5998 90.0626L9.0998 90.2626C7.2998 91.0626 5.7998 93.4626 5.7998 95.6626V99.2626C5.7998 99.8626 6.1998 100.163 6.6998 99.8626L7.1998 99.6626C8.9998 98.8626 10.4998 96.4626 10.4998 94.2626V90.6626C10.4998 90.1626 10.0998 89.8626 9.5998 90.0626Z" fill="#E41F30"/>
<path d="M141.1 90.2626L141.6 90.0626C142.1 89.8626 142.5 90.1626 142.5 90.6626V94.2626C142.5 96.4626 141 98.8626 139.1 99.6626L138.6 99.8626C138.1 100.063 137.7 99.7626 137.7 99.2626V95.6626C137.8 93.4626 139.3 91.0626 141.1 90.2626Z" fill="#E41F30"/>
<path d="M133.4 90.0626L133.9 90.2626C135.7 91.0626 137.2 93.4626 137.2 95.6626V99.2626C137.2 99.8626 136.8 100.163 136.3 99.8626L135.8 99.6626C134 98.8626 132.5 96.4626 132.5 94.2626V90.6626C132.5 90.1626 132.9 89.8626 133.4 90.0626Z" fill="#E41F30"/>
<path d="M12.9 90.2626L12.4 90.0626C11.9 89.8626 11.5 90.1626 11.5 90.6626V94.2626C11.5 96.4626 13 98.8626 14.9 99.6626L15.4 99.8626C15.9 100.063 16.3 99.7626 16.3 99.2626V95.6626C16.2 93.4626 14.7 91.0626 12.9 90.2626Z" fill="#E41F30"/>
<path d="M20.5998 90.0626L20.0998 90.2626C18.2998 91.0626 16.7998 93.4626 16.7998 95.6626V99.2626C16.7998 99.8626 17.1998 100.163 17.6998 99.8626L18.1998 99.6626C19.9998 98.8626 21.4998 96.4626 21.4998 94.2626V90.6626C21.4998 90.1626 21.0998 89.8626 20.5998 90.0626Z" fill="#E41F30"/>
<path d="M130.1 90.2626L130.6 90.0626C131.1 89.8626 131.5 90.1626 131.5 90.6626V94.2626C131.5 96.4626 130 98.8626 128.1 99.6626L127.6 99.8626C127.1 100.063 126.7 99.7626 126.7 99.2626V95.6626C126.8 93.4626 128.3 91.0626 130.1 90.2626Z" fill="#E41F30"/>
<path d="M122.4 90.0626L122.9 90.2626C124.7 91.0626 126.2 93.4626 126.2 95.6626V99.2626C126.2 99.8626 125.8 100.163 125.3 99.8626L124.8 99.6626C123 98.8626 121.5 96.4626 121.5 94.2626V90.6626C121.5 90.1626 121.9 89.8626 122.4 90.0626Z" fill="#E41F30"/>
<path d="M23.9 90.2626L23.4 90.0626C22.9 89.8626 22.5 90.1626 22.5 90.6626V94.2626C22.5 96.4626 24 98.8626 25.9 99.6626L26.4 99.8626C26.9 100.063 27.3 99.7626 27.3 99.2626V95.6626C27.2 93.4626 25.7 91.0626 23.9 90.2626Z" fill="#E41F30"/>
<path d="M31.5998 90.0626L31.0998 90.2626C29.2998 91.0626 27.7998 93.4626 27.7998 95.6626V99.2626C27.7998 99.8626 28.1998 100.163 28.6998 99.8626L29.1998 99.6626C30.9998 98.8626 32.4998 96.4626 32.4998 94.2626V90.6626C32.4998 90.1626 32.0998 89.8626 31.5998 90.0626Z" fill="#E41F30"/>
<path d="M119.1 90.2626L119.6 90.0626C120.1 89.8626 120.5 90.1626 120.5 90.6626V94.2626C120.5 96.4626 119 98.8626 117.1 99.6626L116.6 99.8626C116.1 100.063 115.7 99.7626 115.7 99.2626V95.6626C115.8 93.4626 117.3 91.0626 119.1 90.2626Z" fill="#E41F30"/>
<path d="M111.4 90.0626L111.9 90.2626C113.7 91.0626 115.2 93.4626 115.2 95.6626V99.2626C115.2 99.8626 114.8 100.163 114.3 99.8626L113.8 99.6626C112 98.8626 110.5 96.4626 110.5 94.2626V90.6626C110.5 90.1626 110.9 89.8626 111.4 90.0626Z" fill="#E41F30"/>
<path d="M45.9 90.2626L45.4 90.0626C44.9 89.8626 44.5 90.1626 44.5 90.6626V94.2626C44.5 96.4626 46 98.8626 47.9 99.6626L48.4 99.8626C48.9 100.063 49.3 99.7626 49.3 99.2626V95.6626C49.2 93.4626 47.7 91.0626 45.9 90.2626Z" fill="#E41F30"/>
<path d="M53.5998 90.0626L53.0998 90.2626C51.2998 91.0626 49.7998 93.4626 49.7998 95.6626V99.2626C49.7998 99.8626 50.1998 100.163 50.6998 99.8626L51.1998 99.6626C52.9998 98.8626 54.4998 96.4626 54.4998 94.2626V90.6626C54.4998 90.1626 54.0998 89.8626 53.5998 90.0626Z" fill="#E41F30"/>
<path d="M97.1 90.2626L97.6 90.0626C98.1 89.8626 98.5 90.1626 98.5 90.6626V94.2626C98.5 96.4626 97 98.8626 95.1 99.6626L94.6 99.8626C94.1 100.063 93.7 99.7626 93.7 99.2626V95.6626C93.8 93.4626 95.3 91.0626 97.1 90.2626Z" fill="#E41F30"/>
<path d="M89.4002 90.0626L89.9002 90.2626C91.7002 91.0626 93.2002 93.4626 93.2002 95.6626V99.2626C93.2002 99.8626 92.8002 100.163 92.3002 99.8626L91.8002 99.6626C90.0002 98.8626 88.5002 96.4626 88.5002 94.2626V90.6626C88.5002 90.1626 88.9002 89.8626 89.4002 90.0626Z" fill="#E41F30"/>
<path d="M56.9 90.2626L56.4 90.0626C55.9 89.8626 55.5 90.1626 55.5 90.6626V94.2626C55.5 96.4626 57 98.8626 58.9 99.6626L59.4 99.8626C59.9 100.063 60.3 99.7626 60.3 99.2626V95.6626C60.2 93.4626 58.7 91.0626 56.9 90.2626Z" fill="#E41F30"/>
<path d="M64.5998 90.0626L64.0998 90.2626C62.2998 91.0626 60.7998 93.4626 60.7998 95.6626V99.2626C60.7998 99.8626 61.1998 100.163 61.6998 99.8626L62.1998 99.6626C63.9998 98.8626 65.4998 96.4626 65.4998 94.2626V90.6626C65.4998 90.1626 65.0998 89.8626 64.5998 90.0626Z" fill="#E41F30"/>
<path d="M86.1 90.2626L86.6 90.0626C87.1 89.8626 87.5 90.1626 87.5 90.6626V94.2626C87.5 96.4626 86 98.8626 84.1 99.6626L83.6 99.8626C83.1 100.063 82.7 99.7626 82.7 99.2626V95.6626C82.8 93.4626 84.3 91.0626 86.1 90.2626Z" fill="#E41F30"/>
<path d="M78.4002 90.0626L78.9002 90.2626C80.7002 91.0626 82.2002 93.4626 82.2002 95.6626V99.2626C82.2002 99.8626 81.8002 100.163 81.3002 99.8626L80.8002 99.6626C79.0002 98.8626 77.5002 96.4626 77.5002 94.2626V90.6626C77.5002 90.1626 77.9002 89.8626 78.4002 90.0626Z" fill="#E41F30"/>
<path d="M34.9 100.263L34.4 100.063C33.9 99.8626 33.5 100.163 33.5 100.663V104.263C33.5 106.463 35 108.863 36.9 109.663L37.4 109.863C37.9 110.063 38.3 109.763 38.3 109.263V105.663C38.2 103.463 36.7 101.063 34.9 100.263Z" fill="#E41F30"/>
<path d="M42.5998 100.063L42.0998 100.263C40.2998 101.063 38.7998 103.463 38.7998 105.663V109.263C38.7998 109.863 39.1998 110.163 39.6998 109.863L40.1998 109.663C41.9998 108.863 43.4998 106.463 43.4998 104.263V100.663C43.4998 100.163 43.0998 99.8626 42.5998 100.063Z" fill="#E41F30"/>
<path d="M108.1 100.263L108.6 100.063C109.1 99.8626 109.5 100.163 109.5 100.663V104.263C109.5 106.463 108 108.863 106.1 109.663L105.6 109.863C105.1 110.063 104.7 109.763 104.7 109.263V105.663C104.8 103.463 106.3 101.063 108.1 100.263Z" fill="#E41F30"/>
<path d="M100.4 100.063L100.9 100.263C102.7 101.063 104.2 103.463 104.2 105.663V109.263C104.2 109.863 103.8 110.163 103.3 109.863L102.8 109.663C101 108.863 99.5002 106.463 99.5002 104.263V100.663C99.5002 100.163 99.9002 99.8626 100.4 100.063Z" fill="#E41F30"/>
<path d="M45.9 100.263L45.4 100.063C44.9 99.8626 44.5 100.163 44.5 100.663V104.263C44.5 106.463 46 108.863 47.9 109.663L48.4 109.863C48.9 110.063 49.3 109.763 49.3 109.263V105.663C49.2 103.463 47.7 101.063 45.9 100.263Z" fill="#E41F30"/>
<path d="M53.5998 100.063L53.0998 100.263C51.2998 101.063 49.7998 103.463 49.7998 105.663V109.263C49.7998 109.863 50.1998 110.163 50.6998 109.863L51.1998 109.663C52.9998 108.863 54.4998 106.463 54.4998 104.263V100.663C54.4998 100.163 54.0998 99.8626 53.5998 100.063Z" fill="#E41F30"/>
<path d="M97.1 100.263L97.6 100.063C98.1 99.8626 98.5 100.163 98.5 100.663V104.263C98.5 106.463 97 108.863 95.1 109.663L94.6 109.863C94.1 110.063 93.7 109.763 93.7 109.263V105.663C93.8 103.463 95.3 101.063 97.1 100.263Z" fill="#E41F30"/>
<path d="M89.4002 100.063L89.9002 100.263C91.7002 101.063 93.2002 103.463 93.2002 105.663V109.263C93.2002 109.863 92.8002 110.163 92.3002 109.863L91.8002 109.663C90.0002 108.863 88.5002 106.463 88.5002 104.263V100.663C88.5002 100.163 88.9002 99.8626 89.4002 100.063Z" fill="#E41F30"/>
<path d="M56.9 100.263L56.4 100.063C55.9 99.8626 55.5 100.163 55.5 100.663V104.263C55.5 106.463 57 108.863 58.9 109.663L59.4 109.863C59.9 110.063 60.3 109.763 60.3 109.263V105.663C60.2 103.463 58.7 101.063 56.9 100.263Z" fill="#E41F30"/>
<path d="M64.5998 100.063L64.0998 100.263C62.2998 101.063 60.7998 103.463 60.7998 105.663V109.263C60.7998 109.863 61.1998 110.163 61.6998 109.863L62.1998 109.663C63.9998 108.863 65.4998 106.463 65.4998 104.263V100.663C65.4998 100.163 65.0998 99.8626 64.5998 100.063Z" fill="#E41F30"/>
<path d="M86.1 100.263L86.6 100.063C87.1 99.8626 87.5 100.163 87.5 100.663V104.263C87.5 106.463 86 108.863 84.1 109.663L83.6 109.863C83.1 110.063 82.7 109.763 82.7 109.263V105.663C82.8 103.463 84.3 101.063 86.1 100.263Z" fill="#E41F30"/>
<path d="M78.4002 100.063L78.9002 100.263C80.7002 101.063 82.2002 103.463 82.2002 105.663V109.263C82.2002 109.863 81.8002 110.163 81.3002 109.863L80.8002 109.663C79.0002 108.863 77.5002 106.463 77.5002 104.263V100.663C77.5002 100.163 77.9002 99.8626 78.4002 100.063Z" fill="#E41F30"/>
<path d="M1.9 110.263L1.4 110.063C0.9 109.863 0.5 110.163 0.5 110.663V114.263C0.5 116.463 2 118.863 3.9 119.663L4.4 119.863C4.9 120.063 5.3 119.763 5.3 119.263V115.663C5.2 113.463 3.7 111.063 1.9 110.263Z" fill="#E41F30"/>
<path d="M9.5998 110.063L9.0998 110.263C7.2998 111.063 5.7998 113.463 5.7998 115.663V119.263C5.7998 119.863 6.1998 120.163 6.6998 119.863L7.1998 119.663C8.9998 118.863 10.4998 116.463 10.4998 114.263V110.663C10.4998 110.163 10.0998 109.863 9.5998 110.063Z" fill="#E41F30"/>
<path d="M141.1 110.263L141.6 110.063C142.1 109.863 142.5 110.163 142.5 110.663V114.263C142.5 116.463 141 118.863 139.1 119.663L138.6 119.863C138.1 120.063 137.7 119.763 137.7 119.263V115.663C137.8 113.463 139.3 111.063 141.1 110.263Z" fill="#E41F30"/>
<path d="M133.4 110.063L133.9 110.263C135.7 111.063 137.2 113.463 137.2 115.663V119.263C137.2 119.863 136.8 120.163 136.3 119.863L135.8 119.663C134 118.863 132.5 116.463 132.5 114.263V110.663C132.5 110.163 132.9 109.863 133.4 110.063Z" fill="#E41F30"/>
<path d="M34.9 110.263L34.4 110.063C33.9 109.863 33.5 110.163 33.5 110.663V114.263C33.5 116.463 35 118.863 36.9 119.663L37.4 119.863C37.9 120.063 38.3 119.763 38.3 119.263V115.663C38.2 113.463 36.7 111.063 34.9 110.263Z" fill="#E41F30"/>
<path d="M42.5998 110.063L42.0998 110.263C40.2998 111.063 38.7998 113.463 38.7998 115.663V119.263C38.7998 119.863 39.1998 120.163 39.6998 119.863L40.1998 119.663C41.9998 118.863 43.4998 116.463 43.4998 114.263V110.663C43.4998 110.163 43.0998 109.863 42.5998 110.063Z" fill="#E41F30"/>
<path d="M108.1 110.263L108.6 110.063C109.1 109.863 109.5 110.163 109.5 110.663V114.263C109.5 116.463 108 118.863 106.1 119.663L105.6 119.863C105.1 120.063 104.7 119.763 104.7 119.263V115.663C104.8 113.463 106.3 111.063 108.1 110.263Z" fill="#E41F30"/>
<path d="M100.4 110.063L100.9 110.263C102.7 111.063 104.2 113.463 104.2 115.663V119.263C104.2 119.863 103.8 120.163 103.3 119.863L102.8 119.663C101 118.863 99.5002 116.463 99.5002 114.263V110.663C99.5002 110.163 99.9002 109.863 100.4 110.063Z" fill="#E41F30"/>
<path d="M45.9 110.263L45.4 110.063C44.9 109.863 44.5 110.163 44.5 110.663V114.263C44.5 116.463 46 118.863 47.9 119.663L48.4 119.863C48.9 120.063 49.3 119.763 49.3 119.263V115.663C49.2 113.463 47.7 111.063 45.9 110.263Z" fill="#E41F30"/>
<path d="M53.5998 110.063L53.0998 110.263C51.2998 111.063 49.7998 113.463 49.7998 115.663V119.263C49.7998 119.863 50.1998 120.163 50.6998 119.863L51.1998 119.663C52.9998 118.863 54.4998 116.463 54.4998 114.263V110.663C54.4998 110.163 54.0998 109.863 53.5998 110.063Z" fill="#E41F30"/>
<path d="M97.1 110.263L97.6 110.063C98.1 109.863 98.5 110.163 98.5 110.663V114.263C98.5 116.463 97 118.863 95.1 119.663L94.6 119.863C94.1 120.063 93.7 119.763 93.7 119.263V115.663C93.8 113.463 95.3 111.063 97.1 110.263Z" fill="#E41F30"/>
<path d="M89.4002 110.063L89.9002 110.263C91.7002 111.063 93.2002 113.463 93.2002 115.663V119.263C93.2002 119.863 92.8002 120.163 92.3002 119.863L91.8002 119.663C90.0002 118.863 88.5002 116.463 88.5002 114.263V110.663C88.5002 110.163 88.9002 109.863 89.4002 110.063Z" fill="#E41F30"/>
<path d="M34.9 120.263L34.4 120.063C33.9 119.863 33.5 120.163 33.5 120.663V124.263C33.5 126.463 35 128.863 36.9 129.663L37.4 129.863C37.9 130.063 38.3 129.763 38.3 129.263V125.663C38.2 123.463 36.7 121.063 34.9 120.263Z" fill="#E41F30"/>
<path d="M42.5998 120.063L42.0998 120.263C40.2998 121.063 38.7998 123.463 38.7998 125.663V129.263C38.7998 129.863 39.1998 130.163 39.6998 129.863L40.1998 129.663C41.9998 128.863 43.4998 126.463 43.4998 124.263V120.663C43.4998 120.163 43.0998 119.863 42.5998 120.063Z" fill="#E41F30"/>
<path d="M108.1 120.263L108.6 120.063C109.1 119.863 109.5 120.163 109.5 120.663V124.263C109.5 126.463 108 128.863 106.1 129.663L105.6 129.863C105.1 130.063 104.7 129.763 104.7 129.263V125.663C104.8 123.463 106.3 121.063 108.1 120.263Z" fill="#E41F30"/>
<path d="M100.4 120.063L100.9 120.263C102.7 121.063 104.2 123.463 104.2 125.663V129.263C104.2 129.863 103.8 130.163 103.3 129.863L102.8 129.663C101 128.863 99.5002 126.463 99.5002 124.263V120.663C99.5002 120.163 99.9002 119.863 100.4 120.063Z" fill="#E41F30"/>
</svg>
