<svg width="244" height="252" viewBox="0 0 244 252" fill="none" xmlns="http://www.w3.org/2000/svg">
<path d="M91.9195 37.755L82.0469 32.0891C72.5499 26.6388 60.3676 27.1208 51.2034 34.2216L51.2033 34.2216C42.6836 40.8228 39.0054 51.4285 40.8361 61.4041L42.6376 71.2212L32.824 73.0414C22.8828 74.8853 14.3227 82.0805 11.2032 92.4147L91.9195 37.755ZM91.9195 37.755L96.2665 27.2348M91.9195 37.755L96.2665 27.2348M96.2665 27.2348C100.458 17.0917 110.419 10 122 10C133.58 10 143.542 17.0917 147.733 27.2348L152.08 37.755M96.2665 27.2348L152.08 37.755M152.08 37.755L161.953 32.0891M152.08 37.755L161.953 32.0891M161.953 32.0891C171.449 26.6388 183.631 27.1208 192.796 34.2216L192.796 34.2216M161.953 32.0891L192.796 34.2216M192.796 34.2216C201.316 40.8233 204.995 51.4293 203.164 61.4041L201.363 71.2212M192.796 34.2216L201.363 71.2212M201.363 71.2212L211.177 73.0414M201.363 71.2212L211.177 73.0414M211.177 73.0414C221.118 74.8853 229.678 82.0806 232.797 92.4154C235.736 102.155 233.119 112.259 226.736 119.302L220.651 126.017M211.177 73.0414L220.651 126.017M220.651 126.017L226.736 132.732M220.651 126.017L226.736 132.732M226.736 132.732C233.122 139.78 235.734 149.849 232.797 159.585L226.736 132.732ZM201.364 180.779L211.177 178.959C221.117 177.115 229.677 169.92 232.797 159.585L201.364 180.779ZM201.364 180.779L203.164 190.595M201.364 180.779L203.164 190.595M203.164 190.595C204.995 200.579 201.316 211.176 192.796 217.778L192.796 217.778M203.164 190.595L192.796 217.778M192.796 217.778C183.631 224.879 171.449 225.361 161.953 219.911L152.08 214.245M192.796 217.778L152.08 214.245M152.08 214.245L147.733 224.765M152.08 214.245L147.733 224.765M147.733 224.765C143.542 234.908 133.58 242 122 242C110.419 242 100.458 234.908 96.2665 224.765L91.9195 214.245M147.733 224.765L91.9195 214.245M91.9195 214.245L82.0469 219.911M91.9195 214.245L82.0469 219.911M82.0469 219.911C72.5499 225.361 60.3676 224.879 51.2034 217.778L51.2033 217.778M82.0469 219.911L51.2033 217.778M51.2033 217.778C42.6833 211.177 39.0052 200.579 40.8363 190.595L42.6365 180.779M51.2033 217.778L42.6365 180.779M42.6365 180.779L32.824 178.959M42.6365 180.779L32.824 178.959M32.824 178.959C22.8828 177.115 14.3227 169.92 11.2032 159.585C8.26423 149.845 10.8806 139.741 17.2638 132.698L23.349 125.983M32.824 178.959L23.349 125.983M23.349 125.983L17.2638 119.268M23.349 125.983L17.2638 119.268M17.2638 119.268C10.8775 112.22 8.26571 102.151 11.203 92.4154L17.2638 119.268Z" stroke="#FF6700" stroke-width="20"/>
</svg>
