<svg xmlns="http://www.w3.org/2000/svg" width="217" height="62.435" viewBox="0 0 217 62.435">
  <g id="Group_40" data-name="Group 40" transform="translate(434.466 58.635)">
    <path id="Path_195" data-name="Path 195" d="M-380-42.589c-.008-.034-.02-.071-.031-.1a1.593,1.593,0,0,0-.115-.271.715.715,0,0,0-.05-.1,1.657,1.657,0,0,0-.548-.551.348.348,0,0,0-.039-.028l-25.586-14.774a1.674,1.674,0,0,0-1.67,0L-433.63-43.638a1.677,1.677,0,0,0-.836,1.448v29.544c0,.02.008.043.009.066a1.483,1.483,0,0,0,.043.306.868.868,0,0,0,.017.092,1.8,1.8,0,0,0,.153.361.619.619,0,0,0,.035.054,1.732,1.732,0,0,0,.146.209c.015.019.033.031.051.05.035.035.071.066.107.1a1.484,1.484,0,0,0,.216.165c.021.015.039.032.059.047l25.589,14.772c.012.005.024.008.035.013a1.593,1.593,0,0,0,.361.15.134.134,0,0,0,.035.007,1.582,1.582,0,0,0,.4.055,1.638,1.638,0,0,0,.418-.056.976.976,0,0,0,.118-.046,1.61,1.61,0,0,0,.277-.114c.005,0,.016-.005.023-.009L-380.784-11.2l0-.005a1.613,1.613,0,0,0,.318-.241c.024-.024.046-.05.068-.075a1.632,1.632,0,0,0,.182-.239.945.945,0,0,0,.056-.092,1.658,1.658,0,0,0,.2-.752c0-.016,0-.028,0-.044V-42.2a1.675,1.675,0,0,0-.052-.391m-51.121,8.943,4.882,13.2-4.882,4.173Zm39.393,4.232-29.961,7.147,6.9-19.808Zm-21.547-15.639,6.086-8.577,14.345,19.79ZM-424.32-24.88l-5.737-15.529,11.829-1.969ZM-390.8-26.2-407.152-1.024l-14.18-17.892Zm3.271-6-14.3-19.734,18.116,10.458Zm-29.153-13.827L-425.3-44.59l12.861-7.426Zm-7.817,28.49,11.319,14.281-16.727-9.656ZM-387.6-25l3.956,11.595L-402.014-2.8Zm2.257-3.74,2.051-4.993v11.01Z" transform="translate(0 0)" fill="#fff"/>
    <path id="Path_196" data-name="Path 196" d="M-379.447-27.247A9.826,9.826,0,0,1-383.3-30.9a10.081,10.081,0,0,1-1.4-5.285,10.083,10.083,0,0,1,1.4-5.287,9.832,9.832,0,0,1,3.854-3.655,11.469,11.469,0,0,1,5.513-1.318,11.535,11.535,0,0,1,4.662.907,9.362,9.362,0,0,1,3.5,2.606l-2.95,2.722a6.333,6.333,0,0,0-4.988-2.324,6.633,6.633,0,0,0-3.288.807,5.768,5.768,0,0,0-2.252,2.253,6.623,6.623,0,0,0-.808,3.288,6.614,6.614,0,0,0,.808,3.287A5.751,5.751,0,0,0-377-30.649a6.634,6.634,0,0,0,3.288.808,6.307,6.307,0,0,0,4.988-2.352l2.95,2.721a9.223,9.223,0,0,1-3.517,2.637,11.661,11.661,0,0,1-4.674.9,11.425,11.425,0,0,1-5.486-1.315" transform="translate(16.941 4.149)" fill="#fff"/>
    <path id="Path_197" data-name="Path 197" d="M-350.08-46.2v19.841h-4.592V-34.49h-9.01v8.135h-4.592V-46.2h4.592v7.824h9.01V-46.2Z" transform="translate(22.534 4.235)" fill="#fff"/>
    <path id="Path_198" data-name="Path 198" d="M-338.973-26.355l-3.823-5.529h-4.226v5.529h-4.592V-46.2h8.588a11.026,11.026,0,0,1,4.579.879,6.794,6.794,0,0,1,2.989,2.495A6.856,6.856,0,0,1-334.411-39a6.746,6.746,0,0,1-1.062,3.812,6.762,6.762,0,0,1-3.017,2.452l4.449,6.376Zm-1.161-15.207a4.837,4.837,0,0,0-3.147-.891h-3.741v6.917h3.741a4.777,4.777,0,0,0,3.147-.909A3.152,3.152,0,0,0-339.058-39a3.148,3.148,0,0,0-1.076-2.567" transform="translate(28.205 4.235)" fill="#fff"/>
    <path id="Path_199" data-name="Path 199" d="M-331.718-27.263a9.906,9.906,0,0,1-3.885-3.669,10.029,10.029,0,0,1-1.4-5.257,10.037,10.037,0,0,1,1.4-5.259,9.915,9.915,0,0,1,3.885-3.669,11.583,11.583,0,0,1,5.567-1.332,11.512,11.512,0,0,1,5.557,1.332,10.012,10.012,0,0,1,3.883,3.669,9.948,9.948,0,0,1,1.417,5.259,9.94,9.94,0,0,1-1.417,5.257,10,10,0,0,1-3.883,3.669,11.482,11.482,0,0,1-5.557,1.332,11.552,11.552,0,0,1-5.567-1.332m8.742-3.386a5.767,5.767,0,0,0,2.226-2.253,6.613,6.613,0,0,0,.806-3.287,6.622,6.622,0,0,0-.806-3.288,5.794,5.794,0,0,0-2.226-2.253,6.306,6.306,0,0,0-3.175-.807,6.3,6.3,0,0,0-3.171.807,5.824,5.824,0,0,0-2.228,2.253,6.65,6.65,0,0,0-.806,3.288,6.641,6.641,0,0,0,.806,3.287,5.8,5.8,0,0,0,2.228,2.253,6.3,6.3,0,0,0,3.171.81,6.308,6.308,0,0,0,3.175-.81" transform="translate(33.179 4.149)" fill="#fff"/>
    <path id="Path_200" data-name="Path 200" d="M-300.032-46.2v19.841H-303.8L-313.693-38.4v12.048h-4.536V-46.2h3.8l9.864,12.045V-46.2Z" transform="translate(39.571 4.235)" fill="#fff"/>
    <path id="Path_201" data-name="Path 201" d="M-297.213-27.263a9.9,9.9,0,0,1-3.883-3.669,10.04,10.04,0,0,1-1.4-5.257,10.048,10.048,0,0,1,1.4-5.259,9.911,9.911,0,0,1,3.883-3.669,11.6,11.6,0,0,1,5.569-1.332,11.5,11.5,0,0,1,5.553,1.332,10.015,10.015,0,0,1,3.885,3.669,9.922,9.922,0,0,1,1.415,5.259,9.914,9.914,0,0,1-1.415,5.257,10.006,10.006,0,0,1-3.885,3.669,11.466,11.466,0,0,1-5.553,1.332,11.57,11.57,0,0,1-5.569-1.332m8.745-3.386a5.8,5.8,0,0,0,2.225-2.253,6.627,6.627,0,0,0,.807-3.287,6.636,6.636,0,0,0-.807-3.288,5.826,5.826,0,0,0-2.225-2.253,6.306,6.306,0,0,0-3.175-.807,6.31,6.31,0,0,0-3.175.807,5.824,5.824,0,0,0-2.224,2.253,6.637,6.637,0,0,0-.807,3.288,6.628,6.628,0,0,0,.807,3.287,5.8,5.8,0,0,0,2.224,2.253,6.312,6.312,0,0,0,3.175.81,6.308,6.308,0,0,0,3.175-.81" transform="translate(44.926 4.149)" fill="#fff"/>
    <path id="Path_202" data-name="Path 202" d="M-281.356-26.568a10.634,10.634,0,0,1-3.528-1.657l1.558-3.458a10.6,10.6,0,0,0,3.031,1.5,11.446,11.446,0,0,0,3.515.566,5.63,5.63,0,0,0,2.891-.579,1.76,1.76,0,0,0,.938-1.547,1.471,1.471,0,0,0-.554-1.174,4.2,4.2,0,0,0-1.417-.753q-.867-.281-2.338-.623a31.983,31.983,0,0,1-3.714-1.076,6.027,6.027,0,0,1-2.48-1.728,4.677,4.677,0,0,1-1.035-3.175,5.533,5.533,0,0,1,.936-3.133,6.3,6.3,0,0,1,2.819-2.224,11.537,11.537,0,0,1,4.607-.822,15.216,15.216,0,0,1,3.713.453,11.043,11.043,0,0,1,3.174,1.3l-1.417,3.486a11.088,11.088,0,0,0-5.5-1.559,5.144,5.144,0,0,0-2.848.623,1.9,1.9,0,0,0-.922,1.642,1.608,1.608,0,0,0,1.062,1.516,16.825,16.825,0,0,0,3.248.98,32.874,32.874,0,0,1,3.712,1.075,6.161,6.161,0,0,1,2.48,1.7,4.561,4.561,0,0,1,1.036,3.146,5.407,5.407,0,0,1-.952,3.1,6.364,6.364,0,0,1-2.848,2.224,11.6,11.6,0,0,1-4.618.822,16.226,16.226,0,0,1-4.549-.637" transform="translate(50.923 4.149)" fill="#fff"/>
    <path id="Path_203" data-name="Path 203" d="M-347.307-20.469h-2.676l-.5,1.231h-1.827l2.795-6.331h1.764l2.806,6.331h-1.863Zm-.524-1.32-.812-2.027-.816,2.027Z" transform="translate(27.969 11.257)" fill="#fff"/>
    <path id="Path_204" data-name="Path 204" d="M-338.806-22.508h1.584v2.622a4.114,4.114,0,0,1-1.249.6,4.96,4.96,0,0,1-1.411.209,3.788,3.788,0,0,1-1.791-.42,3.142,3.142,0,0,1-1.248-1.173,3.233,3.233,0,0,1-.453-1.7,3.227,3.227,0,0,1,.453-1.7,3.108,3.108,0,0,1,1.256-1.172,3.88,3.88,0,0,1,1.82-.418,4.061,4.061,0,0,1,1.591.3,3.088,3.088,0,0,1,1.176.859l-1.139,1.031a2.011,2.011,0,0,0-1.537-.7,1.78,1.78,0,0,0-1.312.492,1.762,1.762,0,0,0-.5,1.318,1.906,1.906,0,0,0,.228.934,1.6,1.6,0,0,0,.633.641,1.836,1.836,0,0,0,.93.232,2.317,2.317,0,0,0,.969-.208Z" transform="translate(31.011 11.225)" fill="#fff"/>
    <path id="Path_205" data-name="Path 205" d="M-329.477-20.623v1.385h-5.083v-6.331h4.964v1.383h-3.193v1.067h2.814v1.339h-2.814v1.157Z" transform="translate(34.011 11.257)" fill="#fff"/>
    <path id="Path_206" data-name="Path 206" d="M-320.63-25.569v6.332H-322.1l-2.795-3.377v3.377h-1.756v-6.332h1.476l2.793,3.374v-3.374Z" transform="translate(36.703 11.257)" fill="#fff"/>
    <path id="Path_207" data-name="Path 207" d="M-316.388-19.5a3.142,3.142,0,0,1-1.241-1.173,3.234,3.234,0,0,1-.453-1.7,3.225,3.225,0,0,1,.453-1.7,3.12,3.12,0,0,1,1.241-1.172,3.761,3.761,0,0,1,1.788-.42,3.827,3.827,0,0,1,1.563.307,3.008,3.008,0,0,1,1.159.887l-1.141,1.029a1.869,1.869,0,0,0-1.493-.74,1.842,1.842,0,0,0-.918.225,1.563,1.563,0,0,0-.623.635,1.994,1.994,0,0,0-.223.948,1.983,1.983,0,0,0,.223.945,1.558,1.558,0,0,0,.623.637,1.843,1.843,0,0,0,.918.227,1.878,1.878,0,0,0,1.493-.741l1.141,1.031a3.024,3.024,0,0,1-1.159.889,3.916,3.916,0,0,1-1.563.3,3.776,3.776,0,0,1-1.788-.418" transform="translate(39.621 11.225)" fill="#fff"/>
    <path id="Path_208" data-name="Path 208" d="M-305.907-21.509v2.271H-307.7v-2.3l-2.417-4.035h1.893l1.5,2.516,1.5-2.516h1.736Z" transform="translate(42.333 11.257)" fill="#fff"/>
  </g>
</svg>
