<svg width="43" height="16" viewBox="0 0 43 16" fill="none" xmlns="http://www.w3.org/2000/svg">
<path d="M4.17847 4.18767H5.63804L4.90824 2.32996L4.17847 4.18767Z" fill="#2FABF7"/>
<path d="M22.2974 2.59715C22.1648 2.53082 21.9657 2.53082 21.7667 2.53082H20.4398V3.59236H21.7667C21.9657 3.59236 22.1648 3.59236 22.2974 3.52597C22.43 3.45962 22.4965 3.2606 22.4965 3.06157C22.5628 2.7962 22.43 2.6635 22.2974 2.59715Z" fill="#228FE0"/>
<path d="M36.4916 0.605286V1.40141L36.0936 0.605286H32.9755V1.40141L32.5774 0.605286H28.3313C27.6015 0.605286 27.0043 0.737963 26.4736 1.00334V0.605286H23.4881V1.00334C23.1564 0.737963 22.7583 0.605286 22.2276 0.605286H11.546L10.8163 2.26389L10.0865 0.605286H6.7029V1.40141L6.30483 0.605286H3.452L2.12511 3.72348L0.599182 7.17334H3.98275L4.38083 6.11179H5.30965L5.70773 7.17334H9.55572V6.37723L9.88745 7.17334H11.8114L12.1431 6.37723V7.17334H21.365V5.44852H21.4978C21.6305 5.44852 21.6305 5.44852 21.6305 5.64744V7.10703H26.4073V6.70898C26.8053 6.90811 27.4025 7.10703 28.1986 7.10703H30.1889L30.587 6.04549H31.5159L31.9139 7.10703H35.7618V6.11179L36.359 7.10703H39.4771V0.605286H36.4916ZM14.0671 6.17831H12.9393V2.52928L11.347 6.17831H10.3518L8.75957 2.52928V6.17831H6.50385L6.03945 5.18308H3.78373L3.38565 6.24462H2.12511L4.11545 1.53411H5.77407L7.63172 5.97918V1.53411H9.42302L10.8826 4.71872L12.2095 1.53411H14.0671V6.17831ZM18.5787 2.52928H15.9911V3.39176H18.5123V4.32067H15.9911V5.24938H18.5787V6.24462H14.8633V1.53411H18.5787V2.52928ZM23.5544 4.45328C23.687 4.71872 23.7535 4.91764 23.7535 5.31569V6.24462H22.6257V5.64744C22.6257 5.382 22.6257 4.98394 22.4266 4.71872C22.2276 4.51959 22.0285 4.51959 21.6305 4.51959H20.4363V6.24462H19.3085V1.53411H21.8294C22.4266 1.53411 22.8246 1.53411 23.1564 1.73313C23.4881 1.93216 23.687 2.26388 23.687 2.79466C23.687 3.52443 23.2227 3.92261 22.8909 4.05523C23.2227 4.12153 23.4218 4.32067 23.5544 4.45328ZM25.5449 6.17831H24.4168V1.46776H25.5449V6.17831ZM38.6147 6.17831H37.0223L34.8994 2.66196V6.17831H32.6437L32.2457 5.18308H29.9235L29.5254 6.24462H28.2649C27.7341 6.24462 27.0708 6.11179 26.6727 5.71374C26.2745 5.31569 26.0756 4.78502 26.0756 3.92261C26.0756 3.25906 26.2082 2.59561 26.6727 2.06486C27.0043 1.66679 27.6015 1.53411 28.3313 1.53411H29.3928V2.52928H28.3313C27.9332 2.52928 27.7341 2.59561 27.4688 2.79466C27.2697 2.99368 27.1371 3.39176 27.1371 3.85609C27.1371 4.38697 27.2034 4.71872 27.4688 4.98394C27.6678 5.18308 27.9332 5.24938 28.2649 5.24938H28.7293L30.2552 1.60046H31.9139L33.7716 6.04549V1.60046H35.4301L37.354 4.85133V1.60046H38.4819V6.17831H38.6147Z" fill="#0571C1"/>
<path d="M30.3253 4.18767H31.8512L31.1214 2.32996L30.3253 4.18767ZM19.0468 13.7411V9.95953L17.3217 11.8172L19.0468 13.7411Z" fill="#228FE0"/>
<path d="M11.9403 10.4232V11.2856H14.3951V12.2146H11.9403V13.2096H14.6604L15.921 11.8163L14.7268 10.4232H11.9403Z" fill="#2FABF7"/>
<path d="M21.5649 10.4232H20.1716V11.6174H21.6312C22.0293 11.6174 22.2947 11.4182 22.2947 11.0202C22.2284 10.6221 21.963 10.4232 21.5649 10.4232Z" fill="#228FE0"/>
<path d="M42.0632 11.552V8.56647H39.2766C38.6796 8.56647 38.2153 8.69929 37.8835 8.96452V8.56647H34.8315C34.3671 8.56647 33.7702 8.69929 33.5047 8.96452V8.56647H28.1307V8.96452C27.7327 8.63299 27.0029 8.56647 26.6711 8.56647H23.0886V8.96452C22.7569 8.63299 21.9608 8.56647 21.5627 8.56647H17.582L16.6532 9.5617L15.7907 8.56647H9.81964V15.0683H15.658L16.5868 14.0731L17.4494 15.0683H21.0319V13.5424H21.4962C21.9608 13.5424 22.5578 13.5424 23.0223 13.3433V15.1346H26.0078V13.4096H26.1404C26.3396 13.4096 26.3396 13.4096 26.3396 13.6087V15.1346H35.3624C35.9596 15.1346 36.5565 15.002 36.8883 14.7366V15.1346H39.7412C40.3381 15.1346 40.9353 15.0683 41.3334 14.8029C41.9969 14.4048 42.3949 13.6751 42.3949 12.8126C42.3949 12.3483 42.2623 11.8837 42.0632 11.552ZM21.4962 12.6135H20.1694V14.2059H18.0464L16.7195 12.68L15.3263 14.2059H10.9475V9.4954H15.3926L16.7195 11.0213L18.1127 9.4954H21.629C22.4915 9.4954 23.4867 9.76084 23.4867 11.0213C23.4204 12.3483 22.4915 12.6135 21.4962 12.6135ZM28.1307 12.3483C28.2635 12.5472 28.3298 12.8126 28.3298 13.2107V14.1394H27.202V13.5424C27.202 13.277 27.202 12.8126 27.0029 12.6135C26.8702 12.4146 26.6048 12.4146 26.2067 12.4146H25.0126V14.1394H23.8847V9.42909H26.4059C26.9365 9.42909 27.4009 9.42909 27.7327 9.62801C28.0644 9.82714 28.3298 10.1589 28.3298 10.6896C28.3298 11.4194 27.8655 11.8174 27.5337 11.9502C27.8655 12.0828 28.0644 12.2155 28.1307 12.3483ZM32.7086 10.4241H30.1212V11.2867H32.6423V12.2155H30.1212V13.1444H32.7086V14.1394H28.9933V9.42909H32.7086V10.4241ZM35.495 14.1394H33.3721V13.1444H35.495C35.6941 13.1444 35.8267 13.1444 35.9596 13.0116C36.0259 12.9453 36.0922 12.8126 36.0922 12.68C36.0922 12.5472 36.0259 12.4146 35.9596 12.3483C35.893 12.2818 35.7604 12.2155 35.5613 12.2155C34.5 12.1491 33.2393 12.2155 33.2393 10.7559C33.2393 10.0926 33.6373 9.36278 34.8315 9.36278H37.0209V10.4906H34.9643C34.7652 10.4906 34.6326 10.4906 34.5 10.5569C34.3671 10.6232 34.3671 10.7559 34.3671 10.8887C34.3671 11.0876 34.5 11.1539 34.6326 11.2204C34.7652 11.2867 34.898 11.2867 35.0306 11.2867H35.6278C36.2248 11.2867 36.6228 11.4194 36.8883 11.6848C37.0874 11.8837 37.22 12.2155 37.22 12.68C37.22 13.6751 36.6228 14.1394 35.495 14.1394ZM41.2008 13.6751C40.9353 13.9405 40.471 14.1394 39.8075 14.1394H37.6844V13.1444H39.8075C40.0064 13.1444 40.1392 13.1444 40.2718 13.0116C40.3381 12.9453 40.4047 12.8126 40.4047 12.68C40.4047 12.5472 40.3381 12.4146 40.2718 12.3483C40.2055 12.2818 40.0729 12.2155 39.8738 12.2155C38.8122 12.1491 37.5518 12.2155 37.5518 10.7559C37.5518 10.0926 37.9498 9.36278 39.144 9.36278H41.3334V10.4906H39.3431C39.144 10.4906 39.0114 10.4906 38.8785 10.5569C38.7459 10.6232 38.7459 10.7559 38.7459 10.8887C38.7459 11.0876 38.8122 11.1539 39.0114 11.2204C39.144 11.2867 39.2766 11.2867 39.4094 11.2867H40.0064C40.6036 11.2867 41.0016 11.4194 41.2671 11.6848C41.3334 11.6848 41.3334 11.7511 41.3334 11.7511C41.5325 12.0165 41.5988 12.3483 41.5988 12.68C41.5988 13.0781 41.466 13.4096 41.2008 13.6751Z" fill="#0571C1"/>
<path d="M26.9417 10.5567C26.8089 10.4904 26.61 10.4904 26.4108 10.4904H25.0841V11.5519H26.4108C26.61 11.5519 26.8089 11.5519 26.9417 11.4854C27.0743 11.4191 27.1406 11.2202 27.1406 11.0211C27.2071 10.7556 27.0743 10.623 26.9417 10.5567ZM22.2975 2.59533C22.1649 2.52898 21.9657 2.52898 21.7668 2.52898H20.4398V3.59048H21.7668C21.9657 3.59048 22.1649 3.59048 22.2975 3.52415C22.4303 3.4578 22.4966 3.25878 22.4966 3.05973C22.5629 2.79436 22.4303 2.66168 22.2975 2.59533ZM30.3253 4.18767H31.8512L31.1214 2.32996L30.3253 4.18767ZM19.0468 13.7411V9.95953L17.3217 11.8172L19.0468 13.7411ZM21.5677 10.4241H20.1746V11.6183H21.6342C22.0322 11.6183 22.2975 11.4191 22.2975 11.0211C22.2312 10.623 21.9657 10.4241 21.5677 10.4241Z" fill="#228FE0"/>
<path d="M26.9412 10.5572C26.8084 10.4908 26.6095 10.4908 26.4103 10.4908H25.0836V11.5524H26.4103C26.6095 11.5524 26.8084 11.5524 26.9412 11.4859C27.0738 11.4196 27.1401 11.2206 27.1401 11.0215C27.2064 10.7561 27.0738 10.6235 26.9412 10.5572Z" fill="#228FE0"/>
<path d="M21.0982 14.0068L20.1694 13.0116V14.1394H17.9801L16.6532 12.6135L15.1936 14.1394H10.8148V9.4954H15.2599L16.6532 11.0213L17.3166 10.2252L15.658 8.56647H9.81964V15.0684H15.658L16.6532 14.0731L17.5157 15.0684H21.0982V14.0068Z" fill="#2FABF7"/>
<path d="M14.1998 7.10703L13.3374 6.17832H12.9393V5.78026L11.9441 4.78503L11.2807 6.17832H10.3518L8.75957 2.52928V6.17832H6.50385L6.03945 5.18308H3.78373L3.3193 6.17832H2.12511L4.11545 1.53411H5.77407L7.63172 5.97918V1.53411H8.62689L7.69807 0.605286H6.7029V1.40141L6.37117 0.605286H3.452L2.12511 3.72348L0.599182 7.10703H4.0491L4.44718 6.1118H5.376L5.8404 7.10703H9.55572V6.31093L9.88744 7.10703H11.8114L12.1432 6.31093V7.10703H14.1998Z" fill="#2FABF7"/>
<path d="M11.1494 4.05502L10.0878 2.99341L10.884 4.7183L11.1494 4.05502Z" fill="#2FABF7"/>
<path d="M41.3394 14.7374C41.9366 14.3392 42.3346 13.6759 42.4009 12.9461L41.472 12.0172C41.5383 12.2163 41.6048 12.4152 41.6048 12.6806C41.6048 13.0787 41.472 13.4104 41.2068 13.6759C40.9413 13.9411 40.477 14.1402 39.8135 14.1402H37.6904V13.145H39.8135C40.0124 13.145 40.1452 13.145 40.2778 13.0124C40.3441 12.9461 40.4105 12.8133 40.4105 12.6806C40.4105 12.548 40.3441 12.4152 40.2778 12.3489C40.2115 12.2826 40.0789 12.2163 39.8798 12.2163C38.8182 12.15 37.5578 12.2163 37.5578 10.7567C37.5578 10.0932 37.9558 9.49602 38.9511 9.3634L38.2213 8.6336C38.0884 8.69991 38.0221 8.76622 37.9558 8.76622V8.36816H34.904C34.4395 8.36816 33.8425 8.50099 33.577 8.76622V8.36816H28.1367V8.76622C27.7387 8.43469 27.0089 8.36816 26.6771 8.36816H23.0946V8.76622C22.7629 8.43469 21.9668 8.36816 21.5687 8.36816H17.588L16.6592 9.3634L15.7967 8.36816H15.0669L17.0572 10.3586L18.0524 9.2971H21.5687C22.4312 9.2971 23.4264 9.56254 23.4264 10.823C23.4264 12.15 22.4975 12.4152 21.5022 12.4152H20.1755V13.4104L21.1707 14.4057V13.4104H21.5022C21.9668 13.4104 22.5638 13.4104 23.0283 13.2113V15.0027H26.0138V13.2778H26.1465C26.3456 13.2778 26.3454 13.2778 26.3454 13.4768V15.0027H35.3684C35.9654 15.0027 36.5625 14.87 36.8943 14.6046V15.0027H39.7472C40.2778 15.069 40.875 15.0027 41.3394 14.7374ZM28.1367 12.3489C28.2695 12.548 28.3358 12.8133 28.3358 13.2113V14.1402H27.208V13.5431C27.208 13.2778 27.208 12.8133 27.0089 12.6143C26.8763 12.4152 26.6108 12.4152 26.2128 12.4152H25.0186V14.1402H23.8908V9.42971H26.4119C26.9426 9.42971 27.4069 9.42971 27.7387 9.62884C28.0704 9.82776 28.3358 10.1595 28.3358 10.6904C28.3358 11.4202 27.8715 11.8182 27.5397 11.9508C27.8715 12.0835 28.0704 12.2163 28.1367 12.3489ZM32.7146 10.4249H30.1272V11.2874H32.6483V12.2163H30.1272V13.145H32.7146V14.1402H28.9993V9.42971H32.7146V10.4249ZM35.501 14.1402H33.3779V13.145H35.501C35.7001 13.145 35.8327 13.145 35.9654 13.0124C36.0319 12.9461 36.0982 12.8133 36.0982 12.6806C36.0982 12.548 36.0319 12.4152 35.9654 12.3489C35.8991 12.2826 35.7664 12.2163 35.5673 12.2163C34.506 12.15 33.2453 12.2163 33.2453 10.7567C33.2453 10.0932 33.6434 9.3634 34.8375 9.3634H37.0269V10.4913H34.9703C34.7712 10.4913 34.6386 10.4913 34.506 10.5576C34.3731 10.6239 34.3731 10.7567 34.3731 10.8893C34.3731 11.0884 34.506 11.1547 34.6386 11.2211C34.7712 11.2874 34.904 11.2874 35.0366 11.2874H35.6338C36.2308 11.2874 36.6288 11.4202 36.8943 11.6854C37.0934 11.8845 37.226 12.2163 37.226 12.6806C37.226 13.6759 36.6288 14.1402 35.501 14.1402Z" fill="#228FE0"/>
<path d="M38.6879 10.8893C38.6879 11.0885 38.7542 11.1548 38.9533 11.2211C39.0859 11.2874 39.2187 11.2874 39.3514 11.2874H39.9485C40.3466 11.2874 40.6118 11.3537 40.8773 11.4865L39.882 10.4913H39.2851C39.0859 10.4913 38.9533 10.4913 38.8207 10.5576C38.7542 10.6239 38.6879 10.7567 38.6879 10.8893Z" fill="#228FE0"/>
<path d="M36.3601 6.90898L36.4929 7.10811H36.5592L36.3601 6.90898ZM32.7113 3.26007L33.8391 5.98026V4.38784L32.7113 3.26007Z" fill="#228FE0"/>
<path d="M21.3688 5.4468H21.5014C21.634 5.4468 21.634 5.4468 21.634 5.64594V7.10532H26.4108V6.70726C26.8089 6.9064 27.4061 7.10532 28.2022 7.10532H30.1924L30.5905 6.04399H31.5194L31.9175 7.10532H35.7654V6.44204L34.8367 5.51311V6.24291H32.581L32.2492 5.18136H29.9272L29.5292 6.24291H28.2685C27.7378 6.24291 27.0743 6.11029 26.6763 5.71224C26.2782 5.31419 26.0791 4.78331 26.0791 3.9209C26.0791 3.25743 26.2119 2.59398 26.6763 2.06321C27.008 1.66516 27.605 1.53246 28.3348 1.53246H29.3963V2.52763H28.3348C27.9367 2.52763 27.7378 2.59398 27.4724 2.79301C27.2732 2.99203 27.1406 3.39011 27.1406 3.85459C27.1406 4.38526 27.2069 4.717 27.4724 4.98244C27.6715 5.18136 27.9367 5.24767 28.2685 5.24767H28.7328L30.2589 1.59881H30.9222L29.9935 0.669983H28.2685C27.5387 0.669983 26.9417 0.80266 26.4108 1.06804V0.669983H23.4916V1.06804C23.1599 0.80266 22.7618 0.669983 22.2312 0.669983H11.5496L10.8198 2.32861L10.0901 0.669983H7.1709L8.09972 1.59881H9.42662L10.5545 4.05351L10.9525 4.45156L12.1467 1.53246H14.0044V6.24291H12.8765V2.59398L11.7487 5.24767L13.6727 7.17184H21.3022L21.3688 5.4468ZM24.4206 1.53246H25.5484V6.24291H24.4206V1.53246ZM18.5822 2.52763H15.9947V3.39011H18.5159V4.31895H15.9947V5.24767H18.5822V6.24291H14.8669V1.53246H18.5822V2.52763ZM20.4398 6.1766H19.312V1.46611H21.8331C22.4301 1.46611 22.8281 1.46611 23.1599 1.66516C23.4916 1.86418 23.6908 2.19591 23.6908 2.72666C23.6908 3.45646 23.2264 3.85459 22.8947 3.9872C23.1599 4.05351 23.359 4.25264 23.4253 4.38526C23.5579 4.6507 23.6245 4.84962 23.6245 5.24767V6.1766H22.4966V5.57941C22.4966 5.31419 22.4966 4.91614 22.2975 4.6507C22.2312 4.51787 22.032 4.51787 21.634 4.51787H20.4398V6.1766Z" fill="#228FE0"/>
</svg>
