<svg width="41" height="14" viewBox="0 0 41 14" fill="none" xmlns="http://www.w3.org/2000/svg">
<path d="M21.7079 7.28517C23.5373 7.28517 25.0205 5.80197 25.0205 3.97265C25.0205 2.14309 23.5373 0.659973 21.7079 0.659973C19.8784 0.659973 18.3952 2.14309 18.3952 3.97265C18.3952 5.80197 19.8784 7.28517 21.7079 7.28517Z" fill="#EF9122"/>
<path d="M18.3952 3.97265C18.3952 2.12517 19.8604 0.659973 21.7079 0.659973C23.5553 0.659973 25.0205 2.12517 25.0205 3.97265C25.0205 5.81999 23.5553 7.28517 21.7079 7.28517" fill="#F26E21"/>
<path d="M19.4177 1.61552C20.6916 0.341456 22.7939 0.341456 24.0681 1.61552C25.3421 2.88963 25.3421 4.99191 24.0681 6.26589" fill="#F44500"/>
<path d="M2.5345 0.849903H0.750793V7.09286H2.5345C3.49006 7.09286 4.1908 6.83794 4.76412 6.39203C5.46487 5.81888 5.91079 4.92686 5.91079 3.97132C5.91079 2.12397 4.57302 0.849903 2.5345 0.849903ZM3.99967 5.56396C3.61745 5.8824 3.10782 6.07359 2.34339 6.07359H1.96117V1.93286H2.27968C3.04413 1.93286 3.55374 2.06028 3.93598 2.4425C4.38191 2.8248 4.63673 3.39795 4.63673 3.97132C4.70041 4.54469 4.4456 5.18178 3.99967 5.56396ZM6.48412 0.849903H7.69449V7.09286H6.48412V0.849903ZM10.7523 3.27071C9.98781 3.01578 9.7967 2.8248 9.7967 2.50621C9.7967 2.12397 10.1789 1.80547 10.6886 1.80547C11.0708 1.80547 11.3893 1.93286 11.7078 2.31508L12.3449 1.48694C11.8352 1.04101 11.1982 0.786194 10.4974 0.786194C9.41449 0.786194 8.52264 1.55065 8.52264 2.5699C8.52264 3.46168 8.90485 3.84407 10.0515 4.28998C10.5612 4.48095 10.7523 4.54469 10.8797 4.67215C11.1345 4.79961 11.2619 5.05432 11.2619 5.30925C11.2619 5.81888 10.8797 6.20106 10.3063 6.20106C9.73301 6.20106 9.22338 5.8824 8.96856 5.37276L8.20411 6.13732C8.77745 6.9654 9.4782 7.34757 10.37 7.34757C11.6441 7.34757 12.536 6.5195 12.536 5.30925C12.536 4.22624 12.1538 3.78034 10.7523 3.27071Z" fill="#595A5B"/>
<path d="M12.9216 3.97157C12.9216 5.81892 14.3867 7.22037 16.2342 7.22037C16.7438 7.22037 17.1897 7.09312 17.7631 6.83819V5.37302C17.2534 5.88265 16.8075 6.07385 16.2979 6.07385C15.0875 6.07385 14.1956 5.18204 14.1956 3.90784C14.1956 2.69759 15.0875 1.74195 16.2342 1.74195C16.8075 1.74195 17.2534 1.93305 17.7631 2.44269V0.977513C17.2534 0.722696 16.8075 0.595276 16.2342 0.595276C14.4505 0.722695 12.9216 2.18787 12.9216 3.97157Z" fill="#3B3D3F"/>
<path d="M27.7597 5.05432L26.1033 0.849854H24.7656L27.3775 7.28384H28.0781L30.8175 0.849854H29.4796L27.7597 5.05432ZM31.3272 7.09286H34.8309V6.07359H32.6011V4.35349H34.7671V3.27049H32.6011V1.93282H34.8309V0.849854H31.3272V7.09286Z" fill="black"/>
<path d="M38.2722 4.48096C39.2278 4.28998 39.7374 3.65288 39.7374 2.69734C39.7374 1.55065 38.9093 0.849903 37.5079 0.849903H35.6603V7.09286H36.8708V4.60842H37.0618L38.7819 7.09286H40.247L38.2722 4.48096ZM37.253 3.71661H36.8708V1.80547H37.253C38.0175 1.80547 38.4634 2.12397 38.4634 2.76107C38.4634 3.39795 38.0175 3.71661 37.253 3.71661ZM2.5345 0.849903H0.750793V7.09286H2.5345C3.49006 7.09286 4.1908 6.83794 4.76412 6.39203C5.46487 5.81888 5.91079 4.92686 5.91079 3.97132C5.91079 2.12397 4.57302 0.849903 2.5345 0.849903ZM3.99967 5.56396C3.61745 5.8824 3.10784 6.07359 2.34339 6.07359H1.96117V1.93286H2.27968C3.04413 1.93286 3.55377 2.06028 3.93598 2.4425C4.38191 2.8248 4.63673 3.39795 4.63673 3.97132C4.70041 4.54469 4.4456 5.18178 3.99967 5.56396ZM6.48412 0.849903H7.6945V7.09286H6.48412V0.849903ZM10.7523 3.27071C9.98783 3.01578 9.7967 2.8248 9.7967 2.50621C9.7967 2.12397 10.1789 1.80547 10.6886 1.80547C11.0708 1.80547 11.3893 1.93286 11.7078 2.31508L12.3449 1.48694C11.8352 1.04101 11.1982 0.786194 10.4974 0.786194C9.41449 0.786194 8.52264 1.55065 8.52264 2.5699C8.52264 3.46168 8.90485 3.84407 10.0515 4.28998C10.5612 4.48095 10.7523 4.54469 10.8797 4.67215C11.1345 4.79961 11.2619 5.05432 11.2619 5.30925C11.2619 5.81888 10.8797 6.20106 10.3063 6.20106C9.73302 6.20106 9.22338 5.8824 8.96856 5.37276L8.20413 6.13732C8.77745 6.9654 9.4782 7.34757 10.37 7.34757C11.6441 7.34757 12.536 6.5195 12.536 5.30925C12.536 4.22624 12.1538 3.78034 10.7523 3.27071ZM16.2944 7.22033C16.804 7.22033 17.2499 7.09287 17.8233 6.83794V5.37276C17.3137 5.8824 16.8678 6.07359 16.3581 6.07359C15.1478 6.07359 14.256 5.18178 14.256 3.90759C14.256 3.2707 14.5108 2.76107 14.893 2.31508L14.0649 1.48694C13.4278 2.06028 12.9819 2.95205 12.9819 3.90759C12.9182 5.81888 14.3834 7.22033 16.2944 7.22033Z" fill="#595A5B"/>
<path d="M38.2743 4.48095C39.2299 4.28975 39.7395 3.65287 39.7395 2.69733C39.7395 1.55058 38.9114 0.849854 37.5098 0.849854H35.6624V7.09286H36.8729V4.60841H37.0639L38.784 7.09286H40.2491L38.2743 4.48095ZM37.2551 3.7166H36.8729V1.80539H37.2551C38.0194 1.80539 38.4653 2.12392 38.4653 2.76085C38.4653 3.39795 38.0194 3.7166 37.2551 3.7166Z" fill="black"/>
<path d="M9.72797 12.8901V9.38635L12.1487 11.8708V9.57733H12.6583V13.081L10.2376 10.5966V12.8901H9.72797ZM15.2065 10.087H13.8687V10.8515H15.1428V11.3612H13.8687V12.4442H15.2065V12.8901H13.3591V9.57733H15.2065V10.087ZM16.799 10.087V12.8901H16.2893V10.087H15.525V9.64106H17.5635V10.087H16.799ZM18.3279 9.64106L19.1562 11.8708L20.048 9.51382L20.876 11.8708L21.7679 9.64106H22.405L20.9398 13.1448L20.1117 10.7878L19.2199 13.1448L17.8182 9.64106H18.3279ZM22.4687 11.2337C22.474 10.7792 22.6569 10.3447 22.9783 10.0235C23.2998 9.70201 23.7341 9.51897 24.1888 9.51382C24.6433 9.51897 25.0776 9.70201 25.399 10.0235C25.7205 10.3447 25.9033 10.7792 25.9087 11.2337C25.9033 11.6882 25.7205 12.1227 25.399 12.4442C25.0776 12.7656 24.6433 12.9484 24.1888 12.9538C23.7427 12.9538 23.3605 12.8263 23.0421 12.5079C22.6599 12.1892 22.4687 11.8071 22.4687 11.2337ZM22.9783 11.2337C22.9783 11.6159 23.1058 11.8708 23.3605 12.1255C23.6154 12.3804 23.8701 12.5079 24.1888 12.5079C24.5072 12.5079 24.8257 12.3804 25.0806 12.1255C25.3353 11.8708 25.4628 11.6159 25.4628 11.2337C25.4628 10.8515 25.3353 10.5966 25.0806 10.3419C24.8257 10.087 24.571 9.95972 24.1888 9.95972C23.8701 9.95972 23.5517 10.087 23.2968 10.3419C23.1058 10.5966 22.9783 10.9153 22.9783 11.2337ZM27.6923 11.4886L28.7116 12.8901H28.0747L27.1191 11.5521H27.0554V12.8901H26.5458V9.57733H27.1191C27.565 9.57733 27.8835 9.64106 28.0747 9.83226C28.2657 10.0235 28.3931 10.2782 28.3931 10.5331C28.3931 10.7878 28.3294 10.979 28.2019 11.1062C28.0747 11.3612 27.8835 11.4886 27.6923 11.4886ZM27.0554 11.1062H27.1826C27.6288 11.1062 27.8835 10.9153 27.8835 10.5966C27.8835 10.2782 27.6288 10.087 27.1826 10.087H26.9917V11.1062H27.0554ZM29.6671 10.9153L30.9413 9.57733H31.5784L30.1132 11.0427L31.5784 12.8263H30.9413L29.7308 11.3612L29.6036 11.4886V12.8263H29.0939V9.51382H29.6036V10.9153H29.6671Z" fill="#F26E21"/>
<path d="M33.7496 6.07678H32.6028V4.93005L31.3289 3.65607V7.09605H34.7688L33.7496 6.07678Z" fill="#3B3D3F"/>
<path d="M29.1612 1.48689L27.7597 5.05432L26.1033 0.849854H24.7656L27.3775 7.28384H28.0781L30.1167 2.44243L29.1612 1.48689Z" fill="#3B3D3F"/>
</svg>
