<svg width="122" height="69" viewBox="0 0 122 69" fill="none" xmlns="http://www.w3.org/2000/svg"><path d="M59.09 27.846H34.075V25.08h-2.781V2.948h2.781V.178H59.1v5.53H42.414v5.536h8.338v5.537h-8.338v5.529h16.677v5.536z" fill="url(#paint0_linear)"/><path d="M59.218 27.974H33.945v-2.767h-2.782V2.82h2.782V.051h25.282v5.785H42.542v5.272h8.338v5.784h-8.34v5.274h16.677v5.808zm-25.016-.255H58.97v-5.272H42.285v-5.785h8.338V11.39h-8.338V5.606H58.96V.332H34.2v2.77h-2.78v21.875h2.78v2.742z" fill="url(#paint1_linear)"/><path d="M90.033 27.846H65.007V25.08h-2.783V2.948h2.783V.178h25.026v5.53H73.355v5.536h8.338v5.537h-8.338v5.529h16.678v5.536z" fill="url(#paint2_linear)"/><path d="M90.16 27.974H64.879v-2.767h-2.782V2.82h2.782V.051h25.283v5.785H73.483v5.272h8.338v5.784h-8.338v5.274H90.16v5.808zm-25.025-.255h24.769v-5.272H73.226v-5.785h8.338V11.39h-8.338V5.606h16.678V.332H65.135v2.77h-2.783v21.875h2.783v2.742z" fill="url(#paint3_linear)"/><path d="M121.255 27.788h-11.122V16.722h-5.556v11.066H93.455V.128h11.122v11.066h5.556V.127h11.122v11.066h-2.783v5.528h2.783v11.066z" fill="url(#paint4_linear)"/><path d="M121.383 27.916h-11.378V16.85h-5.3v11.066H93.327V0h11.378v11.066h5.3V0h11.378v11.321h-2.782v5.274h2.782v11.32zm-11.121-.256h10.865V16.85h-2.783v-5.784h2.783V.256h-10.865V11.32h-5.813V.256H93.584V27.66h10.865V16.594h5.813V27.66z" fill="url(#paint5_linear)"/><path d="M27.8 27.83H2.773v-2.769H0V2.939h2.783V.169h25.024V5.7H11.121v16.594h5.557v-5.529h-2.783v-5.528H27.8V27.83z" fill="url(#paint6_linear)"/><path d="M27.543.425v5.018H10.864V22.55h6.07v-6.04h-2.782v-5.02h13.39v16.083H3.032v-2.769H.257V3.195H3.04V.424h24.503zm.256-.255H2.774v2.769H0V25.07h2.783v2.769h25.024V11.235H13.895v5.53h2.783v5.528h-5.557V5.7H27.8V.169z" fill="url(#paint7_linear)"/><path d="M38.21 64.63h-3.82v3.799H3.818V64.63H0V34.21h3.818v-3.799h30.573v3.799h3.818v30.42zm-15.283-3.799V38.018h-7.645V60.83h7.645z" fill="url(#paint8_linear)"/><path d="M34.134 30.667v3.798h3.818v29.91h-3.818v3.798H4.074v-3.799H.258V34.466h3.818v-3.8h30.06zm-19.109 30.42h8.159V37.762h-8.159v23.325zM34.391 30.41H3.818v3.799H0v30.42h3.818v3.799h30.573V64.63h3.818V34.21h-3.818v-3.799zM15.282 60.83V38.018h7.645V60.83h-7.645z" fill="url(#paint9_linear)"/><path d="M80.031 64.63h-3.818v3.799H45.631V64.63h-3.818V30.411h15.282v30.42h7.645v-30.42h15.282l.01 34.219z" fill="url(#paint10_linear)"/><path d="M79.775 30.667v33.707h-3.818v3.8H45.888v-3.8H42.07V30.667h14.77v30.42h8.158v-30.42h14.778zm.256-.256H64.75v30.42h-7.644v-30.42H41.813V64.63h3.818v3.799h30.573V64.63h3.819l.008-34.219z" fill="url(#paint11_linear)"/><path d="M121.4 38.018h-11.463v30.42H94.655v-30.42H83.191V30.41H121.4v7.607z" fill="url(#paint12_linear)"/><path d="M121.143 30.667v7.095h-11.462v30.42H94.912v-30.42H83.448v-7.095h37.695zm.257-.256H83.191v7.607h11.464v30.42h15.282v-30.42H121.4V30.41z" fill="url(#paint13_linear)"/><defs><linearGradient id="paint0_linear" x1="45.196" y1=".179" x2="45.196" y2="27.846" gradientUnits="userSpaceOnUse"><stop stop-color="#FDF3AA"/><stop offset=".292" stop-color="#FBF5AC"/><stop offset=".335" stop-color="#F1EAA4"/><stop offset=".409" stop-color="#D5CD90"/><stop offset=".507" stop-color="#A99E6F"/><stop offset=".623" stop-color="#6C5D41"/><stop offset=".652" stop-color="#5C4C35"/><stop offset=".716" stop-color="#7D673D"/><stop offset=".796" stop-color="#9E8346"/><stop offset=".872" stop-color="#B7974C"/><stop offset=".942" stop-color="#C6A350"/><stop offset="1" stop-color="#CBA751"/></linearGradient><linearGradient id="paint1_linear" x1="45.195" y1="27.974" x2="45.195" y2=".051" gradientUnits="userSpaceOnUse"><stop stop-color="#FDF3AA"/><stop offset=".292" stop-color="#FBF5AC"/><stop offset=".335" stop-color="#F0EAA5"/><stop offset=".409" stop-color="#D5CD90"/><stop offset=".507" stop-color="#A99E6F"/><stop offset=".623" stop-color="#6C5D41"/><stop offset=".652" stop-color="#5C4C35"/><stop offset=".716" stop-color="#7D673D"/><stop offset=".796" stop-color="#9F8346"/><stop offset=".873" stop-color="#B7974C"/><stop offset=".942" stop-color="#C6A350"/><stop offset="1" stop-color="#CBA751"/></linearGradient><linearGradient id="paint2_linear" x1="76.129" y1=".179" x2="76.129" y2="27.846" gradientUnits="userSpaceOnUse"><stop stop-color="#FDF3AA"/><stop offset=".292" stop-color="#FBF5AC"/><stop offset=".335" stop-color="#F1EAA4"/><stop offset=".409" stop-color="#D5CD90"/><stop offset=".507" stop-color="#A99E6F"/><stop offset=".623" stop-color="#6C5D41"/><stop offset=".652" stop-color="#5C4C35"/><stop offset=".716" stop-color="#7D673D"/><stop offset=".796" stop-color="#9E8346"/><stop offset=".872" stop-color="#B7974C"/><stop offset=".942" stop-color="#C6A350"/><stop offset="1" stop-color="#CBA751"/></linearGradient><linearGradient id="paint3_linear" x1="76.128" y1="27.974" x2="76.128" y2=".051" gradientUnits="userSpaceOnUse"><stop stop-color="#FDF3AA"/><stop offset=".292" stop-color="#FBF5AC"/><stop offset=".335" stop-color="#F0EAA5"/><stop offset=".409" stop-color="#D5CD90"/><stop offset=".507" stop-color="#A99E6F"/><stop offset=".623" stop-color="#6C5D41"/><stop offset=".652" stop-color="#5C4C35"/><stop offset=".716" stop-color="#7D673D"/><stop offset=".796" stop-color="#9F8346"/><stop offset=".873" stop-color="#B7974C"/><stop offset=".942" stop-color="#C6A350"/><stop offset="1" stop-color="#CBA751"/></linearGradient><linearGradient id="paint4_linear" x1="107.356" y1=".128" x2="107.356" y2="27.788" gradientUnits="userSpaceOnUse"><stop stop-color="#FDF3AA"/><stop offset=".292" stop-color="#FBF5AC"/><stop offset=".335" stop-color="#F1EAA4"/><stop offset=".409" stop-color="#D5CD90"/><stop offset=".507" stop-color="#A99E6F"/><stop offset=".623" stop-color="#6C5D41"/><stop offset=".652" stop-color="#5C4C35"/><stop offset=".716" stop-color="#7D673D"/><stop offset=".796" stop-color="#9E8346"/><stop offset=".872" stop-color="#B7974C"/><stop offset=".942" stop-color="#C6A350"/><stop offset="1" stop-color="#CBA751"/></linearGradient><linearGradient id="paint5_linear" x1="107.356" y1="27.916" x2="107.356" y2="0" gradientUnits="userSpaceOnUse"><stop stop-color="#FDF3AA"/><stop offset=".292" stop-color="#FBF5AC"/><stop offset=".335" stop-color="#F0EAA5"/><stop offset=".409" stop-color="#D5CD90"/><stop offset=".507" stop-color="#A99E6F"/><stop offset=".623" stop-color="#6C5D41"/><stop offset=".652" stop-color="#5C4C35"/><stop offset=".716" stop-color="#7D673D"/><stop offset=".796" stop-color="#9F8346"/><stop offset=".873" stop-color="#B7974C"/><stop offset=".942" stop-color="#C6A350"/><stop offset="1" stop-color="#CBA751"/></linearGradient><linearGradient id="paint6_linear" x1="13.904" y1=".33" x2="13.904" y2="27.988" gradientUnits="userSpaceOnUse"><stop stop-color="#FDF3AA"/><stop offset=".292" stop-color="#FBF5AC"/><stop offset=".335" stop-color="#F1EAA4"/><stop offset=".409" stop-color="#D5CD90"/><stop offset=".507" stop-color="#A99E6F"/><stop offset=".623" stop-color="#6C5D41"/><stop offset=".652" stop-color="#5C4C35"/><stop offset=".716" stop-color="#7D673D"/><stop offset=".796" stop-color="#9E8346"/><stop offset=".872" stop-color="#B7974C"/><stop offset=".942" stop-color="#C6A350"/><stop offset="1" stop-color="#CBA751"/></linearGradient><linearGradient id="paint7_linear" x1="2.084" y1="27.144" x2="28.364" y2=".733" gradientUnits="userSpaceOnUse"><stop stop-color="#FDF3AA"/><stop offset=".292" stop-color="#FBF5AC"/><stop offset=".335" stop-color="#F0EAA5"/><stop offset=".409" stop-color="#D5CD90"/><stop offset=".507" stop-color="#A99E6F"/><stop offset=".623" stop-color="#6C5D41"/><stop offset=".652" stop-color="#5C4C35"/><stop offset=".716" stop-color="#7D673D"/><stop offset=".796" stop-color="#9F8346"/><stop offset=".873" stop-color="#B7974C"/><stop offset=".942" stop-color="#C6A350"/><stop offset="1" stop-color="#CBA751"/></linearGradient><linearGradient id="paint8_linear" x1="19.178" y1="30.352" x2="19.032" y2="68.293" gradientUnits="userSpaceOnUse"><stop stop-color="#FDF3AA"/><stop offset=".292" stop-color="#FBF5AC"/><stop offset=".335" stop-color="#F1EAA4"/><stop offset=".409" stop-color="#D5CD90"/><stop offset=".507" stop-color="#A99E6F"/><stop offset=".623" stop-color="#6C5D41"/><stop offset=".652" stop-color="#5C4C35"/><stop offset=".716" stop-color="#7D673D"/><stop offset=".796" stop-color="#9E8346"/><stop offset=".872" stop-color="#B7974C"/><stop offset=".942" stop-color="#C6A350"/><stop offset="1" stop-color="#CBA751"/></linearGradient><linearGradient id="paint9_linear" x1="19.105" y1="68.429" x2="19.105" y2="30.411" gradientUnits="userSpaceOnUse"><stop stop-color="#FDF3AA"/><stop offset=".292" stop-color="#FBF5AC"/><stop offset=".335" stop-color="#F0EAA5"/><stop offset=".409" stop-color="#D5CD90"/><stop offset=".507" stop-color="#A99E6F"/><stop offset=".623" stop-color="#6C5D41"/><stop offset=".652" stop-color="#5C4C35"/><stop offset=".716" stop-color="#7D673D"/><stop offset=".796" stop-color="#9F8346"/><stop offset=".873" stop-color="#B7974C"/><stop offset=".942" stop-color="#C6A350"/><stop offset="1" stop-color="#CBA751"/></linearGradient><linearGradient id="paint10_linear" x1="60.785" y1="30.203" x2="61.077" y2="68.585" gradientUnits="userSpaceOnUse"><stop stop-color="#FDF3AA"/><stop offset=".292" stop-color="#FBF5AC"/><stop offset=".335" stop-color="#F1EAA4"/><stop offset=".409" stop-color="#D5CD90"/><stop offset=".507" stop-color="#A99E6F"/><stop offset=".623" stop-color="#6C5D41"/><stop offset=".652" stop-color="#5C4C35"/><stop offset=".716" stop-color="#7D673D"/><stop offset=".796" stop-color="#9E8346"/><stop offset=".872" stop-color="#B7974C"/><stop offset=".942" stop-color="#C6A350"/><stop offset="1" stop-color="#CBA751"/></linearGradient><linearGradient id="paint11_linear" x1="60.922" y1="68.429" x2="60.922" y2="30.411" gradientUnits="userSpaceOnUse"><stop stop-color="#FDF3AA"/><stop offset=".292" stop-color="#FBF5AC"/><stop offset=".335" stop-color="#F0EAA5"/><stop offset=".409" stop-color="#D5CD90"/><stop offset=".507" stop-color="#A99E6F"/><stop offset=".623" stop-color="#6C5D41"/><stop offset=".652" stop-color="#5C4C35"/><stop offset=".716" stop-color="#7D673D"/><stop offset=".796" stop-color="#9F8346"/><stop offset=".873" stop-color="#B7974C"/><stop offset=".942" stop-color="#C6A350"/><stop offset="1" stop-color="#CBA751"/></linearGradient><linearGradient id="paint12_linear" x1="102.327" y1="30.198" x2="102.035" y2="68.727" gradientUnits="userSpaceOnUse"><stop stop-color="#FDF3AA"/><stop offset=".292" stop-color="#FBF5AC"/><stop offset=".335" stop-color="#F1EAA4"/><stop offset=".409" stop-color="#D5CD90"/><stop offset=".507" stop-color="#A99E6F"/><stop offset=".623" stop-color="#6C5D41"/><stop offset=".652" stop-color="#5C4C35"/><stop offset=".716" stop-color="#7D673D"/><stop offset=".796" stop-color="#9E8346"/><stop offset=".872" stop-color="#B7974C"/><stop offset=".942" stop-color="#C6A350"/><stop offset="1" stop-color="#CBA751"/></linearGradient><linearGradient id="paint13_linear" x1="102.296" y1="68.438" x2="102.296" y2="30.411" gradientUnits="userSpaceOnUse"><stop stop-color="#FDF3AA"/><stop offset=".292" stop-color="#FBF5AC"/><stop offset=".335" stop-color="#F0EAA5"/><stop offset=".409" stop-color="#D5CD90"/><stop offset=".507" stop-color="#A99E6F"/><stop offset=".623" stop-color="#6C5D41"/><stop offset=".652" stop-color="#5C4C35"/><stop offset=".716" stop-color="#7D673D"/><stop offset=".796" stop-color="#9F8346"/><stop offset=".873" stop-color="#B7974C"/><stop offset=".942" stop-color="#C6A350"/><stop offset="1" stop-color="#CBA751"/></linearGradient></defs></svg>