<svg width="25" height="19" viewBox="0 0 25 19" fill="none" xmlns="http://www.w3.org/2000/svg">
<path d="M5.10867 18.8427V17.6464C5.10867 17.1878 4.82952 16.8887 4.35098 16.8887C4.11172 16.8887 3.8525 16.9685 3.67305 17.2277C3.53348 17.0084 3.33409 16.8887 3.035 16.8887C2.83561 16.8887 2.63622 16.9485 2.4767 17.1679V16.9286H2.05798V18.8427H2.4767V17.7861C2.4767 17.447 2.65616 17.2876 2.93531 17.2876C3.21444 17.2876 3.35402 17.467 3.35402 17.7861V18.8427H3.77274V17.7861C3.77274 17.447 3.97213 17.2876 4.23135 17.2876C4.5105 17.2876 4.65006 17.467 4.65006 17.7861V18.8427H5.10867ZM11.3097 16.9286H10.6318V16.3503H10.2131V16.9286H9.83418V17.3073H10.2131V18.1848C10.2131 18.6234 10.3925 18.8826 10.871 18.8826C11.0504 18.8826 11.25 18.8227 11.3895 18.7431L11.27 18.3841C11.1502 18.4639 11.0107 18.4839 10.911 18.4839C10.7116 18.4839 10.6318 18.3642 10.6318 18.1648V17.3073H11.3097V16.9286ZM14.8589 16.8887C14.6196 16.8887 14.4602 17.0084 14.3604 17.1679V16.9286H13.9417V18.8427H14.3604V17.7661C14.3604 17.447 14.5001 17.2676 14.7593 17.2676C14.8389 17.2676 14.9387 17.2876 15.0185 17.3073L15.138 16.9086C15.0582 16.8887 14.9387 16.8887 14.8589 16.8887ZM9.49536 17.088C9.29579 16.9485 9.01684 16.8887 8.71771 16.8887C8.23919 16.8887 7.9201 17.1279 7.9201 17.5069C7.9201 17.8258 8.15936 18.0054 8.57801 18.065L8.77757 18.085C8.99688 18.1249 9.1164 18.1848 9.1164 18.2845C9.1164 18.424 8.95697 18.5238 8.67779 18.5238C8.39862 18.5238 8.17932 18.424 8.03973 18.3242L7.84034 18.6433C8.05967 18.8028 8.35871 18.8826 8.65784 18.8826C9.21618 18.8826 9.53527 18.6234 9.53527 18.2646C9.53527 17.9255 9.27605 17.7462 8.87714 17.6863L8.67779 17.6663C8.4984 17.6464 8.35871 17.6065 8.35871 17.4869C8.35871 17.3472 8.4984 17.2676 8.71771 17.2676C8.95697 17.2676 9.19623 17.3672 9.31575 17.4271L9.49536 17.088ZM20.6213 16.8887C20.382 16.8887 20.2226 17.0084 20.1228 17.1679V16.9286H19.7042V18.8427H20.1228V17.7661C20.1228 17.447 20.2625 17.2676 20.5217 17.2676C20.6013 17.2676 20.7011 17.2876 20.7809 17.3073L20.9005 16.9086C20.8206 16.8887 20.7011 16.8887 20.6213 16.8887ZM15.2777 17.8856C15.2777 18.4639 15.6764 18.8826 16.2944 18.8826C16.5736 18.8826 16.7732 18.8227 16.9725 18.6633L16.7732 18.3242C16.6135 18.444 16.4541 18.5038 16.2747 18.5038C15.9356 18.5038 15.6964 18.2646 15.6964 17.8856C15.6964 17.5269 15.9356 17.2876 16.2747 17.2676C16.4541 17.2676 16.6135 17.3273 16.7732 17.447L16.9725 17.108C16.7732 16.9485 16.5736 16.8887 16.2944 16.8887C15.6764 16.8887 15.2777 17.3073 15.2777 17.8856ZM19.1458 17.8856V16.9286H18.7272V17.1679C18.5875 16.9885 18.3881 16.8887 18.1289 16.8887C17.5905 16.8887 17.1719 17.3073 17.1719 17.8856C17.1719 18.4639 17.5905 18.8826 18.1289 18.8826C18.4081 18.8826 18.6074 18.783 18.7272 18.6034V18.8427H19.1458V17.8856ZM17.6105 17.8856C17.6105 17.5466 17.8298 17.2676 18.1888 17.2676C18.5278 17.2676 18.7671 17.5269 18.7671 17.8856C18.7671 18.2247 18.5278 18.5038 18.1888 18.5038C17.8298 18.4839 17.6105 18.2247 17.6105 17.8856ZM12.6057 16.8887C12.0474 16.8887 11.6487 17.2876 11.6487 17.8856C11.6487 18.4839 12.0474 18.8826 12.6257 18.8826C12.9049 18.8826 13.184 18.8028 13.4033 18.6234L13.204 18.3242C13.0444 18.444 12.845 18.5238 12.6457 18.5238C12.3864 18.5238 12.1272 18.4041 12.0674 18.065H13.4832C13.4832 18.0054 13.4832 17.9655 13.4832 17.9056C13.5031 17.2876 13.1441 16.8887 12.6057 16.8887ZM12.6057 17.2477C12.865 17.2477 13.0443 17.4071 13.0843 17.7062H12.0873C12.1272 17.447 12.3066 17.2477 12.6057 17.2477ZM22.9942 17.8856V16.1709H22.5753V17.1679C22.4358 16.9885 22.2365 16.8887 21.9772 16.8887C21.4389 16.8887 21.0202 17.3073 21.0202 17.8856C21.0202 18.4639 21.4389 18.8826 21.9772 18.8826C22.2564 18.8826 22.4558 18.783 22.5753 18.6034V18.8427H22.9942V17.8856ZM21.4588 17.8856C21.4588 17.5466 21.6781 17.2676 22.0371 17.2676C22.3759 17.2676 22.6152 17.5269 22.6152 17.8856C22.6152 18.2247 22.3759 18.5038 22.0371 18.5038C21.6781 18.4839 21.4588 18.2247 21.4588 17.8856ZM7.46149 17.8856V16.9286H7.04278V17.1679C6.90319 16.9885 6.7038 16.8887 6.44458 16.8887C5.90624 16.8887 5.48752 17.3073 5.48752 17.8856C5.48752 18.4639 5.90624 18.8826 6.44458 18.8826C6.72373 18.8826 6.92312 18.783 7.04278 18.6034V18.8427H7.46149V17.8856ZM5.90624 17.8856C5.90624 17.5466 6.12556 17.2676 6.48447 17.2676C6.82343 17.2676 7.06271 17.5269 7.06271 17.8856C7.06271 18.2247 6.82343 18.5038 6.48447 18.5038C6.12556 18.4839 5.90624 18.2247 5.90624 17.8856Z" fill="black"/>
<path d="M15.6397 2.39215H9.35889V13.6778H15.6397V2.39215Z" fill="#FF5F00"/>
<path d="M9.75748 8.03562C9.75748 5.74258 10.8343 3.70878 12.4891 2.39281C11.2729 1.43572 9.73752 0.857483 8.0627 0.857483C4.09479 0.857483 0.884583 4.06769 0.884583 8.03562C0.884583 12.0035 4.09479 15.2137 8.0627 15.2137C9.73752 15.2137 11.2729 14.6354 12.4891 13.6783C10.8343 12.3822 9.75748 10.3287 9.75748 8.03562Z" fill="#EB001B"/>
<path d="M24.1155 8.03562C24.1155 12.0035 20.9053 15.2137 16.9374 15.2137C15.2624 15.2137 13.7271 14.6354 12.5108 13.6783C14.1858 12.3625 15.2424 10.3287 15.2424 8.03562C15.2424 5.74258 14.1659 3.70878 12.5108 2.39281C13.7271 1.43572 15.2624 0.857483 16.9374 0.857483C20.9053 0.857483 24.1155 4.08763 24.1155 8.03562Z" fill="#F79E1B"/>
</svg>
