<svg width="33" height="12" viewBox="0 0 33 12" fill="none" xmlns="http://www.w3.org/2000/svg">
<path d="M14.3731 10.8707H11.7949L13.4075 0.899963H15.9855L14.3731 10.8707Z" fill="#00579F"/>
<path d="M23.728 1.14452C23.2194 0.942771 22.4128 0.720032 21.4156 0.720032C18.8696 0.720032 17.0767 2.0777 17.0658 4.01861C17.0446 5.45074 18.3494 6.2462 19.3251 6.72364C20.3227 7.21161 20.6618 7.53005 20.6618 7.96501C20.6515 8.63301 19.8558 8.94094 19.1136 8.94094C18.0842 8.94094 17.5327 8.78214 16.6946 8.41049L16.3551 8.25127L15.9944 10.4894C16.5991 10.7649 17.713 11.0093 18.8696 11.02C21.5746 11.02 23.3357 9.68339 23.3567 7.61503C23.367 6.47988 22.678 5.61017 21.1927 4.89947C20.291 4.44327 19.7386 4.13577 19.7386 3.66884C19.7494 3.24461 20.2058 2.80986 21.2236 2.80986C22.0617 2.78862 22.6776 2.99011 23.1441 3.1916L23.3773 3.29761L23.728 1.14452Z" fill="#00579F"/>
<path d="M27.1498 7.33841C27.3622 6.76569 28.1791 4.54861 28.1791 4.54861C28.1684 4.56985 28.3911 3.96537 28.5184 3.59414L28.6986 4.45312C28.6986 4.45312 29.1868 6.83993 29.2928 7.33841C28.8898 7.33841 27.6592 7.33841 27.1498 7.33841ZM30.3322 0.899963H28.3381C27.7231 0.899963 27.256 1.08013 26.9905 1.72727L23.1611 10.8705H25.8663C25.8663 10.8705 26.3116 9.63982 26.4073 9.37481C26.7041 9.37481 29.3357 9.37481 29.7175 9.37481C29.7915 9.72479 30.025 10.8705 30.025 10.8705H32.412L30.3322 0.899963Z" fill="#00579F"/>
<path d="M9.64379 0.899963L7.11898 7.69891L6.84309 6.32C6.3763 4.72908 4.91235 3.00039 3.27869 2.14077L5.59132 10.8602H8.3176L12.37 0.899963H9.64379Z" fill="#00579F"/>
<path d="M4.77831 0.899963H0.630397L0.587952 1.10141C3.82359 1.92876 5.96648 3.92332 6.8469 6.32044L5.9452 1.738C5.79675 1.10129 5.34052 0.920971 4.77831 0.899963Z" fill="#FAA61A"/>
</svg>
