<svg width="24" height="24" viewBox="0 0 24 24" fill="none" xmlns="http://www.w3.org/2000/svg">
<path d="M11.9999 8.74956C10.205 8.74956 8.74994 10.2046 8.74994 11.9996C8.74994 13.7945 10.205 15.2496 11.9999 15.2496C13.7949 15.2496 15.2499 13.7945 15.2499 11.9996C15.2499 10.2046 13.7949 8.74956 11.9999 8.74956Z" fill="black"/>
<path fill-rule="evenodd" clip-rule="evenodd" d="M6.76948 3.08103C10.2176 2.69565 13.7823 2.69565 17.2304 3.08103C19.1288 3.2932 20.66 4.78898 20.8828 6.69403C21.2951 10.219 21.2951 13.7801 20.8828 17.3051C20.66 19.2101 19.1288 20.7059 17.2304 20.9181C13.7823 21.3035 10.2176 21.3035 6.76948 20.9181C4.87108 20.7059 3.33989 19.2101 3.11707 17.3051C2.70479 13.7801 2.70479 10.219 3.11707 6.69403C3.33989 4.78898 4.87108 3.2932 6.76948 3.08103ZM16.9999 5.99956C16.4477 5.99956 15.9999 6.44727 15.9999 6.99956C15.9999 7.55184 16.4477 7.99956 16.9999 7.99956C17.5522 7.99956 17.9999 7.55184 17.9999 6.99956C17.9999 6.44727 17.5522 5.99956 16.9999 5.99956ZM7.24994 11.9996C7.24994 9.3762 9.37659 7.24956 11.9999 7.24956C14.6233 7.24956 16.7499 9.3762 16.7499 11.9996C16.7499 14.6229 14.6233 16.7496 11.9999 16.7496C9.37659 16.7496 7.24994 14.6229 7.24994 11.9996Z" fill="black"/>
</svg>
