<?xml version="1.0" encoding="UTF-8"?>
<!DOCTYPE svg PUBLIC "-//W3C//DTD SVG 1.1//EN" "http://www.w3.org/Graphics/SVG/1.1/DTD/svg11.dtd">
<!-- Creator: CorelDRAW 2017 -->
<svg xmlns="http://www.w3.org/2000/svg" xml:space="preserve" width="55.6371mm" height="16.1446mm" version="1.1" style="shape-rendering:geometricPrecision; text-rendering:geometricPrecision; image-rendering:optimizeQuality; fill-rule:evenodd; clip-rule:evenodd"
viewBox="0 0 1677.28 486.71"
 xmlns:xlink="http://www.w3.org/1999/xlink">
 <defs>
  <style type="text/css">
   <![CDATA[
    .fil0 {fill:#FFC94A;fill-rule:nonzero}
   ]]>
  </style>
 </defs>
 <g id="Слой_x0020_1">
  <metadata id="CorelCorpID_0Corel-Layer"/>
  <path class="fil0" d="M664.55 485.55l20.73 -87.28 21.11 0 20.73 87.28 -21.11 0 -4.1 -17.01 -12.29 0 -3.97 17.01 -21.11 0zm-459.8 -388.49l0 25.19 -69.06 0 -15.85 -11.38 -34.94 0 -15.84 11.38 0 149.09 16.25 9.75 34.13 0 16.25 -9.75 0 -37.38 -32.91 0 0 -57.69 101.56 0 0 44.69 0.41 0 0 74.35 -68.66 43.47 -67.44 0 -68.66 -43.47 0 -199.88 69.06 -41.84 66.62 0 69.06 43.47zm920.39 294.95l20.36 0 0 -0.13 21.11 13.41 0 21.61 -21.11 -3.11 0 -10.8 -4.84 -3.48 -10.68 0 -4.84 3.48 0 9.56 41.47 20.61 0 22.6 -20.98 13.41 -20.61 0 -20.98 -13.41 0 -21.36 21.11 3.48 0 10.68 4.97 3.11 10.43 0 4.97 -3.11 0 -9.44 -41.47 -20.98 0 -22.85 20.98 -13.41 0.12 0 0 0.13zm-31.61 7.54l0 17.51 -41.47 0 0 17.38 20.73 0 0 17.63 -20.73 0 0 17.01 41.47 0 0 17.63 -62.58 0 0 -87.28 62.58 0.12zm-130.56 -7.96l21.11 0 0 69.66 37.49 0 0 17.63 -58.6 0 0 -87.29zm-13.27 6.21l0 17.51 -41.47 0 0 17.38 20.73 0 0 17.63 -20.73 0 0 17.01 41.47 0 0 17.63 -62.58 0 0 -87.29 62.58 0.12zm-73.49 8.48l0 7.7 -21.11 0 -4.84 -3.48 -10.68 0 -4.84 3.48 0 45.57 4.97 2.98 10.43 0 4.97 -2.98 0 -11.42 -10.06 0 0 -17.63 31.04 0 0 13.66 0.13 0 0 22.72 -20.99 13.29 -20.61 0 -20.98 -13.29 0 -61.09 21.11 -12.79 20.36 0 21.11 13.28zm-94.76 -11.5l21.11 0 0 87.29 -21.11 0 0 0 -20.36 -43.95 0 43.95 -21.11 0 0 -87.29 21.11 0 0 0 20.36 43.33 0 -43.33zm-185.67 -1.76l20.36 0 0 -0.13 21.11 13.41 0 21.6 -21.11 -3.11 0 -10.8 -4.84 -3.48 -10.68 0 -4.84 3.48 0 9.56 41.47 20.61 0 22.6 -20.99 13.41 -20.61 0 -20.99 -13.41 0 -21.36 21.11 3.48 0 10.68 4.97 3.11 10.43 0 4.97 -3.11 0 -9.44 -41.47 -20.98 0 -22.85 20.99 -13.41 0.12 0 0 0.13zm-31.65 68.07l0 -0.12 -20.98 13.41 -20.49 0 -0.12 0 -20.99 -13.29 0 -60.59 21.11 -13.29 20.36 0 21.11 13.29 0 60.47 0 0.12zm-128.05 -72.11l21.11 0 0 69.65 37.5 0 0 17.63 -58.61 0 0 -87.29zm1036.45 -359.58l204.75 0 0 57.28 -67.84 0 0 227.91 -69.06 0 0 -227.91 -67.85 0 0 -57.28zm-164.66 188.75l16.25 9.75 34.13 0 16.25 -9.75 0 -218.16 69.06 0 0 242.13 -68.66 43.47 -67.44 0 -68.66 -43.47 0 -242.13 69.06 0 0 218.16zm-109.63 40.79l0 -0.41 -68.66 43.88 -67.03 0 -0.41 0 -68.66 -43.47 0 -198.25 69.06 -43.47 66.62 0 69.06 43.47 0 197.84 0 0.41zm-300.75 -208.66l69.06 0 -71.91 142.6 71.91 143 -69.06 0 -77.19 -145.44 0 145.44 -69.06 0 0 -285.6 69.06 0 0 140.16 77.19 -140.16zm-195.3 -46.97l0 57.28 -135.69 0 0 56.87 67.85 0 0 57.69 -67.85 0 0 55.66 135.69 0 0 57.69 -204.75 0 0 -285.6 204.75 0.41zm-247.07 13.92l0 57.28 -135.69 0 0 56.87 67.85 0 0 57.69 -67.85 0 0 55.66 135.69 0 0 57.69 -204.75 0 0 -285.6 204.75 0.41zm674.05 217.75l0 -149.09 -15.84 -11.37 -34.94 0 -15.85 11.37 0 149.09 16.25 9.75 34.13 0 16.25 -9.75zm-586.15 218.8l0 -45.57 -4.84 -3.48 -10.68 0 -4.84 3.48 0 45.57 4.97 2.98 10.43 0 4.97 -2.98zm154.8 -2.74l-1.99 -8.32 -1.99 8.32 3.97 0z"/>
 </g>
</svg>
