<svg width="90" height="70" viewBox="0 0 90 70" fill="none" xmlns="http://www.w3.org/2000/svg">
<path d="M89.7244 66.1199L81.3466 49.1066C80.9599 48.2044 80.0577 47.6888 79.0266 47.6888H73.8711L64.8488 29.5155C64.4622 28.6133 63.56 28.0977 62.5289 28.0977H38.9422H27.4711C26.44 28.0977 25.5378 28.6133 25.1511 29.5155L16.1289 47.6888H10.9734C9.94227 47.6888 9.04005 48.2044 8.65339 49.1066L0.275621 66.1199C-0.111045 66.8932 -0.111047 67.9243 0.404508 68.5688C0.920063 69.3421 1.69339 69.7288 2.59561 69.7288H32.1111C32.3689 69.7288 32.4978 69.7288 32.7556 69.5999C32.8845 69.7288 33.1422 69.7288 33.4 69.7288H65.1066H87.4044C88.3066 69.7288 89.0799 69.2132 89.5955 68.5688C90.1111 67.9243 90.111 67.0221 89.7244 66.1199ZM71.0355 47.6888H55.44H49.5111L41.1333 30.6755H62.6577L71.0355 47.6888ZM27.4711 30.6755H38.1689L46.5467 47.6888H43.0667H22.5734H19.0934L27.4711 30.6755ZM32.8845 66.8932L24.6356 50.2666H41.1333L32.8845 66.8932ZM2.7245 67.2799L11.1023 50.2666H17.0312H21.8L30.1778 67.2799H2.7245ZM35.5911 67.2799L43.9689 50.2666H48.7378H54.6666L63.0444 67.2799H35.5911ZM65.88 67.2799L57.5022 50.2666H73.0977H79.0266L87.4044 67.2799H65.88ZM43.84 13.4044V1.28889C43.84 0.515555 44.3556 0 45.1289 0C45.9022 0 46.4178 0.515555 46.4178 1.28889V13.4044C46.4178 14.1778 45.9022 14.6933 45.1289 14.6933C44.3556 14.6933 43.84 14.1778 43.84 13.4044ZM56.7289 18.6889C56.2133 18.1733 56.2133 17.4 56.7289 16.8844L65.3644 8.24888C65.88 7.73332 66.6533 7.73332 67.1688 8.24888C67.6844 8.76443 67.6844 9.53776 67.1688 10.0533L58.5333 18.6889C58.2755 18.9466 57.8889 19.0755 57.6311 19.0755C57.3733 19.0755 56.8578 18.9466 56.7289 18.6889ZM23.0889 10.0533C22.5734 9.53776 22.5734 8.76443 23.0889 8.24888C23.6045 7.73332 24.3778 7.73332 24.8934 8.24888L33.5289 16.8844C34.0445 17.4 34.0445 18.1733 33.5289 18.6889C33.2711 18.9466 32.8845 19.0755 32.6267 19.0755C32.3689 19.0755 31.9822 18.9466 31.7245 18.6889L23.0889 10.0533Z" fill="white"/>
</svg>
