<svg width="90" height="70" viewBox="0 0 90 70" fill="none" xmlns="http://www.w3.org/2000/svg">
<path d="M88.7088 57.5897H84.5768V6.45624C84.5768 2.84075 81.736 0 78.1205 0H11.8795C8.26399 0 5.42324 2.84075 5.42324 6.45624V57.5897H1.29125C0.516499 57.5897 0 58.1062 0 58.8809V63.5294C0 67.1449 2.84075 69.9857 6.45624 69.9857H83.5438C87.1593 69.9857 90 67.1449 90 63.5294V58.8809C90 58.2353 89.4835 57.5897 88.7088 57.5897ZM8.00574 6.45624C8.00574 4.26112 9.68436 2.5825 11.8795 2.5825H78.1205C80.3156 2.5825 81.9943 4.26112 81.9943 6.45624V57.5897H8.00574V6.45624ZM87.4175 63.5294C87.4175 65.7245 85.7389 67.4032 83.5438 67.4032H6.45624C4.26112 67.4032 2.5825 65.7245 2.5825 63.5294V60.1722H6.71449H83.2855H87.4175V63.5294ZM57.2023 15.3659L50.7461 16.7862C48.2927 17.3027 46.2267 18.8522 45.0646 20.9182C43.7733 18.8522 41.8364 17.3027 39.3831 16.7862L32.9268 15.3659C32.5395 15.2367 32.1521 15.3659 31.8938 15.6241C31.6356 15.8824 31.3773 16.2697 31.3773 16.6571V39.1248C31.3773 39.7704 31.8938 40.4161 32.5395 40.4161L37.7045 40.8034C38.9957 40.9326 40.1578 41.0617 41.0617 41.4491C42.4821 41.9656 43.1277 42.6112 43.5151 43.7733C43.6442 44.1607 43.9024 44.5481 44.4189 44.6772L44.6772 44.8063C44.8063 44.8063 44.9354 44.8063 45.0646 44.8063C45.1937 44.8063 45.3228 44.8063 45.4519 44.8063L45.7102 44.6772C46.0976 44.5481 46.4849 44.1607 46.6141 43.7733C46.8723 42.6112 47.6471 41.9656 49.0674 41.4491C50.1004 41.0617 51.1334 40.9326 52.4247 40.8034L57.5897 40.4161C58.2353 40.4161 58.7518 39.7704 58.7518 39.1248V16.6571C58.7518 16.2697 58.6227 15.8824 58.2353 15.6241C57.977 15.3659 57.5897 15.2367 57.2023 15.3659ZM41.9656 38.9957C40.8034 38.6083 39.3831 38.3501 37.8336 38.2209L33.8307 37.9627V18.2066L38.7374 19.3687C41.7073 20.0143 43.7733 22.5968 43.7733 25.5667V39.7704C43.1277 39.3831 42.4821 39.1248 41.9656 38.9957ZM56.1693 37.9627L52.1664 38.2209C50.6169 38.3501 49.1966 38.6083 48.0344 38.9957C47.5179 39.1248 46.8723 39.5122 46.2267 39.8996V25.6958C46.2267 22.726 48.2927 20.1435 51.2626 19.4978L56.1693 18.4648V37.9627Z" fill="white"/>
</svg>
