<svg width="90" height="82" viewBox="0 0 90 82" fill="none" xmlns="http://www.w3.org/2000/svg">
<path d="M45 0C20.1672 0 0 15.0502 0 33.5619C0 41.99 4.21406 50.1171 11.8896 56.2876V80.0669C11.8896 80.6689 12.1906 81.2709 12.7926 81.4214C12.9431 81.5719 13.2442 81.5719 13.3947 81.5719C13.8462 81.5719 14.1472 81.4214 14.4482 81.1204L30.2508 65.3177C35.0669 66.5217 40.0335 67.1237 45 67.1237C69.8328 67.1237 90 52.0736 90 33.5619C90 15.0502 69.8328 0 45 0ZM45 64.1137C39.883 64.1137 34.9164 63.5117 30.1003 62.1572C29.6488 62.0067 29.0468 62.1572 28.5953 62.6087L14.7492 76.4548V55.5351C14.7492 55.0836 14.5987 54.6321 14.1472 54.3311C6.92309 48.612 2.85955 41.2375 2.85955 33.5619C2.85955 16.7057 21.6722 3.01003 44.8495 3.01003C68.0268 3.01003 86.8395 16.7057 86.8395 33.5619C86.8395 50.4181 68.1773 64.1137 45 64.1137Z" fill="white"/>
</svg>
